<?xml version="1.0" encoding="UTF-8" standalone="no"?>
<!DOCTYPE svg PUBLIC "-//W3C//DTD SVG 1.1//EN"
 "http://www.w3.org/Graphics/SVG/1.1/DTD/svg11.dtd">
<!-- Generated by graphviz version 2.38.0 (20140413.2041)
 -->
<!-- Title: test Pages: 1 -->
<svg width="921pt" height="339pt"
 viewBox="0.00 0.00 920.71 338.59" xmlns="http://www.w3.org/2000/svg" xmlns:xlink="http://www.w3.org/1999/xlink">
<g id="graph0" class="graph" transform="scale(1 1) rotate(0) translate(4 334.593)">
<title>test</title>
<polygon fill="#151515" stroke="none" points="-4,4 -4,-334.593 916.713,-334.593 916.713,4 -4,4"/>
<!-- house -->
<g id="node1" class="node"><title>house</title>
<g id="a_node1"><a xlink:href="persian_house_full.html" xlink:title="House">
<polygon fill="none" stroke="red" points="339.411,-230.942 298.466,-243.38 257.522,-230.942 257.561,-210.817 339.372,-210.817 339.411,-230.942"/>
<text text-anchor="middle" x="298.466" y="-221.68" font-family="Times,serif" font-size="14.00" fill="#ebc72d">House</text>
</a>
</g>
</g>
<!-- stickfighter -->
<g id="node7" class="node"><title>stickfighter</title>
<g id="a_node7"><a xlink:href="persian_stickfighter_full.html" xlink:title="Stickfighter">
<ellipse fill="none" stroke="magenta" cx="281.466" cy="-129.296" rx="51.9908" ry="18"/>
<text text-anchor="middle" x="281.466" y="-125.596" font-family="Times,serif" font-size="14.00" fill="#ebc72d">Stickfighter</text>
</a>
</g>
</g>
<!-- house&#45;&gt;stickfighter -->
<g id="edge6" class="edge"><title>house&#45;&gt;stickfighter</title>
<path fill="none" stroke="#ebc72d" d="M295.958,-210.497C293.449,-196.613 289.524,-174.888 286.391,-157.549"/>
<polygon fill="#ebc72d" stroke="#ebc72d" points="289.785,-156.648 284.562,-147.43 282.896,-157.893 289.785,-156.648"/>
</g>
<!-- fakir -->
<g id="node14" class="node"><title>fakir</title>
<g id="a_node14"><a xlink:href="persian_fakir_full.html" xlink:title="Fakir">
<ellipse fill="none" stroke="magenta" cx="380.466" cy="-129.296" rx="29.4969" ry="18"/>
<text text-anchor="middle" x="380.466" y="-125.596" font-family="Times,serif" font-size="14.00" fill="#ebc72d">Fakir</text>
</a>
</g>
</g>
<!-- house&#45;&gt;fakir -->
<g id="edge5" class="edge"><title>house&#45;&gt;fakir</title>
<path fill="none" stroke="#ebc72d" d="M310.566,-210.497C323.701,-195.427 344.889,-171.117 360.499,-153.207"/>
<polygon fill="#ebc72d" stroke="#ebc72d" points="363.297,-155.323 367.229,-145.484 358.02,-150.723 363.297,-155.323"/>
</g>
<!-- palace -->
<g id="node2" class="node"><title>palace</title>
<g id="a_node2"><a xlink:href="persian_palace_full.html" xlink:title="Palace">
<polygon fill="none" stroke="red" points="441.018,-230.942 399.466,-243.38 357.914,-230.942 357.953,-210.817 440.98,-210.817 441.018,-230.942"/>
<text text-anchor="middle" x="399.466" y="-221.68" font-family="Times,serif" font-size="14.00" fill="#ebc72d">Palace</text>
</a>
</g>
</g>
<!-- worker -->
<g id="node19" class="node"><title>worker</title>
<g id="a_node19"><a xlink:href="persian_worker_full.html" xlink:title="Worker">
<ellipse fill="none" stroke="magenta" cx="447.466" cy="-312.593" rx="38.1938" ry="18"/>
<text text-anchor="middle" x="447.466" y="-308.893" font-family="Times,serif" font-size="14.00" fill="#ebc72d">Worker</text>
</a>
</g>
</g>
<!-- farm -->
<g id="node3" class="node"><title>farm</title>
<g id="a_node3"><a xlink:href="persian_farm_full.html" xlink:title="Farm">
<polygon fill="none" stroke="red" points="533.377,-230.942 496.466,-243.38 459.556,-230.942 459.591,-210.817 533.342,-210.817 533.377,-230.942"/>
<text text-anchor="middle" x="496.466" y="-221.68" font-family="Times,serif" font-size="14.00" fill="#ebc72d">Farm</text>
</a>
</g>
</g>
<!-- snake_basket -->
<g id="node6" class="node"><title>snake_basket</title>
<g id="a_node6"><a xlink:href="persian_snake_basket_full.html" xlink:title="Snake\nBasket">
<polygon fill="none" stroke="red" points="647.615,-43.543 601.466,-66.641 555.318,-43.543 555.361,-6.16955 647.571,-6.16955 647.615,-43.543"/>
<text text-anchor="middle" x="601.466" y="-37.0132" font-family="Times,serif" font-size="14.00" fill="#ebc72d">Snake</text>
<text text-anchor="middle" x="601.466" y="-22.0132" font-family="Times,serif" font-size="14.00" fill="#ebc72d">Basket</text>
</a>
</g>
</g>
<!-- farm&#45;&gt;snake_basket -->
<g id="edge4" class="edge"><title>farm&#45;&gt;snake_basket</title>
<path fill="none" stroke="#ebc72d" stroke-dasharray="1,5" d="M484.747,-210.624C466.113,-186.986 434.018,-137.795 456.466,-102.426 475.989,-71.6675 513.48,-54.5279 545.449,-45.1227"/>
<polygon fill="#ebc72d" stroke="#ebc72d" points="546.456,-48.4759 555.167,-42.4457 544.597,-41.7272 546.456,-48.4759"/>
</g>
<!-- sheep -->
<g id="node18" class="node"><title>sheep</title>
<g id="a_node18"><a xlink:href="persian_sheep_full.html" xlink:title="Sheep">
<ellipse fill="none" stroke="magenta" cx="497.466" cy="-129.296" rx="32.4942" ry="18"/>
<text text-anchor="middle" x="497.466" y="-125.596" font-family="Times,serif" font-size="14.00" fill="#ebc72d">Sheep</text>
</a>
</g>
</g>
<!-- farm&#45;&gt;sheep -->
<g id="edge3" class="edge"><title>farm&#45;&gt;sheep</title>
<path fill="none" stroke="#ebc72d" d="M496.614,-210.497C496.762,-196.613 496.992,-174.888 497.177,-157.549"/>
<polygon fill="#ebc72d" stroke="#ebc72d" points="500.678,-157.466 497.284,-147.43 493.678,-157.392 500.678,-157.466"/>
</g>
<!-- princess -->
<g id="node4" class="node"><title>princess</title>
<g id="a_node4"><a xlink:href="persian_princess_full.html" xlink:title="Princess">
<ellipse fill="none" stroke="magenta" cx="171.466" cy="-129.296" rx="40.0939" ry="18"/>
<text text-anchor="middle" x="171.466" y="-125.596" font-family="Times,serif" font-size="14.00" fill="#ebc72d">Princess</text>
</a>
</g>
</g>
<!-- genie -->
<g id="node5" class="node"><title>genie</title>
<g id="a_node5"><a xlink:href="persian_genie_full.html" xlink:title="Genie">
<ellipse fill="none" stroke="magenta" cx="579.466" cy="-129.296" rx="31.6951" ry="18"/>
<text text-anchor="middle" x="579.466" y="-125.596" font-family="Times,serif" font-size="14.00" fill="#ebc72d">Genie</text>
</a>
</g>
</g>
<!-- elephant -->
<g id="node8" class="node"><title>elephant</title>
<g id="a_node8"><a xlink:href="persian_elephant_full.html" xlink:title="Elephant">
<ellipse fill="none" stroke="magenta" cx="870.466" cy="-129.296" rx="42.4939" ry="18"/>
<text text-anchor="middle" x="870.466" y="-125.596" font-family="Times,serif" font-size="14.00" fill="#ebc72d">Elephant</text>
</a>
</g>
</g>
<!-- magician -->
<g id="node9" class="node"><title>magician</title>
<g id="a_node9"><a xlink:href="persian_magician_full.html" xlink:title="Magician">
<ellipse fill="none" stroke="magenta" cx="766.466" cy="-129.296" rx="44.393" ry="18"/>
<text text-anchor="middle" x="766.466" y="-125.596" font-family="Times,serif" font-size="14.00" fill="#ebc72d">Magician</text>
</a>
</g>
</g>
<!-- magician&#45;&gt;snake_basket -->
<g id="edge7" class="edge"><title>magician&#45;&gt;snake_basket</title>
<path fill="none" stroke="#ebc72d" stroke-width="2" d="M741.764,-114.211C715.09,-99.0013 672.215,-74.5539 640.874,-56.6835"/>
<polygon fill="#ebc72d" stroke="#ebc72d" stroke-width="2" points="642.378,-53.5119 631.957,-51.5989 638.91,-59.5928 642.378,-53.5119"/>
</g>
<!-- minaret -->
<g id="node10" class="node"><title>minaret</title>
<g id="a_node10"><a xlink:href="persian_minaret_full.html" xlink:title="Minaret">
<polygon fill="none" stroke="red" points="731.872,-230.942 683.466,-243.38 635.061,-230.942 635.106,-210.817 731.827,-210.817 731.872,-230.942"/>
<text text-anchor="middle" x="683.466" y="-221.68" font-family="Times,serif" font-size="14.00" fill="#ebc72d">Minaret</text>
</a>
</g>
</g>
<!-- elephant_cage -->
<g id="node11" class="node"><title>elephant_cage</title>
<g id="a_node11"><a xlink:href="persian_elephant_cage_full.html" xlink:title="Elephant\nCage">
<polygon fill="none" stroke="red" points="895.091,-235.71 838.466,-258.808 781.842,-235.71 781.895,-198.336 895.038,-198.336 895.091,-235.71"/>
<text text-anchor="middle" x="838.466" y="-229.18" font-family="Times,serif" font-size="14.00" fill="#ebc72d">Elephant</text>
<text text-anchor="middle" x="838.466" y="-214.18" font-family="Times,serif" font-size="14.00" fill="#ebc72d">Cage</text>
</a>
</g>
</g>
<!-- elephant_cage&#45;&gt;elephant -->
<g id="edge2" class="edge"><title>elephant_cage&#45;&gt;elephant</title>
<path fill="none" stroke="#ebc72d" d="M847.38,-198.172C851.758,-185.301 857.023,-169.823 861.418,-156.899"/>
<polygon fill="#ebc72d" stroke="#ebc72d" points="864.817,-157.776 864.724,-147.181 858.19,-155.522 864.817,-157.776"/>
</g>
<!-- tent -->
<g id="node12" class="node"><title>tent</title>
<g id="a_node12"><a xlink:href="persian_tent_full.html" xlink:title="Tent">
<polygon fill="none" stroke="red" points="617.343,-230.942 584.466,-243.38 551.59,-230.942 551.62,-210.817 617.312,-210.817 617.343,-230.942"/>
<text text-anchor="middle" x="584.466" y="-221.68" font-family="Times,serif" font-size="14.00" fill="#ebc72d">Tent</text>
</a>
</g>
</g>
<!-- tent&#45;&gt;genie -->
<g id="edge13" class="edge"><title>tent&#45;&gt;genie</title>
<path fill="none" stroke="#ebc72d" d="M583.729,-210.497C582.991,-196.613 581.836,-174.888 580.915,-157.549"/>
<polygon fill="#ebc72d" stroke="#ebc72d" points="584.403,-157.23 580.377,-147.43 577.413,-157.601 584.403,-157.23"/>
</g>
<!-- tent&#45;&gt;magician -->
<g id="edge14" class="edge"><title>tent&#45;&gt;magician</title>
<path fill="none" stroke="#ebc72d" d="M600.137,-210.811C607.756,-204.628 617.244,-197.513 626.466,-192.167 662.314,-171.385 674.659,-173.123 712.466,-156.167 718.255,-153.57 724.353,-150.742 730.284,-147.939"/>
<polygon fill="#ebc72d" stroke="#ebc72d" points="731.877,-151.057 739.397,-143.593 728.864,-144.738 731.877,-151.057"/>
</g>
<!-- flying_carpet -->
<g id="node15" class="node"><title>flying_carpet</title>
<g id="a_node15"><a xlink:href="persian_flying_carpet_full.html" xlink:title="Flying\nCarpet">
<ellipse fill="none" stroke="magenta" cx="666.466" cy="-129.296" rx="37.4533" ry="26.7407"/>
<text text-anchor="middle" x="666.466" y="-133.096" font-family="Times,serif" font-size="14.00" fill="#ebc72d">Flying</text>
<text text-anchor="middle" x="666.466" y="-118.096" font-family="Times,serif" font-size="14.00" fill="#ebc72d">Carpet</text>
</a>
</g>
</g>
<!-- tent&#45;&gt;flying_carpet -->
<g id="edge12" class="edge"><title>tent&#45;&gt;flying_carpet</title>
<path fill="none" stroke="#ebc72d" d="M596.566,-210.497C607.975,-197.407 625.459,-177.347 640.086,-160.564"/>
<polygon fill="#ebc72d" stroke="#ebc72d" points="643.066,-162.472 646.998,-152.634 637.789,-157.873 643.066,-162.472"/>
</g>
<!-- blacksmith -->
<g id="node13" class="node"><title>blacksmith</title>
<g id="a_node13"><a xlink:href="persian_blacksmith_full.html" xlink:title="Blacksmith">
<polygon fill="none" stroke="red" points="126.899,-230.942 63.4665,-243.38 0.0335231,-230.942 0.0927302,-210.817 126.84,-210.817 126.899,-230.942"/>
<text text-anchor="middle" x="63.4665" y="-221.68" font-family="Times,serif" font-size="14.00" fill="#ebc72d">Blacksmith</text>
</a>
</g>
</g>
<!-- swordman -->
<g id="node16" class="node"><title>swordman</title>
<g id="a_node16"><a xlink:href="persian_swordman_full.html" xlink:title="Swordman">
<ellipse fill="none" stroke="magenta" cx="63.4665" cy="-129.296" rx="49.2915" ry="18"/>
<text text-anchor="middle" x="63.4665" y="-125.596" font-family="Times,serif" font-size="14.00" fill="#ebc72d">Swordman</text>
</a>
</g>
</g>
<!-- blacksmith&#45;&gt;swordman -->
<g id="edge1" class="edge"><title>blacksmith&#45;&gt;swordman</title>
<path fill="none" stroke="#ebc72d" stroke-dasharray="1,5" d="M63.4665,-210.497C63.4665,-196.613 63.4665,-174.888 63.4665,-157.549"/>
<polygon fill="#ebc72d" stroke="#ebc72d" points="66.9666,-157.43 63.4665,-147.43 59.9666,-157.43 66.9666,-157.43"/>
</g>
<!-- temple -->
<g id="node17" class="node"><title>temple</title>
<g id="a_node17"><a xlink:href="persian_temple_full.html" xlink:title="Temple">
<polygon fill="none" stroke="red" points="239.765,-230.942 192.466,-243.38 145.168,-230.942 145.212,-210.817 239.721,-210.817 239.765,-230.942"/>
<text text-anchor="middle" x="192.466" y="-221.68" font-family="Times,serif" font-size="14.00" fill="#ebc72d">Temple</text>
</a>
</g>
</g>
<!-- temple&#45;&gt;princess -->
<g id="edge9" class="edge"><title>temple&#45;&gt;princess</title>
<path fill="none" stroke="#ebc72d" d="M189.368,-210.497C186.269,-196.613 181.42,-174.888 177.55,-157.549"/>
<polygon fill="#ebc72d" stroke="#ebc72d" points="180.885,-156.427 175.291,-147.43 174.053,-157.952 180.885,-156.427"/>
</g>
<!-- temple&#45;&gt;stickfighter -->
<g id="edge10" class="edge"><title>temple&#45;&gt;stickfighter</title>
<path fill="none" stroke="#ebc72d" stroke-dasharray="1,5" d="M205.599,-210.497C219.52,-195.781 241.774,-172.256 258.588,-154.482"/>
<polygon fill="#ebc72d" stroke="#ebc72d" points="261.552,-156.442 265.881,-146.772 256.466,-151.631 261.552,-156.442"/>
</g>
<!-- temple&#45;&gt;swordman -->
<g id="edge11" class="edge"><title>temple&#45;&gt;swordman</title>
<path fill="none" stroke="#ebc72d" d="M173.709,-210.699C152.581,-195.29 117.962,-170.042 93.1535,-151.948"/>
<polygon fill="#ebc72d" stroke="#ebc72d" points="94.9677,-148.939 84.8258,-145.874 90.8429,-154.595 94.9677,-148.939"/>
</g>
<!-- worker&#45;&gt;house -->
<g id="edge18" class="edge"><title>worker&#45;&gt;house</title>
<path fill="none" stroke="#ebc72d" stroke-width="2" d="M422.34,-298.855C402.142,-288.446 373.165,-273.128 348.466,-258.593 340.663,-254 332.339,-248.775 324.767,-243.888"/>
<polygon fill="#ebc72d" stroke="#ebc72d" stroke-width="2" points="326.587,-240.897 316.299,-238.366 322.763,-246.76 326.587,-240.897"/>
</g>
<!-- worker&#45;&gt;palace -->
<g id="edge20" class="edge"><title>worker&#45;&gt;palace</title>
<path fill="none" stroke="#ebc72d" stroke-width="2" d="M432.888,-285.711C426.47,-274.318 418.984,-261.029 412.726,-249.918"/>
<polygon fill="#ebc72d" stroke="#ebc72d" stroke-width="2" points="430.026,-287.763 437.983,-294.758 436.125,-284.327 430.026,-287.763"/>
<polygon fill="#ebc72d" stroke="#ebc72d" stroke-width="2" points="415.765,-248.183 407.808,-241.188 409.666,-251.618 415.765,-248.183"/>
</g>
<!-- worker&#45;&gt;farm -->
<g id="edge17" class="edge"><title>worker&#45;&gt;farm</title>
<path fill="none" stroke="#ebc72d" stroke-width="2" d="M457.147,-294.758C464.606,-281.787 475,-263.712 483.228,-249.403"/>
<polygon fill="#ebc72d" stroke="#ebc72d" stroke-width="2" points="486.318,-251.049 488.269,-240.635 480.25,-247.559 486.318,-251.049"/>
</g>
<!-- worker&#45;&gt;minaret -->
<g id="edge19" class="edge"><title>worker&#45;&gt;minaret</title>
<path fill="none" stroke="#ebc72d" stroke-width="2" d="M481.245,-304.019C517.834,-295.261 577.533,-279.347 626.466,-258.593 636.355,-254.399 646.711,-248.912 655.84,-243.657"/>
<polygon fill="#ebc72d" stroke="#ebc72d" stroke-width="2" points="657.673,-246.64 664.499,-238.538 654.11,-240.615 657.673,-246.64"/>
</g>
<!-- worker&#45;&gt;elephant_cage -->
<g id="edge16" class="edge"><title>worker&#45;&gt;elephant_cage</title>
<path fill="none" stroke="#ebc72d" stroke-width="2" d="M483.899,-306.663C539.651,-298.746 649.269,-281.711 740.466,-258.593 755.418,-254.803 771.401,-249.917 786.03,-245.101"/>
<polygon fill="#ebc72d" stroke="#ebc72d" stroke-width="2" points="787.54,-248.287 795.912,-241.793 785.318,-241.649 787.54,-248.287"/>
</g>
<!-- worker&#45;&gt;tent -->
<g id="edge22" class="edge"><title>worker&#45;&gt;tent</title>
<path fill="none" stroke="#ebc72d" stroke-width="2" d="M472.653,-298.826C492.145,-288.642 519.584,-273.637 542.466,-258.593 549.012,-254.289 555.856,-249.28 562.074,-244.512"/>
<polygon fill="#ebc72d" stroke="#ebc72d" stroke-width="2" points="564.359,-247.168 570.077,-238.248 560.045,-241.655 564.359,-247.168"/>
</g>
<!-- worker&#45;&gt;blacksmith -->
<g id="edge15" class="edge"><title>worker&#45;&gt;blacksmith</title>
<path fill="none" stroke="#ebc72d" stroke-width="2" d="M409.922,-308.214C350.772,-302.222 232.712,-287.543 136.466,-258.593 123.173,-254.594 109.101,-248.79 96.8969,-243.207"/>
<polygon fill="#ebc72d" stroke="#ebc72d" stroke-width="2" points="98.0992,-239.904 87.5605,-238.815 95.1196,-246.239 98.0992,-239.904"/>
</g>
<!-- worker&#45;&gt;temple -->
<g id="edge21" class="edge"><title>worker&#45;&gt;temple</title>
<path fill="none" stroke="#ebc72d" stroke-width="2" d="M412.411,-305.156C371.938,-297.069 303.829,-281.425 248.466,-258.593 238.77,-254.594 228.685,-249.218 219.789,-244.005"/>
<polygon fill="#ebc72d" stroke="#ebc72d" stroke-width="2" points="221.383,-240.879 211.015,-238.696 217.759,-246.867 221.383,-240.879"/>
</g>
</g>
</svg>
