<?xml version="1.0" encoding="UTF-8" standalone="no"?>
<!DOCTYPE svg PUBLIC "-//W3C//DTD SVG 1.1//EN"
 "http://www.w3.org/Graphics/SVG/1.1/DTD/svg11.dtd">
<!-- Generated by graphviz version 2.38.0 (20140413.2041)
 -->
<!-- Title: test Pages: 1 -->
<svg width="359pt" height="393pt"
 viewBox="0.00 0.00 358.79 392.85" xmlns="http://www.w3.org/2000/svg" xmlns:xlink="http://www.w3.org/1999/xlink">
<g id="graph0" class="graph" transform="scale(1 1) rotate(0) translate(4 388.853)">
<title>test</title>
<polygon fill="#151515" stroke="none" points="-4,4 -4,-388.853 354.79,-388.853 354.79,4 -4,4"/>
<!-- house -->
<g id="node1" class="node"><title>house</title>
<g id="a_node1"><a xlink:href="persian_house_full.html" xlink:title="House">
<polygon fill="none" stroke="red" points="233.411,-300.415 192.466,-312.853 151.522,-300.415 151.561,-280.291 233.372,-280.291 233.411,-300.415"/>
<text text-anchor="middle" x="192.466" y="-291.153" font-family="Times,serif" font-size="14.00" fill="#ebc72d">House</text>
</a>
</g>
</g>
<!-- blacksmith -->
<g id="node8" class="node"><title>blacksmith</title>
<g id="a_node8"><a xlink:href="persian_blacksmith_full.html" xlink:title="Blacksmith">
<polygon fill="none" stroke="red" points="126.899,-213.202 63.4665,-225.64 0.0335231,-213.202 0.0927302,-193.077 126.84,-193.077 126.899,-213.202"/>
<text text-anchor="middle" x="63.4665" y="-203.94" font-family="Times,serif" font-size="14.00" fill="#ebc72d">Blacksmith</text>
</a>
</g>
</g>
<!-- house&#45;&gt;blacksmith -->
<g id="edge4" class="edge"><title>house&#45;&gt;blacksmith</title>
<path fill="none" stroke="#ebc72d" stroke-dasharray="1,5" d="M171.74,-280.162C150.174,-265.916 116.244,-243.503 92.1193,-227.567"/>
<polygon fill="#ebc72d" stroke="#ebc72d" points="93.9888,-224.607 83.7158,-222.016 90.1306,-230.448 93.9888,-224.607"/>
</g>
<!-- temple -->
<g id="node9" class="node"><title>temple</title>
<g id="a_node9"><a xlink:href="persian_temple_full.html" xlink:title="Temple">
<polygon fill="none" stroke="red" points="239.765,-213.202 192.466,-225.64 145.168,-213.202 145.212,-193.077 239.721,-193.077 239.765,-213.202"/>
<text text-anchor="middle" x="192.466" y="-203.94" font-family="Times,serif" font-size="14.00" fill="#ebc72d">Temple</text>
</a>
</g>
</g>
<!-- house&#45;&gt;temple -->
<g id="edge5" class="edge"><title>house&#45;&gt;temple</title>
<path fill="none" stroke="#ebc72d" stroke-dasharray="1,5" d="M192.466,-280.162C192.466,-268.275 192.466,-250.701 192.466,-235.949"/>
<polygon fill="#ebc72d" stroke="#ebc72d" points="195.967,-235.828 192.466,-225.828 188.967,-235.828 195.967,-235.828"/>
</g>
<!-- palace -->
<g id="node2" class="node"><title>palace</title>
<g id="a_node2"><a xlink:href="persian_palace_full.html" xlink:title="Palace">
<polygon fill="none" stroke="red" points="286.018,-372.415 244.466,-384.853 202.914,-372.415 202.953,-352.291 285.98,-352.291 286.018,-372.415"/>
<text text-anchor="middle" x="244.466" y="-363.153" font-family="Times,serif" font-size="14.00" fill="#ebc72d">Palace</text>
</a>
</g>
</g>
<!-- palace&#45;&gt;house -->
<g id="edge7" class="edge"><title>palace&#45;&gt;house</title>
<path fill="none" stroke="#ebc72d" stroke-dasharray="1,5" d="M234.193,-352.023C227.093,-342.466 217.487,-329.534 209.281,-318.488"/>
<polygon fill="#ebc72d" stroke="#ebc72d" points="211.849,-316.075 203.076,-310.134 206.229,-320.249 211.849,-316.075"/>
</g>
<!-- farm -->
<g id="node3" class="node"><title>farm</title>
<g id="a_node3"><a xlink:href="persian_farm_full.html" xlink:title="Farm">
<polygon fill="none" stroke="red" points="333.377,-300.415 296.466,-312.853 259.556,-300.415 259.591,-280.291 333.342,-280.291 333.377,-300.415"/>
<text text-anchor="middle" x="296.466" y="-291.153" font-family="Times,serif" font-size="14.00" fill="#ebc72d">Farm</text>
</a>
</g>
</g>
<!-- palace&#45;&gt;farm -->
<g id="edge6" class="edge"><title>palace&#45;&gt;farm</title>
<path fill="none" stroke="#ebc72d" stroke-dasharray="1,5" d="M254.74,-352.023C262.005,-342.244 271.893,-328.933 280.22,-317.723"/>
<polygon fill="#ebc72d" stroke="#ebc72d" points="283.061,-319.768 286.214,-309.654 277.441,-315.594 283.061,-319.768"/>
</g>
<!-- snake_basket -->
<g id="node4" class="node"><title>snake_basket</title>
<g id="a_node4"><a xlink:href="persian_snake_basket_full.html" xlink:title="Snake\nBasket">
<polygon fill="none" stroke="red" points="350.615,-217.969 304.466,-241.067 258.318,-217.969 258.361,-180.596 350.571,-180.596 350.615,-217.969"/>
<text text-anchor="middle" x="304.466" y="-211.44" font-family="Times,serif" font-size="14.00" fill="#ebc72d">Snake</text>
<text text-anchor="middle" x="304.466" y="-196.44" font-family="Times,serif" font-size="14.00" fill="#ebc72d">Basket</text>
</a>
</g>
</g>
<!-- farm&#45;&gt;snake_basket -->
<g id="edge2" class="edge"><title>farm&#45;&gt;snake_basket</title>
<path fill="none" stroke="#ebc72d" stroke-dasharray="1,5" d="M297.752,-280.162C298.536,-271.805 299.585,-260.639 300.619,-249.618"/>
<polygon fill="#ebc72d" stroke="#ebc72d" points="304.108,-249.905 301.558,-239.622 297.138,-249.251 304.108,-249.905"/>
</g>
<!-- minaret -->
<g id="node5" class="node"><title>minaret</title>
<g id="a_node5"><a xlink:href="persian_minaret_full.html" xlink:title="Minaret">
<polygon fill="none" stroke="red" points="240.872,-23.5623 192.466,-36 144.061,-23.5623 144.106,-3.43769 240.827,-3.43769 240.872,-23.5623"/>
<text text-anchor="middle" x="192.466" y="-14.3" font-family="Times,serif" font-size="14.00" fill="#ebc72d">Minaret</text>
</a>
</g>
</g>
<!-- elephant_cage -->
<g id="node6" class="node"><title>elephant_cage</title>
<g id="a_node6"><a xlink:href="persian_elephant_cage_full.html" xlink:title="Elephant\nCage">
<polygon fill="none" stroke="red" points="120.091,-115.543 63.4665,-138.641 6.84167,-115.543 6.89453,-78.1695 120.038,-78.1695 120.091,-115.543"/>
<text text-anchor="middle" x="63.4665" y="-109.013" font-family="Times,serif" font-size="14.00" fill="#ebc72d">Elephant</text>
<text text-anchor="middle" x="63.4665" y="-94.0132" font-family="Times,serif" font-size="14.00" fill="#ebc72d">Cage</text>
</a>
</g>
</g>
<!-- tent -->
<g id="node7" class="node"><title>tent</title>
<g id="a_node7"><a xlink:href="persian_tent_full.html" xlink:title="Tent">
<polygon fill="none" stroke="red" points="225.343,-110.776 192.466,-123.213 159.59,-110.776 159.62,-90.6509 225.312,-90.6509 225.343,-110.776"/>
<text text-anchor="middle" x="192.466" y="-101.513" font-family="Times,serif" font-size="14.00" fill="#ebc72d">Tent</text>
</a>
</g>
</g>
<!-- tent&#45;&gt;minaret -->
<g id="edge9" class="edge"><title>tent&#45;&gt;minaret</title>
<path fill="none" stroke="#ebc72d" stroke-dasharray="1,5" d="M192.466,-90.5222C192.466,-78.6349 192.466,-61.0617 192.466,-46.3096"/>
<polygon fill="#ebc72d" stroke="#ebc72d" points="195.967,-46.188 192.466,-36.1881 188.967,-46.1881 195.967,-46.188"/>
</g>
<!-- blacksmith&#45;&gt;elephant_cage -->
<g id="edge1" class="edge"><title>blacksmith&#45;&gt;elephant_cage</title>
<path fill="none" stroke="#ebc72d" stroke-dasharray="1,5" d="M63.4665,-192.676C63.4665,-181.269 63.4665,-164.519 63.4665,-148.792"/>
<polygon fill="#ebc72d" stroke="#ebc72d" points="66.9666,-148.671 63.4665,-138.671 59.9666,-148.671 66.9666,-148.671"/>
</g>
<!-- temple&#45;&gt;tent -->
<g id="edge8" class="edge"><title>temple&#45;&gt;tent</title>
<path fill="none" stroke="#ebc72d" stroke-dasharray="1,5" d="M192.466,-192.676C192.466,-177.467 192.466,-152.759 192.466,-133.642"/>
<polygon fill="#ebc72d" stroke="#ebc72d" points="195.967,-133.42 192.466,-123.42 188.967,-133.42 195.967,-133.42"/>
</g>
</g>
</svg>
