<?xml version="1.0" encoding="UTF-8" standalone="no"?>
<!DOCTYPE svg PUBLIC "-//W3C//DTD SVG 1.1//EN"
 "http://www.w3.org/Graphics/SVG/1.1/DTD/svg11.dtd">
<!-- Generated by graphviz version 2.38.0 (20140413.2041)
 -->
<!-- Title: test Pages: 1 -->
<svg width="1222pt" height="604pt"
 viewBox="0.00 0.00 1222.49 604.17" xmlns="http://www.w3.org/2000/svg" xmlns:xlink="http://www.w3.org/1999/xlink">
<g id="graph0" class="graph" transform="scale(1 1) rotate(0) translate(4 600.167)">
<title>test</title>
<polygon fill="#151515" stroke="none" points="-4,4 -4,-600.167 1218.49,-600.167 1218.49,4 -4,4"/>
<!-- house -->
<g id="node1" class="node"><title>house</title>
<g id="a_node1"><a xlink:href="persian_house_full.html" xlink:title="House">
<polygon fill="none" stroke="red" points="517.939,-511.729 476.995,-524.167 436.051,-511.729 436.09,-491.604 517.901,-491.604 517.939,-511.729"/>
<text text-anchor="middle" x="476.995" y="-502.467" font-family="Times,serif" font-size="14.00" fill="#ebc72d">House</text>
</a>
</g>
</g>
<!-- stickfighter -->
<g id="node7" class="node"><title>stickfighter</title>
<g id="a_node7"><a xlink:href="persian_stickfighter_full.html" xlink:title="Stickfighter">
<ellipse fill="none" stroke="magenta" cx="51.9954" cy="-342.167" rx="51.9908" ry="18"/>
<text text-anchor="middle" x="51.9954" y="-338.467" font-family="Times,serif" font-size="14.00" fill="#ebc72d">Stickfighter</text>
</a>
</g>
</g>
<!-- house&#45;&gt;stickfighter -->
<g id="edge13" class="edge"><title>house&#45;&gt;stickfighter</title>
<path fill="none" stroke="#ebc72d" d="M435.731,-499.07C388.938,-491.381 310.854,-476.186 246.995,-452.167 183.716,-428.365 171.696,-413.709 112.995,-380.167 103.801,-374.912 93.9433,-369.041 84.8917,-363.55"/>
<polygon fill="#ebc72d" stroke="#ebc72d" points="86.5224,-360.445 76.1631,-358.223 82.8759,-366.42 86.5224,-360.445"/>
</g>
<!-- blacksmith -->
<g id="node13" class="node"><title>blacksmith</title>
<g id="a_node13"><a xlink:href="persian_blacksmith_full.html" xlink:title="Blacksmith">
<polygon fill="none" stroke="red" points="767.428,-439.729 703.995,-452.167 640.562,-439.729 640.622,-419.604 767.369,-419.604 767.428,-439.729"/>
<text text-anchor="middle" x="703.995" y="-430.467" font-family="Times,serif" font-size="14.00" fill="#ebc72d">Blacksmith</text>
</a>
</g>
</g>
<!-- house&#45;&gt;blacksmith -->
<g id="edge11" class="edge"><title>house&#45;&gt;blacksmith</title>
<path fill="none" stroke="#ebc72d" stroke-dasharray="1,5" d="M518.103,-492.49C558.352,-480.079 619.446,-461.239 660.497,-448.58"/>
<polygon fill="#ebc72d" stroke="#ebc72d" points="661.694,-451.874 670.219,-445.582 659.632,-445.184 661.694,-451.874"/>
</g>
<!-- fakir -->
<g id="node14" class="node"><title>fakir</title>
<g id="a_node14"><a xlink:href="persian_fakir_full.html" xlink:title="Fakir">
<ellipse fill="none" stroke="magenta" cx="476.995" cy="-434.167" rx="29.4969" ry="18"/>
<text text-anchor="middle" x="476.995" y="-430.467" font-family="Times,serif" font-size="14.00" fill="#ebc72d">Fakir</text>
</a>
</g>
</g>
<!-- house&#45;&gt;fakir -->
<g id="edge12" class="edge"><title>house&#45;&gt;fakir</title>
<path fill="none" stroke="#ebc72d" d="M476.995,-491.337C476.995,-483.085 476.995,-472.319 476.995,-462.423"/>
<polygon fill="#ebc72d" stroke="#ebc72d" points="480.495,-462.186 476.995,-452.186 473.495,-462.186 480.495,-462.186"/>
</g>
<!-- temple -->
<g id="node17" class="node"><title>temple</title>
<g id="a_node17"><a xlink:href="persian_temple_full.html" xlink:title="Temple">
<polygon fill="none" stroke="red" points="350.294,-439.729 302.995,-452.167 255.697,-439.729 255.741,-419.604 350.249,-419.604 350.294,-439.729"/>
<text text-anchor="middle" x="302.995" y="-430.467" font-family="Times,serif" font-size="14.00" fill="#ebc72d">Temple</text>
</a>
</g>
</g>
<!-- house&#45;&gt;temple -->
<g id="edge14" class="edge"><title>house&#45;&gt;temple</title>
<path fill="none" stroke="#ebc72d" stroke-dasharray="1,5" d="M443.033,-491.504C412.78,-479.333 368.69,-461.596 338.096,-449.288"/>
<polygon fill="#ebc72d" stroke="#ebc72d" points="339.256,-445.981 328.672,-445.496 336.643,-452.476 339.256,-445.981"/>
</g>
<!-- palace -->
<g id="node2" class="node"><title>palace</title>
<g id="a_node2"><a xlink:href="persian_palace_full.html" xlink:title="Palace">
<polygon fill="none" stroke="red" points="815.547,-511.729 773.995,-524.167 732.443,-511.729 732.482,-491.604 815.509,-491.604 815.547,-511.729"/>
<text text-anchor="middle" x="773.995" y="-502.467" font-family="Times,serif" font-size="14.00" fill="#ebc72d">Palace</text>
</a>
</g>
</g>
<!-- worker -->
<g id="node19" class="node"><title>worker</title>
<g id="a_node19"><a xlink:href="persian_worker_full.html" xlink:title="Worker">
<ellipse fill="none" stroke="magenta" cx="703.995" cy="-578.167" rx="38.1938" ry="18"/>
<text text-anchor="middle" x="703.995" y="-574.467" font-family="Times,serif" font-size="14.00" fill="#ebc72d">Worker</text>
</a>
</g>
</g>
<!-- farm -->
<g id="node3" class="node"><title>farm</title>
<g id="a_node3"><a xlink:href="persian_farm_full.html" xlink:title="Farm">
<polygon fill="none" stroke="red" points="1080.91,-439.729 1044,-452.167 1007.09,-439.729 1007.12,-419.604 1080.87,-419.604 1080.91,-439.729"/>
<text text-anchor="middle" x="1044" y="-430.467" font-family="Times,serif" font-size="14.00" fill="#ebc72d">Farm</text>
</a>
</g>
</g>
<!-- sheep -->
<g id="node18" class="node"><title>sheep</title>
<g id="a_node18"><a xlink:href="persian_sheep_full.html" xlink:title="Sheep">
<ellipse fill="none" stroke="magenta" cx="1182" cy="-342.167" rx="32.4942" ry="18"/>
<text text-anchor="middle" x="1182" y="-338.467" font-family="Times,serif" font-size="14.00" fill="#ebc72d">Sheep</text>
</a>
</g>
</g>
<!-- farm&#45;&gt;sheep -->
<g id="edge10" class="edge"><title>farm&#45;&gt;sheep</title>
<path fill="none" stroke="#ebc72d" d="M1072.69,-419.404C1092.29,-409.508 1118.51,-395.288 1140,-380.167 1146.44,-375.629 1153.02,-370.252 1159,-365.023"/>
<polygon fill="#ebc72d" stroke="#ebc72d" points="1161.62,-367.369 1166.71,-358.076 1156.94,-362.167 1161.62,-367.369"/>
</g>
<!-- corn_and_wicker -->
<g id="node21" class="node"><title>corn_and_wicker</title>
<g id="a_node21"><a xlink:href="persian_corn_and_wicker_full.html" xlink:title="Corn\nAnd Wicker">
<polygon fill="none" stroke="green" points="1131.17,-380.167 992.495,-380.167 956.821,-304.167 1095.5,-304.167 1131.17,-380.167"/>
<text text-anchor="middle" x="1044" y="-345.967" font-family="Times,serif" font-size="14.00" fill="#ebc72d">Corn</text>
<text text-anchor="middle" x="1044" y="-330.967" font-family="Times,serif" font-size="14.00" fill="#ebc72d">And Wicker</text>
</a>
</g>
</g>
<!-- farm&#45;&gt;corn_and_wicker -->
<g id="edge9" class="edge"><title>farm&#45;&gt;corn_and_wicker</title>
<path fill="none" stroke="#ebc72d" d="M1044,-419.497C1044,-411.597 1044,-401.14 1044,-390.507"/>
<polygon fill="#ebc72d" stroke="#ebc72d" points="1047.5,-390.337 1044,-380.337 1040.5,-390.337 1047.5,-390.337"/>
</g>
<!-- princess -->
<g id="node4" class="node"><title>princess</title>
<g id="a_node4"><a xlink:href="persian_princess_full.html" xlink:title="Princess">
<ellipse fill="none" stroke="magenta" cx="161.995" cy="-342.167" rx="40.0939" ry="18"/>
<text text-anchor="middle" x="161.995" y="-338.467" font-family="Times,serif" font-size="14.00" fill="#ebc72d">Princess</text>
</a>
</g>
</g>
<!-- genie -->
<g id="node5" class="node"><title>genie</title>
<g id="a_node5"><a xlink:href="persian_genie_full.html" xlink:title="Genie">
<ellipse fill="none" stroke="magenta" cx="148.995" cy="-230.167" rx="31.6951" ry="18"/>
<text text-anchor="middle" x="148.995" y="-226.467" font-family="Times,serif" font-size="14.00" fill="#ebc72d">Genie</text>
</a>
</g>
</g>
<!-- snake_basket -->
<g id="node6" class="node"><title>snake_basket</title>
<g id="a_node6"><a xlink:href="persian_snake_basket_full.html" xlink:title="Snake\nBasket">
<polygon fill="none" stroke="red" points="780.143,-43.543 733.995,-66.641 687.847,-43.543 687.89,-6.16955 780.1,-6.16955 780.143,-43.543"/>
<text text-anchor="middle" x="733.995" y="-37.0132" font-family="Times,serif" font-size="14.00" fill="#ebc72d">Snake</text>
<text text-anchor="middle" x="733.995" y="-22.0132" font-family="Times,serif" font-size="14.00" fill="#ebc72d">Basket</text>
</a>
</g>
</g>
<!-- elephant -->
<g id="node8" class="node"><title>elephant</title>
<g id="a_node8"><a xlink:href="persian_elephant_full.html" xlink:title="Elephant">
<ellipse fill="none" stroke="magenta" cx="904.995" cy="-230.167" rx="42.4939" ry="18"/>
<text text-anchor="middle" x="904.995" y="-226.467" font-family="Times,serif" font-size="14.00" fill="#ebc72d">Elephant</text>
</a>
</g>
</g>
<!-- magician -->
<g id="node9" class="node"><title>magician</title>
<g id="a_node9"><a xlink:href="persian_magician_full.html" xlink:title="Magician">
<ellipse fill="none" stroke="magenta" cx="472.995" cy="-129.296" rx="44.393" ry="18"/>
<text text-anchor="middle" x="472.995" y="-125.596" font-family="Times,serif" font-size="14.00" fill="#ebc72d">Magician</text>
</a>
</g>
</g>
<!-- magician&#45;&gt;snake_basket -->
<g id="edge17" class="edge"><title>magician&#45;&gt;snake_basket</title>
<path fill="none" stroke="#ebc72d" stroke-width="2" d="M504.999,-116.76C550.491,-100.361 634.161,-70.2008 686.787,-51.2307"/>
<polygon fill="#ebc72d" stroke="#ebc72d" stroke-width="2" points="688.015,-54.5084 696.235,-47.8246 685.641,-47.9232 688.015,-54.5084"/>
</g>
<!-- minaret -->
<g id="node10" class="node"><title>minaret</title>
<g id="a_node10"><a xlink:href="persian_minaret_full.html" xlink:title="Minaret">
<polygon fill="none" stroke="red" points="736.401,-235.729 687.995,-248.167 639.59,-235.729 639.635,-215.604 736.356,-215.604 736.401,-235.729"/>
<text text-anchor="middle" x="687.995" y="-226.467" font-family="Times,serif" font-size="14.00" fill="#ebc72d">Minaret</text>
</a>
</g>
</g>
<!-- elephant_cage -->
<g id="node11" class="node"><title>elephant_cage</title>
<g id="a_node11"><a xlink:href="persian_elephant_cage_full.html" xlink:title="Elephant\nCage">
<polygon fill="none" stroke="red" points="938.62,-352.496 881.995,-375.594 825.371,-352.496 825.423,-315.123 938.567,-315.123 938.62,-352.496"/>
<text text-anchor="middle" x="881.995" y="-345.967" font-family="Times,serif" font-size="14.00" fill="#ebc72d">Elephant</text>
<text text-anchor="middle" x="881.995" y="-330.967" font-family="Times,serif" font-size="14.00" fill="#ebc72d">Cage</text>
</a>
</g>
</g>
<!-- elephant_cage&#45;&gt;elephant -->
<g id="edge8" class="edge"><title>elephant_cage&#45;&gt;elephant</title>
<path fill="none" stroke="#ebc72d" d="M887.446,-315.098C891.032,-297.946 895.716,-275.547 899.342,-258.203"/>
<polygon fill="#ebc72d" stroke="#ebc72d" points="902.824,-258.653 901.445,-248.149 895.972,-257.221 902.824,-258.653"/>
</g>
<!-- tent -->
<g id="node12" class="node"><title>tent</title>
<g id="a_node12"><a xlink:href="persian_tent_full.html" xlink:title="Tent">
<polygon fill="none" stroke="red" points="285.872,-347.729 252.995,-360.167 220.119,-347.729 220.149,-327.604 285.841,-327.604 285.872,-347.729"/>
<text text-anchor="middle" x="252.995" y="-338.467" font-family="Times,serif" font-size="14.00" fill="#ebc72d">Tent</text>
</a>
</g>
</g>
<!-- tent&#45;&gt;genie -->
<g id="edge24" class="edge"><title>tent&#45;&gt;genie</title>
<path fill="none" stroke="#ebc72d" d="M239.824,-327.235C222.32,-308.721 191.179,-275.784 170.308,-253.709"/>
<polygon fill="#ebc72d" stroke="#ebc72d" points="172.806,-251.257 163.393,-246.395 167.72,-256.066 172.806,-251.257"/>
</g>
<!-- tent&#45;&gt;magician -->
<g id="edge27" class="edge"><title>tent&#45;&gt;magician</title>
<path fill="none" stroke="#ebc72d" d="M266.647,-327.548C274.528,-320.107 284.86,-311.037 294.995,-304.167 324.281,-284.314 341.048,-293.254 365.995,-268.167 392.624,-241.388 381.089,-222.191 403.995,-192.167 415.472,-177.124 430.964,-162.847 444.361,-151.805"/>
<polygon fill="#ebc72d" stroke="#ebc72d" points="446.77,-154.36 452.377,-145.37 442.388,-148.901 446.77,-154.36"/>
</g>
<!-- tent&#45;&gt;minaret -->
<g id="edge28" class="edge"><title>tent&#45;&gt;minaret</title>
<path fill="none" stroke="#ebc72d" stroke-dasharray="1,5" d="M264.818,-327.326C272.552,-319.223 283.354,-309.554 294.995,-304.167 395.673,-257.571 433.192,-289.822 541.995,-268.167 577.668,-261.067 617.679,-250.758 646.783,-242.825"/>
<polygon fill="#ebc72d" stroke="#ebc72d" points="647.882,-246.152 656.597,-240.127 646.027,-239.403 647.882,-246.152"/>
</g>
<!-- flying_carpet -->
<g id="node15" class="node"><title>flying_carpet</title>
<g id="a_node15"><a xlink:href="persian_flying_carpet_full.html" xlink:title="Flying\nCarpet">
<ellipse fill="none" stroke="magenta" cx="252.995" cy="-129.296" rx="37.4533" ry="26.7407"/>
<text text-anchor="middle" x="252.995" y="-133.096" font-family="Times,serif" font-size="14.00" fill="#ebc72d">Flying</text>
<text text-anchor="middle" x="252.995" y="-118.096" font-family="Times,serif" font-size="14.00" fill="#ebc72d">Carpet</text>
</a>
</g>
</g>
<!-- tent&#45;&gt;flying_carpet -->
<g id="edge23" class="edge"><title>tent&#45;&gt;flying_carpet</title>
<path fill="none" stroke="#ebc72d" d="M246.8,-327.526C240.624,-313.12 231.559,-289.574 227.995,-268.167 222.448,-234.847 221.55,-225.324 227.995,-192.167 229.814,-182.813 233.044,-173.083 236.592,-164.184"/>
<polygon fill="#ebc72d" stroke="#ebc72d" points="239.842,-165.485 240.514,-154.912 233.395,-162.758 239.842,-165.485"/>
</g>
<!-- magic_level_2 -->
<g id="node20" class="node"><title>magic_level_2</title>
<g id="a_node20"><a xlink:href="persian_magic_level_2_full.html" xlink:title="Magic\nLevel 2">
<polygon fill="none" stroke="green" points="357.259,-268.167 261.393,-268.167 236.732,-192.167 332.598,-192.167 357.259,-268.167"/>
<text text-anchor="middle" x="296.995" y="-233.967" font-family="Times,serif" font-size="14.00" fill="#ebc72d">Magic</text>
<text text-anchor="middle" x="296.995" y="-218.967" font-family="Times,serif" font-size="14.00" fill="#ebc72d">Level 2</text>
</a>
</g>
</g>
<!-- tent&#45;&gt;magic_level_2 -->
<g id="edge26" class="edge"><title>tent&#45;&gt;magic_level_2</title>
<path fill="none" stroke="#ebc72d" d="M258.568,-327.235C263.524,-314.845 271.064,-295.996 278.156,-278.265"/>
<polygon fill="#ebc72d" stroke="#ebc72d" points="281.567,-279.162 282.031,-268.578 275.067,-276.563 281.567,-279.162"/>
</g>
<!-- magic_level_1 -->
<g id="node23" class="node"><title>magic_level_1</title>
<g id="a_node23"><a xlink:href="persian_magic_level_1_full.html" xlink:title="Magic\nLevel 1">
<polygon fill="none" stroke="green" points="533.259,-268.167 437.393,-268.167 412.732,-192.167 508.598,-192.167 533.259,-268.167"/>
<text text-anchor="middle" x="472.995" y="-233.967" font-family="Times,serif" font-size="14.00" fill="#ebc72d">Magic</text>
<text text-anchor="middle" x="472.995" y="-218.967" font-family="Times,serif" font-size="14.00" fill="#ebc72d">Level 1</text>
</a>
</g>
</g>
<!-- tent&#45;&gt;magic_level_1 -->
<g id="edge25" class="edge"><title>tent&#45;&gt;magic_level_1</title>
<path fill="none" stroke="#ebc72d" d="M265.936,-327.364C273.749,-319.68 284.249,-310.43 294.995,-304.167 337.254,-279.536 353.914,-287.144 398.995,-268.167 406.893,-264.842 415.128,-261.058 423.115,-257.208"/>
<polygon fill="#ebc72d" stroke="#ebc72d" points="424.904,-260.229 432.341,-252.683 421.822,-253.944 424.904,-260.229"/>
</g>
<!-- blacksmith&#45;&gt;elephant_cage -->
<g id="edge1" class="edge"><title>blacksmith&#45;&gt;elephant_cage</title>
<path fill="none" stroke="#ebc72d" stroke-dasharray="1,5" d="M731.03,-419.497C759.21,-405.249 803.846,-382.68 837.285,-365.773"/>
<polygon fill="#ebc72d" stroke="#ebc72d" points="839.052,-368.801 846.397,-361.166 835.894,-362.554 839.052,-368.801"/>
</g>
<!-- swordman -->
<g id="node16" class="node"><title>swordman</title>
<g id="a_node16"><a xlink:href="persian_swordman_full.html" xlink:title="Swordman">
<ellipse fill="none" stroke="magenta" cx="352.995" cy="-342.167" rx="49.2915" ry="18"/>
<text text-anchor="middle" x="352.995" y="-338.467" font-family="Times,serif" font-size="14.00" fill="#ebc72d">Swordman</text>
</a>
</g>
</g>
<!-- blacksmith&#45;&gt;swordman -->
<g id="edge4" class="edge"><title>blacksmith&#45;&gt;swordman</title>
<path fill="none" stroke="#ebc72d" stroke-dasharray="1,5" d="M643.948,-419.592C638.227,-418.394 632.506,-417.233 626.995,-416.167 531.445,-397.669 501.856,-415.042 410.995,-380.167 400.686,-376.21 390.259,-370.285 381.143,-364.33"/>
<polygon fill="#ebc72d" stroke="#ebc72d" points="383.085,-361.418 372.851,-358.674 379.14,-367.201 383.085,-361.418"/>
</g>
<!-- nails -->
<g id="node22" class="node"><title>nails</title>
<g id="a_node22"><a xlink:href="persian_nails_full.html" xlink:title="Nails">
<polygon fill="none" stroke="green" points="620.76,-360.167 552.731,-360.167 535.231,-324.167 603.26,-324.167 620.76,-360.167"/>
<text text-anchor="middle" x="577.995" y="-338.467" font-family="Times,serif" font-size="14.00" fill="#ebc72d">Nails</text>
</a>
</g>
</g>
<!-- blacksmith&#45;&gt;nails -->
<g id="edge2" class="edge"><title>blacksmith&#45;&gt;nails</title>
<path fill="none" stroke="#ebc72d" d="M684.859,-419.497C665.116,-405.395 633.963,-383.143 610.376,-366.296"/>
<polygon fill="#ebc72d" stroke="#ebc72d" points="612.235,-363.322 602.064,-360.358 608.167,-369.019 612.235,-363.322"/>
</g>
<!-- weapons -->
<g id="node24" class="node"><title>weapons</title>
<g id="a_node24"><a xlink:href="persian_weapons_full.html" xlink:title="Weapons">
<polygon fill="none" stroke="green" points="768.596,-360.167 665.831,-360.167 639.395,-324.167 742.16,-324.167 768.596,-360.167"/>
<text text-anchor="middle" x="703.995" y="-338.467" font-family="Times,serif" font-size="14.00" fill="#ebc72d">Weapons</text>
</a>
</g>
</g>
<!-- blacksmith&#45;&gt;weapons -->
<g id="edge5" class="edge"><title>blacksmith&#45;&gt;weapons</title>
<path fill="none" stroke="#ebc72d" d="M703.995,-419.497C703.995,-406.509 703.995,-386.606 703.995,-370.38"/>
<polygon fill="#ebc72d" stroke="#ebc72d" points="707.495,-370.358 703.995,-360.358 700.495,-370.358 707.495,-370.358"/>
</g>
<!-- shield -->
<g id="node25" class="node"><title>shield</title>
<g id="a_node25"><a xlink:href="persian_shield_full.html" xlink:title="Shield">
<polygon fill="none" stroke="green" points="517.695,-360.167 440.225,-360.167 420.295,-324.167 497.766,-324.167 517.695,-360.167"/>
<text text-anchor="middle" x="468.995" y="-338.467" font-family="Times,serif" font-size="14.00" fill="#ebc72d">Shield</text>
</a>
</g>
</g>
<!-- blacksmith&#45;&gt;shield -->
<g id="edge3" class="edge"><title>blacksmith&#45;&gt;shield</title>
<path fill="none" stroke="#ebc72d" d="M642.686,-419.538C607.618,-410.615 563.319,-397.401 525.995,-380.167 517.343,-376.171 508.475,-371.013 500.39,-365.824"/>
<polygon fill="#ebc72d" stroke="#ebc72d" points="502.238,-362.85 491.971,-360.235 498.366,-368.682 502.238,-362.85"/>
</g>
<!-- temple&#45;&gt;princess -->
<g id="edge19" class="edge"><title>temple&#45;&gt;princess</title>
<path fill="none" stroke="#ebc72d" d="M277.497,-419.592C258.741,-409.341 232.822,-394.614 210.995,-380.167 203.584,-375.261 195.803,-369.626 188.679,-364.257"/>
<polygon fill="#ebc72d" stroke="#ebc72d" points="190.748,-361.434 180.679,-358.137 186.495,-366.993 190.748,-361.434"/>
</g>
<!-- temple&#45;&gt;stickfighter -->
<g id="edge20" class="edge"><title>temple&#45;&gt;stickfighter</title>
<path fill="none" stroke="#ebc72d" stroke-dasharray="1,5" d="M255.705,-423.756C216.502,-415.07 159.82,-400.442 112.995,-380.167 102.745,-375.728 92.1471,-369.825 82.7181,-364.041"/>
<polygon fill="#ebc72d" stroke="#ebc72d" points="84.4084,-360.969 74.0857,-358.582 80.6673,-366.885 84.4084,-360.969"/>
</g>
<!-- temple&#45;&gt;tent -->
<g id="edge22" class="edge"><title>temple&#45;&gt;tent</title>
<path fill="none" stroke="#ebc72d" stroke-dasharray="1,5" d="M295.401,-419.497C287.591,-405.439 275.281,-383.281 265.932,-366.453"/>
<polygon fill="#ebc72d" stroke="#ebc72d" points="268.742,-364.303 260.826,-357.262 262.623,-367.703 268.742,-364.303"/>
</g>
<!-- temple&#45;&gt;swordman -->
<g id="edge21" class="edge"><title>temple&#45;&gt;swordman</title>
<path fill="none" stroke="#ebc72d" d="M310.589,-419.497C317.988,-406.179 329.426,-385.591 338.559,-369.152"/>
<polygon fill="#ebc72d" stroke="#ebc72d" points="341.825,-370.48 343.622,-360.039 335.706,-367.081 341.825,-370.48"/>
</g>
<!-- worker&#45;&gt;house -->
<g id="edge32" class="edge"><title>worker&#45;&gt;house</title>
<path fill="none" stroke="#ebc72d" stroke-width="2" d="M672.908,-567.58C631.678,-554.866 558.969,-532.445 514.667,-518.783"/>
<polygon fill="#ebc72d" stroke="#ebc72d" stroke-width="2" points="515.448,-515.361 504.86,-515.759 513.385,-522.051 515.448,-515.361"/>
</g>
<!-- worker&#45;&gt;palace -->
<g id="edge34" class="edge"><title>worker&#45;&gt;palace</title>
<path fill="none" stroke="#ebc72d" stroke-width="2" d="M726.622,-554.54C735.286,-545.876 745.11,-536.052 753.557,-527.605"/>
<polygon fill="#ebc72d" stroke="#ebc72d" stroke-width="2" points="724.127,-552.085 719.531,-561.631 729.077,-557.035 724.127,-552.085"/>
<polygon fill="#ebc72d" stroke="#ebc72d" stroke-width="2" points="756.258,-529.853 760.855,-520.307 751.309,-524.904 756.258,-529.853"/>
</g>
<!-- worker&#45;&gt;farm -->
<g id="edge31" class="edge"><title>worker&#45;&gt;farm</title>
<path fill="none" stroke="#ebc72d" stroke-width="2" d="M731.819,-565.546C794.272,-539.463 945.321,-476.378 1011.74,-448.637"/>
<polygon fill="#ebc72d" stroke="#ebc72d" stroke-width="2" points="1013.4,-451.737 1021.28,-444.654 1010.7,-445.278 1013.4,-451.737"/>
</g>
<!-- worker&#45;&gt;minaret -->
<g id="edge33" class="edge"><title>worker&#45;&gt;minaret</title>
<path fill="none" stroke="#ebc72d" stroke-width="2" d="M703.995,-505.167C698.237,-453.755 764.774,-475.64 796.995,-435.167"/>
<path fill="none" stroke="#ebc72d" stroke-width="2" d="M796.995,-433.167C833.09,-387.828 806.679,-354.522 777.995,-304.167 764.204,-279.954 738.991,-260.573 718.753,-247.882"/>
<polygon fill="#ebc72d" stroke="#ebc72d" stroke-width="2" points="720.519,-244.86 710.148,-242.694 716.905,-250.855 720.519,-244.86"/>
</g>
<!-- worker&#45;&gt;elephant_cage -->
<g id="edge30" class="edge"><title>worker&#45;&gt;elephant_cage</title>
<path fill="none" stroke="#ebc72d" stroke-width="2" d="M796.995,-433.167C813.595,-412.316 834.058,-390.547 850.746,-373.642"/>
<polygon fill="#ebc72d" stroke="#ebc72d" stroke-width="2" points="853.544,-375.793 858.121,-366.238 848.584,-370.853 853.544,-375.793"/>
</g>
<!-- worker&#45;&gt;tent -->
<g id="edge36" class="edge"><title>worker&#45;&gt;tent</title>
<path fill="none" stroke="#ebc72d" stroke-width="2" d="M703.951,-559.906C703.925,-545.738 703.912,-525.152 703.995,-507.167"/>
<path fill="none" stroke="#ebc72d" stroke-width="2" d="M703.995,-505.167C704.103,-481.955 537.163,-423.052 514.995,-416.167 420.376,-386.778 384.544,-422.565 294.995,-380.167 286.41,-376.102 278.258,-369.747 271.459,-363.443"/>
<polygon fill="#ebc72d" stroke="#ebc72d" stroke-width="2" points="273.723,-360.758 264.155,-356.207 268.796,-365.731 273.723,-360.758"/>
</g>
<!-- worker&#45;&gt;blacksmith -->
<g id="edge29" class="edge"><title>worker&#45;&gt;blacksmith</title>
<path fill="none" stroke="#ebc72d" stroke-width="2" d="M703.995,-505.167C704.06,-491.115 704.067,-475.477 704.054,-462.552"/>
<polygon fill="#ebc72d" stroke="#ebc72d" stroke-width="2" points="707.554,-462.422 704.04,-452.427 700.554,-462.432 707.554,-462.422"/>
</g>
<!-- worker&#45;&gt;temple -->
<g id="edge35" class="edge"><title>worker&#45;&gt;temple</title>
<path fill="none" stroke="#ebc72d" stroke-width="2" d="M666.205,-575.091C611.441,-570.958 507.746,-558.86 426.995,-524.167 387.575,-507.23 348.418,-476.116 324.959,-455.533"/>
<polygon fill="#ebc72d" stroke="#ebc72d" stroke-width="2" points="327.132,-452.781 317.341,-448.732 322.47,-458.003 327.132,-452.781"/>
</g>
<!-- magic_level_2&#45;&gt;flying_carpet -->
<g id="edge16" class="edge"><title>magic_level_2&#45;&gt;flying_carpet</title>
<path fill="none" stroke="#ebc72d" stroke-dasharray="1,5" d="M280.486,-192.07C276.439,-182.976 272.127,-173.286 268.147,-164.343"/>
<polygon fill="#ebc72d" stroke="#ebc72d" points="271.251,-162.709 263.987,-154.996 264.855,-165.555 271.251,-162.709"/>
</g>
<!-- corn_and_wicker&#45;&gt;snake_basket -->
<g id="edge7" class="edge"><title>corn_and_wicker&#45;&gt;snake_basket</title>
<path fill="none" stroke="#ebc72d" stroke-dasharray="1,5" d="M1027.52,-304.026C1012.12,-272.021 986.886,-225.798 955.995,-192.167 901.737,-133.093 821.955,-82.9754 774.268,-55.8681"/>
<polygon fill="#ebc72d" stroke="#ebc72d" points="775.895,-52.7679 765.463,-50.9175 772.465,-58.8695 775.895,-52.7679"/>
</g>
<!-- corn_and_wicker&#45;&gt;elephant -->
<g id="edge6" class="edge"><title>corn_and_wicker&#45;&gt;elephant</title>
<path fill="none" stroke="#ebc72d" stroke-dasharray="1,5" d="M996.936,-303.926C975.354,-286.846 950.537,-267.206 932.13,-252.64"/>
<polygon fill="#ebc72d" stroke="#ebc72d" points="934.172,-249.793 924.159,-246.332 929.828,-255.282 934.172,-249.793"/>
</g>
<!-- magic_level_1&#45;&gt;magician -->
<g id="edge15" class="edge"><title>magic_level_1&#45;&gt;magician</title>
<path fill="none" stroke="#ebc72d" stroke-dasharray="1,5" d="M472.995,-192.07C472.995,-180.563 472.995,-168.103 472.995,-157.408"/>
<polygon fill="#ebc72d" stroke="#ebc72d" points="476.495,-157.402 472.995,-147.402 469.495,-157.402 476.495,-157.402"/>
</g>
</g>
</svg>
