<?xml version="1.0" encoding="UTF-8" standalone="no"?>
<!DOCTYPE svg PUBLIC "-//W3C//DTD SVG 1.1//EN"
 "http://www.w3.org/Graphics/SVG/1.1/DTD/svg11.dtd">
<!-- Generated by graphviz version 2.38.0 (20140413.2041)
 -->
<!-- Title: test Pages: 1 -->
<svg width="986pt" height="531pt"
 viewBox="0.00 0.00 985.83 530.76" xmlns="http://www.w3.org/2000/svg" xmlns:xlink="http://www.w3.org/1999/xlink">
<g id="graph0" class="graph" transform="scale(1 1) rotate(0) translate(4 526.76)">
<title>test</title>
<polygon fill="#151515" stroke="none" points="-4,4 -4,-526.76 981.828,-526.76 981.828,4 -4,4"/>
<!-- archmage -->
<g id="node1" class="node"><title>archmage</title>
<g id="a_node1"><a xlink:href="magic_archmage_full.html" xlink:title="Archmage">
<ellipse fill="none" stroke="magenta" cx="303.382" cy="-212.693" rx="48.1917" ry="18"/>
<text text-anchor="middle" x="303.382" y="-208.993" font-family="Times,serif" font-size="14.00" fill="#ebc72d">Archmage</text>
</a>
</g>
</g>
<!-- evil_dragon -->
<g id="node2" class="node"><title>evil_dragon</title>
<g id="a_node2"><a xlink:href="magic_evil_dragon_full.html" xlink:title="Evil\nDragon">
<ellipse fill="none" stroke="magenta" cx="373.382" cy="-26.8701" rx="40.1111" ry="26.7407"/>
<text text-anchor="middle" x="373.382" y="-30.6701" font-family="Times,serif" font-size="14.00" fill="#ebc72d">Evil</text>
<text text-anchor="middle" x="373.382" y="-15.6701" font-family="Times,serif" font-size="14.00" fill="#ebc72d">Dragon</text>
</a>
</g>
</g>
<!-- golem -->
<g id="node3" class="node"><title>golem</title>
<g id="a_node3"><a xlink:href="magic_golem_full.html" xlink:title="Golem">
<polygon fill="none" stroke="red" points="86.6467,-320.682 43.3821,-333.12 0.117544,-320.682 0.157926,-300.558 86.6063,-300.558 86.6467,-320.682"/>
<text text-anchor="middle" x="43.3821" y="-311.42" font-family="Times,serif" font-size="14.00" fill="#ebc72d">Golem</text>
</a>
</g>
</g>
<!-- power_golem -->
<g id="node15" class="node"><title>power_golem</title>
<g id="a_node15"><a xlink:href="magic_power_golem_full.html" xlink:title="Power\nGolem">
<polygon fill="none" stroke="red" points="130.778,-223.023 83.3821,-246.121 35.9858,-223.023 36.0301,-185.65 130.734,-185.65 130.778,-223.023"/>
<text text-anchor="middle" x="83.3821" y="-216.493" font-family="Times,serif" font-size="14.00" fill="#ebc72d">Power</text>
<text text-anchor="middle" x="83.3821" y="-201.493" font-family="Times,serif" font-size="14.00" fill="#ebc72d">Golem</text>
</a>
</g>
</g>
<!-- golem&#45;&gt;power_golem -->
<g id="edge6" class="edge"><title>golem&#45;&gt;power_golem</title>
<path fill="none" stroke="#ebc72d" stroke-dasharray="5,2" d="M48.944,-300.156C54.0517,-287.332 61.8495,-267.754 68.7341,-250.47"/>
<polygon fill="#ebc72d" stroke="#ebc72d" points="71.9933,-251.746 72.442,-241.16 65.4901,-249.155 71.9933,-251.746"/>
</g>
<!-- wicker_behemoth -->
<g id="node4" class="node"><title>wicker_behemoth</title>
<g id="a_node4"><a xlink:href="magic_wicker_behemoth_full.html" xlink:title="Wicker\nBehemoth">
<polygon fill="none" stroke="red" points="923.991,-223.023 860.382,-246.121 796.773,-223.023 796.832,-185.65 923.932,-185.65 923.991,-223.023"/>
<text text-anchor="middle" x="860.382" y="-216.493" font-family="Times,serif" font-size="14.00" fill="#ebc72d">Wicker</text>
<text text-anchor="middle" x="860.382" y="-201.493" font-family="Times,serif" font-size="14.00" fill="#ebc72d">Behemoth</text>
</a>
</g>
</g>
<!-- behemoth -->
<g id="node5" class="node"><title>behemoth</title>
<g id="a_node5"><a xlink:href="magic_behemoth_full.html" xlink:title="Behemoth">
<ellipse fill="none" stroke="magenta" cx="930.382" cy="-116.61" rx="47.3916" ry="18"/>
<text text-anchor="middle" x="930.382" y="-112.91" font-family="Times,serif" font-size="14.00" fill="#ebc72d">Behemoth</text>
</a>
</g>
</g>
<!-- wicker_behemoth&#45;&gt;behemoth -->
<g id="edge27" class="edge"><title>wicker_behemoth&#45;&gt;behemoth</title>
<path fill="none" stroke="#ebc72d" stroke-dasharray="5,2" d="M879.881,-185.486C889.903,-172.016 902.05,-155.69 911.919,-142.426"/>
<polygon fill="#ebc72d" stroke="#ebc72d" points="914.869,-144.324 918.03,-134.212 909.253,-140.146 914.869,-144.324"/>
</g>
<!-- library -->
<g id="node6" class="node"><title>library</title>
<g id="a_node6"><a xlink:href="magic_library_full.html" xlink:title="Library">
<polygon fill="none" stroke="red" points="711.968,-320.682 666.382,-333.12 620.797,-320.682 620.839,-300.558 711.925,-300.558 711.968,-320.682"/>
<text text-anchor="middle" x="666.382" y="-311.42" font-family="Times,serif" font-size="14.00" fill="#ebc72d">Library</text>
</a>
</g>
</g>
<!-- library&#45;&gt;archmage -->
<g id="edge16" class="edge"><title>library&#45;&gt;archmage</title>
<path fill="none" stroke="#ebc72d" stroke-dasharray="1,5" d="M646.519,-300.45C636.387,-294.015 623.641,-286.716 611.382,-281.907 526.261,-248.51 421.167,-229.661 358.355,-220.589"/>
<polygon fill="#ebc72d" stroke="#ebc72d" points="358.66,-217.097 348.269,-219.164 357.681,-224.029 358.66,-217.097"/>
</g>
<!-- library&#45;&gt;wicker_behemoth -->
<g id="edge18" class="edge"><title>library&#45;&gt;wicker_behemoth</title>
<path fill="none" stroke="#ebc72d" stroke-dasharray="1,5" d="M688.915,-300.419C698.785,-294.548 710.562,-287.72 721.382,-281.907 751.037,-265.974 784.943,-249.305 811.843,-236.433"/>
<polygon fill="#ebc72d" stroke="#ebc72d" points="813.526,-239.509 821.047,-232.046 810.514,-233.19 813.526,-239.509"/>
</g>
<!-- drake_rider -->
<g id="node8" class="node"><title>drake_rider</title>
<g id="a_node8"><a xlink:href="magic_drake_rider_full.html" xlink:title="Drake\nRider">
<ellipse fill="none" stroke="magenta" cx="637.382" cy="-116.61" rx="35.2113" ry="26.7407"/>
<text text-anchor="middle" x="637.382" y="-120.41" font-family="Times,serif" font-size="14.00" fill="#ebc72d">Drake</text>
<text text-anchor="middle" x="637.382" y="-105.41" font-family="Times,serif" font-size="14.00" fill="#ebc72d">Rider</text>
</a>
</g>
</g>
<!-- library&#45;&gt;drake_rider -->
<g id="edge17" class="edge"><title>library&#45;&gt;drake_rider</title>
<path fill="none" stroke="#ebc72d" stroke-dasharray="1,5" d="M664.343,-300.302C659.891,-270.134 649.18,-197.557 642.678,-153.499"/>
<polygon fill="#ebc72d" stroke="#ebc72d" points="646.124,-152.871 641.201,-143.489 639.199,-153.893 646.124,-152.871"/>
</g>
<!-- archmage_tower -->
<g id="node7" class="node"><title>archmage_tower</title>
<g id="a_node7"><a xlink:href="magic_archmage_tower_full.html" xlink:title="Archmage\nTower">
<polygon fill="none" stroke="red" points="234.239,-325.45 169.382,-348.548 104.525,-325.45 104.585,-288.076 234.179,-288.076 234.239,-325.45"/>
<text text-anchor="middle" x="169.382" y="-318.92" font-family="Times,serif" font-size="14.00" fill="#ebc72d">Archmage</text>
<text text-anchor="middle" x="169.382" y="-303.92" font-family="Times,serif" font-size="14.00" fill="#ebc72d">Tower</text>
</a>
</g>
</g>
<!-- archmage_tower&#45;&gt;archmage -->
<g id="edge1" class="edge"><title>archmage_tower&#45;&gt;archmage</title>
<path fill="none" stroke="#ebc72d" stroke-dasharray="1,5" d="M204.239,-287.996C226.185,-271.549 254.161,-250.582 274.796,-235.117"/>
<polygon fill="#ebc72d" stroke="#ebc72d" points="276.969,-237.863 282.872,-229.065 272.771,-232.261 276.969,-237.863"/>
</g>
<!-- archmage_tower&#45;&gt;power_golem -->
<g id="edge3" class="edge"><title>archmage_tower&#45;&gt;power_golem</title>
<path fill="none" stroke="#ebc72d" stroke-dasharray="1,5" d="M147.011,-287.996C135.612,-274.685 121.678,-258.413 109.758,-244.494"/>
<polygon fill="#ebc72d" stroke="#ebc72d" points="112.17,-241.929 103.007,-236.61 106.853,-246.483 112.17,-241.929"/>
</g>
<!-- dragon -->
<g id="node19" class="node"><title>dragon</title>
<g id="a_node19"><a xlink:href="magic_dragon_full.html" xlink:title="Dragon">
<ellipse fill="none" stroke="magenta" cx="373.382" cy="-116.61" rx="37.0935" ry="18"/>
<text text-anchor="middle" x="373.382" y="-112.91" font-family="Times,serif" font-size="14.00" fill="#ebc72d">Dragon</text>
</a>
</g>
</g>
<!-- archmage_tower&#45;&gt;dragon -->
<g id="edge2" class="edge"><title>archmage_tower&#45;&gt;dragon</title>
<path fill="none" stroke="#ebc72d" stroke-dasharray="1,5" d="M178.82,-288.023C190.65,-258.43 213.451,-210.301 246.382,-179.48 271.102,-156.345 306.091,-140.17 333.087,-130.176"/>
<polygon fill="#ebc72d" stroke="#ebc72d" points="334.392,-133.426 342.637,-126.772 332.042,-126.832 334.392,-133.426"/>
</g>
<!-- initiate -->
<g id="node9" class="node"><title>initiate</title>
<g id="a_node9"><a xlink:href="magic_initiate_full.html" xlink:title="Initiate">
<ellipse fill="none" stroke="magenta" cx="545.382" cy="-402.333" rx="35.9954" ry="18"/>
<text text-anchor="middle" x="545.382" y="-398.633" font-family="Times,serif" font-size="14.00" fill="#ebc72d">Initiate</text>
</a>
</g>
</g>
<!-- initiate&#45;&gt;golem -->
<g id="edge10" class="edge"><title>initiate&#45;&gt;golem</title>
<path fill="none" stroke="#ebc72d" stroke-width="2" d="M510.016,-399.158C417.837,-393.173 172.064,-375.108 95.3821,-348.333 85.9576,-345.042 76.4432,-339.825 68.1757,-334.54"/>
<polygon fill="#ebc72d" stroke="#ebc72d" stroke-width="2" points="70.0057,-331.552 59.7571,-328.866 66.0934,-337.357 70.0057,-331.552"/>
</g>
<!-- initiate&#45;&gt;wicker_behemoth -->
<g id="edge15" class="edge"><title>initiate&#45;&gt;wicker_behemoth</title>
<path fill="none" stroke="#ebc72d" stroke-width="2" d="M581.099,-401.125C658.169,-399.839 836.129,-392.089 873.382,-348.333 895.95,-321.826 888.022,-280.87 877.349,-251.088"/>
<polygon fill="#ebc72d" stroke="#ebc72d" stroke-width="2" points="880.505,-249.543 873.664,-241.453 873.967,-252.043 880.505,-249.543"/>
</g>
<!-- initiate&#45;&gt;library -->
<g id="edge11" class="edge"><title>initiate&#45;&gt;library</title>
<path fill="none" stroke="#ebc72d" stroke-width="2" d="M565.363,-387.262C585.866,-372.823 617.86,-350.291 640.336,-334.462"/>
<polygon fill="#ebc72d" stroke="#ebc72d" stroke-width="2" points="642.574,-337.167 648.735,-328.548 638.544,-331.444 642.574,-337.167"/>
</g>
<!-- initiate&#45;&gt;archmage_tower -->
<g id="edge7" class="edge"><title>initiate&#45;&gt;archmage_tower</title>
<path fill="none" stroke="#ebc72d" stroke-width="2" d="M510.34,-397.909C453.407,-391.744 337.688,-376.696 243.382,-348.333 234.803,-345.753 225.893,-342.452 217.353,-338.952"/>
<polygon fill="#ebc72d" stroke="#ebc72d" stroke-width="2" points="218.478,-335.627 207.906,-334.942 215.744,-342.071 218.478,-335.627"/>
</g>
<!-- mage_tower -->
<g id="node11" class="node"><title>mage_tower</title>
<g id="a_node11"><a xlink:href="magic_mage_tower_full.html" xlink:title="Mage\nTower">
<polygon fill="none" stroke="red" points="793.782,-499.876 748.382,-522.974 702.983,-499.876 703.025,-462.503 793.739,-462.503 793.782,-499.876"/>
<text text-anchor="middle" x="748.382" y="-493.346" font-family="Times,serif" font-size="14.00" fill="#ebc72d">Mage</text>
<text text-anchor="middle" x="748.382" y="-478.346" font-family="Times,serif" font-size="14.00" fill="#ebc72d">Tower</text>
</a>
</g>
</g>
<!-- energy_source -->
<g id="node12" class="node"><title>energy_source</title>
<g id="a_node12"><a xlink:href="magic_energy_source_full.html" xlink:title="Energy\nSource">
<polygon fill="none" stroke="red" points="470.274,-325.45 421.382,-348.548 372.49,-325.45 372.536,-288.076 470.228,-288.076 470.274,-325.45"/>
<text text-anchor="middle" x="421.382" y="-318.92" font-family="Times,serif" font-size="14.00" fill="#ebc72d">Energy</text>
<text text-anchor="middle" x="421.382" y="-303.92" font-family="Times,serif" font-size="14.00" fill="#ebc72d">Source</text>
</a>
</g>
</g>
<!-- initiate&#45;&gt;energy_source -->
<g id="edge9" class="edge"><title>initiate&#45;&gt;energy_source</title>
<path fill="none" stroke="#ebc72d" stroke-width="2" d="M525.183,-387.452C507.008,-374.962 479.862,-356.307 457.888,-341.207"/>
<polygon fill="#ebc72d" stroke="#ebc72d" stroke-width="2" points="459.668,-338.184 449.445,-335.405 455.704,-343.953 459.668,-338.184"/>
</g>
<!-- tower_of_souls -->
<g id="node14" class="node"><title>tower_of_souls</title>
<g id="a_node14"><a xlink:href="magic_tower_of_souls_full.html" xlink:title="Tower\nOf Souls">
<polygon fill="none" stroke="red" points="602.007,-325.45 545.382,-348.548 488.757,-325.45 488.81,-288.076 601.954,-288.076 602.007,-325.45"/>
<text text-anchor="middle" x="545.382" y="-318.92" font-family="Times,serif" font-size="14.00" fill="#ebc72d">Tower</text>
<text text-anchor="middle" x="545.382" y="-303.92" font-family="Times,serif" font-size="14.00" fill="#ebc72d">Of Souls</text>
</a>
</g>
</g>
<!-- initiate&#45;&gt;tower_of_souls -->
<g id="edge14" class="edge"><title>initiate&#45;&gt;tower_of_souls</title>
<path fill="none" stroke="#ebc72d" stroke-width="2" d="M545.382,-384.089C545.382,-376.669 545.382,-367.635 545.382,-358.608"/>
<polygon fill="#ebc72d" stroke="#ebc72d" stroke-width="2" points="548.882,-358.506 545.382,-348.506 541.882,-358.506 548.882,-358.506"/>
</g>
<!-- summoner_guild -->
<g id="node16" class="node"><title>summoner_guild</title>
<g id="a_node16"><a xlink:href="magic_summoner_guild_full.html" xlink:title="Summoner\nGuild">
<polygon fill="none" stroke="red" points="864.484,-325.45 797.382,-348.548 730.281,-325.45 730.343,-288.076 864.421,-288.076 864.484,-325.45"/>
<text text-anchor="middle" x="797.382" y="-318.92" font-family="Times,serif" font-size="14.00" fill="#ebc72d">Summoner</text>
<text text-anchor="middle" x="797.382" y="-303.92" font-family="Times,serif" font-size="14.00" fill="#ebc72d">Guild</text>
</a>
</g>
</g>
<!-- initiate&#45;&gt;summoner_guild -->
<g id="edge13" class="edge"><title>initiate&#45;&gt;summoner_guild</title>
<path fill="none" stroke="#ebc72d" stroke-width="2" d="M576.235,-393.136C611.636,-383.478 671.262,-366.441 721.382,-348.333 729.706,-345.326 738.437,-341.895 746.893,-338.419"/>
<polygon fill="#ebc72d" stroke="#ebc72d" stroke-width="2" points="748.409,-341.579 756.289,-334.497 745.712,-335.12 748.409,-341.579"/>
</g>
<!-- battlemage -->
<g id="node17" class="node"><title>battlemage</title>
<g id="a_node17"><a xlink:href="magic_battlemage_full.html" xlink:title="Battlemage">
<ellipse fill="none" stroke="magenta" cx="303.382" cy="-315.12" rx="51.1914" ry="18"/>
<text text-anchor="middle" x="303.382" y="-311.42" font-family="Times,serif" font-size="14.00" fill="#ebc72d">Battlemage</text>
</a>
</g>
</g>
<!-- initiate&#45;&gt;battlemage -->
<g id="edge8" class="edge"><title>initiate&#45;&gt;battlemage</title>
<path fill="none" stroke="#ebc72d" stroke-dasharray="5,2" d="M513.462,-394.188C476.576,-385.444 414.407,-369.191 363.382,-348.333 354.622,-344.752 345.474,-340.261 337.037,-335.779"/>
<polygon fill="#ebc72d" stroke="#ebc72d" points="338.667,-332.682 328.213,-330.963 335.314,-338.826 338.667,-332.682"/>
</g>
<!-- ghost_armor -->
<g id="node10" class="node"><title>ghost_armor</title>
<g id="a_node10"><a xlink:href="magic_ghost_armor_full.html" xlink:title="Ghost\nArmor">
<ellipse fill="none" stroke="magenta" cx="728.382" cy="-116.61" rx="37.4533" ry="26.7407"/>
<text text-anchor="middle" x="728.382" y="-120.41" font-family="Times,serif" font-size="14.00" fill="#ebc72d">Ghost</text>
<text text-anchor="middle" x="728.382" y="-105.41" font-family="Times,serif" font-size="14.00" fill="#ebc72d">Armor</text>
</a>
</g>
</g>
<!-- mage_tower&#45;&gt;behemoth -->
<g id="edge19" class="edge"><title>mage_tower&#45;&gt;behemoth</title>
<path fill="none" stroke="#ebc72d" stroke-dasharray="1,5" d="M783.335,-462.499C815.915,-436.654 863.928,-394.342 894.382,-348.333 921.269,-307.714 924.57,-293.814 933.382,-245.907 938.723,-216.871 934.097,-208.994 933.382,-179.48 933.107,-168.111 932.547,-155.578 931.985,-144.781"/>
<polygon fill="#ebc72d" stroke="#ebc72d" points="935.473,-144.466 931.432,-134.672 928.483,-144.848 935.473,-144.466"/>
</g>
<!-- mage_tower&#45;&gt;initiate -->
<g id="edge20" class="edge"><title>mage_tower&#45;&gt;initiate</title>
<path fill="none" stroke="#ebc72d" d="M693.108,-465.344C657.651,-450.46 612.625,-431.559 581.654,-418.559"/>
<polygon fill="#ebc72d" stroke="#ebc72d" points="692.25,-468.779 702.825,-469.423 694.959,-462.325 692.25,-468.779"/>
<polygon fill="#ebc72d" stroke="#ebc72d" points="582.698,-415.201 572.123,-414.558 579.989,-421.656 582.698,-415.201"/>
</g>
<!-- daemon -->
<g id="node13" class="node"><title>daemon</title>
<g id="a_node13"><a xlink:href="magic_daemon_full.html" xlink:title="Daemon">
<ellipse fill="none" stroke="magenta" cx="824.382" cy="-116.61" rx="40.8928" ry="18"/>
<text text-anchor="middle" x="824.382" y="-112.91" font-family="Times,serif" font-size="14.00" fill="#ebc72d">Daemon</text>
</a>
</g>
</g>
<!-- summoner -->
<g id="node18" class="node"><title>summoner</title>
<g id="a_node18"><a xlink:href="magic_summoner_full.html" xlink:title="Summoner">
<ellipse fill="none" stroke="magenta" cx="728.382" cy="-212.693" rx="50.0912" ry="18"/>
<text text-anchor="middle" x="728.382" y="-208.993" font-family="Times,serif" font-size="14.00" fill="#ebc72d">Summoner</text>
</a>
</g>
</g>
<!-- summoner_guild&#45;&gt;summoner -->
<g id="edge26" class="edge"><title>summoner_guild&#45;&gt;summoner</title>
<path fill="none" stroke="#ebc72d" d="M779.433,-287.996C768.952,-272.741 755.8,-253.599 745.47,-238.565"/>
<polygon fill="#ebc72d" stroke="#ebc72d" points="748.304,-236.508 739.756,-230.248 742.534,-240.472 748.304,-236.508"/>
</g>
<!-- battlemage&#45;&gt;archmage -->
<g id="edge4" class="edge"><title>battlemage&#45;&gt;archmage</title>
<path fill="none" stroke="#ebc72d" stroke-dasharray="5,2" d="M303.382,-297.084C303.382,-281.719 303.382,-258.851 303.382,-240.947"/>
<polygon fill="#ebc72d" stroke="#ebc72d" points="306.882,-240.813 303.382,-230.813 299.882,-240.813 306.882,-240.813"/>
</g>
<!-- summoner&#45;&gt;behemoth -->
<g id="edge21" class="edge"><title>summoner&#45;&gt;behemoth</title>
<path fill="none" stroke="#ebc72d" stroke-dasharray="1,5" d="M753.628,-197.133C763.961,-191.379 776.117,-184.867 787.382,-179.48 825.134,-161.428 836.047,-160.258 874.382,-143.48 880.241,-140.916 886.414,-138.14 892.435,-135.391"/>
<polygon fill="#ebc72d" stroke="#ebc72d" points="894.083,-138.486 901.706,-131.128 891.159,-132.126 894.083,-138.486"/>
</g>
<!-- summoner&#45;&gt;drake_rider -->
<g id="edge24" class="edge"><title>summoner&#45;&gt;drake_rider</title>
<path fill="none" stroke="#ebc72d" stroke-dasharray="5,2" d="M712.531,-195.305C699.49,-181.823 680.694,-162.39 665.163,-146.332"/>
<polygon fill="#ebc72d" stroke="#ebc72d" points="667.308,-143.516 657.84,-138.761 662.276,-148.382 667.308,-143.516"/>
</g>
<!-- summoner&#45;&gt;ghost_armor -->
<g id="edge25" class="edge"><title>summoner&#45;&gt;ghost_armor</title>
<path fill="none" stroke="#ebc72d" d="M728.382,-194.437C728.382,-183.108 728.382,-167.863 728.382,-153.94"/>
<polygon fill="#ebc72d" stroke="#ebc72d" points="731.882,-153.638 728.382,-143.638 724.882,-153.638 731.882,-153.638"/>
</g>
<!-- summoner&#45;&gt;daemon -->
<g id="edge22" class="edge"><title>summoner&#45;&gt;daemon</title>
<path fill="none" stroke="#ebc72d" d="M745.104,-195.305C760.477,-180.239 783.432,-157.743 800.691,-140.829"/>
<polygon fill="#ebc72d" stroke="#ebc72d" points="803.479,-142.996 808.172,-133.497 798.58,-137.997 803.479,-142.996"/>
</g>
<!-- summoner&#45;&gt;dragon -->
<g id="edge23" class="edge"><title>summoner&#45;&gt;dragon</title>
<path fill="none" stroke="#ebc72d" d="M689.375,-201.356C621.908,-183.475 484.028,-146.934 414.873,-128.606"/>
<polygon fill="#ebc72d" stroke="#ebc72d" points="415.749,-125.217 405.186,-126.039 413.955,-131.984 415.749,-125.217"/>
</g>
<!-- dragon&#45;&gt;evil_dragon -->
<g id="edge5" class="edge"><title>dragon&#45;&gt;evil_dragon</title>
<path fill="none" stroke="#ebc72d" stroke-dasharray="5,2" d="M373.382,-98.2755C373.382,-88.4643 373.382,-75.8168 373.382,-63.9541"/>
<polygon fill="#ebc72d" stroke="#ebc72d" points="376.882,-63.8222 373.382,-53.8222 369.882,-63.8222 376.882,-63.8222"/>
</g>
</g>
</svg>
