<?xml version="1.0" encoding="UTF-8" standalone="no"?>
<!DOCTYPE svg PUBLIC "-//W3C//DTD SVG 1.1//EN"
 "http://www.w3.org/Graphics/SVG/1.1/DTD/svg11.dtd">
<!-- Generated by graphviz version 2.38.0 (20140413.2041)
 -->
<!-- Title: test Pages: 1 -->
<svg width="1174pt" height="428pt"
 viewBox="0.00 0.00 1173.60 428.33" xmlns="http://www.w3.org/2000/svg" xmlns:xlink="http://www.w3.org/1999/xlink">
<g id="graph0" class="graph" transform="scale(1 1) rotate(0) translate(4 424.333)">
<title>test</title>
<polygon fill="#151515" stroke="none" points="-4,4 -4,-424.333 1169.6,-424.333 1169.6,4 -4,4"/>
<!-- archmage -->
<g id="node1" class="node"><title>archmage</title>
<g id="a_node1"><a xlink:href="magic_archmage_full.html" xlink:title="Archmage">
<ellipse fill="none" stroke="magenta" cx="598.804" cy="-212.693" rx="48.1917" ry="18"/>
<text text-anchor="middle" x="598.804" y="-208.993" font-family="Times,serif" font-size="14.00" fill="#ebc72d">Archmage</text>
</a>
</g>
</g>
<!-- evil_dragon -->
<g id="node2" class="node"><title>evil_dragon</title>
<g id="a_node2"><a xlink:href="magic_evil_dragon_full.html" xlink:title="Evil\nDragon">
<ellipse fill="none" stroke="magenta" cx="468.804" cy="-26.8701" rx="40.1111" ry="26.7407"/>
<text text-anchor="middle" x="468.804" y="-30.6701" font-family="Times,serif" font-size="14.00" fill="#ebc72d">Evil</text>
<text text-anchor="middle" x="468.804" y="-15.6701" font-family="Times,serif" font-size="14.00" fill="#ebc72d">Dragon</text>
</a>
</g>
</g>
<!-- golem -->
<g id="node3" class="node"><title>golem</title>
<g id="a_node3"><a xlink:href="magic_golem_full.html" xlink:title="Golem">
<polygon fill="none" stroke="red" points="287.069,-320.682 243.804,-333.12 200.54,-320.682 200.58,-300.558 287.029,-300.558 287.069,-320.682"/>
<text text-anchor="middle" x="243.804" y="-311.42" font-family="Times,serif" font-size="14.00" fill="#ebc72d">Golem</text>
</a>
</g>
</g>
<!-- power_golem -->
<g id="node15" class="node"><title>power_golem</title>
<g id="a_node15"><a xlink:href="magic_power_golem_full.html" xlink:title="Power\nGolem">
<polygon fill="none" stroke="red" points="316.201,-223.023 268.804,-246.121 221.408,-223.023 221.452,-185.65 316.156,-185.65 316.201,-223.023"/>
<text text-anchor="middle" x="268.804" y="-216.493" font-family="Times,serif" font-size="14.00" fill="#ebc72d">Power</text>
<text text-anchor="middle" x="268.804" y="-201.493" font-family="Times,serif" font-size="14.00" fill="#ebc72d">Golem</text>
</a>
</g>
</g>
<!-- golem&#45;&gt;power_golem -->
<g id="edge8" class="edge"><title>golem&#45;&gt;power_golem</title>
<path fill="none" stroke="#ebc72d" stroke-dasharray="5,2" d="M247.28,-300.156C250.325,-287.927 254.898,-269.555 259.047,-252.888"/>
<polygon fill="#ebc72d" stroke="#ebc72d" points="262.539,-253.349 261.559,-242.8 255.747,-251.658 262.539,-253.349"/>
</g>
<!-- wicker_behemoth -->
<g id="node4" class="node"><title>wicker_behemoth</title>
<g id="a_node4"><a xlink:href="magic_wicker_behemoth_full.html" xlink:title="Wicker\nBehemoth">
<polygon fill="none" stroke="red" points="127.414,-223.023 63.8043,-246.121 0.195062,-223.023 0.254434,-185.65 127.354,-185.65 127.414,-223.023"/>
<text text-anchor="middle" x="63.8043" y="-216.493" font-family="Times,serif" font-size="14.00" fill="#ebc72d">Wicker</text>
<text text-anchor="middle" x="63.8043" y="-201.493" font-family="Times,serif" font-size="14.00" fill="#ebc72d">Behemoth</text>
</a>
</g>
</g>
<!-- behemoth -->
<g id="node5" class="node"><title>behemoth</title>
<g id="a_node5"><a xlink:href="magic_behemoth_full.html" xlink:title="Behemoth">
<ellipse fill="none" stroke="magenta" cx="155.804" cy="-116.61" rx="47.3916" ry="18"/>
<text text-anchor="middle" x="155.804" y="-112.91" font-family="Times,serif" font-size="14.00" fill="#ebc72d">Behemoth</text>
</a>
</g>
</g>
<!-- wicker_behemoth&#45;&gt;behemoth -->
<g id="edge29" class="edge"><title>wicker_behemoth&#45;&gt;behemoth</title>
<path fill="none" stroke="#ebc72d" stroke-dasharray="5,2" d="M89.4315,-185.486C103.032,-171.578 119.609,-154.625 132.795,-141.141"/>
<polygon fill="#ebc72d" stroke="#ebc72d" points="135.629,-143.249 140.118,-133.652 130.624,-138.355 135.629,-143.249"/>
</g>
<!-- library -->
<g id="node6" class="node"><title>library</title>
<g id="a_node6"><a xlink:href="magic_library_full.html" xlink:title="Library">
<polygon fill="none" stroke="red" points="912.39,-320.682 866.804,-333.12 821.219,-320.682 821.261,-300.558 912.347,-300.558 912.39,-320.682"/>
<text text-anchor="middle" x="866.804" y="-311.42" font-family="Times,serif" font-size="14.00" fill="#ebc72d">Library</text>
</a>
</g>
</g>
<!-- library&#45;&gt;archmage -->
<g id="edge18" class="edge"><title>library&#45;&gt;archmage</title>
<path fill="none" stroke="#ebc72d" stroke-dasharray="1,5" d="M845.965,-300.45C835.917,-294.244 823.526,-287.139 811.804,-281.907 757.365,-257.603 691.607,-237.915 647.691,-226.048"/>
<polygon fill="#ebc72d" stroke="#ebc72d" points="648.406,-222.617 637.841,-223.419 646.6,-229.38 648.406,-222.617"/>
</g>
<!-- draco_rider -->
<g id="node12" class="node"><title>draco_rider</title>
<g id="a_node12"><a xlink:href="magic_draco_rider_full.html" xlink:title="Draco\nRider">
<ellipse fill="none" stroke="magenta" cx="773.804" cy="-116.61" rx="35.2113" ry="26.7407"/>
<text text-anchor="middle" x="773.804" y="-120.41" font-family="Times,serif" font-size="14.00" fill="#ebc72d">Draco</text>
<text text-anchor="middle" x="773.804" y="-105.41" font-family="Times,serif" font-size="14.00" fill="#ebc72d">Rider</text>
</a>
</g>
</g>
<!-- library&#45;&gt;draco_rider -->
<g id="edge19" class="edge"><title>library&#45;&gt;draco_rider</title>
<path fill="none" stroke="#ebc72d" stroke-dasharray="1,5" d="M850.651,-300.31C836.747,-287.557 817.18,-267.388 805.804,-245.907 790.439,-216.893 782.255,-180.256 778.023,-153.568"/>
<polygon fill="#ebc72d" stroke="#ebc72d" points="781.461,-152.89 776.539,-143.507 774.536,-153.911 781.461,-152.89"/>
</g>
<!-- archmage_tower -->
<g id="node7" class="node"><title>archmage_tower</title>
<g id="a_node7"><a xlink:href="magic_archmage_tower_full.html" xlink:title="Archmage\nTower">
<polygon fill="none" stroke="red" points="434.662,-325.45 369.804,-348.548 304.947,-325.45 305.008,-288.076 434.601,-288.076 434.662,-325.45"/>
<text text-anchor="middle" x="369.804" y="-318.92" font-family="Times,serif" font-size="14.00" fill="#ebc72d">Archmage</text>
<text text-anchor="middle" x="369.804" y="-303.92" font-family="Times,serif" font-size="14.00" fill="#ebc72d">Tower</text>
</a>
</g>
</g>
<!-- archmage_tower&#45;&gt;archmage -->
<g id="edge1" class="edge"><title>archmage_tower&#45;&gt;archmage</title>
<path fill="none" stroke="#ebc72d" stroke-dasharray="1,5" d="M429.374,-287.996C470.317,-270.041 523.541,-246.7 559.317,-231.01"/>
<polygon fill="#ebc72d" stroke="#ebc72d" points="561.167,-234.021 568.92,-226.799 558.356,-227.61 561.167,-234.021"/>
</g>
<!-- archmage_tower&#45;&gt;power_golem -->
<g id="edge3" class="edge"><title>archmage_tower&#45;&gt;power_golem</title>
<path fill="none" stroke="#ebc72d" stroke-dasharray="1,5" d="M343.531,-287.996C329.595,-274.139 312.433,-257.074 298.071,-242.794"/>
<polygon fill="#ebc72d" stroke="#ebc72d" points="300.407,-240.181 290.848,-235.612 295.472,-245.145 300.407,-240.181"/>
</g>
<!-- dragon -->
<g id="node19" class="node"><title>dragon</title>
<g id="a_node19"><a xlink:href="magic_dragon_full.html" xlink:title="Dragon">
<ellipse fill="none" stroke="magenta" cx="436.804" cy="-116.61" rx="37.0935" ry="18"/>
<text text-anchor="middle" x="436.804" y="-112.91" font-family="Times,serif" font-size="14.00" fill="#ebc72d">Dragon</text>
</a>
</g>
</g>
<!-- archmage_tower&#45;&gt;dragon -->
<g id="edge2" class="edge"><title>archmage_tower&#45;&gt;dragon</title>
<path fill="none" stroke="#ebc72d" stroke-dasharray="1,5" d="M378.701,-288.025C391.456,-250.616 414.815,-182.104 427.689,-144.345"/>
<polygon fill="#ebc72d" stroke="#ebc72d" points="431.11,-145.156 431.025,-134.561 424.485,-142.897 431.11,-145.156"/>
</g>
<!-- initiate -->
<g id="node8" class="node"><title>initiate</title>
<g id="a_node8"><a xlink:href="magic_initiate_full.html" xlink:title="Initiate">
<ellipse fill="none" stroke="magenta" cx="501.804" cy="-402.333" rx="35.9954" ry="18"/>
<text text-anchor="middle" x="501.804" y="-398.633" font-family="Times,serif" font-size="14.00" fill="#ebc72d">Initiate</text>
</a>
</g>
</g>
<!-- initiate&#45;&gt;golem -->
<g id="edge12" class="edge"><title>initiate&#45;&gt;golem</title>
<path fill="none" stroke="#ebc72d" stroke-width="2" d="M468.329,-395.944C426.713,-388.525 354.058,-373.184 295.804,-348.333 286.766,-344.477 277.468,-339.2 269.278,-334.033"/>
<polygon fill="#ebc72d" stroke="#ebc72d" stroke-width="2" points="271.176,-331.092 260.892,-328.542 267.341,-336.948 271.176,-331.092"/>
</g>
<!-- initiate&#45;&gt;wicker_behemoth -->
<g id="edge17" class="edge"><title>initiate&#45;&gt;wicker_behemoth</title>
<path fill="none" stroke="#ebc72d" stroke-width="2" d="M466.348,-399.286C370.217,-393.403 109.99,-375.131 82.8043,-348.333 58.5168,-324.392 55.5906,-284.595 57.6509,-254.461"/>
<polygon fill="#ebc72d" stroke="#ebc72d" stroke-width="2" points="61.1596,-254.519 58.5608,-244.248 54.1872,-253.897 61.1596,-254.519"/>
</g>
<!-- initiate&#45;&gt;library -->
<g id="edge13" class="edge"><title>initiate&#45;&gt;library</title>
<path fill="none" stroke="#ebc72d" stroke-width="2" d="M537.261,-399.414C595.978,-395.334 716.39,-383.117 811.804,-348.333 821.681,-344.732 831.801,-339.368 840.625,-334.045"/>
<polygon fill="#ebc72d" stroke="#ebc72d" stroke-width="2" points="842.69,-336.88 849.285,-328.588 838.959,-330.958 842.69,-336.88"/>
</g>
<!-- initiate&#45;&gt;archmage_tower -->
<g id="edge9" class="edge"><title>initiate&#45;&gt;archmage_tower</title>
<path fill="none" stroke="#ebc72d" stroke-width="2" d="M480.596,-387.642C461.856,-375.544 433.993,-357.557 410.898,-342.648"/>
<polygon fill="#ebc72d" stroke="#ebc72d" stroke-width="2" points="412.609,-339.587 402.309,-337.104 408.812,-345.468 412.609,-339.587"/>
</g>
<!-- mage_tower -->
<g id="node10" class="node"><title>mage_tower</title>
<g id="a_node10"><a xlink:href="magic_mage_tower_full.html" xlink:title="Mage\nTower">
<polygon fill="none" stroke="red" points="182.204,-325.45 136.804,-348.548 91.405,-325.45 91.4473,-288.076 182.161,-288.076 182.204,-325.45"/>
<text text-anchor="middle" x="136.804" y="-318.92" font-family="Times,serif" font-size="14.00" fill="#ebc72d">Mage</text>
<text text-anchor="middle" x="136.804" y="-303.92" font-family="Times,serif" font-size="14.00" fill="#ebc72d">Tower</text>
</a>
</g>
</g>
<!-- initiate&#45;&gt;mage_tower -->
<g id="edge14" class="edge"><title>initiate&#45;&gt;mage_tower</title>
<path fill="none" stroke="#ebc72d" stroke-width="2" d="M456.175,-398.669C394.535,-393.93 282,-381.215 191.804,-348.333 185.448,-346.016 178.99,-342.968 172.843,-339.671"/>
<polygon fill="#ebc72d" stroke="#ebc72d" stroke-width="2" points="456.118,-402.175 466.347,-399.414 456.63,-395.193 456.118,-402.175"/>
<polygon fill="#ebc72d" stroke="#ebc72d" stroke-width="2" points="174.531,-336.604 164.105,-334.717 171.079,-342.694 174.531,-336.604"/>
</g>
<!-- energy_source -->
<g id="node11" class="node"><title>energy_source</title>
<g id="a_node11"><a xlink:href="magic_energy_source_full.html" xlink:title="Energy\nSource">
<polygon fill="none" stroke="red" points="550.696,-325.45 501.804,-348.548 452.913,-325.45 452.958,-288.076 550.65,-288.076 550.696,-325.45"/>
<text text-anchor="middle" x="501.804" y="-318.92" font-family="Times,serif" font-size="14.00" fill="#ebc72d">Energy</text>
<text text-anchor="middle" x="501.804" y="-303.92" font-family="Times,serif" font-size="14.00" fill="#ebc72d">Source</text>
</a>
</g>
</g>
<!-- initiate&#45;&gt;energy_source -->
<g id="edge11" class="edge"><title>initiate&#45;&gt;energy_source</title>
<path fill="none" stroke="#ebc72d" stroke-width="2" d="M501.804,-384.089C501.804,-376.669 501.804,-367.635 501.804,-358.608"/>
<polygon fill="#ebc72d" stroke="#ebc72d" stroke-width="2" points="505.304,-358.506 501.804,-348.506 498.304,-358.506 505.304,-358.506"/>
</g>
<!-- tower_of_souls -->
<g id="node14" class="node"><title>tower_of_souls</title>
<g id="a_node14"><a xlink:href="magic_tower_of_souls_full.html" xlink:title="Tower\nOf Souls">
<polygon fill="none" stroke="red" points="802.429,-325.45 745.804,-348.548 689.18,-325.45 689.232,-288.076 802.376,-288.076 802.429,-325.45"/>
<text text-anchor="middle" x="745.804" y="-318.92" font-family="Times,serif" font-size="14.00" fill="#ebc72d">Tower</text>
<text text-anchor="middle" x="745.804" y="-303.92" font-family="Times,serif" font-size="14.00" fill="#ebc72d">Of Souls</text>
</a>
</g>
</g>
<!-- initiate&#45;&gt;tower_of_souls -->
<g id="edge16" class="edge"><title>initiate&#45;&gt;tower_of_souls</title>
<path fill="none" stroke="#ebc72d" stroke-width="2" d="M533.196,-393.661C569.173,-384.487 629.635,-367.892 679.804,-348.333 687.071,-345.5 694.634,-342.182 701.936,-338.772"/>
<polygon fill="#ebc72d" stroke="#ebc72d" stroke-width="2" points="703.494,-341.906 711.003,-334.433 700.472,-335.592 703.494,-341.906"/>
</g>
<!-- summoner_guild -->
<g id="node16" class="node"><title>summoner_guild</title>
<g id="a_node16"><a xlink:href="magic_summoner_guild_full.html" xlink:title="Summoner\nGuild">
<polygon fill="none" stroke="red" points="1064.91,-325.45 997.804,-348.548 930.703,-325.45 930.765,-288.076 1064.84,-288.076 1064.91,-325.45"/>
<text text-anchor="middle" x="997.804" y="-318.92" font-family="Times,serif" font-size="14.00" fill="#ebc72d">Summoner</text>
<text text-anchor="middle" x="997.804" y="-303.92" font-family="Times,serif" font-size="14.00" fill="#ebc72d">Guild</text>
</a>
</g>
</g>
<!-- initiate&#45;&gt;summoner_guild -->
<g id="edge15" class="edge"><title>initiate&#45;&gt;summoner_guild</title>
<path fill="none" stroke="#ebc72d" stroke-width="2" d="M537.563,-400.128C610.85,-396.941 782.893,-385.765 921.804,-348.333 930.848,-345.896 940.228,-342.604 949.183,-339.052"/>
<polygon fill="#ebc72d" stroke="#ebc72d" stroke-width="2" points="950.789,-342.175 958.697,-335.123 948.118,-335.705 950.789,-342.175"/>
</g>
<!-- battlemage -->
<g id="node17" class="node"><title>battlemage</title>
<g id="a_node17"><a xlink:href="magic_battlemage_full.html" xlink:title="Battlemage">
<ellipse fill="none" stroke="magenta" cx="619.804" cy="-315.12" rx="51.1914" ry="18"/>
<text text-anchor="middle" x="619.804" y="-311.42" font-family="Times,serif" font-size="14.00" fill="#ebc72d">Battlemage</text>
</a>
</g>
</g>
<!-- initiate&#45;&gt;battlemage -->
<g id="edge10" class="edge"><title>initiate&#45;&gt;battlemage</title>
<path fill="none" stroke="#ebc72d" stroke-dasharray="5,2" d="M521.555,-387.07C540.321,-373.518 568.783,-352.965 590.25,-337.462"/>
<polygon fill="#ebc72d" stroke="#ebc72d" points="592.333,-340.276 598.391,-331.584 588.234,-334.601 592.333,-340.276"/>
</g>
<!-- ghost_armor -->
<g id="node9" class="node"><title>ghost_armor</title>
<g id="a_node9"><a xlink:href="magic_ghost_armor_full.html" xlink:title="Ghost\nArmor">
<ellipse fill="none" stroke="magenta" cx="864.804" cy="-116.61" rx="37.4533" ry="26.7407"/>
<text text-anchor="middle" x="864.804" y="-120.41" font-family="Times,serif" font-size="14.00" fill="#ebc72d">Ghost</text>
<text text-anchor="middle" x="864.804" y="-105.41" font-family="Times,serif" font-size="14.00" fill="#ebc72d">Armor</text>
</a>
</g>
</g>
<!-- mage_tower&#45;&gt;behemoth -->
<g id="edge20" class="edge"><title>mage_tower&#45;&gt;behemoth</title>
<path fill="none" stroke="#ebc72d" stroke-dasharray="1,5" d="M139.327,-288.025C142.92,-250.871 149.478,-183.036 153.144,-145.121"/>
<polygon fill="#ebc72d" stroke="#ebc72d" points="156.661,-145.116 154.14,-134.825 149.694,-144.442 156.661,-145.116"/>
</g>
<!-- energy_source&#45;&gt;archmage -->
<g id="edge6" class="edge"><title>energy_source&#45;&gt;archmage</title>
<path fill="none" stroke="#ebc72d" stroke-dasharray="1,5" d="M527.037,-287.996C542.142,-272.357 561.194,-252.633 575.871,-237.437"/>
<polygon fill="#ebc72d" stroke="#ebc72d" points="578.674,-239.573 583.103,-229.949 573.639,-234.71 578.674,-239.573"/>
</g>
<!-- energy_source&#45;&gt;evil_dragon -->
<g id="edge7" class="edge"><title>energy_source&#45;&gt;evil_dragon</title>
<path fill="none" stroke="#ebc72d" stroke-dasharray="1,5" d="M500.767,-288.069C498.834,-246.103 493.833,-161.021 482.804,-89.7401 481.473,-81.1354 479.629,-71.9444 477.715,-63.35"/>
<polygon fill="#ebc72d" stroke="#ebc72d" points="481.125,-62.5611 475.464,-53.6058 474.305,-64.137 481.125,-62.5611"/>
</g>
<!-- daemon -->
<g id="node13" class="node"><title>daemon</title>
<g id="a_node13"><a xlink:href="magic_daemon_full.html" xlink:title="Daemon">
<ellipse fill="none" stroke="magenta" cx="960.804" cy="-116.61" rx="40.8928" ry="18"/>
<text text-anchor="middle" x="960.804" y="-112.91" font-family="Times,serif" font-size="14.00" fill="#ebc72d">Daemon</text>
</a>
</g>
</g>
<!-- summoner -->
<g id="node18" class="node"><title>summoner</title>
<g id="a_node18"><a xlink:href="magic_summoner_full.html" xlink:title="Summoner">
<ellipse fill="none" stroke="magenta" cx="864.804" cy="-212.693" rx="50.0912" ry="18"/>
<text text-anchor="middle" x="864.804" y="-208.993" font-family="Times,serif" font-size="14.00" fill="#ebc72d">Summoner</text>
</a>
</g>
</g>
<!-- summoner_guild&#45;&gt;summoner -->
<g id="edge28" class="edge"><title>summoner_guild&#45;&gt;summoner</title>
<path fill="none" stroke="#ebc72d" d="M963.207,-287.996C941.56,-271.651 914.002,-250.842 893.56,-235.406"/>
<polygon fill="#ebc72d" stroke="#ebc72d" points="895.639,-232.59 885.549,-229.358 891.42,-238.177 895.639,-232.59"/>
</g>
<!-- battlemage&#45;&gt;archmage -->
<g id="edge4" class="edge"><title>battlemage&#45;&gt;archmage</title>
<path fill="none" stroke="#ebc72d" stroke-dasharray="5,2" d="M616.242,-297.084C613.014,-281.647 608.202,-258.636 604.451,-240.695"/>
<polygon fill="#ebc72d" stroke="#ebc72d" points="607.857,-239.885 602.384,-230.813 601.005,-241.318 607.857,-239.885"/>
</g>
<!-- summoner&#45;&gt;behemoth -->
<g id="edge22" class="edge"><title>summoner&#45;&gt;behemoth</title>
<path fill="none" stroke="#ebc72d" stroke-dasharray="1,5" d="M820.014,-204.395C777.733,-197.598 712.532,-187.36 655.804,-179.48 494.385,-157.058 303.077,-134.501 210.892,-123.883"/>
<polygon fill="#ebc72d" stroke="#ebc72d" points="211.017,-120.374 200.683,-122.709 210.218,-127.328 211.017,-120.374"/>
</g>
<!-- summoner&#45;&gt;ghost_armor -->
<g id="edge27" class="edge"><title>summoner&#45;&gt;ghost_armor</title>
<path fill="none" stroke="#ebc72d" d="M864.804,-194.437C864.804,-183.108 864.804,-167.863 864.804,-153.94"/>
<polygon fill="#ebc72d" stroke="#ebc72d" points="868.304,-153.638 864.804,-143.638 861.304,-153.638 868.304,-153.638"/>
</g>
<!-- summoner&#45;&gt;draco_rider -->
<g id="edge24" class="edge"><title>summoner&#45;&gt;draco_rider</title>
<path fill="none" stroke="#ebc72d" stroke-dasharray="5,2" d="M848.953,-195.305C835.913,-181.823 817.116,-162.39 801.585,-146.332"/>
<polygon fill="#ebc72d" stroke="#ebc72d" points="803.73,-143.516 794.262,-138.761 798.699,-148.382 803.73,-143.516"/>
</g>
<!-- summoner&#45;&gt;daemon -->
<g id="edge23" class="edge"><title>summoner&#45;&gt;daemon</title>
<path fill="none" stroke="#ebc72d" d="M881.526,-195.305C896.899,-180.239 919.854,-157.743 937.113,-140.829"/>
<polygon fill="#ebc72d" stroke="#ebc72d" points="939.902,-142.996 944.594,-133.497 935.002,-137.997 939.902,-142.996"/>
</g>
<!-- summoner&#45;&gt;dragon -->
<g id="edge25" class="edge"><title>summoner&#45;&gt;dragon</title>
<path fill="none" stroke="#ebc72d" d="M823.377,-202.587C742.016,-184.702 562.112,-145.155 479.633,-127.025"/>
<polygon fill="#ebc72d" stroke="#ebc72d" points="480.354,-123.6 469.836,-124.871 478.851,-130.437 480.354,-123.6"/>
</g>
<!-- faster_movement -->
<g id="node20" class="node"><title>faster_movement</title>
<ellipse fill="none" stroke="black" cx="1092.8" cy="-116.61" rx="72.5877" ry="18"/>
<text text-anchor="middle" x="1092.8" y="-112.91" font-family="Times,serif" font-size="14.00">faster_movement</text>
</g>
<!-- summoner&#45;&gt;faster_movement -->
<g id="edge26" class="edge"><title>summoner&#45;&gt;faster_movement</title>
<path fill="none" stroke="#ebc72d" stroke-dasharray="1,5" d="M896.507,-198.612C935.721,-182.43 1002.75,-154.769 1047.42,-136.34"/>
<polygon fill="#ebc72d" stroke="#ebc72d" points="1048.96,-139.49 1056.87,-132.44 1046.29,-133.019 1048.96,-139.49"/>
</g>
<!-- dragon&#45;&gt;evil_dragon -->
<g id="edge5" class="edge"><title>dragon&#45;&gt;evil_dragon</title>
<path fill="none" stroke="#ebc72d" stroke-dasharray="5,2" d="M442.974,-98.693C446.7,-88.4768 451.587,-75.0766 456.107,-62.6844"/>
<polygon fill="#ebc72d" stroke="#ebc72d" points="459.485,-63.6362 459.624,-53.0422 452.909,-61.2377 459.485,-63.6362"/>
</g>
</g>
</svg>
