<?xml version="1.0" encoding="UTF-8" standalone="no"?>
<!DOCTYPE svg PUBLIC "-//W3C//DTD SVG 1.1//EN"
 "http://www.w3.org/Graphics/SVG/1.1/DTD/svg11.dtd">
<!-- Generated by graphviz version 2.38.0 (20140413.2041)
 -->
<!-- Title: test Pages: 1 -->
<svg width="1456pt" height="675pt"
 viewBox="0.00 0.00 1456.36 674.59" xmlns="http://www.w3.org/2000/svg" xmlns:xlink="http://www.w3.org/1999/xlink">
<g id="graph0" class="graph" transform="scale(1 1) rotate(0) translate(4 670.593)">
<title>test</title>
<polygon fill="#151515" stroke="none" points="-4,4 -4,-670.593 1452.36,-670.593 1452.36,4 -4,4"/>
<!-- archmage -->
<g id="node1" class="node"><title>archmage</title>
<g id="a_node1"><a xlink:href="magic_archmage_full.html" xlink:title="Archmage">
<ellipse fill="none" stroke="magenta" cx="124.946" cy="-230.167" rx="48.1917" ry="18"/>
<text text-anchor="middle" x="124.946" y="-226.467" font-family="Times,serif" font-size="14.00" fill="#ebc72d">Archmage</text>
</a>
</g>
</g>
<!-- evil_dragon -->
<g id="node2" class="node"><title>evil_dragon</title>
<g id="a_node2"><a xlink:href="magic_evil_dragon_full.html" xlink:title="Evil\nDragon">
<ellipse fill="none" stroke="magenta" cx="232.946" cy="-26.8701" rx="40.1111" ry="26.7407"/>
<text text-anchor="middle" x="232.946" y="-30.6701" font-family="Times,serif" font-size="14.00" fill="#ebc72d">Evil</text>
<text text-anchor="middle" x="232.946" y="-15.6701" font-family="Times,serif" font-size="14.00" fill="#ebc72d">Dragon</text>
</a>
</g>
</g>
<!-- golem -->
<g id="node3" class="node"><title>golem</title>
<g id="a_node3"><a xlink:href="magic_golem_full.html" xlink:title="Golem">
<polygon fill="none" stroke="red" points="388.21,-347.729 344.946,-360.167 301.681,-347.729 301.722,-327.604 388.17,-327.604 388.21,-347.729"/>
<text text-anchor="middle" x="344.946" y="-338.467" font-family="Times,serif" font-size="14.00" fill="#ebc72d">Golem</text>
</a>
</g>
</g>
<!-- power_golem -->
<g id="node15" class="node"><title>power_golem</title>
<g id="a_node15"><a xlink:href="magic_power_golem_full.html" xlink:title="Power\nGolem">
<polygon fill="none" stroke="red" points="328.342,-133.283 280.946,-156.381 233.55,-133.283 233.594,-95.9097 328.298,-95.9097 328.342,-133.283"/>
<text text-anchor="middle" x="280.946" y="-126.753" font-family="Times,serif" font-size="14.00" fill="#ebc72d">Power</text>
<text text-anchor="middle" x="280.946" y="-111.753" font-family="Times,serif" font-size="14.00" fill="#ebc72d">Golem</text>
</a>
</g>
</g>
<!-- golem&#45;&gt;power_golem -->
<g id="edge10" class="edge"><title>golem&#45;&gt;power_golem</title>
<path fill="none" stroke="#ebc72d" stroke-dasharray="5,2" d="M342.876,-327.349C338.673,-300.727 328.141,-240.669 311.946,-192.167 308.287,-181.208 303.436,-169.644 298.66,-159.212"/>
<polygon fill="#ebc72d" stroke="#ebc72d" points="301.752,-157.563 294.331,-150.001 295.417,-160.54 301.752,-157.563"/>
</g>
<!-- wicker_behemoth -->
<g id="node4" class="node"><title>wicker_behemoth</title>
<g id="a_node4"><a xlink:href="magic_wicker_behemoth_full.html" xlink:title="Wicker\nBehemoth">
<polygon fill="none" stroke="red" points="1042.56,-464.496 978.946,-487.594 915.337,-464.496 915.396,-427.123 1042.5,-427.123 1042.56,-464.496"/>
<text text-anchor="middle" x="978.946" y="-457.967" font-family="Times,serif" font-size="14.00" fill="#ebc72d">Wicker</text>
<text text-anchor="middle" x="978.946" y="-442.967" font-family="Times,serif" font-size="14.00" fill="#ebc72d">Behemoth</text>
</a>
</g>
</g>
<!-- behemoth -->
<g id="node5" class="node"><title>behemoth</title>
<g id="a_node5"><a xlink:href="magic_behemoth_full.html" xlink:title="Behemoth">
<ellipse fill="none" stroke="magenta" cx="991.946" cy="-230.167" rx="47.3916" ry="18"/>
<text text-anchor="middle" x="991.946" y="-226.467" font-family="Times,serif" font-size="14.00" fill="#ebc72d">Behemoth</text>
</a>
</g>
</g>
<!-- wicker_behemoth&#45;&gt;behemoth -->
<g id="edge44" class="edge"><title>wicker_behemoth&#45;&gt;behemoth</title>
<path fill="none" stroke="#ebc72d" stroke-dasharray="5,2" d="M980.488,-426.828C982.974,-384.37 987.843,-301.223 990.358,-258.277"/>
<polygon fill="#ebc72d" stroke="#ebc72d" points="993.853,-258.461 990.944,-248.274 986.865,-258.052 993.853,-258.461"/>
</g>
<!-- library -->
<g id="node6" class="node"><title>library</title>
<g id="a_node6"><a xlink:href="magic_library_full.html" xlink:title="Library">
<polygon fill="none" stroke="red" points="877.531,-459.729 831.946,-472.167 786.36,-459.729 786.403,-439.604 877.489,-439.604 877.531,-459.729"/>
<text text-anchor="middle" x="831.946" y="-450.467" font-family="Times,serif" font-size="14.00" fill="#ebc72d">Library</text>
</a>
</g>
</g>
<!-- library&#45;&gt;golem -->
<g id="edge27" class="edge"><title>library&#45;&gt;golem</title>
<path fill="none" stroke="#ebc72d" stroke-dasharray="1,5" d="M786.114,-452.025C704.927,-448.593 531.792,-434.88 397.946,-380.167 387.24,-375.79 376.564,-368.941 367.63,-362.319"/>
<polygon fill="#ebc72d" stroke="#ebc72d" points="369.698,-359.494 359.652,-356.128 365.407,-365.024 369.698,-359.494"/>
</g>
<!-- archmage_tower -->
<g id="node7" class="node"><title>archmage_tower</title>
<g id="a_node7"><a xlink:href="magic_archmage_tower_full.html" xlink:title="Archmage\nTower">
<polygon fill="none" stroke="red" points="283.803,-352.496 218.946,-375.594 154.089,-352.496 154.149,-315.123 283.742,-315.123 283.803,-352.496"/>
<text text-anchor="middle" x="218.946" y="-345.967" font-family="Times,serif" font-size="14.00" fill="#ebc72d">Archmage</text>
<text text-anchor="middle" x="218.946" y="-330.967" font-family="Times,serif" font-size="14.00" fill="#ebc72d">Tower</text>
</a>
</g>
</g>
<!-- library&#45;&gt;archmage_tower -->
<g id="edge23" class="edge"><title>library&#45;&gt;archmage_tower</title>
<path fill="none" stroke="#ebc72d" stroke-dasharray="1,5" d="M786.147,-452.005C691.803,-448.525 469.811,-434.709 292.946,-380.167 282.856,-377.055 272.46,-372.68 262.764,-368.023"/>
<polygon fill="#ebc72d" stroke="#ebc72d" points="264.227,-364.841 253.716,-363.504 261.099,-371.104 264.227,-364.841"/>
</g>
<!-- draco_rider -->
<g id="node12" class="node"><title>draco_rider</title>
<g id="a_node12"><a xlink:href="magic_draco_rider_full.html" xlink:title="Draco\nRider">
<ellipse fill="none" stroke="magenta" cx="928.946" cy="-342.167" rx="35.2113" ry="26.7407"/>
<text text-anchor="middle" x="928.946" y="-345.967" font-family="Times,serif" font-size="14.00" fill="#ebc72d">Draco</text>
<text text-anchor="middle" x="928.946" y="-330.967" font-family="Times,serif" font-size="14.00" fill="#ebc72d">Rider</text>
</a>
</g>
</g>
<!-- library&#45;&gt;draco_rider -->
<g id="edge24" class="edge"><title>library&#45;&gt;draco_rider</title>
<path fill="none" stroke="#ebc72d" stroke-dasharray="1,5" d="M844.231,-439.235C858.942,-422.553 883.98,-394.159 903.031,-372.554"/>
<polygon fill="#ebc72d" stroke="#ebc72d" points="905.76,-374.751 909.749,-364.936 900.51,-370.121 905.76,-374.751"/>
</g>
<!-- tower_of_souls -->
<g id="node14" class="node"><title>tower_of_souls</title>
<g id="a_node14"><a xlink:href="magic_tower_of_souls_full.html" xlink:title="Tower\nOf Souls">
<polygon fill="none" stroke="red" points="1133.57,-352.496 1076.95,-375.594 1020.32,-352.496 1020.37,-315.123 1133.52,-315.123 1133.57,-352.496"/>
<text text-anchor="middle" x="1076.95" y="-345.967" font-family="Times,serif" font-size="14.00" fill="#ebc72d">Tower</text>
<text text-anchor="middle" x="1076.95" y="-330.967" font-family="Times,serif" font-size="14.00" fill="#ebc72d">Of Souls</text>
</a>
</g>
</g>
<!-- library&#45;&gt;tower_of_souls -->
<g id="edge29" class="edge"><title>library&#45;&gt;tower_of_souls</title>
<path fill="none" stroke="#ebc72d" stroke-dasharray="1,5" d="M858.13,-439.593C872.204,-432.42 889.913,-423.589 905.946,-416.167 946.511,-397.387 993.226,-377.564 1027.57,-363.321"/>
<polygon fill="#ebc72d" stroke="#ebc72d" points="1029.01,-366.514 1036.91,-359.458 1026.33,-360.045 1029.01,-366.514"/>
</g>
<!-- energy_compression -->
<g id="node23" class="node"><title>energy_compression</title>
<g id="a_node23"><a xlink:href="magic_energy_compression_full.html" xlink:title="Energy\nCompression">
<polygon fill="none" stroke="green" points="590.988,-380.167 444.569,-380.167 406.903,-304.167 553.322,-304.167 590.988,-380.167"/>
<text text-anchor="middle" x="498.946" y="-345.967" font-family="Times,serif" font-size="14.00" fill="#ebc72d">Energy</text>
<text text-anchor="middle" x="498.946" y="-330.967" font-family="Times,serif" font-size="14.00" fill="#ebc72d">Compression</text>
</a>
</g>
</g>
<!-- library&#45;&gt;energy_compression -->
<g id="edge25" class="edge"><title>library&#45;&gt;energy_compression</title>
<path fill="none" stroke="#ebc72d" d="M786.399,-439.517C739.472,-425.294 664.303,-402.067 599.946,-380.167 599.614,-380.054 599.282,-379.941 598.95,-379.827"/>
<polygon fill="#ebc72d" stroke="#ebc72d" points="599.773,-376.409 589.178,-376.457 597.49,-383.026 599.773,-376.409"/>
</g>
<!-- energy_sharpening -->
<g id="node25" class="node"><title>energy_sharpening</title>
<g id="a_node25"><a xlink:href="magic_energy_sharpening_full.html" xlink:title="Energy\nSharpening">
<polygon fill="none" stroke="green" points="770.68,-380.167 642.25,-380.167 609.212,-304.167 737.641,-304.167 770.68,-380.167"/>
<text text-anchor="middle" x="689.946" y="-345.967" font-family="Times,serif" font-size="14.00" fill="#ebc72d">Energy</text>
<text text-anchor="middle" x="689.946" y="-330.967" font-family="Times,serif" font-size="14.00" fill="#ebc72d">Sharpening</text>
</a>
</g>
</g>
<!-- library&#45;&gt;energy_sharpening -->
<g id="edge26" class="edge"><title>library&#45;&gt;energy_sharpening</title>
<path fill="none" stroke="#ebc72d" d="M814.249,-439.457C797.149,-426.211 770.328,-405.435 745.971,-386.566"/>
<polygon fill="#ebc72d" stroke="#ebc72d" points="747.871,-383.611 737.823,-380.254 743.585,-389.145 747.871,-383.611"/>
</g>
<!-- hell_gate -->
<g id="node26" class="node"><title>hell_gate</title>
<g id="a_node26"><a xlink:href="magic_hell_gate_full.html" xlink:title="Hell\nGate">
<polygon fill="none" stroke="green" points="875.533,-380.167 806.195,-380.167 788.358,-304.167 857.696,-304.167 875.533,-380.167"/>
<text text-anchor="middle" x="831.946" y="-345.967" font-family="Times,serif" font-size="14.00" fill="#ebc72d">Hell</text>
<text text-anchor="middle" x="831.946" y="-330.967" font-family="Times,serif" font-size="14.00" fill="#ebc72d">Gate</text>
</a>
</g>
</g>
<!-- library&#45;&gt;hell_gate -->
<g id="edge28" class="edge"><title>library&#45;&gt;hell_gate</title>
<path fill="none" stroke="#ebc72d" d="M831.946,-439.235C831.946,-426.96 831.946,-408.344 831.946,-390.758"/>
<polygon fill="#ebc72d" stroke="#ebc72d" points="835.446,-390.578 831.946,-380.578 828.446,-390.578 835.446,-390.578"/>
</g>
<!-- archmage_tower&#45;&gt;archmage -->
<g id="edge2" class="edge"><title>archmage_tower&#45;&gt;archmage</title>
<path fill="none" stroke="#ebc72d" stroke-dasharray="1,5" d="M196.669,-315.098C181.133,-296.917 160.557,-272.839 145.429,-255.137"/>
<polygon fill="#ebc72d" stroke="#ebc72d" points="148.057,-252.824 138.9,-247.496 142.735,-257.372 148.057,-252.824"/>
</g>
<!-- dragon_call -->
<g id="node20" class="node"><title>dragon_call</title>
<g id="a_node20"><a xlink:href="magic_dragon_call_full.html" xlink:title="Dragon\nCall">
<polygon fill="none" stroke="green" points="477.136,-268.167 382.978,-268.167 358.756,-192.167 452.914,-192.167 477.136,-268.167"/>
<text text-anchor="middle" x="417.946" y="-233.967" font-family="Times,serif" font-size="14.00" fill="#ebc72d">Dragon</text>
<text text-anchor="middle" x="417.946" y="-218.967" font-family="Times,serif" font-size="14.00" fill="#ebc72d">Call</text>
</a>
</g>
</g>
<!-- archmage_tower&#45;&gt;dragon_call -->
<g id="edge3" class="edge"><title>archmage_tower&#45;&gt;dragon_call</title>
<path fill="none" stroke="#ebc72d" d="M266.106,-315.098C297.175,-297.924 337.762,-275.489 369.156,-258.136"/>
<polygon fill="#ebc72d" stroke="#ebc72d" points="371.108,-261.056 378.167,-253.155 367.721,-254.93 371.108,-261.056"/>
</g>
<!-- golem_power -->
<g id="node21" class="node"><title>golem_power</title>
<g id="a_node21"><a xlink:href="magic_golem_power_full.html" xlink:title="Golem\nPower">
<polygon fill="none" stroke="green" points="302.915,-268.167 213.88,-268.167 190.976,-192.167 280.011,-192.167 302.915,-268.167"/>
<text text-anchor="middle" x="246.946" y="-233.967" font-family="Times,serif" font-size="14.00" fill="#ebc72d">Golem</text>
<text text-anchor="middle" x="246.946" y="-218.967" font-family="Times,serif" font-size="14.00" fill="#ebc72d">Power</text>
</a>
</g>
</g>
<!-- archmage_tower&#45;&gt;golem_power -->
<g id="edge4" class="edge"><title>archmage_tower&#45;&gt;golem_power</title>
<path fill="none" stroke="#ebc72d" d="M225.581,-315.098C228.389,-304.069 231.748,-290.871 234.963,-278.242"/>
<polygon fill="#ebc72d" stroke="#ebc72d" points="238.422,-278.842 237.497,-268.288 231.638,-277.115 238.422,-278.842"/>
</g>
<!-- initiate -->
<g id="node8" class="node"><title>initiate</title>
<g id="a_node8"><a xlink:href="magic_initiate_full.html" xlink:title="Initiate">
<ellipse fill="none" stroke="magenta" cx="380.946" cy="-648.593" rx="35.9954" ry="18"/>
<text text-anchor="middle" x="380.946" y="-644.893" font-family="Times,serif" font-size="14.00" fill="#ebc72d">Initiate</text>
</a>
</g>
</g>
<!-- initiate&#45;&gt;golem -->
<g id="edge17" class="edge"><title>initiate&#45;&gt;golem</title>
<path fill="none" stroke="#ebc72d" stroke-width="2" d="M344.946,-453.167C337.668,-425.384 338.941,-392.281 341.23,-369.697"/>
<polygon fill="#ebc72d" stroke="#ebc72d" stroke-width="2" points="344.734,-369.86 342.402,-359.525 337.78,-369.059 344.734,-369.86"/>
</g>
<!-- initiate&#45;&gt;wicker_behemoth -->
<g id="edge22" class="edge"><title>initiate&#45;&gt;wicker_behemoth</title>
<path fill="none" stroke="#ebc72d" stroke-width="2" d="M1064.95,-560.38C1075.91,-528.994 1048.74,-500.28 1022.1,-480.807"/>
<polygon fill="#ebc72d" stroke="#ebc72d" stroke-width="2" points="1024.1,-477.93 1013.9,-475.068 1020.09,-483.667 1024.1,-477.93"/>
</g>
<!-- initiate&#45;&gt;library -->
<g id="edge18" class="edge"><title>initiate&#45;&gt;library</title>
<path fill="none" stroke="#ebc72d" stroke-width="2" d="M416.902,-646.684C554.801,-642.746 1043.26,-624.444 1064.95,-562.38"/>
<path fill="none" stroke="#ebc72d" stroke-width="2" d="M1064.95,-560.38C1090.31,-487.787 975.697,-524.533 905.946,-492.167 891.582,-485.501 875.866,-477.715 862.627,-471.01"/>
<polygon fill="#ebc72d" stroke="#ebc72d" stroke-width="2" points="863.978,-467.77 853.479,-466.349 860.8,-474.007 863.978,-467.77"/>
</g>
<!-- initiate&#45;&gt;archmage_tower -->
<g id="edge14" class="edge"><title>initiate&#45;&gt;archmage_tower</title>
<path fill="none" stroke="#ebc72d" stroke-width="2" d="M374.663,-630.618C371.063,-620.32 366.723,-606.844 363.946,-594.593 350.12,-533.6 360.794,-515.665 344.946,-455.167"/>
<path fill="none" stroke="#ebc72d" stroke-width="2" d="M344.946,-453.167C332.092,-415.106 296.334,-386.057 266.18,-367.396"/>
<polygon fill="#ebc72d" stroke="#ebc72d" stroke-width="2" points="267.822,-364.299 257.442,-362.174 264.231,-370.308 267.822,-364.299"/>
</g>
<!-- mage_tower -->
<g id="node10" class="node"><title>mage_tower</title>
<g id="a_node10"><a xlink:href="magic_mage_tower_full.html" xlink:title="Mage\nTower">
<polygon fill="none" stroke="red" points="463.345,-571.71 417.946,-594.808 372.546,-571.71 372.589,-534.336 463.303,-534.336 463.345,-571.71"/>
<text text-anchor="middle" x="417.946" y="-565.18" font-family="Times,serif" font-size="14.00" fill="#ebc72d">Mage</text>
<text text-anchor="middle" x="417.946" y="-550.18" font-family="Times,serif" font-size="14.00" fill="#ebc72d">Tower</text>
</a>
</g>
</g>
<!-- initiate&#45;&gt;mage_tower -->
<g id="edge19" class="edge"><title>initiate&#45;&gt;mage_tower</title>
<path fill="none" stroke="#ebc72d" stroke-width="2" d="M392.273,-621.507C395.43,-614.235 398.918,-606.203 402.277,-598.465"/>
<polygon fill="#ebc72d" stroke="#ebc72d" stroke-width="2" points="389.028,-620.191 388.256,-630.758 395.449,-622.979 389.028,-620.191"/>
<polygon fill="#ebc72d" stroke="#ebc72d" stroke-width="2" points="405.509,-599.81 406.282,-589.243 399.088,-597.022 405.509,-599.81"/>
</g>
<!-- energy_source -->
<g id="node11" class="node"><title>energy_source</title>
<g id="a_node11"><a xlink:href="magic_energy_source_full.html" xlink:title="Energy\nSource">
<polygon fill="none" stroke="red" points="97.8374,-352.496 48.9458,-375.594 0.0541453,-352.496 0.0997798,-315.123 97.7918,-315.123 97.8374,-352.496"/>
<text text-anchor="middle" x="48.9458" y="-345.967" font-family="Times,serif" font-size="14.00" fill="#ebc72d">Energy</text>
<text text-anchor="middle" x="48.9458" y="-330.967" font-family="Times,serif" font-size="14.00" fill="#ebc72d">Source</text>
</a>
</g>
</g>
<!-- initiate&#45;&gt;energy_source -->
<g id="edge16" class="edge"><title>initiate&#45;&gt;energy_source</title>
<path fill="none" stroke="#ebc72d" stroke-width="2" d="M346.466,-643.769C288.906,-636.75 176.615,-620.143 146.946,-594.593 83.9494,-540.343 61.1998,-440.492 53.1701,-384.327"/>
<polygon fill="#ebc72d" stroke="#ebc72d" stroke-width="2" points="56.633,-383.816 51.8357,-374.369 49.695,-384.746 56.633,-383.816"/>
</g>
<!-- initiate&#45;&gt;tower_of_souls -->
<g id="edge21" class="edge"><title>initiate&#45;&gt;tower_of_souls</title>
<path fill="none" stroke="#ebc72d" stroke-width="2" d="M1064.95,-560.38C1085.36,-501.954 1084.55,-429.328 1081.33,-384.619"/>
<polygon fill="#ebc72d" stroke="#ebc72d" stroke-width="2" points="1084.8,-384.116 1080.52,-374.426 1077.83,-384.672 1084.8,-384.116"/>
</g>
<!-- summoner_guild -->
<g id="node16" class="node"><title>summoner_guild</title>
<g id="a_node16"><a xlink:href="magic_summoner_guild_full.html" xlink:title="Summoner\nGuild">
<polygon fill="none" stroke="red" points="1227.05,-571.71 1159.95,-594.808 1092.84,-571.71 1092.91,-534.336 1226.98,-534.336 1227.05,-571.71"/>
<text text-anchor="middle" x="1159.95" y="-565.18" font-family="Times,serif" font-size="14.00" fill="#ebc72d">Summoner</text>
<text text-anchor="middle" x="1159.95" y="-550.18" font-family="Times,serif" font-size="14.00" fill="#ebc72d">Guild</text>
</a>
</g>
</g>
<!-- initiate&#45;&gt;summoner_guild -->
<g id="edge20" class="edge"><title>initiate&#45;&gt;summoner_guild</title>
<path fill="none" stroke="#ebc72d" stroke-width="2" d="M416.516,-646.313C540.172,-641.642 950.77,-624.22 1078.95,-594.593 1089.34,-592.191 1100.15,-588.67 1110.36,-584.828"/>
<polygon fill="#ebc72d" stroke="#ebc72d" stroke-width="2" points="1111.9,-587.984 1119.93,-581.073 1109.34,-581.468 1111.9,-587.984"/>
</g>
<!-- battlemage -->
<g id="node17" class="node"><title>battlemage</title>
<g id="a_node17"><a xlink:href="magic_battlemage_full.html" xlink:title="Battlemage">
<ellipse fill="none" stroke="magenta" cx="206.946" cy="-561.38" rx="51.1914" ry="18"/>
<text text-anchor="middle" x="206.946" y="-557.68" font-family="Times,serif" font-size="14.00" fill="#ebc72d">Battlemage</text>
</a>
</g>
</g>
<!-- initiate&#45;&gt;battlemage -->
<g id="edge15" class="edge"><title>initiate&#45;&gt;battlemage</title>
<path fill="none" stroke="#ebc72d" stroke-dasharray="5,2" d="M356.016,-635.384C326.898,-621.124 278.424,-597.385 244.688,-580.863"/>
<polygon fill="#ebc72d" stroke="#ebc72d" points="246.112,-577.663 235.592,-576.408 243.033,-583.95 246.112,-577.663"/>
</g>
<!-- ghost_armor -->
<g id="node9" class="node"><title>ghost_armor</title>
<g id="a_node9"><a xlink:href="magic_ghost_armor_full.html" xlink:title="Ghost\nArmor">
<ellipse fill="none" stroke="magenta" cx="1364.95" cy="-342.167" rx="37.4533" ry="26.7407"/>
<text text-anchor="middle" x="1364.95" y="-345.967" font-family="Times,serif" font-size="14.00" fill="#ebc72d">Ghost</text>
<text text-anchor="middle" x="1364.95" y="-330.967" font-family="Times,serif" font-size="14.00" fill="#ebc72d">Armor</text>
</a>
</g>
</g>
<!-- energy_source&#45;&gt;archmage -->
<g id="edge8" class="edge"><title>energy_source&#45;&gt;archmage</title>
<path fill="none" stroke="#ebc72d" stroke-dasharray="1,5" d="M66.9567,-315.098C79.2172,-297.353 95.3585,-273.99 107.498,-256.42"/>
<polygon fill="#ebc72d" stroke="#ebc72d" points="110.634,-258.038 113.439,-247.821 104.875,-254.059 110.634,-258.038"/>
</g>
<!-- energy_source&#45;&gt;evil_dragon -->
<g id="edge9" class="edge"><title>energy_source&#45;&gt;evil_dragon</title>
<path fill="none" stroke="#ebc72d" stroke-dasharray="1,5" d="M47.297,-314.939C46.4429,-283.98 48.4919,-231.711 67.9458,-192.167 97.4757,-132.14 157.775,-81.065 196.725,-52.4516"/>
<polygon fill="#ebc72d" stroke="#ebc72d" points="199.115,-55.0427 205.173,-46.3508 195.017,-49.3677 199.115,-55.0427"/>
</g>
<!-- daemon -->
<g id="node13" class="node"><title>daemon</title>
<g id="a_node13"><a xlink:href="magic_daemon_full.html" xlink:title="Daemon">
<ellipse fill="none" stroke="magenta" cx="1230.95" cy="-342.167" rx="40.8928" ry="18"/>
<text text-anchor="middle" x="1230.95" y="-338.467" font-family="Times,serif" font-size="14.00" fill="#ebc72d">Daemon</text>
</a>
</g>
</g>
<!-- summoner_guild&#45;&gt;wicker_behemoth -->
<g id="edge43" class="edge"><title>summoner_guild&#45;&gt;wicker_behemoth</title>
<path fill="none" stroke="#ebc72d" stroke-dasharray="1,5" d="M1114.74,-534.101C1086.39,-517.625 1050.06,-496.506 1022.11,-480.259"/>
<polygon fill="#ebc72d" stroke="#ebc72d" points="1023.76,-477.167 1013.35,-475.167 1020.24,-483.219 1023.76,-477.167"/>
</g>
<!-- summoner_guild&#45;&gt;library -->
<g id="edge41" class="edge"><title>summoner_guild&#45;&gt;library</title>
<path fill="none" stroke="#ebc72d" stroke-dasharray="1,5" d="M1097.53,-534.317C1091.3,-532.091 1085.03,-529.995 1078.95,-528.167 1003.73,-505.571 980.131,-517.943 905.946,-492.167 890.551,-486.818 874.267,-478.942 860.905,-471.83"/>
<polygon fill="#ebc72d" stroke="#ebc72d" points="862.202,-468.551 851.747,-466.834 858.849,-474.696 862.202,-468.551"/>
</g>
<!-- summoner -->
<g id="node18" class="node"><title>summoner</title>
<g id="a_node18"><a xlink:href="magic_summoner_full.html" xlink:title="Summoner">
<ellipse fill="none" stroke="magenta" cx="1159.95" cy="-454.167" rx="50.0912" ry="18"/>
<text text-anchor="middle" x="1159.95" y="-450.467" font-family="Times,serif" font-size="14.00" fill="#ebc72d">Summoner</text>
</a>
</g>
</g>
<!-- summoner_guild&#45;&gt;summoner -->
<g id="edge42" class="edge"><title>summoner_guild&#45;&gt;summoner</title>
<path fill="none" stroke="#ebc72d" d="M1159.95,-534.101C1159.95,-518.375 1159.95,-498.419 1159.95,-482.508"/>
<polygon fill="#ebc72d" stroke="#ebc72d" points="1163.45,-482.24 1159.95,-472.24 1156.45,-482.24 1163.45,-482.24"/>
</g>
<!-- faster_movement -->
<g id="node22" class="node"><title>faster_movement</title>
<g id="a_node22"><a xlink:href="magic_faster_movement_full.html" xlink:title="Faster\nMovement">
<polygon fill="none" stroke="green" points="1271.61,-268.167 1144.88,-268.167 1112.29,-192.167 1239.01,-192.167 1271.61,-268.167"/>
<text text-anchor="middle" x="1191.95" y="-233.967" font-family="Times,serif" font-size="14.00" fill="#ebc72d">Faster</text>
<text text-anchor="middle" x="1191.95" y="-218.967" font-family="Times,serif" font-size="14.00" fill="#ebc72d">Movement</text>
</a>
</g>
</g>
<!-- summoner_guild&#45;&gt;faster_movement -->
<g id="edge40" class="edge"><title>summoner_guild&#45;&gt;faster_movement</title>
<path fill="none" stroke="#ebc72d" d="M1227.02,-551.393C1293.53,-540.943 1388.66,-521.314 1410.95,-492.167 1461.69,-425.787 1459.8,-371.95 1410.95,-304.167 1378.33,-258.921 1316.46,-241.295 1266.78,-234.631"/>
<polygon fill="#ebc72d" stroke="#ebc72d" points="1267.05,-231.137 1256.7,-233.404 1266.2,-238.086 1267.05,-231.137"/>
</g>
<!-- ancient_summoning -->
<g id="node24" class="node"><title>ancient_summoning</title>
<g id="a_node24"><a xlink:href="magic_ancient_summoning_full.html" xlink:title="Ancient\nSummoning">
<polygon fill="none" stroke="green" points="1402.12,-492.167 1263.45,-492.167 1227.77,-416.167 1366.45,-416.167 1402.12,-492.167"/>
<text text-anchor="middle" x="1314.95" y="-457.967" font-family="Times,serif" font-size="14.00" fill="#ebc72d">Ancient</text>
<text text-anchor="middle" x="1314.95" y="-442.967" font-family="Times,serif" font-size="14.00" fill="#ebc72d">Summoning</text>
</a>
</g>
</g>
<!-- summoner_guild&#45;&gt;ancient_summoning -->
<g id="edge39" class="edge"><title>summoner_guild&#45;&gt;ancient_summoning</title>
<path fill="none" stroke="#ebc72d" d="M1198.66,-534.101C1215.45,-522.7 1235.53,-509.077 1254.23,-496.382"/>
<polygon fill="#ebc72d" stroke="#ebc72d" points="1256.4,-499.139 1262.71,-490.627 1252.47,-493.347 1256.4,-499.139"/>
</g>
<!-- battlemage&#45;&gt;archmage -->
<g id="edge5" class="edge"><title>battlemage&#45;&gt;archmage</title>
<path fill="none" stroke="#ebc72d" stroke-dasharray="5,2" d="M199.799,-543.319C186.849,-511.712 159.5,-441.664 144.946,-380.167 135.042,-338.319 129.602,-288.617 126.982,-258.506"/>
<polygon fill="#ebc72d" stroke="#ebc72d" points="130.454,-258.027 126.142,-248.35 123.478,-258.604 130.454,-258.027"/>
</g>
<!-- summoner&#45;&gt;golem -->
<g id="edge37" class="edge"><title>summoner&#45;&gt;golem</title>
<path fill="none" stroke="#ebc72d" stroke-dasharray="1,5" d="M1128.91,-439.982C1107.65,-431.593 1078.6,-421.362 1051.95,-416.167 909.082,-388.317 535.54,-427.638 397.946,-380.167 386.852,-376.339 375.977,-369.464 366.994,-362.67"/>
<polygon fill="#ebc72d" stroke="#ebc72d" points="369.01,-359.801 359.016,-356.284 364.635,-365.265 369.01,-359.801"/>
</g>
<!-- summoner&#45;&gt;behemoth -->
<g id="edge31" class="edge"><title>summoner&#45;&gt;behemoth</title>
<path fill="none" stroke="#ebc72d" stroke-dasharray="1,5" d="M1162.91,-436.138C1167.12,-406.388 1171.42,-344.3 1142.95,-304.167 1119.41,-270.988 1076.59,-252.281 1042.54,-242.132"/>
<polygon fill="#ebc72d" stroke="#ebc72d" points="1043.32,-238.715 1032.74,-239.372 1041.42,-245.453 1043.32,-238.715"/>
</g>
<!-- summoner&#45;&gt;ghost_armor -->
<g id="edge36" class="edge"><title>summoner&#45;&gt;ghost_armor</title>
<path fill="none" stroke="#ebc72d" d="M1182.03,-437.855C1192.87,-430.731 1206.28,-422.462 1218.95,-416.167 1259.38,-396.074 1274.21,-401.612 1313.95,-380.167 1320.09,-376.85 1326.34,-372.888 1332.26,-368.807"/>
<polygon fill="#ebc72d" stroke="#ebc72d" points="1334.56,-371.47 1340.65,-362.806 1330.48,-365.776 1334.56,-371.47"/>
</g>
<!-- summoner&#45;&gt;draco_rider -->
<g id="edge33" class="edge"><title>summoner&#45;&gt;draco_rider</title>
<path fill="none" stroke="#ebc72d" stroke-dasharray="5,2" d="M1130.69,-439.235C1089.23,-419.494 1013.34,-383.353 967.38,-361.468"/>
<polygon fill="#ebc72d" stroke="#ebc72d" points="968.862,-358.298 958.328,-357.158 965.852,-364.618 968.862,-358.298"/>
</g>
<!-- summoner&#45;&gt;daemon -->
<g id="edge32" class="edge"><title>summoner&#45;&gt;daemon</title>
<path fill="none" stroke="#ebc72d" d="M1170.73,-436.46C1182.42,-418.345 1201.21,-389.229 1214.7,-368.34"/>
<polygon fill="#ebc72d" stroke="#ebc72d" points="1217.81,-369.97 1220.29,-359.67 1211.93,-366.174 1217.81,-369.97"/>
</g>
<!-- summoner&#45;&gt;tower_of_souls -->
<g id="edge38" class="edge"><title>summoner&#45;&gt;tower_of_souls</title>
<path fill="none" stroke="#ebc72d" stroke-dasharray="1,5" d="M1147.34,-436.46C1135.36,-420.578 1116.99,-396.239 1102.02,-376.403"/>
<polygon fill="#ebc72d" stroke="#ebc72d" points="1104.66,-374.09 1095.85,-368.215 1099.08,-378.306 1104.66,-374.09"/>
</g>
<!-- dragon -->
<g id="node19" class="node"><title>dragon</title>
<g id="a_node19"><a xlink:href="magic_dragon_full.html" xlink:title="Dragon">
<ellipse fill="none" stroke="magenta" cx="417.946" cy="-122.953" rx="37.0935" ry="18"/>
<text text-anchor="middle" x="417.946" y="-119.253" font-family="Times,serif" font-size="14.00" fill="#ebc72d">Dragon</text>
</a>
</g>
</g>
<!-- summoner&#45;&gt;dragon -->
<g id="edge34" class="edge"><title>summoner&#45;&gt;dragon</title>
<path fill="none" stroke="#ebc72d" d="M1299.95,-341.167C1314.74,-276.067 1329.27,-238.227 1280.95,-192.167 1221.64,-135.637 637.213,-125.918 465.286,-124.279"/>
<polygon fill="#ebc72d" stroke="#ebc72d" points="465.069,-120.777 455.038,-124.186 465.006,-127.777 465.069,-120.777"/>
</g>
<!-- summoner&#45;&gt;faster_movement -->
<g id="edge35" class="edge"><title>summoner&#45;&gt;faster_movement</title>
<path fill="none" stroke="#ebc72d" stroke-dasharray="1,5" d="M1183.37,-438.218C1194.16,-431.406 1207.15,-423.29 1218.95,-416.167 1246.22,-399.7 1259,-403.272 1280.95,-380.167 1293.68,-366.762 1295.85,-361.193 1299.95,-343.167"/>
<path fill="none" stroke="#ebc72d" stroke-dasharray="1,5" d="M1299.95,-341.167C1305.91,-314.901 1290.5,-292.287 1269.59,-274.512"/>
<polygon fill="#ebc72d" stroke="#ebc72d" points="1271.66,-271.69 1261.67,-268.184 1267.3,-277.16 1271.66,-271.69"/>
</g>
<!-- dragon&#45;&gt;evil_dragon -->
<g id="edge6" class="edge"><title>dragon&#45;&gt;evil_dragon</title>
<path fill="none" stroke="#ebc72d" stroke-dasharray="5,2" d="M393.379,-109.46C362.753,-93.8847 309.984,-67.0485 273.367,-48.4264"/>
<polygon fill="#ebc72d" stroke="#ebc72d" points="274.929,-45.2942 264.428,-43.8808 271.755,-51.5337 274.929,-45.2942"/>
</g>
<!-- dragon_call&#45;&gt;dragon -->
<g id="edge7" class="edge"><title>dragon_call&#45;&gt;dragon</title>
<path fill="none" stroke="#ebc72d" stroke-dasharray="1,5" d="M417.946,-192.072C417.946,-178.619 417.946,-163.68 417.946,-151.227"/>
<polygon fill="#ebc72d" stroke="#ebc72d" points="421.446,-151.025 417.946,-141.025 414.446,-151.025 421.446,-151.025"/>
</g>
<!-- golem_power&#45;&gt;power_golem -->
<g id="edge11" class="edge"><title>golem_power&#45;&gt;power_golem</title>
<path fill="none" stroke="#ebc72d" stroke-dasharray="1,5" d="M258.933,-192.072C262.116,-182.222 265.557,-171.574 268.751,-161.69"/>
<polygon fill="#ebc72d" stroke="#ebc72d" points="272.1,-162.709 271.845,-152.117 265.439,-160.556 272.1,-162.709"/>
</g>
<!-- ancient_summoning&#45;&gt;ghost_armor -->
<g id="edge1" class="edge"><title>ancient_summoning&#45;&gt;ghost_armor</title>
<path fill="none" stroke="#ebc72d" stroke-dasharray="1,5" d="M1331.87,-415.926C1337.55,-403.434 1343.85,-389.573 1349.42,-377.329"/>
<polygon fill="#ebc72d" stroke="#ebc72d" points="1352.75,-378.465 1353.7,-367.913 1346.37,-375.568 1352.75,-378.465"/>
</g>
<!-- hell_gate&#45;&gt;behemoth -->
<g id="edge12" class="edge"><title>hell_gate&#45;&gt;behemoth</title>
<path fill="none" stroke="#ebc72d" stroke-dasharray="1,5" d="M861.62,-320.367C869.213,-315.068 877.372,-309.393 884.946,-304.167 910.647,-286.429 939.95,-266.454 961.385,-251.889"/>
<polygon fill="#ebc72d" stroke="#ebc72d" points="963.46,-254.711 969.766,-246.197 959.527,-248.92 963.46,-254.711"/>
</g>
<!-- hell_gate&#45;&gt;faster_movement -->
<g id="edge13" class="edge"><title>hell_gate&#45;&gt;faster_movement</title>
<path fill="none" stroke="#ebc72d" stroke-dasharray="1,5" d="M860.996,-317.862C868.466,-312.739 876.725,-307.773 884.946,-304.167 952.886,-274.361 975.785,-285.401 1047.95,-268.167 1073.32,-262.106 1101.11,-255.064 1125.44,-248.759"/>
<polygon fill="#ebc72d" stroke="#ebc72d" points="1126.49,-252.103 1135.29,-246.2 1124.73,-245.328 1126.49,-252.103"/>
</g>
</g>
</svg>
