<?xml version="1.0" encoding="UTF-8" standalone="no"?>
<!DOCTYPE svg PUBLIC "-//W3C//DTD SVG 1.1//EN"
 "http://www.w3.org/Graphics/SVG/1.1/DTD/svg11.dtd">
<!-- Generated by graphviz version 2.38.0 (20140413.2041)
 -->
<!-- Title: test Pages: 1 -->
<svg width="405pt" height="484pt"
 viewBox="0.00 0.00 404.62 484.13" xmlns="http://www.w3.org/2000/svg" xmlns:xlink="http://www.w3.org/1999/xlink">
<g id="graph0" class="graph" transform="scale(1 1) rotate(0) translate(4 480.132)">
<title>test</title>
<polygon fill="#151515" stroke="none" points="-4,4 -4,-480.132 400.616,-480.132 400.616,4 -4,4"/>
<!-- golem -->
<g id="node1" class="node"><title>golem</title>
<g id="a_node1"><a xlink:href="magic_golem_full.html" xlink:title="Golem">
<polygon fill="none" stroke="red" points="265.069,-141.202 221.804,-153.64 178.54,-141.202 178.58,-121.077 265.029,-121.077 265.069,-141.202"/>
<text text-anchor="middle" x="221.804" y="-131.94" font-family="Times,serif" font-size="14.00" fill="#ebc72d">Golem</text>
</a>
</g>
</g>
<!-- wicker_behemoth -->
<g id="node2" class="node"><title>wicker_behemoth</title>
<g id="a_node2"><a xlink:href="magic_wicker_behemoth_full.html" xlink:title="Wicker\nBehemoth">
<polygon fill="none" stroke="red" points="127.414,-248.396 63.8043,-271.494 0.195062,-248.396 0.254434,-211.022 127.354,-211.022 127.414,-248.396"/>
<text text-anchor="middle" x="63.8043" y="-241.866" font-family="Times,serif" font-size="14.00" fill="#ebc72d">Wicker</text>
<text text-anchor="middle" x="63.8043" y="-226.866" font-family="Times,serif" font-size="14.00" fill="#ebc72d">Behemoth</text>
</a>
</g>
</g>
<!-- library -->
<g id="node3" class="node"><title>library</title>
<g id="a_node3"><a xlink:href="magic_library_full.html" xlink:title="Library">
<polygon fill="none" stroke="red" points="267.39,-243.628 221.804,-256.066 176.219,-243.628 176.261,-223.504 267.347,-223.504 267.39,-243.628"/>
<text text-anchor="middle" x="221.804" y="-234.366" font-family="Times,serif" font-size="14.00" fill="#ebc72d">Library</text>
</a>
</g>
</g>
<!-- library&#45;&gt;golem -->
<g id="edge3" class="edge"><title>library&#45;&gt;golem</title>
<path fill="none" stroke="#ebc72d" stroke-dasharray="1,5" d="M221.804,-223.102C221.804,-207.894 221.804,-183.185 221.804,-164.068"/>
<polygon fill="#ebc72d" stroke="#ebc72d" points="225.304,-163.846 221.804,-153.846 218.304,-163.847 225.304,-163.846"/>
</g>
<!-- archmage_tower -->
<g id="node4" class="node"><title>archmage_tower</title>
<g id="a_node4"><a xlink:href="magic_archmage_tower_full.html" xlink:title="Archmage\nTower">
<polygon fill="none" stroke="red" points="160.662,-145.969 95.8043,-169.067 30.9471,-145.969 31.0076,-108.596 160.601,-108.596 160.662,-145.969"/>
<text text-anchor="middle" x="95.8043" y="-139.44" font-family="Times,serif" font-size="14.00" fill="#ebc72d">Archmage</text>
<text text-anchor="middle" x="95.8043" y="-124.44" font-family="Times,serif" font-size="14.00" fill="#ebc72d">Tower</text>
</a>
</g>
</g>
<!-- library&#45;&gt;archmage_tower -->
<g id="edge2" class="edge"><title>library&#45;&gt;archmage_tower</title>
<path fill="none" stroke="#ebc72d" stroke-dasharray="1,5" d="M204.549,-223.313C185.898,-208.448 155.643,-184.333 131.775,-165.309"/>
<polygon fill="#ebc72d" stroke="#ebc72d" points="133.953,-162.57 123.951,-159.074 129.59,-168.044 133.953,-162.57"/>
</g>
<!-- tower_of_souls -->
<g id="node7" class="node"><title>tower_of_souls</title>
<g id="a_node7"><a xlink:href="magic_tower_of_souls_full.html" xlink:title="Tower\nOf Souls">
<polygon fill="none" stroke="red" points="396.429,-145.969 339.804,-169.067 283.18,-145.969 283.232,-108.596 396.376,-108.596 396.429,-145.969"/>
<text text-anchor="middle" x="339.804" y="-139.44" font-family="Times,serif" font-size="14.00" fill="#ebc72d">Tower</text>
<text text-anchor="middle" x="339.804" y="-124.44" font-family="Times,serif" font-size="14.00" fill="#ebc72d">Of Souls</text>
</a>
</g>
</g>
<!-- library&#45;&gt;tower_of_souls -->
<g id="edge4" class="edge"><title>library&#45;&gt;tower_of_souls</title>
<path fill="none" stroke="#ebc72d" stroke-dasharray="1,5" d="M238.212,-223.102C255.696,-208.222 283.865,-184.248 306.112,-165.315"/>
<polygon fill="#ebc72d" stroke="#ebc72d" points="308.662,-167.74 314.009,-158.593 304.125,-162.409 308.662,-167.74"/>
</g>
<!-- power_golem -->
<g id="node8" class="node"><title>power_golem</title>
<g id="a_node8"><a xlink:href="magic_power_golem_full.html" xlink:title="Power\nGolem">
<polygon fill="none" stroke="red" points="143.201,-43.543 95.8043,-66.641 48.408,-43.543 48.4523,-6.16955 143.156,-6.16955 143.201,-43.543"/>
<text text-anchor="middle" x="95.8043" y="-37.0132" font-family="Times,serif" font-size="14.00" fill="#ebc72d">Power</text>
<text text-anchor="middle" x="95.8043" y="-22.0132" font-family="Times,serif" font-size="14.00" fill="#ebc72d">Golem</text>
</a>
</g>
</g>
<!-- archmage_tower&#45;&gt;power_golem -->
<g id="edge1" class="edge"><title>archmage_tower&#45;&gt;power_golem</title>
<path fill="none" stroke="#ebc72d" stroke-dasharray="1,5" d="M95.8043,-108.516C95.8043,-98.8268 95.8043,-87.5693 95.8043,-76.7922"/>
<polygon fill="#ebc72d" stroke="#ebc72d" points="99.3044,-76.6736 95.8043,-66.6736 92.3044,-76.6737 99.3044,-76.6736"/>
</g>
<!-- mage_tower -->
<g id="node5" class="node"><title>mage_tower</title>
<g id="a_node5"><a xlink:href="magic_mage_tower_full.html" xlink:title="Mage\nTower">
<polygon fill="none" stroke="red" points="241.204,-453.249 195.804,-476.347 150.405,-453.249 150.447,-415.875 241.161,-415.875 241.204,-453.249"/>
<text text-anchor="middle" x="195.804" y="-446.719" font-family="Times,serif" font-size="14.00" fill="#ebc72d">Mage</text>
<text text-anchor="middle" x="195.804" y="-431.719" font-family="Times,serif" font-size="14.00" fill="#ebc72d">Tower</text>
</a>
</g>
</g>
<!-- mage_tower&#45;&gt;wicker_behemoth -->
<g id="edge9" class="edge"><title>mage_tower&#45;&gt;wicker_behemoth</title>
<path fill="none" stroke="#ebc72d" stroke-dasharray="1,5" d="M150.123,-433.501C116.84,-424.721 74.0132,-407.321 52.8043,-373.706 34.7251,-345.051 40.554,-305.86 49.0648,-277.15"/>
<polygon fill="#ebc72d" stroke="#ebc72d" points="52.4491,-278.057 52.1521,-267.466 45.7798,-275.93 52.4491,-278.057"/>
</g>
<!-- mage_tower&#45;&gt;library -->
<g id="edge6" class="edge"><title>mage_tower&#45;&gt;library</title>
<path fill="none" stroke="#ebc72d" stroke-dasharray="1,5" d="M241.4,-428.635C279.715,-414.377 329.792,-387.35 339.804,-341.493"/>
<path fill="none" stroke="#ebc72d" stroke-dasharray="1,5" d="M339.804,-339.493C349.181,-296.548 298.515,-267.511 260.634,-252.124"/>
<polygon fill="#ebc72d" stroke="#ebc72d" points="261.426,-248.677 250.837,-248.325 258.896,-255.203 261.426,-248.677"/>
</g>
<!-- energy_source -->
<g id="node6" class="node"><title>energy_source</title>
<g id="a_node6"><a xlink:href="magic_energy_source_full.html" xlink:title="Energy\nSource">
<polygon fill="none" stroke="red" points="311.696,-350.822 262.804,-373.92 213.913,-350.822 213.958,-313.449 311.65,-313.449 311.696,-350.822"/>
<text text-anchor="middle" x="262.804" y="-344.293" font-family="Times,serif" font-size="14.00" fill="#ebc72d">Energy</text>
<text text-anchor="middle" x="262.804" y="-329.293" font-family="Times,serif" font-size="14.00" fill="#ebc72d">Source</text>
</a>
</g>
</g>
<!-- mage_tower&#45;&gt;energy_source -->
<g id="edge5" class="edge"><title>mage_tower&#45;&gt;energy_source</title>
<path fill="none" stroke="#ebc72d" stroke-dasharray="1,5" d="M213.233,-415.795C221.566,-403.305 231.638,-388.208 240.521,-374.894"/>
<polygon fill="#ebc72d" stroke="#ebc72d" points="243.517,-376.708 246.156,-366.447 237.694,-372.823 243.517,-376.708"/>
</g>
<!-- mage_tower&#45;&gt;tower_of_souls -->
<g id="edge8" class="edge"><title>mage_tower&#45;&gt;tower_of_souls</title>
<path fill="none" stroke="#ebc72d" stroke-dasharray="1,5" d="M339.804,-339.493C351.82,-284.46 348.821,-219.01 344.879,-177.641"/>
<polygon fill="#ebc72d" stroke="#ebc72d" points="348.358,-177.259 343.865,-167.664 341.394,-177.966 348.358,-177.259"/>
</g>
<!-- summoner_guild -->
<g id="node9" class="node"><title>summoner_guild</title>
<g id="a_node9"><a xlink:href="magic_summoner_guild_full.html" xlink:title="Summoner\nGuild">
<polygon fill="none" stroke="red" points="195.906,-350.822 128.804,-373.92 61.7028,-350.822 61.7654,-313.449 195.843,-313.449 195.906,-350.822"/>
<text text-anchor="middle" x="128.804" y="-344.293" font-family="Times,serif" font-size="14.00" fill="#ebc72d">Summoner</text>
<text text-anchor="middle" x="128.804" y="-329.293" font-family="Times,serif" font-size="14.00" fill="#ebc72d">Guild</text>
</a>
</g>
</g>
<!-- mage_tower&#45;&gt;summoner_guild -->
<g id="edge7" class="edge"><title>mage_tower&#45;&gt;summoner_guild</title>
<path fill="none" stroke="#ebc72d" stroke-dasharray="1,5" d="M178.376,-415.795C170.437,-403.896 160.92,-389.631 152.357,-376.796"/>
<polygon fill="#ebc72d" stroke="#ebc72d" points="155.073,-374.561 146.612,-368.185 149.25,-378.446 155.073,-374.561"/>
</g>
<!-- summoner_guild&#45;&gt;wicker_behemoth -->
<g id="edge11" class="edge"><title>summoner_guild&#45;&gt;wicker_behemoth</title>
<path fill="none" stroke="#ebc72d" stroke-dasharray="1,5" d="M111.896,-313.369C104.133,-301.375 94.8148,-286.978 86.4562,-274.064"/>
<polygon fill="#ebc72d" stroke="#ebc72d" points="89.2257,-271.901 80.8538,-265.408 83.3492,-275.705 89.2257,-271.901"/>
</g>
<!-- summoner_guild&#45;&gt;library -->
<g id="edge10" class="edge"><title>summoner_guild&#45;&gt;library</title>
<path fill="none" stroke="#ebc72d" stroke-dasharray="1,5" d="M152.996,-313.369C168.304,-296.839 187.838,-275.745 202.179,-260.259"/>
<polygon fill="#ebc72d" stroke="#ebc72d" points="204.929,-262.44 209.155,-252.725 199.793,-257.684 204.929,-262.44"/>
</g>
</g>
</svg>
