<?xml version="1.0" encoding="UTF-8" standalone="no"?>
<!DOCTYPE svg PUBLIC "-//W3C//DTD SVG 1.1//EN"
 "http://www.w3.org/Graphics/SVG/1.1/DTD/svg11.dtd">
<!-- Generated by graphviz version 2.38.0 (20140413.2041)
 -->
<!-- Title: test Pages: 1 -->
<svg width="1459pt" height="675pt"
 viewBox="0.00 0.00 1458.75 674.59" xmlns="http://www.w3.org/2000/svg" xmlns:xlink="http://www.w3.org/1999/xlink">
<g id="graph0" class="graph" transform="scale(1 1) rotate(0) translate(4 670.593)">
<title>test</title>
<polygon fill="#151515" stroke="none" points="-4,4 -4,-670.593 1454.75,-670.593 1454.75,4 -4,4"/>
<!-- archmage -->
<g id="node1" class="node"><title>archmage</title>
<g id="a_node1"><a xlink:href="magic_archmage_full.html" xlink:title="Archmage">
<ellipse fill="none" stroke="magenta" cx="124.946" cy="-230.167" rx="48.1917" ry="18"/>
<text text-anchor="middle" x="124.946" y="-226.467" font-family="Times,serif" font-size="14.00" fill="#ebc72d">Archmage</text>
</a>
</g>
</g>
<!-- evil_dragon -->
<g id="node2" class="node"><title>evil_dragon</title>
<g id="a_node2"><a xlink:href="magic_evil_dragon_full.html" xlink:title="Evil\nDragon">
<ellipse fill="none" stroke="magenta" cx="232.946" cy="-26.8701" rx="40.1111" ry="26.7407"/>
<text text-anchor="middle" x="232.946" y="-30.6701" font-family="Times,serif" font-size="14.00" fill="#ebc72d">Evil</text>
<text text-anchor="middle" x="232.946" y="-15.6701" font-family="Times,serif" font-size="14.00" fill="#ebc72d">Dragon</text>
</a>
</g>
</g>
<!-- golem -->
<g id="node3" class="node"><title>golem</title>
<g id="a_node3"><a xlink:href="magic_golem_full.html" xlink:title="Golem">
<polygon fill="none" stroke="red" points="388.21,-347.729 344.946,-360.167 301.681,-347.729 301.722,-327.604 388.17,-327.604 388.21,-347.729"/>
<text text-anchor="middle" x="344.946" y="-338.467" font-family="Times,serif" font-size="14.00" fill="#ebc72d">Golem</text>
</a>
</g>
</g>
<!-- power_golem -->
<g id="node15" class="node"><title>power_golem</title>
<g id="a_node15"><a xlink:href="magic_power_golem_full.html" xlink:title="Power\nGolem">
<polygon fill="none" stroke="red" points="328.342,-133.283 280.946,-156.381 233.55,-133.283 233.594,-95.9097 328.298,-95.9097 328.342,-133.283"/>
<text text-anchor="middle" x="280.946" y="-126.753" font-family="Times,serif" font-size="14.00" fill="#ebc72d">Power</text>
<text text-anchor="middle" x="280.946" y="-111.753" font-family="Times,serif" font-size="14.00" fill="#ebc72d">Golem</text>
</a>
</g>
</g>
<!-- golem&#45;&gt;power_golem -->
<g id="edge10" class="edge"><title>golem&#45;&gt;power_golem</title>
<path fill="none" stroke="#ebc72d" stroke-dasharray="5,2" d="M342.876,-327.349C338.673,-300.727 328.141,-240.669 311.946,-192.167 308.287,-181.208 303.436,-169.644 298.66,-159.212"/>
<polygon fill="#ebc72d" stroke="#ebc72d" points="301.752,-157.563 294.331,-150.001 295.417,-160.54 301.752,-157.563"/>
</g>
<!-- wicker_behemoth -->
<g id="node4" class="node"><title>wicker_behemoth</title>
<g id="a_node4"><a xlink:href="magic_wicker_behemoth_full.html" xlink:title="Wicker\nBehemoth">
<polygon fill="none" stroke="red" points="1450.56,-464.496 1386.95,-487.594 1323.34,-464.496 1323.4,-427.123 1450.5,-427.123 1450.56,-464.496"/>
<text text-anchor="middle" x="1386.95" y="-457.967" font-family="Times,serif" font-size="14.00" fill="#ebc72d">Wicker</text>
<text text-anchor="middle" x="1386.95" y="-442.967" font-family="Times,serif" font-size="14.00" fill="#ebc72d">Behemoth</text>
</a>
</g>
</g>
<!-- behemoth -->
<g id="node5" class="node"><title>behemoth</title>
<g id="a_node5"><a xlink:href="magic_behemoth_full.html" xlink:title="Behemoth">
<ellipse fill="none" stroke="magenta" cx="1260.95" cy="-230.167" rx="47.3916" ry="18"/>
<text text-anchor="middle" x="1260.95" y="-226.467" font-family="Times,serif" font-size="14.00" fill="#ebc72d">Behemoth</text>
</a>
</g>
</g>
<!-- wicker_behemoth&#45;&gt;behemoth -->
<g id="edge41" class="edge"><title>wicker_behemoth&#45;&gt;behemoth</title>
<path fill="none" stroke="#ebc72d" stroke-dasharray="5,2" d="M1390.73,-427.095C1393.94,-395.584 1394.91,-342.08 1371.95,-304.167 1356.16,-278.103 1327.1,-259.498 1302.67,-247.595"/>
<polygon fill="#ebc72d" stroke="#ebc72d" points="1304.12,-244.408 1293.58,-243.36 1301.17,-250.754 1304.12,-244.408"/>
</g>
<!-- library -->
<g id="node6" class="node"><title>library</title>
<g id="a_node6"><a xlink:href="magic_library_full.html" xlink:title="Library">
<polygon fill="none" stroke="red" points="628.531,-459.729 582.946,-472.167 537.36,-459.729 537.403,-439.604 628.489,-439.604 628.531,-459.729"/>
<text text-anchor="middle" x="582.946" y="-450.467" font-family="Times,serif" font-size="14.00" fill="#ebc72d">Library</text>
</a>
</g>
</g>
<!-- library&#45;&gt;golem -->
<g id="edge26" class="edge"><title>library&#45;&gt;golem</title>
<path fill="none" stroke="#ebc72d" stroke-dasharray="1,5" d="M539.512,-439.496C500.942,-426.575 443.62,-405.436 396.946,-380.167 387.3,-374.944 377.338,-368.228 368.746,-361.953"/>
<polygon fill="#ebc72d" stroke="#ebc72d" points="370.775,-359.1 360.675,-355.899 366.574,-364.699 370.775,-359.1"/>
</g>
<!-- archmage_tower -->
<g id="node7" class="node"><title>archmage_tower</title>
<g id="a_node7"><a xlink:href="magic_archmage_tower_full.html" xlink:title="Archmage\nTower">
<polygon fill="none" stroke="red" points="283.803,-352.496 218.946,-375.594 154.089,-352.496 154.149,-315.123 283.742,-315.123 283.803,-352.496"/>
<text text-anchor="middle" x="218.946" y="-345.967" font-family="Times,serif" font-size="14.00" fill="#ebc72d">Archmage</text>
<text text-anchor="middle" x="218.946" y="-330.967" font-family="Times,serif" font-size="14.00" fill="#ebc72d">Tower</text>
</a>
</g>
</g>
<!-- library&#45;&gt;archmage_tower -->
<g id="edge22" class="edge"><title>library&#45;&gt;archmage_tower</title>
<path fill="none" stroke="#ebc72d" stroke-dasharray="1,5" d="M537.315,-444.873C479.396,-433.626 376.916,-411.307 292.946,-380.167 283.35,-376.608 273.364,-372.164 263.947,-367.604"/>
<polygon fill="#ebc72d" stroke="#ebc72d" points="265.269,-364.352 254.756,-363.033 262.151,-370.62 265.269,-364.352"/>
</g>
<!-- draco_rider -->
<g id="node12" class="node"><title>draco_rider</title>
<g id="a_node12"><a xlink:href="magic_draco_rider_full.html" xlink:title="Draco\nRider">
<ellipse fill="none" stroke="magenta" cx="1059.95" cy="-342.167" rx="35.2113" ry="26.7407"/>
<text text-anchor="middle" x="1059.95" y="-345.967" font-family="Times,serif" font-size="14.00" fill="#ebc72d">Draco</text>
<text text-anchor="middle" x="1059.95" y="-330.967" font-family="Times,serif" font-size="14.00" fill="#ebc72d">Rider</text>
</a>
</g>
</g>
<!-- library&#45;&gt;draco_rider -->
<g id="edge23" class="edge"><title>library&#45;&gt;draco_rider</title>
<path fill="none" stroke="#ebc72d" stroke-dasharray="1,5" d="M628.553,-453.228C710.101,-451.695 884.647,-440.877 1015.95,-380.167 1021.29,-377.698 1026.5,-374.405 1031.36,-370.797"/>
<polygon fill="#ebc72d" stroke="#ebc72d" points="1033.57,-373.513 1039.17,-364.521 1029.18,-368.057 1033.57,-373.513"/>
</g>
<!-- tower_of_souls -->
<g id="node14" class="node"><title>tower_of_souls</title>
<g id="a_node14"><a xlink:href="magic_tower_of_souls_full.html" xlink:title="Tower\nOf Souls">
<polygon fill="none" stroke="red" points="1006.57,-352.496 949.946,-375.594 893.321,-352.496 893.374,-315.123 1006.52,-315.123 1006.57,-352.496"/>
<text text-anchor="middle" x="949.946" y="-345.967" font-family="Times,serif" font-size="14.00" fill="#ebc72d">Tower</text>
<text text-anchor="middle" x="949.946" y="-330.967" font-family="Times,serif" font-size="14.00" fill="#ebc72d">Of Souls</text>
</a>
</g>
</g>
<!-- library&#45;&gt;tower_of_souls -->
<g id="edge28" class="edge"><title>library&#45;&gt;tower_of_souls</title>
<path fill="none" stroke="#ebc72d" stroke-dasharray="1,5" d="M600.86,-439.434C612.294,-431.372 627.772,-421.708 642.946,-416.167 745.087,-378.867 782.165,-415.668 884.946,-380.167 893.689,-377.147 902.599,-372.943 910.906,-368.447"/>
<polygon fill="#ebc72d" stroke="#ebc72d" points="912.671,-371.47 919.648,-363.497 909.221,-365.379 912.671,-371.47"/>
</g>
<!-- energy_compression -->
<g id="node22" class="node"><title>energy_compression</title>
<g id="a_node22"><a xlink:href="magic_energy_compression_full.html" xlink:title="Energy\nCompression">
<polygon fill="none" stroke="green" points="769.988,-380.167 623.569,-380.167 585.903,-304.167 732.322,-304.167 769.988,-380.167"/>
<text text-anchor="middle" x="677.946" y="-345.967" font-family="Times,serif" font-size="14.00" fill="#ebc72d">Energy</text>
<text text-anchor="middle" x="677.946" y="-330.967" font-family="Times,serif" font-size="14.00" fill="#ebc72d">Compression</text>
</a>
</g>
</g>
<!-- library&#45;&gt;energy_compression -->
<g id="edge24" class="edge"><title>library&#45;&gt;energy_compression</title>
<path fill="none" stroke="#ebc72d" d="M594.978,-439.235C606.074,-426.386 623.171,-406.591 638.967,-388.3"/>
<polygon fill="#ebc72d" stroke="#ebc72d" points="641.749,-390.434 645.636,-380.578 636.451,-385.858 641.749,-390.434"/>
</g>
<!-- energy_sharpening -->
<g id="node24" class="node"><title>energy_sharpening</title>
<g id="a_node24"><a xlink:href="magic_energy_sharpening_full.html" xlink:title="Energy\nSharpening">
<polygon fill="none" stroke="green" points="567.68,-380.167 439.25,-380.167 406.212,-304.167 534.641,-304.167 567.68,-380.167"/>
<text text-anchor="middle" x="486.946" y="-345.967" font-family="Times,serif" font-size="14.00" fill="#ebc72d">Energy</text>
<text text-anchor="middle" x="486.946" y="-330.967" font-family="Times,serif" font-size="14.00" fill="#ebc72d">Sharpening</text>
</a>
</g>
</g>
<!-- library&#45;&gt;energy_sharpening -->
<g id="edge25" class="edge"><title>library&#45;&gt;energy_sharpening</title>
<path fill="none" stroke="#ebc72d" d="M570.787,-439.235C559.574,-426.386 542.298,-406.591 526.335,-388.3"/>
<polygon fill="#ebc72d" stroke="#ebc72d" points="528.808,-385.811 519.596,-380.578 523.534,-390.413 528.808,-385.811"/>
</g>
<!-- hell_gate -->
<g id="node25" class="node"><title>hell_gate</title>
<g id="a_node25"><a xlink:href="magic_hell_gate_full.html" xlink:title="Hell\nGate">
<polygon fill="none" stroke="green" points="875.533,-380.167 806.195,-380.167 788.358,-304.167 857.696,-304.167 875.533,-380.167"/>
<text text-anchor="middle" x="831.946" y="-345.967" font-family="Times,serif" font-size="14.00" fill="#ebc72d">Hell</text>
<text text-anchor="middle" x="831.946" y="-330.967" font-family="Times,serif" font-size="14.00" fill="#ebc72d">Gate</text>
</a>
</g>
</g>
<!-- library&#45;&gt;hell_gate -->
<g id="edge27" class="edge"><title>library&#45;&gt;hell_gate</title>
<path fill="none" stroke="#ebc72d" d="M601.884,-439.483C613.318,-431.743 628.44,-422.397 642.946,-416.167 700.397,-391.491 722.219,-406.466 778.946,-380.167 784.036,-377.807 789.16,-374.957 794.11,-371.899"/>
<polygon fill="#ebc72d" stroke="#ebc72d" points="796.329,-374.63 802.787,-366.231 792.501,-368.77 796.329,-374.63"/>
</g>
<!-- archmage_tower&#45;&gt;archmage -->
<g id="edge2" class="edge"><title>archmage_tower&#45;&gt;archmage</title>
<path fill="none" stroke="#ebc72d" stroke-dasharray="1,5" d="M196.669,-315.098C181.133,-296.917 160.557,-272.839 145.429,-255.137"/>
<polygon fill="#ebc72d" stroke="#ebc72d" points="148.057,-252.824 138.9,-247.496 142.735,-257.372 148.057,-252.824"/>
</g>
<!-- dragon_call -->
<g id="node20" class="node"><title>dragon_call</title>
<g id="a_node20"><a xlink:href="magic_dragon_call_full.html" xlink:title="Dragon\nCall">
<polygon fill="none" stroke="green" points="477.136,-268.167 382.978,-268.167 358.756,-192.167 452.914,-192.167 477.136,-268.167"/>
<text text-anchor="middle" x="417.946" y="-233.967" font-family="Times,serif" font-size="14.00" fill="#ebc72d">Dragon</text>
<text text-anchor="middle" x="417.946" y="-218.967" font-family="Times,serif" font-size="14.00" fill="#ebc72d">Call</text>
</a>
</g>
</g>
<!-- archmage_tower&#45;&gt;dragon_call -->
<g id="edge3" class="edge"><title>archmage_tower&#45;&gt;dragon_call</title>
<path fill="none" stroke="#ebc72d" d="M266.106,-315.098C297.175,-297.924 337.762,-275.489 369.156,-258.136"/>
<polygon fill="#ebc72d" stroke="#ebc72d" points="371.108,-261.056 378.167,-253.155 367.721,-254.93 371.108,-261.056"/>
</g>
<!-- golem_power -->
<g id="node21" class="node"><title>golem_power</title>
<g id="a_node21"><a xlink:href="magic_golem_power_full.html" xlink:title="Golem\nPower">
<polygon fill="none" stroke="green" points="302.915,-268.167 213.88,-268.167 190.976,-192.167 280.011,-192.167 302.915,-268.167"/>
<text text-anchor="middle" x="246.946" y="-233.967" font-family="Times,serif" font-size="14.00" fill="#ebc72d">Golem</text>
<text text-anchor="middle" x="246.946" y="-218.967" font-family="Times,serif" font-size="14.00" fill="#ebc72d">Power</text>
</a>
</g>
</g>
<!-- archmage_tower&#45;&gt;golem_power -->
<g id="edge4" class="edge"><title>archmage_tower&#45;&gt;golem_power</title>
<path fill="none" stroke="#ebc72d" d="M225.581,-315.098C228.389,-304.069 231.748,-290.871 234.963,-278.242"/>
<polygon fill="#ebc72d" stroke="#ebc72d" points="238.422,-278.842 237.497,-268.288 231.638,-277.115 238.422,-278.842"/>
</g>
<!-- initiate -->
<g id="node8" class="node"><title>initiate</title>
<g id="a_node8"><a xlink:href="magic_initiate_full.html" xlink:title="Initiate">
<ellipse fill="none" stroke="magenta" cx="1062.95" cy="-648.593" rx="35.9954" ry="18"/>
<text text-anchor="middle" x="1062.95" y="-644.893" font-family="Times,serif" font-size="14.00" fill="#ebc72d">Initiate</text>
</a>
</g>
</g>
<!-- initiate&#45;&gt;golem -->
<g id="edge16" class="edge"><title>initiate&#45;&gt;golem</title>
<path fill="none" stroke="#ebc72d" stroke-width="2" d="M344.946,-453.167C317.351,-437.291 325.695,-395.446 334.873,-368.186"/>
<polygon fill="#ebc72d" stroke="#ebc72d" stroke-width="2" points="338.253,-369.132 338.359,-358.537 331.669,-366.753 338.253,-369.132"/>
</g>
<!-- initiate&#45;&gt;wicker_behemoth -->
<g id="edge21" class="edge"><title>initiate&#45;&gt;wicker_behemoth</title>
<path fill="none" stroke="#ebc72d" stroke-width="2" d="M1086.6,-634.841C1102.75,-625.301 1123.86,-611.094 1138.95,-594.593 1161.9,-569.493 1149.95,-548.86 1176.95,-528.167 1226.91,-489.863 1255.09,-514.523 1313.95,-492.167 1323.41,-488.571 1333.26,-484.111 1342.55,-479.546"/>
<polygon fill="#ebc72d" stroke="#ebc72d" stroke-width="2" points="1344.26,-482.602 1351.62,-474.975 1341.11,-476.352 1344.26,-482.602"/>
</g>
<!-- initiate&#45;&gt;library -->
<g id="edge17" class="edge"><title>initiate&#45;&gt;library</title>
<path fill="none" stroke="#ebc72d" stroke-width="2" d="M619.946,-560.38C593.47,-544.906 585.592,-508.31 583.433,-482.648"/>
<polygon fill="#ebc72d" stroke="#ebc72d" stroke-width="2" points="586.912,-482.186 582.821,-472.413 579.925,-482.605 586.912,-482.186"/>
</g>
<!-- initiate&#45;&gt;archmage_tower -->
<g id="edge13" class="edge"><title>initiate&#45;&gt;archmage_tower</title>
<path fill="none" stroke="#ebc72d" stroke-width="2" d="M344.946,-453.167C308.221,-432.038 272.429,-399.261 248.436,-374.978"/>
<polygon fill="#ebc72d" stroke="#ebc72d" stroke-width="2" points="250.866,-372.456 241.381,-367.736 245.852,-377.341 250.866,-372.456"/>
</g>
<!-- mage_tower -->
<g id="node10" class="node"><title>mage_tower</title>
<g id="a_node10"><a xlink:href="magic_mage_tower_full.html" xlink:title="Mage\nTower">
<polygon fill="none" stroke="red" points="1276.35,-571.71 1230.95,-594.808 1185.55,-571.71 1185.59,-534.336 1276.3,-534.336 1276.35,-571.71"/>
<text text-anchor="middle" x="1230.95" y="-565.18" font-family="Times,serif" font-size="14.00" fill="#ebc72d">Mage</text>
<text text-anchor="middle" x="1230.95" y="-550.18" font-family="Times,serif" font-size="14.00" fill="#ebc72d">Tower</text>
</a>
</g>
</g>
<!-- initiate&#45;&gt;mage_tower -->
<g id="edge18" class="edge"><title>initiate&#45;&gt;mage_tower</title>
<path fill="none" stroke="#ebc72d" stroke-width="2" d="M1097.32,-631.391C1118.88,-621.102 1147.18,-607.364 1171.95,-594.593 1178.22,-591.358 1184.82,-587.854 1191.24,-584.389"/>
<polygon fill="#ebc72d" stroke="#ebc72d" stroke-width="2" points="1095.75,-628.261 1088.22,-635.718 1098.76,-634.582 1095.75,-628.261"/>
<polygon fill="#ebc72d" stroke="#ebc72d" stroke-width="2" points="1193.35,-587.225 1200.47,-579.375 1190.01,-581.074 1193.35,-587.225"/>
</g>
<!-- energy_source -->
<g id="node11" class="node"><title>energy_source</title>
<g id="a_node11"><a xlink:href="magic_energy_source_full.html" xlink:title="Energy\nSource">
<polygon fill="none" stroke="red" points="97.8374,-352.496 48.9458,-375.594 0.0541453,-352.496 0.0997798,-315.123 97.7918,-315.123 97.8374,-352.496"/>
<text text-anchor="middle" x="48.9458" y="-345.967" font-family="Times,serif" font-size="14.00" fill="#ebc72d">Energy</text>
<text text-anchor="middle" x="48.9458" y="-330.967" font-family="Times,serif" font-size="14.00" fill="#ebc72d">Source</text>
</a>
</g>
</g>
<!-- initiate&#45;&gt;energy_source -->
<g id="edge15" class="edge"><title>initiate&#45;&gt;energy_source</title>
<path fill="none" stroke="#ebc72d" stroke-width="2" d="M1027.92,-644.821C934.956,-636.857 684.71,-611.291 619.946,-562.38"/>
<path fill="none" stroke="#ebc72d" stroke-width="2" d="M619.946,-560.38C515.518,-481.515 458.375,-520.426 344.946,-455.167"/>
<path fill="none" stroke="#ebc72d" stroke-width="2" d="M344.946,-453.167C262.927,-405.978 233.541,-413.405 144.946,-380.167 129.019,-374.191 111.657,-367.541 96.131,-361.546"/>
<polygon fill="#ebc72d" stroke="#ebc72d" stroke-width="2" points="97.3197,-358.253 86.7305,-357.909 94.794,-364.781 97.3197,-358.253"/>
</g>
<!-- initiate&#45;&gt;tower_of_souls -->
<g id="edge20" class="edge"><title>initiate&#45;&gt;tower_of_souls</title>
<path fill="none" stroke="#ebc72d" stroke-width="2" d="M619.946,-560.38C605.063,-551.682 817.104,-422.667 908.81,-367.688"/>
<polygon fill="#ebc72d" stroke="#ebc72d" stroke-width="2" points="910.777,-370.589 917.558,-362.449 907.18,-364.584 910.777,-370.589"/>
</g>
<!-- summoner_guild -->
<g id="node16" class="node"><title>summoner_guild</title>
<g id="a_node16"><a xlink:href="magic_summoner_guild_full.html" xlink:title="Summoner\nGuild">
<polygon fill="none" stroke="red" points="1130.05,-571.71 1062.95,-594.808 995.844,-571.71 995.907,-534.336 1129.98,-534.336 1130.05,-571.71"/>
<text text-anchor="middle" x="1062.95" y="-565.18" font-family="Times,serif" font-size="14.00" fill="#ebc72d">Summoner</text>
<text text-anchor="middle" x="1062.95" y="-550.18" font-family="Times,serif" font-size="14.00" fill="#ebc72d">Guild</text>
</a>
</g>
</g>
<!-- initiate&#45;&gt;summoner_guild -->
<g id="edge19" class="edge"><title>initiate&#45;&gt;summoner_guild</title>
<path fill="none" stroke="#ebc72d" stroke-width="2" d="M1062.95,-630.349C1062.95,-622.929 1062.95,-613.895 1062.95,-604.868"/>
<polygon fill="#ebc72d" stroke="#ebc72d" stroke-width="2" points="1066.45,-604.766 1062.95,-594.766 1059.45,-604.766 1066.45,-604.766"/>
</g>
<!-- battlemage -->
<g id="node17" class="node"><title>battlemage</title>
<g id="a_node17"><a xlink:href="magic_battlemage_full.html" xlink:title="Battlemage">
<ellipse fill="none" stroke="magenta" cx="314.946" cy="-561.38" rx="51.1914" ry="18"/>
<text text-anchor="middle" x="314.946" y="-557.68" font-family="Times,serif" font-size="14.00" fill="#ebc72d">Battlemage</text>
</a>
</g>
</g>
<!-- initiate&#45;&gt;battlemage -->
<g id="edge14" class="edge"><title>initiate&#45;&gt;battlemage</title>
<path fill="none" stroke="#ebc72d" stroke-dasharray="5,2" d="M1028.37,-643.654C910.241,-630.197 521.811,-585.946 373.349,-569.033"/>
<polygon fill="#ebc72d" stroke="#ebc72d" points="373.413,-565.518 363.081,-567.863 372.621,-572.473 373.413,-565.518"/>
</g>
<!-- ghost_armor -->
<g id="node9" class="node"><title>ghost_armor</title>
<g id="a_node9"><a xlink:href="magic_ghost_armor_full.html" xlink:title="Ghost\nArmor">
<ellipse fill="none" stroke="magenta" cx="1325.95" cy="-342.167" rx="37.4533" ry="26.7407"/>
<text text-anchor="middle" x="1325.95" y="-345.967" font-family="Times,serif" font-size="14.00" fill="#ebc72d">Ghost</text>
<text text-anchor="middle" x="1325.95" y="-330.967" font-family="Times,serif" font-size="14.00" fill="#ebc72d">Armor</text>
</a>
</g>
</g>
<!-- energy_source&#45;&gt;archmage -->
<g id="edge8" class="edge"><title>energy_source&#45;&gt;archmage</title>
<path fill="none" stroke="#ebc72d" stroke-dasharray="1,5" d="M66.9567,-315.098C79.2172,-297.353 95.3585,-273.99 107.498,-256.42"/>
<polygon fill="#ebc72d" stroke="#ebc72d" points="110.634,-258.038 113.439,-247.821 104.875,-254.059 110.634,-258.038"/>
</g>
<!-- energy_source&#45;&gt;evil_dragon -->
<g id="edge9" class="edge"><title>energy_source&#45;&gt;evil_dragon</title>
<path fill="none" stroke="#ebc72d" stroke-dasharray="1,5" d="M47.297,-314.939C46.4429,-283.98 48.4919,-231.711 67.9458,-192.167 97.4757,-132.14 157.775,-81.065 196.725,-52.4516"/>
<polygon fill="#ebc72d" stroke="#ebc72d" points="199.115,-55.0427 205.173,-46.3508 195.017,-49.3677 199.115,-55.0427"/>
</g>
<!-- daemon -->
<g id="node13" class="node"><title>daemon</title>
<g id="a_node13"><a xlink:href="magic_daemon_full.html" xlink:title="Daemon">
<ellipse fill="none" stroke="magenta" cx="1191.95" cy="-342.167" rx="40.8928" ry="18"/>
<text text-anchor="middle" x="1191.95" y="-338.467" font-family="Times,serif" font-size="14.00" fill="#ebc72d">Daemon</text>
</a>
</g>
</g>
<!-- summoner_guild&#45;&gt;wicker_behemoth -->
<g id="edge40" class="edge"><title>summoner_guild&#45;&gt;wicker_behemoth</title>
<path fill="none" stroke="#ebc72d" stroke-dasharray="1,5" d="M1125.81,-534.18C1131.89,-532.009 1138.01,-529.962 1143.95,-528.167 1217.87,-505.816 1241.11,-517.842 1313.95,-492.167 1323.59,-488.766 1333.59,-484.351 1342.97,-479.762"/>
<polygon fill="#ebc72d" stroke="#ebc72d" points="1344.77,-482.776 1352.12,-475.145 1341.61,-476.527 1344.77,-482.776"/>
</g>
<!-- summoner_guild&#45;&gt;library -->
<g id="edge38" class="edge"><title>summoner_guild&#45;&gt;library</title>
<path fill="none" stroke="#ebc72d" stroke-dasharray="1,5" d="M995.698,-545.64C896.029,-523.793 711.799,-483.41 627.344,-464.898"/>
<polygon fill="#ebc72d" stroke="#ebc72d" points="628.07,-461.474 617.552,-462.752 626.571,-468.312 628.07,-461.474"/>
</g>
<!-- summoner -->
<g id="node18" class="node"><title>summoner</title>
<g id="a_node18"><a xlink:href="magic_summoner_full.html" xlink:title="Summoner">
<ellipse fill="none" stroke="magenta" cx="1062.95" cy="-454.167" rx="50.0912" ry="18"/>
<text text-anchor="middle" x="1062.95" y="-450.467" font-family="Times,serif" font-size="14.00" fill="#ebc72d">Summoner</text>
</a>
</g>
</g>
<!-- summoner_guild&#45;&gt;summoner -->
<g id="edge39" class="edge"><title>summoner_guild&#45;&gt;summoner</title>
<path fill="none" stroke="#ebc72d" d="M1062.95,-534.101C1062.95,-518.375 1062.95,-498.419 1062.95,-482.508"/>
<polygon fill="#ebc72d" stroke="#ebc72d" points="1066.45,-482.24 1062.95,-472.24 1059.45,-482.24 1066.45,-482.24"/>
</g>
<!-- ancient_summoning -->
<g id="node23" class="node"><title>ancient_summoning</title>
<g id="a_node23"><a xlink:href="magic_ancient_summoning_full.html" xlink:title="Ancient\nSummoning">
<polygon fill="none" stroke="green" points="1305.12,-492.167 1166.45,-492.167 1130.77,-416.167 1269.45,-416.167 1305.12,-492.167"/>
<text text-anchor="middle" x="1217.95" y="-457.967" font-family="Times,serif" font-size="14.00" fill="#ebc72d">Ancient</text>
<text text-anchor="middle" x="1217.95" y="-442.967" font-family="Times,serif" font-size="14.00" fill="#ebc72d">Summoning</text>
</a>
</g>
</g>
<!-- summoner_guild&#45;&gt;ancient_summoning -->
<g id="edge37" class="edge"><title>summoner_guild&#45;&gt;ancient_summoning</title>
<path fill="none" stroke="#ebc72d" d="M1101.66,-534.101C1118.45,-522.7 1138.53,-509.077 1157.23,-496.382"/>
<polygon fill="#ebc72d" stroke="#ebc72d" points="1159.4,-499.139 1165.71,-490.627 1155.47,-493.347 1159.4,-499.139"/>
</g>
<!-- battlemage&#45;&gt;archmage -->
<g id="edge5" class="edge"><title>battlemage&#45;&gt;archmage</title>
<path fill="none" stroke="#ebc72d" stroke-dasharray="5,2" d="M293.296,-544.888C255.916,-516.803 179.926,-453.546 144.946,-380.167 126.159,-340.756 123.384,-289.231 123.718,-258.251"/>
<polygon fill="#ebc72d" stroke="#ebc72d" points="127.218,-258.279 123.944,-248.203 120.22,-258.121 127.218,-258.279"/>
</g>
<!-- summoner&#45;&gt;golem -->
<g id="edge35" class="edge"><title>summoner&#45;&gt;golem</title>
<path fill="none" stroke="#ebc72d" stroke-dasharray="1,5" d="M1014.53,-449.279C871.02,-437.56 454.389,-402.038 396.946,-380.167 386.384,-376.145 375.984,-369.454 367.292,-362.86"/>
<polygon fill="#ebc72d" stroke="#ebc72d" points="369.221,-359.921 359.229,-356.4 364.845,-365.384 369.221,-359.921"/>
</g>
<!-- summoner&#45;&gt;behemoth -->
<g id="edge30" class="edge"><title>summoner&#45;&gt;behemoth</title>
<path fill="none" stroke="#ebc72d" stroke-dasharray="1,5" d="M1084.29,-437.824C1095.17,-430.522 1108.84,-422.109 1121.95,-416.167 1172.66,-393.168 1205.94,-422.643 1241.95,-380.167 1270.73,-346.208 1269.57,-291.287 1265.61,-258.458"/>
<polygon fill="#ebc72d" stroke="#ebc72d" points="1269.03,-257.661 1264.2,-248.234 1262.1,-258.619 1269.03,-257.661"/>
</g>
<!-- summoner&#45;&gt;ghost_armor -->
<g id="edge34" class="edge"><title>summoner&#45;&gt;ghost_armor</title>
<path fill="none" stroke="#ebc72d" d="M1083.87,-437.668C1094.76,-430.237 1108.56,-421.758 1121.95,-416.167 1186.41,-389.246 1211.43,-409.247 1274.95,-380.167 1281.36,-377.229 1287.78,-373.424 1293.8,-369.373"/>
<polygon fill="#ebc72d" stroke="#ebc72d" points="1296.16,-371.989 1302.27,-363.337 1292.1,-366.287 1296.16,-371.989"/>
</g>
<!-- summoner&#45;&gt;draco_rider -->
<g id="edge32" class="edge"><title>summoner&#45;&gt;draco_rider</title>
<path fill="none" stroke="#ebc72d" stroke-dasharray="5,2" d="M1062.48,-435.979C1062.07,-420.888 1061.45,-398.436 1060.93,-379.394"/>
<polygon fill="#ebc72d" stroke="#ebc72d" points="1064.43,-379.136 1060.66,-369.235 1057.43,-379.327 1064.43,-379.136"/>
</g>
<!-- summoner&#45;&gt;daemon -->
<g id="edge31" class="edge"><title>summoner&#45;&gt;daemon</title>
<path fill="none" stroke="#ebc72d" d="M1081.43,-437.406C1103.68,-418.43 1141.19,-386.451 1166.25,-365.079"/>
<polygon fill="#ebc72d" stroke="#ebc72d" points="1168.58,-367.695 1173.91,-358.543 1164.03,-362.368 1168.58,-367.695"/>
</g>
<!-- summoner&#45;&gt;tower_of_souls -->
<g id="edge36" class="edge"><title>summoner&#45;&gt;tower_of_souls</title>
<path fill="none" stroke="#ebc72d" stroke-dasharray="1,5" d="M1046.27,-436.936C1029.14,-420.256 1002.06,-393.898 980.973,-373.37"/>
<polygon fill="#ebc72d" stroke="#ebc72d" points="983.396,-370.844 973.789,-366.377 978.514,-375.86 983.396,-370.844"/>
</g>
<!-- dragon -->
<g id="node19" class="node"><title>dragon</title>
<g id="a_node19"><a xlink:href="magic_dragon_full.html" xlink:title="Dragon">
<ellipse fill="none" stroke="magenta" cx="417.946" cy="-122.953" rx="37.0935" ry="18"/>
<text text-anchor="middle" x="417.946" y="-119.253" font-family="Times,serif" font-size="14.00" fill="#ebc72d">Dragon</text>
</a>
</g>
</g>
<!-- summoner&#45;&gt;dragon -->
<g id="edge33" class="edge"><title>summoner&#45;&gt;dragon</title>
<path fill="none" stroke="#ebc72d" d="M1075.92,-436.611C1097.41,-407.056 1135.08,-344.532 1103.95,-304.167 1024.07,-200.596 604.379,-144.82 463.846,-128.836"/>
<polygon fill="#ebc72d" stroke="#ebc72d" points="464.158,-125.349 453.83,-127.711 463.376,-132.305 464.158,-125.349"/>
</g>
<!-- dragon&#45;&gt;evil_dragon -->
<g id="edge6" class="edge"><title>dragon&#45;&gt;evil_dragon</title>
<path fill="none" stroke="#ebc72d" stroke-dasharray="5,2" d="M393.379,-109.46C362.753,-93.8847 309.984,-67.0485 273.367,-48.4264"/>
<polygon fill="#ebc72d" stroke="#ebc72d" points="274.929,-45.2942 264.428,-43.8808 271.755,-51.5337 274.929,-45.2942"/>
</g>
<!-- dragon_call&#45;&gt;dragon -->
<g id="edge7" class="edge"><title>dragon_call&#45;&gt;dragon</title>
<path fill="none" stroke="#ebc72d" stroke-dasharray="1,5" d="M417.946,-192.072C417.946,-178.619 417.946,-163.68 417.946,-151.227"/>
<polygon fill="#ebc72d" stroke="#ebc72d" points="421.446,-151.025 417.946,-141.025 414.446,-151.025 421.446,-151.025"/>
</g>
<!-- golem_power&#45;&gt;power_golem -->
<g id="edge11" class="edge"><title>golem_power&#45;&gt;power_golem</title>
<path fill="none" stroke="#ebc72d" stroke-dasharray="1,5" d="M258.933,-192.072C262.116,-182.222 265.557,-171.574 268.751,-161.69"/>
<polygon fill="#ebc72d" stroke="#ebc72d" points="272.1,-162.709 271.845,-152.117 265.439,-160.556 272.1,-162.709"/>
</g>
<!-- ancient_summoning&#45;&gt;ghost_armor -->
<g id="edge1" class="edge"><title>ancient_summoning&#45;&gt;ghost_armor</title>
<path fill="none" stroke="#ebc72d" stroke-dasharray="1,5" d="M1254.51,-415.926C1268.66,-401.516 1284.59,-385.285 1297.82,-371.815"/>
<polygon fill="#ebc72d" stroke="#ebc72d" points="1300.35,-374.233 1304.86,-364.645 1295.35,-369.329 1300.35,-374.233"/>
</g>
<!-- hell_gate&#45;&gt;behemoth -->
<g id="edge12" class="edge"><title>hell_gate&#45;&gt;behemoth</title>
<path fill="none" stroke="#ebc72d" stroke-dasharray="1,5" d="M860.884,-317.315C868.072,-312.335 876.002,-307.571 883.946,-304.167 991.34,-258.146 1128.38,-240.924 1204.14,-234.637"/>
<polygon fill="#ebc72d" stroke="#ebc72d" points="1204.73,-238.102 1214.42,-233.821 1204.17,-231.124 1204.73,-238.102"/>
</g>
</g>
</svg>
