<?xml version="1.0" encoding="UTF-8" standalone="no"?>
<!DOCTYPE svg PUBLIC "-//W3C//DTD SVG 1.1//EN"
 "http://www.w3.org/Graphics/SVG/1.1/DTD/svg11.dtd">
<!-- Generated by graphviz version 2.38.0 (20140413.2041)
 -->
<!-- Title: test Pages: 1 -->
<svg width="519pt" height="454pt"
 viewBox="0.00 0.00 518.62 453.71" xmlns="http://www.w3.org/2000/svg" xmlns:xlink="http://www.w3.org/1999/xlink">
<g id="graph0" class="graph" transform="scale(1 1) rotate(0) translate(4 449.706)">
<title>test</title>
<polygon fill="#151515" stroke="none" points="-4,4 -4,-449.706 514.616,-449.706 514.616,4 -4,4"/>
<!-- golem -->
<g id="node1" class="node"><title>golem</title>
<g id="a_node1"><a xlink:href="magic_golem_full.html" xlink:title="Golem">
<polygon fill="none" stroke="red" points="232.069,-141.202 188.804,-153.64 145.54,-141.202 145.58,-121.077 232.029,-121.077 232.069,-141.202"/>
<text text-anchor="middle" x="188.804" y="-131.94" font-family="Times,serif" font-size="14.00" fill="#ebc72d">Golem</text>
</a>
</g>
</g>
<!-- wicker_behemoth -->
<g id="node2" class="node"><title>wicker_behemoth</title>
<g id="a_node2"><a xlink:href="magic_wicker_behemoth_full.html" xlink:title="Wicker\nBehemoth">
<polygon fill="none" stroke="red" points="127.414,-145.969 63.8043,-169.067 0.195062,-145.969 0.254434,-108.596 127.354,-108.596 127.414,-145.969"/>
<text text-anchor="middle" x="63.8043" y="-139.44" font-family="Times,serif" font-size="14.00" fill="#ebc72d">Wicker</text>
<text text-anchor="middle" x="63.8043" y="-124.44" font-family="Times,serif" font-size="14.00" fill="#ebc72d">Behemoth</text>
</a>
</g>
</g>
<!-- library -->
<g id="node3" class="node"><title>library</title>
<g id="a_node3"><a xlink:href="magic_library_full.html" xlink:title="Library">
<polygon fill="none" stroke="red" points="250.39,-228.415 204.804,-240.853 159.219,-228.415 159.261,-208.291 250.347,-208.291 250.39,-228.415"/>
<text text-anchor="middle" x="204.804" y="-219.153" font-family="Times,serif" font-size="14.00" fill="#ebc72d">Library</text>
</a>
</g>
</g>
<!-- library&#45;&gt;golem -->
<g id="edge3" class="edge"><title>library&#45;&gt;golem</title>
<path fill="none" stroke="#ebc72d" stroke-dasharray="1,5" d="M202.234,-208.162C199.959,-196.047 196.576,-178.028 193.774,-163.107"/>
<polygon fill="#ebc72d" stroke="#ebc72d" points="197.146,-162.101 191.861,-152.918 190.267,-163.393 197.146,-162.101"/>
</g>
<!-- library&#45;&gt;wicker_behemoth -->
<g id="edge5" class="edge"><title>library&#45;&gt;wicker_behemoth</title>
<path fill="none" stroke="#ebc72d" stroke-dasharray="1,5" d="M182.15,-208.162C161.677,-195.789 131.012,-177.256 106.026,-162.156"/>
<polygon fill="#ebc72d" stroke="#ebc72d" points="107.82,-159.151 97.4514,-156.974 104.2,-165.142 107.82,-159.151"/>
</g>
<!-- archmage_tower -->
<g id="node4" class="node"><title>archmage_tower</title>
<g id="a_node4"><a xlink:href="magic_archmage_tower_full.html" xlink:title="Archmage\nTower">
<polygon fill="none" stroke="red" points="379.662,-145.969 314.804,-169.067 249.947,-145.969 250.008,-108.596 379.601,-108.596 379.662,-145.969"/>
<text text-anchor="middle" x="314.804" y="-139.44" font-family="Times,serif" font-size="14.00" fill="#ebc72d">Archmage</text>
<text text-anchor="middle" x="314.804" y="-124.44" font-family="Times,serif" font-size="14.00" fill="#ebc72d">Tower</text>
</a>
</g>
</g>
<!-- library&#45;&gt;archmage_tower -->
<g id="edge2" class="edge"><title>library&#45;&gt;archmage_tower</title>
<path fill="none" stroke="#ebc72d" stroke-dasharray="1,5" d="M222.478,-208.162C237.396,-196.605 259.252,-179.674 277.955,-165.186"/>
<polygon fill="#ebc72d" stroke="#ebc72d" points="280.256,-167.831 286.018,-158.94 275.969,-162.297 280.256,-167.831"/>
</g>
<!-- tower_of_souls -->
<g id="node7" class="node"><title>tower_of_souls</title>
<g id="a_node7"><a xlink:href="magic_tower_of_souls_full.html" xlink:title="Tower\nOf Souls">
<polygon fill="none" stroke="red" points="510.429,-145.969 453.804,-169.067 397.18,-145.969 397.232,-108.596 510.376,-108.596 510.429,-145.969"/>
<text text-anchor="middle" x="453.804" y="-139.44" font-family="Times,serif" font-size="14.00" fill="#ebc72d">Tower</text>
<text text-anchor="middle" x="453.804" y="-124.44" font-family="Times,serif" font-size="14.00" fill="#ebc72d">Of Souls</text>
</a>
</g>
</g>
<!-- library&#45;&gt;tower_of_souls -->
<g id="edge4" class="edge"><title>library&#45;&gt;tower_of_souls</title>
<path fill="none" stroke="#ebc72d" stroke-dasharray="1,5" d="M250.547,-211.115C288.24,-201.69 342.784,-186.717 388.804,-168.853 395.746,-166.158 402.949,-162.99 409.921,-159.71"/>
<polygon fill="#ebc72d" stroke="#ebc72d" points="411.761,-162.708 419.24,-155.204 408.714,-156.407 411.761,-162.708"/>
</g>
<!-- power_golem -->
<g id="node8" class="node"><title>power_golem</title>
<g id="a_node8"><a xlink:href="magic_power_golem_full.html" xlink:title="Power\nGolem">
<polygon fill="none" stroke="red" points="362.201,-43.543 314.804,-66.641 267.408,-43.543 267.452,-6.16955 362.156,-6.16955 362.201,-43.543"/>
<text text-anchor="middle" x="314.804" y="-37.0132" font-family="Times,serif" font-size="14.00" fill="#ebc72d">Power</text>
<text text-anchor="middle" x="314.804" y="-22.0132" font-family="Times,serif" font-size="14.00" fill="#ebc72d">Golem</text>
</a>
</g>
</g>
<!-- archmage_tower&#45;&gt;power_golem -->
<g id="edge1" class="edge"><title>archmage_tower&#45;&gt;power_golem</title>
<path fill="none" stroke="#ebc72d" stroke-dasharray="1,5" d="M314.804,-108.516C314.804,-98.8268 314.804,-87.5693 314.804,-76.7922"/>
<polygon fill="#ebc72d" stroke="#ebc72d" points="318.304,-76.6736 314.804,-66.6736 311.304,-76.6737 318.304,-76.6736"/>
</g>
<!-- mage_tower -->
<g id="node5" class="node"><title>mage_tower</title>
<g id="a_node5"><a xlink:href="magic_mage_tower_full.html" xlink:title="Mage\nTower">
<polygon fill="none" stroke="red" points="320.204,-422.822 274.804,-445.92 229.405,-422.822 229.447,-385.449 320.161,-385.449 320.204,-422.822"/>
<text text-anchor="middle" x="274.804" y="-416.293" font-family="Times,serif" font-size="14.00" fill="#ebc72d">Mage</text>
<text text-anchor="middle" x="274.804" y="-401.293" font-family="Times,serif" font-size="14.00" fill="#ebc72d">Tower</text>
</a>
</g>
</g>
<!-- mage_tower&#45;&gt;wicker_behemoth -->
<g id="edge10" class="edge"><title>mage_tower&#45;&gt;wicker_behemoth</title>
<path fill="none" stroke="#ebc72d" stroke-dasharray="1,5" d="M229.427,-397.452C192.134,-382.869 143.455,-355.792 130.804,-311.066"/>
<path fill="none" stroke="#ebc72d" stroke-dasharray="1,5" d="M130.804,-309.066C117.302,-261.328 95.6986,-208.418 80.6876,-173.961"/>
<polygon fill="#ebc72d" stroke="#ebc72d" points="83.868,-172.498 76.6408,-164.751 77.4594,-175.314 83.868,-172.498"/>
</g>
<!-- mage_tower&#45;&gt;library -->
<g id="edge7" class="edge"><title>mage_tower&#45;&gt;library</title>
<path fill="none" stroke="#ebc72d" stroke-dasharray="1,5" d="M130.804,-309.066C122.718,-280.478 150.172,-255.861 173.901,-240.54"/>
<polygon fill="#ebc72d" stroke="#ebc72d" points="176.03,-243.341 182.731,-235.134 172.375,-237.37 176.03,-243.341"/>
</g>
<!-- energy_source -->
<g id="node6" class="node"><title>energy_source</title>
<g id="a_node6"><a xlink:href="magic_energy_source_full.html" xlink:title="Energy\nSource">
<polygon fill="none" stroke="red" points="256.696,-320.396 207.804,-343.494 158.913,-320.396 158.958,-283.022 256.65,-283.022 256.696,-320.396"/>
<text text-anchor="middle" x="207.804" y="-313.866" font-family="Times,serif" font-size="14.00" fill="#ebc72d">Energy</text>
<text text-anchor="middle" x="207.804" y="-298.866" font-family="Times,serif" font-size="14.00" fill="#ebc72d">Source</text>
</a>
</g>
</g>
<!-- mage_tower&#45;&gt;energy_source -->
<g id="edge6" class="edge"><title>mage_tower&#45;&gt;energy_source</title>
<path fill="none" stroke="#ebc72d" stroke-dasharray="1,5" d="M257.376,-385.369C249.043,-372.878 238.971,-357.781 230.088,-344.467"/>
<polygon fill="#ebc72d" stroke="#ebc72d" points="232.914,-342.397 224.453,-336.021 227.091,-346.282 232.914,-342.397"/>
</g>
<!-- mage_tower&#45;&gt;tower_of_souls -->
<g id="edge9" class="edge"><title>mage_tower&#45;&gt;tower_of_souls</title>
<path fill="none" stroke="#ebc72d" stroke-dasharray="1,5" d="M320.235,-401.57C352.487,-392.103 394.111,-374.504 417.804,-343.279 454.154,-295.374 458.588,-223.288 457.156,-178.152"/>
<polygon fill="#ebc72d" stroke="#ebc72d" points="460.651,-177.96 456.727,-168.119 453.657,-178.259 460.651,-177.96"/>
</g>
<!-- summoner_guild -->
<g id="node9" class="node"><title>summoner_guild</title>
<g id="a_node9"><a xlink:href="magic_summoner_guild_full.html" xlink:title="Summoner\nGuild">
<polygon fill="none" stroke="red" points="408.906,-320.396 341.804,-343.494 274.703,-320.396 274.765,-283.022 408.843,-283.022 408.906,-320.396"/>
<text text-anchor="middle" x="341.804" y="-313.866" font-family="Times,serif" font-size="14.00" fill="#ebc72d">Summoner</text>
<text text-anchor="middle" x="341.804" y="-298.866" font-family="Times,serif" font-size="14.00" fill="#ebc72d">Guild</text>
</a>
</g>
</g>
<!-- mage_tower&#45;&gt;summoner_guild -->
<g id="edge8" class="edge"><title>mage_tower&#45;&gt;summoner_guild</title>
<path fill="none" stroke="#ebc72d" stroke-dasharray="1,5" d="M292.233,-385.369C300.172,-373.469 309.689,-359.205 318.252,-346.369"/>
<polygon fill="#ebc72d" stroke="#ebc72d" points="321.358,-348.019 323.997,-337.758 315.535,-344.134 321.358,-348.019"/>
</g>
<!-- summoner_guild&#45;&gt;library -->
<g id="edge11" class="edge"><title>summoner_guild&#45;&gt;library</title>
<path fill="none" stroke="#ebc72d" stroke-dasharray="1,5" d="M299.582,-282.804C277.727,-269.21 251.666,-253.001 232.408,-241.022"/>
<polygon fill="#ebc72d" stroke="#ebc72d" points="234.154,-237.987 223.814,-235.677 230.457,-243.931 234.154,-237.987"/>
</g>
</g>
</svg>
