<?xml version="1.0" encoding="UTF-8" standalone="no"?>
<!DOCTYPE svg PUBLIC "-//W3C//DTD SVG 1.1//EN"
 "http://www.w3.org/Graphics/SVG/1.1/DTD/svg11.dtd">
<!-- Generated by graphviz version 2.38.0 (20140413.2041)
 -->
<!-- Title: test Pages: 1 -->
<svg width="1472pt" height="675pt"
 viewBox="0.00 0.00 1472.04 674.59" xmlns="http://www.w3.org/2000/svg" xmlns:xlink="http://www.w3.org/1999/xlink">
<g id="graph0" class="graph" transform="scale(1 1) rotate(0) translate(4 670.593)">
<title>test</title>
<polygon fill="#151515" stroke="none" points="-4,4 -4,-670.593 1468.04,-670.593 1468.04,4 -4,4"/>
<!-- archmage -->
<g id="node1" class="node"><title>archmage</title>
<g id="a_node1"><a xlink:href="magic_archmage_full.html" xlink:title="Archmage">
<ellipse fill="none" stroke="magenta" cx="48.0957" cy="-230.167" rx="48.1917" ry="18"/>
<text text-anchor="middle" x="48.0957" y="-226.467" font-family="Times,serif" font-size="14.00" fill="#ebc72d">Archmage</text>
</a>
</g>
</g>
<!-- evil_dragon -->
<g id="node2" class="node"><title>evil_dragon</title>
<g id="a_node2"><a xlink:href="magic_evil_dragon_full.html" xlink:title="Evil\nDragon">
<ellipse fill="none" stroke="magenta" cx="827.096" cy="-26.8701" rx="40.1111" ry="26.7407"/>
<text text-anchor="middle" x="827.096" y="-30.6701" font-family="Times,serif" font-size="14.00" fill="#ebc72d">Evil</text>
<text text-anchor="middle" x="827.096" y="-15.6701" font-family="Times,serif" font-size="14.00" fill="#ebc72d">Dragon</text>
</a>
</g>
</g>
<!-- golem -->
<g id="node3" class="node"><title>golem</title>
<g id="a_node3"><a xlink:href="magic_golem_full.html" xlink:title="Golem">
<polygon fill="none" stroke="red" points="443.36,-347.729 400.096,-360.167 356.831,-347.729 356.872,-327.604 443.32,-327.604 443.36,-347.729"/>
<text text-anchor="middle" x="400.096" y="-338.467" font-family="Times,serif" font-size="14.00" fill="#ebc72d">Golem</text>
</a>
</g>
</g>
<!-- power_golem -->
<g id="node15" class="node"><title>power_golem</title>
<g id="a_node15"><a xlink:href="magic_power_golem_full.html" xlink:title="Power\nGolem">
<polygon fill="none" stroke="red" points="314.492,-133.283 267.096,-156.381 219.699,-133.283 219.744,-95.9097 314.448,-95.9097 314.492,-133.283"/>
<text text-anchor="middle" x="267.096" y="-126.753" font-family="Times,serif" font-size="14.00" fill="#ebc72d">Power</text>
<text text-anchor="middle" x="267.096" y="-111.753" font-family="Times,serif" font-size="14.00" fill="#ebc72d">Golem</text>
</a>
</g>
</g>
<!-- golem&#45;&gt;power_golem -->
<g id="edge8" class="edge"><title>golem&#45;&gt;power_golem</title>
<path fill="none" stroke="#ebc72d" stroke-dasharray="5,2" d="M391.776,-327.579C371.218,-294.004 317.535,-206.33 287.752,-157.689"/>
<polygon fill="#ebc72d" stroke="#ebc72d" points="290.689,-155.783 282.482,-149.083 284.719,-159.439 290.689,-155.783"/>
</g>
<!-- wicker_behemoth -->
<g id="node4" class="node"><title>wicker_behemoth</title>
<g id="a_node4"><a xlink:href="magic_wicker_behemoth_full.html" xlink:title="Wicker\nBehemoth">
<polygon fill="none" stroke="red" points="1155.71,-240.496 1092.1,-263.594 1028.49,-240.496 1028.55,-203.123 1155.65,-203.123 1155.71,-240.496"/>
<text text-anchor="middle" x="1092.1" y="-233.967" font-family="Times,serif" font-size="14.00" fill="#ebc72d">Wicker</text>
<text text-anchor="middle" x="1092.1" y="-218.967" font-family="Times,serif" font-size="14.00" fill="#ebc72d">Behemoth</text>
</a>
</g>
</g>
<!-- behemoth -->
<g id="node5" class="node"><title>behemoth</title>
<g id="a_node5"><a xlink:href="magic_behemoth_full.html" xlink:title="Behemoth">
<ellipse fill="none" stroke="magenta" cx="1092.1" cy="-122.953" rx="47.3916" ry="18"/>
<text text-anchor="middle" x="1092.1" y="-119.253" font-family="Times,serif" font-size="14.00" fill="#ebc72d">Behemoth</text>
</a>
</g>
</g>
<!-- wicker_behemoth&#45;&gt;behemoth -->
<g id="edge38" class="edge"><title>wicker_behemoth&#45;&gt;behemoth</title>
<path fill="none" stroke="#ebc72d" stroke-dasharray="5,2" d="M1092.1,-202.888C1092.1,-187.162 1092.1,-167.206 1092.1,-151.295"/>
<polygon fill="#ebc72d" stroke="#ebc72d" points="1095.6,-151.027 1092.1,-141.027 1088.6,-151.027 1095.6,-151.027"/>
</g>
<!-- library -->
<g id="node6" class="node"><title>library</title>
<g id="a_node6"><a xlink:href="magic_library_full.html" xlink:title="Library">
<polygon fill="none" stroke="red" points="519.681,-459.729 474.096,-472.167 428.51,-459.729 428.553,-439.604 519.639,-439.604 519.681,-459.729"/>
<text text-anchor="middle" x="474.096" y="-450.467" font-family="Times,serif" font-size="14.00" fill="#ebc72d">Library</text>
</a>
</g>
</g>
<!-- library&#45;&gt;golem -->
<g id="edge24" class="edge"><title>library&#45;&gt;golem</title>
<path fill="none" stroke="#ebc72d" stroke-dasharray="1,5" d="M464.724,-439.235C452.35,-420.841 430.398,-388.211 415.55,-366.14"/>
<polygon fill="#ebc72d" stroke="#ebc72d" points="418.347,-364.027 409.862,-357.683 412.539,-367.934 418.347,-364.027"/>
</g>
<!-- archmage_tower -->
<g id="node7" class="node"><title>archmage_tower</title>
<g id="a_node7"><a xlink:href="magic_archmage_tower_full.html" xlink:title="Archmage\nTower">
<polygon fill="none" stroke="red" points="158.953,-352.496 94.0957,-375.594 29.2385,-352.496 29.299,-315.123 158.892,-315.123 158.953,-352.496"/>
<text text-anchor="middle" x="94.0957" y="-345.967" font-family="Times,serif" font-size="14.00" fill="#ebc72d">Archmage</text>
<text text-anchor="middle" x="94.0957" y="-330.967" font-family="Times,serif" font-size="14.00" fill="#ebc72d">Tower</text>
</a>
</g>
</g>
<!-- library&#45;&gt;archmage_tower -->
<g id="edge20" class="edge"><title>library&#45;&gt;archmage_tower</title>
<path fill="none" stroke="#ebc72d" stroke-dasharray="1,5" d="M456.446,-439.604C444.989,-431.501 429.391,-421.732 414.096,-416.167 310.257,-378.386 273.511,-413.293 168.096,-380.167 158.023,-377.001 147.634,-372.603 137.94,-367.941"/>
<polygon fill="#ebc72d" stroke="#ebc72d" points="139.402,-364.759 128.892,-363.422 136.274,-371.021 139.402,-364.759"/>
</g>
<!-- drake_rider -->
<g id="node8" class="node"><title>drake_rider</title>
<g id="a_node8"><a xlink:href="magic_drake_rider_full.html" xlink:title="Drake\nRider">
<ellipse fill="none" stroke="magenta" cx="805.096" cy="-342.167" rx="35.2113" ry="26.7407"/>
<text text-anchor="middle" x="805.096" y="-345.967" font-family="Times,serif" font-size="14.00" fill="#ebc72d">Drake</text>
<text text-anchor="middle" x="805.096" y="-330.967" font-family="Times,serif" font-size="14.00" fill="#ebc72d">Rider</text>
</a>
</g>
</g>
<!-- library&#45;&gt;drake_rider -->
<g id="edge21" class="edge"><title>library&#45;&gt;drake_rider</title>
<path fill="none" stroke="#ebc72d" stroke-dasharray="1,5" d="M492.028,-439.485C503.47,-431.442 518.948,-421.781 534.096,-416.167 629.878,-380.667 668.17,-422.586 761.096,-380.167 766.563,-377.671 771.893,-374.302 776.848,-370.608"/>
<polygon fill="#ebc72d" stroke="#ebc72d" points="779.216,-373.194 784.789,-364.184 774.814,-367.752 779.216,-373.194"/>
</g>
<!-- tower_of_souls -->
<g id="node14" class="node"><title>tower_of_souls</title>
<g id="a_node14"><a xlink:href="magic_tower_of_souls_full.html" xlink:title="Tower\nOf Souls">
<polygon fill="none" stroke="red" points="971.721,-352.496 915.096,-375.594 858.471,-352.496 858.524,-315.123 971.668,-315.123 971.721,-352.496"/>
<text text-anchor="middle" x="915.096" y="-345.967" font-family="Times,serif" font-size="14.00" fill="#ebc72d">Tower</text>
<text text-anchor="middle" x="915.096" y="-330.967" font-family="Times,serif" font-size="14.00" fill="#ebc72d">Of Souls</text>
</a>
</g>
</g>
<!-- library&#45;&gt;tower_of_souls -->
<g id="edge26" class="edge"><title>library&#45;&gt;tower_of_souls</title>
<path fill="none" stroke="#ebc72d" stroke-dasharray="1,5" d="M491.686,-439.437C503.12,-431.269 518.714,-421.49 534.096,-416.167 667.258,-370.08 715.003,-423.471 849.096,-380.167 858.281,-377.2 867.63,-372.889 876.293,-368.249"/>
<polygon fill="#ebc72d" stroke="#ebc72d" points="878.032,-371.286 885.036,-363.337 874.604,-365.183 878.032,-371.286"/>
</g>
<!-- energy_compression -->
<g id="node22" class="node"><title>energy_compression</title>
<g id="a_node22"><a xlink:href="magic_energy_compression_full.html" xlink:title="Energy\nCompression">
<polygon fill="none" stroke="green" points="646.138,-380.167 499.719,-380.167 462.053,-304.167 608.472,-304.167 646.138,-380.167"/>
<text text-anchor="middle" x="554.096" y="-345.967" font-family="Times,serif" font-size="14.00" fill="#ebc72d">Energy</text>
<text text-anchor="middle" x="554.096" y="-330.967" font-family="Times,serif" font-size="14.00" fill="#ebc72d">Compression</text>
</a>
</g>
</g>
<!-- library&#45;&gt;energy_compression -->
<g id="edge22" class="edge"><title>library&#45;&gt;energy_compression</title>
<path fill="none" stroke="#ebc72d" d="M484.228,-439.235C493.489,-426.501 507.712,-406.944 520.915,-388.79"/>
<polygon fill="#ebc72d" stroke="#ebc72d" points="523.836,-390.724 526.888,-380.578 518.175,-386.607 523.836,-390.724"/>
</g>
<!-- energy_sharpening -->
<g id="node24" class="node"><title>energy_sharpening</title>
<g id="a_node24"><a xlink:href="magic_energy_sharpening_full.html" xlink:title="Energy\nSharpening">
<polygon fill="none" stroke="green" points="338.829,-380.167 210.4,-380.167 177.362,-304.167 305.791,-304.167 338.829,-380.167"/>
<text text-anchor="middle" x="258.096" y="-345.967" font-family="Times,serif" font-size="14.00" fill="#ebc72d">Energy</text>
<text text-anchor="middle" x="258.096" y="-330.967" font-family="Times,serif" font-size="14.00" fill="#ebc72d">Sharpening</text>
</a>
</g>
</g>
<!-- library&#45;&gt;energy_sharpening -->
<g id="edge23" class="edge"><title>library&#45;&gt;energy_sharpening</title>
<path fill="none" stroke="#ebc72d" d="M453.34,-439.551C441.943,-432.283 427.448,-423.377 414.096,-416.167 392.915,-404.729 369.63,-393.267 347.658,-382.926"/>
<polygon fill="#ebc72d" stroke="#ebc72d" points="348.873,-379.63 338.332,-378.566 345.909,-385.971 348.873,-379.63"/>
</g>
<!-- hell_gate -->
<g id="node25" class="node"><title>hell_gate</title>
<g id="a_node25"><a xlink:href="magic_hell_gate_full.html" xlink:title="Hell\nGate">
<polygon fill="none" stroke="green" points="751.683,-380.167 682.345,-380.167 664.508,-304.167 733.846,-304.167 751.683,-380.167"/>
<text text-anchor="middle" x="708.096" y="-345.967" font-family="Times,serif" font-size="14.00" fill="#ebc72d">Hell</text>
<text text-anchor="middle" x="708.096" y="-330.967" font-family="Times,serif" font-size="14.00" fill="#ebc72d">Gate</text>
</a>
</g>
</g>
<!-- library&#45;&gt;hell_gate -->
<g id="edge25" class="edge"><title>library&#45;&gt;hell_gate</title>
<path fill="none" stroke="#ebc72d" d="M493.373,-439.467C504.798,-431.817 519.798,-422.567 534.096,-416.167 585.307,-393.243 604.557,-404.537 655.096,-380.167 660.15,-377.729 665.251,-374.833 670.189,-371.749"/>
<polygon fill="#ebc72d" stroke="#ebc72d" points="672.419,-374.472 678.854,-366.056 668.575,-368.622 672.419,-374.472"/>
</g>
<!-- archmage_tower&#45;&gt;archmage -->
<g id="edge2" class="edge"><title>archmage_tower&#45;&gt;archmage</title>
<path fill="none" stroke="#ebc72d" stroke-dasharray="1,5" d="M83.1944,-315.098C75.9542,-297.785 66.4779,-275.124 59.197,-257.713"/>
<polygon fill="#ebc72d" stroke="#ebc72d" points="62.2845,-256.024 55.1974,-248.149 55.8264,-258.725 62.2845,-256.024"/>
</g>
<!-- dragon_call -->
<g id="node20" class="node"><title>dragon_call</title>
<g id="a_node20"><a xlink:href="magic_dragon_call_full.html" xlink:title="Dragon\nCall">
<polygon fill="none" stroke="green" points="723.286,-268.167 629.128,-268.167 604.906,-192.167 699.064,-192.167 723.286,-268.167"/>
<text text-anchor="middle" x="664.096" y="-233.967" font-family="Times,serif" font-size="14.00" fill="#ebc72d">Dragon</text>
<text text-anchor="middle" x="664.096" y="-218.967" font-family="Times,serif" font-size="14.00" fill="#ebc72d">Call</text>
</a>
</g>
</g>
<!-- archmage_tower&#45;&gt;dragon_call -->
<g id="edge3" class="edge"><title>archmage_tower&#45;&gt;dragon_call</title>
<path fill="none" stroke="#ebc72d" d="M140.933,-314.979C149.754,-310.85 159.053,-307.012 168.096,-304.167 322.543,-255.562 514.437,-239.049 607.8,-233.653"/>
<polygon fill="#ebc72d" stroke="#ebc72d" points="608.087,-237.142 617.877,-233.092 607.698,-230.153 608.087,-237.142"/>
</g>
<!-- golem_power -->
<g id="node21" class="node"><title>golem_power</title>
<g id="a_node21"><a xlink:href="magic_golem_power_full.html" xlink:title="Golem\nPower">
<polygon fill="none" stroke="green" points="263.065,-268.167 174.03,-268.167 151.126,-192.167 240.161,-192.167 263.065,-268.167"/>
<text text-anchor="middle" x="207.096" y="-233.967" font-family="Times,serif" font-size="14.00" fill="#ebc72d">Golem</text>
<text text-anchor="middle" x="207.096" y="-218.967" font-family="Times,serif" font-size="14.00" fill="#ebc72d">Power</text>
</a>
</g>
</g>
<!-- archmage_tower&#45;&gt;golem_power -->
<g id="edge4" class="edge"><title>archmage_tower&#45;&gt;golem_power</title>
<path fill="none" stroke="#ebc72d" d="M120.875,-315.098C134.224,-302.104 150.667,-286.097 165.601,-271.559"/>
<polygon fill="#ebc72d" stroke="#ebc72d" points="168.068,-274.043 172.792,-264.56 163.185,-269.027 168.068,-274.043"/>
</g>
<!-- initiate -->
<g id="node9" class="node"><title>initiate</title>
<g id="a_node9"><a xlink:href="magic_initiate_full.html" xlink:title="Initiate">
<ellipse fill="none" stroke="magenta" cx="1230.1" cy="-648.593" rx="35.9954" ry="18"/>
<text text-anchor="middle" x="1230.1" y="-644.893" font-family="Times,serif" font-size="14.00" fill="#ebc72d">Initiate</text>
</a>
</g>
</g>
<!-- initiate&#45;&gt;golem -->
<g id="edge14" class="edge"><title>initiate&#45;&gt;golem</title>
<path fill="none" stroke="#ebc72d" stroke-width="2" d="M400.096,-453.167C378.775,-431.245 384.126,-393.711 391.125,-368.672"/>
<polygon fill="#ebc72d" stroke="#ebc72d" stroke-width="2" points="394.57,-369.374 394.152,-358.788 387.877,-367.324 394.57,-369.374"/>
</g>
<!-- initiate&#45;&gt;wicker_behemoth -->
<g id="edge19" class="edge"><title>initiate&#45;&gt;wicker_behemoth</title>
<path fill="none" stroke="#ebc72d" stroke-width="2" d="M1231.19,-630.411C1234.82,-568.838 1244.37,-359.935 1211.1,-304.167 1196.79,-280.187 1171.26,-263.006 1147.5,-251.361"/>
<polygon fill="#ebc72d" stroke="#ebc72d" stroke-width="2" points="1148.71,-248.062 1138.17,-247.013 1145.76,-254.408 1148.71,-248.062"/>
</g>
<!-- initiate&#45;&gt;library -->
<g id="edge15" class="edge"><title>initiate&#45;&gt;library</title>
<path fill="none" stroke="#ebc72d" stroke-width="2" d="M474.096,-560.38C448.18,-545.28 455.51,-506.264 464.099,-480.225"/>
<polygon fill="#ebc72d" stroke="#ebc72d" stroke-width="2" points="467.459,-481.222 467.511,-470.628 460.863,-478.877 467.459,-481.222"/>
</g>
<!-- initiate&#45;&gt;archmage_tower -->
<g id="edge11" class="edge"><title>initiate&#45;&gt;archmage_tower</title>
<path fill="none" stroke="#ebc72d" stroke-width="2" d="M474.096,-560.38C442.227,-537.995 440.323,-524.817 419.096,-492.167 409.019,-476.668 412.984,-468.418 400.096,-455.167"/>
<path fill="none" stroke="#ebc72d" stroke-width="2" d="M400.096,-453.167C324.73,-375.678 268.309,-420.687 168.096,-380.167 158.708,-376.371 148.878,-371.859 139.563,-367.315"/>
<polygon fill="#ebc72d" stroke="#ebc72d" stroke-width="2" points="140.966,-364.103 130.454,-362.784 137.848,-370.371 140.966,-364.103"/>
</g>
<!-- mage_tower -->
<g id="node11" class="node"><title>mage_tower</title>
<g id="a_node11"><a xlink:href="magic_mage_tower_full.html" xlink:title="Mage\nTower">
<polygon fill="none" stroke="red" points="1348.5,-571.71 1303.1,-594.808 1257.7,-571.71 1257.74,-534.336 1348.45,-534.336 1348.5,-571.71"/>
<text text-anchor="middle" x="1303.1" y="-565.18" font-family="Times,serif" font-size="14.00" fill="#ebc72d">Mage</text>
<text text-anchor="middle" x="1303.1" y="-550.18" font-family="Times,serif" font-size="14.00" fill="#ebc72d">Tower</text>
</a>
</g>
</g>
<!-- initiate&#45;&gt;mage_tower -->
<g id="edge16" class="edge"><title>initiate&#45;&gt;mage_tower</title>
<path fill="none" stroke="#ebc72d" stroke-width="2" d="M1250.6,-623.662C1258.76,-614.128 1268.27,-603.038 1276.92,-592.933"/>
<polygon fill="#ebc72d" stroke="#ebc72d" stroke-width="2" points="1247.67,-621.694 1243.83,-631.565 1252.99,-626.248 1247.67,-621.694"/>
<polygon fill="#ebc72d" stroke="#ebc72d" stroke-width="2" points="1279.79,-594.961 1283.64,-585.089 1274.48,-590.407 1279.79,-594.961"/>
</g>
<!-- energy_source -->
<g id="node12" class="node"><title>energy_source</title>
<g id="a_node12"><a xlink:href="magic_energy_source_full.html" xlink:title="Energy\nSource">
<polygon fill="none" stroke="red" points="1463.99,-571.71 1415.1,-594.808 1366.2,-571.71 1366.25,-534.336 1463.94,-534.336 1463.99,-571.71"/>
<text text-anchor="middle" x="1415.1" y="-565.18" font-family="Times,serif" font-size="14.00" fill="#ebc72d">Energy</text>
<text text-anchor="middle" x="1415.1" y="-550.18" font-family="Times,serif" font-size="14.00" fill="#ebc72d">Source</text>
</a>
</g>
</g>
<!-- initiate&#45;&gt;energy_source -->
<g id="edge13" class="edge"><title>initiate&#45;&gt;energy_source</title>
<path fill="none" stroke="#ebc72d" stroke-width="2" d="M1257.74,-637.089C1283.73,-626.97 1323.55,-610.844 1357.1,-594.593 1362.95,-591.759 1369.04,-588.608 1374.97,-585.419"/>
<polygon fill="#ebc72d" stroke="#ebc72d" stroke-width="2" points="1377.03,-588.283 1384.13,-580.416 1373.67,-582.141 1377.03,-588.283"/>
</g>
<!-- initiate&#45;&gt;tower_of_souls -->
<g id="edge18" class="edge"><title>initiate&#45;&gt;tower_of_souls</title>
<path fill="none" stroke="#ebc72d" stroke-width="2" d="M474.096,-560.38C394.211,-513.833 767.064,-422.817 849.096,-380.167 856.971,-376.072 865.287,-371.561 873.262,-367.139"/>
<polygon fill="#ebc72d" stroke="#ebc72d" stroke-width="2" points="875.059,-370.145 882.081,-362.211 871.644,-364.034 875.059,-370.145"/>
</g>
<!-- summoner_guild -->
<g id="node16" class="node"><title>summoner_guild</title>
<g id="a_node16"><a xlink:href="magic_summoner_guild_full.html" xlink:title="Summoner\nGuild">
<polygon fill="none" stroke="red" points="1105.2,-571.71 1038.1,-594.808 970.994,-571.71 971.057,-534.336 1105.13,-534.336 1105.2,-571.71"/>
<text text-anchor="middle" x="1038.1" y="-565.18" font-family="Times,serif" font-size="14.00" fill="#ebc72d">Summoner</text>
<text text-anchor="middle" x="1038.1" y="-550.18" font-family="Times,serif" font-size="14.00" fill="#ebc72d">Guild</text>
</a>
</g>
</g>
<!-- initiate&#45;&gt;summoner_guild -->
<g id="edge17" class="edge"><title>initiate&#45;&gt;summoner_guild</title>
<path fill="none" stroke="#ebc72d" stroke-width="2" d="M1204.2,-636.101C1174.67,-622.992 1125.66,-601.245 1088.52,-584.758"/>
<polygon fill="#ebc72d" stroke="#ebc72d" stroke-width="2" points="1089.91,-581.546 1079.35,-580.689 1087.07,-587.945 1089.91,-581.546"/>
</g>
<!-- battlemage -->
<g id="node17" class="node"><title>battlemage</title>
<g id="a_node17"><a xlink:href="magic_battlemage_full.html" xlink:title="Battlemage">
<ellipse fill="none" stroke="magenta" cx="161.096" cy="-454.167" rx="51.1914" ry="18"/>
<text text-anchor="middle" x="161.096" y="-450.467" font-family="Times,serif" font-size="14.00" fill="#ebc72d">Battlemage</text>
</a>
</g>
</g>
<!-- initiate&#45;&gt;battlemage -->
<g id="edge12" class="edge"><title>initiate&#45;&gt;battlemage</title>
<path fill="none" stroke="#ebc72d" stroke-dasharray="5,2" d="M1194.21,-647.32C1061.36,-645.74 598.774,-635.026 474.096,-562.38"/>
<path fill="none" stroke="#ebc72d" stroke-dasharray="5,2" d="M474.096,-560.38C389.699,-511.204 278.993,-480.88 214.385,-466.098"/>
<polygon fill="#ebc72d" stroke="#ebc72d" points="214.947,-462.637 204.423,-463.859 213.412,-469.467 214.947,-462.637"/>
</g>
<!-- ghost_armor -->
<g id="node10" class="node"><title>ghost_armor</title>
<g id="a_node10"><a xlink:href="magic_ghost_armor_full.html" xlink:title="Ghost\nArmor">
<ellipse fill="none" stroke="magenta" cx="1165.1" cy="-342.167" rx="37.4533" ry="26.7407"/>
<text text-anchor="middle" x="1165.1" y="-345.967" font-family="Times,serif" font-size="14.00" fill="#ebc72d">Ghost</text>
<text text-anchor="middle" x="1165.1" y="-330.967" font-family="Times,serif" font-size="14.00" fill="#ebc72d">Armor</text>
</a>
</g>
</g>
<!-- daemon -->
<g id="node13" class="node"><title>daemon</title>
<g id="a_node13"><a xlink:href="magic_daemon_full.html" xlink:title="Daemon">
<ellipse fill="none" stroke="magenta" cx="1069.1" cy="-342.167" rx="40.8928" ry="18"/>
<text text-anchor="middle" x="1069.1" y="-338.467" font-family="Times,serif" font-size="14.00" fill="#ebc72d">Daemon</text>
</a>
</g>
</g>
<!-- summoner_guild&#45;&gt;library -->
<g id="edge36" class="edge"><title>summoner_guild&#45;&gt;library</title>
<path fill="none" stroke="#ebc72d" stroke-dasharray="1,5" d="M970.904,-547.845C855.239,-526.268 621.314,-482.63 521.243,-463.962"/>
<polygon fill="#ebc72d" stroke="#ebc72d" points="521.605,-460.469 511.133,-462.076 520.321,-467.35 521.605,-460.469"/>
</g>
<!-- summoner -->
<g id="node18" class="node"><title>summoner</title>
<g id="a_node18"><a xlink:href="magic_summoner_full.html" xlink:title="Summoner">
<ellipse fill="none" stroke="magenta" cx="960.096" cy="-454.167" rx="50.0912" ry="18"/>
<text text-anchor="middle" x="960.096" y="-450.467" font-family="Times,serif" font-size="14.00" fill="#ebc72d">Summoner</text>
</a>
</g>
</g>
<!-- summoner_guild&#45;&gt;summoner -->
<g id="edge37" class="edge"><title>summoner_guild&#45;&gt;summoner</title>
<path fill="none" stroke="#ebc72d" d="M1018.61,-534.101C1006.43,-517.668 990.824,-496.615 978.792,-480.386"/>
<polygon fill="#ebc72d" stroke="#ebc72d" points="981.287,-477.874 972.52,-471.925 975.664,-482.043 981.287,-477.874"/>
</g>
<!-- ancient_summoning -->
<g id="node23" class="node"><title>ancient_summoning</title>
<g id="a_node23"><a xlink:href="magic_ancient_summoning_full.html" xlink:title="Ancient\nSummoning">
<polygon fill="none" stroke="green" points="1202.27,-492.167 1063.6,-492.167 1027.92,-416.167 1166.6,-416.167 1202.27,-492.167"/>
<text text-anchor="middle" x="1115.1" y="-457.967" font-family="Times,serif" font-size="14.00" fill="#ebc72d">Ancient</text>
<text text-anchor="middle" x="1115.1" y="-442.967" font-family="Times,serif" font-size="14.00" fill="#ebc72d">Summoning</text>
</a>
</g>
</g>
<!-- summoner_guild&#45;&gt;ancient_summoning -->
<g id="edge35" class="edge"><title>summoner_guild&#45;&gt;ancient_summoning</title>
<path fill="none" stroke="#ebc72d" d="M1057.33,-534.101C1064.78,-523.914 1073.54,-511.952 1081.95,-500.464"/>
<polygon fill="#ebc72d" stroke="#ebc72d" points="1084.9,-502.351 1087.98,-492.215 1079.25,-498.217 1084.9,-502.351"/>
</g>
<!-- battlemage&#45;&gt;archmage -->
<g id="edge5" class="edge"><title>battlemage&#45;&gt;archmage</title>
<path fill="none" stroke="#ebc72d" stroke-dasharray="5,2" d="M118.642,-443.86C85.4085,-434.101 41.3706,-415.138 20.0957,-380.167 -3.21102,-341.855 16.9067,-288.542 32.9718,-257.165"/>
<polygon fill="#ebc72d" stroke="#ebc72d" points="36.1508,-258.642 37.7748,-248.172 29.9763,-255.344 36.1508,-258.642"/>
</g>
<!-- summoner&#45;&gt;golem -->
<g id="edge32" class="edge"><title>summoner&#45;&gt;golem</title>
<path fill="none" stroke="#ebc72d" stroke-dasharray="1,5" d="M909.923,-453.515C816.612,-452.545 611.483,-442.737 453.096,-380.167 442.339,-375.917 431.654,-369.092 422.725,-362.455"/>
<polygon fill="#ebc72d" stroke="#ebc72d" points="424.795,-359.631 414.758,-356.238 420.489,-365.149 424.795,-359.631"/>
</g>
<!-- summoner&#45;&gt;wicker_behemoth -->
<g id="edge34" class="edge"><title>summoner&#45;&gt;wicker_behemoth</title>
<path fill="none" stroke="#ebc72d" stroke-dasharray="1,5" d="M1000.1,-341.167C1006.72,-323.907 1008.21,-319.105 1019.1,-304.167 1030.3,-288.79 1044.77,-273.613 1057.87,-261.113"/>
<polygon fill="#ebc72d" stroke="#ebc72d" points="1060.47,-263.47 1065.38,-254.082 1055.69,-258.358 1060.47,-263.47"/>
</g>
<!-- summoner&#45;&gt;drake_rider -->
<g id="edge30" class="edge"><title>summoner&#45;&gt;drake_rider</title>
<path fill="none" stroke="#ebc72d" stroke-dasharray="5,2" d="M935.723,-438.295C912.854,-424.072 877.946,-401.668 849.096,-380.167 844.694,-376.886 840.153,-373.308 835.735,-369.71"/>
<polygon fill="#ebc72d" stroke="#ebc72d" points="837.906,-366.963 827.974,-363.275 833.438,-372.352 837.906,-366.963"/>
</g>
<!-- summoner&#45;&gt;ghost_armor -->
<g id="edge31" class="edge"><title>summoner&#45;&gt;ghost_armor</title>
<path fill="none" stroke="#ebc72d" d="M981.862,-437.945C992.729,-430.757 1006.27,-422.409 1019.1,-416.167 1061.57,-395.5 1077.9,-403.287 1119.1,-380.167 1124.25,-377.274 1129.41,-373.808 1134.32,-370.173"/>
<polygon fill="#ebc72d" stroke="#ebc72d" points="1136.56,-372.871 1142.3,-363.968 1132.26,-367.345 1136.56,-372.871"/>
</g>
<!-- summoner&#45;&gt;daemon -->
<g id="edge28" class="edge"><title>summoner&#45;&gt;daemon</title>
<path fill="none" stroke="#ebc72d" d="M976.179,-436.936C994.639,-418.307 1025.06,-387.604 1046.04,-366.434"/>
<polygon fill="#ebc72d" stroke="#ebc72d" points="1048.75,-368.673 1053.3,-359.106 1043.78,-363.746 1048.75,-368.673"/>
</g>
<!-- summoner&#45;&gt;tower_of_souls -->
<g id="edge33" class="edge"><title>summoner&#45;&gt;tower_of_souls</title>
<path fill="none" stroke="#ebc72d" stroke-dasharray="1,5" d="M953.064,-435.979C947.044,-421.263 938.16,-399.546 930.499,-380.819"/>
<polygon fill="#ebc72d" stroke="#ebc72d" points="933.652,-379.282 926.626,-371.351 927.173,-381.932 933.652,-379.282"/>
</g>
<!-- dragon -->
<g id="node19" class="node"><title>dragon</title>
<g id="a_node19"><a xlink:href="magic_dragon_full.html" xlink:title="Dragon">
<ellipse fill="none" stroke="magenta" cx="827.096" cy="-122.953" rx="37.0935" ry="18"/>
<text text-anchor="middle" x="827.096" y="-119.253" font-family="Times,serif" font-size="14.00" fill="#ebc72d">Dragon</text>
</a>
</g>
</g>
<!-- summoner&#45;&gt;dragon -->
<g id="edge29" class="edge"><title>summoner&#45;&gt;dragon</title>
<path fill="none" stroke="#ebc72d" d="M966.145,-435.949C973.822,-414.237 987.575,-375.799 1000.1,-343.167"/>
<path fill="none" stroke="#ebc72d" d="M1000.1,-341.167C1033.21,-254.863 919.668,-175.986 860.582,-141.827"/>
<polygon fill="#ebc72d" stroke="#ebc72d" points="862.023,-138.62 851.598,-136.734 858.571,-144.71 862.023,-138.62"/>
</g>
<!-- dragon&#45;&gt;evil_dragon -->
<g id="edge6" class="edge"><title>dragon&#45;&gt;evil_dragon</title>
<path fill="none" stroke="#ebc72d" stroke-dasharray="5,2" d="M827.096,-104.697C827.096,-93.3678 827.096,-78.123 827.096,-64.2003"/>
<polygon fill="#ebc72d" stroke="#ebc72d" points="830.596,-63.8979 827.096,-53.8979 823.596,-63.898 830.596,-63.8979"/>
</g>
<!-- dragon_call&#45;&gt;dragon -->
<g id="edge7" class="edge"><title>dragon_call&#45;&gt;dragon</title>
<path fill="none" stroke="#ebc72d" stroke-dasharray="1,5" d="M703.138,-203.965C731.909,-185.395 770.472,-160.503 796.902,-143.442"/>
<polygon fill="#ebc72d" stroke="#ebc72d" points="798.865,-146.341 805.369,-137.978 795.069,-140.46 798.865,-146.341"/>
</g>
<!-- golem_power&#45;&gt;power_golem -->
<g id="edge9" class="edge"><title>golem_power&#45;&gt;power_golem</title>
<path fill="none" stroke="#ebc72d" stroke-dasharray="1,5" d="M228.249,-192.072C234.523,-181.072 241.363,-169.077 247.531,-158.261"/>
<polygon fill="#ebc72d" stroke="#ebc72d" points="250.613,-159.922 252.527,-149.501 244.532,-156.454 250.613,-159.922"/>
</g>
<!-- ancient_summoning&#45;&gt;ghost_armor -->
<g id="edge1" class="edge"><title>ancient_summoning&#45;&gt;ghost_armor</title>
<path fill="none" stroke="#ebc72d" stroke-dasharray="1,5" d="M1132.02,-415.926C1137.7,-403.434 1144,-389.573 1149.57,-377.329"/>
<polygon fill="#ebc72d" stroke="#ebc72d" points="1152.9,-378.465 1153.85,-367.913 1146.52,-375.568 1152.9,-378.465"/>
</g>
<!-- hell_gate&#45;&gt;wicker_behemoth -->
<g id="edge10" class="edge"><title>hell_gate&#45;&gt;wicker_behemoth</title>
<path fill="none" stroke="#ebc72d" stroke-dasharray="1,5" d="M737.145,-317.86C744.615,-312.737 752.874,-307.772 761.096,-304.167 844.907,-267.414 949.042,-248.375 1017.88,-239.091"/>
<polygon fill="#ebc72d" stroke="#ebc72d" points="1018.73,-242.509 1028.19,-237.737 1017.82,-235.568 1018.73,-242.509"/>
</g>
</g>
</svg>
