<?xml version="1.0" encoding="UTF-8" standalone="no"?>
<!DOCTYPE svg PUBLIC "-//W3C//DTD SVG 1.1//EN"
 "http://www.w3.org/Graphics/SVG/1.1/DTD/svg11.dtd">
<!-- Generated by graphviz version 2.38.0 (20140413.2041)
 -->
<!-- Title: test Pages: 1 -->
<svg width="1073pt" height="428pt"
 viewBox="0.00 0.00 1072.75 428.33" xmlns="http://www.w3.org/2000/svg" xmlns:xlink="http://www.w3.org/1999/xlink">
<g id="graph0" class="graph" transform="scale(1 1) rotate(0) translate(4 424.333)">
<title>test</title>
<polygon fill="#151515" stroke="none" points="-4,4 -4,-424.333 1068.75,-424.333 1068.75,4 -4,4"/>
<!-- archmage -->
<g id="node1" class="node"><title>archmage</title>
<g id="a_node1"><a xlink:href="magic_archmage_full.html" xlink:title="Archmage">
<ellipse fill="none" stroke="magenta" cx="523.804" cy="-212.693" rx="48.1917" ry="18"/>
<text text-anchor="middle" x="523.804" y="-208.993" font-family="Times,serif" font-size="14.00" fill="#ebc72d">Archmage</text>
</a>
</g>
</g>
<!-- evil_dragon -->
<g id="node2" class="node"><title>evil_dragon</title>
<g id="a_node2"><a xlink:href="magic_evil_dragon_full.html" xlink:title="Evil\nDragon">
<ellipse fill="none" stroke="magenta" cx="736.804" cy="-26.8701" rx="40.1111" ry="26.7407"/>
<text text-anchor="middle" x="736.804" y="-30.6701" font-family="Times,serif" font-size="14.00" fill="#ebc72d">Evil</text>
<text text-anchor="middle" x="736.804" y="-15.6701" font-family="Times,serif" font-size="14.00" fill="#ebc72d">Dragon</text>
</a>
</g>
</g>
<!-- golem -->
<g id="node3" class="node"><title>golem</title>
<g id="a_node3"><a xlink:href="magic_golem_full.html" xlink:title="Golem">
<polygon fill="none" stroke="red" points="287.069,-320.682 243.804,-333.12 200.54,-320.682 200.58,-300.558 287.029,-300.558 287.069,-320.682"/>
<text text-anchor="middle" x="243.804" y="-311.42" font-family="Times,serif" font-size="14.00" fill="#ebc72d">Golem</text>
</a>
</g>
</g>
<!-- power_golem -->
<g id="node15" class="node"><title>power_golem</title>
<g id="a_node15"><a xlink:href="magic_power_golem_full.html" xlink:title="Power\nGolem">
<polygon fill="none" stroke="red" points="316.201,-223.023 268.804,-246.121 221.408,-223.023 221.452,-185.65 316.156,-185.65 316.201,-223.023"/>
<text text-anchor="middle" x="268.804" y="-216.493" font-family="Times,serif" font-size="14.00" fill="#ebc72d">Power</text>
<text text-anchor="middle" x="268.804" y="-201.493" font-family="Times,serif" font-size="14.00" fill="#ebc72d">Golem</text>
</a>
</g>
</g>
<!-- golem&#45;&gt;power_golem -->
<g id="edge8" class="edge"><title>golem&#45;&gt;power_golem</title>
<path fill="none" stroke="#ebc72d" stroke-dasharray="5,2" d="M247.28,-300.156C250.325,-287.927 254.898,-269.555 259.047,-252.888"/>
<polygon fill="#ebc72d" stroke="#ebc72d" points="262.539,-253.349 261.559,-242.8 255.747,-251.658 262.539,-253.349"/>
</g>
<!-- wicker_behemoth -->
<g id="node4" class="node"><title>wicker_behemoth</title>
<g id="a_node4"><a xlink:href="magic_wicker_behemoth_full.html" xlink:title="Wicker\nBehemoth">
<polygon fill="none" stroke="red" points="127.414,-223.023 63.8043,-246.121 0.195062,-223.023 0.254434,-185.65 127.354,-185.65 127.414,-223.023"/>
<text text-anchor="middle" x="63.8043" y="-216.493" font-family="Times,serif" font-size="14.00" fill="#ebc72d">Wicker</text>
<text text-anchor="middle" x="63.8043" y="-201.493" font-family="Times,serif" font-size="14.00" fill="#ebc72d">Behemoth</text>
</a>
</g>
</g>
<!-- behemoth -->
<g id="node5" class="node"><title>behemoth</title>
<g id="a_node5"><a xlink:href="magic_behemoth_full.html" xlink:title="Behemoth">
<ellipse fill="none" stroke="magenta" cx="155.804" cy="-116.61" rx="47.3916" ry="18"/>
<text text-anchor="middle" x="155.804" y="-112.91" font-family="Times,serif" font-size="14.00" fill="#ebc72d">Behemoth</text>
</a>
</g>
</g>
<!-- wicker_behemoth&#45;&gt;behemoth -->
<g id="edge28" class="edge"><title>wicker_behemoth&#45;&gt;behemoth</title>
<path fill="none" stroke="#ebc72d" stroke-dasharray="5,2" d="M89.4315,-185.486C103.032,-171.578 119.609,-154.625 132.795,-141.141"/>
<polygon fill="#ebc72d" stroke="#ebc72d" points="135.629,-143.249 140.118,-133.652 130.624,-138.355 135.629,-143.249"/>
</g>
<!-- library -->
<g id="node6" class="node"><title>library</title>
<g id="a_node6"><a xlink:href="magic_library_full.html" xlink:title="Library">
<polygon fill="none" stroke="red" points="664.39,-320.682 618.804,-333.12 573.219,-320.682 573.261,-300.558 664.347,-300.558 664.39,-320.682"/>
<text text-anchor="middle" x="618.804" y="-311.42" font-family="Times,serif" font-size="14.00" fill="#ebc72d">Library</text>
</a>
</g>
</g>
<!-- library&#45;&gt;archmage -->
<g id="edge18" class="edge"><title>library&#45;&gt;archmage</title>
<path fill="none" stroke="#ebc72d" stroke-dasharray="1,5" d="M605.595,-300.156C590.202,-283.884 564.522,-256.737 546.039,-237.199"/>
<polygon fill="#ebc72d" stroke="#ebc72d" points="548.515,-234.723 539.101,-229.864 543.43,-239.533 548.515,-234.723"/>
</g>
<!-- draco_rider -->
<g id="node12" class="node"><title>draco_rider</title>
<g id="a_node12"><a xlink:href="magic_draco_rider_full.html" xlink:title="Draco\nRider">
<ellipse fill="none" stroke="magenta" cx="618.804" cy="-116.61" rx="35.2113" ry="26.7407"/>
<text text-anchor="middle" x="618.804" y="-120.41" font-family="Times,serif" font-size="14.00" fill="#ebc72d">Draco</text>
<text text-anchor="middle" x="618.804" y="-105.41" font-family="Times,serif" font-size="14.00" fill="#ebc72d">Rider</text>
</a>
</g>
</g>
<!-- library&#45;&gt;draco_rider -->
<g id="edge19" class="edge"><title>library&#45;&gt;draco_rider</title>
<path fill="none" stroke="#ebc72d" stroke-dasharray="1,5" d="M618.804,-300.302C618.804,-270.134 618.804,-197.557 618.804,-153.499"/>
<polygon fill="#ebc72d" stroke="#ebc72d" points="622.304,-153.489 618.804,-143.489 615.304,-153.489 622.304,-153.489"/>
</g>
<!-- archmage_tower -->
<g id="node7" class="node"><title>archmage_tower</title>
<g id="a_node7"><a xlink:href="magic_archmage_tower_full.html" xlink:title="Archmage\nTower">
<polygon fill="none" stroke="red" points="434.662,-325.45 369.804,-348.548 304.947,-325.45 305.008,-288.076 434.601,-288.076 434.662,-325.45"/>
<text text-anchor="middle" x="369.804" y="-318.92" font-family="Times,serif" font-size="14.00" fill="#ebc72d">Archmage</text>
<text text-anchor="middle" x="369.804" y="-303.92" font-family="Times,serif" font-size="14.00" fill="#ebc72d">Tower</text>
</a>
</g>
</g>
<!-- archmage_tower&#45;&gt;archmage -->
<g id="edge1" class="edge"><title>archmage_tower&#45;&gt;archmage</title>
<path fill="none" stroke="#ebc72d" stroke-dasharray="1,5" d="M409.864,-287.996C435.468,-271.299 468.213,-249.945 492.024,-234.418"/>
<polygon fill="#ebc72d" stroke="#ebc72d" points="494.214,-237.168 500.679,-228.774 490.391,-231.305 494.214,-237.168"/>
</g>
<!-- archmage_tower&#45;&gt;power_golem -->
<g id="edge3" class="edge"><title>archmage_tower&#45;&gt;power_golem</title>
<path fill="none" stroke="#ebc72d" stroke-dasharray="1,5" d="M343.531,-287.996C329.595,-274.139 312.433,-257.074 298.071,-242.794"/>
<polygon fill="#ebc72d" stroke="#ebc72d" points="300.407,-240.181 290.848,-235.612 295.472,-245.145 300.407,-240.181"/>
</g>
<!-- dragon -->
<g id="node19" class="node"><title>dragon</title>
<g id="a_node19"><a xlink:href="magic_dragon_full.html" xlink:title="Dragon">
<ellipse fill="none" stroke="magenta" cx="528.804" cy="-116.61" rx="37.0935" ry="18"/>
<text text-anchor="middle" x="528.804" y="-112.91" font-family="Times,serif" font-size="14.00" fill="#ebc72d">Dragon</text>
</a>
</g>
</g>
<!-- archmage_tower&#45;&gt;dragon -->
<g id="edge2" class="edge"><title>archmage_tower&#45;&gt;dragon</title>
<path fill="none" stroke="#ebc72d" stroke-dasharray="1,5" d="M386.854,-287.879C405.359,-260.042 436.359,-215.233 466.804,-179.48 478.531,-165.709 492.745,-151.378 504.604,-139.981"/>
<polygon fill="#ebc72d" stroke="#ebc72d" points="507.166,-142.375 512.006,-132.95 502.345,-137.299 507.166,-142.375"/>
</g>
<!-- initiate -->
<g id="node8" class="node"><title>initiate</title>
<g id="a_node8"><a xlink:href="magic_initiate_full.html" xlink:title="Initiate">
<ellipse fill="none" stroke="magenta" cx="503.804" cy="-402.333" rx="35.9954" ry="18"/>
<text text-anchor="middle" x="503.804" y="-398.633" font-family="Times,serif" font-size="14.00" fill="#ebc72d">Initiate</text>
</a>
</g>
</g>
<!-- initiate&#45;&gt;golem -->
<g id="edge12" class="edge"><title>initiate&#45;&gt;golem</title>
<path fill="none" stroke="#ebc72d" stroke-width="2" d="M470.002,-395.996C427.98,-388.629 354.617,-373.342 295.804,-348.333 286.761,-344.488 277.462,-339.214 269.273,-334.046"/>
<polygon fill="#ebc72d" stroke="#ebc72d" stroke-width="2" points="271.17,-331.105 260.887,-328.553 267.335,-336.961 271.17,-331.105"/>
</g>
<!-- initiate&#45;&gt;wicker_behemoth -->
<g id="edge17" class="edge"><title>initiate&#45;&gt;wicker_behemoth</title>
<path fill="none" stroke="#ebc72d" stroke-width="2" d="M468.526,-399.32C372.219,-393.49 110.159,-375.281 82.8043,-348.333 58.5097,-324.399 55.5844,-284.601 57.6469,-254.465"/>
<polygon fill="#ebc72d" stroke="#ebc72d" stroke-width="2" points="61.1556,-254.522 58.5575,-244.251 54.1832,-253.9 61.1556,-254.522"/>
</g>
<!-- initiate&#45;&gt;library -->
<g id="edge13" class="edge"><title>initiate&#45;&gt;library</title>
<path fill="none" stroke="#ebc72d" stroke-width="2" d="M523.053,-387.07C542.385,-372.746 572.275,-350.598 593.512,-334.861"/>
<polygon fill="#ebc72d" stroke="#ebc72d" stroke-width="2" points="595.796,-337.525 601.747,-328.759 591.628,-331.901 595.796,-337.525"/>
</g>
<!-- initiate&#45;&gt;archmage_tower -->
<g id="edge9" class="edge"><title>initiate&#45;&gt;archmage_tower</title>
<path fill="none" stroke="#ebc72d" stroke-width="2" d="M482.572,-387.831C463.445,-375.668 434.788,-357.444 411.149,-342.412"/>
<polygon fill="#ebc72d" stroke="#ebc72d" stroke-width="2" points="413.01,-339.448 402.694,-337.035 409.254,-345.354 413.01,-339.448"/>
</g>
<!-- mage_tower -->
<g id="node10" class="node"><title>mage_tower</title>
<g id="a_node10"><a xlink:href="magic_mage_tower_full.html" xlink:title="Mage\nTower">
<polygon fill="none" stroke="red" points="182.204,-325.45 136.804,-348.548 91.405,-325.45 91.4473,-288.076 182.161,-288.076 182.204,-325.45"/>
<text text-anchor="middle" x="136.804" y="-318.92" font-family="Times,serif" font-size="14.00" fill="#ebc72d">Mage</text>
<text text-anchor="middle" x="136.804" y="-303.92" font-family="Times,serif" font-size="14.00" fill="#ebc72d">Tower</text>
</a>
</g>
</g>
<!-- initiate&#45;&gt;mage_tower -->
<g id="edge14" class="edge"><title>initiate&#45;&gt;mage_tower</title>
<path fill="none" stroke="#ebc72d" stroke-width="2" d="M457.881,-398.716C395.844,-394.029 282.583,-381.372 191.804,-348.333 185.447,-346.019 178.989,-342.973 172.841,-339.677"/>
<polygon fill="#ebc72d" stroke="#ebc72d" stroke-width="2" points="457.894,-402.226 468.119,-399.452 458.396,-395.244 457.894,-402.226"/>
<polygon fill="#ebc72d" stroke="#ebc72d" stroke-width="2" points="174.529,-336.61 164.103,-334.724 171.077,-342.7 174.529,-336.61"/>
</g>
<!-- energy_source -->
<g id="node11" class="node"><title>energy_source</title>
<g id="a_node11"><a xlink:href="magic_energy_source_full.html" xlink:title="Energy\nSource">
<polygon fill="none" stroke="red" points="1064.7,-325.45 1015.8,-348.548 966.913,-325.45 966.958,-288.076 1064.65,-288.076 1064.7,-325.45"/>
<text text-anchor="middle" x="1015.8" y="-318.92" font-family="Times,serif" font-size="14.00" fill="#ebc72d">Energy</text>
<text text-anchor="middle" x="1015.8" y="-303.92" font-family="Times,serif" font-size="14.00" fill="#ebc72d">Source</text>
</a>
</g>
</g>
<!-- initiate&#45;&gt;energy_source -->
<g id="edge11" class="edge"><title>initiate&#45;&gt;energy_source</title>
<path fill="none" stroke="#ebc72d" stroke-width="2" d="M539.83,-401.822C617.972,-401.879 808.059,-396.564 957.804,-348.333 964.508,-346.174 971.317,-343.209 977.8,-339.946"/>
<polygon fill="#ebc72d" stroke="#ebc72d" stroke-width="2" points="979.851,-342.818 987.014,-335.011 976.546,-336.647 979.851,-342.818"/>
</g>
<!-- tower_of_souls -->
<g id="node14" class="node"><title>tower_of_souls</title>
<g id="a_node14"><a xlink:href="magic_tower_of_souls_full.html" xlink:title="Tower\nOf Souls">
<polygon fill="none" stroke="red" points="796.429,-325.45 739.804,-348.548 683.18,-325.45 683.232,-288.076 796.376,-288.076 796.429,-325.45"/>
<text text-anchor="middle" x="739.804" y="-318.92" font-family="Times,serif" font-size="14.00" fill="#ebc72d">Tower</text>
<text text-anchor="middle" x="739.804" y="-303.92" font-family="Times,serif" font-size="14.00" fill="#ebc72d">Of Souls</text>
</a>
</g>
</g>
<!-- initiate&#45;&gt;tower_of_souls -->
<g id="edge16" class="edge"><title>initiate&#45;&gt;tower_of_souls</title>
<path fill="none" stroke="#ebc72d" stroke-width="2" d="M534.692,-393.227C569.135,-383.839 626.255,-367.223 673.804,-348.333 681.053,-345.454 688.606,-342.111 695.904,-338.691"/>
<polygon fill="#ebc72d" stroke="#ebc72d" stroke-width="2" points="697.464,-341.824 704.969,-334.346 694.439,-335.512 697.464,-341.824"/>
</g>
<!-- summoner_guild -->
<g id="node16" class="node"><title>summoner_guild</title>
<g id="a_node16"><a xlink:href="magic_summoner_guild_full.html" xlink:title="Summoner\nGuild">
<polygon fill="none" stroke="red" points="948.906,-325.45 881.804,-348.548 814.703,-325.45 814.765,-288.076 948.843,-288.076 948.906,-325.45"/>
<text text-anchor="middle" x="881.804" y="-318.92" font-family="Times,serif" font-size="14.00" fill="#ebc72d">Summoner</text>
<text text-anchor="middle" x="881.804" y="-303.92" font-family="Times,serif" font-size="14.00" fill="#ebc72d">Guild</text>
</a>
</g>
</g>
<!-- initiate&#45;&gt;summoner_guild -->
<g id="edge15" class="edge"><title>initiate&#45;&gt;summoner_guild</title>
<path fill="none" stroke="#ebc72d" stroke-width="2" d="M538.815,-397.804C595.704,-391.491 711.362,-376.24 805.804,-348.333 814.585,-345.738 823.717,-342.433 832.477,-338.932"/>
<polygon fill="#ebc72d" stroke="#ebc72d" stroke-width="2" points="833.896,-342.133 841.803,-335.081 831.224,-335.663 833.896,-342.133"/>
</g>
<!-- battlemage -->
<g id="node17" class="node"><title>battlemage</title>
<g id="a_node17"><a xlink:href="magic_battlemage_full.html" xlink:title="Battlemage">
<ellipse fill="none" stroke="magenta" cx="503.804" cy="-315.12" rx="51.1914" ry="18"/>
<text text-anchor="middle" x="503.804" y="-311.42" font-family="Times,serif" font-size="14.00" fill="#ebc72d">Battlemage</text>
</a>
</g>
</g>
<!-- initiate&#45;&gt;battlemage -->
<g id="edge10" class="edge"><title>initiate&#45;&gt;battlemage</title>
<path fill="none" stroke="#ebc72d" stroke-dasharray="5,2" d="M503.804,-384.089C503.804,-372.423 503.804,-356.77 503.804,-343.425"/>
<polygon fill="#ebc72d" stroke="#ebc72d" points="507.304,-343.338 503.804,-333.338 500.304,-343.338 507.304,-343.338"/>
</g>
<!-- ghost_armor -->
<g id="node9" class="node"><title>ghost_armor</title>
<g id="a_node9"><a xlink:href="magic_ghost_armor_full.html" xlink:title="Ghost\nArmor">
<ellipse fill="none" stroke="magenta" cx="709.804" cy="-116.61" rx="37.4533" ry="26.7407"/>
<text text-anchor="middle" x="709.804" y="-120.41" font-family="Times,serif" font-size="14.00" fill="#ebc72d">Ghost</text>
<text text-anchor="middle" x="709.804" y="-105.41" font-family="Times,serif" font-size="14.00" fill="#ebc72d">Armor</text>
</a>
</g>
</g>
<!-- mage_tower&#45;&gt;behemoth -->
<g id="edge20" class="edge"><title>mage_tower&#45;&gt;behemoth</title>
<path fill="none" stroke="#ebc72d" stroke-dasharray="1,5" d="M139.327,-288.025C142.92,-250.871 149.478,-183.036 153.144,-145.121"/>
<polygon fill="#ebc72d" stroke="#ebc72d" points="156.661,-145.116 154.14,-134.825 149.694,-144.442 156.661,-145.116"/>
</g>
<!-- energy_source&#45;&gt;archmage -->
<g id="edge6" class="edge"><title>energy_source&#45;&gt;archmage</title>
<path fill="none" stroke="#ebc72d" stroke-dasharray="1,5" d="M973.258,-288.075C968.175,-285.695 962.959,-283.562 957.804,-281.907 824.483,-239.09 782.382,-271.988 644.804,-245.907 619.595,-241.128 591.909,-233.907 569.39,-227.513"/>
<polygon fill="#ebc72d" stroke="#ebc72d" points="570.335,-224.143 559.757,-224.739 568.398,-230.87 570.335,-224.143"/>
</g>
<!-- energy_source&#45;&gt;evil_dragon -->
<g id="edge7" class="edge"><title>energy_source&#45;&gt;evil_dragon</title>
<path fill="none" stroke="#ebc72d" stroke-dasharray="1,5" d="M1002.5,-287.886C978.452,-242.589 923.88,-148.895 855.804,-89.7401 833.693,-70.5263 804.577,-55.2556 780.679,-44.6925"/>
<polygon fill="#ebc72d" stroke="#ebc72d" points="782.037,-41.4664 771.467,-40.7365 779.275,-47.8984 782.037,-41.4664"/>
</g>
<!-- daemon -->
<g id="node13" class="node"><title>daemon</title>
<g id="a_node13"><a xlink:href="magic_daemon_full.html" xlink:title="Daemon">
<ellipse fill="none" stroke="magenta" cx="805.804" cy="-116.61" rx="40.8928" ry="18"/>
<text text-anchor="middle" x="805.804" y="-112.91" font-family="Times,serif" font-size="14.00" fill="#ebc72d">Daemon</text>
</a>
</g>
</g>
<!-- summoner -->
<g id="node18" class="node"><title>summoner</title>
<g id="a_node18"><a xlink:href="magic_summoner_full.html" xlink:title="Summoner">
<ellipse fill="none" stroke="magenta" cx="703.804" cy="-212.693" rx="50.0912" ry="18"/>
<text text-anchor="middle" x="703.804" y="-208.993" font-family="Times,serif" font-size="14.00" fill="#ebc72d">Summoner</text>
</a>
</g>
</g>
<!-- summoner_guild&#45;&gt;summoner -->
<g id="edge27" class="edge"><title>summoner_guild&#45;&gt;summoner</title>
<path fill="none" stroke="#ebc72d" d="M835.502,-287.996C805.146,-270.87 766.106,-248.844 738.434,-233.231"/>
<polygon fill="#ebc72d" stroke="#ebc72d" points="739.944,-230.065 729.515,-228.199 736.504,-236.161 739.944,-230.065"/>
</g>
<!-- battlemage&#45;&gt;archmage -->
<g id="edge4" class="edge"><title>battlemage&#45;&gt;archmage</title>
<path fill="none" stroke="#ebc72d" stroke-dasharray="5,2" d="M507.197,-297.084C510.271,-281.647 514.854,-258.636 518.427,-240.695"/>
<polygon fill="#ebc72d" stroke="#ebc72d" points="521.874,-241.304 520.395,-230.813 515.009,-239.937 521.874,-241.304"/>
</g>
<!-- summoner&#45;&gt;behemoth -->
<g id="edge22" class="edge"><title>summoner&#45;&gt;behemoth</title>
<path fill="none" stroke="#ebc72d" stroke-dasharray="1,5" d="M666.376,-200.729C642.134,-193.917 609.792,-185.367 580.804,-179.48 449.065,-152.727 292.093,-132.97 210.768,-123.624"/>
<polygon fill="#ebc72d" stroke="#ebc72d" points="211.088,-120.138 200.756,-122.482 210.295,-127.093 211.088,-120.138"/>
</g>
<!-- summoner&#45;&gt;ghost_armor -->
<g id="edge26" class="edge"><title>summoner&#45;&gt;ghost_armor</title>
<path fill="none" stroke="#ebc72d" d="M704.905,-194.437C705.627,-183.108 706.6,-167.863 707.487,-153.94"/>
<polygon fill="#ebc72d" stroke="#ebc72d" points="711.001,-153.841 708.144,-143.638 704.015,-153.395 711.001,-153.841"/>
</g>
<!-- summoner&#45;&gt;draco_rider -->
<g id="edge24" class="edge"><title>summoner&#45;&gt;draco_rider</title>
<path fill="none" stroke="#ebc72d" stroke-dasharray="5,2" d="M688.998,-195.305C676.899,-181.913 659.496,-162.65 645.046,-146.656"/>
<polygon fill="#ebc72d" stroke="#ebc72d" points="647.526,-144.18 638.225,-139.106 642.332,-148.873 647.526,-144.18"/>
</g>
<!-- summoner&#45;&gt;daemon -->
<g id="edge23" class="edge"><title>summoner&#45;&gt;daemon</title>
<path fill="none" stroke="#ebc72d" d="M721.107,-195.734C737.619,-180.504 762.659,-157.406 781.235,-140.272"/>
<polygon fill="#ebc72d" stroke="#ebc72d" points="783.779,-142.687 788.757,-133.334 779.033,-137.542 783.779,-142.687"/>
</g>
<!-- summoner&#45;&gt;dragon -->
<g id="edge25" class="edge"><title>summoner&#45;&gt;dragon</title>
<path fill="none" stroke="#ebc72d" d="M676.515,-197.525C650.33,-183.868 609.722,-162.527 574.804,-143.48 570.295,-141.02 565.554,-138.397 560.9,-135.8"/>
<polygon fill="#ebc72d" stroke="#ebc72d" points="562.575,-132.727 552.141,-130.888 559.151,-138.832 562.575,-132.727"/>
</g>
<!-- dragon&#45;&gt;evil_dragon -->
<g id="edge5" class="edge"><title>dragon&#45;&gt;evil_dragon</title>
<path fill="none" stroke="#ebc72d" stroke-dasharray="5,2" d="M551.385,-102.036C558.733,-97.8568 567.007,-93.3974 574.804,-89.7401 613.216,-71.7242 658.428,-54.7948 691.314,-43.215"/>
<polygon fill="#ebc72d" stroke="#ebc72d" points="692.815,-46.3981 701.103,-39.7978 690.508,-39.7892 692.815,-46.3981"/>
</g>
</g>
</svg>
