<?xml version="1.0" encoding="UTF-8" standalone="no"?>
<!DOCTYPE svg PUBLIC "-//W3C//DTD SVG 1.1//EN"
 "http://www.w3.org/Graphics/SVG/1.1/DTD/svg11.dtd">
<!-- Generated by graphviz version 2.38.0 (20140413.2041)
 -->
<!-- Title: test Pages: 1 -->
<svg width="1552pt" height="675pt"
 viewBox="0.00 0.00 1551.75 674.59" xmlns="http://www.w3.org/2000/svg" xmlns:xlink="http://www.w3.org/1999/xlink">
<g id="graph0" class="graph" transform="scale(1 1) rotate(0) translate(4 670.593)">
<title>test</title>
<polygon fill="#151515" stroke="none" points="-4,4 -4,-670.593 1547.75,-670.593 1547.75,4 -4,4"/>
<!-- archmage -->
<g id="node1" class="node"><title>archmage</title>
<g id="a_node1"><a xlink:href="magic_archmage_full.html" xlink:title="Archmage">
<ellipse fill="none" stroke="magenta" cx="124.946" cy="-230.167" rx="48.1917" ry="18"/>
<text text-anchor="middle" x="124.946" y="-226.467" font-family="Times,serif" font-size="14.00" fill="#ebc72d">Archmage</text>
</a>
</g>
</g>
<!-- evil_dragon -->
<g id="node2" class="node"><title>evil_dragon</title>
<g id="a_node2"><a xlink:href="magic_evil_dragon_full.html" xlink:title="Evil\nDragon">
<ellipse fill="none" stroke="magenta" cx="232.946" cy="-26.8701" rx="40.1111" ry="26.7407"/>
<text text-anchor="middle" x="232.946" y="-30.6701" font-family="Times,serif" font-size="14.00" fill="#ebc72d">Evil</text>
<text text-anchor="middle" x="232.946" y="-15.6701" font-family="Times,serif" font-size="14.00" fill="#ebc72d">Dragon</text>
</a>
</g>
</g>
<!-- golem -->
<g id="node3" class="node"><title>golem</title>
<g id="a_node3"><a xlink:href="magic_golem_full.html" xlink:title="Golem">
<polygon fill="none" stroke="red" points="388.21,-347.729 344.946,-360.167 301.681,-347.729 301.722,-327.604 388.17,-327.604 388.21,-347.729"/>
<text text-anchor="middle" x="344.946" y="-338.467" font-family="Times,serif" font-size="14.00" fill="#ebc72d">Golem</text>
</a>
</g>
</g>
<!-- power_golem -->
<g id="node15" class="node"><title>power_golem</title>
<g id="a_node15"><a xlink:href="magic_power_golem_full.html" xlink:title="Power\nGolem">
<polygon fill="none" stroke="red" points="328.342,-133.283 280.946,-156.381 233.55,-133.283 233.594,-95.9097 328.298,-95.9097 328.342,-133.283"/>
<text text-anchor="middle" x="280.946" y="-126.753" font-family="Times,serif" font-size="14.00" fill="#ebc72d">Power</text>
<text text-anchor="middle" x="280.946" y="-111.753" font-family="Times,serif" font-size="14.00" fill="#ebc72d">Golem</text>
</a>
</g>
</g>
<!-- golem&#45;&gt;power_golem -->
<g id="edge10" class="edge"><title>golem&#45;&gt;power_golem</title>
<path fill="none" stroke="#ebc72d" stroke-dasharray="5,2" d="M342.876,-327.349C338.673,-300.727 328.141,-240.669 311.946,-192.167 308.287,-181.208 303.436,-169.644 298.66,-159.212"/>
<polygon fill="#ebc72d" stroke="#ebc72d" points="301.752,-157.563 294.331,-150.001 295.417,-160.54 301.752,-157.563"/>
</g>
<!-- wicker_behemoth -->
<g id="node4" class="node"><title>wicker_behemoth</title>
<g id="a_node4"><a xlink:href="magic_wicker_behemoth_full.html" xlink:title="Wicker\nBehemoth">
<polygon fill="none" stroke="red" points="1543.56,-464.496 1479.95,-487.594 1416.34,-464.496 1416.4,-427.123 1543.5,-427.123 1543.56,-464.496"/>
<text text-anchor="middle" x="1479.95" y="-457.967" font-family="Times,serif" font-size="14.00" fill="#ebc72d">Wicker</text>
<text text-anchor="middle" x="1479.95" y="-442.967" font-family="Times,serif" font-size="14.00" fill="#ebc72d">Behemoth</text>
</a>
</g>
</g>
<!-- behemoth -->
<g id="node5" class="node"><title>behemoth</title>
<g id="a_node5"><a xlink:href="magic_behemoth_full.html" xlink:title="Behemoth">
<ellipse fill="none" stroke="magenta" cx="1276.95" cy="-230.167" rx="47.3916" ry="18"/>
<text text-anchor="middle" x="1276.95" y="-226.467" font-family="Times,serif" font-size="14.00" fill="#ebc72d">Behemoth</text>
</a>
</g>
</g>
<!-- wicker_behemoth&#45;&gt;behemoth -->
<g id="edge44" class="edge"><title>wicker_behemoth&#45;&gt;behemoth</title>
<path fill="none" stroke="#ebc72d" stroke-dasharray="5,2" d="M1474.42,-427.049C1466.42,-394.756 1448.83,-339.715 1415.95,-304.167 1390.39,-276.541 1351.97,-257.481 1322,-245.782"/>
<polygon fill="#ebc72d" stroke="#ebc72d" points="1323.18,-242.488 1312.59,-242.241 1320.72,-249.04 1323.18,-242.488"/>
</g>
<!-- library -->
<g id="node6" class="node"><title>library</title>
<g id="a_node6"><a xlink:href="magic_library_full.html" xlink:title="Library">
<polygon fill="none" stroke="red" points="640.531,-459.729 594.946,-472.167 549.36,-459.729 549.403,-439.604 640.489,-439.604 640.531,-459.729"/>
<text text-anchor="middle" x="594.946" y="-450.467" font-family="Times,serif" font-size="14.00" fill="#ebc72d">Library</text>
</a>
</g>
</g>
<!-- library&#45;&gt;golem -->
<g id="edge27" class="edge"><title>library&#45;&gt;golem</title>
<path fill="none" stroke="#ebc72d" stroke-dasharray="1,5" d="M549.348,-439.915C508.496,-427.202 447.55,-406.128 397.946,-380.167 388.103,-375.015 377.947,-368.315 369.191,-362.033"/>
<polygon fill="#ebc72d" stroke="#ebc72d" points="371.091,-359.086 360.967,-355.965 366.935,-364.719 371.091,-359.086"/>
</g>
<!-- archmage_tower -->
<g id="node7" class="node"><title>archmage_tower</title>
<g id="a_node7"><a xlink:href="magic_archmage_tower_full.html" xlink:title="Archmage\nTower">
<polygon fill="none" stroke="red" points="283.803,-352.496 218.946,-375.594 154.089,-352.496 154.149,-315.123 283.742,-315.123 283.803,-352.496"/>
<text text-anchor="middle" x="218.946" y="-345.967" font-family="Times,serif" font-size="14.00" fill="#ebc72d">Archmage</text>
<text text-anchor="middle" x="218.946" y="-330.967" font-family="Times,serif" font-size="14.00" fill="#ebc72d">Tower</text>
</a>
</g>
</g>
<!-- library&#45;&gt;archmage_tower -->
<g id="edge23" class="edge"><title>library&#45;&gt;archmage_tower</title>
<path fill="none" stroke="#ebc72d" stroke-dasharray="1,5" d="M549.232,-445.459C489.245,-434.595 381.226,-412.432 292.946,-380.167 283.334,-376.653 273.34,-372.23 263.921,-367.674"/>
<polygon fill="#ebc72d" stroke="#ebc72d" points="265.243,-364.423 254.73,-363.104 262.126,-370.691 265.243,-364.423"/>
</g>
<!-- tower_of_souls -->
<g id="node13" class="node"><title>tower_of_souls</title>
<g id="a_node13"><a xlink:href="magic_tower_of_souls_full.html" xlink:title="Tower\nOf Souls">
<polygon fill="none" stroke="red" points="902.571,-352.496 845.946,-375.594 789.321,-352.496 789.374,-315.123 902.518,-315.123 902.571,-352.496"/>
<text text-anchor="middle" x="845.946" y="-345.967" font-family="Times,serif" font-size="14.00" fill="#ebc72d">Tower</text>
<text text-anchor="middle" x="845.946" y="-330.967" font-family="Times,serif" font-size="14.00" fill="#ebc72d">Of Souls</text>
</a>
</g>
</g>
<!-- library&#45;&gt;tower_of_souls -->
<g id="edge29" class="edge"><title>library&#45;&gt;tower_of_souls</title>
<path fill="none" stroke="#ebc72d" stroke-dasharray="1,5" d="M613.935,-439.599C625.386,-431.899 640.508,-422.553 654.946,-416.167 707.817,-392.777 726.599,-402.45 779.946,-380.167 788.491,-376.597 797.335,-372.187 805.666,-367.671"/>
<polygon fill="#ebc72d" stroke="#ebc72d" points="807.436,-370.691 814.465,-362.764 804.027,-364.578 807.436,-370.691"/>
</g>
<!-- dragon_rider -->
<g id="node14" class="node"><title>dragon_rider</title>
<g id="a_node14"><a xlink:href="magic_dragon_rider_full.html" xlink:title="Dragon\nRider">
<ellipse fill="none" stroke="magenta" cx="960.946" cy="-342.167" rx="40.1111" ry="26.7407"/>
<text text-anchor="middle" x="960.946" y="-345.967" font-family="Times,serif" font-size="14.00" fill="#ebc72d">Dragon</text>
<text text-anchor="middle" x="960.946" y="-330.967" font-family="Times,serif" font-size="14.00" fill="#ebc72d">Rider</text>
</a>
</g>
</g>
<!-- library&#45;&gt;dragon_rider -->
<g id="edge24" class="edge"><title>library&#45;&gt;dragon_rider</title>
<path fill="none" stroke="#ebc72d" stroke-dasharray="1,5" d="M640.73,-448.708C704.167,-441.202 821.232,-422.491 911.946,-380.167 917.778,-377.445 923.585,-373.95 929.054,-370.196"/>
<polygon fill="#ebc72d" stroke="#ebc72d" points="931.31,-372.883 937.324,-364.16 927.183,-367.228 931.31,-372.883"/>
</g>
<!-- energy_compression -->
<g id="node23" class="node"><title>energy_compression</title>
<g id="a_node23"><a xlink:href="magic_energy_compression_full.html" xlink:title="Energy\nCompression">
<polygon fill="none" stroke="green" points="590.988,-380.167 444.569,-380.167 406.903,-304.167 553.322,-304.167 590.988,-380.167"/>
<text text-anchor="middle" x="498.946" y="-345.967" font-family="Times,serif" font-size="14.00" fill="#ebc72d">Energy</text>
<text text-anchor="middle" x="498.946" y="-330.967" font-family="Times,serif" font-size="14.00" fill="#ebc72d">Compression</text>
</a>
</g>
</g>
<!-- library&#45;&gt;energy_compression -->
<g id="edge25" class="edge"><title>library&#45;&gt;energy_compression</title>
<path fill="none" stroke="#ebc72d" d="M582.787,-439.235C571.574,-426.386 554.298,-406.591 538.335,-388.3"/>
<polygon fill="#ebc72d" stroke="#ebc72d" points="540.808,-385.811 531.596,-380.578 535.534,-390.413 540.808,-385.811"/>
</g>
<!-- energy_sharpening -->
<g id="node25" class="node"><title>energy_sharpening</title>
<g id="a_node25"><a xlink:href="magic_energy_sharpening_full.html" xlink:title="Energy\nSharpening">
<polygon fill="none" stroke="green" points="770.68,-380.167 642.25,-380.167 609.212,-304.167 737.641,-304.167 770.68,-380.167"/>
<text text-anchor="middle" x="689.946" y="-345.967" font-family="Times,serif" font-size="14.00" fill="#ebc72d">Energy</text>
<text text-anchor="middle" x="689.946" y="-330.967" font-family="Times,serif" font-size="14.00" fill="#ebc72d">Sharpening</text>
</a>
</g>
</g>
<!-- library&#45;&gt;energy_sharpening -->
<g id="edge26" class="edge"><title>library&#45;&gt;energy_sharpening</title>
<path fill="none" stroke="#ebc72d" d="M606.978,-439.235C618.074,-426.386 635.171,-406.591 650.967,-388.3"/>
<polygon fill="#ebc72d" stroke="#ebc72d" points="653.749,-390.434 657.636,-380.578 648.451,-385.858 653.749,-390.434"/>
</g>
<!-- hell_gate -->
<g id="node26" class="node"><title>hell_gate</title>
<g id="a_node26"><a xlink:href="magic_hell_gate_full.html" xlink:title="Hell\nGate">
<polygon fill="none" stroke="green" points="1144.53,-380.167 1075.2,-380.167 1057.36,-304.167 1126.7,-304.167 1144.53,-380.167"/>
<text text-anchor="middle" x="1100.95" y="-345.967" font-family="Times,serif" font-size="14.00" fill="#ebc72d">Hell</text>
<text text-anchor="middle" x="1100.95" y="-330.967" font-family="Times,serif" font-size="14.00" fill="#ebc72d">Gate</text>
</a>
</g>
</g>
<!-- library&#45;&gt;hell_gate -->
<g id="edge28" class="edge"><title>library&#45;&gt;hell_gate</title>
<path fill="none" stroke="#ebc72d" d="M640.704,-451.775C723.572,-447.951 902.882,-433.638 1042.95,-380.167 1049.7,-377.589 1056.5,-374.164 1062.94,-370.435"/>
<polygon fill="#ebc72d" stroke="#ebc72d" points="1064.78,-373.417 1071.48,-365.213 1061.12,-367.445 1064.78,-373.417"/>
</g>
<!-- archmage_tower&#45;&gt;archmage -->
<g id="edge2" class="edge"><title>archmage_tower&#45;&gt;archmage</title>
<path fill="none" stroke="#ebc72d" stroke-dasharray="1,5" d="M196.669,-315.098C181.133,-296.917 160.557,-272.839 145.429,-255.137"/>
<polygon fill="#ebc72d" stroke="#ebc72d" points="148.057,-252.824 138.9,-247.496 142.735,-257.372 148.057,-252.824"/>
</g>
<!-- dragon_call -->
<g id="node20" class="node"><title>dragon_call</title>
<g id="a_node20"><a xlink:href="magic_dragon_call_full.html" xlink:title="Dragon\nCall">
<polygon fill="none" stroke="green" points="477.136,-268.167 382.978,-268.167 358.756,-192.167 452.914,-192.167 477.136,-268.167"/>
<text text-anchor="middle" x="417.946" y="-233.967" font-family="Times,serif" font-size="14.00" fill="#ebc72d">Dragon</text>
<text text-anchor="middle" x="417.946" y="-218.967" font-family="Times,serif" font-size="14.00" fill="#ebc72d">Call</text>
</a>
</g>
</g>
<!-- archmage_tower&#45;&gt;dragon_call -->
<g id="edge3" class="edge"><title>archmage_tower&#45;&gt;dragon_call</title>
<path fill="none" stroke="#ebc72d" d="M266.106,-315.098C297.175,-297.924 337.762,-275.489 369.156,-258.136"/>
<polygon fill="#ebc72d" stroke="#ebc72d" points="371.108,-261.056 378.167,-253.155 367.721,-254.93 371.108,-261.056"/>
</g>
<!-- golem_power -->
<g id="node21" class="node"><title>golem_power</title>
<g id="a_node21"><a xlink:href="magic_golem_power_full.html" xlink:title="Golem\nPower">
<polygon fill="none" stroke="green" points="302.915,-268.167 213.88,-268.167 190.976,-192.167 280.011,-192.167 302.915,-268.167"/>
<text text-anchor="middle" x="246.946" y="-233.967" font-family="Times,serif" font-size="14.00" fill="#ebc72d">Golem</text>
<text text-anchor="middle" x="246.946" y="-218.967" font-family="Times,serif" font-size="14.00" fill="#ebc72d">Power</text>
</a>
</g>
</g>
<!-- archmage_tower&#45;&gt;golem_power -->
<g id="edge4" class="edge"><title>archmage_tower&#45;&gt;golem_power</title>
<path fill="none" stroke="#ebc72d" d="M225.581,-315.098C228.389,-304.069 231.748,-290.871 234.963,-278.242"/>
<polygon fill="#ebc72d" stroke="#ebc72d" points="238.422,-278.842 237.497,-268.288 231.638,-277.115 238.422,-278.842"/>
</g>
<!-- initiate -->
<g id="node8" class="node"><title>initiate</title>
<g id="a_node8"><a xlink:href="magic_initiate_full.html" xlink:title="Initiate">
<ellipse fill="none" stroke="magenta" cx="829.946" cy="-648.593" rx="35.9954" ry="18"/>
<text text-anchor="middle" x="829.946" y="-644.893" font-family="Times,serif" font-size="14.00" fill="#ebc72d">Initiate</text>
</a>
</g>
</g>
<!-- initiate&#45;&gt;golem -->
<g id="edge17" class="edge"><title>initiate&#45;&gt;golem</title>
<path fill="none" stroke="#ebc72d" stroke-width="2" d="M344.946,-453.167C321.356,-432.974 327.732,-394.057 335.525,-368.346"/>
<polygon fill="#ebc72d" stroke="#ebc72d" stroke-width="2" points="338.946,-369.148 338.752,-358.555 332.298,-366.957 338.946,-369.148"/>
</g>
<!-- initiate&#45;&gt;wicker_behemoth -->
<g id="edge22" class="edge"><title>initiate&#45;&gt;wicker_behemoth</title>
<path fill="none" stroke="#ebc72d" stroke-width="2" d="M864.778,-644.502C929.858,-638.15 1066.78,-621.885 1104.95,-594.593 1132.61,-574.809 1114.77,-547.221 1142.95,-528.167 1239.21,-463.06 1290.6,-525.457 1401.95,-492.167 1413.05,-488.846 1424.57,-484.155 1435.23,-479.224"/>
<polygon fill="#ebc72d" stroke="#ebc72d" stroke-width="2" points="1436.84,-482.333 1444.35,-474.857 1433.82,-476.019 1436.84,-482.333"/>
</g>
<!-- initiate&#45;&gt;library -->
<g id="edge18" class="edge"><title>initiate&#45;&gt;library</title>
<path fill="none" stroke="#ebc72d" stroke-width="2" d="M631.946,-560.38C607.388,-542.528 599.033,-507.075 596.245,-482.278"/>
<polygon fill="#ebc72d" stroke="#ebc72d" stroke-width="2" points="599.709,-481.713 595.339,-472.061 592.736,-482.331 599.709,-481.713"/>
</g>
<!-- initiate&#45;&gt;archmage_tower -->
<g id="edge14" class="edge"><title>initiate&#45;&gt;archmage_tower</title>
<path fill="none" stroke="#ebc72d" stroke-width="2" d="M798.954,-639.509C757.714,-627.646 683.962,-602.478 631.946,-562.38"/>
<path fill="none" stroke="#ebc72d" stroke-width="2" d="M631.946,-560.38C524.348,-477.436 448.155,-543.512 344.946,-455.167"/>
<path fill="none" stroke="#ebc72d" stroke-width="2" d="M344.946,-453.167C313.694,-426.415 278.444,-395.585 253.193,-373.383"/>
<polygon fill="#ebc72d" stroke="#ebc72d" stroke-width="2" points="255.183,-370.472 245.363,-366.494 250.559,-375.727 255.183,-370.472"/>
</g>
<!-- mage_tower -->
<g id="node10" class="node"><title>mage_tower</title>
<g id="a_node10"><a xlink:href="magic_mage_tower_full.html" xlink:title="Mage\nTower">
<polygon fill="none" stroke="red" points="1242.35,-571.71 1196.95,-594.808 1151.55,-571.71 1151.59,-534.336 1242.3,-534.336 1242.35,-571.71"/>
<text text-anchor="middle" x="1196.95" y="-565.18" font-family="Times,serif" font-size="14.00" fill="#ebc72d">Mage</text>
<text text-anchor="middle" x="1196.95" y="-550.18" font-family="Times,serif" font-size="14.00" fill="#ebc72d">Tower</text>
</a>
</g>
</g>
<!-- initiate&#45;&gt;mage_tower -->
<g id="edge19" class="edge"><title>initiate&#45;&gt;mage_tower</title>
<path fill="none" stroke="#ebc72d" stroke-width="2" d="M875.633,-644.443C936.821,-639.173 1048.09,-625.881 1137.95,-594.593 1145.07,-592.113 1152.35,-588.832 1159.27,-585.313"/>
<polygon fill="#ebc72d" stroke="#ebc72d" stroke-width="2" points="875.208,-640.966 865.53,-645.279 875.785,-647.942 875.208,-640.966"/>
<polygon fill="#ebc72d" stroke="#ebc72d" stroke-width="2" points="1161.25,-588.223 1168.41,-580.419 1157.95,-582.051 1161.25,-588.223"/>
</g>
<!-- energy_source -->
<g id="node11" class="node"><title>energy_source</title>
<g id="a_node11"><a xlink:href="magic_energy_source_full.html" xlink:title="Energy\nSource">
<polygon fill="none" stroke="red" points="97.8374,-352.496 48.9458,-375.594 0.0541453,-352.496 0.0997798,-315.123 97.7918,-315.123 97.8374,-352.496"/>
<text text-anchor="middle" x="48.9458" y="-345.967" font-family="Times,serif" font-size="14.00" fill="#ebc72d">Energy</text>
<text text-anchor="middle" x="48.9458" y="-330.967" font-family="Times,serif" font-size="14.00" fill="#ebc72d">Source</text>
</a>
</g>
</g>
<!-- initiate&#45;&gt;energy_source -->
<g id="edge16" class="edge"><title>initiate&#45;&gt;energy_source</title>
<path fill="none" stroke="#ebc72d" stroke-width="2" d="M794.32,-646.804C689.281,-644.057 382.46,-632.876 290.946,-594.593 185.9,-550.65 104.659,-435.713 68.8887,-377.708"/>
<polygon fill="#ebc72d" stroke="#ebc72d" stroke-width="2" points="71.7252,-375.636 63.5415,-368.907 65.7428,-379.271 71.7252,-375.636"/>
</g>
<!-- initiate&#45;&gt;tower_of_souls -->
<g id="edge21" class="edge"><title>initiate&#45;&gt;tower_of_souls</title>
<path fill="none" stroke="#ebc72d" stroke-width="2" d="M631.946,-560.38C590.284,-530.095 735.602,-420.349 807.718,-369.44"/>
<polygon fill="#ebc72d" stroke="#ebc72d" stroke-width="2" points="809.96,-372.143 816.133,-363.532 805.937,-366.414 809.96,-372.143"/>
</g>
<!-- summoner_guild -->
<g id="node16" class="node"><title>summoner_guild</title>
<g id="a_node16"><a xlink:href="magic_summoner_guild_full.html" xlink:title="Summoner\nGuild">
<polygon fill="none" stroke="red" points="1096.05,-571.71 1028.95,-594.808 961.844,-571.71 961.907,-534.336 1095.98,-534.336 1096.05,-571.71"/>
<text text-anchor="middle" x="1028.95" y="-565.18" font-family="Times,serif" font-size="14.00" fill="#ebc72d">Summoner</text>
<text text-anchor="middle" x="1028.95" y="-550.18" font-family="Times,serif" font-size="14.00" fill="#ebc72d">Guild</text>
</a>
</g>
</g>
<!-- initiate&#45;&gt;summoner_guild -->
<g id="edge20" class="edge"><title>initiate&#45;&gt;summoner_guild</title>
<path fill="none" stroke="#ebc72d" stroke-width="2" d="M856.371,-636.277C887.073,-623.131 938.463,-601.125 977.197,-584.539"/>
<polygon fill="#ebc72d" stroke="#ebc72d" stroke-width="2" points="978.937,-587.601 986.752,-580.448 976.181,-581.167 978.937,-587.601"/>
</g>
<!-- battlemage -->
<g id="node17" class="node"><title>battlemage</title>
<g id="a_node17"><a xlink:href="magic_battlemage_full.html" xlink:title="Battlemage">
<ellipse fill="none" stroke="magenta" cx="350.946" cy="-561.38" rx="51.1914" ry="18"/>
<text text-anchor="middle" x="350.946" y="-557.68" font-family="Times,serif" font-size="14.00" fill="#ebc72d">Battlemage</text>
</a>
</g>
</g>
<!-- initiate&#45;&gt;battlemage -->
<g id="edge15" class="edge"><title>initiate&#45;&gt;battlemage</title>
<path fill="none" stroke="#ebc72d" stroke-dasharray="5,2" d="M796.644,-641.669C715.212,-627.182 505.402,-589.857 405.452,-572.076"/>
<polygon fill="#ebc72d" stroke="#ebc72d" points="406.011,-568.621 395.553,-570.315 404.785,-575.513 406.011,-568.621"/>
</g>
<!-- ghost_armor -->
<g id="node9" class="node"><title>ghost_armor</title>
<g id="a_node9"><a xlink:href="magic_ghost_armor_full.html" xlink:title="Ghost\nArmor">
<ellipse fill="none" stroke="magenta" cx="1336.95" cy="-342.167" rx="37.4533" ry="26.7407"/>
<text text-anchor="middle" x="1336.95" y="-345.967" font-family="Times,serif" font-size="14.00" fill="#ebc72d">Ghost</text>
<text text-anchor="middle" x="1336.95" y="-330.967" font-family="Times,serif" font-size="14.00" fill="#ebc72d">Armor</text>
</a>
</g>
</g>
<!-- energy_source&#45;&gt;archmage -->
<g id="edge8" class="edge"><title>energy_source&#45;&gt;archmage</title>
<path fill="none" stroke="#ebc72d" stroke-dasharray="1,5" d="M66.9567,-315.098C79.2172,-297.353 95.3585,-273.99 107.498,-256.42"/>
<polygon fill="#ebc72d" stroke="#ebc72d" points="110.634,-258.038 113.439,-247.821 104.875,-254.059 110.634,-258.038"/>
</g>
<!-- energy_source&#45;&gt;evil_dragon -->
<g id="edge9" class="edge"><title>energy_source&#45;&gt;evil_dragon</title>
<path fill="none" stroke="#ebc72d" stroke-dasharray="1,5" d="M47.297,-314.939C46.4429,-283.98 48.4919,-231.711 67.9458,-192.167 97.4757,-132.14 157.775,-81.065 196.725,-52.4516"/>
<polygon fill="#ebc72d" stroke="#ebc72d" points="199.115,-55.0427 205.173,-46.3508 195.017,-49.3677 199.115,-55.0427"/>
</g>
<!-- daemon -->
<g id="node12" class="node"><title>daemon</title>
<g id="a_node12"><a xlink:href="magic_daemon_full.html" xlink:title="Daemon">
<ellipse fill="none" stroke="magenta" cx="1202.95" cy="-342.167" rx="40.8928" ry="18"/>
<text text-anchor="middle" x="1202.95" y="-338.467" font-family="Times,serif" font-size="14.00" fill="#ebc72d">Daemon</text>
</a>
</g>
</g>
<!-- summoner_guild&#45;&gt;wicker_behemoth -->
<g id="edge43" class="edge"><title>summoner_guild&#45;&gt;wicker_behemoth</title>
<path fill="none" stroke="#ebc72d" stroke-dasharray="1,5" d="M1089.87,-534.244C1096.57,-531.946 1103.35,-529.855 1109.95,-528.167 1236.62,-495.741 1276.38,-528.654 1401.95,-492.167 1413.08,-488.932 1424.6,-484.274 1435.27,-479.349"/>
<polygon fill="#ebc72d" stroke="#ebc72d" points="1436.88,-482.458 1444.39,-474.981 1433.86,-476.145 1436.88,-482.458"/>
</g>
<!-- summoner_guild&#45;&gt;library -->
<g id="edge41" class="edge"><title>summoner_guild&#45;&gt;library</title>
<path fill="none" stroke="#ebc72d" stroke-dasharray="1,5" d="M961.609,-544.056C871.447,-522.198 714.076,-484.047 638.237,-465.662"/>
<polygon fill="#ebc72d" stroke="#ebc72d" points="638.636,-462.157 628.093,-463.202 636.986,-468.96 638.636,-462.157"/>
</g>
<!-- summoner -->
<g id="node18" class="node"><title>summoner</title>
<g id="a_node18"><a xlink:href="magic_summoner_full.html" xlink:title="Summoner">
<ellipse fill="none" stroke="magenta" cx="1028.95" cy="-454.167" rx="50.0912" ry="18"/>
<text text-anchor="middle" x="1028.95" y="-450.467" font-family="Times,serif" font-size="14.00" fill="#ebc72d">Summoner</text>
</a>
</g>
</g>
<!-- summoner_guild&#45;&gt;summoner -->
<g id="edge42" class="edge"><title>summoner_guild&#45;&gt;summoner</title>
<path fill="none" stroke="#ebc72d" d="M1028.95,-534.101C1028.95,-518.375 1028.95,-498.419 1028.95,-482.508"/>
<polygon fill="#ebc72d" stroke="#ebc72d" points="1032.45,-482.24 1028.95,-472.24 1025.45,-482.24 1032.45,-482.24"/>
</g>
<!-- faster_movement -->
<g id="node22" class="node"><title>faster_movement</title>
<g id="a_node22"><a xlink:href="magic_faster_movement_full.html" xlink:title="Faster\nMovement">
<polygon fill="none" stroke="green" points="1211.61,-268.167 1084.88,-268.167 1052.29,-192.167 1179.01,-192.167 1211.61,-268.167"/>
<text text-anchor="middle" x="1131.95" y="-233.967" font-family="Times,serif" font-size="14.00" fill="#ebc72d">Faster</text>
<text text-anchor="middle" x="1131.95" y="-218.967" font-family="Times,serif" font-size="14.00" fill="#ebc72d">Movement</text>
</a>
</g>
</g>
<!-- summoner_guild&#45;&gt;faster_movement -->
<g id="edge40" class="edge"><title>summoner_guild&#45;&gt;faster_movement</title>
<path fill="none" stroke="#ebc72d" d="M1083.41,-534.215C1089.25,-531.952 1095.17,-529.878 1100.95,-528.167 1200.15,-498.78 1248.31,-554.428 1330.95,-492.167 1374.78,-459.142 1371.11,-433.757 1382.95,-380.167 1390.23,-347.183 1404.08,-330.515 1382.95,-304.167 1336.79,-246.634 1291.27,-290.409 1220.95,-268.167 1220.62,-268.062 1220.29,-267.958 1219.96,-267.852"/>
<polygon fill="#ebc72d" stroke="#ebc72d" points="1220.88,-264.471 1210.29,-264.611 1218.66,-271.108 1220.88,-264.471"/>
</g>
<!-- ancient_summoning -->
<g id="node24" class="node"><title>ancient_summoning</title>
<g id="a_node24"><a xlink:href="magic_ancient_summoning_full.html" xlink:title="Ancient\nSummoning">
<polygon fill="none" stroke="green" points="1322.12,-492.167 1183.45,-492.167 1147.77,-416.167 1286.45,-416.167 1322.12,-492.167"/>
<text text-anchor="middle" x="1234.95" y="-457.967" font-family="Times,serif" font-size="14.00" fill="#ebc72d">Ancient</text>
<text text-anchor="middle" x="1234.95" y="-442.967" font-family="Times,serif" font-size="14.00" fill="#ebc72d">Summoning</text>
</a>
</g>
</g>
<!-- summoner_guild&#45;&gt;ancient_summoning -->
<g id="edge39" class="edge"><title>summoner_guild&#45;&gt;ancient_summoning</title>
<path fill="none" stroke="#ebc72d" d="M1080.13,-534.237C1107.34,-520.343 1141.06,-503.119 1170.08,-488.297"/>
<polygon fill="#ebc72d" stroke="#ebc72d" points="1172.01,-491.242 1179.32,-483.576 1168.82,-485.008 1172.01,-491.242"/>
</g>
<!-- battlemage&#45;&gt;archmage -->
<g id="edge5" class="edge"><title>battlemage&#45;&gt;archmage</title>
<path fill="none" stroke="#ebc72d" stroke-dasharray="5,2" d="M324.37,-545.859C278.979,-519.49 187.317,-459.082 144.946,-380.167 124.293,-341.701 122.091,-289.886 123.045,-258.591"/>
<polygon fill="#ebc72d" stroke="#ebc72d" points="126.549,-258.577 123.49,-248.433 119.556,-258.271 126.549,-258.577"/>
</g>
<!-- summoner&#45;&gt;golem -->
<g id="edge37" class="edge"><title>summoner&#45;&gt;golem</title>
<path fill="none" stroke="#ebc72d" stroke-dasharray="1,5" d="M981.603,-448.331C839.584,-433.739 425.256,-390.519 397.946,-380.167 387.131,-376.067 376.434,-369.272 367.513,-362.615"/>
<polygon fill="#ebc72d" stroke="#ebc72d" points="369.584,-359.792 359.558,-356.369 365.261,-365.297 369.584,-359.792"/>
</g>
<!-- summoner&#45;&gt;behemoth -->
<g id="edge31" class="edge"><title>summoner&#45;&gt;behemoth</title>
<path fill="none" stroke="#ebc72d" stroke-dasharray="1,5" d="M1064.06,-441.169C1085.64,-433.845 1113.85,-424.349 1138.95,-416.167 1189.46,-399.696 1218.22,-420.38 1252.95,-380.167 1282.18,-346.315 1283.1,-291.358 1280.46,-258.494"/>
<polygon fill="#ebc72d" stroke="#ebc72d" points="1283.92,-257.873 1279.47,-248.258 1276.95,-258.549 1283.92,-257.873"/>
</g>
<!-- summoner&#45;&gt;ghost_armor -->
<g id="edge36" class="edge"><title>summoner&#45;&gt;ghost_armor</title>
<path fill="none" stroke="#ebc72d" d="M1062.9,-440.92C1084.52,-433.327 1113.21,-423.632 1138.95,-416.167 1203.55,-397.428 1224.91,-408.445 1285.95,-380.167 1292.35,-377.2 1298.76,-373.38 1304.77,-369.324"/>
<polygon fill="#ebc72d" stroke="#ebc72d" points="1307.14,-371.939 1313.25,-363.286 1303.07,-366.238 1307.14,-371.939"/>
</g>
<!-- summoner&#45;&gt;daemon -->
<g id="edge32" class="edge"><title>summoner&#45;&gt;daemon</title>
<path fill="none" stroke="#ebc72d" d="M1055.84,-438.673C1081.53,-424.542 1121.11,-402.042 1153.95,-380.167 1161.06,-375.429 1168.52,-370.031 1175.41,-364.851"/>
<polygon fill="#ebc72d" stroke="#ebc72d" points="1177.95,-367.319 1183.78,-358.471 1173.7,-361.753 1177.95,-367.319"/>
</g>
<!-- summoner&#45;&gt;tower_of_souls -->
<g id="edge38" class="edge"><title>summoner&#45;&gt;tower_of_souls</title>
<path fill="none" stroke="#ebc72d" stroke-dasharray="1,5" d="M1004.27,-438.331C974.226,-420.275 923.059,-389.519 887.04,-367.868"/>
<polygon fill="#ebc72d" stroke="#ebc72d" points="888.605,-364.725 878.231,-362.573 884.999,-370.725 888.605,-364.725"/>
</g>
<!-- summoner&#45;&gt;dragon_rider -->
<g id="edge34" class="edge"><title>summoner&#45;&gt;dragon_rider</title>
<path fill="none" stroke="#ebc72d" stroke-dasharray="5,2" d="M1018.62,-436.46C1008.76,-420.511 993.628,-396.034 981.338,-376.153"/>
<polygon fill="#ebc72d" stroke="#ebc72d" points="984.155,-374.055 975.92,-367.389 978.201,-377.736 984.155,-374.055"/>
</g>
<!-- dragon -->
<g id="node19" class="node"><title>dragon</title>
<g id="a_node19"><a xlink:href="magic_dragon_full.html" xlink:title="Dragon">
<ellipse fill="none" stroke="magenta" cx="417.946" cy="-122.953" rx="37.0935" ry="18"/>
<text text-anchor="middle" x="417.946" y="-119.253" font-family="Times,serif" font-size="14.00" fill="#ebc72d">Dragon</text>
</a>
</g>
</g>
<!-- summoner&#45;&gt;dragon -->
<g id="edge33" class="edge"><title>summoner&#45;&gt;dragon</title>
<path fill="none" stroke="#ebc72d" d="M1026.81,-436.174C1024.56,-414.371 1022.18,-375.505 1028.95,-343.167"/>
<path fill="none" stroke="#ebc72d" d="M1028.95,-341.167C1053.65,-223.062 608.602,-150.45 463.153,-129.951"/>
<polygon fill="#ebc72d" stroke="#ebc72d" points="463.596,-126.479 453.209,-128.566 462.63,-133.412 463.596,-126.479"/>
</g>
<!-- summoner&#45;&gt;faster_movement -->
<g id="edge35" class="edge"><title>summoner&#45;&gt;faster_movement</title>
<path fill="none" stroke="#ebc72d" stroke-dasharray="1,5" d="M1028.95,-341.167C1034.81,-313.114 1054.52,-288.927 1075.15,-270.434"/>
<polygon fill="#ebc72d" stroke="#ebc72d" points="1077.47,-273.057 1082.76,-263.882 1072.9,-267.75 1077.47,-273.057"/>
</g>
<!-- dragon&#45;&gt;evil_dragon -->
<g id="edge6" class="edge"><title>dragon&#45;&gt;evil_dragon</title>
<path fill="none" stroke="#ebc72d" stroke-dasharray="5,2" d="M393.379,-109.46C362.753,-93.8847 309.984,-67.0485 273.367,-48.4264"/>
<polygon fill="#ebc72d" stroke="#ebc72d" points="274.929,-45.2942 264.428,-43.8808 271.755,-51.5337 274.929,-45.2942"/>
</g>
<!-- dragon_call&#45;&gt;dragon -->
<g id="edge7" class="edge"><title>dragon_call&#45;&gt;dragon</title>
<path fill="none" stroke="#ebc72d" stroke-dasharray="1,5" d="M417.946,-192.072C417.946,-178.619 417.946,-163.68 417.946,-151.227"/>
<polygon fill="#ebc72d" stroke="#ebc72d" points="421.446,-151.025 417.946,-141.025 414.446,-151.025 421.446,-151.025"/>
</g>
<!-- golem_power&#45;&gt;power_golem -->
<g id="edge11" class="edge"><title>golem_power&#45;&gt;power_golem</title>
<path fill="none" stroke="#ebc72d" stroke-dasharray="1,5" d="M258.933,-192.072C262.116,-182.222 265.557,-171.574 268.751,-161.69"/>
<polygon fill="#ebc72d" stroke="#ebc72d" points="272.1,-162.709 271.845,-152.117 265.439,-160.556 272.1,-162.709"/>
</g>
<!-- ancient_summoning&#45;&gt;ghost_armor -->
<g id="edge1" class="edge"><title>ancient_summoning&#45;&gt;ghost_armor</title>
<path fill="none" stroke="#ebc72d" stroke-dasharray="1,5" d="M1269.48,-415.926C1282.62,-401.754 1297.39,-385.82 1309.76,-372.484"/>
<polygon fill="#ebc72d" stroke="#ebc72d" points="1312.5,-374.677 1316.73,-364.965 1307.37,-369.918 1312.5,-374.677"/>
</g>
<!-- hell_gate&#45;&gt;behemoth -->
<g id="edge12" class="edge"><title>hell_gate&#45;&gt;behemoth</title>
<path fill="none" stroke="#ebc72d" stroke-dasharray="1,5" d="M1130.46,-319.152C1137.69,-314.044 1145.5,-308.762 1152.95,-304.167 1182.05,-286.215 1191.53,-285.613 1220.95,-268.167 1229.41,-263.146 1238.38,-257.411 1246.61,-251.98"/>
<polygon fill="#ebc72d" stroke="#ebc72d" points="1248.81,-254.718 1255.18,-246.253 1244.92,-248.897 1248.81,-254.718"/>
</g>
<!-- hell_gate&#45;&gt;faster_movement -->
<g id="edge13" class="edge"><title>hell_gate&#45;&gt;faster_movement</title>
<path fill="none" stroke="#ebc72d" stroke-dasharray="1,5" d="M1111.44,-303.926C1113.76,-295.683 1116.25,-286.844 1118.67,-278.266"/>
<polygon fill="#ebc72d" stroke="#ebc72d" points="1122.12,-278.944 1121.46,-268.369 1115.38,-277.045 1122.12,-278.944"/>
</g>
</g>
</svg>
