<?xml version="1.0" encoding="UTF-8" standalone="no"?>
<!DOCTYPE svg PUBLIC "-//W3C//DTD SVG 1.1//EN"
 "http://www.w3.org/Graphics/SVG/1.1/DTD/svg11.dtd">
<!-- Generated by graphviz version 2.38.0 (20140413.2041)
 -->
<!-- Title: test Pages: 1 -->
<svg width="1377pt" height="308pt"
 viewBox="0.00 0.00 1376.55 308.17" xmlns="http://www.w3.org/2000/svg" xmlns:xlink="http://www.w3.org/1999/xlink">
<g id="graph0" class="graph" transform="scale(1 1) rotate(0) translate(4 304.167)">
<title>test</title>
<polygon fill="#151515" stroke="none" points="-4,4 -4,-304.167 1372.55,-304.167 1372.55,4 -4,4"/>
<!-- farm -->
<g id="node1" class="node"><title>farm</title>
<g id="a_node1"><a xlink:href="egypt_farm_full.html" xlink:title="Farm">
<polygon fill="none" stroke="red" points="193.523,-200.516 156.612,-212.953 119.702,-200.516 119.737,-180.391 193.488,-180.391 193.523,-200.516"/>
<text text-anchor="middle" x="156.612" y="-191.253" font-family="Times,serif" font-size="14.00" fill="#ebc72d">Farm</text>
</a>
</g>
</g>
<!-- ibis -->
<g id="node8" class="node"><title>ibis</title>
<g id="a_node8"><a xlink:href="egypt_ibis_full.html" xlink:title="Ibis">
<ellipse fill="none" stroke="magenta" cx="142.612" cy="-107.74" rx="27" ry="18"/>
<text text-anchor="middle" x="142.612" y="-104.04" font-family="Times,serif" font-size="14.00" fill="#ebc72d">Ibis</text>
</a>
</g>
</g>
<!-- farm&#45;&gt;ibis -->
<g id="edge4" class="edge"><title>farm&#45;&gt;ibis</title>
<path fill="none" stroke="#ebc72d" stroke-dasharray="1,5" d="M154.363,-180.262C152.41,-168.375 149.523,-150.802 147.099,-136.05"/>
<polygon fill="#ebc72d" stroke="#ebc72d" points="150.511,-135.228 145.436,-125.928 143.604,-136.363 150.511,-135.228"/>
</g>
<!-- chicken -->
<g id="node14" class="node"><title>chicken</title>
<g id="a_node14"><a xlink:href="egypt_chicken_full.html" xlink:title="Chicken">
<ellipse fill="none" stroke="magenta" cx="57.6125" cy="-107.74" rx="40.0939" ry="18"/>
<text text-anchor="middle" x="57.6125" y="-104.04" font-family="Times,serif" font-size="14.00" fill="#ebc72d">Chicken</text>
</a>
</g>
</g>
<!-- farm&#45;&gt;chicken -->
<g id="edge3" class="edge"><title>farm&#45;&gt;chicken</title>
<path fill="none" stroke="#ebc72d" d="M140.706,-180.262C125.254,-166.962 101.533,-146.544 83.385,-130.924"/>
<polygon fill="#ebc72d" stroke="#ebc72d" points="85.3511,-127.998 75.4887,-124.127 80.7845,-133.303 85.3511,-127.998"/>
</g>
<!-- pyramid -->
<g id="node2" class="node"><title>pyramid</title>
<g id="a_node2"><a xlink:href="egypt_pyramid_full.html" xlink:title="Pyramid">
<polygon fill="none" stroke="red" points="101.338,-200.516 50.6125,-212.953 -0.112743,-200.516 -0.0653974,-180.391 101.29,-180.391 101.338,-200.516"/>
<text text-anchor="middle" x="50.6125" y="-191.253" font-family="Times,serif" font-size="14.00" fill="#ebc72d">Pyramid</text>
</a>
</g>
</g>
<!-- slave -->
<g id="node15" class="node"><title>slave</title>
<g id="a_node15"><a xlink:href="egypt_slave_full.html" xlink:title="Slave">
<ellipse fill="none" stroke="magenta" cx="412.612" cy="-282.167" rx="30.5947" ry="18"/>
<text text-anchor="middle" x="412.612" y="-278.467" font-family="Times,serif" font-size="14.00" fill="#ebc72d">Slave</text>
</a>
</g>
</g>
<!-- air_pyramid -->
<g id="node3" class="node"><title>air_pyramid</title>
<g id="a_node3"><a xlink:href="egypt_air_pyramid_full.html" xlink:title="Air\nPyramid">
<polygon fill="none" stroke="red" points="347.741,-205.283 292.612,-228.381 237.484,-205.283 237.536,-167.91 347.689,-167.91 347.741,-205.283"/>
<text text-anchor="middle" x="292.612" y="-198.753" font-family="Times,serif" font-size="14.00" fill="#ebc72d">Air</text>
<text text-anchor="middle" x="292.612" y="-183.753" font-family="Times,serif" font-size="14.00" fill="#ebc72d">Pyramid</text>
</a>
</g>
</g>
<!-- snake -->
<g id="node4" class="node"><title>snake</title>
<g id="a_node4"><a xlink:href="egypt_snake_full.html" xlink:title="Snake">
<ellipse fill="none" stroke="magenta" cx="219.612" cy="-107.74" rx="32.4942" ry="18"/>
<text text-anchor="middle" x="219.612" y="-104.04" font-family="Times,serif" font-size="14.00" fill="#ebc72d">Snake</text>
</a>
</g>
</g>
<!-- mummy -->
<g id="node5" class="node"><title>mummy</title>
<g id="a_node5"><a xlink:href="egypt_mummy_full.html" xlink:title="Mummy">
<ellipse fill="none" stroke="magenta" cx="1005.61" cy="-26.8701" rx="42.4939" ry="18"/>
<text text-anchor="middle" x="1005.61" y="-23.1701" font-family="Times,serif" font-size="14.00" fill="#ebc72d">Mummy</text>
</a>
</g>
</g>
<!-- spearman -->
<g id="node6" class="node"><title>spearman</title>
<g id="a_node6"><a xlink:href="egypt_spearman_full.html" xlink:title="Spearman">
<ellipse fill="none" stroke="magenta" cx="694.612" cy="-107.74" rx="46.2923" ry="18"/>
<text text-anchor="middle" x="694.612" y="-104.04" font-family="Times,serif" font-size="14.00" fill="#ebc72d">Spearman</text>
</a>
</g>
</g>
<!-- spearthrower -->
<g id="node7" class="node"><title>spearthrower</title>
<g id="a_node7"><a xlink:href="egypt_spearthrower_full.html" xlink:title="Spearthrower">
<ellipse fill="none" stroke="magenta" cx="816.612" cy="-107.74" rx="57.6901" ry="18"/>
<text text-anchor="middle" x="816.612" y="-104.04" font-family="Times,serif" font-size="14.00" fill="#ebc72d">Spearthrower</text>
</a>
</g>
</g>
<!-- anubis_warrior -->
<g id="node9" class="node"><title>anubis_warrior</title>
<g id="a_node9"><a xlink:href="egypt_anubis_warrior_full.html" xlink:title="Anubis\nWarrior">
<ellipse fill="none" stroke="magenta" cx="902.612" cy="-26.8701" rx="42.3529" ry="26.7407"/>
<text text-anchor="middle" x="902.612" y="-30.6701" font-family="Times,serif" font-size="14.00" fill="#ebc72d">Anubis</text>
<text text-anchor="middle" x="902.612" y="-15.6701" font-family="Times,serif" font-size="14.00" fill="#ebc72d">Warrior</text>
</a>
</g>
</g>
<!-- obelisk -->
<g id="node10" class="node"><title>obelisk</title>
<g id="a_node10"><a xlink:href="egypt_obelisk_full.html" xlink:title="Obelisk">
<polygon fill="none" stroke="red" points="459.911,-200.516 412.612,-212.953 365.314,-200.516 365.358,-180.391 459.867,-180.391 459.911,-200.516"/>
<text text-anchor="middle" x="412.612" y="-191.253" font-family="Times,serif" font-size="14.00" fill="#ebc72d">Obelisk</text>
</a>
</g>
</g>
<!-- obelisk&#45;&gt;snake -->
<g id="edge7" class="edge"><title>obelisk&#45;&gt;snake</title>
<path fill="none" stroke="#ebc72d" d="M390.704,-180.264C380.538,-174.197 368.169,-167.211 356.612,-161.74 315.802,-142.422 303.653,-142.212 261.612,-125.74 259.241,-124.811 256.798,-123.845 254.339,-122.866"/>
<polygon fill="#ebc72d" stroke="#ebc72d" points="255.479,-119.553 244.895,-119.08 252.874,-126.05 255.479,-119.553"/>
</g>
<!-- obelisk&#45;&gt;ibis -->
<g id="edge5" class="edge"><title>obelisk&#45;&gt;ibis</title>
<path fill="none" stroke="#ebc72d" d="M392.653,-180.361C382.297,-173.866 369.205,-166.491 356.612,-161.74 281.096,-133.248 255.219,-151.158 178.612,-125.74 176.694,-125.103 174.743,-124.39 172.794,-123.627"/>
<polygon fill="#ebc72d" stroke="#ebc72d" points="173.771,-120.237 163.201,-119.505 171.007,-126.668 173.771,-120.237"/>
</g>
<!-- scarab -->
<g id="node13" class="node"><title>scarab</title>
<g id="a_node13"><a xlink:href="egypt_scarab_full.html" xlink:title="Scarab">
<ellipse fill="none" stroke="magenta" cx="304.612" cy="-107.74" rx="34.394" ry="18"/>
<text text-anchor="middle" x="304.612" y="-104.04" font-family="Times,serif" font-size="14.00" fill="#ebc72d">Scarab</text>
</a>
</g>
</g>
<!-- obelisk&#45;&gt;scarab -->
<g id="edge6" class="edge"><title>obelisk&#45;&gt;scarab</title>
<path fill="none" stroke="#ebc72d" d="M395.26,-180.262C377.939,-166.595 351.091,-145.413 331.104,-129.642"/>
<polygon fill="#ebc72d" stroke="#ebc72d" points="333.024,-126.699 323.006,-123.253 328.689,-132.195 333.024,-126.699"/>
</g>
<!-- summon_scarab -->
<g id="node20" class="node"><title>summon_scarab</title>
<ellipse fill="none" stroke="black" cx="425.612" cy="-107.74" rx="68.7879" ry="18"/>
<text text-anchor="middle" x="425.612" y="-104.04" font-family="Times,serif" font-size="14.00">summon_scarab</text>
</g>
<!-- obelisk&#45;&gt;summon_scarab -->
<g id="edge9" class="edge"><title>obelisk&#45;&gt;summon_scarab</title>
<path fill="none" stroke="#ebc72d" stroke-dasharray="1,5" d="M414.701,-180.262C416.515,-168.375 419.196,-150.802 421.446,-136.05"/>
<polygon fill="#ebc72d" stroke="#ebc72d" points="424.942,-136.342 422.99,-125.928 418.022,-135.286 424.942,-136.342"/>
</g>
<!-- summon_ibis -->
<g id="node21" class="node"><title>summon_ibis</title>
<ellipse fill="none" stroke="black" cx="571.612" cy="-107.74" rx="59.2899" ry="18"/>
<text text-anchor="middle" x="571.612" y="-104.04" font-family="Times,serif" font-size="14.00">summon_ibis</text>
</g>
<!-- obelisk&#45;&gt;summon_ibis -->
<g id="edge8" class="edge"><title>obelisk&#45;&gt;summon_ibis</title>
<path fill="none" stroke="#ebc72d" stroke-dasharray="1,5" d="M438.159,-180.262C464.219,-166.296 504.926,-144.48 534.532,-128.613"/>
<polygon fill="#ebc72d" stroke="#ebc72d" points="536.561,-131.496 543.722,-123.688 533.255,-125.326 536.561,-131.496"/>
</g>
<!-- desert_camp -->
<g id="node11" class="node"><title>desert_camp</title>
<g id="a_node11"><a xlink:href="egypt_desert_camp_full.html" xlink:title="Desert\nCamp">
<polygon fill="none" stroke="red" points="740.012,-205.283 694.612,-228.381 649.213,-205.283 649.255,-167.91 739.97,-167.91 740.012,-205.283"/>
<text text-anchor="middle" x="694.612" y="-198.753" font-family="Times,serif" font-size="14.00" fill="#ebc72d">Desert</text>
<text text-anchor="middle" x="694.612" y="-183.753" font-family="Times,serif" font-size="14.00" fill="#ebc72d">Camp</text>
</a>
</g>
</g>
<!-- desert_camp&#45;&gt;spearman -->
<g id="edge1" class="edge"><title>desert_camp&#45;&gt;spearman</title>
<path fill="none" stroke="#ebc72d" d="M694.612,-167.458C694.612,-157.484 694.612,-146.128 694.612,-136.078"/>
<polygon fill="#ebc72d" stroke="#ebc72d" points="698.113,-135.813 694.612,-125.813 691.113,-135.813 698.113,-135.813"/>
</g>
<!-- desert_camp&#45;&gt;spearthrower -->
<g id="edge2" class="edge"><title>desert_camp&#45;&gt;spearthrower</title>
<path fill="none" stroke="#ebc72d" d="M732.212,-167.691C749.343,-155.726 769.377,-141.733 785.626,-130.383"/>
<polygon fill="#ebc72d" stroke="#ebc72d" points="788.027,-132.975 794.221,-124.38 784.019,-127.236 788.027,-132.975"/>
</g>
<!-- priest -->
<g id="node12" class="node"><title>priest</title>
<g id="a_node12"><a xlink:href="egypt_priest_full.html" xlink:title="Priest">
<ellipse fill="none" stroke="magenta" cx="961.612" cy="-107.74" rx="30.5947" ry="18"/>
<text text-anchor="middle" x="961.612" y="-104.04" font-family="Times,serif" font-size="14.00" fill="#ebc72d">Priest</text>
</a>
</g>
</g>
<!-- priest&#45;&gt;mummy -->
<g id="edge11" class="edge"><title>priest&#45;&gt;mummy</title>
<path fill="none" stroke="#ebc72d" d="M970.729,-90.3982C976.707,-79.6836 984.643,-65.4571 991.436,-53.2814"/>
<polygon fill="#ebc72d" stroke="#ebc72d" points="994.541,-54.9005 996.356,-44.4624 988.427,-51.4902 994.541,-54.9005"/>
</g>
<!-- priest&#45;&gt;anubis_warrior -->
<g id="edge10" class="edge"><title>priest&#45;&gt;anubis_warrior</title>
<path fill="none" stroke="#ebc72d" d="M949.673,-90.7796C943.031,-81.9003 934.521,-70.5246 926.569,-59.8941"/>
<polygon fill="#ebc72d" stroke="#ebc72d" points="929.15,-57.5014 920.357,-51.5905 923.544,-61.6945 929.15,-57.5014"/>
</g>
<!-- slave&#45;&gt;farm -->
<g id="edge15" class="edge"><title>slave&#45;&gt;farm</title>
<path fill="none" stroke="#ebc72d" stroke-width="2" d="M384.792,-274.451C348.418,-265.378 282.937,-248.032 228.612,-228.167 214.572,-223.032 199.412,-216.419 186.642,-210.521"/>
<polygon fill="#ebc72d" stroke="#ebc72d" stroke-width="2" points="187.94,-207.264 177.4,-206.187 184.968,-213.602 187.94,-207.264"/>
</g>
<!-- slave&#45;&gt;pyramid -->
<g id="edge17" class="edge"><title>slave&#45;&gt;pyramid</title>
<path fill="none" stroke="#ebc72d" stroke-width="2" d="M372.222,-278.188C313.316,-272.934 201.013,-259.457 110.612,-228.167 99.775,-224.415 88.5361,-218.882 78.7559,-213.456"/>
<polygon fill="#ebc72d" stroke="#ebc72d" stroke-width="2" points="371.976,-281.68 382.239,-279.047 372.575,-274.705 371.976,-281.68"/>
<polygon fill="#ebc72d" stroke="#ebc72d" stroke-width="2" points="80.2991,-210.305 69.8867,-208.347 76.8054,-216.371 80.2991,-210.305"/>
</g>
<!-- slave&#45;&gt;air_pyramid -->
<g id="edge13" class="edge"><title>slave&#45;&gt;air_pyramid</title>
<path fill="none" stroke="#ebc72d" stroke-width="2" d="M393.862,-267.852C376.754,-255.703 350.972,-237.395 329.707,-222.294"/>
<polygon fill="#ebc72d" stroke="#ebc72d" stroke-width="2" points="331.688,-219.409 321.508,-216.472 327.635,-225.116 331.688,-219.409"/>
</g>
<!-- slave&#45;&gt;obelisk -->
<g id="edge16" class="edge"><title>slave&#45;&gt;obelisk</title>
<path fill="none" stroke="#ebc72d" stroke-width="2" d="M412.612,-263.922C412.612,-252.257 412.612,-236.603 412.612,-223.258"/>
<polygon fill="#ebc72d" stroke="#ebc72d" stroke-width="2" points="416.113,-223.172 412.612,-213.172 409.113,-223.172 416.113,-223.172"/>
</g>
<!-- slave&#45;&gt;desert_camp -->
<g id="edge14" class="edge"><title>slave&#45;&gt;desert_camp</title>
<path fill="none" stroke="#ebc72d" stroke-width="2" d="M439.142,-273.15C486.159,-258.943 584.791,-229.139 644.81,-211.002"/>
<polygon fill="#ebc72d" stroke="#ebc72d" stroke-width="2" points="645.899,-214.33 654.459,-208.087 643.874,-207.629 645.899,-214.33"/>
</g>
<!-- temple -->
<g id="node16" class="node"><title>temple</title>
<g id="a_node16"><a xlink:href="egypt_temple_full.html" xlink:title="Temple">
<polygon fill="none" stroke="red" points="979.911,-200.516 932.612,-212.953 885.314,-200.516 885.358,-180.391 979.867,-180.391 979.911,-200.516"/>
<text text-anchor="middle" x="932.612" y="-191.253" font-family="Times,serif" font-size="14.00" fill="#ebc72d">Temple</text>
</a>
</g>
</g>
<!-- slave&#45;&gt;temple -->
<g id="edge19" class="edge"><title>slave&#45;&gt;temple</title>
<path fill="none" stroke="#ebc72d" stroke-width="2" d="M441.853,-276.724C500.22,-267.819 635.309,-247.019 748.612,-228.167 794.668,-220.503 847.114,-211.272 884.198,-204.659"/>
<polygon fill="#ebc72d" stroke="#ebc72d" stroke-width="2" points="885.003,-208.071 894.232,-202.867 883.772,-201.18 885.003,-208.071"/>
</g>
<!-- sphinx -->
<g id="node17" class="node"><title>sphinx</title>
<g id="a_node17"><a xlink:href="egypt_sphinx_full.html" xlink:title="Sphinx">
<polygon fill="none" stroke="red" points="1086.98,-200.516 1042.61,-212.953 998.241,-200.516 998.282,-180.391 1086.94,-180.391 1086.98,-200.516"/>
<text text-anchor="middle" x="1042.61" y="-191.253" font-family="Times,serif" font-size="14.00" fill="#ebc72d">Sphinx</text>
</a>
</g>
</g>
<!-- slave&#45;&gt;sphinx -->
<g id="edge18" class="edge"><title>slave&#45;&gt;sphinx</title>
<path fill="none" stroke="#ebc72d" stroke-width="2" d="M443.213,-280.136C547.108,-276.359 885.606,-261.71 988.612,-228.167 998.627,-224.905 1008.76,-219.526 1017.51,-214.09"/>
<polygon fill="#ebc72d" stroke="#ebc72d" stroke-width="2" points="1019.61,-216.898 1026.05,-208.489 1015.77,-211.044 1019.61,-216.898"/>
</g>
<!-- temple&#45;&gt;anubis_warrior -->
<g id="edge20" class="edge"><title>temple&#45;&gt;anubis_warrior</title>
<path fill="none" stroke="#ebc72d" stroke-dasharray="1,5" d="M930.157,-180.362C925.61,-155.189 915.741,-100.552 909.136,-63.9855"/>
<polygon fill="#ebc72d" stroke="#ebc72d" points="912.506,-62.9494 907.284,-53.7308 905.617,-64.1937 912.506,-62.9494"/>
</g>
<!-- temple&#45;&gt;priest -->
<g id="edge21" class="edge"><title>temple&#45;&gt;priest</title>
<path fill="none" stroke="#ebc72d" d="M937.272,-180.262C941.383,-168.183 947.491,-150.233 952.561,-135.338"/>
<polygon fill="#ebc72d" stroke="#ebc72d" points="955.958,-136.218 955.867,-125.623 949.332,-133.962 955.958,-136.218"/>
</g>
<!-- spear_weapons -->
<g id="node18" class="node"><title>spear_weapons</title>
<ellipse fill="none" stroke="black" cx="1074.61" cy="-107.74" rx="64.189" ry="18"/>
<text text-anchor="middle" x="1074.61" y="-104.04" font-family="Times,serif" font-size="14.00">spear_weapons</text>
</g>
<!-- temple&#45;&gt;spear_weapons -->
<g id="edge22" class="edge"><title>temple&#45;&gt;spear_weapons</title>
<path fill="none" stroke="#ebc72d" stroke-dasharray="1,5" d="M955.427,-180.262C978.149,-166.627 1013.34,-145.51 1039.6,-129.752"/>
<polygon fill="#ebc72d" stroke="#ebc72d" points="1041.71,-132.569 1048.48,-124.422 1038.1,-126.567 1041.71,-132.569"/>
</g>
<!-- speedup_priest_production -->
<g id="node19" class="node"><title>speedup_priest_production</title>
<ellipse fill="none" stroke="black" cx="1262.61" cy="-107.74" rx="105.881" ry="18"/>
<text text-anchor="middle" x="1262.61" y="-104.04" font-family="Times,serif" font-size="14.00">speedup_priest_production</text>
</g>
<!-- temple&#45;&gt;speedup_priest_production -->
<g id="edge23" class="edge"><title>temple&#45;&gt;speedup_priest_production</title>
<path fill="none" stroke="#ebc72d" stroke-dasharray="1,5" d="M952.944,-180.332C963.489,-173.83 976.814,-166.457 989.612,-161.74 1023.44,-149.275 1110.7,-133.317 1177.54,-122.184"/>
<polygon fill="#ebc72d" stroke="#ebc72d" points="1178.37,-125.595 1187.66,-120.509 1177.23,-118.688 1178.37,-125.595"/>
</g>
</g>
</svg>
