<?xml version="1.0" encoding="UTF-8" standalone="no"?>
<!DOCTYPE svg PUBLIC "-//W3C//DTD SVG 1.1//EN"
 "http://www.w3.org/Graphics/SVG/1.1/DTD/svg11.dtd">
<!-- Generated by graphviz version 2.38.0 (20140413.2041)
 -->
<!-- Title: test Pages: 1 -->
<svg width="250pt" height="393pt"
 viewBox="0.00 0.00 250.14 392.85" xmlns="http://www.w3.org/2000/svg" xmlns:xlink="http://www.w3.org/1999/xlink">
<g id="graph0" class="graph" transform="scale(1 1) rotate(0) translate(4 388.853)">
<title>test</title>
<polygon fill="#151515" stroke="none" points="-4,4 -4,-388.853 246.141,-388.853 246.141,4 -4,4"/>
<!-- farm -->
<g id="node1" class="node"><title>farm</title>
<g id="a_node1"><a xlink:href="egypt_farm_full.html" xlink:title="Farm">
<polygon fill="none" stroke="red" points="73.8655,-285.202 36.9552,-297.64 0.0447922,-285.202 0.0792436,-265.077 73.8311,-265.077 73.8655,-285.202"/>
<text text-anchor="middle" x="36.9552" y="-275.94" font-family="Times,serif" font-size="14.00" fill="#ebc72d">Farm</text>
</a>
</g>
</g>
<!-- pyramid -->
<g id="node2" class="node"><title>pyramid</title>
<g id="a_node2"><a xlink:href="egypt_pyramid_full.html" xlink:title="Pyramid">
<polygon fill="none" stroke="red" points="188.68,-372.415 137.955,-384.853 87.2299,-372.415 87.2773,-352.291 188.633,-352.291 188.68,-372.415"/>
<text text-anchor="middle" x="137.955" y="-363.153" font-family="Times,serif" font-size="14.00" fill="#ebc72d">Pyramid</text>
</a>
</g>
</g>
<!-- pyramid&#45;&gt;farm -->
<g id="edge5" class="edge"><title>pyramid&#45;&gt;farm</title>
<path fill="none" stroke="#ebc72d" stroke-dasharray="1,5" d="M121.728,-352.162C104.824,-337.9 78.2197,-315.454 59.3274,-299.515"/>
<polygon fill="#ebc72d" stroke="#ebc72d" points="61.4034,-296.687 51.5033,-292.914 56.8894,-302.037 61.4034,-296.687"/>
</g>
<!-- obelisk -->
<g id="node4" class="node"><title>obelisk</title>
<g id="a_node4"><a xlink:href="egypt_obelisk_full.html" xlink:title="Obelisk">
<polygon fill="none" stroke="red" points="186.253,-125.989 138.955,-138.426 91.6569,-125.989 91.7011,-105.864 186.209,-105.864 186.253,-125.989"/>
<text text-anchor="middle" x="138.955" y="-116.726" font-family="Times,serif" font-size="14.00" fill="#ebc72d">Obelisk</text>
</a>
</g>
</g>
<!-- pyramid&#45;&gt;obelisk -->
<g id="edge6" class="edge"><title>pyramid&#45;&gt;obelisk</title>
<path fill="none" stroke="#ebc72d" stroke-dasharray="1,5" d="M132.276,-352.19C128.216,-341.652 123.106,-326.601 120.955,-312.853 111.445,-252.069 110.929,-235.127 120.955,-174.426 122.503,-165.055 125.493,-155.112 128.599,-146.402"/>
<polygon fill="#ebc72d" stroke="#ebc72d" points="131.948,-147.442 132.218,-136.85 125.402,-144.961 131.948,-147.442"/>
</g>
<!-- desert_camp -->
<g id="node5" class="node"><title>desert_camp</title>
<g id="a_node5"><a xlink:href="egypt_desert_camp_full.html" xlink:title="Desert\nCamp">
<polygon fill="none" stroke="red" points="220.355,-289.969 174.955,-313.067 129.556,-289.969 129.598,-252.596 220.312,-252.596 220.355,-289.969"/>
<text text-anchor="middle" x="174.955" y="-283.44" font-family="Times,serif" font-size="14.00" fill="#ebc72d">Desert</text>
<text text-anchor="middle" x="174.955" y="-268.44" font-family="Times,serif" font-size="14.00" fill="#ebc72d">Camp</text>
</a>
</g>
</g>
<!-- pyramid&#45;&gt;desert_camp -->
<g id="edge4" class="edge"><title>pyramid&#45;&gt;desert_camp</title>
<path fill="none" stroke="#ebc72d" stroke-dasharray="1,5" d="M143.9,-352.162C148.067,-342.564 153.844,-329.261 159.286,-316.728"/>
<polygon fill="#ebc72d" stroke="#ebc72d" points="162.577,-317.934 163.35,-307.368 156.156,-315.146 162.577,-317.934"/>
</g>
<!-- temple -->
<g id="node6" class="node"><title>temple</title>
<g id="a_node6"><a xlink:href="egypt_temple_full.html" xlink:title="Temple">
<polygon fill="none" stroke="red" points="224.253,-197.989 176.955,-210.426 129.657,-197.989 129.701,-177.864 224.209,-177.864 224.253,-197.989"/>
<text text-anchor="middle" x="176.955" y="-188.726" font-family="Times,serif" font-size="14.00" fill="#ebc72d">Temple</text>
</a>
</g>
</g>
<!-- pyramid&#45;&gt;temple -->
<g id="edge7" class="edge"><title>pyramid&#45;&gt;temple</title>
<path fill="none" stroke="#ebc72d" stroke-dasharray="1,5" d="M180.352,-352.134C198.711,-343.846 218.386,-331.24 228.955,-312.853 243.668,-287.257 240.123,-273.755 228.955,-246.426 223.568,-233.245 213.148,-221.57 203.041,-212.557"/>
<polygon fill="#ebc72d" stroke="#ebc72d" points="205.021,-209.65 195.105,-205.921 200.531,-215.02 205.021,-209.65"/>
</g>
<!-- air_pyramid -->
<g id="node3" class="node"><title>air_pyramid</title>
<g id="a_node3"><a xlink:href="egypt_air_pyramid_full.html" xlink:title="Air\nPyramid">
<polygon fill="none" stroke="red" points="136.083,-43.543 80.9552,-66.641 25.827,-43.543 25.8785,-6.16955 136.032,-6.16955 136.083,-43.543"/>
<text text-anchor="middle" x="80.9552" y="-37.0132" font-family="Times,serif" font-size="14.00" fill="#ebc72d">Air</text>
<text text-anchor="middle" x="80.9552" y="-22.0132" font-family="Times,serif" font-size="14.00" fill="#ebc72d">Pyramid</text>
</a>
</g>
</g>
<!-- obelisk&#45;&gt;air_pyramid -->
<g id="edge2" class="edge"><title>obelisk&#45;&gt;air_pyramid</title>
<path fill="none" stroke="#ebc72d" stroke-dasharray="1,5" d="M129.636,-105.735C122.702,-95.547 112.924,-81.1816 103.949,-67.9955"/>
<polygon fill="#ebc72d" stroke="#ebc72d" points="106.725,-65.8539 98.2049,-59.5565 100.938,-69.7927 106.725,-65.8539"/>
</g>
<!-- sphinx -->
<g id="node7" class="node"><title>sphinx</title>
<g id="a_node7"><a xlink:href="egypt_sphinx_full.html" xlink:title="Sphinx">
<polygon fill="none" stroke="red" points="242.327,-38.7755 197.955,-51.2132 153.583,-38.7755 153.625,-18.6509 242.286,-18.6509 242.327,-38.7755"/>
<text text-anchor="middle" x="197.955" y="-29.5132" font-family="Times,serif" font-size="14.00" fill="#ebc72d">Sphinx</text>
</a>
</g>
</g>
<!-- obelisk&#45;&gt;sphinx -->
<g id="edge3" class="edge"><title>obelisk&#45;&gt;sphinx</title>
<path fill="none" stroke="#ebc72d" stroke-dasharray="1,5" d="M148.435,-105.735C157.475,-92.6786 171.265,-72.762 181.999,-57.2587"/>
<polygon fill="#ebc72d" stroke="#ebc72d" points="185.092,-58.9399 187.907,-48.7258 179.337,-54.9551 185.092,-58.9399"/>
</g>
<!-- desert_camp&#45;&gt;temple -->
<g id="edge1" class="edge"><title>desert_camp&#45;&gt;temple</title>
<path fill="none" stroke="#ebc72d" stroke-dasharray="1,5" d="M175.577,-252.145C175.811,-242.17 176.078,-230.814 176.314,-220.765"/>
<polygon fill="#ebc72d" stroke="#ebc72d" points="179.819,-220.579 176.554,-210.499 172.821,-220.414 179.819,-220.579"/>
</g>
<!-- temple&#45;&gt;obelisk -->
<g id="edge8" class="edge"><title>temple&#45;&gt;obelisk</title>
<path fill="none" stroke="#ebc72d" stroke-dasharray="1,5" d="M169.448,-177.597C164.496,-168.475 157.876,-156.28 152.069,-145.584"/>
<polygon fill="#ebc72d" stroke="#ebc72d" points="155.086,-143.804 147.239,-136.686 148.934,-147.144 155.086,-143.804"/>
</g>
</g>
</svg>
