<?xml version="1.0" encoding="UTF-8" standalone="no"?>
<!DOCTYPE svg PUBLIC "-//W3C//DTD SVG 1.1//EN"
 "http://www.w3.org/Graphics/SVG/1.1/DTD/svg11.dtd">
<!-- Generated by graphviz version 2.38.0 (20140413.2041)
 -->
<!-- Title: test Pages: 1 -->
<svg width="1112pt" height="742pt"
 viewBox="0.00 0.00 1111.56 742.07" xmlns="http://www.w3.org/2000/svg" xmlns:xlink="http://www.w3.org/1999/xlink">
<g id="graph0" class="graph" transform="scale(1 1) rotate(0) translate(4 738.073)">
<title>test</title>
<polygon fill="#151515" stroke="none" points="-4,4 -4,-738.073 1107.56,-738.073 1107.56,4 -4,4"/>
<!-- cow -->
<g id="node1" class="node"><title>cow</title>
<g id="a_node1"><a xlink:href="norsemen_cow_full.html" xlink:title="Cow">
<ellipse fill="none" stroke="magenta" cx="108.958" cy="-430.35" rx="27.0966" ry="18"/>
<text text-anchor="middle" x="108.958" y="-426.65" font-family="Times,serif" font-size="14.00" fill="#ebc72d">Cow</text>
</a>
</g>
</g>
<!-- mistletoe_tree -->
<g id="node2" class="node"><title>mistletoe_tree</title>
<g id="a_node2"><a xlink:href="norsemen_mistletoe_tree_full.html" xlink:title="Mistletoe\nTree">
<polygon fill="none" stroke="red" points="678.326,-339.81 618.958,-362.908 559.59,-339.81 559.645,-302.437 678.271,-302.437 678.326,-339.81"/>
<text text-anchor="middle" x="618.958" y="-333.28" font-family="Times,serif" font-size="14.00" fill="#ebc72d">Mistletoe</text>
<text text-anchor="middle" x="618.958" y="-318.28" font-family="Times,serif" font-size="14.00" fill="#ebc72d">Tree</text>
</a>
</g>
</g>
<!-- wild_sow -->
<g id="node21" class="node"><title>wild_sow</title>
<g id="a_node21"><a xlink:href="norsemen_wild_sow_full.html" xlink:title="Wild\nSow">
<ellipse fill="none" stroke="magenta" cx="618.958" cy="-228.61" rx="31.2258" ry="26.7407"/>
<text text-anchor="middle" x="618.958" y="-232.41" font-family="Times,serif" font-size="14.00" fill="#ebc72d">Wild</text>
<text text-anchor="middle" x="618.958" y="-217.41" font-family="Times,serif" font-size="14.00" fill="#ebc72d">Sow</text>
</a>
</g>
</g>
<!-- mistletoe_tree&#45;&gt;wild_sow -->
<g id="edge35" class="edge"><title>mistletoe_tree&#45;&gt;wild_sow</title>
<path fill="none" stroke="#ebc72d" d="M618.958,-302.244C618.958,-291.094 618.958,-277.907 618.958,-265.851"/>
<polygon fill="#ebc72d" stroke="#ebc72d" points="622.458,-265.625 618.958,-255.625 615.458,-265.626 622.458,-265.625"/>
</g>
<!-- valhalla -->
<g id="node24" class="node"><title>valhalla</title>
<g id="a_node24"><a xlink:href="norsemen_valhalla_full.html" xlink:title="Valhalla">
<polygon fill="none" stroke="red" points="371.577,-234.172 321.958,-246.61 272.339,-234.172 272.385,-214.048 371.531,-214.048 371.577,-234.172"/>
<text text-anchor="middle" x="321.958" y="-224.91" font-family="Times,serif" font-size="14.00" fill="#ebc72d">Valhalla</text>
</a>
</g>
</g>
<!-- mistletoe_tree&#45;&gt;valhalla -->
<g id="edge34" class="edge"><title>mistletoe_tree&#45;&gt;valhalla</title>
<path fill="none" stroke="#ebc72d" stroke-dasharray="1,5" d="M574.318,-302.279C566.67,-298.348 558.693,-294.58 550.958,-291.48 490.413,-267.221 417.133,-249.298 370.049,-239.156"/>
<polygon fill="#ebc72d" stroke="#ebc72d" points="370.632,-235.702 360.123,-237.05 369.178,-242.549 370.632,-235.702"/>
</g>
<!-- root -->
<g id="node30" class="node"><title>root</title>
<g id="a_node30"><a xlink:href="norsemen_root_full.html" xlink:title="Root">
<polygon fill="none" stroke="green" points="945.911,-246.61 880.764,-246.61 864.005,-210.61 929.152,-210.61 945.911,-246.61"/>
<text text-anchor="middle" x="904.958" y="-224.91" font-family="Times,serif" font-size="14.00" fill="#ebc72d">Root</text>
</a>
</g>
</g>
<!-- mistletoe_tree&#45;&gt;root -->
<g id="edge33" class="edge"><title>mistletoe_tree&#45;&gt;root</title>
<path fill="none" stroke="#ebc72d" d="M678.367,-307.687C693.552,-302.388 709.855,-296.712 724.958,-291.48 774.191,-274.426 831.061,-254.909 867.484,-242.433"/>
<polygon fill="#ebc72d" stroke="#ebc72d" points="868.865,-245.659 877.192,-239.108 866.597,-239.037 868.865,-245.659"/>
</g>
<!-- house -->
<g id="node3" class="node"><title>house</title>
<g id="a_node3"><a xlink:href="norsemen_house_full.html" xlink:title="House">
<polygon fill="none" stroke="red" points="787.902,-634.422 746.958,-646.86 706.014,-634.422 706.052,-614.298 787.864,-614.298 787.902,-634.422"/>
<text text-anchor="middle" x="746.958" y="-625.16" font-family="Times,serif" font-size="14.00" fill="#ebc72d">House</text>
</a>
</g>
</g>
<!-- mead_bar -->
<g id="node8" class="node"><title>mead_bar</title>
<g id="a_node8"><a xlink:href="norsemen_mead_bar_full.html" xlink:title="Mead\nBar">
<polygon fill="none" stroke="red" points="811.865,-536.763 769.958,-559.861 728.051,-536.763 728.09,-499.39 811.826,-499.39 811.865,-536.763"/>
<text text-anchor="middle" x="769.958" y="-530.234" font-family="Times,serif" font-size="14.00" fill="#ebc72d">Mead</text>
<text text-anchor="middle" x="769.958" y="-515.234" font-family="Times,serif" font-size="14.00" fill="#ebc72d">Bar</text>
</a>
</g>
</g>
<!-- house&#45;&gt;mead_bar -->
<g id="edge23" class="edge"><title>house&#45;&gt;mead_bar</title>
<path fill="none" stroke="#ebc72d" stroke-dasharray="1,5" d="M750.156,-613.896C752.957,-601.667 757.164,-583.295 760.982,-566.628"/>
<polygon fill="#ebc72d" stroke="#ebc72d" points="764.471,-567.069 763.292,-556.54 757.648,-565.506 764.471,-567.069"/>
</g>
<!-- spearman -->
<g id="node10" class="node"><title>spearman</title>
<g id="a_node10"><a xlink:href="norsemen_spearman_full.html" xlink:title="Spearman">
<ellipse fill="none" stroke="magenta" cx="959.958" cy="-430.35" rx="46.2923" ry="18"/>
<text text-anchor="middle" x="959.958" y="-426.65" font-family="Times,serif" font-size="14.00" fill="#ebc72d">Spearman</text>
</a>
</g>
</g>
<!-- house&#45;&gt;spearman -->
<g id="edge24" class="edge"><title>house&#45;&gt;spearman</title>
<path fill="none" stroke="#ebc72d" d="M787.892,-626.05C848.746,-620.889 961.325,-601.287 1011.96,-527.434"/>
<path fill="none" stroke="#ebc72d" d="M1011.96,-525.434C1027.96,-502.094 1006.76,-473.396 986.82,-453.876"/>
<polygon fill="#ebc72d" stroke="#ebc72d" points="989.016,-451.138 979.318,-446.874 984.24,-456.256 989.016,-451.138"/>
</g>
<!-- cudgel_lady -->
<g id="node12" class="node"><title>cudgel_lady</title>
<g id="a_node12"><a xlink:href="norsemen_cudgel_lady_full.html" xlink:title="Cudgel\nLady">
<ellipse fill="none" stroke="magenta" cx="1063.96" cy="-430.35" rx="39.6962" ry="26.7407"/>
<text text-anchor="middle" x="1063.96" y="-434.15" font-family="Times,serif" font-size="14.00" fill="#ebc72d">Cudgel</text>
<text text-anchor="middle" x="1063.96" y="-419.15" font-family="Times,serif" font-size="14.00" fill="#ebc72d">Lady</text>
</a>
</g>
</g>
<!-- house&#45;&gt;cudgel_lady -->
<g id="edge22" class="edge"><title>house&#45;&gt;cudgel_lady</title>
<path fill="none" stroke="#ebc72d" d="M1011.96,-525.434C1025.08,-506.296 1037.72,-483.557 1047.25,-465.227"/>
<polygon fill="#ebc72d" stroke="#ebc72d" points="1050.49,-466.582 1051.94,-456.087 1044.26,-463.388 1050.49,-466.582"/>
</g>
<!-- bone_tent -->
<g id="node15" class="node"><title>bone_tent</title>
<g id="a_node15"><a xlink:href="norsemen_bone_tent_full.html" xlink:title="Bone\nTent">
<polygon fill="none" stroke="red" points="680.122,-536.763 640.958,-559.861 601.794,-536.763 601.831,-499.39 680.085,-499.39 680.122,-536.763"/>
<text text-anchor="middle" x="640.958" y="-530.234" font-family="Times,serif" font-size="14.00" fill="#ebc72d">Bone</text>
<text text-anchor="middle" x="640.958" y="-515.234" font-family="Times,serif" font-size="14.00" fill="#ebc72d">Tent</text>
</a>
</g>
</g>
<!-- house&#45;&gt;bone_tent -->
<g id="edge21" class="edge"><title>house&#45;&gt;bone_tent</title>
<path fill="none" stroke="#ebc72d" stroke-dasharray="1,5" d="M732.219,-613.896C716.078,-598.603 689.798,-573.705 669.574,-554.545"/>
<polygon fill="#ebc72d" stroke="#ebc72d" points="671.82,-551.852 662.154,-547.515 667.006,-556.933 671.82,-551.852"/>
</g>
<!-- farm -->
<g id="node4" class="node"><title>farm</title>
<g id="a_node4"><a xlink:href="norsemen_farm_full.html" xlink:title="Farm">
<polygon fill="none" stroke="red" points="265.868,-531.996 228.958,-544.434 192.048,-531.996 192.082,-511.871 265.834,-511.871 265.868,-531.996"/>
<text text-anchor="middle" x="228.958" y="-522.734" font-family="Times,serif" font-size="14.00" fill="#ebc72d">Farm</text>
</a>
</g>
</g>
<!-- farm&#45;&gt;cow -->
<g id="edge18" class="edge"><title>farm&#45;&gt;cow</title>
<path fill="none" stroke="#ebc72d" d="M211.509,-511.753C191.13,-495.776 157.26,-469.22 134.059,-451.03"/>
<polygon fill="#ebc72d" stroke="#ebc72d" points="136.069,-448.158 126.04,-444.743 131.75,-453.667 136.069,-448.158"/>
</g>
<!-- flying_valkyrie -->
<g id="node5" class="node"><title>flying_valkyrie</title>
<g id="a_node5"><a xlink:href="norsemen_flying_valkyrie_full.html" xlink:title="Flying\nValkyrie">
<ellipse fill="none" stroke="magenta" cx="219.958" cy="-26.8701" rx="45.011" ry="26.7407"/>
<text text-anchor="middle" x="219.958" y="-30.6701" font-family="Times,serif" font-size="14.00" fill="#ebc72d">Flying</text>
<text text-anchor="middle" x="219.958" y="-15.6701" font-family="Times,serif" font-size="14.00" fill="#ebc72d">Valkyrie</text>
</a>
</g>
</g>
<!-- farm&#45;&gt;flying_valkyrie -->
<g id="edge19" class="edge"><title>farm&#45;&gt;flying_valkyrie</title>
<path fill="none" stroke="#ebc72d" stroke-dasharray="1,5" d="M221.148,-511.606C206.427,-484.785 174.813,-423.411 160.958,-367.48 139.331,-280.175 148.516,-255.614 144.958,-165.74 143.622,-131.989 130.555,-120.293 144.958,-89.7401 152.23,-74.3146 165.443,-61.4282 178.776,-51.4793"/>
<polygon fill="#ebc72d" stroke="#ebc72d" points="180.874,-54.2829 187.041,-45.6679 176.847,-48.5568 180.874,-54.2829"/>
</g>
<!-- archer -->
<g id="node20" class="node"><title>archer</title>
<g id="a_node20"><a xlink:href="norsemen_archer_full.html" xlink:title="Archer">
<ellipse fill="none" stroke="magenta" cx="292.958" cy="-430.35" rx="35.194" ry="18"/>
<text text-anchor="middle" x="292.958" y="-426.65" font-family="Times,serif" font-size="14.00" fill="#ebc72d">Archer</text>
</a>
</g>
</g>
<!-- farm&#45;&gt;archer -->
<g id="edge17" class="edge"><title>farm&#45;&gt;archer</title>
<path fill="none" stroke="#ebc72d" stroke-dasharray="1,5" d="M238.401,-511.551C248.291,-497.013 264.029,-473.878 276.065,-456.183"/>
<polygon fill="#ebc72d" stroke="#ebc72d" points="279.241,-457.737 281.972,-447.5 273.453,-453.8 279.241,-457.737"/>
</g>
<!-- axe_thrower -->
<g id="node6" class="node"><title>axe_thrower</title>
<g id="a_node6"><a xlink:href="norsemen_axe_thrower_full.html" xlink:title="Axe\nThrower">
<ellipse fill="none" stroke="magenta" cx="702.958" cy="-430.35" rx="44.5955" ry="26.7407"/>
<text text-anchor="middle" x="702.958" y="-434.15" font-family="Times,serif" font-size="14.00" fill="#ebc72d">Axe</text>
<text text-anchor="middle" x="702.958" y="-419.15" font-family="Times,serif" font-size="14.00" fill="#ebc72d">Thrower</text>
</a>
</g>
</g>
<!-- thrall -->
<g id="node7" class="node"><title>thrall</title>
<g id="a_node7"><a xlink:href="norsemen_thrall_full.html" xlink:title="Thrall">
<ellipse fill="none" stroke="magenta" cx="573.958" cy="-716.073" rx="32.4942" ry="18"/>
<text text-anchor="middle" x="573.958" y="-712.373" font-family="Times,serif" font-size="14.00" fill="#ebc72d">Thrall</text>
</a>
</g>
</g>
<!-- thrall&#45;&gt;mistletoe_tree -->
<g id="edge48" class="edge"><title>thrall&#45;&gt;mistletoe_tree</title>
<path fill="none" stroke="#ebc72d" stroke-width="2" d="M573.958,-525.434C559.784,-470.39 582.115,-406.062 600.075,-366.807"/>
<polygon fill="#ebc72d" stroke="#ebc72d" stroke-width="2" points="603.417,-367.926 604.522,-357.389 597.087,-364.937 603.417,-367.926"/>
</g>
<!-- thrall&#45;&gt;house -->
<g id="edge46" class="edge"><title>thrall&#45;&gt;house</title>
<path fill="none" stroke="#ebc72d" stroke-width="2" d="M599.398,-704.394C623.326,-694.151 660.001,-677.942 690.958,-662.073 700.366,-657.251 710.438,-651.612 719.409,-646.413"/>
<polygon fill="#ebc72d" stroke="#ebc72d" stroke-width="2" points="721.431,-649.284 728.286,-641.206 717.89,-643.246 721.431,-649.284"/>
</g>
<!-- thrall&#45;&gt;farm -->
<g id="edge45" class="edge"><title>thrall&#45;&gt;farm</title>
<path fill="none" stroke="#ebc72d" stroke-width="2" d="M574.943,-698.048C575.709,-680.813 576.292,-653.415 573.958,-629.86"/>
<path fill="none" stroke="#ebc72d" stroke-width="2" d="M573.958,-627.86C567.933,-567.053 369.09,-540.5 276.069,-531.385"/>
<polygon fill="#ebc72d" stroke="#ebc72d" stroke-width="2" points="276.357,-527.897 266.07,-530.433 275.693,-534.865 276.357,-527.897"/>
</g>
<!-- thrall&#45;&gt;mead_bar -->
<g id="edge47" class="edge"><title>thrall&#45;&gt;mead_bar</title>
<path fill="none" stroke="#ebc72d" stroke-width="2" d="M573.958,-627.86C572.319,-611.319 580.227,-606.334 592.958,-595.647 627.859,-566.349 646.451,-576.067 688.958,-559.647 701.1,-554.956 714.226,-549.782 726.304,-544.977"/>
<polygon fill="#ebc72d" stroke="#ebc72d" stroke-width="2" points="727.735,-548.175 735.728,-541.22 725.143,-541.673 727.735,-548.175"/>
</g>
<!-- castle -->
<g id="node9" class="node"><title>castle</title>
<g id="a_node9"><a xlink:href="norsemen_castle_full.html" xlink:title="Castle">
<polygon fill="none" stroke="red" points="682.296,-634.422 641.958,-646.86 601.62,-634.422 601.658,-614.298 682.258,-614.298 682.296,-634.422"/>
<text text-anchor="middle" x="641.958" y="-625.16" font-family="Times,serif" font-size="14.00" fill="#ebc72d">Castle</text>
</a>
</g>
</g>
<!-- thrall&#45;&gt;castle -->
<g id="edge44" class="edge"><title>thrall&#45;&gt;castle</title>
<path fill="none" stroke="#ebc72d" stroke-width="2" d="M592.844,-691.407C602.798,-678.933 614.921,-663.74 624.633,-651.571"/>
<polygon fill="#ebc72d" stroke="#ebc72d" stroke-width="2" points="589.932,-689.444 586.43,-699.444 595.403,-693.811 589.932,-689.444"/>
<polygon fill="#ebc72d" stroke="#ebc72d" stroke-width="2" points="627.413,-653.699 630.914,-643.699 621.941,-649.332 627.413,-653.699"/>
</g>
<!-- thrall&#45;&gt;bone_tent -->
<g id="edge43" class="edge"><title>thrall&#45;&gt;bone_tent</title>
<path fill="none" stroke="#ebc72d" stroke-width="2" d="M573.958,-627.86C571.094,-598.952 590.97,-571.908 609.803,-553.184"/>
<polygon fill="#ebc72d" stroke="#ebc72d" stroke-width="2" points="612.341,-555.602 617.192,-546.183 607.526,-550.52 612.341,-555.602"/>
</g>
<!-- thor_totem -->
<g id="node18" class="node"><title>thor_totem</title>
<g id="a_node18"><a xlink:href="norsemen_thor_totem_full.html" xlink:title="Thor\nTotem">
<polygon fill="none" stroke="red" points="337.106,-639.19 290.958,-662.288 244.81,-639.19 244.853,-601.816 337.063,-601.816 337.106,-639.19"/>
<text text-anchor="middle" x="290.958" y="-632.66" font-family="Times,serif" font-size="14.00" fill="#ebc72d">Thor</text>
<text text-anchor="middle" x="290.958" y="-617.66" font-family="Times,serif" font-size="14.00" fill="#ebc72d">Totem</text>
</a>
</g>
</g>
<!-- thrall&#45;&gt;thor_totem -->
<g id="edge49" class="edge"><title>thrall&#45;&gt;thor_totem</title>
<path fill="none" stroke="#ebc72d" stroke-width="2" d="M546.048,-706.669C498.495,-692.351 401.125,-663.032 341.393,-645.046"/>
<polygon fill="#ebc72d" stroke="#ebc72d" stroke-width="2" points="342.367,-641.685 331.783,-642.153 340.349,-648.387 342.367,-641.685"/>
</g>
<!-- blacksmith -->
<g id="node19" class="node"><title>blacksmith</title>
<g id="a_node19"><a xlink:href="norsemen_blacksmith_full.html" xlink:title="Blacksmith">
<polygon fill="none" stroke="red" points="531.391,-435.913 467.958,-448.35 404.525,-435.913 404.584,-415.788 531.332,-415.788 531.391,-435.913"/>
<text text-anchor="middle" x="467.958" y="-426.65" font-family="Times,serif" font-size="14.00" fill="#ebc72d">Blacksmith</text>
</a>
</g>
</g>
<!-- thrall&#45;&gt;blacksmith -->
<g id="edge42" class="edge"><title>thrall&#45;&gt;blacksmith</title>
<path fill="none" stroke="#ebc72d" stroke-width="2" d="M573.958,-627.86C569.557,-583.444 585.089,-570.657 573.958,-527.434"/>
<path fill="none" stroke="#ebc72d" stroke-width="2" d="M573.958,-525.434C564.779,-489.788 530.134,-463.676 502.918,-448.127"/>
<polygon fill="#ebc72d" stroke="#ebc72d" stroke-width="2" points="504.474,-444.988 494.021,-443.26 501.114,-451.13 504.474,-444.988"/>
</g>
<!-- thrall&#45;&gt;valhalla -->
<g id="edge50" class="edge"><title>thrall&#45;&gt;valhalla</title>
<path fill="none" stroke="#ebc72d" stroke-width="2" d="M541.279,-713.994C479.773,-711.091 343.338,-700.484 235.958,-662.073 124.79,-622.308 6.95801,-645.499 6.95801,-527.434 6.95801,-527.434 6.95801,-527.434 6.95801,-429.35 6.95801,-367.496 -17.4771,-335.519 25.958,-291.48 63.3654,-253.553 211.791,-270.304 262.958,-255.48 272.012,-252.857 281.499,-249.157 290.153,-245.374"/>
<polygon fill="#ebc72d" stroke="#ebc72d" stroke-width="2" points="291.85,-248.447 299.502,-241.12 288.951,-242.076 291.85,-248.447"/>
</g>
<!-- mead_bar&#45;&gt;mistletoe_tree -->
<g id="edge31" class="edge"><title>mead_bar&#45;&gt;mistletoe_tree</title>
<path fill="none" stroke="#ebc72d" stroke-dasharray="1,5" d="M773.857,-499.242C776.365,-472.783 776.179,-431.866 756.958,-403.48 738.526,-376.26 706.582,-358.446 678.068,-347.236"/>
<polygon fill="#ebc72d" stroke="#ebc72d" points="679.146,-343.902 668.554,-343.683 676.698,-350.46 679.146,-343.902"/>
</g>
<!-- mead_bar&#45;&gt;axe_thrower -->
<g id="edge28" class="edge"><title>mead_bar&#45;&gt;axe_thrower</title>
<path fill="none" stroke="#ebc72d" stroke-dasharray="1,5" d="M751.295,-499.226C743.443,-488.2 734.229,-475.261 725.963,-463.654"/>
<polygon fill="#ebc72d" stroke="#ebc72d" points="728.796,-461.599 720.144,-455.484 723.094,-465.66 728.796,-461.599"/>
</g>
<!-- mead_bar&#45;&gt;spearman -->
<g id="edge32" class="edge"><title>mead_bar&#45;&gt;spearman</title>
<path fill="none" stroke="#ebc72d" d="M812.125,-504.553C845.559,-487.998 891.793,-465.104 923.61,-449.349"/>
<polygon fill="#ebc72d" stroke="#ebc72d" points="925.176,-452.479 932.584,-444.905 922.069,-446.206 925.176,-452.479"/>
</g>
<!-- mead_bar&#45;&gt;cudgel_lady -->
<g id="edge29" class="edge"><title>mead_bar&#45;&gt;cudgel_lady</title>
<path fill="none" stroke="#ebc72d" d="M812.031,-516.613C861.562,-505.573 945.831,-484.723 1014.96,-457.22 1018.38,-455.86 1021.87,-454.329 1025.33,-452.708"/>
<polygon fill="#ebc72d" stroke="#ebc72d" points="1026.95,-455.815 1034.38,-448.264 1023.86,-449.532 1026.95,-455.815"/>
</g>
<!-- mead -->
<g id="node31" class="node"><title>mead</title>
<g id="a_node31"><a xlink:href="norsemen_mead_full.html" xlink:title="Mead">
<polygon fill="none" stroke="green" points="895.941,-448.35 822.792,-448.35 803.975,-412.35 877.124,-412.35 895.941,-448.35"/>
<text text-anchor="middle" x="849.958" y="-426.65" font-family="Times,serif" font-size="14.00" fill="#ebc72d">Mead</text>
</a>
</g>
</g>
<!-- mead_bar&#45;&gt;mead -->
<g id="edge30" class="edge"><title>mead_bar&#45;&gt;mead</title>
<path fill="none" stroke="#ebc72d" d="M792.242,-499.226C803.652,-485.808 817.471,-469.556 828.727,-456.319"/>
<polygon fill="#ebc72d" stroke="#ebc72d" points="831.547,-458.405 835.359,-448.519 826.215,-453.87 831.547,-458.405"/>
</g>
<!-- spearman_berserk -->
<g id="node23" class="node"><title>spearman_berserk</title>
<g id="a_node23"><a xlink:href="norsemen_spearman_berserk_full.html" xlink:title="Spearman\nBerserk">
<ellipse fill="none" stroke="magenta" cx="1020.96" cy="-127.74" rx="50.41" ry="26.7407"/>
<text text-anchor="middle" x="1020.96" y="-131.54" font-family="Times,serif" font-size="14.00" fill="#ebc72d">Spearman</text>
<text text-anchor="middle" x="1020.96" y="-116.54" font-family="Times,serif" font-size="14.00" fill="#ebc72d">Berserk</text>
</a>
</g>
</g>
<!-- spearman&#45;&gt;spearman_berserk -->
<g id="edge39" class="edge"><title>spearman&#45;&gt;spearman_berserk</title>
<path fill="none" stroke="#ebc72d" stroke-dasharray="5,2" d="M963.412,-412.327C973.058,-364.795 1000.43,-229.883 1013.65,-164.771"/>
<polygon fill="#ebc72d" stroke="#ebc72d" points="1017.16,-165.069 1015.72,-154.573 1010.3,-163.677 1017.16,-165.069"/>
</g>
<!-- crossbow -->
<g id="node11" class="node"><title>crossbow</title>
<g id="a_node11"><a xlink:href="norsemen_crossbow_full.html" xlink:title="Crossbow">
<ellipse fill="none" stroke="magenta" cx="207.958" cy="-228.61" rx="46.2923" ry="18"/>
<text text-anchor="middle" x="207.958" y="-224.91" font-family="Times,serif" font-size="14.00" fill="#ebc72d">Crossbow</text>
</a>
</g>
</g>
<!-- battleaxe_berserk -->
<g id="node13" class="node"><title>battleaxe_berserk</title>
<g id="a_node13"><a xlink:href="norsemen_battleaxe_berserk_full.html" xlink:title="Battleaxe\nBerserk">
<ellipse fill="none" stroke="magenta" cx="904.958" cy="-127.74" rx="48.1667" ry="26.7407"/>
<text text-anchor="middle" x="904.958" y="-131.54" font-family="Times,serif" font-size="14.00" fill="#ebc72d">Battleaxe</text>
<text text-anchor="middle" x="904.958" y="-116.54" font-family="Times,serif" font-size="14.00" fill="#ebc72d">Berserk</text>
</a>
</g>
</g>
<!-- thor -->
<g id="node14" class="node"><title>thor</title>
<g id="a_node14"><a xlink:href="norsemen_thor_full.html" xlink:title="Thor">
<ellipse fill="none" stroke="magenta" cx="62.958" cy="-329.48" rx="27.8951" ry="18"/>
<text text-anchor="middle" x="62.958" y="-325.78" font-family="Times,serif" font-size="14.00" fill="#ebc72d">Thor</text>
</a>
</g>
</g>
<!-- bone_tent&#45;&gt;axe_thrower -->
<g id="edge11" class="edge"><title>bone_tent&#45;&gt;axe_thrower</title>
<path fill="none" stroke="#ebc72d" d="M658.228,-499.226C665.424,-488.308 673.856,-475.512 681.447,-463.992"/>
<polygon fill="#ebc72d" stroke="#ebc72d" points="684.474,-465.759 687.054,-455.484 678.629,-461.908 684.474,-465.759"/>
</g>
<!-- bone_tent&#45;&gt;spearman -->
<g id="edge14" class="edge"><title>bone_tent&#45;&gt;spearman</title>
<path fill="none" stroke="#ebc72d" stroke-dasharray="1,5" d="M680.482,-507.312C692.64,-502.229 706.188,-497.051 718.958,-493.22 799.609,-469.028 824.911,-483.341 904.958,-457.22 911.496,-455.087 918.269,-452.363 924.735,-449.488"/>
<polygon fill="#ebc72d" stroke="#ebc72d" points="926.33,-452.606 933.924,-445.218 923.38,-446.258 926.33,-452.606"/>
</g>
<!-- battleaxe -->
<g id="node17" class="node"><title>battleaxe</title>
<g id="a_node17"><a xlink:href="norsemen_battleaxe_full.html" xlink:title="Battleaxe">
<ellipse fill="none" stroke="magenta" cx="777.958" cy="-329.48" rx="44.393" ry="18"/>
<text text-anchor="middle" x="777.958" y="-325.78" font-family="Times,serif" font-size="14.00" fill="#ebc72d">Battleaxe</text>
</a>
</g>
</g>
<!-- bone_tent&#45;&gt;battleaxe -->
<g id="edge12" class="edge"><title>bone_tent&#45;&gt;battleaxe</title>
<path fill="none" stroke="#ebc72d" d="M629.958,-429.35C647.14,-383.953 677.799,-391.538 719.958,-367.48 729.061,-362.286 738.738,-356.305 747.526,-350.687"/>
<polygon fill="#ebc72d" stroke="#ebc72d" points="749.465,-353.601 755.964,-345.233 745.665,-347.723 749.465,-353.601"/>
</g>
<!-- bone_tent&#45;&gt;blacksmith -->
<g id="edge13" class="edge"><title>bone_tent&#45;&gt;blacksmith</title>
<path fill="none" stroke="#ebc72d" stroke-dasharray="1,5" d="M601.777,-501.2C597.147,-498.461 592.466,-495.748 587.958,-493.22 559.442,-477.229 526.375,-460.296 502.183,-448.195"/>
<polygon fill="#ebc72d" stroke="#ebc72d" points="503.561,-444.971 493.049,-443.645 500.44,-451.237 503.561,-444.971"/>
</g>
<!-- bone_tent&#45;&gt;archer -->
<g id="edge10" class="edge"><title>bone_tent&#45;&gt;archer</title>
<path fill="none" stroke="#ebc72d" d="M601.814,-499.543C597.258,-497.167 592.584,-494.992 587.958,-493.22 506.88,-462.17 480.766,-475.804 395.958,-457.22 375.196,-452.671 352.246,-446.973 333.289,-442.083"/>
<polygon fill="#ebc72d" stroke="#ebc72d" points="334.049,-438.665 323.49,-439.536 332.288,-445.439 334.049,-438.665"/>
</g>
<!-- swordman -->
<g id="node22" class="node"><title>swordman</title>
<g id="a_node22"><a xlink:href="norsemen_swordman_full.html" xlink:title="Swordman">
<ellipse fill="none" stroke="magenta" cx="744.958" cy="-228.61" rx="49.2915" ry="18"/>
<text text-anchor="middle" x="744.958" y="-224.91" font-family="Times,serif" font-size="14.00" fill="#ebc72d">Swordman</text>
</a>
</g>
</g>
<!-- bone_tent&#45;&gt;swordman -->
<g id="edge15" class="edge"><title>bone_tent&#45;&gt;swordman</title>
<path fill="none" stroke="#ebc72d" d="M631.439,-499.072C625.98,-479.749 621.692,-453.19 629.958,-431.35"/>
<path fill="none" stroke="#ebc72d" d="M629.958,-429.35C643.193,-394.383 665.683,-398.226 686.958,-367.48 699.936,-348.725 722.412,-290.795 735.241,-256.282"/>
<polygon fill="#ebc72d" stroke="#ebc72d" points="738.559,-257.399 738.74,-246.806 731.993,-254.974 738.559,-257.399"/>
</g>
<!-- valkyrie -->
<g id="node16" class="node"><title>valkyrie</title>
<g id="a_node16"><a xlink:href="norsemen_valkyrie_full.html" xlink:title="Valkyrie">
<ellipse fill="none" stroke="magenta" cx="383.958" cy="-127.74" rx="41.6928" ry="18"/>
<text text-anchor="middle" x="383.958" y="-124.04" font-family="Times,serif" font-size="14.00" fill="#ebc72d">Valkyrie</text>
</a>
</g>
</g>
<!-- battleaxe&#45;&gt;battleaxe_berserk -->
<g id="edge2" class="edge"><title>battleaxe&#45;&gt;battleaxe_berserk</title>
<path fill="none" stroke="#ebc72d" stroke-dasharray="5,2" d="M820.302,-324.22C862.471,-317.47 925.099,-300.093 954.958,-255.48 974.869,-225.73 953.763,-186.86 933.178,-160.05"/>
<polygon fill="#ebc72d" stroke="#ebc72d" points="935.832,-157.765 926.852,-152.141 930.365,-162.137 935.832,-157.765"/>
</g>
<!-- thor_totem&#45;&gt;thor -->
<g id="edge41" class="edge"><title>thor_totem&#45;&gt;thor</title>
<path fill="none" stroke="#ebc72d" stroke-dasharray="5,2" d="M244.777,-607.475C191.972,-581.301 108.28,-530.364 72.958,-457.22 57.6889,-425.602 57.5351,-384.338 59.6072,-357.626"/>
<polygon fill="#ebc72d" stroke="#ebc72d" points="63.1098,-357.76 60.5566,-347.478 56.1403,-357.108 63.1098,-357.76"/>
</g>
<!-- blacksmith&#45;&gt;mistletoe_tree -->
<g id="edge8" class="edge"><title>blacksmith&#45;&gt;mistletoe_tree</title>
<path fill="none" stroke="#ebc72d" stroke-dasharray="1,5" d="M488.954,-415.603C512.161,-400.408 550.078,-375.58 578.99,-356.65"/>
<polygon fill="#ebc72d" stroke="#ebc72d" points="581.199,-359.387 587.648,-350.981 577.364,-353.531 581.199,-359.387"/>
</g>
<!-- blacksmith&#45;&gt;crossbow -->
<g id="edge6" class="edge"><title>blacksmith&#45;&gt;crossbow</title>
<path fill="none" stroke="#ebc72d" d="M404.522,-416.937C319.733,-400.2 179.593,-371.966 175.958,-367.48 149.601,-334.954 172.5,-284.655 190.767,-254.647"/>
<polygon fill="#ebc72d" stroke="#ebc72d" points="193.833,-256.349 196.228,-246.028 187.92,-252.602 193.833,-256.349"/>
</g>
<!-- blacksmith&#45;&gt;thor -->
<g id="edge9" class="edge"><title>blacksmith&#45;&gt;thor</title>
<path fill="none" stroke="#ebc72d" stroke-dasharray="1,5" d="M404.355,-416.637C382.951,-412.4 358.93,-407.688 336.958,-403.48 250.829,-386.985 226.516,-394.093 142.958,-367.48 125.854,-362.033 107.628,-353.809 92.8986,-346.497"/>
<polygon fill="#ebc72d" stroke="#ebc72d" points="94.2724,-343.269 83.7715,-341.861 91.1028,-349.51 94.2724,-343.269"/>
</g>
<!-- blacksmith&#45;&gt;battleaxe -->
<g id="edge5" class="edge"><title>blacksmith&#45;&gt;battleaxe</title>
<path fill="none" stroke="#ebc72d" stroke-dasharray="1,5" d="M522.474,-415.746C567.099,-404.182 631.654,-386.47 686.958,-367.48 704.457,-361.472 723.466,-353.911 739.564,-347.193"/>
<polygon fill="#ebc72d" stroke="#ebc72d" points="741.318,-350.252 749.171,-343.14 738.597,-343.802 741.318,-350.252"/>
</g>
<!-- iron -->
<g id="node26" class="node"><title>iron</title>
<g id="a_node26"><a xlink:href="norsemen_iron_full.html" xlink:title="Iron">
<polygon fill="none" stroke="green" points="259.288,-347.48 199.904,-347.48 184.628,-311.48 244.012,-311.48 259.288,-347.48"/>
<text text-anchor="middle" x="221.958" y="-325.78" font-family="Times,serif" font-size="14.00" fill="#ebc72d">Iron</text>
</a>
</g>
</g>
<!-- blacksmith&#45;&gt;iron -->
<g id="edge7" class="edge"><title>blacksmith&#45;&gt;iron</title>
<path fill="none" stroke="#ebc72d" d="M404.283,-416.168C363.742,-406.225 310.96,-390.345 267.958,-367.48 261.115,-363.841 254.3,-359.124 248.095,-354.282"/>
<polygon fill="#ebc72d" stroke="#ebc72d" points="250.015,-351.33 240.065,-347.692 245.575,-356.742 250.015,-351.33"/>
</g>
<!-- arrow -->
<g id="node27" class="node"><title>arrow</title>
<g id="a_node27"><a xlink:href="norsemen_arrow_full.html" xlink:title="Arrow">
<polygon fill="none" stroke="green" points="376.564,-347.48 297.652,-347.48 277.352,-311.48 356.264,-311.48 376.564,-347.48"/>
<text text-anchor="middle" x="326.958" y="-325.78" font-family="Times,serif" font-size="14.00" fill="#ebc72d">Arrow</text>
</a>
</g>
</g>
<!-- blacksmith&#45;&gt;arrow -->
<g id="edge4" class="edge"><title>blacksmith&#45;&gt;arrow</title>
<path fill="none" stroke="#ebc72d" d="M448.353,-415.603C425.547,-399.611 387.527,-372.952 360.107,-353.724"/>
<polygon fill="#ebc72d" stroke="#ebc72d" points="361.806,-350.641 351.609,-347.766 357.787,-356.373 361.806,-350.641"/>
</g>
<!-- advanced_iron -->
<g id="node28" class="node"><title>advanced_iron</title>
<g id="a_node28"><a xlink:href="norsemen_advanced_iron_full.html" xlink:title="Advanced\nIron">
<polygon fill="none" stroke="green" points="541.677,-367.48 424.407,-367.48 394.239,-291.48 511.51,-291.48 541.677,-367.48"/>
<text text-anchor="middle" x="467.958" y="-333.28" font-family="Times,serif" font-size="14.00" fill="#ebc72d">Advanced</text>
<text text-anchor="middle" x="467.958" y="-318.28" font-family="Times,serif" font-size="14.00" fill="#ebc72d">Iron</text>
</a>
</g>
</g>
<!-- blacksmith&#45;&gt;advanced_iron -->
<g id="edge3" class="edge"><title>blacksmith&#45;&gt;advanced_iron</title>
<path fill="none" stroke="#ebc72d" d="M467.958,-415.603C467.958,-405.612 467.958,-391.456 467.958,-377.551"/>
<polygon fill="#ebc72d" stroke="#ebc72d" points="471.458,-377.533 467.958,-367.533 464.458,-377.533 471.458,-377.533"/>
</g>
<!-- swordman_berserk -->
<g id="node25" class="node"><title>swordman_berserk</title>
<g id="a_node25"><a xlink:href="norsemen_swordman_berserk_full.html" xlink:title="Swordman\nBerserk">
<ellipse fill="none" stroke="magenta" cx="784.958" cy="-127.74" rx="53.9813" ry="26.7407"/>
<text text-anchor="middle" x="784.958" y="-131.54" font-family="Times,serif" font-size="14.00" fill="#ebc72d">Swordman</text>
<text text-anchor="middle" x="784.958" y="-116.54" font-family="Times,serif" font-size="14.00" fill="#ebc72d">Berserk</text>
</a>
</g>
</g>
<!-- swordman&#45;&gt;swordman_berserk -->
<g id="edge40" class="edge"><title>swordman&#45;&gt;swordman_berserk</title>
<path fill="none" stroke="#ebc72d" stroke-dasharray="5,2" d="M751.925,-210.388C757.116,-197.56 764.38,-179.605 770.775,-163.798"/>
<polygon fill="#ebc72d" stroke="#ebc72d" points="774.112,-164.881 774.618,-154.298 767.623,-162.255 774.112,-164.881"/>
</g>
<!-- valhalla&#45;&gt;flying_valkyrie -->
<g id="edge51" class="edge"><title>valhalla&#45;&gt;flying_valkyrie</title>
<path fill="none" stroke="#ebc72d" d="M322.234,-214.019C322.161,-188.007 319.048,-130.183 294.958,-89.7401 286.231,-75.0887 272.711,-62.3654 259.54,-52.3303"/>
<polygon fill="#ebc72d" stroke="#ebc72d" points="261.578,-49.4844 251.431,-46.4363 257.462,-55.1468 261.578,-49.4844"/>
</g>
<!-- valhalla&#45;&gt;valkyrie -->
<g id="edge53" class="edge"><title>valhalla&#45;&gt;valkyrie</title>
<path fill="none" stroke="#ebc72d" d="M330.579,-213.863C340.288,-198.38 356.267,-172.898 368.217,-153.842"/>
<polygon fill="#ebc72d" stroke="#ebc72d" points="371.203,-155.669 373.55,-145.338 365.272,-151.95 371.203,-155.669"/>
</g>
<!-- holy_valkyrie -->
<g id="node29" class="node"><title>holy_valkyrie</title>
<g id="a_node29"><a xlink:href="norsemen_holy_valkyrie_full.html" xlink:title="Holy\nValkyrie">
<polygon fill="none" stroke="green" points="286.163,-165.74 180.846,-165.74 153.753,-89.7401 259.07,-89.7401 286.163,-165.74"/>
<text text-anchor="middle" x="219.958" y="-131.54" font-family="Times,serif" font-size="14.00" fill="#ebc72d">Holy</text>
<text text-anchor="middle" x="219.958" y="-116.54" font-family="Times,serif" font-size="14.00" fill="#ebc72d">Valkyrie</text>
</a>
</g>
</g>
<!-- valhalla&#45;&gt;holy_valkyrie -->
<g id="edge52" class="edge"><title>valhalla&#45;&gt;holy_valkyrie</title>
<path fill="none" stroke="#ebc72d" d="M307.775,-213.863C296.768,-203.193 280.86,-187.773 265.599,-172.981"/>
<polygon fill="#ebc72d" stroke="#ebc72d" points="267.8,-170.24 258.184,-165.793 262.928,-175.266 267.8,-170.24"/>
</g>
<!-- iron&#45;&gt;crossbow -->
<g id="edge25" class="edge"><title>iron&#45;&gt;crossbow</title>
<path fill="none" stroke="#ebc72d" stroke-dasharray="1,5" d="M219.519,-311.258C217.391,-296.23 214.267,-274.168 211.803,-256.764"/>
<polygon fill="#ebc72d" stroke="#ebc72d" points="215.236,-256.045 210.369,-246.635 208.305,-257.027 215.236,-256.045"/>
</g>
<!-- arrow&#45;&gt;crossbow -->
<g id="edge1" class="edge"><title>arrow&#45;&gt;crossbow</title>
<path fill="none" stroke="#ebc72d" stroke-dasharray="1,5" d="M306.23,-311.258C286.39,-294.775 256.364,-269.827 234.724,-251.848"/>
<polygon fill="#ebc72d" stroke="#ebc72d" points="236.808,-249.03 226.88,-245.331 232.335,-254.414 236.808,-249.03"/>
</g>
<!-- holy_valkyrie&#45;&gt;flying_valkyrie -->
<g id="edge20" class="edge"><title>holy_valkyrie&#45;&gt;flying_valkyrie</title>
<path fill="none" stroke="#ebc72d" stroke-dasharray="1,5" d="M219.958,-89.6433C219.958,-81.2443 219.958,-72.3377 219.958,-63.9802"/>
<polygon fill="#ebc72d" stroke="#ebc72d" points="223.458,-63.7672 219.958,-53.7673 216.458,-63.7673 223.458,-63.7672"/>
</g>
<!-- root&#45;&gt;battleaxe_berserk -->
<g id="edge36" class="edge"><title>root&#45;&gt;battleaxe_berserk</title>
<path fill="none" stroke="#ebc72d" stroke-dasharray="1,5" d="M904.958,-210.388C904.958,-197.892 904.958,-180.53 904.958,-165.029"/>
<polygon fill="#ebc72d" stroke="#ebc72d" points="908.458,-164.677 904.958,-154.677 901.458,-164.677 908.458,-164.677"/>
</g>
<!-- root&#45;&gt;spearman_berserk -->
<g id="edge37" class="edge"><title>root&#45;&gt;spearman_berserk</title>
<path fill="none" stroke="#ebc72d" stroke-dasharray="1,5" d="M925.164,-210.388C942.241,-195.833 967.06,-174.679 987.156,-157.551"/>
<polygon fill="#ebc72d" stroke="#ebc72d" points="989.54,-160.118 994.88,-150.967 984.999,-154.79 989.54,-160.118"/>
</g>
<!-- root&#45;&gt;swordman_berserk -->
<g id="edge38" class="edge"><title>root&#45;&gt;swordman_berserk</title>
<path fill="none" stroke="#ebc72d" stroke-dasharray="1,5" d="M884.056,-210.388C866.508,-195.931 841.059,-174.963 820.345,-157.896"/>
<polygon fill="#ebc72d" stroke="#ebc72d" points="822.319,-154.988 812.376,-151.33 817.868,-160.39 822.319,-154.988"/>
</g>
<!-- mead&#45;&gt;battleaxe -->
<g id="edge26" class="edge"><title>mead&#45;&gt;battleaxe</title>
<path fill="none" stroke="#ebc72d" stroke-dasharray="1,5" d="M837.417,-412.128C825.921,-396.343 808.774,-372.797 795.843,-355.04"/>
<polygon fill="#ebc72d" stroke="#ebc72d" points="798.594,-352.872 789.878,-346.848 792.935,-356.992 798.594,-352.872"/>
</g>
<!-- mead&#45;&gt;swordman_berserk -->
<g id="edge27" class="edge"><title>mead&#45;&gt;swordman_berserk</title>
<path fill="none" stroke="#ebc72d" stroke-dasharray="1,5" d="M848.37,-412.24C845.767,-386.049 839.962,-334.523 830.958,-291.48 821.642,-246.945 806.748,-196.693 796.444,-163.965"/>
<polygon fill="#ebc72d" stroke="#ebc72d" points="799.767,-162.868 793.404,-154.397 793.096,-164.987 799.767,-162.868"/>
</g>
</g>
</svg>
