<?xml version="1.0" encoding="UTF-8" standalone="no"?>
<!DOCTYPE svg PUBLIC "-//W3C//DTD SVG 1.1//EN"
 "http://www.w3.org/Graphics/SVG/1.1/DTD/svg11.dtd">
<!-- Generated by graphviz version 2.38.0 (20140413.2041)
 -->
<!-- Title: test Pages: 1 -->
<svg width="1272pt" height="326pt"
 viewBox="0.00 0.00 1272.19 325.91" xmlns="http://www.w3.org/2000/svg" xmlns:xlink="http://www.w3.org/1999/xlink">
<g id="graph0" class="graph" transform="scale(1 1) rotate(0) translate(4 321.907)">
<title>test</title>
<polygon fill="#151515" stroke="none" points="-4,4 -4,-321.907 1268.19,-321.907 1268.19,4 -4,4"/>
<!-- thortotem -->
<g id="node1" class="node"><title>thortotem</title>
<g id="a_node1"><a xlink:href="norsemen_thortotem_full.html" xlink:title="Thortotem">
<polygon fill="none" stroke="red" points="904.997,-218.256 845.598,-230.693 786.199,-218.256 786.254,-198.131 904.942,-198.131 904.997,-218.256"/>
<text text-anchor="middle" x="845.598" y="-208.993" font-family="Times,serif" font-size="14.00" fill="#ebc72d">Thortotem</text>
</a>
</g>
</g>
<!-- thor -->
<g id="node14" class="node"><title>thor</title>
<g id="a_node14"><a xlink:href="norsemen_thor_full.html" xlink:title="Thor">
<ellipse fill="none" stroke="magenta" cx="843.598" cy="-116.61" rx="27.8951" ry="18"/>
<text text-anchor="middle" x="843.598" y="-112.91" font-family="Times,serif" font-size="14.00" fill="#ebc72d">Thor</text>
</a>
</g>
</g>
<!-- thortotem&#45;&gt;thor -->
<g id="edge27" class="edge"><title>thortotem&#45;&gt;thor</title>
<path fill="none" stroke="#ebc72d" stroke-dasharray="5,2" d="M845.303,-197.811C845.008,-183.927 844.546,-162.202 844.177,-144.863"/>
<polygon fill="#ebc72d" stroke="#ebc72d" points="847.674,-144.667 843.962,-134.743 840.676,-144.816 847.674,-144.667"/>
</g>
<!-- cow -->
<g id="node2" class="node"><title>cow</title>
<g id="a_node2"><a xlink:href="norsemen_cow_full.html" xlink:title="Cow">
<ellipse fill="none" stroke="magenta" cx="584.598" cy="-116.61" rx="27.0966" ry="18"/>
<text text-anchor="middle" x="584.598" y="-112.91" font-family="Times,serif" font-size="14.00" fill="#ebc72d">Cow</text>
</a>
</g>
</g>
<!-- house -->
<g id="node3" class="node"><title>house</title>
<g id="a_node3"><a xlink:href="norsemen_house_full.html" xlink:title="House">
<polygon fill="none" stroke="red" points="184.542,-218.256 143.598,-230.693 102.654,-218.256 102.692,-198.131 184.504,-198.131 184.542,-218.256"/>
<text text-anchor="middle" x="143.598" y="-208.993" font-family="Times,serif" font-size="14.00" fill="#ebc72d">House</text>
</a>
</g>
</g>
<!-- axe_thrower -->
<g id="node7" class="node"><title>axe_thrower</title>
<g id="a_node7"><a xlink:href="norsemen_axe_thrower_full.html" xlink:title="Axe\nThrower">
<ellipse fill="none" stroke="magenta" cx="290.598" cy="-116.61" rx="44.5955" ry="26.7407"/>
<text text-anchor="middle" x="290.598" y="-120.41" font-family="Times,serif" font-size="14.00" fill="#ebc72d">Axe</text>
<text text-anchor="middle" x="290.598" y="-105.41" font-family="Times,serif" font-size="14.00" fill="#ebc72d">Thrower</text>
</a>
</g>
</g>
<!-- house&#45;&gt;axe_thrower -->
<g id="edge17" class="edge"><title>house&#45;&gt;axe_thrower</title>
<path fill="none" stroke="#ebc72d" stroke-dasharray="1,5" d="M164.996,-197.877C173.843,-192.173 184.209,-185.499 193.598,-179.48 212.643,-167.271 233.822,-153.755 251.52,-142.479"/>
<polygon fill="#ebc72d" stroke="#ebc72d" points="253.874,-145.129 260.427,-136.804 250.113,-139.225 253.874,-145.129"/>
</g>
<!-- spearman -->
<g id="node10" class="node"><title>spearman</title>
<g id="a_node10"><a xlink:href="norsemen_spearman_full.html" xlink:title="Spearman">
<ellipse fill="none" stroke="magenta" cx="143.598" cy="-116.61" rx="46.2923" ry="18"/>
<text text-anchor="middle" x="143.598" y="-112.91" font-family="Times,serif" font-size="14.00" fill="#ebc72d">Spearman</text>
</a>
</g>
</g>
<!-- house&#45;&gt;spearman -->
<g id="edge19" class="edge"><title>house&#45;&gt;spearman</title>
<path fill="none" stroke="#ebc72d" d="M143.598,-197.811C143.598,-183.927 143.598,-162.202 143.598,-144.863"/>
<polygon fill="#ebc72d" stroke="#ebc72d" points="147.098,-144.743 143.598,-134.743 140.098,-144.743 147.098,-144.743"/>
</g>
<!-- cudgel_lady -->
<g id="node13" class="node"><title>cudgel_lady</title>
<g id="a_node13"><a xlink:href="norsemen_cudgel_lady_full.html" xlink:title="Cudgel\nLady">
<ellipse fill="none" stroke="magenta" cx="39.598" cy="-116.61" rx="39.6962" ry="26.7407"/>
<text text-anchor="middle" x="39.598" y="-120.41" font-family="Times,serif" font-size="14.00" fill="#ebc72d">Cudgel</text>
<text text-anchor="middle" x="39.598" y="-105.41" font-family="Times,serif" font-size="14.00" fill="#ebc72d">Lady</text>
</a>
</g>
</g>
<!-- house&#45;&gt;cudgel_lady -->
<g id="edge18" class="edge"><title>house&#45;&gt;cudgel_lady</title>
<path fill="none" stroke="#ebc72d" d="M128.252,-197.811C113.056,-184.064 89.3629,-162.63 70.2922,-145.378"/>
<polygon fill="#ebc72d" stroke="#ebc72d" points="72.471,-142.629 62.7072,-138.516 67.775,-147.82 72.471,-142.629"/>
</g>
<!-- thrull -->
<g id="node4" class="node"><title>thrull</title>
<g id="a_node4"><a xlink:href="norsemen_thrull_full.html" xlink:title="Thrull">
<ellipse fill="none" stroke="magenta" cx="594.598" cy="-299.907" rx="32.4942" ry="18"/>
<text text-anchor="middle" x="594.598" y="-296.207" font-family="Times,serif" font-size="14.00" fill="#ebc72d">Thrull</text>
</a>
</g>
</g>
<!-- thrull&#45;&gt;thortotem -->
<g id="edge35" class="edge"><title>thrull&#45;&gt;thortotem</title>
<path fill="none" stroke="#ebc72d" stroke-width="2" d="M623.912,-291.964C660.449,-282.96 724.551,-266.004 777.598,-245.907 789.314,-241.468 801.795,-235.834 812.824,-230.523"/>
<polygon fill="#ebc72d" stroke="#ebc72d" stroke-width="2" points="814.651,-233.525 822.087,-225.977 811.567,-227.241 814.651,-233.525"/>
</g>
<!-- thrull&#45;&gt;house -->
<g id="edge32" class="edge"><title>thrull&#45;&gt;house</title>
<path fill="none" stroke="#ebc72d" stroke-width="2" d="M562.009,-299.357C492.196,-299.312 323.957,-293.768 193.598,-245.907 184.442,-242.545 175.236,-237.279 167.263,-231.971"/>
<polygon fill="#ebc72d" stroke="#ebc72d" stroke-width="2" points="169.048,-228.947 158.854,-226.06 165.022,-234.674 169.048,-228.947"/>
</g>
<!-- farm -->
<g id="node5" class="node"><title>farm</title>
<g id="a_node5"><a xlink:href="norsemen_farm_full.html" xlink:title="Farm">
<polygon fill="none" stroke="red" points="536.508,-218.256 499.598,-230.693 462.688,-218.256 462.722,-198.131 536.474,-198.131 536.508,-218.256"/>
<text text-anchor="middle" x="499.598" y="-208.993" font-family="Times,serif" font-size="14.00" fill="#ebc72d">Farm</text>
</a>
</g>
</g>
<!-- thrull&#45;&gt;farm -->
<g id="edge31" class="edge"><title>thrull&#45;&gt;farm</title>
<path fill="none" stroke="#ebc72d" stroke-width="2" d="M578.05,-284.064C562.335,-269.967 538.613,-248.689 521.369,-233.222"/>
<polygon fill="#ebc72d" stroke="#ebc72d" stroke-width="2" points="523.269,-230.224 513.488,-226.153 518.595,-235.435 523.269,-230.224"/>
</g>
<!-- med_bar -->
<g id="node6" class="node"><title>med_bar</title>
<g id="a_node6"><a xlink:href="norsemen_med_bar_full.html" xlink:title="Med\nBar">
<polygon fill="none" stroke="red" points="276.518,-223.023 239.598,-246.121 202.678,-223.023 202.713,-185.65 276.483,-185.65 276.518,-223.023"/>
<text text-anchor="middle" x="239.598" y="-216.493" font-family="Times,serif" font-size="14.00" fill="#ebc72d">Med</text>
<text text-anchor="middle" x="239.598" y="-201.493" font-family="Times,serif" font-size="14.00" fill="#ebc72d">Bar</text>
</a>
</g>
</g>
<!-- thrull&#45;&gt;med_bar -->
<g id="edge33" class="edge"><title>thrull&#45;&gt;med_bar</title>
<path fill="none" stroke="#ebc72d" stroke-width="2" d="M564.672,-292.799C519.295,-283.418 430.442,-264.584 355.598,-245.907 332.139,-240.053 306.195,-232.912 284.802,-226.842"/>
<polygon fill="#ebc72d" stroke="#ebc72d" stroke-width="2" points="285.585,-223.426 275.008,-224.048 283.664,-230.157 285.585,-223.426"/>
</g>
<!-- castle -->
<g id="node9" class="node"><title>castle</title>
<g id="a_node9"><a xlink:href="norsemen_castle_full.html" xlink:title="Castle">
<polygon fill="none" stroke="red" points="634.936,-218.256 594.598,-230.693 554.26,-218.256 554.298,-198.131 634.898,-198.131 634.936,-218.256"/>
<text text-anchor="middle" x="594.598" y="-208.993" font-family="Times,serif" font-size="14.00" fill="#ebc72d">Castle</text>
</a>
</g>
</g>
<!-- thrull&#45;&gt;castle -->
<g id="edge30" class="edge"><title>thrull&#45;&gt;castle</title>
<path fill="none" stroke="#ebc72d" stroke-width="2" d="M594.598,-271.572C594.598,-261.77 594.598,-250.725 594.598,-240.93"/>
<polygon fill="#ebc72d" stroke="#ebc72d" stroke-width="2" points="591.098,-271.662 594.598,-281.663 598.098,-271.663 591.098,-271.662"/>
<polygon fill="#ebc72d" stroke="#ebc72d" stroke-width="2" points="598.098,-240.912 594.598,-230.912 591.098,-240.912 598.098,-240.912"/>
</g>
<!-- bone_tent -->
<g id="node15" class="node"><title>bone_tent</title>
<g id="a_node15"><a xlink:href="norsemen_bone_tent_full.html" xlink:title="Bone\nTent">
<polygon fill="none" stroke="red" points="442.762,-223.023 403.598,-246.121 364.434,-223.023 364.471,-185.65 442.725,-185.65 442.762,-223.023"/>
<text text-anchor="middle" x="403.598" y="-216.493" font-family="Times,serif" font-size="14.00" fill="#ebc72d">Bone</text>
<text text-anchor="middle" x="403.598" y="-201.493" font-family="Times,serif" font-size="14.00" fill="#ebc72d">Tent</text>
</a>
</g>
</g>
<!-- thrull&#45;&gt;bone_tent -->
<g id="edge29" class="edge"><title>thrull&#45;&gt;bone_tent</title>
<path fill="none" stroke="#ebc72d" stroke-width="2" d="M566.836,-290.415C537.857,-281.108 491.447,-264.94 453.598,-245.907 448.279,-243.232 442.82,-240.128 437.553,-236.924"/>
<polygon fill="#ebc72d" stroke="#ebc72d" stroke-width="2" points="439.258,-233.861 428.93,-231.495 435.528,-239.785 439.258,-233.861"/>
</g>
<!-- mistletree -->
<g id="node16" class="node"><title>mistletree</title>
<g id="a_node16"><a xlink:href="norsemen_mistletree_full.html" xlink:title="Mistletree">
<polygon fill="none" stroke="red" points="768.284,-218.256 710.598,-230.693 652.912,-218.256 652.966,-198.131 768.23,-198.131 768.284,-218.256"/>
<text text-anchor="middle" x="710.598" y="-208.993" font-family="Times,serif" font-size="14.00" fill="#ebc72d">Mistletree</text>
</a>
</g>
</g>
<!-- thrull&#45;&gt;mistletree -->
<g id="edge34" class="edge"><title>thrull&#45;&gt;mistletree</title>
<path fill="none" stroke="#ebc72d" stroke-width="2" d="M613.494,-285.026C632.763,-270.871 662.812,-248.797 684.38,-232.953"/>
<polygon fill="#ebc72d" stroke="#ebc72d" stroke-width="2" points="686.488,-235.748 692.475,-227.007 682.344,-230.106 686.488,-235.748"/>
</g>
<!-- blacksmith -->
<g id="node19" class="node"><title>blacksmith</title>
<g id="a_node19"><a xlink:href="norsemen_blacksmith_full.html" xlink:title="Blacksmith">
<polygon fill="none" stroke="red" points="1050.03,-218.256 986.598,-230.693 923.165,-218.256 923.224,-198.131 1049.97,-198.131 1050.03,-218.256"/>
<text text-anchor="middle" x="986.598" y="-208.993" font-family="Times,serif" font-size="14.00" fill="#ebc72d">Blacksmith</text>
</a>
</g>
</g>
<!-- thrull&#45;&gt;blacksmith -->
<g id="edge28" class="edge"><title>thrull&#45;&gt;blacksmith</title>
<path fill="none" stroke="#ebc72d" stroke-width="2" d="M626.435,-296.282C684.512,-290.91 811.118,-276.5 913.598,-245.907 926.9,-241.936 940.974,-236.137 953.177,-230.551"/>
<polygon fill="#ebc72d" stroke="#ebc72d" stroke-width="2" points="954.956,-233.582 962.512,-226.155 951.974,-227.249 954.956,-233.582"/>
</g>
<!-- valhalla -->
<g id="node25" class="node"><title>valhalla</title>
<g id="a_node25"><a xlink:href="norsemen_valhalla_full.html" xlink:title="Valhalla">
<polygon fill="none" stroke="red" points="1167.22,-218.256 1117.6,-230.693 1067.98,-218.256 1068.03,-198.131 1167.17,-198.131 1167.22,-218.256"/>
<text text-anchor="middle" x="1117.6" y="-208.993" font-family="Times,serif" font-size="14.00" fill="#ebc72d">Valhalla</text>
</a>
</g>
</g>
<!-- thrull&#45;&gt;valhalla -->
<g id="edge36" class="edge"><title>thrull&#45;&gt;valhalla</title>
<path fill="none" stroke="#ebc72d" stroke-width="2" d="M627.269,-299.43C704.324,-299.758 902.656,-295.3 1058.6,-245.907 1069.47,-242.462 1080.65,-236.95 1090.3,-231.453"/>
<polygon fill="#ebc72d" stroke="#ebc72d" stroke-width="2" points="1092.24,-234.377 1099.04,-226.255 1088.66,-228.361 1092.24,-234.377"/>
</g>
<!-- farm&#45;&gt;cow -->
<g id="edge15" class="edge"><title>farm&#45;&gt;cow</title>
<path fill="none" stroke="#ebc72d" d="M512.14,-197.811C525.836,-182.652 547.977,-158.144 564.184,-140.205"/>
<polygon fill="#ebc72d" stroke="#ebc72d" points="567.055,-142.249 571.162,-132.482 561.861,-137.556 567.055,-142.249"/>
</g>
<!-- archer -->
<g id="node21" class="node"><title>archer</title>
<g id="a_node21"><a xlink:href="norsemen_archer_full.html" xlink:title="Archer">
<ellipse fill="none" stroke="magenta" cx="504.598" cy="-116.61" rx="35.194" ry="18"/>
<text text-anchor="middle" x="504.598" y="-112.91" font-family="Times,serif" font-size="14.00" fill="#ebc72d">Archer</text>
</a>
</g>
</g>
<!-- farm&#45;&gt;archer -->
<g id="edge14" class="edge"><title>farm&#45;&gt;archer</title>
<path fill="none" stroke="#ebc72d" stroke-dasharray="1,5" d="M500.336,-197.811C501.074,-183.927 502.228,-162.202 503.15,-144.863"/>
<polygon fill="#ebc72d" stroke="#ebc72d" points="506.652,-144.915 503.687,-134.743 499.662,-144.544 506.652,-144.915"/>
</g>
<!-- flyingvalkyrie -->
<g id="node23" class="node"><title>flyingvalkyrie</title>
<g id="a_node23"><a xlink:href="norsemen_flyingvalkyrie_full.html" xlink:title="Flyingvalkyrie">
<ellipse fill="none" stroke="magenta" cx="989.598" cy="-116.61" rx="62.2891" ry="18"/>
<text text-anchor="middle" x="989.598" y="-112.91" font-family="Times,serif" font-size="14.00" fill="#ebc72d">Flyingvalkyrie</text>
</a>
</g>
</g>
<!-- farm&#45;&gt;flyingvalkyrie -->
<g id="edge16" class="edge"><title>farm&#45;&gt;flyingvalkyrie</title>
<path fill="none" stroke="#ebc72d" stroke-dasharray="1,5" d="M515.06,-197.89C523.493,-191.171 534.462,-183.659 545.598,-179.48 685.798,-126.871 733.011,-168.821 880.598,-143.48 898.625,-140.385 918.117,-136.073 935.565,-131.855"/>
<polygon fill="#ebc72d" stroke="#ebc72d" points="936.7,-135.18 945.575,-129.393 935.028,-128.383 936.7,-135.18"/>
</g>
<!-- med_bar&#45;&gt;axe_thrower -->
<g id="edge20" class="edge"><title>med_bar&#45;&gt;axe_thrower</title>
<path fill="none" stroke="#ebc72d" stroke-dasharray="1,5" d="M253.804,-185.486C259.515,-174.951 266.172,-162.67 272.242,-151.472"/>
<polygon fill="#ebc72d" stroke="#ebc72d" points="275.481,-152.843 277.169,-142.383 269.327,-149.507 275.481,-152.843"/>
</g>
<!-- swordman_berzerk -->
<g id="node8" class="node"><title>swordman_berzerk</title>
<g id="a_node8"><a xlink:href="norsemen_swordman_berzerk_full.html" xlink:title="Swordman\nBerzerk">
<ellipse fill="none" stroke="magenta" cx="402.598" cy="-26.8701" rx="53.9813" ry="26.7407"/>
<text text-anchor="middle" x="402.598" y="-30.6701" font-family="Times,serif" font-size="14.00" fill="#ebc72d">Swordman</text>
<text text-anchor="middle" x="402.598" y="-15.6701" font-family="Times,serif" font-size="14.00" fill="#ebc72d">Berzerk</text>
</a>
</g>
</g>
<!-- med_bar&#45;&gt;swordman_berzerk -->
<g id="edge23" class="edge"><title>med_bar&#45;&gt;swordman_berzerk</title>
<path fill="none" stroke="#ebc72d" stroke-dasharray="1,5" d="M230.63,-185.346C223.349,-158.762 217.148,-117.747 236.598,-89.7401 259.69,-56.4895 302.92,-41.0752 339.475,-33.9459"/>
<polygon fill="#ebc72d" stroke="#ebc72d" points="340.354,-37.3445 349.586,-32.1468 339.127,-30.4528 340.354,-37.3445"/>
</g>
<!-- med_bar&#45;&gt;spearman -->
<g id="edge22" class="edge"><title>med_bar&#45;&gt;spearman</title>
<path fill="none" stroke="#ebc72d" d="M212.857,-185.486C198.532,-171.448 181.043,-154.308 167.223,-140.764"/>
<polygon fill="#ebc72d" stroke="#ebc72d" points="169.558,-138.151 159.966,-133.652 164.659,-143.151 169.558,-138.151"/>
</g>
<!-- med_bar&#45;&gt;cudgel_lady -->
<g id="edge21" class="edge"><title>med_bar&#45;&gt;cudgel_lady</title>
<path fill="none" stroke="#ebc72d" d="M204.299,-185.53C200.762,-183.351 197.161,-181.293 193.598,-179.48 149.628,-157.111 133.881,-163.056 88.598,-143.48 85.3654,-142.083 82.0552,-140.556 78.7559,-138.965"/>
<polygon fill="#ebc72d" stroke="#ebc72d" points="80.069,-135.709 69.5593,-134.368 76.9391,-141.97 80.069,-135.709"/>
</g>
<!-- spearman_berzerk -->
<g id="node11" class="node"><title>spearman_berzerk</title>
<g id="a_node11"><a xlink:href="norsemen_spearman_berzerk_full.html" xlink:title="Spearman\nBerzerk">
<ellipse fill="none" stroke="magenta" cx="143.598" cy="-26.8701" rx="50.41" ry="26.7407"/>
<text text-anchor="middle" x="143.598" y="-30.6701" font-family="Times,serif" font-size="14.00" fill="#ebc72d">Spearman</text>
<text text-anchor="middle" x="143.598" y="-15.6701" font-family="Times,serif" font-size="14.00" fill="#ebc72d">Berzerk</text>
</a>
</g>
</g>
<!-- spearman&#45;&gt;spearman_berzerk -->
<g id="edge25" class="edge"><title>spearman&#45;&gt;spearman_berzerk</title>
<path fill="none" stroke="#ebc72d" stroke-dasharray="5,2" d="M143.598,-98.2755C143.598,-88.4643 143.598,-75.8168 143.598,-63.9541"/>
<polygon fill="#ebc72d" stroke="#ebc72d" points="147.098,-63.8222 143.598,-53.8222 140.098,-63.8222 147.098,-63.8222"/>
</g>
<!-- crossbow -->
<g id="node12" class="node"><title>crossbow</title>
<g id="a_node12"><a xlink:href="norsemen_crossbow_full.html" xlink:title="Crossbow">
<ellipse fill="none" stroke="magenta" cx="1116.6" cy="-116.61" rx="46.2923" ry="18"/>
<text text-anchor="middle" x="1116.6" y="-112.91" font-family="Times,serif" font-size="14.00" fill="#ebc72d">Crossbow</text>
</a>
</g>
</g>
<!-- bone_tent&#45;&gt;axe_thrower -->
<g id="edge9" class="edge"><title>bone_tent&#45;&gt;axe_thrower</title>
<path fill="none" stroke="#ebc72d" d="M372.121,-185.486C357.106,-172.985 339.137,-158.023 323.894,-145.332"/>
<polygon fill="#ebc72d" stroke="#ebc72d" points="326.126,-142.637 316.202,-138.928 321.647,-148.016 326.126,-142.637"/>
</g>
<!-- bone_tent&#45;&gt;spearman -->
<g id="edge11" class="edge"><title>bone_tent&#45;&gt;spearman</title>
<path fill="none" stroke="#ebc72d" stroke-dasharray="1,5" d="M364.392,-197.506C316.247,-180.085 234.919,-150.656 185.551,-132.791"/>
<polygon fill="#ebc72d" stroke="#ebc72d" points="186.718,-129.491 176.123,-129.38 184.336,-136.074 186.718,-129.491"/>
</g>
<!-- battleaxe -->
<g id="node18" class="node"><title>battleaxe</title>
<g id="a_node18"><a xlink:href="norsemen_battleaxe_full.html" xlink:title="Battleaxe">
<ellipse fill="none" stroke="magenta" cx="673.598" cy="-116.61" rx="44.393" ry="18"/>
<text text-anchor="middle" x="673.598" y="-112.91" font-family="Times,serif" font-size="14.00" fill="#ebc72d">Battleaxe</text>
</a>
</g>
</g>
<!-- bone_tent&#45;&gt;battleaxe -->
<g id="edge10" class="edge"><title>bone_tent&#45;&gt;battleaxe</title>
<path fill="none" stroke="#ebc72d" d="M441.037,-185.582C445.168,-183.309 449.4,-181.217 453.598,-179.48 523.756,-150.45 548.847,-168.314 620.598,-143.48 626.694,-141.37 632.999,-138.732 639.042,-135.954"/>
<polygon fill="#ebc72d" stroke="#ebc72d" points="640.755,-139.013 648.253,-131.527 637.724,-132.704 640.755,-139.013"/>
</g>
<!-- bone_tent&#45;&gt;archer -->
<g id="edge8" class="edge"><title>bone_tent&#45;&gt;archer</title>
<path fill="none" stroke="#ebc72d" d="M431.732,-185.486C447.098,-171.173 465.926,-153.634 480.593,-139.971"/>
<polygon fill="#ebc72d" stroke="#ebc72d" points="483.334,-142.201 488.265,-132.824 478.563,-137.079 483.334,-142.201"/>
</g>
<!-- swordman -->
<g id="node24" class="node"><title>swordman</title>
<g id="a_node24"><a xlink:href="norsemen_swordman_full.html" xlink:title="Swordman">
<ellipse fill="none" stroke="magenta" cx="402.598" cy="-116.61" rx="49.2915" ry="18"/>
<text text-anchor="middle" x="402.598" y="-112.91" font-family="Times,serif" font-size="14.00" fill="#ebc72d">Swordman</text>
</a>
</g>
</g>
<!-- bone_tent&#45;&gt;swordman -->
<g id="edge12" class="edge"><title>bone_tent&#45;&gt;swordman</title>
<path fill="none" stroke="#ebc72d" d="M403.319,-185.486C403.185,-172.828 403.024,-157.647 402.888,-144.855"/>
<polygon fill="#ebc72d" stroke="#ebc72d" points="406.387,-144.742 402.78,-134.779 399.387,-144.816 406.387,-144.742"/>
</g>
<!-- wild_sow -->
<g id="node22" class="node"><title>wild_sow</title>
<g id="a_node22"><a xlink:href="norsemen_wild_sow_full.html" xlink:title="Wild\nSow">
<ellipse fill="none" stroke="magenta" cx="766.598" cy="-116.61" rx="31.2258" ry="26.7407"/>
<text text-anchor="middle" x="766.598" y="-120.41" font-family="Times,serif" font-size="14.00" fill="#ebc72d">Wild</text>
<text text-anchor="middle" x="766.598" y="-105.41" font-family="Times,serif" font-size="14.00" fill="#ebc72d">Sow</text>
</a>
</g>
</g>
<!-- mistletree&#45;&gt;wild_sow -->
<g id="edge24" class="edge"><title>mistletree&#45;&gt;wild_sow</title>
<path fill="none" stroke="#ebc72d" d="M718.861,-197.811C726.357,-185.218 737.692,-166.173 747.437,-149.802"/>
<polygon fill="#ebc72d" stroke="#ebc72d" points="750.545,-151.424 752.652,-141.041 744.53,-147.843 750.545,-151.424"/>
</g>
<!-- valkyrie -->
<g id="node17" class="node"><title>valkyrie</title>
<g id="a_node17"><a xlink:href="norsemen_valkyrie_full.html" xlink:title="Valkyrie">
<ellipse fill="none" stroke="magenta" cx="1222.6" cy="-116.61" rx="41.6928" ry="18"/>
<text text-anchor="middle" x="1222.6" y="-112.91" font-family="Times,serif" font-size="14.00" fill="#ebc72d">Valkyrie</text>
</a>
</g>
</g>
<!-- battleaxe_berzerk -->
<g id="node20" class="node"><title>battleaxe_berzerk</title>
<g id="a_node20"><a xlink:href="norsemen_battleaxe_berzerk_full.html" xlink:title="Battleaxe\nBerzerk">
<ellipse fill="none" stroke="magenta" cx="673.598" cy="-26.8701" rx="48.1667" ry="26.7407"/>
<text text-anchor="middle" x="673.598" y="-30.6701" font-family="Times,serif" font-size="14.00" fill="#ebc72d">Battleaxe</text>
<text text-anchor="middle" x="673.598" y="-15.6701" font-family="Times,serif" font-size="14.00" fill="#ebc72d">Berzerk</text>
</a>
</g>
</g>
<!-- battleaxe&#45;&gt;battleaxe_berzerk -->
<g id="edge1" class="edge"><title>battleaxe&#45;&gt;battleaxe_berzerk</title>
<path fill="none" stroke="#ebc72d" stroke-dasharray="5,2" d="M673.598,-98.2755C673.598,-88.4643 673.598,-75.8168 673.598,-63.9541"/>
<polygon fill="#ebc72d" stroke="#ebc72d" points="677.098,-63.8222 673.598,-53.8222 670.098,-63.8222 677.098,-63.8222"/>
</g>
<!-- blacksmith&#45;&gt;swordman_berzerk -->
<g id="edge5" class="edge"><title>blacksmith&#45;&gt;swordman_berzerk</title>
<path fill="none" stroke="#ebc72d" stroke-dasharray="1,5" d="M971.54,-197.991C957.249,-184.671 935.504,-163.566 918.598,-143.48 899.761,-121.1 905.658,-104.83 880.598,-89.7401 876.165,-87.0706 592.958,-51.558 464.617,-35.5736"/>
<polygon fill="#ebc72d" stroke="#ebc72d" points="464.896,-32.0813 454.54,-34.319 464.031,-39.0277 464.896,-32.0813"/>
</g>
<!-- blacksmith&#45;&gt;crossbow -->
<g id="edge3" class="edge"><title>blacksmith&#45;&gt;crossbow</title>
<path fill="none" stroke="#ebc72d" d="M1005.5,-198.013C1026.92,-182.513 1062.09,-157.056 1087.12,-138.941"/>
<polygon fill="#ebc72d" stroke="#ebc72d" points="1089.47,-141.567 1095.51,-132.868 1085.36,-135.896 1089.47,-141.567"/>
</g>
<!-- blacksmith&#45;&gt;thor -->
<g id="edge6" class="edge"><title>blacksmith&#45;&gt;thor</title>
<path fill="none" stroke="#ebc72d" stroke-dasharray="1,5" d="M965.805,-198.013C940.781,-181.549 898.686,-153.854 871.023,-135.654"/>
<polygon fill="#ebc72d" stroke="#ebc72d" points="872.866,-132.677 862.588,-130.104 869.019,-138.525 872.866,-132.677"/>
</g>
<!-- blacksmith&#45;&gt;valkyrie -->
<g id="edge7" class="edge"><title>blacksmith&#45;&gt;valkyrie</title>
<path fill="none" stroke="#ebc72d" stroke-dasharray="1,5" d="M1015.02,-198.092C1028.14,-192.043 1044.01,-185.046 1058.6,-179.48 1107.84,-160.688 1122.83,-163.467 1171.6,-143.48 1177.19,-141.189 1183,-138.525 1188.62,-135.795"/>
<polygon fill="#ebc72d" stroke="#ebc72d" points="1190.44,-138.8 1197.81,-131.193 1187.3,-132.541 1190.44,-138.8"/>
</g>
<!-- blacksmith&#45;&gt;battleaxe -->
<g id="edge2" class="edge"><title>blacksmith&#45;&gt;battleaxe</title>
<path fill="none" stroke="#ebc72d" stroke-dasharray="1,5" d="M959.773,-198.115C946.212,-191.703 929.332,-184.397 913.598,-179.48 832.813,-154.235 806.881,-170.276 726.598,-143.48 720.415,-141.417 714.031,-138.78 707.926,-135.982"/>
<polygon fill="#ebc72d" stroke="#ebc72d" points="709.163,-132.693 698.634,-131.513 706.129,-139.002 709.163,-132.693"/>
</g>
<!-- blacksmith&#45;&gt;flyingvalkyrie -->
<g id="edge4" class="edge"><title>blacksmith&#45;&gt;flyingvalkyrie</title>
<path fill="none" stroke="#ebc72d" stroke-dasharray="1,5" d="M987.041,-197.811C987.483,-183.927 988.176,-162.202 988.729,-144.863"/>
<polygon fill="#ebc72d" stroke="#ebc72d" points="992.231,-144.85 989.052,-134.743 985.235,-144.627 992.231,-144.85"/>
</g>
<!-- swordman&#45;&gt;swordman_berzerk -->
<g id="edge26" class="edge"><title>swordman&#45;&gt;swordman_berzerk</title>
<path fill="none" stroke="#ebc72d" stroke-dasharray="5,2" d="M402.598,-98.2755C402.598,-88.4643 402.598,-75.8168 402.598,-63.9541"/>
<polygon fill="#ebc72d" stroke="#ebc72d" points="406.098,-63.8222 402.598,-53.8222 399.098,-63.8222 406.098,-63.8222"/>
</g>
<!-- valhalla&#45;&gt;valkyrie -->
<g id="edge38" class="edge"><title>valhalla&#45;&gt;valkyrie</title>
<path fill="none" stroke="#ebc72d" d="M1133.09,-197.811C1150.11,-182.559 1177.7,-157.844 1197.75,-139.877"/>
<polygon fill="#ebc72d" stroke="#ebc72d" points="1200.18,-142.396 1205.29,-133.116 1195.51,-137.183 1200.18,-142.396"/>
</g>
<!-- valhalla&#45;&gt;flyingvalkyrie -->
<g id="edge37" class="edge"><title>valhalla&#45;&gt;flyingvalkyrie</title>
<path fill="none" stroke="#ebc72d" d="M1098.99,-198.013C1078.15,-182.695 1044.08,-157.654 1019.49,-139.584"/>
<polygon fill="#ebc72d" stroke="#ebc72d" points="1021.36,-136.613 1011.23,-133.51 1017.21,-142.253 1021.36,-136.613"/>
</g>
</g>
</svg>
