<?xml version="1.0" encoding="UTF-8" standalone="no"?>
<!DOCTYPE svg PUBLIC "-//W3C//DTD SVG 1.1//EN"
 "http://www.w3.org/Graphics/SVG/1.1/DTD/svg11.dtd">
<!-- Generated by graphviz version 2.38.0 (20140413.2041)
 -->
<!-- Title: test Pages: 1 -->
<svg width="1063pt" height="694pt"
 viewBox="0.00 0.00 1063.49 693.91" xmlns="http://www.w3.org/2000/svg" xmlns:xlink="http://www.w3.org/1999/xlink">
<g id="graph0" class="graph" transform="scale(1 1) rotate(0) translate(4 689.907)">
<title>test</title>
<polygon fill="#151515" stroke="none" points="-4,4 -4,-689.907 1059.49,-689.907 1059.49,4 -4,4"/>
<!-- thortotem -->
<g id="node1" class="node"><title>thortotem</title>
<g id="a_node1"><a xlink:href="norsemen_thortotem_full.html" xlink:title="Thortotem">
<polygon fill="none" stroke="red" points="341.293,-601.469 281.893,-613.907 222.494,-601.469 222.55,-581.344 341.237,-581.344 341.293,-601.469"/>
<text text-anchor="middle" x="281.893" y="-592.207" font-family="Times,serif" font-size="14.00" fill="#ebc72d">Thortotem</text>
</a>
</g>
</g>
<!-- thor -->
<g id="node14" class="node"><title>thor</title>
<g id="a_node14"><a xlink:href="norsemen_thor_full.html" xlink:title="Thor">
<ellipse fill="none" stroke="magenta" cx="62.8933" cy="-311.74" rx="27.8951" ry="18"/>
<text text-anchor="middle" x="62.8933" y="-308.04" font-family="Times,serif" font-size="14.00" fill="#ebc72d">Thor</text>
</a>
</g>
</g>
<!-- thortotem&#45;&gt;thor -->
<g id="edge41" class="edge"><title>thortotem&#45;&gt;thor</title>
<path fill="none" stroke="#ebc72d" stroke-dasharray="5,2" d="M246.928,-581.324C197.235,-559.839 108.288,-512.774 72.8933,-439.48 57.6242,-407.862 57.4704,-366.598 59.5425,-339.886"/>
<polygon fill="#ebc72d" stroke="#ebc72d" points="63.0452,-340.02 60.492,-329.737 56.0756,-339.368 63.0452,-340.02"/>
</g>
<!-- cow -->
<g id="node2" class="node"><title>cow</title>
<g id="a_node2"><a xlink:href="norsemen_cow_full.html" xlink:title="Cow">
<ellipse fill="none" stroke="magenta" cx="108.893" cy="-412.61" rx="27.0966" ry="18"/>
<text text-anchor="middle" x="108.893" y="-408.91" font-family="Times,serif" font-size="14.00" fill="#ebc72d">Cow</text>
</a>
</g>
</g>
<!-- house -->
<g id="node3" class="node"><title>house</title>
<g id="a_node3"><a xlink:href="norsemen_house_full.html" xlink:title="House">
<polygon fill="none" stroke="red" points="665.837,-601.469 624.893,-613.907 583.949,-601.469 583.987,-581.344 665.799,-581.344 665.837,-601.469"/>
<text text-anchor="middle" x="624.893" y="-592.207" font-family="Times,serif" font-size="14.00" fill="#ebc72d">House</text>
</a>
</g>
</g>
<!-- med_bar -->
<g id="node6" class="node"><title>med_bar</title>
<g id="a_node6"><a xlink:href="norsemen_med_bar_full.html" xlink:title="Med\nBar">
<polygon fill="none" stroke="red" points="765.813,-519.023 728.893,-542.121 691.973,-519.023 692.008,-481.65 765.779,-481.65 765.813,-519.023"/>
<text text-anchor="middle" x="728.893" y="-512.493" font-family="Times,serif" font-size="14.00" fill="#ebc72d">Med</text>
<text text-anchor="middle" x="728.893" y="-497.493" font-family="Times,serif" font-size="14.00" fill="#ebc72d">Bar</text>
</a>
</g>
</g>
<!-- house&#45;&gt;med_bar -->
<g id="edge23" class="edge"><title>house&#45;&gt;med_bar</title>
<path fill="none" stroke="#ebc72d" stroke-dasharray="1,5" d="M641.603,-581.216C656.908,-568.675 679.936,-549.807 698.498,-534.598"/>
<polygon fill="#ebc72d" stroke="#ebc72d" points="700.888,-537.165 706.405,-528.119 696.452,-531.75 700.888,-537.165"/>
</g>
<!-- spearman -->
<g id="node10" class="node"><title>spearman</title>
<g id="a_node10"><a xlink:href="norsemen_spearman_full.html" xlink:title="Spearman">
<ellipse fill="none" stroke="magenta" cx="813.893" cy="-412.61" rx="46.2923" ry="18"/>
<text text-anchor="middle" x="813.893" y="-408.91" font-family="Times,serif" font-size="14.00" fill="#ebc72d">Spearman</text>
</a>
</g>
</g>
<!-- house&#45;&gt;spearman -->
<g id="edge24" class="edge"><title>house&#45;&gt;spearman</title>
<path fill="none" stroke="#ebc72d" d="M664.407,-581.265C667.946,-580.106 671.48,-578.971 674.893,-577.907 780.755,-544.889 848.729,-598.683 914.893,-509.693"/>
<path fill="none" stroke="#ebc72d" d="M914.893,-507.693C926.837,-491.629 880.175,-456.461 846.314,-433.967"/>
<polygon fill="#ebc72d" stroke="#ebc72d" points="847.878,-430.808 837.594,-428.263 844.046,-436.666 847.878,-430.808"/>
</g>
<!-- cudgel_lady -->
<g id="node13" class="node"><title>cudgel_lady</title>
<g id="a_node13"><a xlink:href="norsemen_cudgel_lady_full.html" xlink:title="Cudgel\nLady">
<ellipse fill="none" stroke="magenta" cx="1015.89" cy="-412.61" rx="39.6962" ry="26.7407"/>
<text text-anchor="middle" x="1015.89" y="-416.41" font-family="Times,serif" font-size="14.00" fill="#ebc72d">Cudgel</text>
<text text-anchor="middle" x="1015.89" y="-401.41" font-family="Times,serif" font-size="14.00" fill="#ebc72d">Lady</text>
</a>
</g>
</g>
<!-- house&#45;&gt;cudgel_lady -->
<g id="edge22" class="edge"><title>house&#45;&gt;cudgel_lady</title>
<path fill="none" stroke="#ebc72d" d="M914.893,-507.693C934.165,-481.774 961.14,-457.068 982.365,-439.483"/>
<polygon fill="#ebc72d" stroke="#ebc72d" points="984.651,-442.135 990.191,-433.104 980.228,-436.709 984.651,-442.135"/>
</g>
<!-- bone_tent -->
<g id="node15" class="node"><title>bone_tent</title>
<g id="a_node15"><a xlink:href="norsemen_bone_tent_full.html" xlink:title="Bone\nTent">
<polygon fill="none" stroke="red" points="662.057,-519.023 622.893,-542.121 583.73,-519.023 583.766,-481.65 662.02,-481.65 662.057,-519.023"/>
<text text-anchor="middle" x="622.893" y="-512.493" font-family="Times,serif" font-size="14.00" fill="#ebc72d">Bone</text>
<text text-anchor="middle" x="622.893" y="-497.493" font-family="Times,serif" font-size="14.00" fill="#ebc72d">Tent</text>
</a>
</g>
</g>
<!-- house&#45;&gt;bone_tent -->
<g id="edge21" class="edge"><title>house&#45;&gt;bone_tent</title>
<path fill="none" stroke="#ebc72d" stroke-dasharray="1,5" d="M624.572,-581.216C624.383,-573.158 624.132,-562.488 623.883,-551.856"/>
<polygon fill="#ebc72d" stroke="#ebc72d" points="627.38,-551.674 623.646,-541.759 620.382,-551.838 627.38,-551.674"/>
</g>
<!-- thrull -->
<g id="node4" class="node"><title>thrull</title>
<g id="a_node4"><a xlink:href="norsemen_thrull_full.html" xlink:title="Thrull">
<ellipse fill="none" stroke="magenta" cx="555.893" cy="-667.907" rx="32.4942" ry="18"/>
<text text-anchor="middle" x="555.893" y="-664.207" font-family="Times,serif" font-size="14.00" fill="#ebc72d">Thrull</text>
</a>
</g>
</g>
<!-- thrull&#45;&gt;thortotem -->
<g id="edge49" class="edge"><title>thrull&#45;&gt;thortotem</title>
<path fill="none" stroke="#ebc72d" stroke-width="2" d="M527.088,-659.548C479.778,-647.461 385.206,-623.301 328.338,-608.772"/>
<polygon fill="#ebc72d" stroke="#ebc72d" stroke-width="2" points="329.076,-605.348 318.521,-606.264 327.343,-612.13 329.076,-605.348"/>
</g>
<!-- thrull&#45;&gt;house -->
<g id="edge46" class="edge"><title>thrull&#45;&gt;house</title>
<path fill="none" stroke="#ebc72d" stroke-width="2" d="M570.865,-651.718C580.784,-641.655 593.914,-628.335 604.746,-617.346"/>
<polygon fill="#ebc72d" stroke="#ebc72d" stroke-width="2" points="607.284,-619.757 611.811,-610.179 602.298,-614.843 607.284,-619.757"/>
</g>
<!-- farm -->
<g id="node5" class="node"><title>farm</title>
<g id="a_node5"><a xlink:href="norsemen_farm_full.html" xlink:title="Farm">
<polygon fill="none" stroke="red" points="265.804,-514.256 228.893,-526.693 191.983,-514.256 192.017,-494.131 265.769,-494.131 265.804,-514.256"/>
<text text-anchor="middle" x="228.893" y="-504.993" font-family="Times,serif" font-size="14.00" fill="#ebc72d">Farm</text>
</a>
</g>
</g>
<!-- thrull&#45;&gt;farm -->
<g id="edge45" class="edge"><title>thrull&#45;&gt;farm</title>
<path fill="none" stroke="#ebc72d" stroke-width="2" d="M557.05,-649.862C557.738,-635.644 558.101,-614.879 555.893,-596.907"/>
<path fill="none" stroke="#ebc72d" stroke-width="2" d="M555.893,-594.907C548.963,-538.475 365.075,-518.647 276.162,-512.345"/>
<polygon fill="#ebc72d" stroke="#ebc72d" stroke-width="2" points="276.279,-508.845 266.065,-511.659 275.804,-515.829 276.279,-508.845"/>
</g>
<!-- thrull&#45;&gt;med_bar -->
<g id="edge47" class="edge"><title>thrull&#45;&gt;med_bar</title>
<path fill="none" stroke="#ebc72d" stroke-width="2" d="M555.893,-594.907C552.563,-567.791 557.667,-594.229 670.893,-541.907 678.245,-538.509 685.934,-534.548 693.22,-530.589"/>
<polygon fill="#ebc72d" stroke="#ebc72d" stroke-width="2" points="695.132,-533.531 702.177,-525.618 691.735,-527.41 695.132,-533.531"/>
</g>
<!-- castle -->
<g id="node9" class="node"><title>castle</title>
<g id="a_node9"><a xlink:href="norsemen_castle_full.html" xlink:title="Castle">
<polygon fill="none" stroke="red" points="764.231,-601.469 723.893,-613.907 683.555,-601.469 683.593,-581.344 764.194,-581.344 764.231,-601.469"/>
<text text-anchor="middle" x="723.893" y="-592.207" font-family="Times,serif" font-size="14.00" fill="#ebc72d">Castle</text>
</a>
</g>
</g>
<!-- thrull&#45;&gt;castle -->
<g id="edge44" class="edge"><title>thrull&#45;&gt;castle</title>
<path fill="none" stroke="#ebc72d" stroke-width="2" d="M590.68,-652.412C620.121,-640.145 662.022,-622.687 690.932,-610.641"/>
<polygon fill="#ebc72d" stroke="#ebc72d" stroke-width="2" points="588.929,-649.35 581.045,-656.427 591.622,-655.812 588.929,-649.35"/>
<polygon fill="#ebc72d" stroke="#ebc72d" stroke-width="2" points="692.317,-613.855 700.202,-606.778 689.625,-607.394 692.317,-613.855"/>
</g>
<!-- thrull&#45;&gt;bone_tent -->
<g id="edge43" class="edge"><title>thrull&#45;&gt;bone_tent</title>
<path fill="none" stroke="#ebc72d" stroke-width="2" d="M555.893,-594.907C552.889,-570.448 570.488,-548.715 588.399,-533.32"/>
<polygon fill="#ebc72d" stroke="#ebc72d" stroke-width="2" points="591.003,-535.715 596.577,-526.705 586.601,-530.273 591.003,-535.715"/>
</g>
<!-- mistletree -->
<g id="node16" class="node"><title>mistletree</title>
<g id="a_node16"><a xlink:href="norsemen_mistletree_full.html" xlink:title="Mistletree">
<polygon fill="none" stroke="red" points="675.579,-317.302 617.893,-329.74 560.207,-317.302 560.261,-297.178 675.526,-297.178 675.579,-317.302"/>
<text text-anchor="middle" x="617.893" y="-308.04" font-family="Times,serif" font-size="14.00" fill="#ebc72d">Mistletree</text>
</a>
</g>
</g>
<!-- thrull&#45;&gt;mistletree -->
<g id="edge48" class="edge"><title>thrull&#45;&gt;mistletree</title>
<path fill="none" stroke="#ebc72d" stroke-width="2" d="M555.893,-507.693C541.674,-444.443 579.252,-372.278 601.992,-336.066"/>
<polygon fill="#ebc72d" stroke="#ebc72d" stroke-width="2" points="604.933,-337.962 607.413,-327.661 599.051,-334.168 604.933,-337.962"/>
</g>
<!-- blacksmith -->
<g id="node19" class="node"><title>blacksmith</title>
<g id="a_node19"><a xlink:href="norsemen_blacksmith_full.html" xlink:title="Blacksmith">
<polygon fill="none" stroke="red" points="528.326,-418.172 464.893,-430.61 401.46,-418.172 401.52,-398.048 528.267,-398.048 528.326,-418.172"/>
<text text-anchor="middle" x="464.893" y="-408.91" font-family="Times,serif" font-size="14.00" fill="#ebc72d">Blacksmith</text>
</a>
</g>
</g>
<!-- thrull&#45;&gt;blacksmith -->
<g id="edge42" class="edge"><title>thrull&#45;&gt;blacksmith</title>
<path fill="none" stroke="#ebc72d" stroke-width="2" d="M555.893,-594.907C551.277,-557.317 564.2,-546.644 555.893,-509.693"/>
<path fill="none" stroke="#ebc72d" stroke-width="2" d="M555.893,-507.693C548.513,-474.862 519.222,-448.533 495.839,-432.169"/>
<polygon fill="#ebc72d" stroke="#ebc72d" stroke-width="2" points="497.479,-429.055 487.224,-426.392 493.58,-434.869 497.479,-429.055"/>
</g>
<!-- valhalla -->
<g id="node25" class="node"><title>valhalla</title>
<g id="a_node25"><a xlink:href="norsemen_valhalla_full.html" xlink:title="Valhalla">
<polygon fill="none" stroke="red" points="360.512,-216.432 310.893,-228.87 261.274,-216.432 261.321,-196.308 360.466,-196.308 360.512,-216.432"/>
<text text-anchor="middle" x="310.893" y="-207.17" font-family="Times,serif" font-size="14.00" fill="#ebc72d">Valhalla</text>
</a>
</g>
</g>
<!-- thrull&#45;&gt;valhalla -->
<g id="edge50" class="edge"><title>thrull&#45;&gt;valhalla</title>
<path fill="none" stroke="#ebc72d" stroke-width="2" d="M523.6,-664.717C405.919,-655.867 6.89332,-617.884 6.89332,-509.693 6.89332,-509.693 6.89332,-509.693 6.89332,-411.61 6.89332,-349.755 -17.3825,-317.935 25.8933,-273.74 97.054,-201.068 154.302,-266.395 251.893,-237.74 260.938,-235.084 270.422,-231.373 279.076,-227.59"/>
<polygon fill="#ebc72d" stroke="#ebc72d" stroke-width="2" points="280.771,-230.664 288.426,-223.339 277.874,-224.291 280.771,-230.664"/>
</g>
<!-- farm&#45;&gt;cow -->
<g id="edge18" class="edge"><title>farm&#45;&gt;cow</title>
<path fill="none" stroke="#ebc72d" d="M211.444,-494.013C191.066,-478.036 157.195,-451.48 133.995,-433.29"/>
<polygon fill="#ebc72d" stroke="#ebc72d" points="136.004,-430.418 125.975,-427.003 131.685,-435.927 136.004,-430.418"/>
</g>
<!-- archer -->
<g id="node21" class="node"><title>archer</title>
<g id="a_node21"><a xlink:href="norsemen_archer_full.html" xlink:title="Archer">
<ellipse fill="none" stroke="magenta" cx="284.893" cy="-412.61" rx="35.194" ry="18"/>
<text text-anchor="middle" x="284.893" y="-408.91" font-family="Times,serif" font-size="14.00" fill="#ebc72d">Archer</text>
</a>
</g>
</g>
<!-- farm&#45;&gt;archer -->
<g id="edge17" class="edge"><title>farm&#45;&gt;archer</title>
<path fill="none" stroke="#ebc72d" stroke-dasharray="1,5" d="M237.156,-493.811C245.758,-479.36 259.416,-456.414 269.923,-438.761"/>
<polygon fill="#ebc72d" stroke="#ebc72d" points="272.98,-440.469 275.087,-430.086 266.964,-436.889 272.98,-440.469"/>
</g>
<!-- flyingvalkyrie -->
<g id="node23" class="node"><title>flyingvalkyrie</title>
<g id="a_node23"><a xlink:href="norsemen_flyingvalkyrie_full.html" xlink:title="Flyingvalkyrie">
<ellipse fill="none" stroke="magenta" cx="216.893" cy="-18" rx="62.2891" ry="18"/>
<text text-anchor="middle" x="216.893" y="-14.3" font-family="Times,serif" font-size="14.00" fill="#ebc72d">Flyingvalkyrie</text>
</a>
</g>
</g>
<!-- farm&#45;&gt;flyingvalkyrie -->
<g id="edge19" class="edge"><title>farm&#45;&gt;flyingvalkyrie</title>
<path fill="none" stroke="#ebc72d" stroke-dasharray="1,5" d="M218.053,-493.894C198.09,-467.604 155.911,-407.771 137.893,-349.74 106.331,-248.085 115.897,-217.4 118.893,-111"/>
<path fill="none" stroke="#ebc72d" stroke-dasharray="1,5" d="M118.893,-109C119.921,-76.9877 148.583,-53.251 174.644,-38.2162"/>
<polygon fill="#ebc72d" stroke="#ebc72d" points="176.609,-41.1306 183.704,-33.2618 173.25,-34.9889 176.609,-41.1306"/>
</g>
<!-- axe_thrower -->
<g id="node7" class="node"><title>axe_thrower</title>
<g id="a_node7"><a xlink:href="norsemen_axe_thrower_full.html" xlink:title="Axe\nThrower">
<ellipse fill="none" stroke="magenta" cx="666.893" cy="-412.61" rx="44.5955" ry="26.7407"/>
<text text-anchor="middle" x="666.893" y="-416.41" font-family="Times,serif" font-size="14.00" fill="#ebc72d">Axe</text>
<text text-anchor="middle" x="666.893" y="-401.41" font-family="Times,serif" font-size="14.00" fill="#ebc72d">Thrower</text>
</a>
</g>
</g>
<!-- med_bar&#45;&gt;axe_thrower -->
<g id="edge28" class="edge"><title>med_bar&#45;&gt;axe_thrower</title>
<path fill="none" stroke="#ebc72d" stroke-dasharray="1,5" d="M711.623,-481.486C704.428,-470.567 695.996,-457.772 688.404,-446.252"/>
<polygon fill="#ebc72d" stroke="#ebc72d" points="691.222,-444.168 682.797,-437.743 685.377,-448.019 691.222,-444.168"/>
</g>
<!-- med_bar&#45;&gt;spearman -->
<g id="edge32" class="edge"><title>med_bar&#45;&gt;spearman</title>
<path fill="none" stroke="#ebc72d" d="M752.571,-481.486C765.054,-467.669 780.252,-450.846 792.395,-437.406"/>
<polygon fill="#ebc72d" stroke="#ebc72d" points="795.041,-439.698 799.148,-429.931 789.847,-435.005 795.041,-439.698"/>
</g>
<!-- med_bar&#45;&gt;cudgel_lady -->
<g id="edge29" class="edge"><title>med_bar&#45;&gt;cudgel_lady</title>
<path fill="none" stroke="#ebc72d" d="M765.969,-499.583C813.469,-488.626 897.905,-467.231 966.893,-439.48 970.307,-438.107 973.795,-436.567 977.258,-434.94"/>
<polygon fill="#ebc72d" stroke="#ebc72d" points="978.875,-438.045 986.3,-430.486 975.782,-431.765 978.875,-438.045"/>
</g>
<!-- med_bar&#45;&gt;mistletree -->
<g id="edge31" class="edge"><title>med_bar&#45;&gt;mistletree</title>
<path fill="none" stroke="#ebc72d" stroke-dasharray="1,5" d="M733.352,-481.607C736.445,-455.601 737.462,-415.371 720.893,-385.74 712.532,-370.787 675.974,-346.875 648.774,-330.521"/>
<polygon fill="#ebc72d" stroke="#ebc72d" points="650.348,-327.385 639.962,-325.289 646.773,-333.404 650.348,-327.385"/>
</g>
<!-- med -->
<g id="node31" class="node"><title>med</title>
<g id="a_node31"><a xlink:href="norsemen_med_full.html" xlink:title="Med">
<polygon fill="none" stroke="green" points="957.94,-430.61 894.235,-430.61 877.846,-394.61 941.552,-394.61 957.94,-430.61"/>
<text text-anchor="middle" x="917.893" y="-408.91" font-family="Times,serif" font-size="14.00" fill="#ebc72d">Med</text>
</a>
</g>
</g>
<!-- med_bar&#45;&gt;med -->
<g id="edge30" class="edge"><title>med_bar&#45;&gt;med</title>
<path fill="none" stroke="#ebc72d" d="M765.606,-490.206C793.939,-476.613 834.053,-457.159 868.893,-439.48 873.598,-437.093 878.536,-434.541 883.391,-432.005"/>
<polygon fill="#ebc72d" stroke="#ebc72d" points="885.32,-434.945 892.543,-427.194 882.063,-428.749 885.32,-434.945"/>
</g>
<!-- swordman_berzerk -->
<g id="node8" class="node"><title>swordman_berzerk</title>
<g id="a_node8"><a xlink:href="norsemen_swordman_berzerk_full.html" xlink:title="Swordman\nBerzerk">
<ellipse fill="none" stroke="magenta" cx="909.893" cy="-110" rx="53.9813" ry="26.7407"/>
<text text-anchor="middle" x="909.893" y="-113.8" font-family="Times,serif" font-size="14.00" fill="#ebc72d">Swordman</text>
<text text-anchor="middle" x="909.893" y="-98.8" font-family="Times,serif" font-size="14.00" fill="#ebc72d">Berzerk</text>
</a>
</g>
</g>
<!-- spearman_berzerk -->
<g id="node11" class="node"><title>spearman_berzerk</title>
<g id="a_node11"><a xlink:href="norsemen_spearman_berzerk_full.html" xlink:title="Spearman\nBerzerk">
<ellipse fill="none" stroke="magenta" cx="787.893" cy="-110" rx="50.41" ry="26.7407"/>
<text text-anchor="middle" x="787.893" y="-113.8" font-family="Times,serif" font-size="14.00" fill="#ebc72d">Spearman</text>
<text text-anchor="middle" x="787.893" y="-98.8" font-family="Times,serif" font-size="14.00" fill="#ebc72d">Berzerk</text>
</a>
</g>
</g>
<!-- spearman&#45;&gt;spearman_berzerk -->
<g id="edge39" class="edge"><title>spearman&#45;&gt;spearman_berzerk</title>
<path fill="none" stroke="#ebc72d" stroke-dasharray="5,2" d="M812.421,-394.587C808.32,-347.172 796.699,-212.81 791.052,-147.516"/>
<polygon fill="#ebc72d" stroke="#ebc72d" points="794.515,-146.941 790.166,-137.28 787.541,-147.545 794.515,-146.941"/>
</g>
<!-- crossbow -->
<g id="node12" class="node"><title>crossbow</title>
<g id="a_node12"><a xlink:href="norsemen_crossbow_full.html" xlink:title="Crossbow">
<ellipse fill="none" stroke="magenta" cx="196.893" cy="-210.87" rx="46.2923" ry="18"/>
<text text-anchor="middle" x="196.893" y="-207.17" font-family="Times,serif" font-size="14.00" fill="#ebc72d">Crossbow</text>
</a>
</g>
</g>
<!-- bone_tent&#45;&gt;axe_thrower -->
<g id="edge11" class="edge"><title>bone_tent&#45;&gt;axe_thrower</title>
<path fill="none" stroke="#ebc72d" d="M635.15,-481.486C639.988,-471.141 645.614,-459.111 650.774,-448.077"/>
<polygon fill="#ebc72d" stroke="#ebc72d" points="654.091,-449.246 655.157,-438.705 647.75,-446.281 654.091,-449.246"/>
</g>
<!-- bone_tent&#45;&gt;spearman -->
<g id="edge14" class="edge"><title>bone_tent&#45;&gt;spearman</title>
<path fill="none" stroke="#ebc72d" stroke-dasharray="1,5" d="M662.117,-486.262C669.008,-482.603 676.137,-478.887 682.893,-475.48 713.897,-459.849 749.557,-443.085 775.835,-430.955"/>
<polygon fill="#ebc72d" stroke="#ebc72d" points="777.446,-434.067 785.066,-426.707 774.519,-427.708 777.446,-434.067"/>
</g>
<!-- battleaxe -->
<g id="node18" class="node"><title>battleaxe</title>
<g id="a_node18"><a xlink:href="norsemen_battleaxe_full.html" xlink:title="Battleaxe">
<ellipse fill="none" stroke="magenta" cx="737.893" cy="-311.74" rx="44.393" ry="18"/>
<text text-anchor="middle" x="737.893" y="-308.04" font-family="Times,serif" font-size="14.00" fill="#ebc72d">Battleaxe</text>
</a>
</g>
</g>
<!-- bone_tent&#45;&gt;battleaxe -->
<g id="edge12" class="edge"><title>bone_tent&#45;&gt;battleaxe</title>
<path fill="none" stroke="#ebc72d" d="M605.083,-481.614C594.313,-462.431 584.347,-435.925 593.893,-413.61"/>
<path fill="none" stroke="#ebc72d" d="M593.893,-411.61C613.13,-366.646 642.859,-374.74 684.893,-349.74 693.022,-344.905 701.543,-339.244 709.317,-333.824"/>
<polygon fill="#ebc72d" stroke="#ebc72d" points="711.586,-336.505 717.716,-327.864 707.535,-330.797 711.586,-336.505"/>
</g>
<!-- bone_tent&#45;&gt;blacksmith -->
<g id="edge13" class="edge"><title>bone_tent&#45;&gt;blacksmith</title>
<path fill="none" stroke="#ebc72d" stroke-dasharray="1,5" d="M583.568,-483.71C578.963,-480.926 574.328,-478.134 569.893,-475.48 545.064,-460.62 516.797,-443.98 495.851,-431.702"/>
<polygon fill="#ebc72d" stroke="#ebc72d" points="497.466,-428.592 487.068,-426.558 493.928,-434.632 497.466,-428.592"/>
</g>
<!-- bone_tent&#45;&gt;archer -->
<g id="edge10" class="edge"><title>bone_tent&#45;&gt;archer</title>
<path fill="none" stroke="#ebc72d" d="M583.722,-481.874C579.171,-479.485 574.505,-477.287 569.893,-475.48 495.148,-446.197 471.273,-456.833 392.893,-439.48 370.67,-434.56 345.976,-428.676 325.816,-423.764"/>
<polygon fill="#ebc72d" stroke="#ebc72d" points="326.565,-420.344 316.02,-421.367 324.901,-427.143 326.565,-420.344"/>
</g>
<!-- swordman -->
<g id="node24" class="node"><title>swordman</title>
<g id="a_node24"><a xlink:href="norsemen_swordman_full.html" xlink:title="Swordman">
<ellipse fill="none" stroke="magenta" cx="886.893" cy="-210.87" rx="49.2915" ry="18"/>
<text text-anchor="middle" x="886.893" y="-207.17" font-family="Times,serif" font-size="14.00" fill="#ebc72d">Swordman</text>
</a>
</g>
</g>
<!-- bone_tent&#45;&gt;swordman -->
<g id="edge15" class="edge"><title>bone_tent&#45;&gt;swordman</title>
<path fill="none" stroke="#ebc72d" d="M593.893,-411.61C629.991,-327.236 714.183,-400.114 790.893,-349.74 832.472,-322.437 861.257,-270.325 875.842,-238.575"/>
<polygon fill="#ebc72d" stroke="#ebc72d" points="879.217,-239.6 880.077,-229.04 872.819,-236.759 879.217,-239.6"/>
</g>
<!-- wild_sow -->
<g id="node22" class="node"><title>wild_sow</title>
<g id="a_node22"><a xlink:href="norsemen_wild_sow_full.html" xlink:title="Wild\nSow">
<ellipse fill="none" stroke="magenta" cx="612.893" cy="-210.87" rx="31.2258" ry="26.7407"/>
<text text-anchor="middle" x="612.893" y="-214.67" font-family="Times,serif" font-size="14.00" fill="#ebc72d">Wild</text>
<text text-anchor="middle" x="612.893" y="-199.67" font-family="Times,serif" font-size="14.00" fill="#ebc72d">Sow</text>
</a>
</g>
</g>
<!-- mistletree&#45;&gt;wild_sow -->
<g id="edge35" class="edge"><title>mistletree&#45;&gt;wild_sow</title>
<path fill="none" stroke="#ebc72d" d="M617.198,-296.993C616.558,-284.338 615.58,-265.002 614.718,-247.956"/>
<polygon fill="#ebc72d" stroke="#ebc72d" points="618.201,-247.528 614.2,-237.718 611.21,-247.882 618.201,-247.528"/>
</g>
<!-- mistletree&#45;&gt;valhalla -->
<g id="edge34" class="edge"><title>mistletree&#45;&gt;valhalla</title>
<path fill="none" stroke="#ebc72d" stroke-dasharray="1,5" d="M596.894,-297.111C584.259,-289.389 567.623,-280.043 551.893,-273.74 488.121,-248.186 410.569,-230.503 360.974,-220.775"/>
<polygon fill="#ebc72d" stroke="#ebc72d" points="361.617,-217.335 351.135,-218.878 360.291,-224.208 361.617,-217.335"/>
</g>
<!-- root -->
<g id="node30" class="node"><title>root</title>
<g id="a_node30"><a xlink:href="norsemen_root_full.html" xlink:title="Root">
<polygon fill="none" stroke="green" points="781.846,-228.87 716.699,-228.87 699.941,-192.87 765.087,-192.87 781.846,-228.87"/>
<text text-anchor="middle" x="740.893" y="-207.17" font-family="Times,serif" font-size="14.00" fill="#ebc72d">Root</text>
</a>
</g>
</g>
<!-- mistletree&#45;&gt;root -->
<g id="edge33" class="edge"><title>mistletree&#45;&gt;root</title>
<path fill="none" stroke="#ebc72d" d="M634.996,-296.993C654.718,-281.14 687.483,-254.802 711.353,-235.615"/>
<polygon fill="#ebc72d" stroke="#ebc72d" points="713.788,-238.149 719.389,-229.156 709.402,-232.693 713.788,-238.149"/>
</g>
<!-- valkyrie -->
<g id="node17" class="node"><title>valkyrie</title>
<g id="a_node17"><a xlink:href="norsemen_valkyrie_full.html" xlink:title="Valkyrie">
<ellipse fill="none" stroke="magenta" cx="188.893" cy="-110" rx="41.6928" ry="18"/>
<text text-anchor="middle" x="188.893" y="-106.3" font-family="Times,serif" font-size="14.00" fill="#ebc72d">Valkyrie</text>
</a>
</g>
</g>
<!-- battleaxe_berzerk -->
<g id="node20" class="node"><title>battleaxe_berzerk</title>
<g id="a_node20"><a xlink:href="norsemen_battleaxe_berzerk_full.html" xlink:title="Battleaxe\nBerzerk">
<ellipse fill="none" stroke="magenta" cx="671.893" cy="-110" rx="48.1667" ry="26.7407"/>
<text text-anchor="middle" x="671.893" y="-113.8" font-family="Times,serif" font-size="14.00" fill="#ebc72d">Battleaxe</text>
<text text-anchor="middle" x="671.893" y="-98.8" font-family="Times,serif" font-size="14.00" fill="#ebc72d">Berzerk</text>
</a>
</g>
</g>
<!-- battleaxe&#45;&gt;battleaxe_berzerk -->
<g id="edge2" class="edge"><title>battleaxe&#45;&gt;battleaxe_berzerk</title>
<path fill="none" stroke="#ebc72d" stroke-dasharray="5,2" d="M724.493,-294.44C713.633,-280.323 698.867,-258.897 690.893,-237.74 679.859,-208.462 675.214,-173.106 673.269,-147.185"/>
<polygon fill="#ebc72d" stroke="#ebc72d" points="676.751,-146.799 672.609,-137.048 669.766,-147.254 676.751,-146.799"/>
</g>
<!-- blacksmith&#45;&gt;crossbow -->
<g id="edge6" class="edge"><title>blacksmith&#45;&gt;crossbow</title>
<path fill="none" stroke="#ebc72d" d="M401.209,-400.616C366.166,-391.828 323.847,-376.393 293.893,-349.74 265.68,-324.636 277.61,-304.636 255.893,-273.74 246.115,-259.829 233.273,-245.978 222.068,-234.92"/>
<polygon fill="#ebc72d" stroke="#ebc72d" points="224.256,-232.167 214.629,-227.743 219.396,-237.205 224.256,-232.167"/>
</g>
<!-- blacksmith&#45;&gt;thor -->
<g id="edge9" class="edge"><title>blacksmith&#45;&gt;thor</title>
<path fill="none" stroke="#ebc72d" stroke-dasharray="1,5" d="M401.244,-399.48C378.426,-395.137 352.508,-390.212 328.893,-385.74 244.018,-369.669 219.829,-377.102 137.893,-349.74 122.116,-344.472 105.44,-336.509 91.8292,-329.318"/>
<polygon fill="#ebc72d" stroke="#ebc72d" points="93.4046,-326.191 82.9446,-324.506 90.0708,-332.346 93.4046,-326.191"/>
</g>
<!-- blacksmith&#45;&gt;mistletree -->
<g id="edge8" class="edge"><title>blacksmith&#45;&gt;mistletree</title>
<path fill="none" stroke="#ebc72d" stroke-dasharray="1,5" d="M486.167,-397.863C512.956,-380.552 559.09,-350.74 589.038,-331.387"/>
<polygon fill="#ebc72d" stroke="#ebc72d" points="591.274,-334.109 597.773,-325.742 587.475,-328.23 591.274,-334.109"/>
</g>
<!-- blacksmith&#45;&gt;battleaxe -->
<g id="edge5" class="edge"><title>blacksmith&#45;&gt;battleaxe</title>
<path fill="none" stroke="#ebc72d" stroke-dasharray="1,5" d="M521.369,-398.015C576.449,-384.347 656.021,-363.396 684.893,-349.74 693.833,-345.512 702.898,-339.81 710.944,-334.15"/>
<polygon fill="#ebc72d" stroke="#ebc72d" points="713.214,-336.826 719.219,-328.097 709.081,-331.176 713.214,-336.826"/>
</g>
<!-- iron -->
<g id="node26" class="node"><title>iron</title>
<g id="a_node26"><a xlink:href="norsemen_iron_full.html" xlink:title="Iron">
<polygon fill="none" stroke="green" points="377.223,-329.74 317.84,-329.74 302.563,-293.74 361.947,-293.74 377.223,-329.74"/>
<text text-anchor="middle" x="339.893" y="-308.04" font-family="Times,serif" font-size="14.00" fill="#ebc72d">Iron</text>
</a>
</g>
</g>
<!-- blacksmith&#45;&gt;iron -->
<g id="edge7" class="edge"><title>blacksmith&#45;&gt;iron</title>
<path fill="none" stroke="#ebc72d" d="M447.271,-397.914C431.227,-385.42 406.907,-366.419 385.893,-349.74 380.392,-345.374 374.539,-340.693 368.918,-336.18"/>
<polygon fill="#ebc72d" stroke="#ebc72d" points="370.901,-333.284 360.915,-329.744 366.514,-338.738 370.901,-333.284"/>
</g>
<!-- arrow -->
<g id="node27" class="node"><title>arrow</title>
<g id="a_node27"><a xlink:href="norsemen_arrow_full.html" xlink:title="Arrow">
<polygon fill="none" stroke="green" points="246.499,-329.74 167.587,-329.74 147.288,-293.74 226.199,-293.74 246.499,-329.74"/>
<text text-anchor="middle" x="196.893" y="-308.04" font-family="Times,serif" font-size="14.00" fill="#ebc72d">Arrow</text>
</a>
</g>
</g>
<!-- blacksmith&#45;&gt;arrow -->
<g id="edge4" class="edge"><title>blacksmith&#45;&gt;arrow</title>
<path fill="none" stroke="#ebc72d" d="M407.361,-397.945C365.789,-387.168 308.766,-370.509 260.893,-349.74 251.268,-345.564 241.264,-340.283 232.104,-335.027"/>
<polygon fill="#ebc72d" stroke="#ebc72d" points="233.663,-331.883 223.271,-329.822 230.11,-337.914 233.663,-331.883"/>
</g>
<!-- advanced_iron -->
<g id="node28" class="node"><title>advanced_iron</title>
<g id="a_node28"><a xlink:href="norsemen_advanced_iron_full.html" xlink:title="Advanced\nIron">
<polygon fill="none" stroke="green" points="542.612,-349.74 425.342,-349.74 395.174,-273.74 512.445,-273.74 542.612,-349.74"/>
<text text-anchor="middle" x="468.893" y="-315.54" font-family="Times,serif" font-size="14.00" fill="#ebc72d">Advanced</text>
<text text-anchor="middle" x="468.893" y="-300.54" font-family="Times,serif" font-size="14.00" fill="#ebc72d">Iron</text>
</a>
</g>
</g>
<!-- blacksmith&#45;&gt;advanced_iron -->
<g id="edge3" class="edge"><title>blacksmith&#45;&gt;advanced_iron</title>
<path fill="none" stroke="#ebc72d" d="M465.45,-397.863C465.854,-387.872 466.426,-373.716 466.989,-359.811"/>
<polygon fill="#ebc72d" stroke="#ebc72d" points="470.487,-359.926 467.394,-349.793 463.493,-359.643 470.487,-359.926"/>
</g>
<!-- swordman&#45;&gt;swordman_berzerk -->
<g id="edge40" class="edge"><title>swordman&#45;&gt;swordman_berzerk</title>
<path fill="none" stroke="#ebc72d" stroke-dasharray="5,2" d="M890.9,-192.648C893.835,-180.031 897.923,-162.456 901.555,-146.842"/>
<polygon fill="#ebc72d" stroke="#ebc72d" points="905.003,-147.47 903.86,-136.937 898.185,-145.883 905.003,-147.47"/>
</g>
<!-- valhalla&#45;&gt;valkyrie -->
<g id="edge53" class="edge"><title>valhalla&#45;&gt;valkyrie</title>
<path fill="none" stroke="#ebc72d" d="M293.93,-196.123C273.665,-179.7 239.517,-152.026 215.677,-132.706"/>
<polygon fill="#ebc72d" stroke="#ebc72d" points="217.686,-129.829 207.713,-126.252 213.279,-135.267 217.686,-129.829"/>
</g>
<!-- valhalla&#45;&gt;flyingvalkyrie -->
<g id="edge51" class="edge"><title>valhalla&#45;&gt;flyingvalkyrie</title>
<path fill="none" stroke="#ebc72d" d="M281.437,-196.213C272.078,-192.075 261.63,-187.66 251.893,-184 188.775,-160.274 116.995,-178.403 118.893,-111"/>
</g>
<!-- holy_valkyrie -->
<g id="node29" class="node"><title>holy_valkyrie</title>
<g id="a_node29"><a xlink:href="norsemen_holy_valkyrie_full.html" xlink:title="Holy\nValkyrie">
<polygon fill="none" stroke="green" points="381.098,-148 275.781,-148 248.689,-72 354.006,-72 381.098,-148"/>
<text text-anchor="middle" x="314.893" y="-113.8" font-family="Times,serif" font-size="14.00" fill="#ebc72d">Holy</text>
<text text-anchor="middle" x="314.893" y="-98.8" font-family="Times,serif" font-size="14.00" fill="#ebc72d">Valkyrie</text>
</a>
</g>
</g>
<!-- valhalla&#45;&gt;holy_valkyrie -->
<g id="edge52" class="edge"><title>valhalla&#45;&gt;holy_valkyrie</title>
<path fill="none" stroke="#ebc72d" d="M311.45,-196.123C311.854,-186.132 312.426,-171.976 312.989,-158.071"/>
<polygon fill="#ebc72d" stroke="#ebc72d" points="316.487,-158.186 313.394,-148.053 309.493,-157.903 316.487,-158.186"/>
</g>
<!-- iron&#45;&gt;crossbow -->
<g id="edge25" class="edge"><title>iron&#45;&gt;crossbow</title>
<path fill="none" stroke="#ebc72d" stroke-dasharray="1,5" d="M316.66,-293.618C307.994,-287.302 298.04,-280.13 288.893,-273.74 268.689,-259.624 245.68,-244.151 227.726,-232.209"/>
<polygon fill="#ebc72d" stroke="#ebc72d" points="229.621,-229.266 219.353,-226.652 225.75,-235.098 229.621,-229.266"/>
</g>
<!-- arrow&#45;&gt;crossbow -->
<g id="edge1" class="edge"><title>arrow&#45;&gt;crossbow</title>
<path fill="none" stroke="#ebc72d" stroke-dasharray="1,5" d="M196.893,-293.518C196.893,-278.49 196.893,-256.428 196.893,-239.024"/>
<polygon fill="#ebc72d" stroke="#ebc72d" points="200.393,-238.895 196.893,-228.895 193.393,-238.895 200.393,-238.895"/>
</g>
<!-- holy_valkyrie&#45;&gt;flyingvalkyrie -->
<g id="edge20" class="edge"><title>holy_valkyrie&#45;&gt;flyingvalkyrie</title>
<path fill="none" stroke="#ebc72d" stroke-dasharray="1,5" d="M274.467,-71.8739C263.567,-61.8637 252.083,-51.3169 242.263,-42.2988"/>
<polygon fill="#ebc72d" stroke="#ebc72d" points="244.521,-39.62 234.788,-35.4338 239.786,-44.7757 244.521,-39.62"/>
</g>
<!-- root&#45;&gt;swordman_berzerk -->
<g id="edge38" class="edge"><title>root&#45;&gt;swordman_berzerk</title>
<path fill="none" stroke="#ebc72d" stroke-dasharray="1,5" d="M766.177,-195.138C787.659,-182.615 819.311,-164.149 846.893,-148 853.365,-144.211 860.208,-140.198 866.906,-136.268"/>
<polygon fill="#ebc72d" stroke="#ebc72d" points="869.048,-139.068 875.9,-130.987 865.504,-133.032 869.048,-139.068"/>
</g>
<!-- root&#45;&gt;spearman_berzerk -->
<g id="edge37" class="edge"><title>root&#45;&gt;spearman_berzerk</title>
<path fill="none" stroke="#ebc72d" stroke-dasharray="1,5" d="M749.08,-192.648C755.28,-179.606 763.999,-161.265 771.602,-145.27"/>
<polygon fill="#ebc72d" stroke="#ebc72d" points="774.791,-146.715 775.923,-136.181 768.469,-143.71 774.791,-146.715"/>
</g>
<!-- root&#45;&gt;battleaxe_berzerk -->
<g id="edge36" class="edge"><title>root&#45;&gt;battleaxe_berzerk</title>
<path fill="none" stroke="#ebc72d" stroke-dasharray="1,5" d="M728.874,-192.648C719.471,-179.174 706.12,-160.044 694.706,-143.688"/>
<polygon fill="#ebc72d" stroke="#ebc72d" points="697.537,-141.629 688.944,-135.432 691.797,-145.635 697.537,-141.629"/>
</g>
<!-- med&#45;&gt;swordman_berzerk -->
<g id="edge27" class="edge"><title>med&#45;&gt;swordman_berzerk</title>
<path fill="none" stroke="#ebc72d" stroke-dasharray="1,5" d="M923.83,-394.555C936.264,-356.398 962.492,-261.411 944.893,-184 941.869,-170.698 936.108,-156.99 930.119,-145.095"/>
<polygon fill="#ebc72d" stroke="#ebc72d" points="933.076,-143.2 925.315,-135.987 926.884,-146.465 933.076,-143.2"/>
</g>
<!-- med&#45;&gt;battleaxe -->
<g id="edge26" class="edge"><title>med&#45;&gt;battleaxe</title>
<path fill="none" stroke="#ebc72d" stroke-dasharray="1,5" d="M886.54,-394.388C854.5,-376.789 804.896,-349.543 771.919,-331.43"/>
<polygon fill="#ebc72d" stroke="#ebc72d" points="773.537,-328.325 763.087,-326.579 770.167,-334.461 773.537,-328.325"/>
</g>
</g>
</svg>
