<?xml version="1.0" encoding="UTF-8" standalone="no"?>
<!DOCTYPE svg PUBLIC "-//W3C//DTD SVG 1.1//EN"
 "http://www.w3.org/Graphics/SVG/1.1/DTD/svg11.dtd">
<!-- Generated by graphviz version 2.38.0 (20140413.2041)
 -->
<!-- Title: test Pages: 1 -->
<svg width="1239pt" height="326pt"
 viewBox="0.00 0.00 1239.06 325.91" xmlns="http://www.w3.org/2000/svg" xmlns:xlink="http://www.w3.org/1999/xlink">
<g id="graph0" class="graph" transform="scale(1 1) rotate(0) translate(4 321.907)">
<title>test</title>
<polygon fill="#151515" stroke="none" points="-4,4 -4,-321.907 1235.06,-321.907 1235.06,4 -4,4"/>
<!-- cow -->
<g id="node1" class="node"><title>cow</title>
<g id="a_node1"><a xlink:href="norsemen_cow_full.html" xlink:title="Cow">
<ellipse fill="none" stroke="magenta" cx="771.113" cy="-116.61" rx="27.0966" ry="18"/>
<text text-anchor="middle" x="771.113" y="-112.91" font-family="Times,serif" font-size="14.00" fill="#ebc72d">Cow</text>
</a>
</g>
</g>
<!-- mistletoe_tree -->
<g id="node2" class="node"><title>mistletoe_tree</title>
<g id="a_node2"><a xlink:href="norsemen_mistletoe_tree_full.html" xlink:title="Mistletoe\nTree">
<polygon fill="none" stroke="red" points="145.481,-223.023 86.1127,-246.121 26.7443,-223.023 26.7997,-185.65 145.426,-185.65 145.481,-223.023"/>
<text text-anchor="middle" x="86.1127" y="-216.493" font-family="Times,serif" font-size="14.00" fill="#ebc72d">Mistletoe</text>
<text text-anchor="middle" x="86.1127" y="-201.493" font-family="Times,serif" font-size="14.00" fill="#ebc72d">Tree</text>
</a>
</g>
</g>
<!-- wild_sow -->
<g id="node21" class="node"><title>wild_sow</title>
<g id="a_node21"><a xlink:href="norsemen_wild_sow_full.html" xlink:title="Wild\nSow">
<ellipse fill="none" stroke="magenta" cx="31.1127" cy="-116.61" rx="31.2258" ry="26.7407"/>
<text text-anchor="middle" x="31.1127" y="-120.41" font-family="Times,serif" font-size="14.00" fill="#ebc72d">Wild</text>
<text text-anchor="middle" x="31.1127" y="-105.41" font-family="Times,serif" font-size="14.00" fill="#ebc72d">Sow</text>
</a>
</g>
</g>
<!-- mistletoe_tree&#45;&gt;wild_sow -->
<g id="edge24" class="edge"><title>mistletoe_tree&#45;&gt;wild_sow</title>
<path fill="none" stroke="#ebc72d" d="M70.7921,-185.486C64.3715,-174.503 56.8409,-161.621 50.0755,-150.048"/>
<polygon fill="#ebc72d" stroke="#ebc72d" points="52.9181,-147.975 44.8496,-141.109 46.8749,-151.508 52.9181,-147.975"/>
</g>
<!-- house -->
<g id="node3" class="node"><title>house</title>
<g id="a_node3"><a xlink:href="norsemen_house_full.html" xlink:title="House">
<polygon fill="none" stroke="red" points="406.057,-218.256 365.113,-230.693 324.169,-218.256 324.207,-198.131 406.019,-198.131 406.057,-218.256"/>
<text text-anchor="middle" x="365.113" y="-208.993" font-family="Times,serif" font-size="14.00" fill="#ebc72d">House</text>
</a>
</g>
</g>
<!-- axe_thrower -->
<g id="node6" class="node"><title>axe_thrower</title>
<g id="a_node6"><a xlink:href="norsemen_axe_thrower_full.html" xlink:title="Axe\nThrower">
<ellipse fill="none" stroke="magenta" cx="260.113" cy="-116.61" rx="44.5955" ry="26.7407"/>
<text text-anchor="middle" x="260.113" y="-120.41" font-family="Times,serif" font-size="14.00" fill="#ebc72d">Axe</text>
<text text-anchor="middle" x="260.113" y="-105.41" font-family="Times,serif" font-size="14.00" fill="#ebc72d">Thrower</text>
</a>
</g>
</g>
<!-- house&#45;&gt;axe_thrower -->
<g id="edge17" class="edge"><title>house&#45;&gt;axe_thrower</title>
<path fill="none" stroke="#ebc72d" stroke-dasharray="1,5" d="M349.62,-197.811C334.478,-184.244 310.98,-163.189 291.859,-146.056"/>
<polygon fill="#ebc72d" stroke="#ebc72d" points="294.022,-143.295 284.239,-139.228 289.351,-148.508 294.022,-143.295"/>
</g>
<!-- spearman -->
<g id="node10" class="node"><title>spearman</title>
<g id="a_node10"><a xlink:href="norsemen_spearman_full.html" xlink:title="Spearman">
<ellipse fill="none" stroke="magenta" cx="369.113" cy="-116.61" rx="46.2923" ry="18"/>
<text text-anchor="middle" x="369.113" y="-112.91" font-family="Times,serif" font-size="14.00" fill="#ebc72d">Spearman</text>
</a>
</g>
</g>
<!-- house&#45;&gt;spearman -->
<g id="edge19" class="edge"><title>house&#45;&gt;spearman</title>
<path fill="none" stroke="#ebc72d" d="M365.703,-197.811C366.293,-183.927 367.217,-162.202 367.954,-144.863"/>
<polygon fill="#ebc72d" stroke="#ebc72d" points="371.456,-144.883 368.384,-134.743 364.463,-144.586 371.456,-144.883"/>
</g>
<!-- cudgel_lady -->
<g id="node12" class="node"><title>cudgel_lady</title>
<g id="a_node12"><a xlink:href="norsemen_cudgel_lady_full.html" xlink:title="Cudgel\nLady">
<ellipse fill="none" stroke="magenta" cx="158.113" cy="-116.61" rx="39.6962" ry="26.7407"/>
<text text-anchor="middle" x="158.113" y="-120.41" font-family="Times,serif" font-size="14.00" fill="#ebc72d">Cudgel</text>
<text text-anchor="middle" x="158.113" y="-105.41" font-family="Times,serif" font-size="14.00" fill="#ebc72d">Lady</text>
</a>
</g>
</g>
<!-- house&#45;&gt;cudgel_lady -->
<g id="edge18" class="edge"><title>house&#45;&gt;cudgel_lady</title>
<path fill="none" stroke="#ebc72d" d="M344.635,-198.107C334.766,-191.919 322.601,-184.806 311.113,-179.48 266.355,-158.732 251.312,-163.25 206.113,-143.48 203.077,-142.152 199.974,-140.704 196.879,-139.193"/>
<polygon fill="#ebc72d" stroke="#ebc72d" points="198.195,-135.936 187.694,-134.53 195.026,-142.178 198.195,-135.936"/>
</g>
<!-- farm -->
<g id="node4" class="node"><title>farm</title>
<g id="a_node4"><a xlink:href="norsemen_farm_full.html" xlink:title="Farm">
<polygon fill="none" stroke="red" points="772.023,-218.256 735.113,-230.693 698.202,-218.256 698.237,-198.131 771.989,-198.131 772.023,-218.256"/>
<text text-anchor="middle" x="735.113" y="-208.993" font-family="Times,serif" font-size="14.00" fill="#ebc72d">Farm</text>
</a>
</g>
</g>
<!-- farm&#45;&gt;cow -->
<g id="edge15" class="edge"><title>farm&#45;&gt;cow</title>
<path fill="none" stroke="#ebc72d" d="M740.425,-197.811C745.82,-183.711 754.31,-161.523 760.994,-144.056"/>
<polygon fill="#ebc72d" stroke="#ebc72d" points="764.378,-145.004 764.683,-134.413 757.84,-142.502 764.378,-145.004"/>
</g>
<!-- flying_valkyrie -->
<g id="node5" class="node"><title>flying_valkyrie</title>
<g id="a_node5"><a xlink:href="norsemen_flying_valkyrie_full.html" xlink:title="Flying\nValkyrie">
<ellipse fill="none" stroke="magenta" cx="862.113" cy="-116.61" rx="45.011" ry="26.7407"/>
<text text-anchor="middle" x="862.113" y="-120.41" font-family="Times,serif" font-size="14.00" fill="#ebc72d">Flying</text>
<text text-anchor="middle" x="862.113" y="-105.41" font-family="Times,serif" font-size="14.00" fill="#ebc72d">Valkyrie</text>
</a>
</g>
</g>
<!-- farm&#45;&gt;flying_valkyrie -->
<g id="edge16" class="edge"><title>farm&#45;&gt;flying_valkyrie</title>
<path fill="none" stroke="#ebc72d" stroke-dasharray="1,5" d="M753.58,-198.013C772.534,-183.971 802.517,-161.76 826.17,-144.237"/>
<polygon fill="#ebc72d" stroke="#ebc72d" points="828.293,-147.02 834.244,-138.255 824.126,-141.396 828.293,-147.02"/>
</g>
<!-- archer -->
<g id="node20" class="node"><title>archer</title>
<g id="a_node20"><a xlink:href="norsemen_archer_full.html" xlink:title="Archer">
<ellipse fill="none" stroke="magenta" cx="585.113" cy="-116.61" rx="35.194" ry="18"/>
<text text-anchor="middle" x="585.113" y="-112.91" font-family="Times,serif" font-size="14.00" fill="#ebc72d">Archer</text>
</a>
</g>
</g>
<!-- farm&#45;&gt;archer -->
<g id="edge14" class="edge"><title>farm&#45;&gt;archer</title>
<path fill="none" stroke="#ebc72d" stroke-dasharray="1,5" d="M713.301,-198.013C687.381,-181.755 643.999,-154.545 614.976,-136.341"/>
<polygon fill="#ebc72d" stroke="#ebc72d" points="616.796,-133.351 606.465,-131.003 613.076,-139.281 616.796,-133.351"/>
</g>
<!-- thrall -->
<g id="node7" class="node"><title>thrall</title>
<g id="a_node7"><a xlink:href="norsemen_thrall_full.html" xlink:title="Thrall">
<ellipse fill="none" stroke="magenta" cx="606.113" cy="-299.907" rx="32.4942" ry="18"/>
<text text-anchor="middle" x="606.113" y="-296.207" font-family="Times,serif" font-size="14.00" fill="#ebc72d">Thrall</text>
</a>
</g>
</g>
<!-- thrall&#45;&gt;mistletoe_tree -->
<g id="edge34" class="edge"><title>thrall&#45;&gt;mistletoe_tree</title>
<path fill="none" stroke="#ebc72d" stroke-width="2" d="M574.246,-296.001C506.572,-289.535 343.686,-272.407 209.113,-245.907 187.522,-241.655 164.095,-235.83 143.536,-230.302"/>
<polygon fill="#ebc72d" stroke="#ebc72d" stroke-width="2" points="144.263,-226.872 133.694,-227.62 142.422,-233.626 144.263,-226.872"/>
</g>
<!-- thrall&#45;&gt;house -->
<g id="edge32" class="edge"><title>thrall&#45;&gt;house</title>
<path fill="none" stroke="#ebc72d" stroke-width="2" d="M578.201,-290.551C545.561,-280.614 490.022,-263.19 443.113,-245.907 428.068,-240.363 411.631,-233.673 397.743,-227.828"/>
<polygon fill="#ebc72d" stroke="#ebc72d" stroke-width="2" points="398.709,-224.436 388.137,-223.751 395.974,-230.88 398.709,-224.436"/>
</g>
<!-- thrall&#45;&gt;farm -->
<g id="edge31" class="edge"><title>thrall&#45;&gt;farm</title>
<path fill="none" stroke="#ebc72d" stroke-width="2" d="M626.269,-285.592C648.737,-270.751 685.118,-246.719 709.564,-230.57"/>
<polygon fill="#ebc72d" stroke="#ebc72d" stroke-width="2" points="711.568,-233.441 717.982,-225.009 707.709,-227.6 711.568,-233.441"/>
</g>
<!-- mead_bar -->
<g id="node8" class="node"><title>mead_bar</title>
<g id="a_node8"><a xlink:href="norsemen_mead_bar_full.html" xlink:title="Mead\nBar">
<polygon fill="none" stroke="red" points="302.02,-223.023 260.113,-246.121 218.206,-223.023 218.245,-185.65 301.981,-185.65 302.02,-223.023"/>
<text text-anchor="middle" x="260.113" y="-216.493" font-family="Times,serif" font-size="14.00" fill="#ebc72d">Mead</text>
<text text-anchor="middle" x="260.113" y="-201.493" font-family="Times,serif" font-size="14.00" fill="#ebc72d">Bar</text>
</a>
</g>
</g>
<!-- thrall&#45;&gt;mead_bar -->
<g id="edge33" class="edge"><title>thrall&#45;&gt;mead_bar</title>
<path fill="none" stroke="#ebc72d" stroke-width="2" d="M573.711,-296.706C518.923,-292.179 405.153,-279.285 315.113,-245.907 308.56,-243.477 301.893,-240.286 295.566,-236.857"/>
<polygon fill="#ebc72d" stroke="#ebc72d" stroke-width="2" points="297.013,-233.652 286.595,-231.723 293.536,-239.728 297.013,-233.652"/>
</g>
<!-- castle -->
<g id="node9" class="node"><title>castle</title>
<g id="a_node9"><a xlink:href="norsemen_castle_full.html" xlink:title="Castle">
<polygon fill="none" stroke="red" points="646.451,-218.256 606.113,-230.693 565.775,-218.256 565.812,-198.131 646.413,-198.131 646.451,-218.256"/>
<text text-anchor="middle" x="606.113" y="-208.993" font-family="Times,serif" font-size="14.00" fill="#ebc72d">Castle</text>
</a>
</g>
</g>
<!-- thrall&#45;&gt;castle -->
<g id="edge30" class="edge"><title>thrall&#45;&gt;castle</title>
<path fill="none" stroke="#ebc72d" stroke-width="2" d="M606.113,-271.572C606.113,-261.77 606.113,-250.725 606.113,-240.93"/>
<polygon fill="#ebc72d" stroke="#ebc72d" stroke-width="2" points="602.613,-271.662 606.113,-281.663 609.613,-271.663 602.613,-271.662"/>
<polygon fill="#ebc72d" stroke="#ebc72d" stroke-width="2" points="609.613,-240.912 606.113,-230.912 602.613,-240.912 609.613,-240.912"/>
</g>
<!-- bone_tent -->
<g id="node15" class="node"><title>bone_tent</title>
<g id="a_node15"><a xlink:href="norsemen_bone_tent_full.html" xlink:title="Bone\nTent">
<polygon fill="none" stroke="red" points="530.276,-223.023 491.113,-246.121 451.949,-223.023 451.986,-185.65 530.24,-185.65 530.276,-223.023"/>
<text text-anchor="middle" x="491.113" y="-216.493" font-family="Times,serif" font-size="14.00" fill="#ebc72d">Bone</text>
<text text-anchor="middle" x="491.113" y="-201.493" font-family="Times,serif" font-size="14.00" fill="#ebc72d">Tent</text>
</a>
</g>
</g>
<!-- thrall&#45;&gt;bone_tent -->
<g id="edge29" class="edge"><title>thrall&#45;&gt;bone_tent</title>
<path fill="none" stroke="#ebc72d" stroke-width="2" d="M587.38,-285.026C570.263,-272.342 544.566,-253.302 524.026,-238.082"/>
<polygon fill="#ebc72d" stroke="#ebc72d" stroke-width="2" points="525.984,-235.177 515.866,-232.035 521.817,-240.801 525.984,-235.177"/>
</g>
<!-- thor_totem -->
<g id="node18" class="node"><title>thor_totem</title>
<g id="a_node18"><a xlink:href="norsemen_thor_totem_full.html" xlink:title="Thor\nTotem">
<polygon fill="none" stroke="red" points="1208.26,-223.023 1162.11,-246.121 1115.96,-223.023 1116.01,-185.65 1208.22,-185.65 1208.26,-223.023"/>
<text text-anchor="middle" x="1162.11" y="-216.493" font-family="Times,serif" font-size="14.00" fill="#ebc72d">Thor</text>
<text text-anchor="middle" x="1162.11" y="-201.493" font-family="Times,serif" font-size="14.00" fill="#ebc72d">Totem</text>
</a>
</g>
</g>
<!-- thrall&#45;&gt;thor_totem -->
<g id="edge35" class="edge"><title>thrall&#45;&gt;thor_totem</title>
<path fill="none" stroke="#ebc72d" stroke-width="2" d="M638.313,-296.927C712.117,-291.99 898.938,-277.209 1052.11,-245.907 1072.53,-241.734 1094.66,-235.583 1113.67,-229.771"/>
<polygon fill="#ebc72d" stroke="#ebc72d" stroke-width="2" points="1114.8,-233.087 1123.31,-226.775 1112.72,-226.402 1114.8,-233.087"/>
</g>
<!-- blacksmith -->
<g id="node19" class="node"><title>blacksmith</title>
<g id="a_node19"><a xlink:href="norsemen_blacksmith_full.html" xlink:title="Blacksmith">
<polygon fill="none" stroke="red" points="1043.55,-218.256 980.113,-230.693 916.68,-218.256 916.739,-198.131 1043.49,-198.131 1043.55,-218.256"/>
<text text-anchor="middle" x="980.113" y="-208.993" font-family="Times,serif" font-size="14.00" fill="#ebc72d">Blacksmith</text>
</a>
</g>
</g>
<!-- thrall&#45;&gt;blacksmith -->
<g id="edge28" class="edge"><title>thrall&#45;&gt;blacksmith</title>
<path fill="none" stroke="#ebc72d" stroke-width="2" d="M638.018,-295.925C693.78,-290.138 812.17,-275.292 908.113,-245.907 921.234,-241.888 935.115,-236.079 947.151,-230.498"/>
<polygon fill="#ebc72d" stroke="#ebc72d" stroke-width="2" points="948.837,-233.571 956.358,-226.109 945.825,-227.253 948.837,-233.571"/>
</g>
<!-- valhalla -->
<g id="node24" class="node"><title>valhalla</title>
<g id="a_node24"><a xlink:href="norsemen_valhalla_full.html" xlink:title="Valhalla">
<polygon fill="none" stroke="red" points="898.732,-218.256 849.113,-230.693 799.494,-218.256 799.54,-198.131 898.685,-198.131 898.732,-218.256"/>
<text text-anchor="middle" x="849.113" y="-208.993" font-family="Times,serif" font-size="14.00" fill="#ebc72d">Valhalla</text>
</a>
</g>
</g>
<!-- thrall&#45;&gt;valhalla -->
<g id="edge36" class="edge"><title>thrall&#45;&gt;valhalla</title>
<path fill="none" stroke="#ebc72d" stroke-width="2" d="M635.046,-291.559C670.114,-282.331 730.764,-265.333 781.113,-245.907 793.3,-241.204 806.342,-235.26 817.711,-229.762"/>
<polygon fill="#ebc72d" stroke="#ebc72d" stroke-width="2" points="819.384,-232.84 826.813,-225.286 816.295,-226.559 819.384,-232.84"/>
</g>
<!-- mead_bar&#45;&gt;axe_thrower -->
<g id="edge20" class="edge"><title>mead_bar&#45;&gt;axe_thrower</title>
<path fill="none" stroke="#ebc72d" stroke-dasharray="1,5" d="M260.113,-185.486C260.113,-175.699 260.113,-164.404 260.113,-153.872"/>
<polygon fill="#ebc72d" stroke="#ebc72d" points="263.613,-153.677 260.113,-143.677 256.613,-153.677 263.613,-153.677"/>
</g>
<!-- mead_bar&#45;&gt;spearman -->
<g id="edge22" class="edge"><title>mead_bar&#45;&gt;spearman</title>
<path fill="none" stroke="#ebc72d" d="M290.475,-185.486C306.997,-171.225 327.228,-153.763 343.032,-140.122"/>
<polygon fill="#ebc72d" stroke="#ebc72d" points="345.566,-142.558 350.849,-133.374 340.992,-137.259 345.566,-142.558"/>
</g>
<!-- mead_bar&#45;&gt;cudgel_lady -->
<g id="edge21" class="edge"><title>mead_bar&#45;&gt;cudgel_lady</title>
<path fill="none" stroke="#ebc72d" d="M231.7,-185.486C218.172,-173.008 201.986,-158.078 188.243,-145.402"/>
<polygon fill="#ebc72d" stroke="#ebc72d" points="190.616,-142.829 180.892,-138.622 185.87,-147.975 190.616,-142.829"/>
</g>
<!-- swordman_berserk -->
<g id="node25" class="node"><title>swordman_berserk</title>
<g id="a_node25"><a xlink:href="norsemen_swordman_berserk_full.html" xlink:title="Swordman\nBerserk">
<ellipse fill="none" stroke="magenta" cx="487.113" cy="-26.8701" rx="53.9813" ry="26.7407"/>
<text text-anchor="middle" x="487.113" y="-30.6701" font-family="Times,serif" font-size="14.00" fill="#ebc72d">Swordman</text>
<text text-anchor="middle" x="487.113" y="-15.6701" font-family="Times,serif" font-size="14.00" fill="#ebc72d">Berserk</text>
</a>
</g>
</g>
<!-- mead_bar&#45;&gt;swordman_berserk -->
<g id="edge23" class="edge"><title>mead_bar&#45;&gt;swordman_berserk</title>
<path fill="none" stroke="#ebc72d" stroke-dasharray="1,5" d="M217.977,-198.395C177.808,-184.763 121.633,-162.875 109.113,-143.48 96.1586,-123.414 93.2115,-107.562 109.113,-89.7401 156.019,-37.168 355.877,-71.2883 424.113,-53.7401 428.997,-52.4839 434.003,-50.9281 438.955,-49.2074"/>
<polygon fill="#ebc72d" stroke="#ebc72d" points="440.196,-52.4801 448.362,-45.7305 437.769,-45.9142 440.196,-52.4801"/>
</g>
<!-- spearman_berserk -->
<g id="node23" class="node"><title>spearman_berserk</title>
<g id="a_node23"><a xlink:href="norsemen_spearman_berserk_full.html" xlink:title="Spearman\nBerserk">
<ellipse fill="none" stroke="magenta" cx="365.113" cy="-26.8701" rx="50.41" ry="26.7407"/>
<text text-anchor="middle" x="365.113" y="-30.6701" font-family="Times,serif" font-size="14.00" fill="#ebc72d">Spearman</text>
<text text-anchor="middle" x="365.113" y="-15.6701" font-family="Times,serif" font-size="14.00" fill="#ebc72d">Berserk</text>
</a>
</g>
</g>
<!-- spearman&#45;&gt;spearman_berserk -->
<g id="edge25" class="edge"><title>spearman&#45;&gt;spearman_berserk</title>
<path fill="none" stroke="#ebc72d" stroke-dasharray="5,2" d="M368.322,-98.2755C367.875,-88.4643 367.299,-75.8168 366.758,-63.9541"/>
<polygon fill="#ebc72d" stroke="#ebc72d" points="370.248,-63.6524 366.296,-53.8222 363.255,-63.9713 370.248,-63.6524"/>
</g>
<!-- crossbow -->
<g id="node11" class="node"><title>crossbow</title>
<g id="a_node11"><a xlink:href="norsemen_crossbow_full.html" xlink:title="Crossbow">
<ellipse fill="none" stroke="magenta" cx="1111.11" cy="-116.61" rx="46.2923" ry="18"/>
<text text-anchor="middle" x="1111.11" y="-112.91" font-family="Times,serif" font-size="14.00" fill="#ebc72d">Crossbow</text>
</a>
</g>
</g>
<!-- battleaxe_berserk -->
<g id="node13" class="node"><title>battleaxe_berserk</title>
<g id="a_node13"><a xlink:href="norsemen_battleaxe_berserk_full.html" xlink:title="Battleaxe\nBerserk">
<ellipse fill="none" stroke="magenta" cx="682.113" cy="-26.8701" rx="48.1667" ry="26.7407"/>
<text text-anchor="middle" x="682.113" y="-30.6701" font-family="Times,serif" font-size="14.00" fill="#ebc72d">Battleaxe</text>
<text text-anchor="middle" x="682.113" y="-15.6701" font-family="Times,serif" font-size="14.00" fill="#ebc72d">Berserk</text>
</a>
</g>
</g>
<!-- thor -->
<g id="node14" class="node"><title>thor</title>
<g id="a_node14"><a xlink:href="norsemen_thor_full.html" xlink:title="Thor">
<ellipse fill="none" stroke="magenta" cx="1203.11" cy="-116.61" rx="27.8951" ry="18"/>
<text text-anchor="middle" x="1203.11" y="-112.91" font-family="Times,serif" font-size="14.00" fill="#ebc72d">Thor</text>
</a>
</g>
</g>
<!-- bone_tent&#45;&gt;axe_thrower -->
<g id="edge9" class="edge"><title>bone_tent&#45;&gt;axe_thrower</title>
<path fill="none" stroke="#ebc72d" d="M451.847,-194.533C440.091,-189.536 427.13,-184.164 415.113,-179.48 370.711,-162.174 358.106,-161.8 314.113,-143.48 310.492,-141.972 306.765,-140.347 303.042,-138.671"/>
<polygon fill="#ebc72d" stroke="#ebc72d" points="304.406,-135.446 293.859,-134.441 301.477,-141.804 304.406,-135.446"/>
</g>
<!-- bone_tent&#45;&gt;spearman -->
<g id="edge11" class="edge"><title>bone_tent&#45;&gt;spearman</title>
<path fill="none" stroke="#ebc72d" stroke-dasharray="1,5" d="M457.129,-185.486C438.346,-171.001 415.28,-153.213 397.474,-139.481"/>
<polygon fill="#ebc72d" stroke="#ebc72d" points="399.253,-136.434 389.197,-133.098 394.978,-141.977 399.253,-136.434"/>
</g>
<!-- battleaxe -->
<g id="node17" class="node"><title>battleaxe</title>
<g id="a_node17"><a xlink:href="norsemen_battleaxe_full.html" xlink:title="Battleaxe">
<ellipse fill="none" stroke="magenta" cx="682.113" cy="-116.61" rx="44.393" ry="18"/>
<text text-anchor="middle" x="682.113" y="-112.91" font-family="Times,serif" font-size="14.00" fill="#ebc72d">Battleaxe</text>
</a>
</g>
</g>
<!-- bone_tent&#45;&gt;battleaxe -->
<g id="edge10" class="edge"><title>bone_tent&#45;&gt;battleaxe</title>
<path fill="none" stroke="#ebc72d" d="M530.688,-192.199C564.501,-175.544 612.756,-151.774 645.644,-135.574"/>
<polygon fill="#ebc72d" stroke="#ebc72d" points="647.481,-138.571 654.906,-131.012 644.388,-132.291 647.481,-138.571"/>
</g>
<!-- bone_tent&#45;&gt;archer -->
<g id="edge8" class="edge"><title>bone_tent&#45;&gt;archer</title>
<path fill="none" stroke="#ebc72d" d="M517.297,-185.486C531.506,-171.264 548.896,-153.859 562.509,-140.234"/>
<polygon fill="#ebc72d" stroke="#ebc72d" points="565.046,-142.646 569.638,-133.098 560.094,-137.699 565.046,-142.646"/>
</g>
<!-- swordman -->
<g id="node22" class="node"><title>swordman</title>
<g id="a_node22"><a xlink:href="norsemen_swordman_full.html" xlink:title="Swordman">
<ellipse fill="none" stroke="magenta" cx="483.113" cy="-116.61" rx="49.2915" ry="18"/>
<text text-anchor="middle" x="483.113" y="-112.91" font-family="Times,serif" font-size="14.00" fill="#ebc72d">Swordman</text>
</a>
</g>
</g>
<!-- bone_tent&#45;&gt;swordman -->
<g id="edge12" class="edge"><title>bone_tent&#45;&gt;swordman</title>
<path fill="none" stroke="#ebc72d" d="M488.884,-185.486C487.808,-172.828 486.517,-157.647 485.429,-144.855"/>
<polygon fill="#ebc72d" stroke="#ebc72d" points="488.907,-144.447 484.573,-134.779 481.933,-145.04 488.907,-144.447"/>
</g>
<!-- valkyrie -->
<g id="node16" class="node"><title>valkyrie</title>
<g id="a_node16"><a xlink:href="norsemen_valkyrie_full.html" xlink:title="Valkyrie">
<ellipse fill="none" stroke="magenta" cx="967.113" cy="-116.61" rx="41.6928" ry="18"/>
<text text-anchor="middle" x="967.113" y="-112.91" font-family="Times,serif" font-size="14.00" fill="#ebc72d">Valkyrie</text>
</a>
</g>
</g>
<!-- battleaxe&#45;&gt;battleaxe_berserk -->
<g id="edge1" class="edge"><title>battleaxe&#45;&gt;battleaxe_berserk</title>
<path fill="none" stroke="#ebc72d" stroke-dasharray="5,2" d="M682.113,-98.2755C682.113,-88.4643 682.113,-75.8168 682.113,-63.9541"/>
<polygon fill="#ebc72d" stroke="#ebc72d" points="685.613,-63.8222 682.113,-53.8222 678.613,-63.8222 685.613,-63.8222"/>
</g>
<!-- thor_totem&#45;&gt;thor -->
<g id="edge27" class="edge"><title>thor_totem&#45;&gt;thor</title>
<path fill="none" stroke="#ebc72d" stroke-dasharray="5,2" d="M1173.53,-185.486C1179.24,-172.401 1186.11,-156.621 1191.8,-143.57"/>
<polygon fill="#ebc72d" stroke="#ebc72d" points="1195.09,-144.778 1195.88,-134.212 1188.67,-141.981 1195.09,-144.778"/>
</g>
<!-- blacksmith&#45;&gt;flying_valkyrie -->
<g id="edge4" class="edge"><title>blacksmith&#45;&gt;flying_valkyrie</title>
<path fill="none" stroke="#ebc72d" stroke-dasharray="1,5" d="M962.954,-198.013C945.611,-184.184 918.328,-162.432 896.512,-145.037"/>
<polygon fill="#ebc72d" stroke="#ebc72d" points="898.452,-142.107 888.451,-138.61 894.088,-147.581 898.452,-142.107"/>
</g>
<!-- blacksmith&#45;&gt;crossbow -->
<g id="edge3" class="edge"><title>blacksmith&#45;&gt;crossbow</title>
<path fill="none" stroke="#ebc72d" d="M999.161,-198.013C1020.84,-182.445 1056.5,-156.834 1081.74,-138.704"/>
<polygon fill="#ebc72d" stroke="#ebc72d" points="1083.79,-141.545 1089.87,-132.868 1079.7,-135.859 1083.79,-141.545"/>
</g>
<!-- blacksmith&#45;&gt;thor -->
<g id="edge6" class="edge"><title>blacksmith&#45;&gt;thor</title>
<path fill="none" stroke="#ebc72d" stroke-dasharray="1,5" d="M1027.4,-198.087C1065.87,-186.145 1120.98,-167.025 1166.11,-143.48 1169.94,-141.482 1173.84,-139.144 1177.6,-136.707"/>
<polygon fill="#ebc72d" stroke="#ebc72d" points="1179.73,-139.485 1186.01,-130.949 1175.78,-133.708 1179.73,-139.485"/>
</g>
<!-- blacksmith&#45;&gt;valkyrie -->
<g id="edge7" class="edge"><title>blacksmith&#45;&gt;valkyrie</title>
<path fill="none" stroke="#ebc72d" stroke-dasharray="1,5" d="M978.195,-197.811C976.276,-183.927 973.274,-162.202 970.878,-144.863"/>
<polygon fill="#ebc72d" stroke="#ebc72d" points="974.316,-144.17 969.48,-134.743 967.382,-145.128 974.316,-144.17"/>
</g>
<!-- blacksmith&#45;&gt;battleaxe -->
<g id="edge2" class="edge"><title>blacksmith&#45;&gt;battleaxe</title>
<path fill="none" stroke="#ebc72d" stroke-dasharray="1,5" d="M953.305,-198.04C939.985,-191.687 923.487,-184.455 908.113,-179.48 833.391,-155.303 809.42,-168.902 735.113,-143.48 729.009,-141.392 722.7,-138.765 716.656,-135.991"/>
<polygon fill="#ebc72d" stroke="#ebc72d" points="717.974,-132.741 707.444,-131.566 714.943,-139.051 717.974,-132.741"/>
</g>
<!-- blacksmith&#45;&gt;swordman_berserk -->
<g id="edge5" class="edge"><title>blacksmith&#45;&gt;swordman_berserk</title>
<path fill="none" stroke="#ebc72d" stroke-dasharray="1,5" d="M992.051,-197.761C1011.83,-172.965 1046.52,-120.864 1018.11,-89.7401 988.554,-57.3505 668.543,-59.7865 625.113,-53.7401 599.013,-50.1065 570.347,-44.9284 545.937,-40.1583"/>
<polygon fill="#ebc72d" stroke="#ebc72d" points="546.597,-36.721 536.108,-38.215 545.239,-43.5881 546.597,-36.721"/>
</g>
<!-- swordman&#45;&gt;swordman_berserk -->
<g id="edge26" class="edge"><title>swordman&#45;&gt;swordman_berserk</title>
<path fill="none" stroke="#ebc72d" stroke-dasharray="5,2" d="M483.903,-98.2755C484.35,-88.4643 484.927,-75.8168 485.468,-63.9541"/>
<polygon fill="#ebc72d" stroke="#ebc72d" points="488.97,-63.9713 485.93,-53.8222 481.978,-63.6524 488.97,-63.9713"/>
</g>
<!-- valhalla&#45;&gt;flying_valkyrie -->
<g id="edge37" class="edge"><title>valhalla&#45;&gt;flying_valkyrie</title>
<path fill="none" stroke="#ebc72d" d="M851.031,-197.811C852.626,-186.266 854.971,-169.298 857.093,-153.939"/>
<polygon fill="#ebc72d" stroke="#ebc72d" points="860.613,-154.035 858.515,-143.65 853.679,-153.077 860.613,-154.035"/>
</g>
<!-- valhalla&#45;&gt;valkyrie -->
<g id="edge38" class="edge"><title>valhalla&#45;&gt;valkyrie</title>
<path fill="none" stroke="#ebc72d" d="M866.271,-198.013C885.627,-182.58 917.361,-157.278 940.061,-139.179"/>
<polygon fill="#ebc72d" stroke="#ebc72d" points="942.339,-141.839 947.976,-132.868 937.975,-136.366 942.339,-141.839"/>
</g>
</g>
</svg>
