<?xml version="1.0" encoding="UTF-8" standalone="no"?>
<!DOCTYPE svg PUBLIC "-//W3C//DTD SVG 1.1//EN"
 "http://www.w3.org/Graphics/SVG/1.1/DTD/svg11.dtd">
<!-- Generated by graphviz version 2.38.0 (20140413.2041)
 -->
<!-- Title: test Pages: 1 -->
<svg width="315pt" height="526pt"
 viewBox="0.00 0.00 315.28 525.71" xmlns="http://www.w3.org/2000/svg" xmlns:xlink="http://www.w3.org/1999/xlink">
<g id="graph0" class="graph" transform="scale(1 1) rotate(0) translate(4 521.706)">
<title>test</title>
<polygon fill="#151515" stroke="none" points="-4,4 -4,-521.706 311.277,-521.706 311.277,4 -4,4"/>
<!-- mistletoe_tree -->
<g id="node1" class="node"><title>mistletoe_tree</title>
<g id="a_node1"><a xlink:href="norsemen_mistletoe_tree_full.html" xlink:title="Mistletoe\nTree">
<polygon fill="none" stroke="red" points="165.322,-115.543 105.954,-138.641 46.5851,-115.543 46.6405,-78.1695 165.267,-78.1695 165.322,-115.543"/>
<text text-anchor="middle" x="105.954" y="-109.013" font-family="Times,serif" font-size="14.00" fill="#ebc72d">Mistletoe</text>
<text text-anchor="middle" x="105.954" y="-94.0132" font-family="Times,serif" font-size="14.00" fill="#ebc72d">Tree</text>
</a>
</g>
</g>
<!-- valhalla -->
<g id="node9" class="node"><title>valhalla</title>
<g id="a_node9"><a xlink:href="norsemen_valhalla_full.html" xlink:title="Valhalla">
<polygon fill="none" stroke="red" points="155.573,-23.5623 105.954,-36 56.3346,-23.5623 56.3809,-3.43769 155.526,-3.43769 155.573,-23.5623"/>
<text text-anchor="middle" x="105.954" y="-14.3" font-family="Times,serif" font-size="14.00" fill="#ebc72d">Valhalla</text>
</a>
</g>
</g>
<!-- mistletoe_tree&#45;&gt;valhalla -->
<g id="edge11" class="edge"><title>mistletoe_tree&#45;&gt;valhalla</title>
<path fill="none" stroke="#ebc72d" stroke-dasharray="1,5" d="M105.954,-77.7183C105.954,-67.744 105.954,-56.388 105.954,-46.3382"/>
<polygon fill="#ebc72d" stroke="#ebc72d" points="109.454,-46.0729 105.954,-36.0729 102.454,-46.0729 109.454,-46.0729"/>
</g>
<!-- house -->
<g id="node2" class="node"><title>house</title>
<g id="a_node2"><a xlink:href="norsemen_house_full.html" xlink:title="House">
<polygon fill="none" stroke="red" points="149.898,-402.842 108.954,-415.279 68.0095,-402.842 68.0477,-382.717 149.859,-382.717 149.898,-402.842"/>
<text text-anchor="middle" x="108.954" y="-393.579" font-family="Times,serif" font-size="14.00" fill="#ebc72d">House</text>
</a>
</g>
</g>
<!-- mead_bar -->
<g id="node4" class="node"><title>mead_bar</title>
<g id="a_node4"><a xlink:href="norsemen_mead_bar_full.html" xlink:title="Mead\nBar">
<polygon fill="none" stroke="red" points="83.8607,-217.969 41.9535,-241.067 0.0464103,-217.969 0.0855256,-180.596 83.8216,-180.596 83.8607,-217.969"/>
<text text-anchor="middle" x="41.9535" y="-211.44" font-family="Times,serif" font-size="14.00" fill="#ebc72d">Mead</text>
<text text-anchor="middle" x="41.9535" y="-196.44" font-family="Times,serif" font-size="14.00" fill="#ebc72d">Bar</text>
</a>
</g>
</g>
<!-- house&#45;&gt;mead_bar -->
<g id="edge8" class="edge"><title>house&#45;&gt;mead_bar</title>
<path fill="none" stroke="#ebc72d" stroke-dasharray="1,5" d="M91.9214,-382.339C81.2144,-372.571 68.1151,-358.568 60.9535,-343.279 47.4127,-314.372 42.8757,-278.436 41.6085,-250.964"/>
<polygon fill="#ebc72d" stroke="#ebc72d" points="45.1037,-250.758 41.2711,-240.881 38.1077,-250.993 45.1037,-250.758"/>
</g>
<!-- bone_tent -->
<g id="node6" class="node"><title>bone_tent</title>
<g id="a_node6"><a xlink:href="norsemen_bone_tent_full.html" xlink:title="Bone\nTent">
<polygon fill="none" stroke="red" points="148.117,-320.396 108.954,-343.494 69.7899,-320.396 69.8265,-283.022 148.081,-283.022 148.117,-320.396"/>
<text text-anchor="middle" x="108.954" y="-313.866" font-family="Times,serif" font-size="14.00" fill="#ebc72d">Bone</text>
<text text-anchor="middle" x="108.954" y="-298.866" font-family="Times,serif" font-size="14.00" fill="#ebc72d">Tent</text>
</a>
</g>
</g>
<!-- house&#45;&gt;bone_tent -->
<g id="edge7" class="edge"><title>house&#45;&gt;bone_tent</title>
<path fill="none" stroke="#ebc72d" stroke-dasharray="1,5" d="M108.954,-382.588C108.954,-374.602 108.954,-364.05 108.954,-353.511"/>
<polygon fill="#ebc72d" stroke="#ebc72d" points="112.454,-353.494 108.954,-343.494 105.454,-353.494 112.454,-353.494"/>
</g>
<!-- blacksmith -->
<g id="node8" class="node"><title>blacksmith</title>
<g id="a_node8"><a xlink:href="norsemen_blacksmith_full.html" xlink:title="Blacksmith">
<polygon fill="none" stroke="red" points="233.386,-213.202 169.954,-225.64 106.521,-213.202 106.58,-193.077 233.327,-193.077 233.386,-213.202"/>
<text text-anchor="middle" x="169.954" y="-203.94" font-family="Times,serif" font-size="14.00" fill="#ebc72d">Blacksmith</text>
</a>
</g>
</g>
<!-- house&#45;&gt;blacksmith -->
<g id="edge6" class="edge"><title>house&#45;&gt;blacksmith</title>
<path fill="none" stroke="#ebc72d" stroke-dasharray="1,5" d="M126.208,-382.44C137.009,-372.715 150.13,-358.722 156.954,-343.279 172.288,-308.578 173.446,-264.054 172.212,-235.925"/>
<polygon fill="#ebc72d" stroke="#ebc72d" points="175.69,-235.434 171.622,-225.651 168.702,-235.835 175.69,-235.434"/>
</g>
<!-- farm -->
<g id="node3" class="node"><title>farm</title>
<g id="a_node3"><a xlink:href="norsemen_farm_full.html" xlink:title="Farm">
<polygon fill="none" stroke="red" points="241.864,-402.842 204.954,-415.279 168.043,-402.842 168.078,-382.717 241.829,-382.717 241.864,-402.842"/>
<text text-anchor="middle" x="204.954" y="-393.579" font-family="Times,serif" font-size="14.00" fill="#ebc72d">Farm</text>
</a>
</g>
</g>
<!-- mead_bar&#45;&gt;mistletoe_tree -->
<g id="edge9" class="edge"><title>mead_bar&#45;&gt;mistletoe_tree</title>
<path fill="none" stroke="#ebc72d" stroke-dasharray="1,5" d="M58.6017,-180.516C66.3054,-168.428 75.5647,-153.898 83.8444,-140.906"/>
<polygon fill="#ebc72d" stroke="#ebc72d" points="86.966,-142.52 89.3887,-132.206 81.0628,-138.758 86.966,-142.52"/>
</g>
<!-- mead_bar&#45;&gt;valhalla -->
<g id="edge10" class="edge"><title>mead_bar&#45;&gt;valhalla</title>
<path fill="none" stroke="#ebc72d" stroke-dasharray="1,5" d="M34.3151,-180.582C27.5359,-152.303 21.0698,-106.566 37.9535,-72 45.498,-56.5544 59.9584,-44.3007 73.6113,-35.4834"/>
<polygon fill="#ebc72d" stroke="#ebc72d" points="75.6337,-38.3509 82.3858,-30.1864 72.016,-32.3582 75.6337,-38.3509"/>
</g>
<!-- castle -->
<g id="node5" class="node"><title>castle</title>
<g id="a_node5"><a xlink:href="norsemen_castle_full.html" xlink:title="Castle">
<polygon fill="none" stroke="red" points="197.292,-490.055 156.954,-502.493 116.616,-490.055 116.653,-469.93 197.254,-469.93 197.292,-490.055"/>
<text text-anchor="middle" x="156.954" y="-480.793" font-family="Times,serif" font-size="14.00" fill="#ebc72d">Castle</text>
</a>
</g>
</g>
<!-- castle&#45;&gt;house -->
<g id="edge5" class="edge"><title>castle&#45;&gt;house</title>
<path fill="none" stroke="#ebc72d" stroke-dasharray="1,5" d="M149.242,-469.802C141.999,-456.945 131.01,-437.436 122.338,-422.04"/>
<polygon fill="#ebc72d" stroke="#ebc72d" points="125.249,-420.076 117.291,-413.081 119.15,-423.512 125.249,-420.076"/>
</g>
<!-- castle&#45;&gt;farm -->
<g id="edge4" class="edge"><title>castle&#45;&gt;farm</title>
<path fill="none" stroke="#ebc72d" stroke-dasharray="1,5" d="M164.666,-469.802C171.952,-456.867 183.03,-437.2 191.727,-421.761"/>
<polygon fill="#ebc72d" stroke="#ebc72d" points="194.92,-423.222 196.779,-412.792 188.821,-419.787 194.92,-423.222"/>
</g>
<!-- bone_tent&#45;&gt;blacksmith -->
<g id="edge3" class="edge"><title>bone_tent&#45;&gt;blacksmith</title>
<path fill="none" stroke="#ebc72d" stroke-dasharray="1,5" d="M124.821,-282.942C134.235,-267.445 146.085,-247.936 155.28,-232.797"/>
<polygon fill="#ebc72d" stroke="#ebc72d" points="158.417,-234.375 160.617,-224.011 152.434,-230.741 158.417,-234.375"/>
</g>
<!-- thor_totem -->
<g id="node7" class="node"><title>thor_totem</title>
<g id="a_node7"><a xlink:href="norsemen_thor_totem_full.html" xlink:title="Thor\nTotem">
<polygon fill="none" stroke="red" points="307.102,-494.822 260.954,-517.92 214.805,-494.822 214.849,-457.449 307.059,-457.449 307.102,-494.822"/>
<text text-anchor="middle" x="260.954" y="-488.293" font-family="Times,serif" font-size="14.00" fill="#ebc72d">Thor</text>
<text text-anchor="middle" x="260.954" y="-473.293" font-family="Times,serif" font-size="14.00" fill="#ebc72d">Totem</text>
</a>
</g>
</g>
<!-- blacksmith&#45;&gt;mistletoe_tree -->
<g id="edge1" class="edge"><title>blacksmith&#45;&gt;mistletoe_tree</title>
<path fill="none" stroke="#ebc72d" stroke-dasharray="1,5" d="M161.055,-192.676C152.554,-179.337 139.396,-158.69 128.07,-140.917"/>
<polygon fill="#ebc72d" stroke="#ebc72d" points="131.011,-139.02 122.685,-132.468 125.108,-142.782 131.011,-139.02"/>
</g>
<!-- blacksmith&#45;&gt;valhalla -->
<g id="edge2" class="edge"><title>blacksmith&#45;&gt;valhalla</title>
<path fill="none" stroke="#ebc72d" stroke-dasharray="1,5" d="M174.388,-192.77C181.682,-167.328 193.557,-112.134 173.954,-72 166.409,-56.5544 151.949,-44.3007 138.296,-35.4834"/>
<polygon fill="#ebc72d" stroke="#ebc72d" points="139.891,-32.3582 129.521,-30.1864 136.273,-38.3509 139.891,-32.3582"/>
</g>
</g>
</svg>
