<?xml version="1.0" encoding="UTF-8" standalone="no"?>
<!DOCTYPE svg PUBLIC "-//W3C//DTD SVG 1.1//EN"
 "http://www.w3.org/Graphics/SVG/1.1/DTD/svg11.dtd">
<!-- Generated by graphviz version 2.38.0 (20140413.2041)
 -->
<!-- Title: test Pages: 1 -->
<svg width="270pt" height="465pt"
 viewBox="0.00 0.00 270.40 464.85" xmlns="http://www.w3.org/2000/svg" xmlns:xlink="http://www.w3.org/1999/xlink">
<g id="graph0" class="graph" transform="scale(1 1) rotate(0) translate(4 460.853)">
<title>test</title>
<polygon fill="#151515" stroke="none" points="-4,4 -4,-460.853 266.405,-460.853 266.405,4 -4,4"/>
<!-- thortotem -->
<g id="node1" class="node"><title>thortotem</title>
<g id="a_node1"><a xlink:href="norsemen_thortotem_full.html" xlink:title="Thortotem">
<polygon fill="none" stroke="red" points="118.849,-444.415 59.4496,-456.853 0.0503626,-444.415 0.105805,-424.291 118.793,-424.291 118.849,-444.415"/>
<text text-anchor="middle" x="59.4496" y="-435.153" font-family="Times,serif" font-size="14.00" fill="#ebc72d">Thortotem</text>
</a>
</g>
</g>
<!-- house -->
<g id="node2" class="node"><title>house</title>
<g id="a_node2"><a xlink:href="norsemen_house_full.html" xlink:title="House">
<polygon fill="none" stroke="red" points="170.394,-372.415 129.45,-384.853 88.5055,-372.415 88.5438,-352.291 170.355,-352.291 170.394,-372.415"/>
<text text-anchor="middle" x="129.45" y="-363.153" font-family="Times,serif" font-size="14.00" fill="#ebc72d">House</text>
</a>
</g>
</g>
<!-- med_bar -->
<g id="node4" class="node"><title>med_bar</title>
<g id="a_node4"><a xlink:href="norsemen_med_bar_full.html" xlink:title="Med\nBar">
<polygon fill="none" stroke="red" points="99.3695,-187.543 62.4496,-210.641 25.5297,-187.543 25.5642,-150.17 99.335,-150.17 99.3695,-187.543"/>
<text text-anchor="middle" x="62.4496" y="-181.013" font-family="Times,serif" font-size="14.00" fill="#ebc72d">Med</text>
<text text-anchor="middle" x="62.4496" y="-166.013" font-family="Times,serif" font-size="14.00" fill="#ebc72d">Bar</text>
</a>
</g>
</g>
<!-- house&#45;&gt;med_bar -->
<g id="edge8" class="edge"><title>house&#45;&gt;med_bar</title>
<path fill="none" stroke="#ebc72d" stroke-dasharray="1,5" d="M112.417,-351.912C101.71,-342.144 88.6112,-328.142 81.4496,-312.853 67.9088,-283.945 63.3717,-248.01 62.1046,-220.537"/>
<polygon fill="#ebc72d" stroke="#ebc72d" points="65.5998,-220.332 61.7671,-210.455 58.6037,-220.566 65.5998,-220.332"/>
</g>
<!-- bone_tent -->
<g id="node6" class="node"><title>bone_tent</title>
<g id="a_node6"><a xlink:href="norsemen_bone_tent_full.html" xlink:title="Bone\nTent">
<polygon fill="none" stroke="red" points="168.613,-289.969 129.45,-313.067 90.286,-289.969 90.3225,-252.596 168.577,-252.596 168.613,-289.969"/>
<text text-anchor="middle" x="129.45" y="-283.44" font-family="Times,serif" font-size="14.00" fill="#ebc72d">Bone</text>
<text text-anchor="middle" x="129.45" y="-268.44" font-family="Times,serif" font-size="14.00" fill="#ebc72d">Tent</text>
</a>
</g>
</g>
<!-- house&#45;&gt;bone_tent -->
<g id="edge7" class="edge"><title>house&#45;&gt;bone_tent</title>
<path fill="none" stroke="#ebc72d" stroke-dasharray="1,5" d="M129.45,-352.162C129.45,-344.176 129.45,-333.623 129.45,-323.084"/>
<polygon fill="#ebc72d" stroke="#ebc72d" points="132.95,-323.068 129.45,-313.068 125.95,-323.068 132.95,-323.068"/>
</g>
<!-- blacksmith -->
<g id="node8" class="node"><title>blacksmith</title>
<g id="a_node8"><a xlink:href="norsemen_blacksmith_full.html" xlink:title="Blacksmith">
<polygon fill="none" stroke="red" points="251.883,-182.776 188.45,-195.213 125.017,-182.776 125.076,-162.651 251.823,-162.651 251.883,-182.776"/>
<text text-anchor="middle" x="188.45" y="-173.513" font-family="Times,serif" font-size="14.00" fill="#ebc72d">Blacksmith</text>
</a>
</g>
</g>
<!-- house&#45;&gt;blacksmith -->
<g id="edge6" class="edge"><title>house&#45;&gt;blacksmith</title>
<path fill="none" stroke="#ebc72d" stroke-dasharray="1,5" d="M146.779,-352.046C157.612,-342.335 170.74,-328.345 177.45,-312.853 192.508,-278.085 192.941,-233.578 191.212,-205.471"/>
<polygon fill="#ebc72d" stroke="#ebc72d" points="194.68,-204.915 190.437,-195.206 187.699,-205.441 194.68,-204.915"/>
</g>
<!-- farm -->
<g id="node3" class="node"><title>farm</title>
<g id="a_node3"><a xlink:href="norsemen_farm_full.html" xlink:title="Farm">
<polygon fill="none" stroke="red" points="262.36,-372.415 225.45,-384.853 188.539,-372.415 188.574,-352.291 262.326,-352.291 262.36,-372.415"/>
<text text-anchor="middle" x="225.45" y="-363.153" font-family="Times,serif" font-size="14.00" fill="#ebc72d">Farm</text>
</a>
</g>
</g>
<!-- mistletree -->
<g id="node7" class="node"><title>mistletree</title>
<g id="a_node7"><a xlink:href="norsemen_mistletree_full.html" xlink:title="Mistletree">
<polygon fill="none" stroke="red" points="183.136,-95.5623 125.45,-108 67.7635,-95.5623 67.8173,-75.4377 183.082,-75.4377 183.136,-95.5623"/>
<text text-anchor="middle" x="125.45" y="-86.3" font-family="Times,serif" font-size="14.00" fill="#ebc72d">Mistletree</text>
</a>
</g>
</g>
<!-- med_bar&#45;&gt;mistletree -->
<g id="edge9" class="edge"><title>med_bar&#45;&gt;mistletree</title>
<path fill="none" stroke="#ebc72d" stroke-dasharray="1,5" d="M82.0378,-149.718C90.4743,-138.307 100.248,-125.088 108.382,-114.085"/>
<polygon fill="#ebc72d" stroke="#ebc72d" points="111.368,-115.934 114.498,-105.813 105.739,-111.773 111.368,-115.934"/>
</g>
<!-- valhalla -->
<g id="node9" class="node"><title>valhalla</title>
<g id="a_node9"><a xlink:href="norsemen_valhalla_full.html" xlink:title="Valhalla">
<polygon fill="none" stroke="red" points="175.069,-23.5623 125.45,-36 75.8306,-23.5623 75.8769,-3.43769 175.022,-3.43769 175.069,-23.5623"/>
<text text-anchor="middle" x="125.45" y="-14.3" font-family="Times,serif" font-size="14.00" fill="#ebc72d">Valhalla</text>
</a>
</g>
</g>
<!-- med_bar&#45;&gt;valhalla -->
<g id="edge10" class="edge"><title>med_bar&#45;&gt;valhalla</title>
<path fill="none" stroke="#ebc72d" stroke-dasharray="1,5" d="M54.8744,-149.982C50.0245,-128.023 46.6176,-96.446 58.4496,-72 65.8701,-56.6685 80.1165,-44.4265 93.5712,-35.5875"/>
<polygon fill="#ebc72d" stroke="#ebc72d" points="95.5322,-38.4904 102.219,-30.2721 91.8666,-32.5269 95.5322,-38.4904"/>
</g>
<!-- castle -->
<g id="node5" class="node"><title>castle</title>
<g id="a_node5"><a xlink:href="norsemen_castle_full.html" xlink:title="Castle">
<polygon fill="none" stroke="red" points="217.788,-444.415 177.45,-456.853 137.112,-444.415 137.149,-424.291 217.75,-424.291 217.788,-444.415"/>
<text text-anchor="middle" x="177.45" y="-435.153" font-family="Times,serif" font-size="14.00" fill="#ebc72d">Castle</text>
</a>
</g>
</g>
<!-- castle&#45;&gt;house -->
<g id="edge5" class="edge"><title>castle&#45;&gt;house</title>
<path fill="none" stroke="#ebc72d" stroke-dasharray="1,5" d="M167.966,-424.023C161.413,-414.466 152.545,-401.534 144.971,-390.488"/>
<polygon fill="#ebc72d" stroke="#ebc72d" points="147.785,-388.402 139.243,-382.134 142.011,-392.361 147.785,-388.402"/>
</g>
<!-- castle&#45;&gt;farm -->
<g id="edge4" class="edge"><title>castle&#45;&gt;farm</title>
<path fill="none" stroke="#ebc72d" stroke-dasharray="1,5" d="M186.933,-424.023C193.487,-414.466 202.354,-401.534 209.928,-390.488"/>
<polygon fill="#ebc72d" stroke="#ebc72d" points="212.888,-392.361 215.656,-382.134 207.115,-388.402 212.888,-392.361"/>
</g>
<!-- bone_tent&#45;&gt;blacksmith -->
<g id="edge3" class="edge"><title>bone_tent&#45;&gt;blacksmith</title>
<path fill="none" stroke="#ebc72d" stroke-dasharray="1,5" d="M144.797,-252.516C153.902,-237.019 165.363,-217.509 174.257,-202.371"/>
<polygon fill="#ebc72d" stroke="#ebc72d" points="177.371,-203.98 179.419,-193.585 171.336,-200.434 177.371,-203.98"/>
</g>
<!-- mistletree&#45;&gt;valhalla -->
<g id="edge11" class="edge"><title>mistletree&#45;&gt;valhalla</title>
<path fill="none" stroke="#ebc72d" stroke-dasharray="1,5" d="M125.45,-75.1703C125.45,-66.9188 125.45,-56.1528 125.45,-46.2563"/>
<polygon fill="#ebc72d" stroke="#ebc72d" points="128.95,-46.019 125.45,-36.019 121.95,-46.0191 128.95,-46.019"/>
</g>
<!-- blacksmith&#45;&gt;mistletree -->
<g id="edge1" class="edge"><title>blacksmith&#45;&gt;mistletree</title>
<path fill="none" stroke="#ebc72d" stroke-dasharray="1,5" d="M178.328,-162.522C168.643,-149.423 153.853,-129.419 142.375,-113.894"/>
<polygon fill="#ebc72d" stroke="#ebc72d" points="145.152,-111.762 136.393,-105.802 139.524,-115.924 145.152,-111.762"/>
</g>
<!-- blacksmith&#45;&gt;valhalla -->
<g id="edge2" class="edge"><title>blacksmith&#45;&gt;valhalla</title>
<path fill="none" stroke="#ebc72d" stroke-dasharray="1,5" d="M192.858,-162.559C198.728,-141.821 206.806,-101.661 192.45,-72 185.029,-56.6685 170.783,-44.4265 157.328,-35.5875"/>
<polygon fill="#ebc72d" stroke="#ebc72d" points="159.033,-32.5269 148.68,-30.2721 155.367,-38.4904 159.033,-32.5269"/>
</g>
</g>
</svg>
