<?xml version="1.0" encoding="UTF-8" standalone="no"?>
<!DOCTYPE svg PUBLIC "-//W3C//DTD SVG 1.1//EN"
 "http://www.w3.org/Graphics/SVG/1.1/DTD/svg11.dtd">
<!-- Generated by graphviz version 2.38.0 (20140413.2041)
 -->
<!-- Title: test Pages: 1 -->
<svg width="2696pt" height="361pt"
 viewBox="0.00 0.00 2695.82 360.85" xmlns="http://www.w3.org/2000/svg" xmlns:xlink="http://www.w3.org/1999/xlink">
<g id="graph0" class="graph" transform="scale(1 1) rotate(0) translate(4 356.853)">
<title>test</title>
<polygon fill="#151515" stroke="none" points="-4,4 -4,-356.853 2691.82,-356.853 2691.82,4 -4,4"/>
<!-- axe_man -->
<g id="node1" class="node"><title>axe_man</title>
<g id="a_node1"><a xlink:href="romans_axe_man_full.html" xlink:title="Axe\nMan">
<ellipse fill="none" stroke="magenta" cx="2419.51" cy="-33.2132" rx="29.8983" ry="26.7407"/>
<text text-anchor="middle" x="2419.51" y="-37.0132" font-family="Times,serif" font-size="14.00" fill="#ebc72d">Axe</text>
<text text-anchor="middle" x="2419.51" y="-22.0132" font-family="Times,serif" font-size="14.00" fill="#ebc72d">Man</text>
</a>
</g>
</g>
<!-- cow -->
<g id="node2" class="node"><title>cow</title>
<g id="a_node2"><a xlink:href="romans_cow_full.html" xlink:title="Cow">
<ellipse fill="none" stroke="magenta" cx="1940.51" cy="-140.426" rx="27.0966" ry="18"/>
<text text-anchor="middle" x="1940.51" y="-136.726" font-family="Times,serif" font-size="14.00" fill="#ebc72d">Cow</text>
</a>
</g>
</g>
<!-- cavalry -->
<g id="node3" class="node"><title>cavalry</title>
<g id="a_node3"><a xlink:href="romans_cavalry_full.html" xlink:title="Cavalry">
<ellipse fill="none" stroke="magenta" cx="773.506" cy="-140.426" rx="38.1938" ry="18"/>
<text text-anchor="middle" x="773.506" y="-136.726" font-family="Times,serif" font-size="14.00" fill="#ebc72d">Cavalry</text>
</a>
</g>
</g>
<!-- tribune -->
<g id="node23" class="node"><title>tribune</title>
<g id="a_node23"><a xlink:href="romans_tribune_full.html" xlink:title="Tribune">
<ellipse fill="none" stroke="magenta" cx="534.506" cy="-33.2132" rx="38.1938" ry="18"/>
<text text-anchor="middle" x="534.506" y="-29.5132" font-family="Times,serif" font-size="14.00" fill="#ebc72d">Tribune</text>
</a>
</g>
</g>
<!-- cavalry&#45;&gt;tribune -->
<g id="edge20" class="edge"><title>cavalry&#45;&gt;tribune</title>
<path fill="none" stroke="#ebc72d" stroke-dasharray="5,2" d="M746.554,-127.562C703.521,-108.618 619.232,-71.5115 570.892,-50.2311"/>
<polygon fill="#ebc72d" stroke="#ebc72d" points="572.288,-47.0219 561.726,-46.1961 569.468,-53.4286 572.288,-47.0219"/>
</g>
<!-- military_camp -->
<g id="node4" class="node"><title>military_camp</title>
<g id="a_node4"><a xlink:href="romans_military_camp_full.html" xlink:title="Military\nCamp">
<polygon fill="none" stroke="red" points="827.886,-257.969 773.506,-281.067 719.125,-257.969 719.176,-220.596 827.836,-220.596 827.886,-257.969"/>
<text text-anchor="middle" x="773.506" y="-251.44" font-family="Times,serif" font-size="14.00" fill="#ebc72d">Military</text>
<text text-anchor="middle" x="773.506" y="-236.44" font-family="Times,serif" font-size="14.00" fill="#ebc72d">Camp</text>
</a>
</g>
</g>
<!-- military_camp&#45;&gt;cavalry -->
<g id="edge28" class="edge"><title>military_camp&#45;&gt;cavalry</title>
<path fill="none" stroke="#ebc72d" d="M773.506,-220.361C773.506,-204.635 773.506,-184.679 773.506,-168.768"/>
<polygon fill="#ebc72d" stroke="#ebc72d" points="777.006,-168.5 773.506,-158.5 770.006,-168.5 777.006,-168.5"/>
</g>
<!-- wartime_mechanic -->
<g id="node6" class="node"><title>wartime_mechanic</title>
<g id="a_node6"><a xlink:href="romans_wartime_mechanic_full.html" xlink:title="Wartime\nMechanic">
<ellipse fill="none" stroke="magenta" cx="1633.51" cy="-140.426" rx="50.41" ry="26.7407"/>
<text text-anchor="middle" x="1633.51" y="-144.226" font-family="Times,serif" font-size="14.00" fill="#ebc72d">Wartime</text>
<text text-anchor="middle" x="1633.51" y="-129.226" font-family="Times,serif" font-size="14.00" fill="#ebc72d">Mechanic</text>
</a>
</g>
</g>
<!-- military_camp&#45;&gt;wartime_mechanic -->
<g id="edge32" class="edge"><title>military_camp&#45;&gt;wartime_mechanic</title>
<path fill="none" stroke="#ebc72d" d="M827.745,-243.506C996.314,-233.563 1504.02,-201.984 1574.51,-178.426 1582.08,-175.893 1589.68,-172.202 1596.79,-168.119"/>
<polygon fill="#ebc72d" stroke="#ebc72d" points="1598.78,-171.004 1605.48,-162.796 1595.12,-165.034 1598.78,-171.004"/>
</g>
<!-- turtle_formation -->
<g id="node14" class="node"><title>turtle_formation</title>
<g id="a_node14"><a xlink:href="romans_turtle_formation_full.html" xlink:title="Turtle\nFormation">
<ellipse fill="none" stroke="magenta" cx="389.506" cy="-33.2132" rx="52.1524" ry="26.7407"/>
<text text-anchor="middle" x="389.506" y="-37.0132" font-family="Times,serif" font-size="14.00" fill="#ebc72d">Turtle</text>
<text text-anchor="middle" x="389.506" y="-22.0132" font-family="Times,serif" font-size="14.00" fill="#ebc72d">Formation</text>
</a>
</g>
</g>
<!-- military_camp&#45;&gt;turtle_formation -->
<g id="edge31" class="edge"><title>military_camp&#45;&gt;turtle_formation</title>
<path fill="none" stroke="#ebc72d" d="M719.023,-241.677C601.187,-230.542 330.482,-202.642 296.506,-178.426 281.452,-167.697 283.269,-158.991 277.506,-141.426"/>
<path fill="none" stroke="#ebc72d" d="M277.506,-139.426C265.251,-102.079 304.2,-72.8708 339.473,-54.8036"/>
<polygon fill="#ebc72d" stroke="#ebc72d" points="341.365,-57.7744 348.802,-50.2291 338.283,-51.4893 341.365,-57.7744"/>
</g>
<!-- general -->
<g id="node17" class="node"><title>general</title>
<g id="a_node17"><a xlink:href="romans_general_full.html" xlink:title="General">
<ellipse fill="none" stroke="magenta" cx="1024.51" cy="-33.2132" rx="38.1938" ry="18"/>
<text text-anchor="middle" x="1024.51" y="-29.5132" font-family="Times,serif" font-size="14.00" fill="#ebc72d">General</text>
</a>
</g>
</g>
<!-- military_camp&#45;&gt;general -->
<g id="edge30" class="edge"><title>military_camp&#45;&gt;general</title>
<path fill="none" stroke="#ebc72d" d="M751.636,-220.542C728.337,-189.423 698.384,-137.257 726.506,-102.426 774.203,-43.3512 819.522,-83.4935 893.506,-66.4264 923.021,-59.6177 956.149,-51.4668 981.706,-45.0676"/>
<polygon fill="#ebc72d" stroke="#ebc72d" points="982.611,-48.4492 991.458,-42.6191 980.906,-41.6599 982.611,-48.4492"/>
</g>
<!-- formations -->
<g id="node26" class="node"><title>formations</title>
<g id="a_node26"><a xlink:href="romans_formations_full.html" xlink:title="Formations">
<polygon fill="none" stroke="green" points="679.571,-158.426 560.159,-158.426 529.441,-122.426 648.852,-122.426 679.571,-158.426"/>
<text text-anchor="middle" x="604.506" y="-136.726" font-family="Times,serif" font-size="14.00" fill="#ebc72d">Formations</text>
</a>
</g>
</g>
<!-- military_camp&#45;&gt;formations -->
<g id="edge29" class="edge"><title>military_camp&#45;&gt;formations</title>
<path fill="none" stroke="#ebc72d" d="M731.296,-220.361C703.364,-202.972 667.125,-180.411 640.547,-163.864"/>
<polygon fill="#ebc72d" stroke="#ebc72d" points="642.269,-160.814 631.93,-158.5 638.57,-166.756 642.269,-160.814"/>
</g>
<!-- advanced_architecture -->
<g id="node32" class="node"><title>advanced_architecture</title>
<g id="a_node32"><a xlink:href="romans_advanced_architecture_full.html" xlink:title="Advanced\nArchitecture">
<polygon fill="none" stroke="green" points="1041.68,-178.426 903.005,-178.426 867.331,-102.426 1006.01,-102.426 1041.68,-178.426"/>
<text text-anchor="middle" x="954.506" y="-144.226" font-family="Times,serif" font-size="14.00" fill="#ebc72d">Advanced</text>
<text text-anchor="middle" x="954.506" y="-129.226" font-family="Times,serif" font-size="14.00" fill="#ebc72d">Architecture</text>
</a>
</g>
</g>
<!-- military_camp&#45;&gt;advanced_architecture -->
<g id="edge27" class="edge"><title>military_camp&#45;&gt;advanced_architecture</title>
<path fill="none" stroke="#ebc72d" d="M818.713,-220.361C840.721,-207.568 867.545,-191.976 891.521,-178.039"/>
<polygon fill="#ebc72d" stroke="#ebc72d" points="893.325,-181.039 900.211,-172.987 889.807,-174.987 893.325,-181.039"/>
</g>
<!-- training_camp -->
<g id="node5" class="node"><title>training_camp</title>
<g id="a_node5"><a xlink:href="romans_training_camp_full.html" xlink:title="Training\nCamp">
<polygon fill="none" stroke="red" points="2237.63,-257.969 2182.51,-281.067 2127.38,-257.969 2127.43,-220.596 2237.58,-220.596 2237.63,-257.969"/>
<text text-anchor="middle" x="2182.51" y="-251.44" font-family="Times,serif" font-size="14.00" fill="#ebc72d">Training</text>
<text text-anchor="middle" x="2182.51" y="-236.44" font-family="Times,serif" font-size="14.00" fill="#ebc72d">Camp</text>
</a>
</g>
</g>
<!-- training_camp&#45;&gt;axe_man -->
<g id="edge47" class="edge"><title>training_camp&#45;&gt;axe_man</title>
<path fill="none" stroke="#ebc72d" stroke-dasharray="1,5" d="M2237.6,-245.262C2287.98,-240.841 2360.56,-225.924 2400.51,-178.426 2425.62,-148.561 2427.34,-102.203 2424.76,-70.1459"/>
<polygon fill="#ebc72d" stroke="#ebc72d" points="2428.21,-69.4752 2423.74,-59.8672 2421.24,-70.1626 2428.21,-69.4752"/>
</g>
<!-- training_camp&#45;&gt;wartime_mechanic -->
<g id="edge53" class="edge"><title>training_camp&#45;&gt;wartime_mechanic</title>
<path fill="none" stroke="#ebc72d" stroke-dasharray="1,5" d="M2127.03,-240.051C2008.38,-225.784 1737.5,-192.212 1697.51,-178.426 1689.04,-175.509 1680.44,-171.435 1672.4,-167.051"/>
<polygon fill="#ebc72d" stroke="#ebc72d" points="1674.02,-163.945 1663.61,-162.014 1670.54,-170.02 1674.02,-163.945"/>
</g>
<!-- swordsman -->
<g id="node12" class="node"><title>swordsman</title>
<g id="a_node12"><a xlink:href="romans_swordsman_full.html" xlink:title="Swordsman">
<ellipse fill="none" stroke="magenta" cx="2038.51" cy="-140.426" rx="52.7911" ry="18"/>
<text text-anchor="middle" x="2038.51" y="-136.726" font-family="Times,serif" font-size="14.00" fill="#ebc72d">Swordsman</text>
</a>
</g>
</g>
<!-- training_camp&#45;&gt;swordsman -->
<g id="edge51" class="edge"><title>training_camp&#45;&gt;swordsman</title>
<path fill="none" stroke="#ebc72d" d="M2146.54,-220.361C2122.31,-202.659 2090.75,-179.597 2068,-162.977"/>
<polygon fill="#ebc72d" stroke="#ebc72d" points="2069.89,-160.021 2059.75,-156.947 2065.76,-165.673 2069.89,-160.021"/>
</g>
<!-- spearman -->
<g id="node13" class="node"><title>spearman</title>
<g id="a_node13"><a xlink:href="romans_spearman_full.html" xlink:title="Spearman">
<ellipse fill="none" stroke="magenta" cx="2493.51" cy="-140.426" rx="46.2923" ry="18"/>
<text text-anchor="middle" x="2493.51" y="-136.726" font-family="Times,serif" font-size="14.00" fill="#ebc72d">Spearman</text>
</a>
</g>
</g>
<!-- training_camp&#45;&gt;spearman -->
<g id="edge50" class="edge"><title>training_camp&#45;&gt;spearman</title>
<path fill="none" stroke="#ebc72d" d="M2237.9,-236.369C2289.8,-225.642 2368.87,-206.44 2433.51,-178.426 2443.8,-173.964 2454.42,-167.951 2463.81,-162.071"/>
<polygon fill="#ebc72d" stroke="#ebc72d" points="2465.88,-164.898 2472.38,-156.53 2462.08,-159.019 2465.88,-164.898"/>
</g>
<!-- training_camp&#45;&gt;general -->
<g id="edge48" class="edge"><title>training_camp&#45;&gt;general</title>
<path fill="none" stroke="#ebc72d" stroke-dasharray="1,5" d="M2164.69,-220.492C2156.4,-207.964 2146.6,-192.627 2138.51,-178.426 2119.8,-145.621 2132.17,-123 2100.51,-102.426 2026.08,-54.0743 1390.98,-73.539 1302.51,-66.4264 1220.84,-59.8607 1126.13,-47.9673 1071.01,-40.614"/>
<polygon fill="#ebc72d" stroke="#ebc72d" points="1071.23,-37.1129 1060.85,-39.2515 1070.3,-44.0507 1071.23,-37.1129"/>
</g>
<!-- archer -->
<g id="node19" class="node"><title>archer</title>
<g id="a_node19"><a xlink:href="romans_archer_full.html" xlink:title="Archer">
<ellipse fill="none" stroke="magenta" cx="2182.51" cy="-140.426" rx="35.194" ry="18"/>
<text text-anchor="middle" x="2182.51" y="-136.726" font-family="Times,serif" font-size="14.00" fill="#ebc72d">Archer</text>
</a>
</g>
</g>
<!-- training_camp&#45;&gt;archer -->
<g id="edge46" class="edge"><title>training_camp&#45;&gt;archer</title>
<path fill="none" stroke="#ebc72d" d="M2182.51,-220.361C2182.51,-204.635 2182.51,-184.679 2182.51,-168.768"/>
<polygon fill="#ebc72d" stroke="#ebc72d" points="2186.01,-168.5 2182.51,-158.5 2179.01,-168.5 2186.01,-168.5"/>
</g>
<!-- guard -->
<g id="node24" class="node"><title>guard</title>
<g id="a_node24"><a xlink:href="romans_guard_full.html" xlink:title="Guard">
<ellipse fill="none" stroke="magenta" cx="2148.51" cy="-33.2132" rx="32.4942" ry="18"/>
<text text-anchor="middle" x="2148.51" y="-29.5132" font-family="Times,serif" font-size="14.00" fill="#ebc72d">Guard</text>
</a>
</g>
</g>
<!-- training_camp&#45;&gt;guard -->
<g id="edge49" class="edge"><title>training_camp&#45;&gt;guard</title>
<path fill="none" stroke="#ebc72d" d="M2204.38,-220.543C2213.07,-208.516 2222.05,-193.567 2226.51,-178.426 2236.05,-146.025 2240.47,-133.184 2226.51,-102.426 2216.88,-81.2235 2197.05,-64.0231 2179.79,-52.1982"/>
<polygon fill="#ebc72d" stroke="#ebc72d" points="2181.36,-49.0414 2171.07,-46.5119 2177.54,-54.9053 2181.36,-49.0414"/>
</g>
<!-- training_field -->
<g id="node29" class="node"><title>training_field</title>
<g id="a_node29"><a xlink:href="romans_training_field_full.html" xlink:title="Training\nField">
<polygon fill="none" stroke="green" points="2687.64,-178.426 2584.03,-178.426 2557.37,-102.426 2660.98,-102.426 2687.64,-178.426"/>
<text text-anchor="middle" x="2622.51" y="-144.226" font-family="Times,serif" font-size="14.00" fill="#ebc72d">Training</text>
<text text-anchor="middle" x="2622.51" y="-129.226" font-family="Times,serif" font-size="14.00" fill="#ebc72d">Field</text>
</a>
</g>
</g>
<!-- training_camp&#45;&gt;training_field -->
<g id="edge52" class="edge"><title>training_camp&#45;&gt;training_field</title>
<path fill="none" stroke="#ebc72d" d="M2237.66,-241.217C2310.37,-232.981 2441.58,-214.329 2548.51,-178.426 2555.53,-176.069 2562.72,-173.16 2569.74,-170.018"/>
<polygon fill="#ebc72d" stroke="#ebc72d" points="2571.58,-173.021 2579.15,-165.617 2568.61,-166.679 2571.58,-173.021"/>
</g>
<!-- ballista -->
<g id="node7" class="node"><title>ballista</title>
<g id="a_node7"><a xlink:href="romans_ballista_full.html" xlink:title="Ballista">
<ellipse fill="none" stroke="magenta" cx="701.506" cy="-33.2132" rx="37.8943" ry="18"/>
<text text-anchor="middle" x="701.506" y="-29.5132" font-family="Times,serif" font-size="14.00" fill="#ebc72d">Ballista</text>
</a>
</g>
</g>
<!-- wartime_mechanic&#45;&gt;ballista -->
<g id="edge54" class="edge"><title>wartime_mechanic&#45;&gt;ballista</title>
<path fill="none" stroke="#ebc72d" stroke-dasharray="5,2" d="M1605.86,-117.996C1596.42,-111.831 1585.47,-105.852 1574.51,-102.426 1406.98,-50.0789 957.314,-102.309 785.506,-66.4264 768.951,-62.9688 751.372,-56.673 736.598,-50.5585"/>
<polygon fill="#ebc72d" stroke="#ebc72d" points="737.904,-47.3105 727.333,-46.5983 735.152,-53.7471 737.904,-47.3105"/>
</g>
<!-- catapult -->
<g id="node18" class="node"><title>catapult</title>
<g id="a_node18"><a xlink:href="romans_catapult_full.html" xlink:title="Catapult">
<ellipse fill="none" stroke="magenta" cx="1612.51" cy="-33.2132" rx="40.0939" ry="18"/>
<text text-anchor="middle" x="1612.51" y="-29.5132" font-family="Times,serif" font-size="14.00" fill="#ebc72d">Catapult</text>
</a>
</g>
</g>
<!-- wartime_mechanic&#45;&gt;catapult -->
<g id="edge56" class="edge"><title>wartime_mechanic&#45;&gt;catapult</title>
<path fill="none" stroke="#ebc72d" stroke-dasharray="5,2" d="M1628.37,-113.688C1625.2,-97.8186 1621.14,-77.4896 1617.93,-61.3648"/>
<polygon fill="#ebc72d" stroke="#ebc72d" points="1621.34,-60.5861 1615.95,-51.4646 1614.47,-61.9563 1621.34,-60.5861"/>
</g>
<!-- battering_ram -->
<g id="node25" class="node"><title>battering_ram</title>
<g id="a_node25"><a xlink:href="romans_battering_ram_full.html" xlink:title="Battering\nRam">
<ellipse fill="none" stroke="magenta" cx="1358.51" cy="-33.2132" rx="47.2526" ry="26.7407"/>
<text text-anchor="middle" x="1358.51" y="-37.0132" font-family="Times,serif" font-size="14.00" fill="#ebc72d">Battering</text>
<text text-anchor="middle" x="1358.51" y="-22.0132" font-family="Times,serif" font-size="14.00" fill="#ebc72d">Ram</text>
</a>
</g>
</g>
<!-- wartime_mechanic&#45;&gt;battering_ram -->
<g id="edge55" class="edge"><title>wartime_mechanic&#45;&gt;battering_ram</title>
<path fill="none" stroke="#ebc72d" stroke-dasharray="5,2" d="M1603.71,-118.69C1594.61,-112.921 1584.38,-106.992 1574.51,-102.426 1521.08,-77.7277 1456.28,-58.5918 1411.68,-46.9571"/>
<polygon fill="#ebc72d" stroke="#ebc72d" points="1412.48,-43.5482 1401.92,-44.4469 1410.74,-50.3276 1412.48,-43.5482"/>
</g>
<!-- gladiator -->
<g id="node8" class="node"><title>gladiator</title>
<g id="a_node8"><a xlink:href="romans_gladiator_full.html" xlink:title="Gladiator">
<ellipse fill="none" stroke="magenta" cx="2327.51" cy="-33.2132" rx="44.393" ry="18"/>
<text text-anchor="middle" x="2327.51" y="-29.5132" font-family="Times,serif" font-size="14.00" fill="#ebc72d">Gladiator</text>
</a>
</g>
</g>
<!-- forum -->
<g id="node9" class="node"><title>forum</title>
<g id="a_node9"><a xlink:href="romans_forum_full.html" xlink:title="Forum">
<polygon fill="none" stroke="red" points="1904.16,-253.202 1861.51,-265.64 1818.85,-253.202 1818.89,-233.077 1904.12,-233.077 1904.16,-253.202"/>
<text text-anchor="middle" x="1861.51" y="-243.94" font-family="Times,serif" font-size="14.00" fill="#ebc72d">Forum</text>
</a>
</g>
</g>
<!-- forum&#45;&gt;cow -->
<g id="edge23" class="edge"><title>forum&#45;&gt;cow</title>
<path fill="none" stroke="#ebc72d" d="M1871.83,-232.885C1884.77,-215.652 1907.15,-185.852 1922.83,-164.964"/>
<polygon fill="#ebc72d" stroke="#ebc72d" points="1925.69,-166.993 1928.89,-156.894 1920.09,-162.79 1925.69,-166.993"/>
</g>
<!-- slave -->
<g id="node21" class="node"><title>slave</title>
<g id="a_node21"><a xlink:href="romans_slave_full.html" xlink:title="Slave">
<ellipse fill="none" stroke="magenta" cx="1569.51" cy="-334.853" rx="30.5947" ry="18"/>
<text text-anchor="middle" x="1569.51" y="-331.153" font-family="Times,serif" font-size="14.00" fill="#ebc72d">Slave</text>
</a>
</g>
</g>
<!-- fire_archer -->
<g id="node10" class="node"><title>fire_archer</title>
<g id="a_node10"><a xlink:href="romans_fire_archer_full.html" xlink:title="Fire\nArcher">
<ellipse fill="none" stroke="magenta" cx="1892.51" cy="-33.2132" rx="38.3684" ry="26.7407"/>
<text text-anchor="middle" x="1892.51" y="-37.0132" font-family="Times,serif" font-size="14.00" fill="#ebc72d">Fire</text>
<text text-anchor="middle" x="1892.51" y="-22.0132" font-family="Times,serif" font-size="14.00" fill="#ebc72d">Archer</text>
</a>
</g>
</g>
<!-- guard_tower -->
<g id="node11" class="node"><title>guard_tower</title>
<g id="a_node11"><a xlink:href="romans_guard_tower_full.html" xlink:title="Guard\nTower">
<polygon fill="none" stroke="red" points="884.905,-43.543 839.506,-66.641 794.106,-43.543 794.149,-6.16955 884.863,-6.16955 884.905,-43.543"/>
<text text-anchor="middle" x="839.506" y="-37.0132" font-family="Times,serif" font-size="14.00" fill="#ebc72d">Guard</text>
<text text-anchor="middle" x="839.506" y="-22.0132" font-family="Times,serif" font-size="14.00" fill="#ebc72d">Tower</text>
</a>
</g>
</g>
<!-- gladiator_school -->
<g id="node15" class="node"><title>gladiator_school</title>
<g id="a_node15"><a xlink:href="romans_gladiator_school_full.html" xlink:title="Gladiator\nSchool">
<polygon fill="none" stroke="red" points="2391.87,-150.756 2332.51,-173.854 2273.14,-150.756 2273.19,-113.383 2391.82,-113.383 2391.87,-150.756"/>
<text text-anchor="middle" x="2332.51" y="-144.226" font-family="Times,serif" font-size="14.00" fill="#ebc72d">Gladiator</text>
<text text-anchor="middle" x="2332.51" y="-129.226" font-family="Times,serif" font-size="14.00" fill="#ebc72d">School</text>
</a>
</g>
</g>
<!-- gladiator_school&#45;&gt;axe_man -->
<g id="edge25" class="edge"><title>gladiator_school&#45;&gt;axe_man</title>
<path fill="none" stroke="#ebc72d" d="M2354.24,-113.148C2366.84,-97.9097 2382.72,-78.7003 2395.66,-63.0469"/>
<polygon fill="#ebc72d" stroke="#ebc72d" points="2398.46,-65.1622 2402.13,-55.2252 2393.06,-60.7014 2398.46,-65.1622"/>
</g>
<!-- gladiator_school&#45;&gt;gladiator -->
<g id="edge26" class="edge"><title>gladiator_school&#45;&gt;gladiator</title>
<path fill="none" stroke="#ebc72d" d="M2331.26,-113.148C2330.51,-97.4218 2329.56,-77.4662 2328.81,-61.5546"/>
<polygon fill="#ebc72d" stroke="#ebc72d" points="2332.29,-61.1092 2328.32,-51.2866 2325.3,-61.4415 2332.29,-61.1092"/>
</g>
<!-- eagle_pillar -->
<g id="node16" class="node"><title>eagle_pillar</title>
<g id="a_node16"><a xlink:href="romans_eagle_pillar_full.html" xlink:title="Eagle\nPillar">
<polygon fill="none" stroke="red" points="1752.66,-43.543 1711.51,-66.641 1670.35,-43.543 1670.39,-6.16955 1752.63,-6.16955 1752.66,-43.543"/>
<text text-anchor="middle" x="1711.51" y="-37.0132" font-family="Times,serif" font-size="14.00" fill="#ebc72d">Eagle</text>
<text text-anchor="middle" x="1711.51" y="-22.0132" font-family="Times,serif" font-size="14.00" fill="#ebc72d">Pillar</text>
</a>
</g>
</g>
<!-- archer&#45;&gt;fire_archer -->
<g id="edge4" class="edge"><title>archer&#45;&gt;fire_archer</title>
<path fill="none" stroke="#ebc72d" stroke-dasharray="5,2" d="M2165.86,-124.385C2156.83,-116.889 2145.15,-108.215 2133.51,-102.426 2069.94,-70.8288 1989.44,-51.791 1939.45,-42.1438"/>
<polygon fill="#ebc72d" stroke="#ebc72d" points="1940.05,-38.6942 1929.57,-40.2826 1938.75,-45.5733 1940.05,-38.6942"/>
</g>
<!-- blacksmith_shop -->
<g id="node20" class="node"><title>blacksmith_shop</title>
<g id="a_node20"><a xlink:href="romans_blacksmith_shop_full.html" xlink:title="Blacksmith\nShop">
<polygon fill="none" stroke="red" points="1497.6,-257.969 1428.51,-281.067 1359.41,-257.969 1359.47,-220.596 1497.54,-220.596 1497.6,-257.969"/>
<text text-anchor="middle" x="1428.51" y="-251.44" font-family="Times,serif" font-size="14.00" fill="#ebc72d">Blacksmith</text>
<text text-anchor="middle" x="1428.51" y="-236.44" font-family="Times,serif" font-size="14.00" fill="#ebc72d">Shop</text>
</a>
</g>
</g>
<!-- blacksmith_shop&#45;&gt;cavalry -->
<g id="edge5" class="edge"><title>blacksmith_shop&#45;&gt;cavalry</title>
<path fill="none" stroke="#ebc72d" stroke-dasharray="1,5" d="M1359.24,-243.164C1222.25,-235.581 921.625,-215.215 825.506,-178.426 815.983,-174.782 806.586,-168.975 798.456,-163.033"/>
<polygon fill="#ebc72d" stroke="#ebc72d" points="800.542,-160.222 790.49,-156.876 796.262,-165.761 800.542,-160.222"/>
</g>
<!-- blacksmith_shop&#45;&gt;wartime_mechanic -->
<g id="edge16" class="edge"><title>blacksmith_shop&#45;&gt;wartime_mechanic</title>
<path fill="none" stroke="#ebc72d" stroke-dasharray="1,5" d="M1488.64,-220.556C1515.32,-208.473 1546.86,-193.477 1574.51,-178.426 1580.93,-174.929 1587.61,-171.017 1594.07,-167.084"/>
<polygon fill="#ebc72d" stroke="#ebc72d" points="1596.04,-169.982 1602.7,-161.743 1592.36,-164.031 1596.04,-169.982"/>
</g>
<!-- blacksmith_shop&#45;&gt;guard_tower -->
<g id="edge10" class="edge"><title>blacksmith_shop&#45;&gt;guard_tower</title>
<path fill="none" stroke="#ebc72d" stroke-dasharray="1,5" d="M1359.39,-243.062C1215.38,-234.945 893.597,-213.103 858.506,-178.426 831.519,-151.758 829.664,-106.721 832.737,-74.0615"/>
<polygon fill="#ebc72d" stroke="#ebc72d" points="836.237,-74.2614 833.882,-63.9314 829.281,-73.4748 836.237,-74.2614"/>
</g>
<!-- blacksmith_shop&#45;&gt;swordsman -->
<g id="edge14" class="edge"><title>blacksmith_shop&#45;&gt;swordsman</title>
<path fill="none" stroke="#ebc72d" stroke-dasharray="1,5" d="M1497.81,-241.589C1624.73,-231.75 1889.46,-208.333 1976.51,-178.426 1987.67,-174.591 1999.01,-168.57 2008.89,-162.491"/>
<polygon fill="#ebc72d" stroke="#ebc72d" points="2010.98,-165.306 2017.5,-156.953 2007.19,-159.419 2010.98,-165.306"/>
</g>
<!-- blacksmith_shop&#45;&gt;turtle_formation -->
<g id="edge15" class="edge"><title>blacksmith_shop&#45;&gt;turtle_formation</title>
<path fill="none" stroke="#ebc72d" stroke-dasharray="1,5" d="M1359.32,-242.926C1115.14,-229.764 307.699,-185.733 296.506,-178.426 281.026,-168.322 283.269,-158.991 277.506,-141.426"/>
</g>
<!-- blacksmith_shop&#45;&gt;gladiator_school -->
<g id="edge9" class="edge"><title>blacksmith_shop&#45;&gt;gladiator_school</title>
<path fill="none" stroke="#ebc72d" stroke-dasharray="1,5" d="M1497.83,-240.77C1691.09,-224.401 2222.06,-179.377 2226.51,-178.426 2245.24,-174.422 2265.22,-168.038 2282.72,-161.691"/>
<polygon fill="#ebc72d" stroke="#ebc72d" points="2284.01,-164.947 2292.16,-158.185 2281.57,-158.384 2284.01,-164.947"/>
</g>
<!-- blacksmith_shop&#45;&gt;eagle_pillar -->
<g id="edge6" class="edge"><title>blacksmith_shop&#45;&gt;eagle_pillar</title>
<path fill="none" stroke="#ebc72d" stroke-dasharray="1,5" d="M1497.71,-244.106C1555.41,-238.679 1636.87,-222.926 1692.51,-178.426 1706.94,-166.88 1703.28,-157.981 1711.51,-141.426"/>
<path fill="none" stroke="#ebc72d" stroke-dasharray="1,5" d="M1711.51,-139.426C1721.59,-119.136 1721.9,-93.8064 1719.54,-73.0851"/>
<polygon fill="#ebc72d" stroke="#ebc72d" points="1722.99,-72.4508 1718.15,-63.0236 1716.05,-73.4084 1722.99,-72.4508"/>
</g>
<!-- blacksmith_shop&#45;&gt;general -->
<g id="edge8" class="edge"><title>blacksmith_shop&#45;&gt;general</title>
<path fill="none" stroke="#ebc72d" stroke-dasharray="1,5" d="M1359.43,-244.949C1294.38,-240.324 1196.69,-225.284 1126.51,-178.426 1082.36,-148.952 1051.28,-93.4052 1035.78,-60.5183"/>
<polygon fill="#ebc72d" stroke="#ebc72d" points="1038.81,-58.7337 1031.47,-51.0934 1032.45,-61.6435 1038.81,-58.7337"/>
</g>
<!-- strengthen_swords -->
<g id="node27" class="node"><title>strengthen_swords</title>
<g id="a_node27"><a xlink:href="romans_strengthen_swords_full.html" xlink:title="Strengthen\nSwords">
<polygon fill="none" stroke="green" points="1895.02,-178.426 1771.71,-178.426 1739.99,-102.426 1863.3,-102.426 1895.02,-178.426"/>
<text text-anchor="middle" x="1817.51" y="-144.226" font-family="Times,serif" font-size="14.00" fill="#ebc72d">Strengthen</text>
<text text-anchor="middle" x="1817.51" y="-129.226" font-family="Times,serif" font-size="14.00" fill="#ebc72d">Swords</text>
</a>
</g>
</g>
<!-- blacksmith_shop&#45;&gt;strengthen_swords -->
<g id="edge13" class="edge"><title>blacksmith_shop&#45;&gt;strengthen_swords</title>
<path fill="none" stroke="#ebc72d" d="M1497.74,-233.934C1558.46,-222.037 1648.78,-202.503 1725.51,-178.426 1735.46,-175.302 1745.87,-171.582 1755.94,-167.724"/>
<polygon fill="#ebc72d" stroke="#ebc72d" points="1757.44,-170.897 1765.48,-163.998 1754.89,-164.377 1757.44,-170.897"/>
</g>
<!-- sharpen_points -->
<g id="node30" class="node"><title>sharpen_points</title>
<g id="a_node30"><a xlink:href="romans_sharpen_points_full.html" xlink:title="Sharpen\nPoints">
<polygon fill="none" stroke="green" points="1261.99,-178.426 1161,-178.426 1135.02,-102.426 1236.01,-102.426 1261.99,-178.426"/>
<text text-anchor="middle" x="1198.51" y="-144.226" font-family="Times,serif" font-size="14.00" fill="#ebc72d">Sharpen</text>
<text text-anchor="middle" x="1198.51" y="-129.226" font-family="Times,serif" font-size="14.00" fill="#ebc72d">Points</text>
</a>
</g>
</g>
<!-- blacksmith_shop&#45;&gt;sharpen_points -->
<g id="edge12" class="edge"><title>blacksmith_shop&#45;&gt;sharpen_points</title>
<path fill="none" stroke="#ebc72d" d="M1365.41,-220.545C1336.31,-208.219 1301.44,-193.033 1270.51,-178.426 1270.2,-178.28 1269.89,-178.133 1269.57,-177.986"/>
<polygon fill="#ebc72d" stroke="#ebc72d" points="1270.96,-174.766 1260.43,-173.581 1267.92,-181.073 1270.96,-174.766"/>
</g>
<!-- reinforce_armor -->
<g id="node34" class="node"><title>reinforce_armor</title>
<g id="a_node34"><a xlink:href="romans_reinforce_armor_full.html" xlink:title="Reinforce\nArmor">
<polygon fill="none" stroke="green" points="1425.15,-178.426 1309.59,-178.426 1279.86,-102.426 1395.42,-102.426 1425.15,-178.426"/>
<text text-anchor="middle" x="1352.51" y="-144.226" font-family="Times,serif" font-size="14.00" fill="#ebc72d">Reinforce</text>
<text text-anchor="middle" x="1352.51" y="-129.226" font-family="Times,serif" font-size="14.00" fill="#ebc72d">Armor</text>
</a>
</g>
</g>
<!-- blacksmith_shop&#45;&gt;reinforce_armor -->
<g id="edge11" class="edge"><title>blacksmith_shop&#45;&gt;reinforce_armor</title>
<path fill="none" stroke="#ebc72d" d="M1409.52,-220.361C1402.16,-210.174 1393.52,-198.212 1385.23,-186.724"/>
<polygon fill="#ebc72d" stroke="#ebc72d" points="1387.96,-184.531 1379.27,-178.474 1382.29,-188.63 1387.96,-184.531"/>
</g>
<!-- enlarge_shields -->
<g id="node35" class="node"><title>enlarge_shields</title>
<g id="a_node35"><a xlink:href="romans_enlarge_shields_full.html" xlink:title="Enlarge\nShields">
<polygon fill="none" stroke="green" points="1565.84,-178.426 1468.27,-178.426 1443.17,-102.426 1540.74,-102.426 1565.84,-178.426"/>
<text text-anchor="middle" x="1504.51" y="-144.226" font-family="Times,serif" font-size="14.00" fill="#ebc72d">Enlarge</text>
<text text-anchor="middle" x="1504.51" y="-129.226" font-family="Times,serif" font-size="14.00" fill="#ebc72d">Shields</text>
</a>
</g>
</g>
<!-- blacksmith_shop&#45;&gt;enlarge_shields -->
<g id="edge7" class="edge"><title>blacksmith_shop&#45;&gt;enlarge_shields</title>
<path fill="none" stroke="#ebc72d" d="M1447.49,-220.361C1454.85,-210.174 1463.49,-198.212 1471.79,-186.724"/>
<polygon fill="#ebc72d" stroke="#ebc72d" points="1474.73,-188.63 1477.74,-178.474 1469.05,-184.531 1474.73,-188.63"/>
</g>
<!-- slave&#45;&gt;military_camp -->
<g id="edge38" class="edge"><title>slave&#45;&gt;military_camp</title>
<path fill="none" stroke="#ebc72d" stroke-width="2" d="M1539.75,-330.668C1423.9,-318.265 1001.29,-273.024 838.262,-255.572"/>
<polygon fill="#ebc72d" stroke="#ebc72d" stroke-width="2" points="838.221,-252.048 827.905,-254.463 837.476,-259.008 838.221,-252.048"/>
</g>
<!-- slave&#45;&gt;training_camp -->
<g id="edge40" class="edge"><title>slave&#45;&gt;training_camp</title>
<path fill="none" stroke="#ebc72d" stroke-width="2" d="M1599.07,-329.743C1692.89,-316.701 1985.43,-276.035 2117.11,-257.73"/>
<polygon fill="#ebc72d" stroke="#ebc72d" stroke-width="2" points="2117.65,-261.189 2127.07,-256.346 2116.68,-254.256 2117.65,-261.189"/>
</g>
<!-- slave&#45;&gt;forum -->
<g id="edge35" class="edge"><title>slave&#45;&gt;forum</title>
<path fill="none" stroke="#ebc72d" stroke-width="2" d="M1606.12,-323.168C1661.36,-307.049 1765.55,-276.641 1822.29,-260.085"/>
<polygon fill="#ebc72d" stroke="#ebc72d" stroke-width="2" points="1604.81,-319.904 1596.19,-326.065 1606.77,-326.623 1604.81,-319.904"/>
<polygon fill="#ebc72d" stroke="#ebc72d" stroke-width="2" points="1823.35,-263.42 1831.97,-257.259 1821.39,-256.701 1823.35,-263.42"/>
</g>
<!-- slave&#45;&gt;guard_tower -->
<g id="edge37" class="edge"><title>slave&#45;&gt;guard_tower</title>
<path fill="none" stroke="#ebc72d" stroke-width="2" d="M1538.8,-333.72C1404.82,-332.872 870.886,-326.628 710.506,-280.853 618.256,-254.523 569.679,-260.799 520.506,-178.426 503.192,-149.423 498.563,-128.106 520.506,-102.426 553.828,-63.4299 698.786,-79.038 748.506,-66.4264 763.553,-62.6098 779.624,-57.3379 794.009,-52.1635"/>
<polygon fill="#ebc72d" stroke="#ebc72d" stroke-width="2" points="795.485,-55.3499 803.664,-48.6159 793.071,-48.7793 795.485,-55.3499"/>
</g>
<!-- slave&#45;&gt;gladiator_school -->
<g id="edge36" class="edge"><title>slave&#45;&gt;gladiator_school</title>
<path fill="none" stroke="#ebc72d" stroke-width="2" d="M1600.04,-333.078C1724.66,-329.699 2190.79,-314.871 2246.51,-280.853 2283.57,-258.223 2307.02,-212.981 2319.9,-180.155"/>
<polygon fill="#ebc72d" stroke="#ebc72d" stroke-width="2" points="2323.33,-180.998 2323.57,-170.405 2316.77,-178.535 2323.33,-180.998"/>
</g>
<!-- slave&#45;&gt;eagle_pillar -->
<g id="edge34" class="edge"><title>slave&#45;&gt;eagle_pillar</title>
<path fill="none" stroke="#ebc72d" stroke-width="2" d="M1583.14,-318.725C1607.04,-291.768 1657.3,-233.113 1692.51,-178.426 1702.51,-162.882 1703.28,-157.981 1711.51,-141.426"/>
</g>
<!-- slave&#45;&gt;blacksmith_shop -->
<g id="edge33" class="edge"><title>slave&#45;&gt;blacksmith_shop</title>
<path fill="none" stroke="#ebc72d" stroke-width="2" d="M1549,-321.462C1528.92,-309.323 1497.67,-290.44 1472.03,-274.945"/>
<polygon fill="#ebc72d" stroke="#ebc72d" stroke-width="2" points="1473.59,-271.799 1463.23,-269.622 1469.97,-277.79 1473.59,-271.799"/>
</g>
<!-- temple -->
<g id="node22" class="node"><title>temple</title>
<g id="a_node22"><a xlink:href="romans_temple_full.html" xlink:title="Temple">
<polygon fill="none" stroke="red" points="436.804,-253.202 389.506,-265.64 342.208,-253.202 342.252,-233.077 436.76,-233.077 436.804,-253.202"/>
<text text-anchor="middle" x="389.506" y="-243.94" font-family="Times,serif" font-size="14.00" fill="#ebc72d">Temple</text>
</a>
</g>
</g>
<!-- slave&#45;&gt;temple -->
<g id="edge39" class="edge"><title>slave&#45;&gt;temple</title>
<path fill="none" stroke="#ebc72d" stroke-width="2" d="M1538.82,-333.461C1385.04,-331.326 697.278,-319.732 487.506,-280.853 466.011,-276.869 442.734,-269.361 424.261,-262.595"/>
<polygon fill="#ebc72d" stroke="#ebc72d" stroke-width="2" points="425.397,-259.283 414.805,-259.043 422.936,-265.836 425.397,-259.283"/>
</g>
<!-- temple&#45;&gt;fire_archer -->
<g id="edge43" class="edge"><title>temple&#45;&gt;fire_archer</title>
<path fill="none" stroke="#ebc72d" stroke-dasharray="1,5" d="M437.026,-241.841C587.998,-226.583 1047.02,-180.083 1050.51,-178.426 1093.64,-157.902 1082.91,-121.949 1126.51,-102.426 1255.5,-44.6635 1621.73,-87.3905 1761.51,-66.4264 1790.62,-62.0603 1822.72,-54.2169 1847.86,-47.3628"/>
<polygon fill="#ebc72d" stroke="#ebc72d" points="1849.13,-50.6434 1857.83,-44.5979 1847.25,-43.898 1849.13,-50.6434"/>
</g>
<!-- bless_of_minerva -->
<g id="node28" class="node"><title>bless_of_minerva</title>
<g id="a_node28"><a xlink:href="romans_bless_of_minerva_full.html" xlink:title="Bless\nOf Minerva">
<polygon fill="none" stroke="green" points="473.46,-178.426 339.908,-178.426 305.552,-102.426 439.104,-102.426 473.46,-178.426"/>
<text text-anchor="middle" x="389.506" y="-144.226" font-family="Times,serif" font-size="14.00" fill="#ebc72d">Bless</text>
<text text-anchor="middle" x="389.506" y="-129.226" font-family="Times,serif" font-size="14.00" fill="#ebc72d">Of Minerva</text>
</a>
</g>
</g>
<!-- temple&#45;&gt;bless_of_minerva -->
<g id="edge42" class="edge"><title>temple&#45;&gt;bless_of_minerva</title>
<path fill="none" stroke="#ebc72d" d="M389.506,-232.885C389.506,-221.644 389.506,-205.057 389.506,-189.084"/>
<polygon fill="#ebc72d" stroke="#ebc72d" points="393.006,-188.738 389.506,-178.738 386.006,-188.738 393.006,-188.738"/>
</g>
<!-- sign_of_mars -->
<g id="node31" class="node"><title>sign_of_mars</title>
<g id="a_node31"><a xlink:href="romans_sign_of_mars_full.html" xlink:title="Sign\nOf Mars">
<polygon fill="none" stroke="green" points="249.637,-178.426 146.028,-178.426 119.374,-102.426 222.984,-102.426 249.637,-178.426"/>
<text text-anchor="middle" x="184.506" y="-144.226" font-family="Times,serif" font-size="14.00" fill="#ebc72d">Sign</text>
<text text-anchor="middle" x="184.506" y="-129.226" font-family="Times,serif" font-size="14.00" fill="#ebc72d">Of Mars</text>
</a>
</g>
</g>
<!-- temple&#45;&gt;sign_of_mars -->
<g id="edge45" class="edge"><title>temple&#45;&gt;sign_of_mars</title>
<path fill="none" stroke="#ebc72d" d="M362.706,-232.885C336.092,-219.226 294.094,-197.671 257.554,-178.917"/>
<polygon fill="#ebc72d" stroke="#ebc72d" points="258.889,-175.669 248.394,-174.216 255.693,-181.896 258.889,-175.669"/>
</g>
<!-- jupiter -->
<g id="node33" class="node"><title>jupiter</title>
<g id="a_node33"><a xlink:href="romans_jupiter_full.html" xlink:title="Jupiter">
<polygon fill="none" stroke="green" points="101.017,-158.426 20.6648,-158.426 -0.00577781,-122.426 80.3468,-122.426 101.017,-158.426"/>
<text text-anchor="middle" x="50.5058" y="-136.726" font-family="Times,serif" font-size="14.00" fill="#ebc72d">Jupiter</text>
</a>
</g>
</g>
<!-- temple&#45;&gt;jupiter -->
<g id="edge44" class="edge"><title>temple&#45;&gt;jupiter</title>
<path fill="none" stroke="#ebc72d" d="M342.178,-239.71C285.509,-230.372 188.479,-211.043 110.506,-178.426 101.205,-174.536 91.6763,-169.317 83.0302,-164.029"/>
<polygon fill="#ebc72d" stroke="#ebc72d" points="84.7049,-160.946 74.3858,-158.545 80.955,-166.857 84.7049,-160.946"/>
</g>
<!-- formations&#45;&gt;turtle_formation -->
<g id="edge22" class="edge"><title>formations&#45;&gt;turtle_formation</title>
<path fill="none" stroke="#ebc72d" stroke-dasharray="1,5" d="M569.484,-122.288C533.055,-104.461 475.841,-76.4624 435.724,-56.8305"/>
<polygon fill="#ebc72d" stroke="#ebc72d" points="437.199,-53.6558 426.678,-52.4039 434.122,-59.9433 437.199,-53.6558"/>
</g>
<!-- formations&#45;&gt;general -->
<g id="edge21" class="edge"><title>formations&#45;&gt;general</title>
<path fill="none" stroke="#ebc72d" stroke-dasharray="1,5" d="M640.669,-122.307C656.587,-115.319 675.686,-107.667 693.506,-102.426 780.153,-76.9426 805.165,-85.2192 893.506,-66.4264 923.234,-60.1023 956.486,-51.9119 982.05,-45.3725"/>
<polygon fill="#ebc72d" stroke="#ebc72d" points="982.985,-48.7459 991.797,-42.8639 981.24,-41.9668 982.985,-48.7459"/>
</g>
<!-- strengthen_swords&#45;&gt;guard -->
<g id="edge41" class="edge"><title>strengthen_swords&#45;&gt;guard</title>
<path fill="none" stroke="#ebc72d" stroke-dasharray="1,5" d="M1869.06,-116.203C1880.61,-111.364 1892.89,-106.501 1904.51,-102.426 1975.61,-77.4848 2060.82,-55.3774 2109.41,-43.4803"/>
<polygon fill="#ebc72d" stroke="#ebc72d" points="2110.32,-46.8624 2119.21,-41.0992 2108.66,-40.0604 2110.32,-46.8624"/>
</g>
<!-- bless_of_minerva&#45;&gt;ballista -->
<g id="edge17" class="edge"><title>bless_of_minerva&#45;&gt;ballista</title>
<path fill="none" stroke="#ebc72d" stroke-dasharray="1,5" d="M446.066,-117.495C459.593,-112.41 474.022,-107.117 487.506,-102.426 547.471,-81.5656 617.723,-59.6475 660.921,-46.4553"/>
<polygon fill="#ebc72d" stroke="#ebc72d" points="661.96,-49.7979 670.506,-43.5359 659.92,-43.1016 661.96,-49.7979"/>
</g>
<!-- bless_of_minerva&#45;&gt;turtle_formation -->
<g id="edge19" class="edge"><title>bless_of_minerva&#45;&gt;turtle_formation</title>
<path fill="none" stroke="#ebc72d" stroke-dasharray="1,5" d="M389.506,-102.332C389.506,-91.8603 389.506,-80.4878 389.506,-70.0889"/>
<polygon fill="#ebc72d" stroke="#ebc72d" points="393.006,-70.0839 389.506,-60.0839 386.006,-70.0839 393.006,-70.0839"/>
</g>
<!-- bless_of_minerva&#45;&gt;tribune -->
<g id="edge18" class="edge"><title>bless_of_minerva&#45;&gt;tribune</title>
<path fill="none" stroke="#ebc72d" stroke-dasharray="1,5" d="M439.813,-102.923C462.086,-86.7619 487.451,-68.3566 506.32,-54.6653"/>
<polygon fill="#ebc72d" stroke="#ebc72d" points="508.459,-57.4371 514.498,-48.7313 504.348,-51.7715 508.459,-57.4371"/>
</g>
<!-- advanced_architecture&#45;&gt;guard_tower -->
<g id="edge3" class="edge"><title>advanced_architecture&#45;&gt;guard_tower</title>
<path fill="none" stroke="#ebc72d" stroke-dasharray="1,5" d="M913.961,-102.332C899.474,-89.0778 883.409,-74.3806 869.922,-62.0409"/>
<polygon fill="#ebc72d" stroke="#ebc72d" points="872.05,-59.2444 862.31,-55.0766 867.325,-64.4091 872.05,-59.2444"/>
</g>
<!-- advanced_architecture&#45;&gt;eagle_pillar -->
<g id="edge2" class="edge"><title>advanced_architecture&#45;&gt;eagle_pillar</title>
<path fill="none" stroke="#ebc72d" stroke-dasharray="1,5" d="M1012.14,-115.039C1026.11,-110.049 1041.15,-105.414 1055.51,-102.426 1319.65,-47.4376 1405.04,-150.231 1661.51,-66.4264 1667.29,-64.5361 1673.06,-61.8087 1678.52,-58.73"/>
<polygon fill="#ebc72d" stroke="#ebc72d" points="1680.67,-61.5191 1687.35,-53.3026 1677,-55.5546 1680.67,-61.5191"/>
</g>
<!-- advanced_architecture&#45;&gt;battering_ram -->
<g id="edge1" class="edge"><title>advanced_architecture&#45;&gt;battering_ram</title>
<path fill="none" stroke="#ebc72d" stroke-dasharray="1,5" d="M1012.82,-116.604C1026.7,-111.582 1041.53,-106.54 1055.51,-102.426 1141.08,-77.2362 1242.58,-56.1173 1303.7,-44.3271"/>
<polygon fill="#ebc72d" stroke="#ebc72d" points="1304.72,-47.6941 1313.89,-42.3755 1303.41,-40.8191 1304.72,-47.6941"/>
</g>
</g>
</svg>
