<?xml version="1.0" encoding="UTF-8" standalone="no"?>
<!DOCTYPE svg PUBLIC "-//W3C//DTD SVG 1.1//EN"
 "http://www.w3.org/Graphics/SVG/1.1/DTD/svg11.dtd">
<!-- Generated by graphviz version 2.38.0 (20140413.2041)
 -->
<!-- Title: test Pages: 1 -->
<svg width="1449pt" height="411pt"
 viewBox="0.00 0.00 1448.95 410.59" xmlns="http://www.w3.org/2000/svg" xmlns:xlink="http://www.w3.org/1999/xlink">
<g id="graph0" class="graph" transform="scale(1 1) rotate(0) translate(4 406.593)">
<title>test</title>
<polygon fill="#151515" stroke="none" points="-4,4 -4,-406.593 1444.95,-406.593 1444.95,4 -4,4"/>
<!-- axe_man -->
<g id="node1" class="node"><title>axe_man</title>
<g id="a_node1"><a xlink:href="romans_axe_man_full.html" xlink:title="Axe\nMan">
<ellipse fill="none" stroke="magenta" cx="1190.61" cy="-122.953" rx="29.8983" ry="26.7407"/>
<text text-anchor="middle" x="1190.61" y="-126.753" font-family="Times,serif" font-size="14.00" fill="#ebc72d">Axe</text>
<text text-anchor="middle" x="1190.61" y="-111.753" font-family="Times,serif" font-size="14.00" fill="#ebc72d">Man</text>
</a>
</g>
</g>
<!-- cow -->
<g id="node2" class="node"><title>cow</title>
<g id="a_node2"><a xlink:href="romans_cow_full.html" xlink:title="Cow">
<ellipse fill="none" stroke="magenta" cx="118.607" cy="-312.593" rx="27.0966" ry="18"/>
<text text-anchor="middle" x="118.607" y="-308.893" font-family="Times,serif" font-size="14.00" fill="#ebc72d">Cow</text>
</a>
</g>
</g>
<!-- cavalry -->
<g id="node3" class="node"><title>cavalry</title>
<g id="a_node3"><a xlink:href="romans_cavalry_full.html" xlink:title="Cavalry">
<ellipse fill="none" stroke="magenta" cx="267.607" cy="-122.953" rx="38.1938" ry="18"/>
<text text-anchor="middle" x="267.607" y="-119.253" font-family="Times,serif" font-size="14.00" fill="#ebc72d">Cavalry</text>
</a>
</g>
</g>
<!-- tribune -->
<g id="node23" class="node"><title>tribune</title>
<g id="a_node23"><a xlink:href="romans_tribune_full.html" xlink:title="Tribune">
<ellipse fill="none" stroke="magenta" cx="267.607" cy="-26.8701" rx="38.1938" ry="18"/>
<text text-anchor="middle" x="267.607" y="-23.1701" font-family="Times,serif" font-size="14.00" fill="#ebc72d">Tribune</text>
</a>
</g>
</g>
<!-- cavalry&#45;&gt;tribune -->
<g id="edge13" class="edge"><title>cavalry&#45;&gt;tribune</title>
<path fill="none" stroke="#ebc72d" stroke-dasharray="5,2" d="M267.607,-104.697C267.607,-90.9043 267.607,-71.3082 267.607,-55.3595"/>
<polygon fill="#ebc72d" stroke="#ebc72d" points="271.107,-55.0169 267.607,-45.017 264.107,-55.017 271.107,-55.0169"/>
</g>
<!-- military_camp -->
<g id="node4" class="node"><title>military_camp</title>
<g id="a_node4"><a xlink:href="romans_military_camp_full.html" xlink:title="Military\nCamp">
<polygon fill="none" stroke="red" points="421.988,-235.71 367.607,-258.808 313.227,-235.71 313.277,-198.336 421.937,-198.336 421.988,-235.71"/>
<text text-anchor="middle" x="367.607" y="-229.18" font-family="Times,serif" font-size="14.00" fill="#ebc72d">Military</text>
<text text-anchor="middle" x="367.607" y="-214.18" font-family="Times,serif" font-size="14.00" fill="#ebc72d">Camp</text>
</a>
</g>
</g>
<!-- military_camp&#45;&gt;cavalry -->
<g id="edge22" class="edge"><title>military_camp&#45;&gt;cavalry</title>
<path fill="none" stroke="#ebc72d" d="M341.595,-198.256C325.825,-182.419 305.883,-162.393 290.678,-147.122"/>
<polygon fill="#ebc72d" stroke="#ebc72d" points="292.741,-144.234 283.205,-139.617 287.781,-149.173 292.741,-144.234"/>
</g>
<!-- wartime_mechanic -->
<g id="node6" class="node"><title>wartime_mechanic</title>
<g id="a_node6"><a xlink:href="romans_wartime_mechanic_full.html" xlink:title="Wartime\nMechanic">
<ellipse fill="none" stroke="magenta" cx="571.607" cy="-122.953" rx="50.41" ry="26.7407"/>
<text text-anchor="middle" x="571.607" y="-126.753" font-family="Times,serif" font-size="14.00" fill="#ebc72d">Wartime</text>
<text text-anchor="middle" x="571.607" y="-111.753" font-family="Times,serif" font-size="14.00" fill="#ebc72d">Mechanic</text>
</a>
</g>
</g>
<!-- military_camp&#45;&gt;wartime_mechanic -->
<g id="edge27" class="edge"><title>military_camp&#45;&gt;wartime_mechanic</title>
<path fill="none" stroke="#ebc72d" d="M420.673,-198.256C453.412,-182.14 494.964,-161.684 526.178,-146.317"/>
<polygon fill="#ebc72d" stroke="#ebc72d" points="528.087,-149.279 535.512,-141.722 524.995,-142.999 528.087,-149.279"/>
</g>
<!-- ballista -->
<g id="node7" class="node"><title>ballista</title>
<g id="a_node7"><a xlink:href="romans_ballista_full.html" xlink:title="Ballista">
<ellipse fill="none" stroke="magenta" cx="363.607" cy="-26.8701" rx="37.8943" ry="18"/>
<text text-anchor="middle" x="363.607" y="-23.1701" font-family="Times,serif" font-size="14.00" fill="#ebc72d">Ballista</text>
</a>
</g>
</g>
<!-- military_camp&#45;&gt;ballista -->
<g id="edge20" class="edge"><title>military_camp&#45;&gt;ballista</title>
<path fill="none" stroke="#ebc72d" stroke-dasharray="1,5" d="M350.723,-198.071C339.898,-178.122 328.716,-149.817 333.607,-123.953"/>
<path fill="none" stroke="#ebc72d" stroke-dasharray="1,5" d="M333.607,-121.953C338.016,-98.6432 346.423,-73.0443 353.219,-54.4415"/>
<polygon fill="#ebc72d" stroke="#ebc72d" points="356.568,-55.4777 356.793,-44.8852 350.012,-53.0256 356.568,-55.4777"/>
</g>
<!-- guard_tower -->
<g id="node11" class="node"><title>guard_tower</title>
<g id="a_node11"><a xlink:href="romans_guard_tower_full.html" xlink:title="Guard\nTower">
<polygon fill="none" stroke="red" points="111.007,-133.283 65.6073,-156.381 20.208,-133.283 20.2503,-95.9097 110.964,-95.9097 111.007,-133.283"/>
<text text-anchor="middle" x="65.6073" y="-126.753" font-family="Times,serif" font-size="14.00" fill="#ebc72d">Guard</text>
<text text-anchor="middle" x="65.6073" y="-111.753" font-family="Times,serif" font-size="14.00" fill="#ebc72d">Tower</text>
</a>
</g>
</g>
<!-- military_camp&#45;&gt;guard_tower -->
<g id="edge25" class="edge"><title>military_camp&#45;&gt;guard_tower</title>
<path fill="none" stroke="#ebc72d" stroke-dasharray="1,5" d="M313.25,-213.647C262.274,-202.593 184.539,-183.169 120.607,-156.167 114.653,-153.652 108.554,-150.608 102.684,-147.407"/>
<polygon fill="#ebc72d" stroke="#ebc72d" points="104.127,-144.201 93.7043,-142.301 100.667,-150.287 104.127,-144.201"/>
</g>
<!-- turtle_formation -->
<g id="node14" class="node"><title>turtle_formation</title>
<g id="a_node14"><a xlink:href="romans_turtle_formation_full.html" xlink:title="Turtle\nFormation">
<ellipse fill="none" stroke="magenta" cx="413.607" cy="-122.953" rx="52.1524" ry="26.7407"/>
<text text-anchor="middle" x="413.607" y="-126.753" font-family="Times,serif" font-size="14.00" fill="#ebc72d">Turtle</text>
<text text-anchor="middle" x="413.607" y="-111.753" font-family="Times,serif" font-size="14.00" fill="#ebc72d">Formation</text>
</a>
</g>
</g>
<!-- military_camp&#45;&gt;turtle_formation -->
<g id="edge26" class="edge"><title>military_camp&#45;&gt;turtle_formation</title>
<path fill="none" stroke="#ebc72d" d="M379.573,-198.256C385.143,-186.097 391.843,-171.468 397.821,-158.418"/>
<polygon fill="#ebc72d" stroke="#ebc72d" points="401.037,-159.802 402.019,-149.253 394.673,-156.887 401.037,-159.802"/>
</g>
<!-- eagle_pillar -->
<g id="node16" class="node"><title>eagle_pillar</title>
<g id="a_node16"><a xlink:href="romans_eagle_pillar_full.html" xlink:title="Eagle\nPillar">
<polygon fill="none" stroke="red" points="211.767,-133.283 170.607,-156.381 129.448,-133.283 129.487,-95.9097 211.728,-95.9097 211.767,-133.283"/>
<text text-anchor="middle" x="170.607" y="-126.753" font-family="Times,serif" font-size="14.00" fill="#ebc72d">Eagle</text>
<text text-anchor="middle" x="170.607" y="-111.753" font-family="Times,serif" font-size="14.00" fill="#ebc72d">Pillar</text>
</a>
</g>
</g>
<!-- military_camp&#45;&gt;eagle_pillar -->
<g id="edge23" class="edge"><title>military_camp&#45;&gt;eagle_pillar</title>
<path fill="none" stroke="#ebc72d" stroke-dasharray="1,5" d="M313.31,-201.333C285.183,-188.86 250.55,-172.657 220.607,-156.167 215.689,-153.458 210.604,-150.447 205.646,-147.383"/>
<polygon fill="#ebc72d" stroke="#ebc72d" points="207.243,-144.252 196.92,-141.868 203.503,-150.169 207.243,-144.252"/>
</g>
<!-- general -->
<g id="node17" class="node"><title>general</title>
<g id="a_node17"><a xlink:href="romans_general_full.html" xlink:title="General">
<ellipse fill="none" stroke="magenta" cx="791.607" cy="-122.953" rx="38.1938" ry="18"/>
<text text-anchor="middle" x="791.607" y="-119.253" font-family="Times,serif" font-size="14.00" fill="#ebc72d">General</text>
</a>
</g>
</g>
<!-- military_camp&#45;&gt;general -->
<g id="edge24" class="edge"><title>military_camp&#45;&gt;general</title>
<path fill="none" stroke="#ebc72d" d="M422.012,-204.657C435.203,-200.23 449.332,-195.779 462.607,-192.167 489.826,-184.76 663.746,-149.602 747.134,-132.858"/>
<polygon fill="#ebc72d" stroke="#ebc72d" points="747.962,-136.262 757.078,-130.863 746.585,-129.399 747.962,-136.262"/>
</g>
<!-- catapult -->
<g id="node18" class="node"><title>catapult</title>
<g id="a_node18"><a xlink:href="romans_catapult_full.html" xlink:title="Catapult">
<ellipse fill="none" stroke="magenta" cx="463.607" cy="-26.8701" rx="40.0939" ry="18"/>
<text text-anchor="middle" x="463.607" y="-23.1701" font-family="Times,serif" font-size="14.00" fill="#ebc72d">Catapult</text>
</a>
</g>
</g>
<!-- military_camp&#45;&gt;catapult -->
<g id="edge21" class="edge"><title>military_camp&#45;&gt;catapult</title>
<path fill="none" stroke="#ebc72d" stroke-dasharray="1,5" d="M333.607,-121.953C336.696,-105.621 340.711,-101.349 352.607,-89.7401 364.417,-78.2151 400.326,-59.0336 428.137,-45.0788"/>
<polygon fill="#ebc72d" stroke="#ebc72d" points="429.817,-48.1524 437.212,-40.5652 426.7,-41.8848 429.817,-48.1524"/>
</g>
<!-- training_camp -->
<g id="node5" class="node"><title>training_camp</title>
<g id="a_node5"><a xlink:href="romans_training_camp_full.html" xlink:title="Training\nCamp">
<polygon fill="none" stroke="red" points="1145.74,-235.71 1090.61,-258.808 1035.48,-235.71 1035.53,-198.336 1145.68,-198.336 1145.74,-235.71"/>
<text text-anchor="middle" x="1090.61" y="-229.18" font-family="Times,serif" font-size="14.00" fill="#ebc72d">Training</text>
<text text-anchor="middle" x="1090.61" y="-214.18" font-family="Times,serif" font-size="14.00" fill="#ebc72d">Camp</text>
</a>
</g>
</g>
<!-- training_camp&#45;&gt;axe_man -->
<g id="edge39" class="edge"><title>training_camp&#45;&gt;axe_man</title>
<path fill="none" stroke="#ebc72d" stroke-dasharray="1,5" d="M1116.62,-198.256C1131.11,-183.706 1149.12,-165.619 1163.74,-150.934"/>
<polygon fill="#ebc72d" stroke="#ebc72d" points="1166.47,-153.156 1171.04,-143.601 1161.51,-148.217 1166.47,-153.156"/>
</g>
<!-- training_camp&#45;&gt;wartime_mechanic -->
<g id="edge45" class="edge"><title>training_camp&#45;&gt;wartime_mechanic</title>
<path fill="none" stroke="#ebc72d" stroke-dasharray="1,5" d="M1035.47,-209.712C1012.43,-203.843 985.313,-197.278 960.607,-192.167 865.302,-172.447 840.451,-173.075 744.607,-156.167 705.89,-149.336 662.382,-141.233 628.684,-134.862"/>
<polygon fill="#ebc72d" stroke="#ebc72d" points="629.033,-131.366 618.556,-132.944 627.73,-138.244 629.033,-131.366"/>
</g>
<!-- fire_archer -->
<g id="node10" class="node"><title>fire_archer</title>
<g id="a_node10"><a xlink:href="romans_fire_archer_full.html" xlink:title="Fire\nArcher">
<ellipse fill="none" stroke="magenta" cx="1273.61" cy="-26.8701" rx="38.3684" ry="26.7407"/>
<text text-anchor="middle" x="1273.61" y="-30.6701" font-family="Times,serif" font-size="14.00" fill="#ebc72d">Fire</text>
<text text-anchor="middle" x="1273.61" y="-15.6701" font-family="Times,serif" font-size="14.00" fill="#ebc72d">Archer</text>
</a>
</g>
</g>
<!-- training_camp&#45;&gt;fire_archer -->
<g id="edge40" class="edge"><title>training_camp&#45;&gt;fire_archer</title>
<path fill="none" stroke="#ebc72d" stroke-dasharray="1,5" d="M1145.93,-221.412C1232.22,-215.498 1392.65,-198.908 1427.61,-156.167 1446.3,-133.314 1444.14,-114.2 1427.61,-89.7401 1404.11,-54.9774 1357.51,-39.7437 1321.7,-33.0697"/>
<polygon fill="#ebc72d" stroke="#ebc72d" points="1321.89,-29.5515 1311.44,-31.3329 1320.72,-36.4533 1321.89,-29.5515"/>
</g>
<!-- swordsman -->
<g id="node12" class="node"><title>swordsman</title>
<g id="a_node12"><a xlink:href="romans_swordsman_full.html" xlink:title="Swordsman">
<ellipse fill="none" stroke="magenta" cx="1090.61" cy="-122.953" rx="52.7911" ry="18"/>
<text text-anchor="middle" x="1090.61" y="-119.253" font-family="Times,serif" font-size="14.00" fill="#ebc72d">Swordsman</text>
</a>
</g>
</g>
<!-- training_camp&#45;&gt;swordsman -->
<g id="edge44" class="edge"><title>training_camp&#45;&gt;swordsman</title>
<path fill="none" stroke="#ebc72d" d="M1090.61,-198.256C1090.61,-183.899 1090.61,-166.099 1090.61,-151.521"/>
<polygon fill="#ebc72d" stroke="#ebc72d" points="1094.11,-151.111 1090.61,-141.111 1087.11,-151.111 1094.11,-151.111"/>
</g>
<!-- spearman -->
<g id="node13" class="node"><title>spearman</title>
<g id="a_node13"><a xlink:href="romans_spearman_full.html" xlink:title="Spearman">
<ellipse fill="none" stroke="magenta" cx="1372.61" cy="-122.953" rx="46.2923" ry="18"/>
<text text-anchor="middle" x="1372.61" y="-119.253" font-family="Times,serif" font-size="14.00" fill="#ebc72d">Spearman</text>
</a>
</g>
</g>
<!-- training_camp&#45;&gt;spearman -->
<g id="edge43" class="edge"><title>training_camp&#45;&gt;spearman</title>
<path fill="none" stroke="#ebc72d" d="M1146.03,-211.66C1192.81,-200.002 1261.02,-180.821 1317.61,-156.167 1325.38,-152.779 1333.43,-148.533 1340.89,-144.245"/>
<polygon fill="#ebc72d" stroke="#ebc72d" points="1343.16,-146.971 1349.97,-138.854 1339.58,-140.953 1343.16,-146.971"/>
</g>
<!-- training_camp&#45;&gt;general -->
<g id="edge41" class="edge"><title>training_camp&#45;&gt;general</title>
<path fill="none" stroke="#ebc72d" stroke-dasharray="1,5" d="M1035.35,-210.378C967.011,-192.905 857.477,-164.323 839.607,-156.167 832.703,-153.015 825.689,-148.914 819.233,-144.7"/>
<polygon fill="#ebc72d" stroke="#ebc72d" points="821.068,-141.715 810.837,-138.962 817.118,-147.494 821.068,-141.715"/>
</g>
<!-- archer -->
<g id="node19" class="node"><title>archer</title>
<g id="a_node19"><a xlink:href="romans_archer_full.html" xlink:title="Archer">
<ellipse fill="none" stroke="magenta" cx="1273.61" cy="-122.953" rx="35.194" ry="18"/>
<text text-anchor="middle" x="1273.61" y="-119.253" font-family="Times,serif" font-size="14.00" fill="#ebc72d">Archer</text>
</a>
</g>
</g>
<!-- training_camp&#45;&gt;archer -->
<g id="edge38" class="edge"><title>training_camp&#45;&gt;archer</title>
<path fill="none" stroke="#ebc72d" d="M1145.91,-199.973C1171.89,-187.826 1202.93,-172.308 1229.61,-156.167 1235.35,-152.693 1241.28,-148.674 1246.86,-144.677"/>
<polygon fill="#ebc72d" stroke="#ebc72d" points="1249.28,-147.243 1255.26,-138.497 1245.14,-141.604 1249.28,-147.243"/>
</g>
<!-- guard -->
<g id="node24" class="node"><title>guard</title>
<g id="a_node24"><a xlink:href="romans_guard_full.html" xlink:title="Guard">
<ellipse fill="none" stroke="magenta" cx="987.607" cy="-122.953" rx="32.4942" ry="18"/>
<text text-anchor="middle" x="987.607" y="-119.253" font-family="Times,serif" font-size="14.00" fill="#ebc72d">Guard</text>
</a>
</g>
</g>
<!-- training_camp&#45;&gt;guard -->
<g id="edge42" class="edge"><title>training_camp&#45;&gt;guard</title>
<path fill="none" stroke="#ebc72d" d="M1063.81,-198.256C1047.22,-182.074 1026.13,-161.518 1010.35,-146.131"/>
<polygon fill="#ebc72d" stroke="#ebc72d" points="1012.68,-143.509 1003.07,-139.034 1007.79,-148.521 1012.68,-143.509"/>
</g>
<!-- wartime_mechanic&#45;&gt;ballista -->
<g id="edge46" class="edge"><title>wartime_mechanic&#45;&gt;ballista</title>
<path fill="none" stroke="#ebc72d" stroke-dasharray="5,2" d="M536.69,-103.611C527.331,-98.9057 517.157,-93.98 507.607,-89.7401 467.098,-71.7555 455.088,-71.788 414.607,-53.7401 408.776,-51.1401 402.655,-48.2138 396.759,-45.2891"/>
<polygon fill="#ebc72d" stroke="#ebc72d" points="398.257,-42.1246 387.753,-40.7418 395.102,-48.3733 398.257,-42.1246"/>
</g>
<!-- wartime_mechanic&#45;&gt;catapult -->
<g id="edge48" class="edge"><title>wartime_mechanic&#45;&gt;catapult</title>
<path fill="none" stroke="#ebc72d" stroke-dasharray="5,2" d="M546.013,-99.6569C528.859,-84.7136 506.359,-65.1132 489.205,-50.1693"/>
<polygon fill="#ebc72d" stroke="#ebc72d" points="491.099,-47.1776 481.26,-43.2481 486.501,-52.4557 491.099,-47.1776"/>
</g>
<!-- battering_ram -->
<g id="node25" class="node"><title>battering_ram</title>
<g id="a_node25"><a xlink:href="romans_battering_ram_full.html" xlink:title="Battering\nRam">
<ellipse fill="none" stroke="magenta" cx="648.607" cy="-26.8701" rx="47.2526" ry="26.7407"/>
<text text-anchor="middle" x="648.607" y="-30.6701" font-family="Times,serif" font-size="14.00" fill="#ebc72d">Battering</text>
<text text-anchor="middle" x="648.607" y="-15.6701" font-family="Times,serif" font-size="14.00" fill="#ebc72d">Ram</text>
</a>
</g>
</g>
<!-- wartime_mechanic&#45;&gt;battering_ram -->
<g id="edge47" class="edge"><title>wartime_mechanic&#45;&gt;battering_ram</title>
<path fill="none" stroke="#ebc72d" stroke-dasharray="5,2" d="M591.437,-97.7246C600.941,-86.1123 612.447,-72.053 622.639,-59.6003"/>
<polygon fill="#ebc72d" stroke="#ebc72d" points="625.487,-61.6465 629.112,-51.691 620.07,-57.213 625.487,-61.6465"/>
</g>
<!-- gladiator -->
<g id="node8" class="node"><title>gladiator</title>
<g id="a_node8"><a xlink:href="romans_gladiator_full.html" xlink:title="Gladiator">
<ellipse fill="none" stroke="magenta" cx="892.607" cy="-122.953" rx="44.393" ry="18"/>
<text text-anchor="middle" x="892.607" y="-119.253" font-family="Times,serif" font-size="14.00" fill="#ebc72d">Gladiator</text>
</a>
</g>
</g>
<!-- forum -->
<g id="node9" class="node"><title>forum</title>
<g id="a_node9"><a xlink:href="romans_forum_full.html" xlink:title="Forum">
<polygon fill="none" stroke="red" points="216.265,-390.155 173.607,-402.593 130.95,-390.155 130.989,-370.031 216.225,-370.031 216.265,-390.155"/>
<text text-anchor="middle" x="173.607" y="-380.893" font-family="Times,serif" font-size="14.00" fill="#ebc72d">Forum</text>
</a>
</g>
</g>
<!-- forum&#45;&gt;cow -->
<g id="edge15" class="edge"><title>forum&#45;&gt;cow</title>
<path fill="none" stroke="#ebc72d" d="M162.741,-369.763C155.357,-360.365 145.409,-347.705 136.828,-336.783"/>
<polygon fill="#ebc72d" stroke="#ebc72d" points="139.527,-334.553 130.597,-328.852 134.023,-338.878 139.527,-334.553"/>
</g>
<!-- forum&#45;&gt;cavalry -->
<g id="edge14" class="edge"><title>forum&#45;&gt;cavalry</title>
<path fill="none" stroke="#ebc72d" stroke-dasharray="1,5" d="M173.607,-311.593C150.996,-249.35 207.874,-180.906 242.768,-146.441"/>
<polygon fill="#ebc72d" stroke="#ebc72d" points="245.489,-148.68 250.264,-139.222 240.633,-143.638 245.489,-148.68"/>
</g>
<!-- slave -->
<g id="node21" class="node"><title>slave</title>
<g id="a_node21"><a xlink:href="romans_slave_full.html" xlink:title="Slave">
<ellipse fill="none" stroke="magenta" cx="518.607" cy="-312.593" rx="30.5947" ry="18"/>
<text text-anchor="middle" x="518.607" y="-308.893" font-family="Times,serif" font-size="14.00" fill="#ebc72d">Slave</text>
</a>
</g>
</g>
<!-- forum&#45;&gt;slave -->
<g id="edge16" class="edge"><title>forum&#45;&gt;slave</title>
<path fill="none" stroke="#ebc72d" d="M226.291,-372.904C296.184,-358.722 417.936,-334.019 479.935,-321.439"/>
<polygon fill="#ebc72d" stroke="#ebc72d" points="225.361,-369.521 216.257,-374.939 226.753,-376.381 225.361,-369.521"/>
<polygon fill="#ebc72d" stroke="#ebc72d" points="480.97,-324.801 490.074,-319.382 479.578,-317.941 480.97,-324.801"/>
</g>
<!-- forum&#45;&gt;tribune -->
<g id="edge17" class="edge"><title>forum&#45;&gt;tribune</title>
<path fill="none" stroke="#ebc72d" stroke-dasharray="1,5" d="M176.104,-370.026C178.188,-355.616 179.912,-332.372 173.607,-313.593"/>
<path fill="none" stroke="#ebc72d" stroke-dasharray="1,5" d="M173.607,-311.593C169.638,-299.769 16.4994,-167.639 11.6073,-156.167 0.0276638,-129.009 -6.65253,-112.939 11.6073,-89.7401 37.0758,-57.3833 153.43,-39.9307 220.173,-32.427"/>
<polygon fill="#ebc72d" stroke="#ebc72d" points="220.876,-35.8711 230.438,-31.3073 220.117,-28.9124 220.876,-35.8711"/>
</g>
<!-- gladiator_school -->
<g id="node15" class="node"><title>gladiator_school</title>
<g id="a_node15"><a xlink:href="romans_gladiator_school_full.html" xlink:title="Gladiator\nSchool">
<polygon fill="none" stroke="red" points="951.976,-235.71 892.607,-258.808 833.239,-235.71 833.294,-198.336 951.92,-198.336 951.976,-235.71"/>
<text text-anchor="middle" x="892.607" y="-229.18" font-family="Times,serif" font-size="14.00" fill="#ebc72d">Gladiator</text>
<text text-anchor="middle" x="892.607" y="-214.18" font-family="Times,serif" font-size="14.00" fill="#ebc72d">School</text>
</a>
</g>
</g>
<!-- gladiator_school&#45;&gt;axe_man -->
<g id="edge18" class="edge"><title>gladiator_school&#45;&gt;axe_man</title>
<path fill="none" stroke="#ebc72d" d="M952.157,-210.234C1023.23,-193.119 1134.78,-165.444 1152.61,-156.167 1156.13,-154.332 1159.61,-152.119 1162.96,-149.722"/>
<polygon fill="#ebc72d" stroke="#ebc72d" points="1165.2,-152.412 1170.92,-143.496 1160.89,-146.896 1165.2,-152.412"/>
</g>
<!-- gladiator_school&#45;&gt;gladiator -->
<g id="edge19" class="edge"><title>gladiator_school&#45;&gt;gladiator</title>
<path fill="none" stroke="#ebc72d" d="M892.607,-198.256C892.607,-183.899 892.607,-166.099 892.607,-151.521"/>
<polygon fill="#ebc72d" stroke="#ebc72d" points="896.107,-151.111 892.607,-141.111 889.107,-151.111 896.107,-151.111"/>
</g>
<!-- archer&#45;&gt;fire_archer -->
<g id="edge1" class="edge"><title>archer&#45;&gt;fire_archer</title>
<path fill="none" stroke="#ebc72d" stroke-dasharray="5,2" d="M1273.61,-104.697C1273.61,-93.3678 1273.61,-78.123 1273.61,-64.2003"/>
<polygon fill="#ebc72d" stroke="#ebc72d" points="1277.11,-63.8979 1273.61,-53.8979 1270.11,-63.898 1277.11,-63.8979"/>
</g>
<!-- blacksmith_shop -->
<g id="node20" class="node"><title>blacksmith_shop</title>
<g id="a_node20"><a xlink:href="romans_blacksmith_shop_full.html" xlink:title="Blacksmith\nShop">
<polygon fill="none" stroke="red" points="756.704,-235.71 687.607,-258.808 618.51,-235.71 618.575,-198.336 756.64,-198.336 756.704,-235.71"/>
<text text-anchor="middle" x="687.607" y="-229.18" font-family="Times,serif" font-size="14.00" fill="#ebc72d">Blacksmith</text>
<text text-anchor="middle" x="687.607" y="-214.18" font-family="Times,serif" font-size="14.00" fill="#ebc72d">Shop</text>
</a>
</g>
</g>
<!-- blacksmith_shop&#45;&gt;axe_man -->
<g id="edge2" class="edge"><title>blacksmith_shop&#45;&gt;axe_man</title>
<path fill="none" stroke="#ebc72d" stroke-dasharray="1,5" d="M756.968,-206.343C778.529,-201.203 802.453,-195.972 824.607,-192.167 969.143,-167.337 1017.89,-214.118 1152.61,-156.167 1156.34,-154.559 1159.99,-152.455 1163.45,-150.091"/>
<polygon fill="#ebc72d" stroke="#ebc72d" points="1165.83,-152.68 1171.63,-143.815 1161.57,-147.127 1165.83,-152.68"/>
</g>
<!-- blacksmith_shop&#45;&gt;cavalry -->
<g id="edge5" class="edge"><title>blacksmith_shop&#45;&gt;cavalry</title>
<path fill="none" stroke="#ebc72d" stroke-dasharray="1,5" d="M618.361,-203.017C603.989,-199.041 588.876,-195.193 574.607,-192.167 462.64,-168.421 427.226,-195.138 319.607,-156.167 311.282,-153.152 302.864,-148.684 295.297,-144.029"/>
<polygon fill="#ebc72d" stroke="#ebc72d" points="297.155,-141.062 286.861,-138.555 293.344,-146.934 297.155,-141.062"/>
</g>
<!-- blacksmith_shop&#45;&gt;wartime_mechanic -->
<g id="edge12" class="edge"><title>blacksmith_shop&#45;&gt;wartime_mechanic</title>
<path fill="none" stroke="#ebc72d" stroke-dasharray="1,5" d="M657.433,-198.256C641.395,-184.372 621.637,-167.267 605.123,-152.97"/>
<polygon fill="#ebc72d" stroke="#ebc72d" points="607.159,-150.102 597.308,-146.203 602.577,-155.395 607.159,-150.102"/>
</g>
<!-- blacksmith_shop&#45;&gt;gladiator -->
<g id="edge7" class="edge"><title>blacksmith_shop&#45;&gt;gladiator</title>
<path fill="none" stroke="#ebc72d" stroke-dasharray="1,5" d="M749.711,-198.225C777.284,-186.128 809.919,-171.142 838.607,-156.167 845.888,-152.366 853.553,-148.017 860.748,-143.771"/>
<polygon fill="#ebc72d" stroke="#ebc72d" points="862.769,-146.64 869.546,-138.495 859.169,-140.636 862.769,-146.64"/>
</g>
<!-- blacksmith_shop&#45;&gt;swordsman -->
<g id="edge9" class="edge"><title>blacksmith_shop&#45;&gt;swordsman</title>
<path fill="none" stroke="#ebc72d" stroke-dasharray="1,5" d="M756.784,-207.315C778.443,-202.187 802.47,-196.719 824.607,-192.167 914.788,-173.623 941.416,-185.733 1028.61,-156.167 1038.16,-152.929 1048.04,-148.397 1057.04,-143.753"/>
<polygon fill="#ebc72d" stroke="#ebc72d" points="1058.88,-146.735 1066.04,-138.923 1055.57,-140.567 1058.88,-146.735"/>
</g>
<!-- blacksmith_shop&#45;&gt;turtle_formation -->
<g id="edge11" class="edge"><title>blacksmith_shop&#45;&gt;turtle_formation</title>
<path fill="none" stroke="#ebc72d" stroke-dasharray="1,5" d="M618.366,-204.283C577.495,-191.777 525.034,-174.6 479.607,-156.167 472.784,-153.398 465.681,-150.239 458.771,-147.007"/>
<polygon fill="#ebc72d" stroke="#ebc72d" points="460.045,-143.737 449.513,-142.584 457.027,-150.053 460.045,-143.737"/>
</g>
<!-- blacksmith_shop&#45;&gt;general -->
<g id="edge6" class="edge"><title>blacksmith_shop&#45;&gt;general</title>
<path fill="none" stroke="#ebc72d" stroke-dasharray="1,5" d="M714.661,-198.256C731.212,-182.274 752.181,-162.025 768.048,-146.703"/>
<polygon fill="#ebc72d" stroke="#ebc72d" points="770.624,-149.082 775.386,-139.617 765.761,-144.046 770.624,-149.082"/>
</g>
<!-- blacksmith_shop&#45;&gt;catapult -->
<g id="edge4" class="edge"><title>blacksmith_shop&#45;&gt;catapult</title>
<path fill="none" stroke="#ebc72d" stroke-dasharray="1,5" d="M677.819,-198.22C663.829,-161.341 638.89,-97.6524 630.607,-89.7401 598.013,-58.6017 548.38,-42.8636 511.687,-35.084"/>
<polygon fill="#ebc72d" stroke="#ebc72d" points="512.197,-31.6168 501.706,-33.0946 510.829,-38.4818 512.197,-31.6168"/>
</g>
<!-- blacksmith_shop&#45;&gt;tribune -->
<g id="edge10" class="edge"><title>blacksmith_shop&#45;&gt;tribune</title>
<path fill="none" stroke="#ebc72d" stroke-dasharray="1,5" d="M618.451,-202.7C577.033,-188.721 529.279,-170.538 512.607,-156.167 486.845,-133.96 501.937,-109.987 474.607,-89.7401 416.736,-46.8678 384.141,-78.7671 316.607,-53.7401 310.944,-51.6415 305.112,-49.0163 299.534,-46.249"/>
<polygon fill="#ebc72d" stroke="#ebc72d" points="300.947,-43.039 290.461,-41.5257 297.715,-49.248 300.947,-43.039"/>
</g>
<!-- blacksmith_shop&#45;&gt;guard -->
<g id="edge8" class="edge"><title>blacksmith_shop&#45;&gt;guard</title>
<path fill="none" stroke="#ebc72d" stroke-dasharray="1,5" d="M756.692,-207.605C827.16,-190.256 928.53,-164.551 945.607,-156.167 951.67,-153.19 957.714,-149.267 963.25,-145.187"/>
<polygon fill="#ebc72d" stroke="#ebc72d" points="965.744,-147.679 971.46,-138.759 961.428,-142.168 965.744,-147.679"/>
</g>
<!-- blacksmith_shop&#45;&gt;battering_ram -->
<g id="edge3" class="edge"><title>blacksmith_shop&#45;&gt;battering_ram</title>
<path fill="none" stroke="#ebc72d" stroke-dasharray="1,5" d="M683.434,-198.225C678.981,-171.029 671.493,-127.266 663.607,-89.7401 661.81,-81.1885 659.693,-72.0178 657.624,-63.4261"/>
<polygon fill="#ebc72d" stroke="#ebc72d" points="661.015,-62.56 655.239,-53.6778 654.215,-64.2231 661.015,-62.56"/>
</g>
<!-- slave&#45;&gt;military_camp -->
<g id="edge33" class="edge"><title>slave&#45;&gt;military_camp</title>
<path fill="none" stroke="#ebc72d" stroke-width="2" d="M497.293,-299.565C474.553,-286.732 437.95,-266.076 409.421,-249.976"/>
<polygon fill="#ebc72d" stroke="#ebc72d" stroke-width="2" points="410.899,-246.791 400.47,-244.925 407.458,-252.888 410.899,-246.791"/>
</g>
<!-- slave&#45;&gt;training_camp -->
<g id="edge35" class="edge"><title>slave&#45;&gt;training_camp</title>
<path fill="none" stroke="#ebc72d" stroke-width="2" d="M548.812,-309.267C620.625,-303.456 807.044,-286.715 960.607,-258.593 984.914,-254.142 1011.44,-247.835 1034.16,-241.98"/>
<polygon fill="#ebc72d" stroke="#ebc72d" stroke-width="2" points="1035.18,-245.33 1043.98,-239.418 1033.42,-238.557 1035.18,-245.33"/>
</g>
<!-- slave&#45;&gt;guard_tower -->
<g id="edge32" class="edge"><title>slave&#45;&gt;guard_tower</title>
<path fill="none" stroke="#ebc72d" stroke-width="2" d="M488.399,-309.155C406.712,-301.926 184.313,-277.824 135.607,-226.38"/>
<path fill="none" stroke="#ebc72d" stroke-width="2" d="M135.607,-224.38C116.388,-204.08 98.4389,-178.128 85.5285,-157.691"/>
<polygon fill="#ebc72d" stroke="#ebc72d" stroke-width="2" points="88.39,-155.665 80.1402,-149.017 82.4438,-159.358 88.39,-155.665"/>
</g>
<!-- slave&#45;&gt;gladiator_school -->
<g id="edge31" class="edge"><title>slave&#45;&gt;gladiator_school</title>
<path fill="none" stroke="#ebc72d" stroke-width="2" d="M547.209,-305.814C593.301,-296.422 686.818,-277.032 765.607,-258.593 787.596,-253.447 811.629,-247.448 832.815,-242.031"/>
<polygon fill="#ebc72d" stroke="#ebc72d" stroke-width="2" points="833.832,-245.384 842.647,-239.507 832.091,-238.603 833.832,-245.384"/>
</g>
<!-- slave&#45;&gt;eagle_pillar -->
<g id="edge29" class="edge"><title>slave&#45;&gt;eagle_pillar</title>
<path fill="none" stroke="#ebc72d" stroke-width="2" d="M135.607,-224.38C117.453,-205.205 130.506,-176.111 145.564,-154.166"/>
<polygon fill="#ebc72d" stroke="#ebc72d" stroke-width="2" points="148.561,-155.995 151.598,-145.845 142.894,-151.886 148.561,-155.995"/>
</g>
<!-- slave&#45;&gt;blacksmith_shop -->
<g id="edge28" class="edge"><title>slave&#45;&gt;blacksmith_shop</title>
<path fill="none" stroke="#ebc72d" stroke-width="2" d="M541.049,-300.277C566.056,-287.669 607.223,-266.911 639.57,-250.601"/>
<polygon fill="#ebc72d" stroke="#ebc72d" stroke-width="2" points="641.513,-253.541 648.867,-245.914 638.362,-247.291 641.513,-253.541"/>
</g>
<!-- temple -->
<g id="node22" class="node"><title>temple</title>
<g id="a_node22"><a xlink:href="romans_temple_full.html" xlink:title="Temple">
<polygon fill="none" stroke="red" points="565.906,-230.942 518.607,-243.38 471.309,-230.942 471.353,-210.817 565.861,-210.817 565.906,-230.942"/>
<text text-anchor="middle" x="518.607" y="-221.68" font-family="Times,serif" font-size="14.00" fill="#ebc72d">Temple</text>
</a>
</g>
</g>
<!-- slave&#45;&gt;temple -->
<g id="edge34" class="edge"><title>slave&#45;&gt;temple</title>
<path fill="none" stroke="#ebc72d" stroke-width="2" d="M518.607,-294.349C518.607,-282.683 518.607,-267.029 518.607,-253.685"/>
<polygon fill="#ebc72d" stroke="#ebc72d" stroke-width="2" points="522.107,-253.598 518.607,-243.598 515.107,-253.598 522.107,-253.598"/>
</g>
<!-- temple&#45;&gt;fire_archer -->
<g id="edge36" class="edge"><title>temple&#45;&gt;fire_archer</title>
<path fill="none" stroke="#ebc72d" stroke-dasharray="1,5" d="M541.024,-210.681C595.942,-177.165 733.551,-93.4885 744.607,-89.7401 833.242,-59.6913 1112.47,-38.4784 1225.45,-30.9164"/>
<polygon fill="#ebc72d" stroke="#ebc72d" points="1225.79,-34.4018 1235.54,-30.2482 1225.33,-27.4171 1225.79,-34.4018"/>
</g>
<!-- temple&#45;&gt;turtle_formation -->
<g id="edge37" class="edge"><title>temple&#45;&gt;turtle_formation</title>
<path fill="none" stroke="#ebc72d" stroke-dasharray="1,5" d="M504.008,-210.416C488.818,-195.888 464.564,-172.691 445.002,-153.98"/>
<polygon fill="#ebc72d" stroke="#ebc72d" points="447.408,-151.439 437.762,-147.056 442.57,-156.498 447.408,-151.439"/>
</g>
</g>
</svg>
