<?xml version="1.0" encoding="UTF-8" standalone="no"?>
<!DOCTYPE svg PUBLIC "-//W3C//DTD SVG 1.1//EN"
 "http://www.w3.org/Graphics/SVG/1.1/DTD/svg11.dtd">
<!-- Generated by graphviz version 2.38.0 (20140413.2041)
 -->
<!-- Title: test Pages: 1 -->
<svg width="456pt" height="249pt"
 viewBox="0.00 0.00 455.59 248.85" xmlns="http://www.w3.org/2000/svg" xmlns:xlink="http://www.w3.org/1999/xlink">
<g id="graph0" class="graph" transform="scale(1 1) rotate(0) translate(4 244.853)">
<title>test</title>
<polygon fill="#151515" stroke="none" points="-4,4 -4,-244.853 451.589,-244.853 451.589,4 -4,4"/>
<!-- military_camp -->
<g id="node1" class="node"><title>military_camp</title>
<g id="a_node1"><a xlink:href="romans_military_camp_full.html" xlink:title="Military\nCamp">
<polygon fill="none" stroke="red" points="108.571,-145.969 54.19,-169.067 -0.190655,-145.969 -0.139898,-108.596 108.52,-108.596 108.571,-145.969"/>
<text text-anchor="middle" x="54.19" y="-139.44" font-family="Times,serif" font-size="14.00" fill="#ebc72d">Military</text>
<text text-anchor="middle" x="54.19" y="-124.44" font-family="Times,serif" font-size="14.00" fill="#ebc72d">Camp</text>
</a>
</g>
</g>
<!-- guard_tower -->
<g id="node4" class="node"><title>guard_tower</title>
<g id="a_node4"><a xlink:href="romans_guard_tower_full.html" xlink:title="Guard\nTower">
<polygon fill="none" stroke="red" points="211.589,-43.543 166.19,-66.641 120.791,-43.543 120.833,-6.16955 211.547,-6.16955 211.589,-43.543"/>
<text text-anchor="middle" x="166.19" y="-37.0132" font-family="Times,serif" font-size="14.00" fill="#ebc72d">Guard</text>
<text text-anchor="middle" x="166.19" y="-22.0132" font-family="Times,serif" font-size="14.00" fill="#ebc72d">Tower</text>
</a>
</g>
</g>
<!-- military_camp&#45;&gt;guard_tower -->
<g id="edge8" class="edge"><title>military_camp&#45;&gt;guard_tower</title>
<path fill="none" stroke="#ebc72d" stroke-dasharray="1,5" d="M83.3243,-108.516C99.2545,-94.2319 118.986,-76.5394 135.198,-62.0025"/>
<polygon fill="#ebc72d" stroke="#ebc72d" points="137.733,-64.4302 142.842,-55.1484 133.06,-59.2185 137.733,-64.4302"/>
</g>
<!-- eagle_pillar -->
<g id="node6" class="node"><title>eagle_pillar</title>
<g id="a_node6"><a xlink:href="romans_eagle_pillar_full.html" xlink:title="Eagle\nPillar">
<polygon fill="none" stroke="red" points="100.349,-43.543 59.19,-66.641 18.0308,-43.543 18.0692,-6.16955 100.311,-6.16955 100.349,-43.543"/>
<text text-anchor="middle" x="59.19" y="-37.0132" font-family="Times,serif" font-size="14.00" fill="#ebc72d">Eagle</text>
<text text-anchor="middle" x="59.19" y="-22.0132" font-family="Times,serif" font-size="14.00" fill="#ebc72d">Pillar</text>
</a>
</g>
</g>
<!-- military_camp&#45;&gt;eagle_pillar -->
<g id="edge7" class="edge"><title>military_camp&#45;&gt;eagle_pillar</title>
<path fill="none" stroke="#ebc72d" stroke-dasharray="1,5" d="M55.4906,-108.516C55.9818,-98.6506 56.5539,-87.1594 57.0993,-76.2049"/>
<polygon fill="#ebc72d" stroke="#ebc72d" points="60.6088,-76.0988 57.6105,-65.9371 53.6175,-75.7506 60.6088,-76.0988"/>
</g>
<!-- training_camp -->
<g id="node2" class="node"><title>training_camp</title>
<g id="a_node2"><a xlink:href="romans_training_camp_full.html" xlink:title="Training\nCamp">
<polygon fill="none" stroke="red" points="430.318,-145.969 375.19,-169.067 320.062,-145.969 320.113,-108.596 430.267,-108.596 430.318,-145.969"/>
<text text-anchor="middle" x="375.19" y="-139.44" font-family="Times,serif" font-size="14.00" fill="#ebc72d">Training</text>
<text text-anchor="middle" x="375.19" y="-124.44" font-family="Times,serif" font-size="14.00" fill="#ebc72d">Camp</text>
</a>
</g>
</g>
<!-- forum -->
<g id="node3" class="node"><title>forum</title>
<g id="a_node3"><a xlink:href="romans_forum_full.html" xlink:title="Forum">
<polygon fill="none" stroke="red" points="334.848,-228.415 292.19,-240.853 249.532,-228.415 249.572,-208.291 334.808,-208.291 334.848,-228.415"/>
<text text-anchor="middle" x="292.19" y="-219.153" font-family="Times,serif" font-size="14.00" fill="#ebc72d">Forum</text>
</a>
</g>
</g>
<!-- forum&#45;&gt;training_camp -->
<g id="edge6" class="edge"><title>forum&#45;&gt;training_camp</title>
<path fill="none" stroke="#ebc72d" stroke-dasharray="1,5" d="M305.525,-208.162C316.197,-197.206 331.573,-181.42 345.166,-167.465"/>
<polygon fill="#ebc72d" stroke="#ebc72d" points="348.023,-169.548 352.493,-159.942 343.008,-164.664 348.023,-169.548"/>
</g>
<!-- gladiator_school -->
<g id="node5" class="node"><title>gladiator_school</title>
<g id="a_node5"><a xlink:href="romans_gladiator_school_full.html" xlink:title="Gladiator\nSchool">
<polygon fill="none" stroke="red" points="349.558,-43.543 290.19,-66.641 230.822,-43.543 230.877,-6.16955 349.503,-6.16955 349.558,-43.543"/>
<text text-anchor="middle" x="290.19" y="-37.0132" font-family="Times,serif" font-size="14.00" fill="#ebc72d">Gladiator</text>
<text text-anchor="middle" x="290.19" y="-22.0132" font-family="Times,serif" font-size="14.00" fill="#ebc72d">School</text>
</a>
</g>
</g>
<!-- forum&#45;&gt;gladiator_school -->
<g id="edge5" class="edge"><title>forum&#45;&gt;gladiator_school</title>
<path fill="none" stroke="#ebc72d" stroke-dasharray="1,5" d="M292.043,-208.055C291.752,-180.747 291.092,-118.819 290.643,-76.7492"/>
<polygon fill="#ebc72d" stroke="#ebc72d" points="294.141,-76.4768 290.534,-66.5147 287.141,-76.5514 294.141,-76.4768"/>
</g>
<!-- blacksmith_shop -->
<g id="node7" class="node"><title>blacksmith_shop</title>
<g id="a_node7"><a xlink:href="romans_blacksmith_shop_full.html" xlink:title="Blacksmith\nShop">
<polygon fill="none" stroke="red" points="264.287,-145.969 195.19,-169.067 126.093,-145.969 126.157,-108.596 264.223,-108.596 264.287,-145.969"/>
<text text-anchor="middle" x="195.19" y="-139.44" font-family="Times,serif" font-size="14.00" fill="#ebc72d">Blacksmith</text>
<text text-anchor="middle" x="195.19" y="-124.44" font-family="Times,serif" font-size="14.00" fill="#ebc72d">Shop</text>
</a>
</g>
</g>
<!-- forum&#45;&gt;blacksmith_shop -->
<g id="edge4" class="edge"><title>forum&#45;&gt;blacksmith_shop</title>
<path fill="none" stroke="#ebc72d" stroke-dasharray="1,5" d="M276.605,-208.162C263.995,-197.084 245.764,-181.068 229.749,-166.999"/>
<polygon fill="#ebc72d" stroke="#ebc72d" points="231.922,-164.249 222.099,-160.279 227.302,-169.508 231.922,-164.249"/>
</g>
<!-- blacksmith_shop&#45;&gt;guard_tower -->
<g id="edge3" class="edge"><title>blacksmith_shop&#45;&gt;guard_tower</title>
<path fill="none" stroke="#ebc72d" stroke-dasharray="1,5" d="M187.646,-108.516C184.473,-97.5282 180.718,-84.5236 177.243,-72.49"/>
<polygon fill="#ebc72d" stroke="#ebc72d" points="180.546,-71.312 174.409,-62.6756 173.821,-73.2541 180.546,-71.312"/>
</g>
<!-- blacksmith_shop&#45;&gt;gladiator_school -->
<g id="edge2" class="edge"><title>blacksmith_shop&#45;&gt;gladiator_school</title>
<path fill="none" stroke="#ebc72d" stroke-dasharray="1,5" d="M219.902,-108.516C232.334,-95.3742 247.494,-79.3475 260.549,-65.5474"/>
<polygon fill="#ebc72d" stroke="#ebc72d" points="263.224,-67.8121 267.554,-58.1423 258.139,-63.0017 263.224,-67.8121"/>
</g>
<!-- blacksmith_shop&#45;&gt;eagle_pillar -->
<g id="edge1" class="edge"><title>blacksmith_shop&#45;&gt;eagle_pillar</title>
<path fill="none" stroke="#ebc72d" stroke-dasharray="1,5" d="M159.813,-108.516C139.061,-93.1921 112.997,-73.9456 92.5953,-58.8807"/>
<polygon fill="#ebc72d" stroke="#ebc72d" points="94.6375,-56.0379 84.514,-52.9132 90.4793,-61.6691 94.6375,-56.0379"/>
</g>
<!-- temple -->
<g id="node8" class="node"><title>temple</title>
<g id="a_node8"><a xlink:href="romans_temple_full.html" xlink:title="Temple">
<polygon fill="none" stroke="red" points="447.488,-228.415 400.19,-240.853 352.892,-228.415 352.936,-208.291 447.444,-208.291 447.488,-228.415"/>
<text text-anchor="middle" x="400.19" y="-219.153" font-family="Times,serif" font-size="14.00" fill="#ebc72d">Temple</text>
</a>
</g>
</g>
</g>
</svg>
