<?xml version="1.0" encoding="UTF-8" standalone="no"?>
<!DOCTYPE svg PUBLIC "-//W3C//DTD SVG 1.1//EN"
 "http://www.w3.org/Graphics/SVG/1.1/DTD/svg11.dtd">
<!-- Generated by graphviz version 2.38.0 (20140413.2041)
 -->
<!-- Title: test Pages: 1 -->
<svg width="434pt" height="290pt"
 viewBox="0.00 0.00 433.69 290.43" xmlns="http://www.w3.org/2000/svg" xmlns:xlink="http://www.w3.org/1999/xlink">
<g id="graph0" class="graph" transform="scale(1 1) rotate(0) translate(4 286.426)">
<title>test</title>
<polygon fill="#151515" stroke="none" points="-4,4 -4,-286.426 429.686,-286.426 429.686,4 -4,4"/>
<!-- aerodrome -->
<g id="node1" class="node"><title>aerodrome</title>
<g id="a_node1"><a xlink:href="tech_aerodrome_full.html" xlink:title="Aerodrome">
<polygon fill="none" stroke="red" points="126.899,-38.7755 63.4665,-51.2132 0.0335231,-38.7755 0.0927302,-18.6509 126.84,-18.6509 126.899,-38.7755"/>
<text text-anchor="middle" x="63.4665" y="-29.5132" font-family="Times,serif" font-size="14.00" fill="#ebc72d">Aerodrome</text>
</a>
</g>
</g>
<!-- farm -->
<g id="node2" class="node"><title>farm</title>
<g id="a_node2"><a xlink:href="tech_farm_full.html" xlink:title="Farm">
<polygon fill="none" stroke="red" points="120.377,-197.989 83.4665,-210.426 46.5561,-197.989 46.5905,-177.864 120.342,-177.864 120.377,-197.989"/>
<text text-anchor="middle" x="83.4665" y="-188.726" font-family="Times,serif" font-size="14.00" fill="#ebc72d">Farm</text>
</a>
</g>
</g>
<!-- technodrome -->
<g id="node3" class="node"><title>technodrome</title>
<g id="a_node3"><a xlink:href="tech_technodrome_full.html" xlink:title="Technodrome">
<polygon fill="none" stroke="red" points="216.287,-125.989 142.466,-138.426 68.6457,-125.989 68.7146,-105.864 216.218,-105.864 216.287,-125.989"/>
<text text-anchor="middle" x="142.466" y="-116.726" font-family="Times,serif" font-size="14.00" fill="#ebc72d">Technodrome</text>
</a>
</g>
</g>
<!-- technodrome&#45;&gt;aerodrome -->
<g id="edge8" class="edge"><title>technodrome&#45;&gt;aerodrome</title>
<path fill="none" stroke="#ebc72d" stroke-dasharray="1,5" d="M129.774,-105.735C117.443,-92.4345 98.512,-72.015 84.03,-56.394"/>
<polygon fill="#ebc72d" stroke="#ebc72d" points="86.2863,-53.6796 76.9209,-48.7258 81.1529,-58.4387 86.2863,-53.6796"/>
</g>
<!-- defense_tower -->
<g id="node6" class="node"><title>defense_tower</title>
<g id="a_node6"><a xlink:href="tech_defense_tower_full.html" xlink:title="Defense\nTower">
<polygon fill="none" stroke="red" points="274.599,-43.543 221.466,-66.641 168.334,-43.543 168.384,-6.16955 274.549,-6.16955 274.599,-43.543"/>
<text text-anchor="middle" x="221.466" y="-37.0132" font-family="Times,serif" font-size="14.00" fill="#ebc72d">Defense</text>
<text text-anchor="middle" x="221.466" y="-22.0132" font-family="Times,serif" font-size="14.00" fill="#ebc72d">Tower</text>
</a>
</g>
</g>
<!-- technodrome&#45;&gt;defense_tower -->
<g id="edge9" class="edge"><title>technodrome&#45;&gt;defense_tower</title>
<path fill="none" stroke="#ebc72d" stroke-dasharray="1,5" d="M155.159,-105.735C165.316,-94.7795 179.951,-78.9937 192.889,-65.0382"/>
<polygon fill="#ebc72d" stroke="#ebc72d" points="195.631,-67.2286 199.863,-57.5157 190.498,-62.4696 195.631,-67.2286"/>
</g>
<!-- castle -->
<g id="node4" class="node"><title>castle</title>
<g id="a_node4"><a xlink:href="tech_castle_full.html" xlink:title="Castle">
<polygon fill="none" stroke="red" points="188.804,-269.989 148.466,-282.426 108.128,-269.989 108.166,-249.864 188.767,-249.864 188.804,-269.989"/>
<text text-anchor="middle" x="148.466" y="-260.726" font-family="Times,serif" font-size="14.00" fill="#ebc72d">Castle</text>
</a>
</g>
</g>
<!-- castle&#45;&gt;aerodrome -->
<g id="edge3" class="edge"><title>castle&#45;&gt;aerodrome</title>
<path fill="none" stroke="#ebc72d" stroke-dasharray="1,5" d="M108.099,-255.521C83.0948,-248.316 52.902,-234.901 37.4665,-210.426 7.762,-163.326 32.7098,-95.3014 50.122,-59.0925"/>
<polygon fill="#ebc72d" stroke="#ebc72d" points="53.4427,-60.2771 54.7816,-49.7672 47.1809,-57.1482 53.4427,-60.2771"/>
</g>
<!-- castle&#45;&gt;farm -->
<g id="edge6" class="edge"><title>castle&#45;&gt;farm</title>
<path fill="none" stroke="#ebc72d" stroke-dasharray="1,5" d="M135.625,-249.597C126.246,-239.496 113.368,-225.628 102.755,-214.199"/>
<polygon fill="#ebc72d" stroke="#ebc72d" points="105.21,-211.699 95.8407,-206.753 100.08,-216.462 105.21,-211.699"/>
</g>
<!-- castle&#45;&gt;technodrome -->
<g id="edge7" class="edge"><title>castle&#45;&gt;technodrome</title>
<path fill="none" stroke="#ebc72d" stroke-dasharray="1,5" d="M147.891,-249.811C146.914,-226.689 144.912,-179.314 143.633,-149.029"/>
<polygon fill="#ebc72d" stroke="#ebc72d" points="147.116,-148.564 143.197,-138.721 140.123,-148.86 147.116,-148.564"/>
</g>
<!-- blacksmith -->
<g id="node5" class="node"><title>blacksmith</title>
<g id="a_node5"><a xlink:href="tech_blacksmith_full.html" xlink:title="Blacksmith">
<polygon fill="none" stroke="red" points="302.899,-197.989 239.466,-210.426 176.034,-197.989 176.093,-177.864 302.84,-177.864 302.899,-197.989"/>
<text text-anchor="middle" x="239.466" y="-188.726" font-family="Times,serif" font-size="14.00" fill="#ebc72d">Blacksmith</text>
</a>
</g>
</g>
<!-- castle&#45;&gt;blacksmith -->
<g id="edge5" class="edge"><title>castle&#45;&gt;blacksmith</title>
<path fill="none" stroke="#ebc72d" stroke-dasharray="1,5" d="M166.445,-249.597C179.993,-239.175 198.756,-224.742 213.87,-213.116"/>
<polygon fill="#ebc72d" stroke="#ebc72d" points="216.043,-215.861 221.835,-206.989 211.775,-210.312 216.043,-215.861"/>
</g>
<!-- barracks -->
<g id="node7" class="node"><title>barracks</title>
<g id="a_node7"><a xlink:href="tech_barracks_full.html" xlink:title="Barracks">
<polygon fill="none" stroke="red" points="425.906,-197.989 373.466,-210.426 321.027,-197.989 321.076,-177.864 425.857,-177.864 425.906,-197.989"/>
<text text-anchor="middle" x="373.466" y="-188.726" font-family="Times,serif" font-size="14.00" fill="#ebc72d">Barracks</text>
</a>
</g>
</g>
<!-- castle&#45;&gt;barracks -->
<g id="edge4" class="edge"><title>castle&#45;&gt;barracks</title>
<path fill="none" stroke="#ebc72d" stroke-dasharray="1,5" d="M188.692,-250.912C229.329,-238.269 291.785,-218.838 332.637,-206.129"/>
<polygon fill="#ebc72d" stroke="#ebc72d" points="333.768,-209.442 342.277,-203.13 331.689,-202.758 333.768,-209.442"/>
</g>
<!-- blacksmith&#45;&gt;technodrome -->
<g id="edge2" class="edge"><title>blacksmith&#45;&gt;technodrome</title>
<path fill="none" stroke="#ebc72d" stroke-dasharray="1,5" d="M220.302,-177.597C205.954,-167.242 186.119,-152.928 170.063,-141.341"/>
<polygon fill="#ebc72d" stroke="#ebc72d" points="171.748,-138.241 161.591,-135.227 167.652,-143.918 171.748,-138.241"/>
</g>
<!-- blacksmith&#45;&gt;defense_tower -->
<g id="edge1" class="edge"><title>blacksmith&#45;&gt;defense_tower</title>
<path fill="none" stroke="#ebc72d" stroke-dasharray="1,5" d="M237.901,-177.75C235.312,-155.138 230.04,-109.095 226.163,-75.2288"/>
<polygon fill="#ebc72d" stroke="#ebc72d" points="229.623,-74.6858 225.008,-65.1489 222.669,-75.4821 229.623,-74.6858"/>
</g>
</g>
</svg>
