<?xml version="1.0" encoding="UTF-8" standalone="no"?>
<!DOCTYPE svg PUBLIC "-//W3C//DTD SVG 1.1//EN"
 "http://www.w3.org/Graphics/SVG/1.1/DTD/svg11.dtd">
<!-- Generated by graphviz version 2.38.0 (20140413.2041)
 -->
<!-- Title: test Pages: 1 -->
<svg width="1636pt" height="514pt"
 viewBox="0.00 0.00 1635.78 514.43" xmlns="http://www.w3.org/2000/svg" xmlns:xlink="http://www.w3.org/1999/xlink">
<g id="graph0" class="graph" transform="scale(1 1) rotate(0) translate(4 510.426)">
<title>test</title>
<polygon fill="#151515" stroke="none" points="-4,4 -4,-510.426 1631.78,-510.426 1631.78,4 -4,4"/>
<!-- cow -->
<g id="node1" class="node"><title>cow</title>
<g id="a_node1"><a xlink:href="tech_cow_full.html" xlink:title="Cow">
<ellipse fill="none" stroke="magenta" cx="174.466" cy="-324.426" rx="27.0966" ry="18"/>
<text text-anchor="middle" x="174.466" y="-320.726" font-family="Times,serif" font-size="14.00" fill="#ebc72d">Cow</text>
</a>
</g>
</g>
<!-- aerodrome -->
<g id="node2" class="node"><title>aerodrome</title>
<g id="a_node2"><a xlink:href="tech_aerodrome_full.html" xlink:title="Aerodrome">
<polygon fill="none" stroke="red" points="126.899,-110.776 63.4665,-123.213 0.0335231,-110.776 0.0927302,-90.6509 126.84,-90.6509 126.899,-110.776"/>
<text text-anchor="middle" x="63.4665" y="-101.513" font-family="Times,serif" font-size="14.00" fill="#ebc72d">Aerodrome</text>
</a>
</g>
</g>
<!-- ornithopter -->
<g id="node7" class="node"><title>ornithopter</title>
<g id="a_node7"><a xlink:href="tech_ornithopter_full.html" xlink:title="Ornithopter">
<ellipse fill="none" stroke="magenta" cx="63.4665" cy="-18" rx="51.9908" ry="18"/>
<text text-anchor="middle" x="63.4665" y="-14.3" font-family="Times,serif" font-size="14.00" fill="#ebc72d">Ornithopter</text>
</a>
</g>
</g>
<!-- aerodrome&#45;&gt;ornithopter -->
<g id="edge4" class="edge"><title>aerodrome&#45;&gt;ornithopter</title>
<path fill="none" stroke="#ebc72d" d="M63.4665,-90.5222C63.4665,-78.6349 63.4665,-61.0617 63.4665,-46.3096"/>
<polygon fill="#ebc72d" stroke="#ebc72d" points="66.9666,-46.188 63.4665,-36.1881 59.9666,-46.1881 66.9666,-46.188"/>
</g>
<!-- airship -->
<g id="node11" class="node"><title>airship</title>
<g id="a_node11"><a xlink:href="tech_airship_full.html" xlink:title="Airship">
<ellipse fill="none" stroke="magenta" cx="266.466" cy="-18" rx="37.0935" ry="18"/>
<text text-anchor="middle" x="266.466" y="-14.3" font-family="Times,serif" font-size="14.00" fill="#ebc72d">Airship</text>
</a>
</g>
</g>
<!-- aerodrome&#45;&gt;airship -->
<g id="edge3" class="edge"><title>aerodrome&#45;&gt;airship</title>
<path fill="none" stroke="#ebc72d" d="M93.9277,-90.5401C106.989,-84.7376 122.439,-77.9529 136.466,-72 167.602,-58.7868 203.182,-44.3248 229.238,-33.8506"/>
<polygon fill="#ebc72d" stroke="#ebc72d" points="230.752,-37.0146 238.73,-30.0425 228.146,-30.518 230.752,-37.0146"/>
</g>
<!-- farm -->
<g id="node3" class="node"><title>farm</title>
<g id="a_node3"><a xlink:href="tech_farm_full.html" xlink:title="Farm">
<polygon fill="none" stroke="red" points="475.377,-421.989 438.466,-434.426 401.556,-421.989 401.591,-401.864 475.342,-401.864 475.377,-421.989"/>
<text text-anchor="middle" x="438.466" y="-412.726" font-family="Times,serif" font-size="14.00" fill="#ebc72d">Farm</text>
</a>
</g>
</g>
<!-- farm&#45;&gt;cow -->
<g id="edge18" class="edge"><title>farm&#45;&gt;cow</title>
<path fill="none" stroke="#ebc72d" d="M403.494,-401.851C399.797,-400.611 396.072,-399.442 392.466,-398.426 313.101,-376.064 282.939,-401.754 210.466,-362.426 204.01,-358.923 197.997,-353.869 192.806,-348.618"/>
<polygon fill="#ebc72d" stroke="#ebc72d" points="195.146,-345.989 185.832,-340.94 189.964,-350.695 195.146,-345.989"/>
</g>
<!-- pig -->
<g id="node14" class="node"><title>pig</title>
<g id="a_node14"><a xlink:href="tech_pig_full.html" xlink:title="Pig">
<ellipse fill="none" stroke="magenta" cx="102.466" cy="-324.426" rx="27" ry="18"/>
<text text-anchor="middle" x="102.466" y="-320.726" font-family="Times,serif" font-size="14.00" fill="#ebc72d">Pig</text>
</a>
</g>
</g>
<!-- farm&#45;&gt;pig -->
<g id="edge19" class="edge"><title>farm&#45;&gt;pig</title>
<path fill="none" stroke="#ebc72d" d="M404.054,-401.812C400.181,-400.549 396.264,-399.385 392.466,-398.426 281.921,-370.506 240.123,-414.058 138.466,-362.426 131.916,-359.1 125.87,-354.11 120.677,-348.863"/>
<polygon fill="#ebc72d" stroke="#ebc72d" points="123.017,-346.233 113.718,-341.156 117.822,-350.924 123.017,-346.233"/>
</g>
<!-- stables -->
<g id="node25" class="node"><title>stables</title>
<g id="a_node25"><a xlink:href="tech_stables_full.html" xlink:title="Stables">
<polygon fill="none" stroke="green" points="491.696,-342.426 407.02,-342.426 385.237,-306.426 469.913,-306.426 491.696,-342.426"/>
<text text-anchor="middle" x="438.466" y="-320.726" font-family="Times,serif" font-size="14.00" fill="#ebc72d">Stables</text>
</a>
</g>
</g>
<!-- farm&#45;&gt;stables -->
<g id="edge20" class="edge"><title>farm&#45;&gt;stables</title>
<path fill="none" stroke="#ebc72d" d="M438.466,-401.757C438.466,-388.768 438.466,-368.866 438.466,-352.64"/>
<polygon fill="#ebc72d" stroke="#ebc72d" points="441.967,-352.618 438.466,-342.618 434.967,-352.618 441.967,-352.618"/>
</g>
<!-- technodrome -->
<g id="node4" class="node"><title>technodrome</title>
<g id="a_node4"><a xlink:href="tech_technodrome_full.html" xlink:title="Technodrome">
<polygon fill="none" stroke="red" points="367.287,-329.989 293.466,-342.426 219.646,-329.989 219.715,-309.864 367.218,-309.864 367.287,-329.989"/>
<text text-anchor="middle" x="293.466" y="-320.726" font-family="Times,serif" font-size="14.00" fill="#ebc72d">Technodrome</text>
</a>
</g>
</g>
<!-- technician -->
<g id="node8" class="node"><title>technician</title>
<g id="a_node8"><a xlink:href="tech_technician_full.html" xlink:title="Technician">
<ellipse fill="none" stroke="magenta" cx="185.466" cy="-212.426" rx="50.0912" ry="18"/>
<text text-anchor="middle" x="185.466" y="-208.726" font-family="Times,serif" font-size="14.00" fill="#ebc72d">Technician</text>
</a>
</g>
</g>
<!-- technodrome&#45;&gt;technician -->
<g id="edge31" class="edge"><title>technodrome&#45;&gt;technician</title>
<path fill="none" stroke="#ebc72d" d="M279.788,-309.495C261.916,-291.291 230.352,-259.144 208.697,-237.087"/>
<polygon fill="#ebc72d" stroke="#ebc72d" points="210.993,-234.43 201.489,-229.746 205.998,-239.334 210.993,-234.43"/>
</g>
<!-- robotics -->
<g id="node21" class="node"><title>robotics</title>
<g id="a_node21"><a xlink:href="tech_robotics_full.html" xlink:title="Robotics">
<polygon fill="none" stroke="green" points="377.349,-230.426 278.908,-230.426 253.584,-194.426 352.025,-194.426 377.349,-230.426"/>
<text text-anchor="middle" x="315.466" y="-208.726" font-family="Times,serif" font-size="14.00" fill="#ebc72d">Robotics</text>
</a>
</g>
</g>
<!-- technodrome&#45;&gt;robotics -->
<g id="edge30" class="edge"><title>technodrome&#45;&gt;robotics</title>
<path fill="none" stroke="#ebc72d" d="M296.253,-309.495C299.711,-292.206 305.684,-262.337 310.055,-240.484"/>
<polygon fill="#ebc72d" stroke="#ebc72d" points="313.525,-240.982 312.054,-230.489 306.661,-239.609 313.525,-240.982"/>
</g>
<!-- advanced_architecture -->
<g id="node28" class="node"><title>advanced_architecture</title>
<g id="a_node28"><a xlink:href="tech_advanced_architecture_full.html" xlink:title="Advanced\nArchitecture">
<polygon fill="none" stroke="green" points="569.641,-250.426 430.966,-250.426 395.292,-174.426 533.967,-174.426 569.641,-250.426"/>
<text text-anchor="middle" x="482.466" y="-216.226" font-family="Times,serif" font-size="14.00" fill="#ebc72d">Advanced</text>
<text text-anchor="middle" x="482.466" y="-201.226" font-family="Times,serif" font-size="14.00" fill="#ebc72d">Architecture</text>
</a>
</g>
</g>
<!-- technodrome&#45;&gt;advanced_architecture -->
<g id="edge29" class="edge"><title>technodrome&#45;&gt;advanced_architecture</title>
<path fill="none" stroke="#ebc72d" d="M317.021,-309.717C342.473,-294.904 384.104,-270.674 419.237,-250.227"/>
<polygon fill="#ebc72d" stroke="#ebc72d" points="421.133,-253.173 428.015,-245.118 417.611,-247.123 421.133,-253.173"/>
</g>
<!-- horseman -->
<g id="node5" class="node"><title>horseman</title>
<g id="a_node5"><a xlink:href="tech_horseman_full.html" xlink:title="Horseman">
<ellipse fill="none" stroke="magenta" cx="657.466" cy="-212.426" rx="47.3916" ry="18"/>
<text text-anchor="middle" x="657.466" y="-208.726" font-family="Times,serif" font-size="14.00" fill="#ebc72d">Horseman</text>
</a>
</g>
</g>
<!-- castle -->
<g id="node6" class="node"><title>castle</title>
<g id="a_node6"><a xlink:href="tech_castle_full.html" xlink:title="Castle">
<polygon fill="none" stroke="red" points="383.804,-421.989 343.466,-434.426 303.128,-421.989 303.166,-401.864 383.767,-401.864 383.804,-421.989"/>
<text text-anchor="middle" x="343.466" y="-412.726" font-family="Times,serif" font-size="14.00" fill="#ebc72d">Castle</text>
</a>
</g>
</g>
<!-- worker -->
<g id="node19" class="node"><title>worker</title>
<g id="a_node19"><a xlink:href="tech_worker_full.html" xlink:title="Worker">
<ellipse fill="none" stroke="magenta" cx="617.466" cy="-488.426" rx="38.1938" ry="18"/>
<text text-anchor="middle" x="617.466" y="-484.726" font-family="Times,serif" font-size="14.00" fill="#ebc72d">Worker</text>
</a>
</g>
</g>
<!-- technician&#45;&gt;aerodrome -->
<g id="edge25" class="edge"><title>technician&#45;&gt;aerodrome</title>
<path fill="none" stroke="#ebc72d" stroke-width="2" d="M166.937,-195.447C145.71,-177.14 110.86,-147.085 87.5453,-126.979"/>
<polygon fill="#ebc72d" stroke="#ebc72d" stroke-width="2" points="89.6797,-124.198 79.821,-120.317 85.1081,-129.499 89.6797,-124.198"/>
</g>
<!-- air_ballista -->
<g id="node10" class="node"><title>air_ballista</title>
<g id="a_node10"><a xlink:href="tech_air_ballista_full.html" xlink:title="Air\nBallista">
<ellipse fill="none" stroke="magenta" cx="457.466" cy="-105.213" rx="41.0244" ry="26.7407"/>
<text text-anchor="middle" x="457.466" y="-109.013" font-family="Times,serif" font-size="14.00" fill="#ebc72d">Air</text>
<text text-anchor="middle" x="457.466" y="-94.0132" font-family="Times,serif" font-size="14.00" fill="#ebc72d">Ballista</text>
</a>
</g>
</g>
<!-- technician&#45;&gt;air_ballista -->
<g id="edge26" class="edge"><title>technician&#45;&gt;air_ballista</title>
<path fill="none" stroke="#ebc72d" stroke-dasharray="5,2" d="M207.137,-196.004C217.982,-188.77 231.528,-180.439 244.466,-174.426 274.156,-160.629 357.154,-135.41 410.348,-119.804"/>
<polygon fill="#ebc72d" stroke="#ebc72d" points="411.623,-123.078 420.239,-116.912 409.659,-116.359 411.623,-123.078"/>
</g>
<!-- catapult -->
<g id="node12" class="node"><title>catapult</title>
<g id="a_node12"><a xlink:href="tech_catapult_full.html" xlink:title="Catapult">
<ellipse fill="none" stroke="magenta" cx="185.466" cy="-105.213" rx="40.0939" ry="18"/>
<text text-anchor="middle" x="185.466" y="-101.513" font-family="Times,serif" font-size="14.00" fill="#ebc72d">Catapult</text>
</a>
</g>
</g>
<!-- technician&#45;&gt;catapult -->
<g id="edge28" class="edge"><title>technician&#45;&gt;catapult</title>
<path fill="none" stroke="#ebc72d" stroke-dasharray="5,2" d="M185.466,-194.053C185.466,-177.582 185.466,-152.585 185.466,-133.463"/>
<polygon fill="#ebc72d" stroke="#ebc72d" points="188.967,-133.264 185.466,-123.264 181.967,-133.264 188.967,-133.264"/>
</g>
<!-- battle_machine -->
<g id="node15" class="node"><title>battle_machine</title>
<g id="a_node15"><a xlink:href="tech_battle_machine_full.html" xlink:title="Battle\nMachine">
<ellipse fill="none" stroke="magenta" cx="289.466" cy="-105.213" rx="45.9239" ry="26.7407"/>
<text text-anchor="middle" x="289.466" y="-109.013" font-family="Times,serif" font-size="14.00" fill="#ebc72d">Battle</text>
<text text-anchor="middle" x="289.466" y="-94.0132" font-family="Times,serif" font-size="14.00" fill="#ebc72d">Machine</text>
</a>
</g>
</g>
<!-- technician&#45;&gt;battle_machine -->
<g id="edge27" class="edge"><title>technician&#45;&gt;battle_machine</title>
<path fill="none" stroke="#ebc72d" stroke-dasharray="5,2" d="M201.716,-194.987C217.25,-179.272 241.033,-155.211 259.923,-136.101"/>
<polygon fill="#ebc72d" stroke="#ebc72d" points="262.615,-138.357 267.156,-128.784 257.637,-133.436 262.615,-138.357"/>
</g>
<!-- blacksmith -->
<g id="node9" class="node"><title>blacksmith</title>
<g id="a_node9"><a xlink:href="tech_blacksmith_full.html" xlink:title="Blacksmith">
<polygon fill="none" stroke="red" points="764.899,-421.989 701.466,-434.426 638.034,-421.989 638.093,-401.864 764.84,-401.864 764.899,-421.989"/>
<text text-anchor="middle" x="701.466" y="-412.726" font-family="Times,serif" font-size="14.00" fill="#ebc72d">Blacksmith</text>
</a>
</g>
</g>
<!-- blacksmith&#45;&gt;technodrome -->
<g id="edge16" class="edge"><title>blacksmith&#45;&gt;technodrome</title>
<path fill="none" stroke="#ebc72d" stroke-dasharray="1,5" d="M637.807,-407.029C557.519,-396.093 424.188,-376.693 376.466,-362.426 359.727,-357.422 341.938,-349.824 327.14,-342.812"/>
<polygon fill="#ebc72d" stroke="#ebc72d" points="328.414,-339.539 317.889,-338.322 325.357,-345.837 328.414,-339.539"/>
</g>
<!-- blacksmith&#45;&gt;horseman -->
<g id="edge12" class="edge"><title>blacksmith&#45;&gt;horseman</title>
<path fill="none" stroke="#ebc72d" stroke-dasharray="1,5" d="M693.415,-401.507C687.761,-391.085 680.511,-376.295 676.466,-362.426 664.436,-321.178 660.021,-271.304 658.402,-240.994"/>
<polygon fill="#ebc72d" stroke="#ebc72d" points="661.887,-240.59 657.923,-230.765 654.895,-240.918 661.887,-240.59"/>
</g>
<!-- guard -->
<g id="node18" class="node"><title>guard</title>
<g id="a_node18"><a xlink:href="tech_guard_full.html" xlink:title="Guard">
<ellipse fill="none" stroke="magenta" cx="1392.47" cy="-212.426" rx="32.4942" ry="18"/>
<text text-anchor="middle" x="1392.47" y="-208.726" font-family="Times,serif" font-size="14.00" fill="#ebc72d">Guard</text>
</a>
</g>
</g>
<!-- blacksmith&#45;&gt;guard -->
<g id="edge11" class="edge"><title>blacksmith&#45;&gt;guard</title>
<path fill="none" stroke="#ebc72d" stroke-dasharray="1,5" d="M764.943,-411.234C867.931,-403.83 1066.55,-386.874 1132.47,-362.426 1189.56,-341.25 1193.8,-316.991 1246.47,-286.426 1284.07,-264.607 1329.03,-242.725 1359.03,-228.691"/>
<polygon fill="#ebc72d" stroke="#ebc72d" points="1360.62,-231.809 1368.21,-224.42 1357.67,-225.462 1360.62,-231.809"/>
</g>
<!-- shield_level_1 -->
<g id="node22" class="node"><title>shield_level_1</title>
<g id="a_node22"><a xlink:href="tech_shield_level_1_full.html" xlink:title="Shield\nLevel 1">
<polygon fill="none" stroke="green" points="629.73,-362.426 533.864,-362.426 509.203,-286.426 605.069,-286.426 629.73,-362.426"/>
<text text-anchor="middle" x="569.466" y="-328.226" font-family="Times,serif" font-size="14.00" fill="#ebc72d">Shield</text>
<text text-anchor="middle" x="569.466" y="-313.226" font-family="Times,serif" font-size="14.00" fill="#ebc72d">Level 1</text>
</a>
</g>
</g>
<!-- blacksmith&#45;&gt;shield_level_1 -->
<g id="edge14" class="edge"><title>blacksmith&#45;&gt;shield_level_1</title>
<path fill="none" stroke="#ebc72d" d="M681.419,-401.757C668.279,-392.798 650.315,-380.55 632.624,-368.488"/>
<polygon fill="#ebc72d" stroke="#ebc72d" points="634.218,-365.339 623.984,-362.597 630.274,-371.122 634.218,-365.339"/>
</g>
<!-- shield_level_2 -->
<g id="node23" class="node"><title>shield_level_2</title>
<g id="a_node23"><a xlink:href="tech_shield_level_2_full.html" xlink:title="Shield\nLevel 2">
<polygon fill="none" stroke="green" points="805.73,-362.426 709.864,-362.426 685.203,-286.426 781.069,-286.426 805.73,-362.426"/>
<text text-anchor="middle" x="745.466" y="-328.226" font-family="Times,serif" font-size="14.00" fill="#ebc72d">Shield</text>
<text text-anchor="middle" x="745.466" y="-313.226" font-family="Times,serif" font-size="14.00" fill="#ebc72d">Level 2</text>
</a>
</g>
</g>
<!-- blacksmith&#45;&gt;shield_level_2 -->
<g id="edge15" class="edge"><title>blacksmith&#45;&gt;shield_level_2</title>
<path fill="none" stroke="#ebc72d" d="M708.149,-401.757C712.131,-393.613 717.442,-382.75 722.805,-371.78"/>
<polygon fill="#ebc72d" stroke="#ebc72d" points="726.046,-373.118 727.294,-362.597 719.758,-370.044 726.046,-373.118"/>
</g>
<!-- piercing_weapons -->
<g id="node24" class="node"><title>piercing_weapons</title>
<g id="a_node24"><a xlink:href="tech_piercing_weapons_full.html" xlink:title="Piercing\nWeapons">
<polygon fill="none" stroke="green" points="964.965,-362.426 852.818,-362.426 823.968,-286.426 936.115,-286.426 964.965,-362.426"/>
<text text-anchor="middle" x="894.466" y="-328.226" font-family="Times,serif" font-size="14.00" fill="#ebc72d">Piercing</text>
<text text-anchor="middle" x="894.466" y="-313.226" font-family="Times,serif" font-size="14.00" fill="#ebc72d">Weapons</text>
</a>
</g>
</g>
<!-- blacksmith&#45;&gt;piercing_weapons -->
<g id="edge13" class="edge"><title>blacksmith&#45;&gt;piercing_weapons</title>
<path fill="none" stroke="#ebc72d" d="M730.779,-401.757C759.045,-388.576 802.579,-368.276 837.647,-351.923"/>
<polygon fill="#ebc72d" stroke="#ebc72d" points="839.244,-355.04 846.828,-347.641 836.286,-348.695 839.244,-355.04"/>
</g>
<!-- blade_weapons -->
<g id="node26" class="node"><title>blade_weapons</title>
<g id="a_node26"><a xlink:href="tech_blade_weapons_full.html" xlink:title="Blade\nWeapons">
<polygon fill="none" stroke="green" points="1123.96,-362.426 1011.82,-362.426 982.968,-286.426 1095.12,-286.426 1123.96,-362.426"/>
<text text-anchor="middle" x="1053.47" y="-328.226" font-family="Times,serif" font-size="14.00" fill="#ebc72d">Blade</text>
<text text-anchor="middle" x="1053.47" y="-313.226" font-family="Times,serif" font-size="14.00" fill="#ebc72d">Weapons</text>
</a>
</g>
</g>
<!-- blacksmith&#45;&gt;blade_weapons -->
<g id="edge10" class="edge"><title>blacksmith&#45;&gt;blade_weapons</title>
<path fill="none" stroke="#ebc72d" d="M764.94,-407.474C820.771,-399.444 903.773,-384.968 973.466,-362.426 981.23,-359.915 989.23,-356.845 997.031,-353.558"/>
<polygon fill="#ebc72d" stroke="#ebc72d" points="998.652,-356.669 1006.42,-349.463 995.853,-350.253 998.652,-356.669"/>
</g>
<!-- archer -->
<g id="node13" class="node"><title>archer</title>
<g id="a_node13"><a xlink:href="tech_archer_full.html" xlink:title="Archer">
<ellipse fill="none" stroke="magenta" cx="1290.47" cy="-324.426" rx="35.194" ry="18"/>
<text text-anchor="middle" x="1290.47" y="-320.726" font-family="Times,serif" font-size="14.00" fill="#ebc72d">Archer</text>
</a>
</g>
</g>
<!-- defense_tower -->
<g id="node16" class="node"><title>defense_tower</title>
<g id="a_node16"><a xlink:href="tech_defense_tower_full.html" xlink:title="Defense\nTower">
<polygon fill="none" stroke="red" points="900.599,-115.543 847.466,-138.641 794.334,-115.543 794.384,-78.1695 900.549,-78.1695 900.599,-115.543"/>
<text text-anchor="middle" x="847.466" y="-109.013" font-family="Times,serif" font-size="14.00" fill="#ebc72d">Defense</text>
<text text-anchor="middle" x="847.466" y="-94.0132" font-family="Times,serif" font-size="14.00" fill="#ebc72d">Tower</text>
</a>
</g>
</g>
<!-- swordman -->
<g id="node17" class="node"><title>swordman</title>
<g id="a_node17"><a xlink:href="tech_swordman_full.html" xlink:title="Swordman">
<ellipse fill="none" stroke="magenta" cx="1392.47" cy="-324.426" rx="49.2915" ry="18"/>
<text text-anchor="middle" x="1392.47" y="-320.726" font-family="Times,serif" font-size="14.00" fill="#ebc72d">Swordman</text>
</a>
</g>
</g>
<!-- swordman&#45;&gt;guard -->
<g id="edge24" class="edge"><title>swordman&#45;&gt;guard</title>
<path fill="none" stroke="#ebc72d" stroke-dasharray="5,2" d="M1392.47,-306.239C1392.47,-288.641 1392.47,-261.033 1392.47,-240.497"/>
<polygon fill="#ebc72d" stroke="#ebc72d" points="1395.97,-240.493 1392.47,-230.493 1388.97,-240.493 1395.97,-240.493"/>
</g>
<!-- worker&#45;&gt;farm -->
<g id="edge36" class="edge"><title>worker&#45;&gt;farm</title>
<path fill="none" stroke="#ebc72d" stroke-width="2" d="M588.707,-476.18C556.686,-463.657 505.023,-443.454 471.404,-430.307"/>
<polygon fill="#ebc72d" stroke="#ebc72d" stroke-width="2" points="472.599,-427.016 462.011,-426.634 470.05,-433.536 472.599,-427.016"/>
</g>
<!-- worker&#45;&gt;technodrome -->
<g id="edge37" class="edge"><title>worker&#45;&gt;technodrome</title>
<path fill="none" stroke="#ebc72d" stroke-width="2" d="M598.632,-472.431C573.718,-453.173 527.875,-419.704 484.466,-398.426 439.034,-376.157 423.629,-380.749 376.466,-362.426 360.784,-356.334 343.764,-348.897 329.243,-342.293"/>
<polygon fill="#ebc72d" stroke="#ebc72d" stroke-width="2" points="330.649,-339.087 320.1,-338.095 327.728,-345.448 330.649,-339.087"/>
</g>
<!-- worker&#45;&gt;castle -->
<g id="edge34" class="edge"><title>worker&#45;&gt;castle</title>
<path fill="none" stroke="#ebc72d" stroke-width="2" d="M573.003,-478.363C527.362,-468.73 454.451,-452.428 392.466,-434.426 387.846,-433.084 383.019,-431.562 378.274,-429.993"/>
<polygon fill="#ebc72d" stroke="#ebc72d" stroke-width="2" points="572.369,-481.806 582.874,-480.431 573.805,-474.954 572.369,-481.806"/>
<polygon fill="#ebc72d" stroke="#ebc72d" stroke-width="2" points="379.334,-426.657 368.739,-426.749 377.079,-433.284 379.334,-426.657"/>
</g>
<!-- worker&#45;&gt;blacksmith -->
<g id="edge33" class="edge"><title>worker&#45;&gt;blacksmith</title>
<path fill="none" stroke="#ebc72d" stroke-width="2" d="M635.693,-472.237C647.761,-462.181 663.732,-448.871 676.915,-437.886"/>
<polygon fill="#ebc72d" stroke="#ebc72d" stroke-width="2" points="679.261,-440.487 684.703,-431.396 674.78,-435.109 679.261,-440.487"/>
</g>
<!-- worker&#45;&gt;defense_tower -->
<g id="edge35" class="edge"><title>worker&#45;&gt;defense_tower</title>
<path fill="none" stroke="#ebc72d" stroke-width="2" d="M654.817,-484.198C762.987,-474 1072.61,-438.548 1132.47,-362.426 1213.54,-259.319 1000.74,-163.073 898.594,-124.266"/>
<polygon fill="#ebc72d" stroke="#ebc72d" stroke-width="2" points="899.661,-120.928 889.068,-120.691 897.201,-127.482 899.661,-120.928"/>
</g>
<!-- barracks -->
<g id="node20" class="node"><title>barracks</title>
<g id="a_node20"><a xlink:href="tech_barracks_full.html" xlink:title="Barracks">
<polygon fill="none" stroke="red" points="1393.91,-421.989 1341.47,-434.426 1289.03,-421.989 1289.08,-401.864 1393.86,-401.864 1393.91,-421.989"/>
<text text-anchor="middle" x="1341.47" y="-412.726" font-family="Times,serif" font-size="14.00" fill="#ebc72d">Barracks</text>
</a>
</g>
</g>
<!-- worker&#45;&gt;barracks -->
<g id="edge32" class="edge"><title>worker&#45;&gt;barracks</title>
<path fill="none" stroke="#ebc72d" stroke-width="2" d="M654.616,-483.835C771.824,-472.502 1134.64,-437.423 1280.16,-423.354"/>
<polygon fill="#ebc72d" stroke="#ebc72d" stroke-width="2" points="1280.64,-426.824 1290.26,-422.378 1279.97,-419.856 1280.64,-426.824"/>
</g>
<!-- barracks&#45;&gt;horseman -->
<g id="edge7" class="edge"><title>barracks&#45;&gt;horseman</title>
<path fill="none" stroke="#ebc72d" d="M1315.75,-401.794C1296.45,-391.394 1269.51,-376.507 1246.47,-362.426 1194.5,-330.679 1189.23,-308.461 1132.47,-286.426 989.42,-230.903 806.753,-217.481 715.221,-214.324"/>
<polygon fill="#ebc72d" stroke="#ebc72d" points="715.157,-210.82 705.051,-214.003 714.936,-217.817 715.157,-210.82"/>
</g>
<!-- barracks&#45;&gt;archer -->
<g id="edge5" class="edge"><title>barracks&#45;&gt;archer</title>
<path fill="none" stroke="#ebc72d" d="M1333.72,-401.757C1326.13,-388.357 1314.36,-367.597 1305.02,-351.108"/>
<polygon fill="#ebc72d" stroke="#ebc72d" points="1307.82,-348.956 1299.85,-341.981 1301.73,-352.407 1307.82,-348.956"/>
</g>
<!-- barracks&#45;&gt;swordman -->
<g id="edge8" class="edge"><title>barracks&#45;&gt;swordman</title>
<path fill="none" stroke="#ebc72d" d="M1349.21,-401.757C1356.76,-388.439 1368.43,-367.851 1377.74,-351.412"/>
<polygon fill="#ebc72d" stroke="#ebc72d" points="1381.02,-352.724 1382.91,-342.299 1374.93,-349.273 1381.02,-352.724"/>
</g>
<!-- barracks&#45;&gt;guard -->
<g id="edge6" class="edge"><title>barracks&#45;&gt;guard</title>
<path fill="none" stroke="#ebc72d" d="M1393.7,-403.158C1415.14,-395.272 1437.85,-382.583 1450.47,-362.426 1468.38,-333.792 1461.59,-318.319 1450.47,-286.426 1443.65,-266.879 1429.16,-248.643 1416.38,-235.286"/>
<polygon fill="#ebc72d" stroke="#ebc72d" points="1418.66,-232.617 1409.12,-228.013 1413.7,-237.563 1418.66,-232.617"/>
</g>
<!-- training_field -->
<g id="node27" class="node"><title>training_field</title>
<g id="a_node27"><a xlink:href="tech_training_field_full.html" xlink:title="Training\nField">
<polygon fill="none" stroke="green" points="1627.6,-362.426 1523.99,-362.426 1497.34,-286.426 1600.94,-286.426 1627.6,-362.426"/>
<text text-anchor="middle" x="1562.47" y="-328.226" font-family="Times,serif" font-size="14.00" fill="#ebc72d">Training</text>
<text text-anchor="middle" x="1562.47" y="-313.226" font-family="Times,serif" font-size="14.00" fill="#ebc72d">Field</text>
</a>
</g>
</g>
<!-- barracks&#45;&gt;training_field -->
<g id="edge9" class="edge"><title>barracks&#45;&gt;training_field</title>
<path fill="none" stroke="#ebc72d" d="M1380.67,-401.756C1409.37,-391.516 1449.14,-376.844 1483.47,-362.426 1491.88,-358.895 1500.7,-354.977 1509.28,-351.051"/>
<polygon fill="#ebc72d" stroke="#ebc72d" points="1510.85,-354.179 1518.46,-346.805 1507.91,-347.826 1510.85,-354.179"/>
</g>
<!-- robotics&#45;&gt;airship -->
<g id="edge21" class="edge"><title>robotics&#45;&gt;airship</title>
<path fill="none" stroke="#ebc72d" stroke-dasharray="1,5" d="M326.11,-194.084C341.46,-166.642 365.755,-112.204 344.466,-72 335.692,-55.4299 319.158,-43.0785 303.564,-34.4874"/>
<polygon fill="#ebc72d" stroke="#ebc72d" points="305.05,-31.3163 294.556,-29.8602 301.852,-37.5428 305.05,-31.3163"/>
</g>
<!-- robotics&#45;&gt;battle_machine -->
<g id="edge22" class="edge"><title>robotics&#45;&gt;battle_machine</title>
<path fill="none" stroke="#ebc72d" stroke-dasharray="1,5" d="M311.173,-194.053C307.677,-179.903 302.625,-159.461 298.274,-141.856"/>
<polygon fill="#ebc72d" stroke="#ebc72d" points="301.608,-140.756 295.811,-131.888 294.812,-142.436 301.608,-140.756"/>
</g>
<!-- stables&#45;&gt;horseman -->
<g id="edge23" class="edge"><title>stables&#45;&gt;horseman</title>
<path fill="none" stroke="#ebc72d" stroke-dasharray="1,5" d="M465.58,-306.401C476.302,-299.893 488.824,-292.565 500.466,-286.426 534.24,-268.619 543.845,-266.524 578.466,-250.426 591.949,-244.158 606.708,-237.256 619.783,-231.128"/>
<polygon fill="#ebc72d" stroke="#ebc72d" points="621.395,-234.238 628.963,-226.823 618.423,-227.9 621.395,-234.238"/>
</g>
<!-- advanced_architecture&#45;&gt;air_ballista -->
<g id="edge1" class="edge"><title>advanced_architecture&#45;&gt;air_ballista</title>
<path fill="none" stroke="#ebc72d" stroke-dasharray="1,5" d="M473.652,-174.332C471.164,-163.86 468.462,-152.488 465.991,-142.089"/>
<polygon fill="#ebc72d" stroke="#ebc72d" points="469.331,-141.004 463.614,-132.084 462.52,-142.622 469.331,-141.004"/>
</g>
<!-- advanced_architecture&#45;&gt;defense_tower -->
<g id="edge2" class="edge"><title>advanced_architecture&#45;&gt;defense_tower</title>
<path fill="none" stroke="#ebc72d" stroke-dasharray="1,5" d="M542.59,-192.336C561.405,-186.468 582.267,-180.072 601.466,-174.426 666.307,-155.361 741.188,-134.805 791.141,-121.299"/>
<polygon fill="#ebc72d" stroke="#ebc72d" points="792.356,-124.597 801.099,-118.611 790.532,-117.839 792.356,-124.597"/>
</g>
</g>
</svg>
