<?xml version="1.0" encoding="UTF-8" standalone="no"?>
<!DOCTYPE svg PUBLIC "-//W3C//DTD SVG 1.1//EN"
 "http://www.w3.org/Graphics/SVG/1.1/DTD/svg11.dtd">
<!-- Generated by graphviz version 2.38.0 (20140413.2041)
 -->
<!-- Title: test Pages: 1 -->
<svg width="1093pt" height="380pt"
 viewBox="0.00 0.00 1092.97 380.17" xmlns="http://www.w3.org/2000/svg" xmlns:xlink="http://www.w3.org/1999/xlink">
<g id="graph0" class="graph" transform="scale(1 1) rotate(0) translate(4 376.167)">
<title>test</title>
<polygon fill="#151515" stroke="none" points="-4,4 -4,-376.167 1088.97,-376.167 1088.97,4 -4,4"/>
<!-- cow -->
<g id="node1" class="node"><title>cow</title>
<g id="a_node1"><a xlink:href="tech_cow_full.html" xlink:title="Cow">
<ellipse fill="none" stroke="magenta" cx="27.2976" cy="-98.8701" rx="27.0966" ry="18"/>
<text text-anchor="middle" x="27.2976" y="-95.1701" font-family="Times,serif" font-size="14.00" fill="#ebc72d">Cow</text>
</a>
</g>
</g>
<!-- aerodrome -->
<g id="node2" class="node"><title>aerodrome</title>
<g id="a_node2"><a xlink:href="tech_aerodrome_full.html" xlink:title="Aerodrome">
<polygon fill="none" stroke="red" points="408.731,-104.432 345.298,-116.87 281.865,-104.432 281.924,-84.3078 408.671,-84.3078 408.731,-104.432"/>
<text text-anchor="middle" x="345.298" y="-95.1701" font-family="Times,serif" font-size="14.00" fill="#ebc72d">Aerodrome</text>
</a>
</g>
</g>
<!-- ornithopter -->
<g id="node7" class="node"><title>ornithopter</title>
<g id="a_node7"><a xlink:href="tech_ornithopter_full.html" xlink:title="Ornithopter">
<ellipse fill="none" stroke="magenta" cx="345.298" cy="-18" rx="51.9908" ry="18"/>
<text text-anchor="middle" x="345.298" y="-14.3" font-family="Times,serif" font-size="14.00" fill="#ebc72d">Ornithopter</text>
</a>
</g>
</g>
<!-- aerodrome&#45;&gt;ornithopter -->
<g id="edge2" class="edge"><title>aerodrome&#45;&gt;ornithopter</title>
<path fill="none" stroke="#ebc72d" d="M345.298,-84.1319C345.298,-73.719 345.298,-59.0721 345.298,-46.3046"/>
<polygon fill="#ebc72d" stroke="#ebc72d" points="348.798,-46.1561 345.298,-36.1562 341.798,-46.1562 348.798,-46.1561"/>
</g>
<!-- airship -->
<g id="node11" class="node"><title>airship</title>
<g id="a_node11"><a xlink:href="tech_airship_full.html" xlink:title="Airship">
<ellipse fill="none" stroke="magenta" cx="664.298" cy="-18" rx="37.0935" ry="18"/>
<text text-anchor="middle" x="664.298" y="-14.3" font-family="Times,serif" font-size="14.00" fill="#ebc72d">Airship</text>
</a>
</g>
</g>
<!-- aerodrome&#45;&gt;airship -->
<g id="edge1" class="edge"><title>aerodrome&#45;&gt;airship</title>
<path fill="none" stroke="#ebc72d" d="M381.019,-84.1797C392.788,-79.947 406.009,-75.4857 418.298,-72 487.751,-52.2996 570.039,-35.9491 619.655,-26.8322"/>
<polygon fill="#ebc72d" stroke="#ebc72d" points="620.519,-30.2326 629.73,-24.998 619.265,-23.3458 620.519,-30.2326"/>
</g>
<!-- farm -->
<g id="node3" class="node"><title>farm</title>
<g id="a_node3"><a xlink:href="tech_farm_full.html" xlink:title="Farm">
<polygon fill="none" stroke="red" points="136.208,-200.516 99.2976,-212.953 62.3872,-200.516 62.4217,-180.391 136.173,-180.391 136.208,-200.516"/>
<text text-anchor="middle" x="99.2976" y="-191.253" font-family="Times,serif" font-size="14.00" fill="#ebc72d">Farm</text>
</a>
</g>
</g>
<!-- farm&#45;&gt;cow -->
<g id="edge14" class="edge"><title>farm&#45;&gt;cow</title>
<path fill="none" stroke="#ebc72d" d="M88.6737,-180.071C77.3114,-165.224 59.0871,-141.41 45.4437,-123.582"/>
<polygon fill="#ebc72d" stroke="#ebc72d" points="48.0211,-121.191 39.1642,-115.376 42.4621,-125.445 48.0211,-121.191"/>
</g>
<!-- horseman -->
<g id="node5" class="node"><title>horseman</title>
<g id="a_node5"><a xlink:href="tech_horseman_full.html" xlink:title="Horseman">
<ellipse fill="none" stroke="magenta" cx="759.298" cy="-98.8701" rx="47.3916" ry="18"/>
<text text-anchor="middle" x="759.298" y="-95.1701" font-family="Times,serif" font-size="14.00" fill="#ebc72d">Horseman</text>
</a>
</g>
</g>
<!-- farm&#45;&gt;horseman -->
<g id="edge15" class="edge"><title>farm&#45;&gt;horseman</title>
<path fill="none" stroke="#ebc72d" stroke-dasharray="1,5" d="M116.143,-180.296C125.597,-173.441 137.949,-165.758 150.298,-161.74 381.982,-86.3648 460.105,-181.404 697.298,-125.74 705.704,-123.767 714.433,-120.772 722.595,-117.511"/>
<polygon fill="#ebc72d" stroke="#ebc72d" points="724.008,-120.714 731.864,-113.605 721.289,-114.263 724.008,-120.714"/>
</g>
<!-- pig -->
<g id="node14" class="node"><title>pig</title>
<g id="a_node14"><a xlink:href="tech_pig_full.html" xlink:title="Pig">
<ellipse fill="none" stroke="magenta" cx="99.2976" cy="-98.8701" rx="27" ry="18"/>
<text text-anchor="middle" x="99.2976" y="-95.1701" font-family="Times,serif" font-size="14.00" fill="#ebc72d">Pig</text>
</a>
</g>
</g>
<!-- farm&#45;&gt;pig -->
<g id="edge16" class="edge"><title>farm&#45;&gt;pig</title>
<path fill="none" stroke="#ebc72d" d="M99.2976,-180.071C99.2976,-166.187 99.2976,-144.462 99.2976,-127.123"/>
<polygon fill="#ebc72d" stroke="#ebc72d" points="102.798,-127.003 99.2976,-117.003 95.7977,-127.003 102.798,-127.003"/>
</g>
<!-- technodrome -->
<g id="node4" class="node"><title>technodrome</title>
<g id="a_node4"><a xlink:href="tech_technodrome_full.html" xlink:title="Technodrome">
<polygon fill="none" stroke="red" points="617.118,-287.729 543.298,-300.167 469.477,-287.729 469.546,-267.604 617.049,-267.604 617.118,-287.729"/>
<text text-anchor="middle" x="543.298" y="-278.467" font-family="Times,serif" font-size="14.00" fill="#ebc72d">Technodrome</text>
</a>
</g>
</g>
<!-- technodrome&#45;&gt;ornithopter -->
<g id="edge27" class="edge"><title>technodrome&#45;&gt;ornithopter</title>
<path fill="none" stroke="#ebc72d" stroke-dasharray="1,5" d="M477.296,-267.578C369.811,-245.277 168.411,-202.701 164.298,-195.953"/>
<path fill="none" stroke="#ebc72d" stroke-dasharray="1,5" d="M164.298,-193.953C136.007,-147.548 139.43,-114.506 173.298,-72 199.484,-39.1355 245.623,-26.1738 283.526,-21.2736"/>
<polygon fill="#ebc72d" stroke="#ebc72d" points="283.928,-24.7505 293.469,-20.1446 283.138,-17.7952 283.928,-24.7505"/>
</g>
<!-- technician -->
<g id="node8" class="node"><title>technician</title>
<g id="a_node8"><a xlink:href="tech_technician_full.html" xlink:title="Technician">
<ellipse fill="none" stroke="magenta" cx="465.298" cy="-194.953" rx="50.0912" ry="18"/>
<text text-anchor="middle" x="465.298" y="-191.253" font-family="Times,serif" font-size="14.00" fill="#ebc72d">Technician</text>
</a>
</g>
</g>
<!-- technodrome&#45;&gt;technician -->
<g id="edge28" class="edge"><title>technodrome&#45;&gt;technician</title>
<path fill="none" stroke="#ebc72d" d="M530.766,-267.476C519.031,-254.655 501.242,-235.222 487.168,-219.846"/>
<polygon fill="#ebc72d" stroke="#ebc72d" points="489.532,-217.245 480.198,-212.232 484.369,-221.972 489.532,-217.245"/>
</g>
<!-- air_ballista -->
<g id="node10" class="node"><title>air_ballista</title>
<g id="a_node10"><a xlink:href="tech_air_ballista_full.html" xlink:title="Air\nBallista">
<ellipse fill="none" stroke="magenta" cx="223.298" cy="-98.8701" rx="41.0244" ry="26.7407"/>
<text text-anchor="middle" x="223.298" y="-102.67" font-family="Times,serif" font-size="14.00" fill="#ebc72d">Air</text>
<text text-anchor="middle" x="223.298" y="-87.6701" font-family="Times,serif" font-size="14.00" fill="#ebc72d">Ballista</text>
</a>
</g>
</g>
<!-- technodrome&#45;&gt;air_ballista -->
<g id="edge22" class="edge"><title>technodrome&#45;&gt;air_ballista</title>
<path fill="none" stroke="#ebc72d" stroke-dasharray="1,5" d="M164.298,-193.953C150.326,-171.036 168.998,-145.221 188.942,-126.437"/>
<polygon fill="#ebc72d" stroke="#ebc72d" points="191.462,-128.878 196.582,-119.603 186.795,-123.661 191.462,-128.878"/>
</g>
<!-- technodrome&#45;&gt;airship -->
<g id="edge23" class="edge"><title>technodrome&#45;&gt;airship</title>
<path fill="none" stroke="#ebc72d" stroke-dasharray="1,5" d="M543.298,-193.953C547.713,-146.409 595.53,-162.254 626.298,-125.74 645.643,-102.782 655.428,-69.2585 660.176,-45.9281"/>
<polygon fill="#ebc72d" stroke="#ebc72d" points="663.635,-46.4714 662.02,-36.0005 656.753,-45.1934 663.635,-46.4714"/>
</g>
<!-- catapult -->
<g id="node12" class="node"><title>catapult</title>
<g id="a_node12"><a xlink:href="tech_catapult_full.html" xlink:title="Catapult">
<ellipse fill="none" stroke="magenta" cx="467.298" cy="-98.8701" rx="40.0939" ry="18"/>
<text text-anchor="middle" x="467.298" y="-95.1701" font-family="Times,serif" font-size="14.00" fill="#ebc72d">Catapult</text>
</a>
</g>
</g>
<!-- technodrome&#45;&gt;catapult -->
<g id="edge25" class="edge"><title>technodrome&#45;&gt;catapult</title>
<path fill="none" stroke="#ebc72d" stroke-dasharray="1,5" d="M542.524,-267.553C541.744,-250.701 540.958,-221.143 543.298,-195.953"/>
<path fill="none" stroke="#ebc72d" stroke-dasharray="1,5" d="M543.298,-193.953C546.138,-163.364 520.908,-137.009 498.765,-120.039"/>
<polygon fill="#ebc72d" stroke="#ebc72d" points="500.636,-117.072 490.494,-114.006 496.51,-122.727 500.636,-117.072"/>
</g>
<!-- battle_machine -->
<g id="node15" class="node"><title>battle_machine</title>
<g id="a_node15"><a xlink:href="tech_battle_machine_full.html" xlink:title="Battle\nMachine">
<ellipse fill="none" stroke="magenta" cx="571.298" cy="-98.8701" rx="45.9239" ry="26.7407"/>
<text text-anchor="middle" x="571.298" y="-102.67" font-family="Times,serif" font-size="14.00" fill="#ebc72d">Battle</text>
<text text-anchor="middle" x="571.298" y="-87.6701" font-family="Times,serif" font-size="14.00" fill="#ebc72d">Machine</text>
</a>
</g>
</g>
<!-- technodrome&#45;&gt;battle_machine -->
<g id="edge24" class="edge"><title>technodrome&#45;&gt;battle_machine</title>
<path fill="none" stroke="#ebc72d" stroke-dasharray="1,5" d="M543.298,-193.953C545.155,-173.953 551.237,-152.425 557.261,-135.016"/>
<polygon fill="#ebc72d" stroke="#ebc72d" points="560.67,-135.88 560.768,-125.285 554.085,-133.506 560.67,-135.88"/>
</g>
<!-- defense_tower -->
<g id="node16" class="node"><title>defense_tower</title>
<g id="a_node16"><a xlink:href="tech_defense_tower_full.html" xlink:title="Defense\nTower">
<polygon fill="none" stroke="red" points="677.43,-205.283 624.298,-228.381 571.165,-205.283 571.215,-167.91 677.381,-167.91 677.43,-205.283"/>
<text text-anchor="middle" x="624.298" y="-198.753" font-family="Times,serif" font-size="14.00" fill="#ebc72d">Defense</text>
<text text-anchor="middle" x="624.298" y="-183.753" font-family="Times,serif" font-size="14.00" fill="#ebc72d">Tower</text>
</a>
</g>
</g>
<!-- technodrome&#45;&gt;defense_tower -->
<g id="edge26" class="edge"><title>technodrome&#45;&gt;defense_tower</title>
<path fill="none" stroke="#ebc72d" stroke-dasharray="1,5" d="M556.312,-267.476C566.801,-256.44 581.949,-240.505 595.285,-226.475"/>
<polygon fill="#ebc72d" stroke="#ebc72d" points="598.113,-228.58 602.466,-218.92 593.04,-223.757 598.113,-228.58"/>
</g>
<!-- castle -->
<g id="node6" class="node"><title>castle</title>
<g id="a_node6"><a xlink:href="tech_castle_full.html" xlink:title="Castle">
<polygon fill="none" stroke="red" points="413.636,-287.729 373.298,-300.167 332.96,-287.729 332.997,-267.604 413.598,-267.604 413.636,-287.729"/>
<text text-anchor="middle" x="373.298" y="-278.467" font-family="Times,serif" font-size="14.00" fill="#ebc72d">Castle</text>
</a>
</g>
</g>
<!-- worker -->
<g id="node19" class="node"><title>worker</title>
<g id="a_node19"><a xlink:href="tech_worker_full.html" xlink:title="Worker">
<ellipse fill="none" stroke="magenta" cx="543.298" cy="-354.167" rx="38.1938" ry="18"/>
<text text-anchor="middle" x="543.298" y="-350.467" font-family="Times,serif" font-size="14.00" fill="#ebc72d">Worker</text>
</a>
</g>
</g>
<!-- technician&#45;&gt;aerodrome -->
<g id="edge18" class="edge"><title>technician&#45;&gt;aerodrome</title>
<path fill="none" stroke="#ebc72d" stroke-width="2" d="M445.482,-178.417C425.058,-162.405 393.138,-137.378 370.833,-119.89"/>
<polygon fill="#ebc72d" stroke="#ebc72d" stroke-width="2" points="372.828,-117.007 362.799,-113.591 368.509,-122.516 372.828,-117.007"/>
</g>
<!-- technician&#45;&gt;air_ballista -->
<g id="edge19" class="edge"><title>technician&#45;&gt;air_ballista</title>
<path fill="none" stroke="#ebc72d" stroke-dasharray="5,2" d="M428.633,-182.575C389.568,-170.072 326.193,-148.693 273.298,-125.74 270.061,-124.336 266.744,-122.813 263.432,-121.234"/>
<polygon fill="#ebc72d" stroke="#ebc72d" points="264.705,-117.959 254.187,-116.682 261.613,-124.239 264.705,-117.959"/>
</g>
<!-- technician&#45;&gt;catapult -->
<g id="edge21" class="edge"><title>technician&#45;&gt;catapult</title>
<path fill="none" stroke="#ebc72d" stroke-dasharray="5,2" d="M465.664,-176.697C465.958,-162.904 466.374,-143.308 466.713,-127.359"/>
<polygon fill="#ebc72d" stroke="#ebc72d" points="470.22,-127.089 466.933,-117.017 463.221,-126.94 470.22,-127.089"/>
</g>
<!-- technician&#45;&gt;battle_machine -->
<g id="edge20" class="edge"><title>technician&#45;&gt;battle_machine</title>
<path fill="none" stroke="#ebc72d" stroke-dasharray="5,2" d="M483.279,-177.993C498.474,-164.507 520.62,-144.85 538.896,-128.629"/>
<polygon fill="#ebc72d" stroke="#ebc72d" points="541.304,-131.171 546.46,-121.915 536.658,-125.936 541.304,-131.171"/>
</g>
<!-- blacksmith -->
<g id="node9" class="node"><title>blacksmith</title>
<g id="a_node9"><a xlink:href="tech_blacksmith_full.html" xlink:title="Blacksmith">
<polygon fill="none" stroke="red" points="822.731,-200.516 759.298,-212.953 695.865,-200.516 695.924,-180.391 822.671,-180.391 822.731,-200.516"/>
<text text-anchor="middle" x="759.298" y="-191.253" font-family="Times,serif" font-size="14.00" fill="#ebc72d">Blacksmith</text>
</a>
</g>
</g>
<!-- blacksmith&#45;&gt;horseman -->
<g id="edge11" class="edge"><title>blacksmith&#45;&gt;horseman</title>
<path fill="none" stroke="#ebc72d" stroke-dasharray="1,5" d="M759.298,-180.071C759.298,-166.187 759.298,-144.462 759.298,-127.123"/>
<polygon fill="#ebc72d" stroke="#ebc72d" points="762.798,-127.003 759.298,-117.003 755.798,-127.003 762.798,-127.003"/>
</g>
<!-- blacksmith&#45;&gt;ornithopter -->
<g id="edge12" class="edge"><title>blacksmith&#45;&gt;ornithopter</title>
<path fill="none" stroke="#ebc72d" stroke-dasharray="1,5" d="M747.809,-180.201C736.404,-166.493 718.479,-144.794 703.298,-125.74 694.241,-114.374 694.748,-108.821 683.298,-99.8701"/>
<path fill="none" stroke="#ebc72d" stroke-dasharray="1,5" d="M683.298,-97.8701C640.131,-64.1262 487.725,-38.5233 403.067,-26.5235"/>
<polygon fill="#ebc72d" stroke="#ebc72d" points="403.479,-23.0471 393.09,-25.1279 402.509,-29.9796 403.479,-23.0471"/>
</g>
<!-- blacksmith&#45;&gt;airship -->
<g id="edge7" class="edge"><title>blacksmith&#45;&gt;airship</title>
<path fill="none" stroke="#ebc72d" stroke-dasharray="1,5" d="M683.298,-97.8701C668.043,-85.9458 663.693,-64.0853 662.935,-46.3983"/>
<polygon fill="#ebc72d" stroke="#ebc72d" points="666.432,-46.0259 662.861,-36.051 659.433,-46.0756 666.432,-46.0259"/>
</g>
<!-- blacksmith&#45;&gt;catapult -->
<g id="edge9" class="edge"><title>blacksmith&#45;&gt;catapult</title>
<path fill="none" stroke="#ebc72d" stroke-dasharray="1,5" d="M732.09,-180.339C718.579,-173.996 701.854,-166.76 686.298,-161.74 612.798,-138.024 588.92,-152.021 516.298,-125.74 510.734,-123.727 505.016,-121.188 499.539,-118.492"/>
<polygon fill="#ebc72d" stroke="#ebc72d" points="501.107,-115.363 490.617,-113.872 497.888,-121.579 501.107,-115.363"/>
</g>
<!-- blacksmith&#45;&gt;battle_machine -->
<g id="edge8" class="edge"><title>blacksmith&#45;&gt;battle_machine</title>
<path fill="none" stroke="#ebc72d" stroke-dasharray="1,5" d="M731.961,-180.273C701.204,-164.881 650.831,-139.672 614.684,-121.583"/>
<polygon fill="#ebc72d" stroke="#ebc72d" points="615.868,-118.261 605.359,-116.916 612.735,-124.521 615.868,-118.261"/>
</g>
<!-- guard -->
<g id="node18" class="node"><title>guard</title>
<g id="a_node18"><a xlink:href="tech_guard_full.html" xlink:title="Guard">
<ellipse fill="none" stroke="magenta" cx="1016.3" cy="-98.8701" rx="32.4942" ry="18"/>
<text text-anchor="middle" x="1016.3" y="-95.1701" font-family="Times,serif" font-size="14.00" fill="#ebc72d">Guard</text>
</a>
</g>
</g>
<!-- blacksmith&#45;&gt;guard -->
<g id="edge10" class="edge"><title>blacksmith&#45;&gt;guard</title>
<path fill="none" stroke="#ebc72d" stroke-dasharray="1,5" d="M788.523,-180.327C801.77,-174.34 817.703,-167.4 832.298,-161.74 882.273,-142.358 941.172,-123.178 978.618,-111.431"/>
<polygon fill="#ebc72d" stroke="#ebc72d" points="980.081,-114.64 988.585,-108.32 977.996,-107.958 980.081,-114.64"/>
</g>
<!-- archer -->
<g id="node13" class="node"><title>archer</title>
<g id="a_node13"><a xlink:href="tech_archer_full.html" xlink:title="Archer">
<ellipse fill="none" stroke="magenta" cx="876.298" cy="-194.953" rx="35.194" ry="18"/>
<text text-anchor="middle" x="876.298" y="-191.253" font-family="Times,serif" font-size="14.00" fill="#ebc72d">Archer</text>
</a>
</g>
</g>
<!-- swordman -->
<g id="node17" class="node"><title>swordman</title>
<g id="a_node17"><a xlink:href="tech_swordman_full.html" xlink:title="Swordman">
<ellipse fill="none" stroke="magenta" cx="1016.3" cy="-194.953" rx="49.2915" ry="18"/>
<text text-anchor="middle" x="1016.3" y="-191.253" font-family="Times,serif" font-size="14.00" fill="#ebc72d">Swordman</text>
</a>
</g>
</g>
<!-- swordman&#45;&gt;guard -->
<g id="edge17" class="edge"><title>swordman&#45;&gt;guard</title>
<path fill="none" stroke="#ebc72d" stroke-dasharray="5,2" d="M1016.3,-176.697C1016.3,-162.904 1016.3,-143.308 1016.3,-127.359"/>
<polygon fill="#ebc72d" stroke="#ebc72d" points="1019.8,-127.017 1016.3,-117.017 1012.8,-127.017 1019.8,-127.017"/>
</g>
<!-- worker&#45;&gt;farm -->
<g id="edge33" class="edge"><title>worker&#45;&gt;farm</title>
<path fill="none" stroke="#ebc72d" stroke-width="2" d="M519.597,-339.676C502.542,-329.581 479.292,-315.01 460.298,-300.167 441.966,-285.842 443.296,-274.181 422.298,-264.167 312.23,-211.677 264.953,-269.691 150.298,-228.167 140.753,-224.71 131.124,-219.252 122.843,-213.804"/>
<polygon fill="#ebc72d" stroke="#ebc72d" stroke-width="2" points="124.667,-210.81 114.454,-207.992 120.681,-216.564 124.667,-210.81"/>
</g>
<!-- worker&#45;&gt;technodrome -->
<g id="edge34" class="edge"><title>worker&#45;&gt;technodrome</title>
<path fill="none" stroke="#ebc72d" stroke-width="2" d="M543.298,-335.863C543.298,-328.149 543.298,-318.879 543.298,-310.279"/>
<polygon fill="#ebc72d" stroke="#ebc72d" stroke-width="2" points="546.798,-310.271 543.298,-300.271 539.798,-310.271 546.798,-310.271"/>
</g>
<!-- worker&#45;&gt;castle -->
<g id="edge31" class="edge"><title>worker&#45;&gt;castle</title>
<path fill="none" stroke="#ebc72d" stroke-width="2" d="M505.848,-337.746C476.166,-325.524 435.078,-308.605 406.548,-296.858"/>
<polygon fill="#ebc72d" stroke="#ebc72d" stroke-width="2" points="504.646,-341.036 515.226,-341.607 507.311,-334.564 504.646,-341.036"/>
<polygon fill="#ebc72d" stroke="#ebc72d" stroke-width="2" points="407.599,-293.505 397.019,-292.934 404.933,-299.978 407.599,-293.505"/>
</g>
<!-- worker&#45;&gt;blacksmith -->
<g id="edge30" class="edge"><title>worker&#45;&gt;blacksmith</title>
<path fill="none" stroke="#ebc72d" stroke-width="2" d="M702.298,-281.167C714.456,-259.576 730.248,-236.267 742.126,-219.494"/>
<polygon fill="#ebc72d" stroke="#ebc72d" stroke-width="2" points="745.302,-221.07 748.273,-210.9 739.608,-216.997 745.302,-221.07"/>
</g>
<!-- worker&#45;&gt;defense_tower -->
<g id="edge32" class="edge"><title>worker&#45;&gt;defense_tower</title>
<path fill="none" stroke="#ebc72d" stroke-width="2" d="M580.384,-349.3C619.242,-342.973 677.952,-326.397 702.298,-283.167"/>
<path fill="none" stroke="#ebc72d" stroke-width="2" d="M702.298,-281.167C715.767,-257.249 692.54,-234.55 668.005,-218.602"/>
<polygon fill="#ebc72d" stroke="#ebc72d" stroke-width="2" points="669.678,-215.522 659.329,-213.252 666.004,-221.48 669.678,-215.522"/>
</g>
<!-- barracks -->
<g id="node20" class="node"><title>barracks</title>
<g id="a_node20"><a xlink:href="tech_barracks_full.html" xlink:title="Barracks">
<polygon fill="none" stroke="red" points="991.737,-287.729 939.298,-300.167 886.858,-287.729 886.907,-267.604 991.688,-267.604 991.737,-287.729"/>
<text text-anchor="middle" x="939.298" y="-278.467" font-family="Times,serif" font-size="14.00" fill="#ebc72d">Barracks</text>
</a>
</g>
</g>
<!-- worker&#45;&gt;barracks -->
<g id="edge29" class="edge"><title>worker&#45;&gt;barracks</title>
<path fill="none" stroke="#ebc72d" stroke-width="2" d="M578.44,-346.955C648.599,-334.553 806.291,-306.678 888.014,-292.232"/>
<polygon fill="#ebc72d" stroke="#ebc72d" stroke-width="2" points="888.832,-295.642 898.07,-290.454 887.613,-288.748 888.832,-295.642"/>
</g>
<!-- barracks&#45;&gt;horseman -->
<g id="edge5" class="edge"><title>barracks&#45;&gt;horseman</title>
<path fill="none" stroke="#ebc72d" d="M941.207,-267.243C943.727,-242.974 945.274,-192.573 920.298,-161.74 894.479,-129.868 850.196,-114.39 814.599,-106.887"/>
<polygon fill="#ebc72d" stroke="#ebc72d" points="814.822,-103.365 804.338,-104.89 813.485,-110.236 814.822,-103.365"/>
</g>
<!-- barracks&#45;&gt;archer -->
<g id="edge3" class="edge"><title>barracks&#45;&gt;archer</title>
<path fill="none" stroke="#ebc72d" d="M929.176,-267.476C919.726,-254.694 905.415,-235.338 894.064,-219.984"/>
<polygon fill="#ebc72d" stroke="#ebc72d" points="896.871,-217.893 888.112,-211.933 891.242,-222.055 896.871,-217.893"/>
</g>
<!-- barracks&#45;&gt;swordman -->
<g id="edge6" class="edge"><title>barracks&#45;&gt;swordman</title>
<path fill="none" stroke="#ebc72d" d="M951.669,-267.476C963.253,-254.655 980.814,-235.222 994.708,-219.846"/>
<polygon fill="#ebc72d" stroke="#ebc72d" points="997.48,-221.998 1001.59,-212.232 992.286,-217.305 997.48,-221.998"/>
</g>
<!-- barracks&#45;&gt;guard -->
<g id="edge4" class="edge"><title>barracks&#45;&gt;guard</title>
<path fill="none" stroke="#ebc72d" d="M991.816,-274.943C1021.34,-268.457 1055.86,-255.213 1074.3,-228.167 1090.93,-203.773 1085.15,-189.194 1074.3,-161.74 1067.9,-145.567 1055.06,-131.146 1043.08,-120.304"/>
<polygon fill="#ebc72d" stroke="#ebc72d" points="1045.28,-117.576 1035.41,-113.714 1040.72,-122.886 1045.28,-117.576"/>
</g>
</g>
</svg>
