<?xml version="1.0" encoding="UTF-8" standalone="no"?>
<!DOCTYPE svg PUBLIC "-//W3C//DTD SVG 1.1//EN"
 "http://www.w3.org/Graphics/SVG/1.1/DTD/svg11.dtd">
<!-- Generated by graphviz version 2.38.0 (20140413.2041)
 -->
<!-- Title: test Pages: 1 -->
<svg width="441pt" height="404pt"
 viewBox="0.00 0.00 440.60 404.00" xmlns="http://www.w3.org/2000/svg" xmlns:xlink="http://www.w3.org/1999/xlink">
<g id="graph0" class="graph" transform="scale(1 1) rotate(0) translate(4 400)">
<title>test</title>
<polygon fill="#151515" stroke="none" points="-4,4 -4,-400 436.601,-400 436.601,4 -4,4"/>
<!-- roundtent -->
<g id="node1" class="node"><title>roundtent</title>
<g id="a_node1"><a xlink:href="indian_roundtent_full.html" xlink:title="Roundtent">
<polygon fill="none" stroke="red" points="302.141,-239.562 243.348,-252 184.556,-239.562 184.61,-219.438 302.086,-219.438 302.141,-239.562"/>
<text text-anchor="middle" x="243.348" y="-230.3" font-family="Times,serif" font-size="14.00" fill="#ebc72d">Roundtent</text>
</a>
</g>
</g>
<!-- campfire -->
<g id="node3" class="node"><title>campfire</title>
<g id="a_node3"><a xlink:href="indian_campfire_full.html" xlink:title="Campfire">
<polygon fill="none" stroke="red" points="294.107,-167.562 239.348,-180 184.589,-167.562 184.64,-147.438 294.056,-147.438 294.107,-167.562"/>
<text text-anchor="middle" x="239.348" y="-158.3" font-family="Times,serif" font-size="14.00" fill="#ebc72d">Campfire</text>
</a>
</g>
</g>
<!-- roundtent&#45;&gt;campfire -->
<g id="edge7" class="edge"><title>roundtent&#45;&gt;campfire</title>
<path fill="none" stroke="#ebc72d" stroke-dasharray="1,5" d="M242.558,-219.17C242.087,-210.919 241.471,-200.153 240.906,-190.256"/>
<polygon fill="#ebc72d" stroke="#ebc72d" points="244.386,-189.803 240.321,-180.019 237.397,-190.202 244.386,-189.803"/>
</g>
<!-- horsefarm -->
<g id="node8" class="node"><title>horsefarm</title>
<g id="a_node8"><a xlink:href="indian_horsefarm_full.html" xlink:title="Horsefarm">
<polygon fill="none" stroke="red" points="432.355,-167.562 372.348,-180 312.341,-167.562 312.397,-147.438 432.299,-147.438 432.355,-167.562"/>
<text text-anchor="middle" x="372.348" y="-158.3" font-family="Times,serif" font-size="14.00" fill="#ebc72d">Horsefarm</text>
</a>
</g>
</g>
<!-- roundtent&#45;&gt;horsefarm -->
<g id="edge8" class="edge"><title>roundtent&#45;&gt;horsefarm</title>
<path fill="none" stroke="#ebc72d" stroke-dasharray="1,5" d="M268.527,-219.337C289.058,-208.197 318.183,-192.392 340.362,-180.357"/>
<polygon fill="#ebc72d" stroke="#ebc72d" points="342.277,-183.3 349.397,-175.454 338.939,-177.147 342.277,-183.3"/>
</g>
<!-- mainteepee -->
<g id="node2" class="node"><title>mainteepee</title>
<g id="a_node2"><a xlink:href="indian_mainteepee_full.html" xlink:title="Mainteepee">
<polygon fill="none" stroke="red" points="220.389,-383.562 156.348,-396 92.3079,-383.562 92.3677,-363.438 220.329,-363.438 220.389,-383.562"/>
<text text-anchor="middle" x="156.348" y="-374.3" font-family="Times,serif" font-size="14.00" fill="#ebc72d">Mainteepee</text>
</a>
</g>
</g>
<!-- reed -->
<g id="node4" class="node"><title>reed</title>
<g id="a_node4"><a xlink:href="indian_reed_full.html" xlink:title="Reed">
<polygon fill="none" stroke="red" points="70.5459,-95.5623 35.3484,-108 0.150945,-95.5623 0.183798,-75.4377 70.513,-75.4377 70.5459,-95.5623"/>
<text text-anchor="middle" x="35.3484" y="-86.3" font-family="Times,serif" font-size="14.00" fill="#ebc72d">Reed</text>
</a>
</g>
</g>
<!-- mainteepee&#45;&gt;reed -->
<g id="edge4" class="edge"><title>mainteepee&#45;&gt;reed</title>
<path fill="none" stroke="#ebc72d" stroke-dasharray="1,5" d="M92.2757,-367.706C58.5113,-358.771 21.7702,-341.268 10.3484,-307"/>
<path fill="none" stroke="#ebc72d" stroke-dasharray="1,5" d="M10.3484,-305C-11.6306,-239.058 11.4709,-156.092 25.7878,-115.561"/>
<polygon fill="#ebc72d" stroke="#ebc72d" points="29.1439,-116.574 29.2914,-105.98 22.5697,-114.17 29.1439,-116.574"/>
</g>
<!-- bigtent -->
<g id="node6" class="node"><title>bigtent</title>
<g id="a_node6"><a xlink:href="indian_bigtent_full.html" xlink:title="Bigtent">
<polygon fill="none" stroke="red" points="128.326,-239.562 83.3484,-252 38.3706,-239.562 38.4126,-219.438 128.284,-219.438 128.326,-239.562"/>
<text text-anchor="middle" x="83.3484" y="-230.3" font-family="Times,serif" font-size="14.00" fill="#ebc72d">Bigtent</text>
</a>
</g>
</g>
<!-- mainteepee&#45;&gt;bigtent -->
<g id="edge2" class="edge"><title>mainteepee&#45;&gt;bigtent</title>
<path fill="none" stroke="#ebc72d" stroke-dasharray="1,5" d="M10.3484,-305C2.39424,-281.136 26.2041,-262.059 48.7176,-249.885"/>
<polygon fill="#ebc72d" stroke="#ebc72d" points="50.5241,-252.894 57.8629,-245.252 47.3606,-246.649 50.5241,-252.894"/>
</g>
<!-- tent -->
<g id="node7" class="node"><title>tent</title>
<g id="a_node7"><a xlink:href="indian_tent_full.html" xlink:title="Tent">
<polygon fill="none" stroke="red" points="189.225,-311.562 156.348,-324 123.472,-311.562 123.502,-291.438 189.194,-291.438 189.225,-311.562"/>
<text text-anchor="middle" x="156.348" y="-302.3" font-family="Times,serif" font-size="14.00" fill="#ebc72d">Tent</text>
</a>
</g>
</g>
<!-- mainteepee&#45;&gt;tent -->
<g id="edge5" class="edge"><title>mainteepee&#45;&gt;tent</title>
<path fill="none" stroke="#ebc72d" stroke-dasharray="1,5" d="M156.348,-363.17C156.348,-354.919 156.348,-344.153 156.348,-334.256"/>
<polygon fill="#ebc72d" stroke="#ebc72d" points="159.849,-334.019 156.348,-324.019 152.849,-334.019 159.849,-334.019"/>
</g>
<!-- mainteepee&#45;&gt;horsefarm -->
<g id="edge3" class="edge"><title>mainteepee&#45;&gt;horsefarm</title>
<path fill="none" stroke="#ebc72d" stroke-dasharray="1,5" d="M177.005,-363.282C208.306,-341.88 268.623,-298.186 311.348,-252 329.848,-232.002 347.015,-206.003 358.393,-187.275"/>
<polygon fill="#ebc72d" stroke="#ebc72d" points="361.528,-188.851 363.643,-178.469 355.516,-185.266 361.528,-188.851"/>
</g>
<!-- totem -->
<g id="node9" class="node"><title>totem</title>
<g id="a_node9"><a xlink:href="indian_totem_full.html" xlink:title="Totem">
<polygon fill="none" stroke="red" points="199.006,-95.5623 156.348,-108 113.691,-95.5623 113.731,-75.4377 198.966,-75.4377 199.006,-95.5623"/>
<text text-anchor="middle" x="156.348" y="-86.3" font-family="Times,serif" font-size="14.00" fill="#ebc72d">Totem</text>
</a>
</g>
</g>
<!-- campfire&#45;&gt;totem -->
<g id="edge1" class="edge"><title>campfire&#45;&gt;totem</title>
<path fill="none" stroke="#ebc72d" stroke-dasharray="1,5" d="M222.95,-147.17C210.471,-136.645 193.14,-122.029 179.286,-110.345"/>
<polygon fill="#ebc72d" stroke="#ebc72d" points="181.494,-107.628 171.593,-103.857 176.981,-112.979 181.494,-107.628"/>
</g>
<!-- beehive -->
<g id="node5" class="node"><title>beehive</title>
<g id="a_node5"><a xlink:href="indian_beehive_full.html" xlink:title="Beehive">
<polygon fill="none" stroke="red" points="144.36,-23.5623 95.3484,-36 46.3369,-23.5623 46.3827,-3.43769 144.314,-3.43769 144.36,-23.5623"/>
<text text-anchor="middle" x="95.3484" y="-14.3" font-family="Times,serif" font-size="14.00" fill="#ebc72d">Beehive</text>
</a>
</g>
</g>
<!-- reed&#45;&gt;beehive -->
<g id="edge6" class="edge"><title>reed&#45;&gt;beehive</title>
<path fill="none" stroke="#ebc72d" stroke-dasharray="1,5" d="M47.2025,-75.1703C55.5569,-65.4234 66.9187,-52.168 76.5071,-40.9816"/>
<polygon fill="#ebc72d" stroke="#ebc72d" points="79.2565,-43.152 83.107,-33.2816 73.9417,-38.5964 79.2565,-43.152"/>
</g>
<!-- tent&#45;&gt;roundtent -->
<g id="edge10" class="edge"><title>tent&#45;&gt;roundtent</title>
<path fill="none" stroke="#ebc72d" stroke-dasharray="1,5" d="M173.537,-291.17C186.37,-280.845 204.096,-266.582 218.475,-255.013"/>
<polygon fill="#ebc72d" stroke="#ebc72d" points="220.895,-257.559 226.492,-248.563 216.506,-252.105 220.895,-257.559"/>
</g>
<!-- tent&#45;&gt;bigtent -->
<g id="edge9" class="edge"><title>tent&#45;&gt;bigtent</title>
<path fill="none" stroke="#ebc72d" stroke-dasharray="1,5" d="M141.926,-291.17C131.291,-280.973 116.652,-266.934 104.668,-255.443"/>
<polygon fill="#ebc72d" stroke="#ebc72d" points="106.886,-252.721 97.2456,-248.326 102.041,-257.774 106.886,-252.721"/>
</g>
<!-- tent&#45;&gt;totem -->
<g id="edge11" class="edge"><title>tent&#45;&gt;totem</title>
<path fill="none" stroke="#ebc72d" stroke-dasharray="1,5" d="M156.348,-291.288C156.348,-256.529 156.348,-164.457 156.348,-118.253"/>
<polygon fill="#ebc72d" stroke="#ebc72d" points="159.849,-118.078 156.348,-108.078 152.849,-118.078 159.849,-118.078"/>
</g>
<!-- totem&#45;&gt;beehive -->
<g id="edge12" class="edge"><title>totem&#45;&gt;beehive</title>
<path fill="none" stroke="#ebc72d" stroke-dasharray="1,5" d="M144.297,-75.1703C135.803,-65.4234 124.252,-52.168 114.504,-40.9816"/>
<polygon fill="#ebc72d" stroke="#ebc72d" points="117.002,-38.5213 107.794,-33.2816 111.725,-43.1202 117.002,-38.5213"/>
</g>
</g>
</svg>
