<?xml version="1.0" encoding="UTF-8" standalone="no"?>
<!DOCTYPE svg PUBLIC "-//W3C//DTD SVG 1.1//EN"
 "http://www.w3.org/Graphics/SVG/1.1/DTD/svg11.dtd">
<!-- Generated by graphviz version 2.38.0 (20140413.2041)
 -->
<!-- Title: test Pages: 1 -->
<svg width="1101pt" height="278pt"
 viewBox="0.00 0.00 1101.45 277.74" xmlns="http://www.w3.org/2000/svg" xmlns:xlink="http://www.w3.org/1999/xlink">
<g id="graph0" class="graph" transform="scale(1 1) rotate(0) translate(4 273.74)">
<title>test</title>
<polygon fill="#151515" stroke="none" points="-4,4 -4,-273.74 1097.45,-273.74 1097.45,4 -4,4"/>
<!-- firegolem -->
<g id="node1" class="node"><title>firegolem</title>
<g id="a_node1"><a xlink:href="indian_firegolem_full.html" xlink:title="Firegolem">
<ellipse fill="none" stroke="magenta" cx="215.006" cy="-98.8701" rx="47.3916" ry="18"/>
<text text-anchor="middle" x="215.006" y="-95.1701" font-family="Times,serif" font-size="14.00" fill="#ebc72d">Firegolem</text>
</a>
</g>
</g>
<!-- roundtent -->
<g id="node2" class="node"><title>roundtent</title>
<g id="a_node2"><a xlink:href="indian_roundtent_full.html" xlink:title="Roundtent">
<polygon fill="none" stroke="red" points="570.799,-185.302 512.006,-197.74 453.213,-185.302 453.268,-165.178 570.744,-165.178 570.799,-185.302"/>
<text text-anchor="middle" x="512.006" y="-176.04" font-family="Times,serif" font-size="14.00" fill="#ebc72d">Roundtent</text>
</a>
</g>
</g>
<!-- axe_thrower -->
<g id="node5" class="node"><title>axe_thrower</title>
<g id="a_node5"><a xlink:href="indian_axe_thrower_full.html" xlink:title="Axe\nThrower">
<ellipse fill="none" stroke="magenta" cx="420.006" cy="-98.8701" rx="44.5955" ry="26.7407"/>
<text text-anchor="middle" x="420.006" y="-102.67" font-family="Times,serif" font-size="14.00" fill="#ebc72d">Axe</text>
<text text-anchor="middle" x="420.006" y="-87.6701" font-family="Times,serif" font-size="14.00" fill="#ebc72d">Thrower</text>
</a>
</g>
</g>
<!-- roundtent&#45;&gt;axe_thrower -->
<g id="edge14" class="edge"><title>roundtent&#45;&gt;axe_thrower</title>
<path fill="none" stroke="#ebc72d" d="M495.981,-165.002C484.166,-154.873 467.678,-140.738 453.08,-128.224"/>
<polygon fill="#ebc72d" stroke="#ebc72d" points="455.076,-125.325 445.206,-121.474 450.52,-130.64 455.076,-125.325"/>
</g>
<!-- fire_archer -->
<g id="node7" class="node"><title>fire_archer</title>
<g id="a_node7"><a xlink:href="indian_fire_archer_full.html" xlink:title="Fire\nArcher">
<ellipse fill="none" stroke="magenta" cx="319.006" cy="-98.8701" rx="38.3684" ry="26.7407"/>
<text text-anchor="middle" x="319.006" y="-102.67" font-family="Times,serif" font-size="14.00" fill="#ebc72d">Fire</text>
<text text-anchor="middle" x="319.006" y="-87.6701" font-family="Times,serif" font-size="14.00" fill="#ebc72d">Archer</text>
</a>
</g>
</g>
<!-- roundtent&#45;&gt;fire_archer -->
<g id="edge15" class="edge"><title>roundtent&#45;&gt;fire_archer</title>
<path fill="none" stroke="#ebc72d" d="M469.145,-165.134C439.675,-155.308 399.897,-141.107 366.006,-125.74 362.994,-124.375 359.914,-122.89 356.843,-121.347"/>
<polygon fill="#ebc72d" stroke="#ebc72d" points="358.215,-118.115 347.729,-116.596 354.979,-124.322 358.215,-118.115"/>
</g>
<!-- spearman -->
<g id="node12" class="node"><title>spearman</title>
<g id="a_node12"><a xlink:href="indian_spearman_full.html" xlink:title="Spearman">
<ellipse fill="none" stroke="magenta" cx="619.006" cy="-98.8701" rx="46.2923" ry="18"/>
<text text-anchor="middle" x="619.006" y="-95.1701" font-family="Times,serif" font-size="14.00" fill="#ebc72d">Spearman</text>
</a>
</g>
</g>
<!-- roundtent&#45;&gt;spearman -->
<g id="edge16" class="edge"><title>roundtent&#45;&gt;spearman</title>
<path fill="none" stroke="#ebc72d" d="M530.644,-165.002C547.051,-152.908 571.208,-135.102 590.118,-121.163"/>
<polygon fill="#ebc72d" stroke="#ebc72d" points="592.418,-123.816 598.391,-115.065 588.265,-118.181 592.418,-123.816"/>
</g>
<!-- axe_indian -->
<g id="node16" class="node"><title>axe_indian</title>
<g id="a_node16"><a xlink:href="indian_axe_indian_full.html" xlink:title="Axe\nIndian">
<ellipse fill="none" stroke="magenta" cx="519.006" cy="-98.8701" rx="36.125" ry="26.7407"/>
<text text-anchor="middle" x="519.006" y="-102.67" font-family="Times,serif" font-size="14.00" fill="#ebc72d">Axe</text>
<text text-anchor="middle" x="519.006" y="-87.6701" font-family="Times,serif" font-size="14.00" fill="#ebc72d">Indian</text>
</a>
</g>
</g>
<!-- roundtent&#45;&gt;axe_indian -->
<g id="edge13" class="edge"><title>roundtent&#45;&gt;axe_indian</title>
<path fill="none" stroke="#ebc72d" d="M513.225,-165.002C513.942,-156.925 514.885,-146.302 515.801,-135.983"/>
<polygon fill="#ebc72d" stroke="#ebc72d" points="519.3,-136.143 516.698,-125.873 512.327,-135.524 519.3,-136.143"/>
</g>
<!-- mainteepee -->
<g id="node3" class="node"><title>mainteepee</title>
<g id="a_node3"><a xlink:href="indian_mainteepee_full.html" xlink:title="Mainteepee">
<polygon fill="none" stroke="red" points="909.046,-185.302 845.006,-197.74 780.965,-185.302 781.025,-165.178 908.986,-165.178 909.046,-185.302"/>
<text text-anchor="middle" x="845.006" y="-176.04" font-family="Times,serif" font-size="14.00" fill="#ebc72d">Mainteepee</text>
</a>
</g>
</g>
<!-- worker -->
<g id="node21" class="node"><title>worker</title>
<g id="a_node21"><a xlink:href="indian_worker_full.html" xlink:title="Worker">
<ellipse fill="none" stroke="magenta" cx="567.006" cy="-251.74" rx="38.1938" ry="18"/>
<text text-anchor="middle" x="567.006" y="-248.04" font-family="Times,serif" font-size="14.00" fill="#ebc72d">Worker</text>
</a>
</g>
</g>
<!-- bull -->
<g id="node4" class="node"><title>bull</title>
<g id="a_node4"><a xlink:href="indian_bull_full.html" xlink:title="Bull">
<ellipse fill="none" stroke="magenta" cx="954.006" cy="-98.8701" rx="27" ry="18"/>
<text text-anchor="middle" x="954.006" y="-95.1701" font-family="Times,serif" font-size="14.00" fill="#ebc72d">Bull</text>
</a>
</g>
</g>
<!-- horseman -->
<g id="node6" class="node"><title>horseman</title>
<g id="a_node6"><a xlink:href="indian_horseman_full.html" xlink:title="Horseman">
<ellipse fill="none" stroke="magenta" cx="1046.01" cy="-98.8701" rx="47.3916" ry="18"/>
<text text-anchor="middle" x="1046.01" y="-95.1701" font-family="Times,serif" font-size="14.00" fill="#ebc72d">Horseman</text>
</a>
</g>
</g>
<!-- campfire -->
<g id="node8" class="node"><title>campfire</title>
<g id="a_node8"><a xlink:href="indian_campfire_full.html" xlink:title="Campfire">
<polygon fill="none" stroke="red" points="346.765,-185.302 292.006,-197.74 237.247,-185.302 237.298,-165.178 346.714,-165.178 346.765,-185.302"/>
<text text-anchor="middle" x="292.006" y="-176.04" font-family="Times,serif" font-size="14.00" fill="#ebc72d">Campfire</text>
</a>
</g>
</g>
<!-- campfire&#45;&gt;firegolem -->
<g id="edge6" class="edge"><title>campfire&#45;&gt;firegolem</title>
<path fill="none" stroke="#ebc72d" d="M278.593,-165.002C267.323,-153.458 250.973,-136.711 237.674,-123.089"/>
<polygon fill="#ebc72d" stroke="#ebc72d" points="240.142,-120.606 230.652,-115.896 235.133,-125.496 240.142,-120.606"/>
</g>
<!-- campfire&#45;&gt;axe_thrower -->
<g id="edge4" class="edge"><title>campfire&#45;&gt;axe_thrower</title>
<path fill="none" stroke="#ebc72d" stroke-dasharray="1,5" d="M314.302,-165.002C332.558,-153.753 358.834,-137.563 380.62,-124.139"/>
<polygon fill="#ebc72d" stroke="#ebc72d" points="382.659,-126.993 389.336,-118.768 378.987,-121.034 382.659,-126.993"/>
</g>
<!-- campfire&#45;&gt;fire_archer -->
<g id="edge5" class="edge"><title>campfire&#45;&gt;fire_archer</title>
<path fill="none" stroke="#ebc72d" stroke-dasharray="1,5" d="M296.709,-165.002C299.578,-156.622 303.385,-145.5 307.04,-134.822"/>
<polygon fill="#ebc72d" stroke="#ebc72d" points="310.396,-135.827 310.323,-125.232 303.773,-133.559 310.396,-135.827"/>
</g>
<!-- campfire&#45;&gt;axe_indian -->
<g id="edge3" class="edge"><title>campfire&#45;&gt;axe_indian</title>
<path fill="none" stroke="#ebc72d" stroke-dasharray="1,5" d="M340.817,-165.173C390.39,-151.291 461.591,-131.026 474.006,-125.74 476.991,-124.469 480.026,-123.044 483.038,-121.533"/>
<polygon fill="#ebc72d" stroke="#ebc72d" points="484.741,-124.592 491.934,-116.813 481.46,-118.409 484.741,-124.592"/>
</g>
<!-- shaman -->
<g id="node9" class="node"><title>shaman</title>
<g id="a_node9"><a xlink:href="indian_shaman_full.html" xlink:title="Shaman">
<ellipse fill="none" stroke="magenta" cx="110.006" cy="-98.8701" rx="39.7935" ry="18"/>
<text text-anchor="middle" x="110.006" y="-95.1701" font-family="Times,serif" font-size="14.00" fill="#ebc72d">Shaman</text>
</a>
</g>
</g>
<!-- beehive -->
<g id="node11" class="node"><title>beehive</title>
<g id="a_node11"><a xlink:href="indian_beehive_full.html" xlink:title="Beehive">
<polygon fill="none" stroke="red" points="98.0172,-23.5623 49.0057,-36 -0.00574767,-23.5623 0.0399987,-3.43769 97.9715,-3.43769 98.0172,-23.5623"/>
<text text-anchor="middle" x="49.0057" y="-14.3" font-family="Times,serif" font-size="14.00" fill="#ebc72d">Beehive</text>
</a>
</g>
</g>
<!-- shaman&#45;&gt;beehive -->
<g id="edge17" class="edge"><title>shaman&#45;&gt;beehive</title>
<path fill="none" stroke="#ebc72d" stroke-width="2" d="M97.3665,-81.5281C88.4634,-70.0168 76.4253,-54.4521 66.587,-41.7318"/>
<polygon fill="#ebc72d" stroke="#ebc72d" stroke-width="2" points="69.0795,-39.2335 60.193,-33.4645 63.5424,-43.516 69.0795,-39.2335"/>
</g>
<!-- thunderbird -->
<g id="node19" class="node"><title>thunderbird</title>
<g id="a_node19"><a xlink:href="indian_thunderbird_full.html" xlink:title="Thunderbird">
<ellipse fill="none" stroke="magenta" cx="171.006" cy="-18" rx="54.6905" ry="18"/>
<text text-anchor="middle" x="171.006" y="-14.3" font-family="Times,serif" font-size="14.00" fill="#ebc72d">Thunderbird</text>
</a>
</g>
</g>
<!-- shaman&#45;&gt;thunderbird -->
<g id="edge18" class="edge"><title>shaman&#45;&gt;thunderbird</title>
<path fill="none" stroke="#ebc72d" d="M122.645,-81.5281C131.094,-70.6034 142.368,-56.0278 151.904,-43.6975"/>
<polygon fill="#ebc72d" stroke="#ebc72d" points="154.823,-45.6438 158.173,-35.5923 149.286,-41.3613 154.823,-45.6438"/>
</g>
<!-- reed -->
<g id="node10" class="node"><title>reed</title>
<g id="a_node10"><a xlink:href="indian_reed_full.html" xlink:title="Reed">
<polygon fill="none" stroke="red" points="435.203,-185.302 400.006,-197.74 364.808,-185.302 364.841,-165.178 435.17,-165.178 435.203,-185.302"/>
<text text-anchor="middle" x="400.006" y="-176.04" font-family="Times,serif" font-size="14.00" fill="#ebc72d">Reed</text>
</a>
</g>
</g>
<!-- reed&#45;&gt;firegolem -->
<g id="edge12" class="edge"><title>reed&#45;&gt;firegolem</title>
<path fill="none" stroke="#ebc72d" stroke-dasharray="1,5" d="M366.188,-165.098C340.308,-154.571 303.779,-139.524 272.006,-125.74 265.987,-123.129 259.636,-120.31 253.446,-117.528"/>
<polygon fill="#ebc72d" stroke="#ebc72d" points="254.473,-114.151 243.919,-113.219 251.589,-120.529 254.473,-114.151"/>
</g>
<!-- reed&#45;&gt;fire_archer -->
<g id="edge11" class="edge"><title>reed&#45;&gt;fire_archer</title>
<path fill="none" stroke="#ebc72d" stroke-dasharray="1,5" d="M385.897,-165.002C375.515,-154.893 361.035,-140.794 348.201,-128.298"/>
<polygon fill="#ebc72d" stroke="#ebc72d" points="350.485,-125.637 340.879,-121.168 345.602,-130.652 350.485,-125.637"/>
</g>
<!-- archer -->
<g id="node17" class="node"><title>archer</title>
<g id="a_node17"><a xlink:href="indian_archer_full.html" xlink:title="Archer">
<ellipse fill="none" stroke="magenta" cx="718.006" cy="-98.8701" rx="35.194" ry="18"/>
<text text-anchor="middle" x="718.006" y="-95.1701" font-family="Times,serif" font-size="14.00" fill="#ebc72d">Archer</text>
</a>
</g>
</g>
<!-- reed&#45;&gt;archer -->
<g id="edge10" class="edge"><title>reed&#45;&gt;archer</title>
<path fill="none" stroke="#ebc72d" stroke-dasharray="1,5" d="M432.909,-165.159C436.616,-163.89 440.367,-162.716 444.006,-161.74 543.942,-134.943 576.579,-160.575 674.006,-125.74 678.989,-123.958 684.041,-121.6 688.86,-119.031"/>
<polygon fill="#ebc72d" stroke="#ebc72d" points="690.824,-121.939 697.758,-113.928 687.342,-115.867 690.824,-121.939"/>
</g>
<!-- stickfighter -->
<g id="node13" class="node"><title>stickfighter</title>
<g id="a_node13"><a xlink:href="indian_stickfighter_full.html" xlink:title="Stickfighter">
<ellipse fill="none" stroke="magenta" cx="823.006" cy="-98.8701" rx="51.9908" ry="18"/>
<text text-anchor="middle" x="823.006" y="-95.1701" font-family="Times,serif" font-size="14.00" fill="#ebc72d">Stickfighter</text>
</a>
</g>
</g>
<!-- bigtent -->
<g id="node14" class="node"><title>bigtent</title>
<g id="a_node14"><a xlink:href="indian_bigtent_full.html" xlink:title="Bigtent">
<polygon fill="none" stroke="red" points="762.984,-185.302 718.006,-197.74 673.028,-185.302 673.07,-165.178 762.942,-165.178 762.984,-185.302"/>
<text text-anchor="middle" x="718.006" y="-176.04" font-family="Times,serif" font-size="14.00" fill="#ebc72d">Bigtent</text>
</a>
</g>
</g>
<!-- bigtent&#45;&gt;stickfighter -->
<g id="edge2" class="edge"><title>bigtent&#45;&gt;stickfighter</title>
<path fill="none" stroke="#ebc72d" d="M736.295,-165.002C752.193,-153.061 775.502,-135.552 793.951,-121.694"/>
<polygon fill="#ebc72d" stroke="#ebc72d" points="796.148,-124.422 802.041,-115.617 791.944,-118.825 796.148,-124.422"/>
</g>
<!-- bigtent&#45;&gt;archer -->
<g id="edge1" class="edge"><title>bigtent&#45;&gt;archer</title>
<path fill="none" stroke="#ebc72d" d="M718.006,-165.002C718.006,-154.589 718.006,-139.942 718.006,-127.175"/>
<polygon fill="#ebc72d" stroke="#ebc72d" points="721.506,-127.026 718.006,-117.026 714.506,-127.026 721.506,-127.026"/>
</g>
<!-- tent -->
<g id="node15" class="node"><title>tent</title>
<g id="a_node15"><a xlink:href="indian_tent_full.html" xlink:title="Tent">
<polygon fill="none" stroke="red" points="654.882,-185.302 622.006,-197.74 589.129,-185.302 589.16,-165.178 654.852,-165.178 654.882,-185.302"/>
<text text-anchor="middle" x="622.006" y="-176.04" font-family="Times,serif" font-size="14.00" fill="#ebc72d">Tent</text>
</a>
</g>
</g>
<!-- tent&#45;&gt;axe_thrower -->
<g id="edge21" class="edge"><title>tent&#45;&gt;axe_thrower</title>
<path fill="none" stroke="#ebc72d" stroke-dasharray="1,5" d="M589.06,-165.198C586.008,-164.006 582.955,-162.837 580.006,-161.74 533.371,-144.399 520.079,-144.522 474.006,-125.74 470.321,-124.238 466.53,-122.606 462.748,-120.918"/>
<polygon fill="#ebc72d" stroke="#ebc72d" points="463.979,-117.632 453.43,-116.645 461.061,-123.995 463.979,-117.632"/>
</g>
<!-- tent&#45;&gt;fire_archer -->
<g id="edge22" class="edge"><title>tent&#45;&gt;fire_archer</title>
<path fill="none" stroke="#ebc72d" stroke-dasharray="1,5" d="M590.616,-165.178C587.074,-163.905 583.488,-162.725 580.006,-161.74 487.199,-135.491 457.094,-157.442 366.006,-125.74 362.74,-124.604 359.433,-123.253 356.165,-121.773"/>
<polygon fill="#ebc72d" stroke="#ebc72d" points="357.647,-118.602 347.128,-117.336 354.562,-124.885 357.647,-118.602"/>
</g>
<!-- tent&#45;&gt;spearman -->
<g id="edge23" class="edge"><title>tent&#45;&gt;spearman</title>
<path fill="none" stroke="#ebc72d" stroke-dasharray="1,5" d="M621.483,-165.002C621.087,-154.589 620.53,-139.942 620.044,-127.175"/>
<polygon fill="#ebc72d" stroke="#ebc72d" points="623.536,-126.886 619.658,-117.026 616.541,-127.152 623.536,-126.886"/>
</g>
<!-- tent&#45;&gt;stickfighter -->
<g id="edge24" class="edge"><title>tent&#45;&gt;stickfighter</title>
<path fill="none" stroke="#ebc72d" d="M654.981,-165.275C658.027,-164.067 661.07,-162.873 664.006,-161.74 707.295,-145.033 718.856,-142.804 762.006,-125.74 768.546,-123.154 775.442,-120.327 782.15,-117.523"/>
<polygon fill="#ebc72d" stroke="#ebc72d" points="783.928,-120.571 791.781,-113.46 781.207,-114.122 783.928,-120.571"/>
</g>
<!-- tent&#45;&gt;axe_indian -->
<g id="edge20" class="edge"><title>tent&#45;&gt;axe_indian</title>
<path fill="none" stroke="#ebc72d" stroke-dasharray="1,5" d="M604.065,-165.002C589.7,-154.003 569.167,-138.28 551.873,-125.038"/>
<polygon fill="#ebc72d" stroke="#ebc72d" points="553.753,-122.068 543.685,-118.768 549.497,-127.626 553.753,-122.068"/>
</g>
<!-- tent&#45;&gt;archer -->
<g id="edge19" class="edge"><title>tent&#45;&gt;archer</title>
<path fill="none" stroke="#ebc72d" stroke-dasharray="1,5" d="M638.728,-165.002C653.501,-152.865 675.275,-134.976 692.268,-121.016"/>
<polygon fill="#ebc72d" stroke="#ebc72d" points="694.669,-123.572 700.174,-114.52 690.225,-118.164 694.669,-123.572"/>
</g>
<!-- horsefarm -->
<g id="node18" class="node"><title>horsefarm</title>
<g id="a_node18"><a xlink:href="indian_horsefarm_full.html" xlink:title="Horsefarm">
<polygon fill="none" stroke="red" points="1048.01,-185.302 988.006,-197.74 927.999,-185.302 928.055,-165.178 1047.96,-165.178 1048.01,-185.302"/>
<text text-anchor="middle" x="988.006" y="-176.04" font-family="Times,serif" font-size="14.00" fill="#ebc72d">Horsefarm</text>
</a>
</g>
</g>
<!-- horsefarm&#45;&gt;bull -->
<g id="edge7" class="edge"><title>horsefarm&#45;&gt;bull</title>
<path fill="none" stroke="#ebc72d" d="M982.083,-165.002C977.444,-154.24 970.855,-138.956 965.226,-125.898"/>
<polygon fill="#ebc72d" stroke="#ebc72d" points="968.329,-124.255 961.157,-116.458 961.901,-127.027 968.329,-124.255"/>
</g>
<!-- horsefarm&#45;&gt;horseman -->
<g id="edge8" class="edge"><title>horsefarm&#45;&gt;horseman</title>
<path fill="none" stroke="#ebc72d" d="M998.109,-165.002C1006.26,-153.924 1017.93,-138.053 1027.71,-124.751"/>
<polygon fill="#ebc72d" stroke="#ebc72d" points="1030.7,-126.588 1033.81,-116.458 1025.06,-122.441 1030.7,-126.588"/>
</g>
<!-- totem -->
<g id="node20" class="node"><title>totem</title>
<g id="a_node20"><a xlink:href="indian_totem_full.html" xlink:title="Totem">
<polygon fill="none" stroke="red" points="219.663,-185.302 177.006,-197.74 134.348,-185.302 134.388,-165.178 219.624,-165.178 219.663,-185.302"/>
<text text-anchor="middle" x="177.006" y="-176.04" font-family="Times,serif" font-size="14.00" fill="#ebc72d">Totem</text>
</a>
</g>
</g>
<!-- totem&#45;&gt;firegolem -->
<g id="edge25" class="edge"><title>totem&#45;&gt;firegolem</title>
<path fill="none" stroke="#ebc72d" stroke-dasharray="1,5" d="M183.625,-165.002C188.827,-154.206 196.221,-138.858 202.526,-125.772"/>
<polygon fill="#ebc72d" stroke="#ebc72d" points="205.69,-127.269 206.877,-116.741 199.383,-124.231 205.69,-127.269"/>
</g>
<!-- totem&#45;&gt;shaman -->
<g id="edge26" class="edge"><title>totem&#45;&gt;shaman</title>
<path fill="none" stroke="#ebc72d" d="M165.335,-165.002C155.71,-153.672 141.827,-137.329 130.376,-123.849"/>
<polygon fill="#ebc72d" stroke="#ebc72d" points="132.761,-121.251 123.62,-115.896 127.427,-125.783 132.761,-121.251"/>
</g>
<!-- worker&#45;&gt;roundtent -->
<g id="edge32" class="edge"><title>worker&#45;&gt;roundtent</title>
<path fill="none" stroke="#ebc72d" stroke-width="2" d="M554.249,-234.505C547.01,-225.291 537.836,-213.615 529.888,-203.499"/>
<polygon fill="#ebc72d" stroke="#ebc72d" stroke-width="2" points="532.499,-201.158 523.569,-195.457 526.995,-205.483 532.499,-201.158"/>
</g>
<!-- worker&#45;&gt;mainteepee -->
<g id="edge30" class="edge"><title>worker&#45;&gt;mainteepee</title>
<path fill="none" stroke="#ebc72d" stroke-width="2" d="M609.903,-239.939C660.462,-227.208 744.248,-206.111 796.949,-192.841"/>
<polygon fill="#ebc72d" stroke="#ebc72d" stroke-width="2" points="608.83,-236.599 599.988,-242.435 610.54,-243.388 608.83,-236.599"/>
<polygon fill="#ebc72d" stroke="#ebc72d" stroke-width="2" points="797.891,-196.213 806.734,-190.377 796.182,-189.425 797.891,-196.213"/>
</g>
<!-- worker&#45;&gt;campfire -->
<g id="edge28" class="edge"><title>worker&#45;&gt;campfire</title>
<path fill="none" stroke="#ebc72d" stroke-width="2" d="M533.714,-242.526C492.104,-232.224 418.721,-213.945 356.006,-197.74 349.724,-196.117 343.101,-194.383 336.593,-192.667"/>
<polygon fill="#ebc72d" stroke="#ebc72d" stroke-width="2" points="337.089,-189.177 326.527,-190.001 335.298,-195.944 337.089,-189.177"/>
</g>
<!-- worker&#45;&gt;reed -->
<g id="edge31" class="edge"><title>worker&#45;&gt;reed</title>
<path fill="none" stroke="#ebc72d" stroke-width="2" d="M539.429,-239.181C509.753,-226.742 462.635,-206.992 431.517,-193.948"/>
<polygon fill="#ebc72d" stroke="#ebc72d" stroke-width="2" points="432.593,-190.605 422.018,-189.967 429.887,-197.06 432.593,-190.605"/>
</g>
<!-- worker&#45;&gt;bigtent -->
<g id="edge27" class="edge"><title>worker&#45;&gt;bigtent</title>
<path fill="none" stroke="#ebc72d" stroke-width="2" d="M593.308,-238.547C619.007,-226.634 658.176,-208.476 685.743,-195.696"/>
<polygon fill="#ebc72d" stroke="#ebc72d" stroke-width="2" points="687.369,-198.8 694.969,-191.419 684.425,-192.45 687.369,-198.8"/>
</g>
<!-- worker&#45;&gt;tent -->
<g id="edge33" class="edge"><title>worker&#45;&gt;tent</title>
<path fill="none" stroke="#ebc72d" stroke-width="2" d="M579.762,-234.505C587.374,-224.817 597.126,-212.405 605.342,-201.949"/>
<polygon fill="#ebc72d" stroke="#ebc72d" stroke-width="2" points="608.105,-204.097 611.531,-194.071 602.601,-199.772 608.105,-204.097"/>
</g>
<!-- worker&#45;&gt;horsefarm -->
<g id="edge29" class="edge"><title>worker&#45;&gt;horsefarm</title>
<path fill="none" stroke="#ebc72d" stroke-width="2" d="M603.57,-246.301C667.59,-238.289 804.017,-220.142 918.006,-197.74 925.685,-196.231 933.793,-194.444 941.66,-192.605"/>
<polygon fill="#ebc72d" stroke="#ebc72d" stroke-width="2" points="942.536,-195.994 951.448,-190.264 940.908,-189.186 942.536,-195.994"/>
</g>
<!-- worker&#45;&gt;totem -->
<g id="edge34" class="edge"><title>worker&#45;&gt;totem</title>
<path fill="none" stroke="#ebc72d" stroke-width="2" d="M529.99,-246.998C467.241,-240.202 336.249,-224.048 228.006,-197.74 222.977,-196.518 217.733,-195.027 212.604,-193.442"/>
<polygon fill="#ebc72d" stroke="#ebc72d" stroke-width="2" points="213.561,-190.073 202.969,-190.323 211.405,-196.733 213.561,-190.073"/>
</g>
</g>
</svg>
