<?xml version="1.0" encoding="UTF-8" standalone="no"?>
<!DOCTYPE svg PUBLIC "-//W3C//DTD SVG 1.1//EN"
 "http://www.w3.org/Graphics/SVG/1.1/DTD/svg11.dtd">
<!-- Generated by graphviz version 2.38.0 (20140413.2041)
 -->
<!-- Title: test Pages: 1 -->
<svg width="1161pt" height="574pt"
 viewBox="0.00 0.00 1161.00 573.74" xmlns="http://www.w3.org/2000/svg" xmlns:xlink="http://www.w3.org/1999/xlink">
<g id="graph0" class="graph" transform="scale(1 1) rotate(0) translate(4 569.74)">
<title>test</title>
<polygon fill="#151515" stroke="none" points="-4,4 -4,-569.74 1157,-569.74 1157,4 -4,4"/>
<!-- firegolem -->
<g id="node1" class="node"><title>firegolem</title>
<g id="a_node1"><a xlink:href="indian_firegolem_full.html" xlink:title="Firegolem">
<ellipse fill="none" stroke="magenta" cx="379.006" cy="-98.8701" rx="47.3916" ry="18"/>
<text text-anchor="middle" x="379.006" y="-95.1701" font-family="Times,serif" font-size="14.00" fill="#ebc72d">Firegolem</text>
</a>
</g>
</g>
<!-- roundtent -->
<g id="node2" class="node"><title>roundtent</title>
<g id="a_node2"><a xlink:href="indian_roundtent_full.html" xlink:title="Roundtent">
<polygon fill="none" stroke="red" points="682.799,-409.302 624.006,-421.74 565.213,-409.302 565.268,-389.178 682.744,-389.178 682.799,-409.302"/>
<text text-anchor="middle" x="624.006" y="-400.04" font-family="Times,serif" font-size="14.00" fill="#ebc72d">Roundtent</text>
</a>
</g>
</g>
<!-- axe_thrower -->
<g id="node5" class="node"><title>axe_thrower</title>
<g id="a_node5"><a xlink:href="indian_axe_thrower_full.html" xlink:title="Axe\nThrower">
<ellipse fill="none" stroke="magenta" cx="703.006" cy="-98.8701" rx="44.5955" ry="26.7407"/>
<text text-anchor="middle" x="703.006" y="-102.67" font-family="Times,serif" font-size="14.00" fill="#ebc72d">Axe</text>
<text text-anchor="middle" x="703.006" y="-87.6701" font-family="Times,serif" font-size="14.00" fill="#ebc72d">Thrower</text>
</a>
</g>
</g>
<!-- roundtent&#45;&gt;axe_thrower -->
<g id="edge22" class="edge"><title>roundtent&#45;&gt;axe_thrower</title>
<path fill="none" stroke="#ebc72d" d="M795.006,-310.74C807.352,-245.133 807.852,-220.413 776.006,-161.74 768.074,-147.128 755.188,-134.485 742.433,-124.505"/>
<polygon fill="#ebc72d" stroke="#ebc72d" points="744.239,-121.487 734.123,-118.337 740.067,-127.107 744.239,-121.487"/>
</g>
<!-- fire_archer -->
<g id="node7" class="node"><title>fire_archer</title>
<g id="a_node7"><a xlink:href="indian_fire_archer_full.html" xlink:title="Fire\nArcher">
<ellipse fill="none" stroke="magenta" cx="619.006" cy="-199.74" rx="38.3684" ry="26.7407"/>
<text text-anchor="middle" x="619.006" y="-203.54" font-family="Times,serif" font-size="14.00" fill="#ebc72d">Fire</text>
<text text-anchor="middle" x="619.006" y="-188.54" font-family="Times,serif" font-size="14.00" fill="#ebc72d">Archer</text>
</a>
</g>
</g>
<!-- roundtent&#45;&gt;fire_archer -->
<g id="edge24" class="edge"><title>roundtent&#45;&gt;fire_archer</title>
<path fill="none" stroke="#ebc72d" d="M682.713,-393.14C713.381,-385.631 749.86,-372.485 776.006,-349.74 789.953,-337.607 791.587,-330.907 795.006,-312.74"/>
<path fill="none" stroke="#ebc72d" d="M795.006,-310.74C808.512,-238.968 677.312,-240.978 671.006,-237.74 664.715,-234.51 658.328,-230.59 652.285,-226.526"/>
<polygon fill="#ebc72d" stroke="#ebc72d" points="653.925,-223.402 643.727,-220.531 649.909,-229.135 653.925,-223.402"/>
</g>
<!-- campfire -->
<g id="node8" class="node"><title>campfire</title>
<g id="a_node8"><a xlink:href="indian_campfire_full.html" xlink:title="Campfire">
<polygon fill="none" stroke="red" points="328.765,-317.302 274.006,-329.74 219.247,-317.302 219.298,-297.178 328.714,-297.178 328.765,-317.302"/>
<text text-anchor="middle" x="274.006" y="-308.04" font-family="Times,serif" font-size="14.00" fill="#ebc72d">Campfire</text>
</a>
</g>
</g>
<!-- roundtent&#45;&gt;campfire -->
<g id="edge23" class="edge"><title>roundtent&#45;&gt;campfire</title>
<path fill="none" stroke="#ebc72d" stroke-dasharray="1,5" d="M565.32,-392.554C514.712,-383.212 439.912,-368.066 376.006,-349.74 353.854,-343.388 329.582,-334.658 310.274,-327.273"/>
<polygon fill="#ebc72d" stroke="#ebc72d" points="311.536,-324.008 300.946,-323.663 309.009,-330.536 311.536,-324.008"/>
</g>
<!-- spearman -->
<g id="node12" class="node"><title>spearman</title>
<g id="a_node12"><a xlink:href="indian_spearman_full.html" xlink:title="Spearman">
<ellipse fill="none" stroke="magenta" cx="721.006" cy="-311.74" rx="46.2923" ry="18"/>
<text text-anchor="middle" x="721.006" y="-308.04" font-family="Times,serif" font-size="14.00" fill="#ebc72d">Spearman</text>
</a>
</g>
</g>
<!-- roundtent&#45;&gt;spearman -->
<g id="edge26" class="edge"><title>roundtent&#45;&gt;spearman</title>
<path fill="none" stroke="#ebc72d" d="M638.738,-389.071C654.041,-374.872 678.249,-352.411 696.451,-335.523"/>
<polygon fill="#ebc72d" stroke="#ebc72d" points="698.89,-338.034 703.84,-328.667 694.129,-332.903 698.89,-338.034"/>
</g>
<!-- axe_indian -->
<g id="node16" class="node"><title>axe_indian</title>
<g id="a_node16"><a xlink:href="indian_axe_indian_full.html" xlink:title="Axe\nIndian">
<ellipse fill="none" stroke="magenta" cx="565.006" cy="-98.8701" rx="36.125" ry="26.7407"/>
<text text-anchor="middle" x="565.006" y="-102.67" font-family="Times,serif" font-size="14.00" fill="#ebc72d">Axe</text>
<text text-anchor="middle" x="565.006" y="-87.6701" font-family="Times,serif" font-size="14.00" fill="#ebc72d">Indian</text>
</a>
</g>
</g>
<!-- roundtent&#45;&gt;axe_indian -->
<g id="edge21" class="edge"><title>roundtent&#45;&gt;axe_indian</title>
<path fill="none" stroke="#ebc72d" d="M795.006,-310.74C804.595,-259.785 740.669,-274.403 704.006,-237.74 677.302,-211.036 691.537,-189.567 666.006,-161.74 649.007,-143.214 625.205,-128.27 604.977,-117.714"/>
<polygon fill="#ebc72d" stroke="#ebc72d" points="606.477,-114.55 595.972,-113.175 603.327,-120.801 606.477,-114.55"/>
</g>
<!-- horsefarm -->
<g id="node18" class="node"><title>horsefarm</title>
<g id="a_node18"><a xlink:href="indian_horsefarm_full.html" xlink:title="Horsefarm">
<polygon fill="none" stroke="red" points="1031.01,-317.302 971.006,-329.74 910.999,-317.302 911.055,-297.178 1030.96,-297.178 1031.01,-317.302"/>
<text text-anchor="middle" x="971.006" y="-308.04" font-family="Times,serif" font-size="14.00" fill="#ebc72d">Horsefarm</text>
</a>
</g>
</g>
<!-- roundtent&#45;&gt;horsefarm -->
<g id="edge25" class="edge"><title>roundtent&#45;&gt;horsefarm</title>
<path fill="none" stroke="#ebc72d" stroke-dasharray="1,5" d="M682.804,-393.68C751.994,-382.643 862.464,-363.741 902.006,-349.74 915.79,-344.859 930.174,-337.547 942.22,-330.708"/>
<polygon fill="#ebc72d" stroke="#ebc72d" points="944.059,-333.687 950.926,-325.619 940.527,-327.644 944.059,-333.687"/>
</g>
<!-- training_field -->
<g id="node24" class="node"><title>training_field</title>
<g id="a_node24"><a xlink:href="indian_training_field_full.html" xlink:title="Training\nField">
<polygon fill="none" stroke="green" points="657.137,-349.74 553.528,-349.74 526.874,-273.74 630.484,-273.74 657.137,-349.74"/>
<text text-anchor="middle" x="592.006" y="-315.54" font-family="Times,serif" font-size="14.00" fill="#ebc72d">Training</text>
<text text-anchor="middle" x="592.006" y="-300.54" font-family="Times,serif" font-size="14.00" fill="#ebc72d">Field</text>
</a>
</g>
</g>
<!-- roundtent&#45;&gt;training_field -->
<g id="edge27" class="edge"><title>roundtent&#45;&gt;training_field</title>
<path fill="none" stroke="#ebc72d" d="M619.146,-389.071C616.279,-381.008 612.465,-370.281 608.604,-359.423"/>
<polygon fill="#ebc72d" stroke="#ebc72d" points="611.87,-358.16 605.222,-349.911 605.274,-360.506 611.87,-358.16"/>
</g>
<!-- mainteepee -->
<g id="node3" class="node"><title>mainteepee</title>
<g id="a_node3"><a xlink:href="indian_mainteepee_full.html" xlink:title="Mainteepee">
<polygon fill="none" stroke="red" points="958.046,-481.302 894.006,-493.74 829.965,-481.302 830.025,-461.178 957.986,-461.178 958.046,-481.302"/>
<text text-anchor="middle" x="894.006" y="-472.04" font-family="Times,serif" font-size="14.00" fill="#ebc72d">Mainteepee</text>
</a>
</g>
</g>
<!-- worker -->
<g id="node21" class="node"><title>worker</title>
<g id="a_node21"><a xlink:href="indian_worker_full.html" xlink:title="Worker">
<ellipse fill="none" stroke="magenta" cx="802.006" cy="-547.74" rx="38.1938" ry="18"/>
<text text-anchor="middle" x="802.006" y="-544.04" font-family="Times,serif" font-size="14.00" fill="#ebc72d">Worker</text>
</a>
</g>
</g>
<!-- bull -->
<g id="node4" class="node"><title>bull</title>
<g id="a_node4"><a xlink:href="indian_bull_full.html" xlink:title="Bull">
<ellipse fill="none" stroke="magenta" cx="740.006" cy="-199.74" rx="27" ry="18"/>
<text text-anchor="middle" x="740.006" y="-196.04" font-family="Times,serif" font-size="14.00" fill="#ebc72d">Bull</text>
</a>
</g>
</g>
<!-- horseman -->
<g id="node6" class="node"><title>horseman</title>
<g id="a_node6"><a xlink:href="indian_horseman_full.html" xlink:title="Horseman">
<ellipse fill="none" stroke="magenta" cx="890.006" cy="-98.8701" rx="47.3916" ry="18"/>
<text text-anchor="middle" x="890.006" y="-95.1701" font-family="Times,serif" font-size="14.00" fill="#ebc72d">Horseman</text>
</a>
</g>
</g>
<!-- campfire&#45;&gt;firegolem -->
<g id="edge5" class="edge"><title>campfire&#45;&gt;firegolem</title>
<path fill="none" stroke="#ebc72d" d="M297.88,-297.102C325.22,-280.93 367.365,-254.109 376.006,-237.74 394.321,-203.043 390.417,-156.272 385.235,-127.103"/>
<polygon fill="#ebc72d" stroke="#ebc72d" points="388.655,-126.354 383.307,-117.208 381.785,-127.693 388.655,-126.354"/>
</g>
<!-- campfire&#45;&gt;fire_archer -->
<g id="edge4" class="edge"><title>campfire&#45;&gt;fire_archer</title>
<path fill="none" stroke="#ebc72d" stroke-dasharray="1,5" d="M294.918,-297.128C308.184,-289.112 325.997,-279.453 343.006,-273.74 440.671,-240.933 477.575,-278.942 572.006,-237.74 577.616,-235.292 583.133,-232.011 588.305,-228.409"/>
<polygon fill="#ebc72d" stroke="#ebc72d" points="590.752,-230.947 596.634,-222.135 586.541,-225.355 590.752,-230.947"/>
</g>
<!-- totem -->
<g id="node20" class="node"><title>totem</title>
<g id="a_node20"><a xlink:href="indian_totem_full.html" xlink:title="Totem">
<polygon fill="none" stroke="red" points="162.663,-205.302 120.006,-217.74 77.3481,-205.302 77.3879,-185.178 162.624,-185.178 162.663,-205.302"/>
<text text-anchor="middle" x="120.006" y="-196.04" font-family="Times,serif" font-size="14.00" fill="#ebc72d">Totem</text>
</a>
</g>
</g>
<!-- campfire&#45;&gt;totem -->
<g id="edge8" class="edge"><title>campfire&#45;&gt;totem</title>
<path fill="none" stroke="#ebc72d" stroke-dasharray="1,5" d="M254.813,-297.031C227.22,-277.322 176.287,-240.941 145.543,-218.981"/>
<polygon fill="#ebc72d" stroke="#ebc72d" points="147.242,-215.893 137.07,-212.929 143.173,-221.59 147.242,-215.893"/>
</g>
<!-- iron -->
<g id="node22" class="node"><title>iron</title>
<g id="a_node22"><a xlink:href="indian_iron_full.html" xlink:title="Iron">
<polygon fill="none" stroke="green" points="563.336,-217.74 503.952,-217.74 488.676,-181.74 548.059,-181.74 563.336,-217.74"/>
<text text-anchor="middle" x="526.006" y="-196.04" font-family="Times,serif" font-size="14.00" fill="#ebc72d">Iron</text>
</a>
</g>
</g>
<!-- campfire&#45;&gt;iron -->
<g id="edge6" class="edge"><title>campfire&#45;&gt;iron</title>
<path fill="none" stroke="#ebc72d" d="M297.936,-297.049C311.061,-289.76 327.727,-280.857 343.006,-273.74 393.528,-250.208 453.873,-227.059 491.069,-213.338"/>
<polygon fill="#ebc72d" stroke="#ebc72d" points="492.279,-216.622 500.462,-209.892 489.869,-210.05 492.279,-216.622"/>
</g>
<!-- iron_advanced -->
<g id="node25" class="node"><title>iron_advanced</title>
<g id="a_node25"><a xlink:href="indian_iron_advanced_full.html" xlink:title="Iron\nAdvanced">
<polygon fill="none" stroke="green" points="366.725,-237.74 249.454,-237.74 219.287,-161.74 336.557,-161.74 366.725,-237.74"/>
<text text-anchor="middle" x="293.006" y="-203.54" font-family="Times,serif" font-size="14.00" fill="#ebc72d">Iron</text>
<text text-anchor="middle" x="293.006" y="-188.54" font-family="Times,serif" font-size="14.00" fill="#ebc72d">Advanced</text>
</a>
</g>
</g>
<!-- campfire&#45;&gt;iron_advanced -->
<g id="edge7" class="edge"><title>campfire&#45;&gt;iron_advanced</title>
<path fill="none" stroke="#ebc72d" d="M276.412,-296.809C278.532,-284.534 281.748,-265.918 284.785,-248.331"/>
<polygon fill="#ebc72d" stroke="#ebc72d" points="288.291,-248.601 286.544,-238.151 281.393,-247.41 288.291,-248.601"/>
</g>
<!-- shaman -->
<g id="node9" class="node"><title>shaman</title>
<g id="a_node9"><a xlink:href="indian_shaman_full.html" xlink:title="Shaman">
<ellipse fill="none" stroke="magenta" cx="117.006" cy="-98.8701" rx="39.7935" ry="18"/>
<text text-anchor="middle" x="117.006" y="-95.1701" font-family="Times,serif" font-size="14.00" fill="#ebc72d">Shaman</text>
</a>
</g>
</g>
<!-- beehive -->
<g id="node11" class="node"><title>beehive</title>
<g id="a_node11"><a xlink:href="indian_beehive_full.html" xlink:title="Beehive">
<polygon fill="none" stroke="red" points="98.0172,-23.5623 49.0057,-36 -0.00574767,-23.5623 0.0399987,-3.43769 97.9715,-3.43769 98.0172,-23.5623"/>
<text text-anchor="middle" x="49.0057" y="-14.3" font-family="Times,serif" font-size="14.00" fill="#ebc72d">Beehive</text>
</a>
</g>
</g>
<!-- shaman&#45;&gt;beehive -->
<g id="edge28" class="edge"><title>shaman&#45;&gt;beehive</title>
<path fill="none" stroke="#ebc72d" stroke-width="2" d="M103.245,-81.9095C93.025,-70.0559 78.9693,-53.7533 67.7272,-40.7142"/>
<polygon fill="#ebc72d" stroke="#ebc72d" stroke-width="2" points="70.3312,-38.3744 61.1505,-33.0862 65.0296,-42.9454 70.3312,-38.3744"/>
</g>
<!-- thunderbird -->
<g id="node19" class="node"><title>thunderbird</title>
<g id="a_node19"><a xlink:href="indian_thunderbird_full.html" xlink:title="Thunderbird">
<ellipse fill="none" stroke="magenta" cx="171.006" cy="-18" rx="54.6905" ry="18"/>
<text text-anchor="middle" x="171.006" y="-14.3" font-family="Times,serif" font-size="14.00" fill="#ebc72d">Thunderbird</text>
</a>
</g>
</g>
<!-- shaman&#45;&gt;thunderbird -->
<g id="edge29" class="edge"><title>shaman&#45;&gt;thunderbird</title>
<path fill="none" stroke="#ebc72d" d="M128.195,-81.5281C135.553,-70.7811 145.33,-56.5009 153.683,-44.3008"/>
<polygon fill="#ebc72d" stroke="#ebc72d" points="156.697,-46.0938 159.459,-35.8652 150.921,-42.1392 156.697,-46.0938"/>
</g>
<!-- reed -->
<g id="node10" class="node"><title>reed</title>
<g id="a_node10"><a xlink:href="indian_reed_full.html" xlink:title="Reed">
<polygon fill="none" stroke="red" points="392.203,-409.302 357.006,-421.74 321.808,-409.302 321.841,-389.178 392.17,-389.178 392.203,-409.302"/>
<text text-anchor="middle" x="357.006" y="-400.04" font-family="Times,serif" font-size="14.00" fill="#ebc72d">Reed</text>
</a>
</g>
</g>
<!-- reed&#45;&gt;firegolem -->
<g id="edge20" class="edge"><title>reed&#45;&gt;firegolem</title>
<path fill="none" stroke="#ebc72d" stroke-dasharray="1,5" d="M191.006,-310.74C166.718,-287.843 188.64,-187.386 210.006,-161.74 243.744,-121.243 273.875,-144.83 323.006,-125.74 329.098,-123.373 335.469,-120.664 341.638,-117.911"/>
<polygon fill="#ebc72d" stroke="#ebc72d" points="343.456,-120.929 351.099,-113.591 340.548,-114.561 343.456,-120.929"/>
</g>
<!-- reed&#45;&gt;fire_archer -->
<g id="edge19" class="edge"><title>reed&#45;&gt;fire_archer</title>
<path fill="none" stroke="#ebc72d" stroke-dasharray="1,5" d="M354.379,-388.859C350.273,-362.533 345.664,-305.176 376.006,-273.74 437.514,-210.014 491.29,-274.2 572.006,-237.74 577.584,-235.221 583.084,-231.9 588.248,-228.281"/>
<polygon fill="#ebc72d" stroke="#ebc72d" points="590.7,-230.815 596.573,-221.997 586.483,-225.228 590.7,-230.815"/>
</g>
<!-- reed&#45;&gt;beehive -->
<g id="edge17" class="edge"><title>reed&#45;&gt;beehive</title>
<path fill="none" stroke="#ebc72d" stroke-dasharray="1,5" d="M321.545,-393.207C283.705,-382.479 226.916,-364.608 210.006,-349.74 196.123,-337.534 204.333,-325.55 191.006,-312.74"/>
<path fill="none" stroke="#ebc72d" stroke-dasharray="1,5" d="M191.006,-310.74C145.175,-266.688 101.822,-291.569 68.0057,-237.74 30.2453,-177.633 37.3665,-89.2284 44.0543,-45.4995"/>
<polygon fill="#ebc72d" stroke="#ebc72d" points="47.5478,-45.8245 45.7177,-35.389 40.6407,-44.6881 47.5478,-45.8245"/>
</g>
<!-- archer -->
<g id="node17" class="node"><title>archer</title>
<g id="a_node17"><a xlink:href="indian_archer_full.html" xlink:title="Archer">
<ellipse fill="none" stroke="magenta" cx="858.006" cy="-311.74" rx="35.194" ry="18"/>
<text text-anchor="middle" x="858.006" y="-308.04" font-family="Times,serif" font-size="14.00" fill="#ebc72d">Archer</text>
</a>
</g>
</g>
<!-- reed&#45;&gt;archer -->
<g id="edge16" class="edge"><title>reed&#45;&gt;archer</title>
<path fill="none" stroke="#ebc72d" stroke-dasharray="1,5" d="M392.526,-399.655C492.345,-390.835 770.603,-365.156 809.006,-349.74 817.822,-346.201 826.439,-340.641 833.927,-334.897"/>
<polygon fill="#ebc72d" stroke="#ebc72d" points="836.616,-337.219 842.142,-328.179 832.185,-331.8 836.616,-337.219"/>
</g>
<!-- bullfood -->
<g id="node26" class="node"><title>bullfood</title>
<g id="a_node26"><a xlink:href="indian_bullfood_full.html" xlink:title="Bullfood">
<polygon fill="none" stroke="green" points="508.888,-329.74 410.447,-329.74 385.124,-293.74 483.564,-293.74 508.888,-329.74"/>
<text text-anchor="middle" x="447.006" y="-308.04" font-family="Times,serif" font-size="14.00" fill="#ebc72d">Bullfood</text>
</a>
</g>
</g>
<!-- reed&#45;&gt;bullfood -->
<g id="edge18" class="edge"><title>reed&#45;&gt;bullfood</title>
<path fill="none" stroke="#ebc72d" d="M370.675,-389.071C384.406,-375.34 405.864,-353.882 422.536,-337.21"/>
<polygon fill="#ebc72d" stroke="#ebc72d" points="425.218,-339.478 429.814,-329.932 420.268,-334.528 425.218,-339.478"/>
</g>
<!-- stickfighter -->
<g id="node13" class="node"><title>stickfighter</title>
<g id="a_node13"><a xlink:href="indian_stickfighter_full.html" xlink:title="Stickfighter">
<ellipse fill="none" stroke="magenta" cx="1101.01" cy="-311.74" rx="51.9908" ry="18"/>
<text text-anchor="middle" x="1101.01" y="-308.04" font-family="Times,serif" font-size="14.00" fill="#ebc72d">Stickfighter</text>
</a>
</g>
</g>
<!-- bigtent -->
<g id="node14" class="node"><title>bigtent</title>
<g id="a_node14"><a xlink:href="indian_bigtent_full.html" xlink:title="Bigtent">
<polygon fill="none" stroke="red" points="895.984,-409.302 851.006,-421.74 806.028,-409.302 806.07,-389.178 895.942,-389.178 895.984,-409.302"/>
<text text-anchor="middle" x="851.006" y="-400.04" font-family="Times,serif" font-size="14.00" fill="#ebc72d">Bigtent</text>
</a>
</g>
</g>
<!-- bigtent&#45;&gt;stickfighter -->
<g id="edge2" class="edge"><title>bigtent&#45;&gt;stickfighter</title>
<path fill="none" stroke="#ebc72d" d="M896.097,-393.727C935.145,-385.077 992.642,-370.287 1040.01,-349.74 1050.25,-345.295 1060.85,-339.39 1070.28,-333.606"/>
<polygon fill="#ebc72d" stroke="#ebc72d" points="1072.33,-336.45 1078.91,-328.148 1068.59,-330.533 1072.33,-336.45"/>
</g>
<!-- bigtent&#45;&gt;archer -->
<g id="edge1" class="edge"><title>bigtent&#45;&gt;archer</title>
<path fill="none" stroke="#ebc72d" d="M852.069,-389.071C853.079,-376.082 854.627,-356.18 855.889,-339.954"/>
<polygon fill="#ebc72d" stroke="#ebc72d" points="859.383,-340.173 856.669,-329.932 852.404,-339.63 859.383,-340.173"/>
</g>
<!-- tent -->
<g id="node15" class="node"><title>tent</title>
<g id="a_node15"><a xlink:href="indian_tent_full.html" xlink:title="Tent">
<polygon fill="none" stroke="red" points="773.882,-481.302 741.006,-493.74 708.129,-481.302 708.16,-461.178 773.852,-461.178 773.882,-481.302"/>
<text text-anchor="middle" x="741.006" y="-472.04" font-family="Times,serif" font-size="14.00" fill="#ebc72d">Tent</text>
</a>
</g>
</g>
<!-- tent&#45;&gt;roundtent -->
<g id="edge32" class="edge"><title>tent&#45;&gt;roundtent</title>
<path fill="none" stroke="#ebc72d" stroke-dasharray="1,5" d="M718.169,-461.077C699.83,-450.105 673.93,-434.609 653.933,-422.645"/>
<polygon fill="#ebc72d" stroke="#ebc72d" points="655.588,-419.557 645.209,-417.426 651.994,-425.564 655.588,-419.557"/>
</g>
<!-- tent&#45;&gt;stickfighter -->
<g id="edge33" class="edge"><title>tent&#45;&gt;stickfighter</title>
<path fill="none" stroke="#ebc72d" d="M745.483,-460.949C752.797,-440.81 769.333,-403.796 797.006,-385.74 888.442,-326.079 937.303,-386.782 1040.01,-349.74 1050.89,-345.815 1061.95,-339.828 1071.61,-333.807"/>
<polygon fill="#ebc72d" stroke="#ebc72d" points="1073.57,-336.71 1080.05,-328.326 1069.75,-330.84 1073.57,-336.71"/>
</g>
<!-- tent&#45;&gt;bigtent -->
<g id="edge31" class="edge"><title>tent&#45;&gt;bigtent</title>
<path fill="none" stroke="#ebc72d" stroke-dasharray="1,5" d="M762.476,-461.077C779.964,-449.949 804.765,-434.166 823.671,-422.135"/>
<polygon fill="#ebc72d" stroke="#ebc72d" points="825.599,-425.057 832.157,-416.735 821.841,-419.151 825.599,-425.057"/>
</g>
<!-- horsefarm&#45;&gt;bull -->
<g id="edge9" class="edge"><title>horsefarm&#45;&gt;bull</title>
<path fill="none" stroke="#ebc72d" d="M946.629,-297.14C933.518,-289.959 917.003,-281.129 902.006,-273.74 857.367,-251.747 804.661,-228.485 771.778,-214.286"/>
<polygon fill="#ebc72d" stroke="#ebc72d" points="772.81,-210.92 762.241,-210.182 770.043,-217.35 772.81,-210.92"/>
</g>
<!-- horsefarm&#45;&gt;horseman -->
<g id="edge10" class="edge"><title>horsefarm&#45;&gt;horseman</title>
<path fill="none" stroke="#ebc72d" d="M972.103,-297.166C973.715,-269.943 974.428,-207.381 952.006,-161.74 944.415,-146.29 931.414,-132.405 919.272,-121.724"/>
<polygon fill="#ebc72d" stroke="#ebc72d" points="921.391,-118.933 911.483,-115.182 916.89,-124.293 921.391,-118.933"/>
</g>
<!-- stables -->
<g id="node23" class="node"><title>stables</title>
<g id="a_node23"><a xlink:href="indian_stables_full.html" xlink:title="Stables">
<polygon fill="none" stroke="green" points="943.235,-217.74 858.559,-217.74 836.776,-181.74 921.452,-181.74 943.235,-217.74"/>
<text text-anchor="middle" x="890.006" y="-196.04" font-family="Times,serif" font-size="14.00" fill="#ebc72d">Stables</text>
</a>
</g>
</g>
<!-- horsefarm&#45;&gt;stables -->
<g id="edge11" class="edge"><title>horsefarm&#45;&gt;stables</title>
<path fill="none" stroke="#ebc72d" d="M960.747,-296.809C947.669,-279.048 924.815,-248.012 908.626,-226.028"/>
<polygon fill="#ebc72d" stroke="#ebc72d" points="911.318,-223.78 902.57,-217.803 905.682,-227.931 911.318,-223.78"/>
</g>
<!-- totem&#45;&gt;firegolem -->
<g id="edge34" class="edge"><title>totem&#45;&gt;firegolem</title>
<path fill="none" stroke="#ebc72d" stroke-dasharray="1,5" d="M137.61,-185.104C148.453,-177.282 162.932,-167.836 177.006,-161.74 238.332,-135.176 259.938,-147.855 323.006,-125.74 329.456,-123.478 336.172,-120.736 342.618,-117.894"/>
<polygon fill="#ebc72d" stroke="#ebc72d" points="344.164,-121.036 351.81,-113.702 341.259,-114.667 344.164,-121.036"/>
</g>
<!-- totem&#45;&gt;shaman -->
<g id="edge36" class="edge"><title>totem&#45;&gt;shaman</title>
<path fill="none" stroke="#ebc72d" d="M119.589,-184.993C119.137,-170.109 118.405,-145.984 117.835,-127.21"/>
<polygon fill="#ebc72d" stroke="#ebc72d" points="121.332,-127.045 117.53,-117.156 114.335,-127.257 121.332,-127.045"/>
</g>
<!-- petroleum -->
<g id="node27" class="node"><title>petroleum</title>
<g id="a_node27"><a xlink:href="indian_petroleum_full.html" xlink:title="Petroleum">
<polygon fill="none" stroke="green" points="313.635,-116.87 202.87,-116.87 174.377,-80.8701 285.141,-80.8701 313.635,-116.87"/>
<text text-anchor="middle" x="244.006" y="-95.1701" font-family="Times,serif" font-size="14.00" fill="#ebc72d">Petroleum</text>
</a>
</g>
</g>
<!-- totem&#45;&gt;petroleum -->
<g id="edge35" class="edge"><title>totem&#45;&gt;petroleum</title>
<path fill="none" stroke="#ebc72d" d="M137.247,-184.993C157.13,-169.14 190.161,-142.802 214.225,-123.615"/>
<polygon fill="#ebc72d" stroke="#ebc72d" points="216.69,-126.126 222.327,-117.156 212.326,-120.653 216.69,-126.126"/>
</g>
<!-- worker&#45;&gt;roundtent -->
<g id="edge42" class="edge"><title>worker&#45;&gt;roundtent</title>
<path fill="none" stroke="#ebc72d" stroke-width="2" d="M357.006,-474.74C342.602,-435.573 471.386,-417.299 555.189,-409.619"/>
<polygon fill="#ebc72d" stroke="#ebc72d" stroke-width="2" points="555.521,-413.103 565.173,-408.734 554.903,-406.13 555.521,-413.103"/>
</g>
<!-- worker&#45;&gt;mainteepee -->
<g id="edge40" class="edge"><title>worker&#45;&gt;mainteepee</title>
<path fill="none" stroke="#ebc72d" stroke-width="2" d="M829.514,-525.81C841.646,-516.579 855.838,-505.781 867.814,-496.668"/>
<polygon fill="#ebc72d" stroke="#ebc72d" stroke-width="2" points="827.356,-523.054 821.517,-531.895 831.594,-528.625 827.356,-523.054"/>
<polygon fill="#ebc72d" stroke="#ebc72d" stroke-width="2" points="870.244,-499.218 876.083,-490.377 866.005,-493.647 870.244,-499.218"/>
</g>
<!-- worker&#45;&gt;campfire -->
<g id="edge38" class="edge"><title>worker&#45;&gt;campfire</title>
<path fill="none" stroke="#ebc72d" stroke-width="2" d="M274.006,-402.74C258.845,-385.419 261.134,-358.228 265.809,-338.264"/>
<polygon fill="#ebc72d" stroke="#ebc72d" stroke-width="2" points="269.198,-339.137 268.391,-328.573 262.434,-337.334 269.198,-339.137"/>
</g>
<!-- worker&#45;&gt;reed -->
<g id="edge41" class="edge"><title>worker&#45;&gt;reed</title>
<path fill="none" stroke="#ebc72d" stroke-width="2" d="M357.006,-474.74C351.909,-460.88 351.65,-444.406 352.786,-430.923"/>
<polygon fill="#ebc72d" stroke="#ebc72d" stroke-width="2" points="356.278,-431.188 353.929,-420.857 349.323,-430.398 356.278,-431.188"/>
</g>
<!-- worker&#45;&gt;bigtent -->
<g id="edge37" class="edge"><title>worker&#45;&gt;bigtent</title>
<path fill="none" stroke="#ebc72d" stroke-width="2" d="M804.089,-529.57C806.664,-511.316 811.868,-481.818 821.006,-457.74 824.848,-447.615 830.418,-437.109 835.718,-428.146"/>
<polygon fill="#ebc72d" stroke="#ebc72d" stroke-width="2" points="838.81,-429.799 841.06,-419.446 832.845,-426.136 838.81,-429.799"/>
</g>
<!-- worker&#45;&gt;tent -->
<g id="edge43" class="edge"><title>worker&#45;&gt;tent</title>
<path fill="none" stroke="#ebc72d" stroke-width="2" d="M788.164,-530.856C779.536,-520.956 768.344,-508.112 759.028,-497.421"/>
<polygon fill="#ebc72d" stroke="#ebc72d" stroke-width="2" points="761.552,-494.99 752.343,-489.75 756.274,-499.589 761.552,-494.99"/>
</g>
<!-- worker&#45;&gt;horsefarm -->
<g id="edge39" class="edge"><title>worker&#45;&gt;horsefarm</title>
<path fill="none" stroke="#ebc72d" stroke-width="2" d="M840.258,-546.376C879.165,-543.719 937.767,-532.926 967.006,-493.74 1001.03,-448.148 988.942,-376.555 978.94,-338.513"/>
<polygon fill="#ebc72d" stroke="#ebc72d" stroke-width="2" points="982.268,-337.417 976.214,-328.722 975.525,-339.294 982.268,-337.417"/>
</g>
<!-- worker&#45;&gt;totem -->
<g id="edge44" class="edge"><title>worker&#45;&gt;totem</title>
<path fill="none" stroke="#ebc72d" stroke-width="2" d="M763.941,-544.406C658.786,-537.479 371.11,-515.092 357.006,-476.74"/>
<path fill="none" stroke="#ebc72d" stroke-width="2" d="M357.006,-474.74C340.349,-429.449 305.788,-441.052 274.006,-404.74"/>
<path fill="none" stroke="#ebc72d" stroke-width="2" d="M274.006,-402.74C241.65,-365.773 209.327,-386.737 177.006,-349.74 145.9,-314.135 130.934,-259.763 124.413,-227.483"/>
<polygon fill="#ebc72d" stroke="#ebc72d" stroke-width="2" points="127.812,-226.618 122.515,-217.442 120.933,-227.918 127.812,-226.618"/>
</g>
<!-- iron&#45;&gt;axe_thrower -->
<g id="edge13" class="edge"><title>iron&#45;&gt;axe_thrower</title>
<path fill="none" stroke="#ebc72d" stroke-dasharray="1,5" d="M545.393,-181.455C553.328,-174.839 562.797,-167.505 572.006,-161.74 598.944,-144.877 631.205,-129.587 656.971,-118.426"/>
<polygon fill="#ebc72d" stroke="#ebc72d" points="658.681,-121.502 666.503,-114.356 655.932,-115.064 658.681,-121.502"/>
</g>
<!-- iron&#45;&gt;horseman -->
<g id="edge14" class="edge"><title>iron&#45;&gt;horseman</title>
<path fill="none" stroke="#ebc72d" stroke-dasharray="1,5" d="M543.414,-181.379C551.489,-174.261 561.595,-166.575 572.006,-161.74 572.006,-161.74 748.824,-127.338 838.762,-109.84"/>
<polygon fill="#ebc72d" stroke="#ebc72d" points="839.611,-113.241 848.759,-107.895 838.274,-106.369 839.611,-113.241"/>
</g>
<!-- iron&#45;&gt;axe_indian -->
<g id="edge12" class="edge"><title>iron&#45;&gt;axe_indian</title>
<path fill="none" stroke="#ebc72d" stroke-dasharray="1,5" d="M532.799,-181.518C537.896,-168.598 545.043,-150.478 551.311,-134.589"/>
<polygon fill="#ebc72d" stroke="#ebc72d" points="554.659,-135.638 555.073,-125.051 548.148,-133.069 554.659,-135.638"/>
</g>
<!-- stables&#45;&gt;horseman -->
<g id="edge30" class="edge"><title>stables&#45;&gt;horseman</title>
<path fill="none" stroke="#ebc72d" stroke-dasharray="1,5" d="M890.006,-181.518C890.006,-166.49 890.006,-144.428 890.006,-127.024"/>
<polygon fill="#ebc72d" stroke="#ebc72d" points="893.506,-126.895 890.006,-116.895 886.506,-126.895 893.506,-126.895"/>
</g>
<!-- bullfood&#45;&gt;bull -->
<g id="edge3" class="edge"><title>bullfood&#45;&gt;bull</title>
<path fill="none" stroke="#ebc72d" stroke-dasharray="1,5" d="M475.979,-293.612C488.572,-286.707 503.694,-279.119 518.006,-273.74 581.374,-249.924 602.44,-261.025 666.006,-237.74 681.308,-232.135 697.583,-224.23 710.961,-217.165"/>
<polygon fill="#ebc72d" stroke="#ebc72d" points="712.998,-220.043 720.136,-212.214 709.673,-213.883 712.998,-220.043"/>
</g>
</g>
</svg>
