<?xml version="1.0" encoding="UTF-8" standalone="no"?>
<!DOCTYPE svg PUBLIC "-//W3C//DTD SVG 1.1//EN"
 "http://www.w3.org/Graphics/SVG/1.1/DTD/svg11.dtd">
<!-- Generated by graphviz version 2.38.0 (20140413.2041)
 -->
<!-- Title: test Pages: 1 -->
<svg width="979pt" height="308pt"
 viewBox="0.00 0.00 978.59 308.17" xmlns="http://www.w3.org/2000/svg" xmlns:xlink="http://www.w3.org/1999/xlink">
<g id="graph0" class="graph" transform="scale(1 1) rotate(0) translate(4 304.167)">
<title>test</title>
<polygon fill="#151515" stroke="none" points="-4,4 -4,-304.167 974.592,-304.167 974.592,4 -4,4"/>
<!-- round_tent -->
<g id="node1" class="node"><title>round_tent</title>
<g id="a_node1"><a xlink:href="indian_round_tent_full.html" xlink:title="Round\nTent">
<polygon fill="none" stroke="red" points="205.294,-205.283 159.146,-228.381 112.998,-205.283 113.041,-167.91 205.251,-167.91 205.294,-205.283"/>
<text text-anchor="middle" x="159.146" y="-198.753" font-family="Times,serif" font-size="14.00" fill="#ebc72d">Round</text>
<text text-anchor="middle" x="159.146" y="-183.753" font-family="Times,serif" font-size="14.00" fill="#ebc72d">Tent</text>
</a>
</g>
</g>
<!-- axe_thrower -->
<g id="node3" class="node"><title>axe_thrower</title>
<g id="a_node3"><a xlink:href="indian_axe_thrower_full.html" xlink:title="Axe\nThrower">
<ellipse fill="none" stroke="magenta" cx="155.146" cy="-98.8701" rx="44.5955" ry="26.7407"/>
<text text-anchor="middle" x="155.146" y="-102.67" font-family="Times,serif" font-size="14.00" fill="#ebc72d">Axe</text>
<text text-anchor="middle" x="155.146" y="-87.6701" font-family="Times,serif" font-size="14.00" fill="#ebc72d">Thrower</text>
</a>
</g>
</g>
<!-- round_tent&#45;&gt;axe_thrower -->
<g id="edge14" class="edge"><title>round_tent&#45;&gt;axe_thrower</title>
<path fill="none" stroke="#ebc72d" d="M158.032,-167.746C157.616,-157.959 157.135,-146.664 156.688,-136.132"/>
<polygon fill="#ebc72d" stroke="#ebc72d" points="160.176,-135.779 156.254,-125.937 153.182,-136.077 160.176,-135.779"/>
</g>
<!-- fire_archer -->
<g id="node5" class="node"><title>fire_archer</title>
<g id="a_node5"><a xlink:href="indian_fire_archer_full.html" xlink:title="Fire\nArcher">
<ellipse fill="none" stroke="magenta" cx="346.146" cy="-98.8701" rx="38.3684" ry="26.7407"/>
<text text-anchor="middle" x="346.146" y="-102.67" font-family="Times,serif" font-size="14.00" fill="#ebc72d">Fire</text>
<text text-anchor="middle" x="346.146" y="-87.6701" font-family="Times,serif" font-size="14.00" fill="#ebc72d">Archer</text>
</a>
</g>
</g>
<!-- round_tent&#45;&gt;fire_archer -->
<g id="edge15" class="edge"><title>round_tent&#45;&gt;fire_archer</title>
<path fill="none" stroke="#ebc72d" d="M202.694,-167.763C206.534,-165.663 210.388,-163.627 214.146,-161.74 250.812,-143.335 262.238,-143.655 299.146,-125.74 302.079,-124.317 305.088,-122.799 308.098,-121.239"/>
<polygon fill="#ebc72d" stroke="#ebc72d" points="309.862,-124.265 317.055,-116.486 306.581,-118.082 309.862,-124.265"/>
</g>
<!-- spearman -->
<g id="node11" class="node"><title>spearman</title>
<g id="a_node11"><a xlink:href="indian_spearman_full.html" xlink:title="Spearman">
<ellipse fill="none" stroke="magenta" cx="46.1459" cy="-98.8701" rx="46.2923" ry="18"/>
<text text-anchor="middle" x="46.1459" y="-95.1701" font-family="Times,serif" font-size="14.00" fill="#ebc72d">Spearman</text>
</a>
</g>
</g>
<!-- round_tent&#45;&gt;spearman -->
<g id="edge16" class="edge"><title>round_tent&#45;&gt;spearman</title>
<path fill="none" stroke="#ebc72d" d="M127.669,-167.746C110.43,-153.393 89.2955,-135.796 72.8656,-122.117"/>
<polygon fill="#ebc72d" stroke="#ebc72d" points="74.6727,-119.067 64.7482,-115.358 70.1937,-124.447 74.6727,-119.067"/>
</g>
<!-- axe_indian -->
<g id="node15" class="node"><title>axe_indian</title>
<g id="a_node15"><a xlink:href="indian_axe_indian_full.html" xlink:title="Axe\nIndian">
<ellipse fill="none" stroke="magenta" cx="254.146" cy="-98.8701" rx="36.125" ry="26.7407"/>
<text text-anchor="middle" x="254.146" y="-102.67" font-family="Times,serif" font-size="14.00" fill="#ebc72d">Axe</text>
<text text-anchor="middle" x="254.146" y="-87.6701" font-family="Times,serif" font-size="14.00" fill="#ebc72d">Indian</text>
</a>
</g>
</g>
<!-- round_tent&#45;&gt;axe_indian -->
<g id="edge13" class="edge"><title>round_tent&#45;&gt;axe_indian</title>
<path fill="none" stroke="#ebc72d" d="M185.609,-167.746C198.092,-155.383 213.005,-140.614 225.727,-128.015"/>
<polygon fill="#ebc72d" stroke="#ebc72d" points="228.287,-130.405 232.93,-120.882 223.361,-125.432 228.287,-130.405"/>
</g>
<!-- bull -->
<g id="node2" class="node"><title>bull</title>
<g id="a_node2"><a xlink:href="indian_bull_full.html" xlink:title="Bull">
<ellipse fill="none" stroke="magenta" cx="831.146" cy="-98.8701" rx="27" ry="18"/>
<text text-anchor="middle" x="831.146" y="-95.1701" font-family="Times,serif" font-size="14.00" fill="#ebc72d">Bull</text>
</a>
</g>
</g>
<!-- horseman -->
<g id="node4" class="node"><title>horseman</title>
<g id="a_node4"><a xlink:href="indian_horseman_full.html" xlink:title="Horseman">
<ellipse fill="none" stroke="magenta" cx="923.146" cy="-98.8701" rx="47.3916" ry="18"/>
<text text-anchor="middle" x="923.146" y="-95.1701" font-family="Times,serif" font-size="14.00" fill="#ebc72d">Horseman</text>
</a>
</g>
</g>
<!-- campfire -->
<g id="node6" class="node"><title>campfire</title>
<g id="a_node6"><a xlink:href="indian_campfire_full.html" xlink:title="Campfire">
<polygon fill="none" stroke="red" points="416.905,-200.516 362.146,-212.953 307.387,-200.516 307.438,-180.391 416.854,-180.391 416.905,-200.516"/>
<text text-anchor="middle" x="362.146" y="-191.253" font-family="Times,serif" font-size="14.00" fill="#ebc72d">Campfire</text>
</a>
</g>
</g>
<!-- campfire&#45;&gt;axe_thrower -->
<g id="edge4" class="edge"><title>campfire&#45;&gt;axe_thrower</title>
<path fill="none" stroke="#ebc72d" stroke-dasharray="1,5" d="M336.223,-180.299C324.673,-174.373 310.836,-167.489 298.146,-161.74 259.279,-144.134 248.183,-142.966 209.146,-125.74 205.557,-124.157 201.853,-122.478 198.146,-120.766"/>
<polygon fill="#ebc72d" stroke="#ebc72d" points="199.528,-117.549 188.987,-116.48 196.561,-123.889 199.528,-117.549"/>
</g>
<!-- campfire&#45;&gt;fire_archer -->
<g id="edge5" class="edge"><title>campfire&#45;&gt;fire_archer</title>
<path fill="none" stroke="#ebc72d" stroke-dasharray="1,5" d="M359.785,-180.071C357.822,-168.525 354.936,-151.558 352.324,-136.199"/>
<polygon fill="#ebc72d" stroke="#ebc72d" points="355.701,-135.181 350.574,-125.91 348.8,-136.355 355.701,-135.181"/>
</g>
<!-- fire_golem -->
<g id="node13" class="node"><title>fire_golem</title>
<g id="a_node13"><a xlink:href="indian_fire_golem_full.html" xlink:title="Fire\nGolem">
<ellipse fill="none" stroke="magenta" cx="650.146" cy="-98.8701" rx="38.3684" ry="26.7407"/>
<text text-anchor="middle" x="650.146" y="-102.67" font-family="Times,serif" font-size="14.00" fill="#ebc72d">Fire</text>
<text text-anchor="middle" x="650.146" y="-87.6701" font-family="Times,serif" font-size="14.00" fill="#ebc72d">Golem</text>
</a>
</g>
</g>
<!-- campfire&#45;&gt;fire_golem -->
<g id="edge6" class="edge"><title>campfire&#45;&gt;fire_golem</title>
<path fill="none" stroke="#ebc72d" d="M385.106,-180.293C396.762,-173.861 411.345,-166.562 425.146,-161.74 501.342,-135.12 527.364,-153.52 603.146,-125.74 606.393,-124.55 609.686,-123.161 612.944,-121.656"/>
<polygon fill="#ebc72d" stroke="#ebc72d" points="614.567,-124.758 621.966,-117.175 611.453,-118.489 614.567,-124.758"/>
</g>
<!-- campfire&#45;&gt;axe_indian -->
<g id="edge3" class="edge"><title>campfire&#45;&gt;axe_indian</title>
<path fill="none" stroke="#ebc72d" stroke-dasharray="1,5" d="M346.21,-180.071C330.049,-165.992 304.632,-143.85 284.595,-126.396"/>
<polygon fill="#ebc72d" stroke="#ebc72d" points="286.774,-123.652 276.934,-119.722 282.176,-128.93 286.774,-123.652"/>
</g>
<!-- shaman -->
<g id="node7" class="node"><title>shaman</title>
<g id="a_node7"><a xlink:href="indian_shaman_full.html" xlink:title="Shaman">
<ellipse fill="none" stroke="magenta" cx="746.146" cy="-98.8701" rx="39.7935" ry="18"/>
<text text-anchor="middle" x="746.146" y="-95.1701" font-family="Times,serif" font-size="14.00" fill="#ebc72d">Shaman</text>
</a>
</g>
</g>
<!-- beehive -->
<g id="node9" class="node"><title>beehive</title>
<g id="a_node9"><a xlink:href="indian_beehive_full.html" xlink:title="Beehive">
<polygon fill="none" stroke="red" points="734.157,-23.5623 685.146,-36 636.134,-23.5623 636.18,-3.43769 734.112,-3.43769 734.157,-23.5623"/>
<text text-anchor="middle" x="685.146" y="-14.3" font-family="Times,serif" font-size="14.00" fill="#ebc72d">Beehive</text>
</a>
</g>
</g>
<!-- shaman&#45;&gt;beehive -->
<g id="edge17" class="edge"><title>shaman&#45;&gt;beehive</title>
<path fill="none" stroke="#ebc72d" stroke-width="2" d="M733.507,-81.5281C724.604,-70.0168 712.565,-54.4521 702.727,-41.7318"/>
<polygon fill="#ebc72d" stroke="#ebc72d" stroke-width="2" points="705.22,-39.2335 696.333,-33.4645 699.683,-43.516 705.22,-39.2335"/>
</g>
<!-- thunderbird -->
<g id="node18" class="node"><title>thunderbird</title>
<g id="a_node18"><a xlink:href="indian_thunderbird_full.html" xlink:title="Thunderbird">
<ellipse fill="none" stroke="magenta" cx="807.146" cy="-18" rx="54.6905" ry="18"/>
<text text-anchor="middle" x="807.146" y="-14.3" font-family="Times,serif" font-size="14.00" fill="#ebc72d">Thunderbird</text>
</a>
</g>
</g>
<!-- shaman&#45;&gt;thunderbird -->
<g id="edge18" class="edge"><title>shaman&#45;&gt;thunderbird</title>
<path fill="none" stroke="#ebc72d" d="M758.785,-81.5281C767.235,-70.6034 778.508,-56.0278 788.044,-43.6975"/>
<polygon fill="#ebc72d" stroke="#ebc72d" points="790.964,-45.6438 794.313,-35.5923 785.426,-41.3613 790.964,-45.6438"/>
</g>
<!-- reed -->
<g id="node8" class="node"><title>reed</title>
<g id="a_node8"><a xlink:href="indian_reed_full.html" xlink:title="Reed">
<polygon fill="none" stroke="red" points="594.343,-200.516 559.146,-212.953 523.948,-200.516 523.981,-180.391 594.311,-180.391 594.343,-200.516"/>
<text text-anchor="middle" x="559.146" y="-191.253" font-family="Times,serif" font-size="14.00" fill="#ebc72d">Reed</text>
</a>
</g>
</g>
<!-- reed&#45;&gt;fire_archer -->
<g id="edge11" class="edge"><title>reed&#45;&gt;fire_archer</title>
<path fill="none" stroke="#ebc72d" stroke-dasharray="1,5" d="M543.302,-180.282C535.289,-173.925 525.159,-166.694 515.146,-161.74 464.475,-136.67 445.325,-147.498 393.146,-125.74 390.094,-124.468 386.985,-123.05 383.893,-121.553"/>
<polygon fill="#ebc72d" stroke="#ebc72d" points="385.241,-118.312 374.743,-116.887 382.061,-124.548 385.241,-118.312"/>
</g>
<!-- reed&#45;&gt;fire_golem -->
<g id="edge12" class="edge"><title>reed&#45;&gt;fire_golem</title>
<path fill="none" stroke="#ebc72d" stroke-dasharray="1,5" d="M572.573,-180.071C585.521,-166.685 605.519,-146.009 621.967,-129.004"/>
<polygon fill="#ebc72d" stroke="#ebc72d" points="624.8,-131.109 629.237,-121.488 619.768,-126.242 624.8,-131.109"/>
</g>
<!-- archer -->
<g id="node16" class="node"><title>archer</title>
<g id="a_node16"><a xlink:href="indian_archer_full.html" xlink:title="Archer">
<ellipse fill="none" stroke="magenta" cx="559.146" cy="-98.8701" rx="35.194" ry="18"/>
<text text-anchor="middle" x="559.146" y="-95.1701" font-family="Times,serif" font-size="14.00" fill="#ebc72d">Archer</text>
</a>
</g>
</g>
<!-- reed&#45;&gt;archer -->
<g id="edge10" class="edge"><title>reed&#45;&gt;archer</title>
<path fill="none" stroke="#ebc72d" stroke-dasharray="1,5" d="M559.146,-180.071C559.146,-166.187 559.146,-144.462 559.146,-127.123"/>
<polygon fill="#ebc72d" stroke="#ebc72d" points="562.646,-127.003 559.146,-117.003 555.646,-127.003 562.646,-127.003"/>
</g>
<!-- big_tent -->
<g id="node10" class="node"><title>big_tent</title>
<g id="a_node10"><a xlink:href="indian_big_tent_full.html" xlink:title="Big\nTent">
<polygon fill="none" stroke="red" points="505.817,-205.283 470.146,-228.381 434.475,-205.283 434.508,-167.91 505.784,-167.91 505.817,-205.283"/>
<text text-anchor="middle" x="470.146" y="-198.753" font-family="Times,serif" font-size="14.00" fill="#ebc72d">Big</text>
<text text-anchor="middle" x="470.146" y="-183.753" font-family="Times,serif" font-size="14.00" fill="#ebc72d">Tent</text>
</a>
</g>
</g>
<!-- stickfighter -->
<g id="node12" class="node"><title>stickfighter</title>
<g id="a_node12"><a xlink:href="indian_stickfighter_full.html" xlink:title="Stickfighter">
<ellipse fill="none" stroke="magenta" cx="454.146" cy="-98.8701" rx="51.9908" ry="18"/>
<text text-anchor="middle" x="454.146" y="-95.1701" font-family="Times,serif" font-size="14.00" fill="#ebc72d">Stickfighter</text>
</a>
</g>
</g>
<!-- big_tent&#45;&gt;stickfighter -->
<g id="edge2" class="edge"><title>big_tent&#45;&gt;stickfighter</title>
<path fill="none" stroke="#ebc72d" d="M465.689,-167.746C463.536,-155.087 460.955,-139.907 458.779,-127.115"/>
<polygon fill="#ebc72d" stroke="#ebc72d" points="462.193,-126.311 457.066,-117.039 455.292,-127.484 462.193,-126.311"/>
</g>
<!-- big_tent&#45;&gt;archer -->
<g id="edge1" class="edge"><title>big_tent&#45;&gt;archer</title>
<path fill="none" stroke="#ebc72d" d="M494.937,-167.746C508.266,-153.656 524.551,-136.441 537.385,-122.874"/>
<polygon fill="#ebc72d" stroke="#ebc72d" points="540.165,-125.028 544.495,-115.358 535.08,-120.218 540.165,-125.028"/>
</g>
<!-- tent -->
<g id="node14" class="node"><title>tent</title>
<g id="a_node14"><a xlink:href="indian_tent_full.html" xlink:title="Tent">
<polygon fill="none" stroke="red" points="289.023,-200.516 256.146,-212.953 223.269,-200.516 223.3,-180.391 288.992,-180.391 289.023,-200.516"/>
<text text-anchor="middle" x="256.146" y="-191.253" font-family="Times,serif" font-size="14.00" fill="#ebc72d">Tent</text>
</a>
</g>
</g>
<!-- tent&#45;&gt;axe_thrower -->
<g id="edge21" class="edge"><title>tent&#45;&gt;axe_thrower</title>
<path fill="none" stroke="#ebc72d" stroke-dasharray="1,5" d="M241.243,-180.071C226.839,-166.653 204.573,-145.913 186.294,-128.885"/>
<polygon fill="#ebc72d" stroke="#ebc72d" points="188.441,-126.102 178.738,-121.847 183.67,-131.224 188.441,-126.102"/>
</g>
<!-- tent&#45;&gt;fire_archer -->
<g id="edge22" class="edge"><title>tent&#45;&gt;fire_archer</title>
<path fill="none" stroke="#ebc72d" stroke-dasharray="1,5" d="M269.426,-180.071C282.231,-166.685 302.009,-146.009 318.277,-129.004"/>
<polygon fill="#ebc72d" stroke="#ebc72d" points="321.083,-131.133 325.466,-121.488 316.025,-126.295 321.083,-131.133"/>
</g>
<!-- tent&#45;&gt;spearman -->
<g id="edge23" class="edge"><title>tent&#45;&gt;spearman</title>
<path fill="none" stroke="#ebc72d" stroke-dasharray="1,5" d="M241.069,-180.34C233.432,-173.997 223.757,-166.76 214.146,-161.74 167.426,-137.337 150.211,-144.999 101.146,-125.74 95.0866,-123.362 88.7539,-120.627 82.6314,-117.847"/>
<polygon fill="#ebc72d" stroke="#ebc72d" points="83.7961,-114.528 73.2529,-113.484 80.8434,-120.875 83.7961,-114.528"/>
</g>
<!-- tent&#45;&gt;stickfighter -->
<g id="edge24" class="edge"><title>tent&#45;&gt;stickfighter</title>
<path fill="none" stroke="#ebc72d" d="M271.735,-180.243C279.337,-174.028 288.834,-166.928 298.146,-161.74 337.591,-139.767 351.243,-142.558 393.146,-125.74 399.673,-123.12 406.562,-120.277 413.267,-117.465"/>
<polygon fill="#ebc72d" stroke="#ebc72d" points="415.046,-120.513 422.897,-113.398 412.323,-114.064 415.046,-120.513"/>
</g>
<!-- tent&#45;&gt;axe_indian -->
<g id="edge20" class="edge"><title>tent&#45;&gt;axe_indian</title>
<path fill="none" stroke="#ebc72d" stroke-dasharray="1,5" d="M255.851,-180.071C255.605,-168.525 255.245,-151.558 254.918,-136.199"/>
<polygon fill="#ebc72d" stroke="#ebc72d" points="258.411,-135.833 254.699,-125.91 251.413,-135.982 258.411,-135.833"/>
</g>
<!-- tent&#45;&gt;archer -->
<g id="edge19" class="edge"><title>tent&#45;&gt;archer</title>
<path fill="none" stroke="#ebc72d" stroke-dasharray="1,5" d="M270.168,-180.383C277.84,-173.727 287.861,-166.202 298.146,-161.74 387.832,-122.83 423.242,-159.075 515.146,-125.74 520.121,-123.936 525.169,-121.565 529.985,-118.991"/>
<polygon fill="#ebc72d" stroke="#ebc72d" points="531.951,-121.899 538.882,-113.885 528.467,-115.827 531.951,-121.899"/>
</g>
<!-- horse_farm -->
<g id="node17" class="node"><title>horse_farm</title>
<g id="a_node17"><a xlink:href="indian_horse_farm_full.html" xlink:title="Horse\nFarm">
<polygon fill="none" stroke="red" points="836.802,-205.283 794.146,-228.381 751.49,-205.283 751.53,-167.91 836.762,-167.91 836.802,-205.283"/>
<text text-anchor="middle" x="794.146" y="-198.753" font-family="Times,serif" font-size="14.00" fill="#ebc72d">Horse</text>
<text text-anchor="middle" x="794.146" y="-183.753" font-family="Times,serif" font-size="14.00" fill="#ebc72d">Farm</text>
</a>
</g>
</g>
<!-- horse_farm&#45;&gt;bull -->
<g id="edge7" class="edge"><title>horse_farm&#45;&gt;bull</title>
<path fill="none" stroke="#ebc72d" d="M804.452,-167.746C809.598,-154.661 815.804,-138.881 820.937,-125.83"/>
<polygon fill="#ebc72d" stroke="#ebc72d" points="824.214,-127.059 824.617,-116.472 817.7,-124.497 824.214,-127.059"/>
</g>
<!-- horse_farm&#45;&gt;horseman -->
<g id="edge8" class="edge"><title>horse_farm&#45;&gt;horseman</title>
<path fill="none" stroke="#ebc72d" d="M830.08,-167.746C850.25,-153.035 875.092,-134.917 894.035,-121.102"/>
<polygon fill="#ebc72d" stroke="#ebc72d" points="896.268,-123.805 902.285,-115.084 892.144,-118.149 896.268,-123.805"/>
</g>
<!-- totem -->
<g id="node19" class="node"><title>totem</title>
<g id="a_node19"><a xlink:href="indian_totem_full.html" xlink:title="Totem">
<polygon fill="none" stroke="red" points="697.804,-200.516 655.146,-212.953 612.488,-200.516 612.528,-180.391 697.764,-180.391 697.804,-200.516"/>
<text text-anchor="middle" x="655.146" y="-191.253" font-family="Times,serif" font-size="14.00" fill="#ebc72d">Totem</text>
</a>
</g>
</g>
<!-- totem&#45;&gt;shaman -->
<g id="edge26" class="edge"><title>totem&#45;&gt;shaman</title>
<path fill="none" stroke="#ebc72d" d="M668.573,-180.071C683.109,-165.043 706.529,-140.829 723.837,-122.934"/>
<polygon fill="#ebc72d" stroke="#ebc72d" points="726.401,-125.318 730.838,-115.697 721.369,-120.452 726.401,-125.318"/>
</g>
<!-- totem&#45;&gt;fire_golem -->
<g id="edge25" class="edge"><title>totem&#45;&gt;fire_golem</title>
<path fill="none" stroke="#ebc72d" stroke-dasharray="1,5" d="M654.408,-180.071C653.795,-168.525 652.893,-151.558 652.077,-136.199"/>
<polygon fill="#ebc72d" stroke="#ebc72d" points="655.556,-135.71 651.53,-125.91 648.565,-136.081 655.556,-135.71"/>
</g>
<!-- worker -->
<g id="node20" class="node"><title>worker</title>
<g id="a_node20"><a xlink:href="indian_worker_full.html" xlink:title="Worker">
<ellipse fill="none" stroke="magenta" cx="514.146" cy="-282.167" rx="38.1938" ry="18"/>
<text text-anchor="middle" x="514.146" y="-278.467" font-family="Times,serif" font-size="14.00" fill="#ebc72d">Worker</text>
</a>
</g>
</g>
<!-- worker&#45;&gt;round_tent -->
<g id="edge32" class="edge"><title>worker&#45;&gt;round_tent</title>
<path fill="none" stroke="#ebc72d" stroke-width="2" d="M476.084,-278.768C418.007,-274.159 304.492,-261.386 214.146,-228.167 208.012,-225.911 201.78,-222.982 195.823,-219.809"/>
<polygon fill="#ebc72d" stroke="#ebc72d" stroke-width="2" points="197.171,-216.551 186.741,-214.686 193.732,-222.648 197.171,-216.551"/>
</g>
<!-- worker&#45;&gt;campfire -->
<g id="edge28" class="edge"><title>worker&#45;&gt;campfire</title>
<path fill="none" stroke="#ebc72d" stroke-width="2" d="M490.396,-267.852C464.026,-253.069 421.391,-229.167 392.589,-213.02"/>
<polygon fill="#ebc72d" stroke="#ebc72d" stroke-width="2" points="394.197,-209.909 383.762,-208.072 390.774,-216.015 394.197,-209.909"/>
</g>
<!-- worker&#45;&gt;reed -->
<g id="edge31" class="edge"><title>worker&#45;&gt;reed</title>
<path fill="none" stroke="#ebc72d" stroke-width="2" d="M523.036,-264.331C529.779,-251.563 539.134,-233.848 546.633,-219.649"/>
<polygon fill="#ebc72d" stroke="#ebc72d" stroke-width="2" points="549.898,-220.961 551.472,-210.484 543.708,-217.692 549.898,-220.961"/>
</g>
<!-- worker&#45;&gt;big_tent -->
<g id="edge27" class="edge"><title>worker&#45;&gt;big_tent</title>
<path fill="none" stroke="#ebc72d" stroke-width="2" d="M505.453,-264.331C500.304,-254.359 493.597,-241.37 487.414,-229.395"/>
<polygon fill="#ebc72d" stroke="#ebc72d" stroke-width="2" points="490.52,-227.782 482.822,-220.502 484.3,-230.993 490.52,-227.782"/>
</g>
<!-- worker&#45;&gt;tent -->
<g id="edge33" class="edge"><title>worker&#45;&gt;tent</title>
<path fill="none" stroke="#ebc72d" stroke-width="2" d="M477.43,-276.857C433.158,-270.62 357.325,-256.567 298.146,-228.167 290.855,-224.668 283.614,-219.768 277.25,-214.844"/>
<polygon fill="#ebc72d" stroke="#ebc72d" stroke-width="2" points="279.146,-211.873 269.193,-208.243 274.71,-217.288 279.146,-211.873"/>
</g>
<!-- worker&#45;&gt;horse_farm -->
<g id="edge29" class="edge"><title>worker&#45;&gt;horse_farm</title>
<path fill="none" stroke="#ebc72d" stroke-width="2" d="M547.185,-273.023C585.824,-263.285 651.576,-246.047 707.146,-228.167 721.087,-223.681 736.101,-218.317 749.667,-213.266"/>
<polygon fill="#ebc72d" stroke="#ebc72d" stroke-width="2" points="751.125,-216.457 759.252,-209.66 748.66,-209.905 751.125,-216.457"/>
</g>
<!-- worker&#45;&gt;totem -->
<g id="edge34" class="edge"><title>worker&#45;&gt;totem</title>
<path fill="none" stroke="#ebc72d" stroke-width="2" d="M537.263,-267.55C555.266,-256.91 580.859,-241.704 603.146,-228.167 611.191,-223.28 619.9,-217.915 627.847,-212.989"/>
<polygon fill="#ebc72d" stroke="#ebc72d" stroke-width="2" points="629.773,-215.913 636.421,-207.663 626.079,-209.967 629.773,-215.913"/>
</g>
<!-- main_teepee -->
<g id="node21" class="node"><title>main_teepee</title>
<g id="a_node21"><a xlink:href="indian_main_teepee_full.html" xlink:title="Main\nTeepee">
<polygon fill="none" stroke="red" points="953.038,-205.283 904.146,-228.381 855.254,-205.283 855.3,-167.91 952.992,-167.91 953.038,-205.283"/>
<text text-anchor="middle" x="904.146" y="-198.753" font-family="Times,serif" font-size="14.00" fill="#ebc72d">Main</text>
<text text-anchor="middle" x="904.146" y="-183.753" font-family="Times,serif" font-size="14.00" fill="#ebc72d">Teepee</text>
</a>
</g>
</g>
<!-- worker&#45;&gt;main_teepee -->
<g id="edge30" class="edge"><title>worker&#45;&gt;main_teepee</title>
<path fill="none" stroke="#ebc72d" stroke-width="2" d="M562.346,-278.726C628.103,-274.228 748.873,-261.772 846.146,-228.167 852.729,-225.892 859.438,-222.895 865.847,-219.643"/>
<polygon fill="#ebc72d" stroke="#ebc72d" stroke-width="2" points="562.028,-275.239 552.276,-279.382 562.483,-282.225 562.028,-275.239"/>
<polygon fill="#ebc72d" stroke="#ebc72d" stroke-width="2" points="867.811,-222.561 874.971,-214.752 864.504,-216.392 867.811,-222.561"/>
</g>
</g>
</svg>
