<?xml version="1.0" encoding="UTF-8" standalone="no"?>
<!DOCTYPE svg PUBLIC "-//W3C//DTD SVG 1.1//EN"
 "http://www.w3.org/Graphics/SVG/1.1/DTD/svg11.dtd">
<!-- Generated by graphviz version 2.38.0 (20140413.2041)
 -->
<!-- Title: test Pages: 1 -->
<svg width="396pt" height="495pt"
 viewBox="0.00 0.00 396.18 495.28" xmlns="http://www.w3.org/2000/svg" xmlns:xlink="http://www.w3.org/1999/xlink">
<g id="graph0" class="graph" transform="scale(1 1) rotate(0) translate(4 491.279)">
<title>test</title>
<polygon fill="#151515" stroke="none" points="-4,4 -4,-491.279 392.176,-491.279 392.176,4 -4,4"/>
<!-- round_tent -->
<g id="node1" class="node"><title>round_tent</title>
<g id="a_node1"><a xlink:href="indian_round_tent_full.html" xlink:title="Round\nTent">
<polygon fill="none" stroke="red" points="276.496,-289.969 230.348,-313.067 184.2,-289.969 184.243,-252.596 276.453,-252.596 276.496,-289.969"/>
<text text-anchor="middle" x="230.348" y="-283.44" font-family="Times,serif" font-size="14.00" fill="#ebc72d">Round</text>
<text text-anchor="middle" x="230.348" y="-268.44" font-family="Times,serif" font-size="14.00" fill="#ebc72d">Tent</text>
</a>
</g>
</g>
<!-- campfire -->
<g id="node2" class="node"><title>campfire</title>
<g id="a_node2"><a xlink:href="indian_campfire_full.html" xlink:title="Campfire">
<polygon fill="none" stroke="red" points="285.107,-182.776 230.348,-195.213 175.589,-182.776 175.64,-162.651 285.056,-162.651 285.107,-182.776"/>
<text text-anchor="middle" x="230.348" y="-173.513" font-family="Times,serif" font-size="14.00" fill="#ebc72d">Campfire</text>
</a>
</g>
</g>
<!-- round_tent&#45;&gt;campfire -->
<g id="edge7" class="edge"><title>round_tent&#45;&gt;campfire</title>
<path fill="none" stroke="#ebc72d" stroke-dasharray="1,5" d="M230.348,-252.516C230.348,-238.159 230.348,-220.359 230.348,-205.781"/>
<polygon fill="#ebc72d" stroke="#ebc72d" points="233.849,-205.371 230.348,-195.371 226.849,-205.371 233.849,-205.371"/>
</g>
<!-- horse_farm -->
<g id="node7" class="node"><title>horse_farm</title>
<g id="a_node7"><a xlink:href="indian_horse_farm_full.html" xlink:title="Horse\nFarm">
<polygon fill="none" stroke="red" points="388.004,-187.543 345.348,-210.641 302.693,-187.543 302.732,-150.17 387.964,-150.17 388.004,-187.543"/>
<text text-anchor="middle" x="345.348" y="-181.013" font-family="Times,serif" font-size="14.00" fill="#ebc72d">Horse</text>
<text text-anchor="middle" x="345.348" y="-166.013" font-family="Times,serif" font-size="14.00" fill="#ebc72d">Farm</text>
</a>
</g>
</g>
<!-- round_tent&#45;&gt;horse_farm -->
<g id="edge8" class="edge"><title>round_tent&#45;&gt;horse_farm</title>
<path fill="none" stroke="#ebc72d" stroke-dasharray="1,5" d="M260.263,-252.516C276.849,-238.032 297.447,-220.044 314.223,-205.394"/>
<polygon fill="#ebc72d" stroke="#ebc72d" points="316.886,-207.715 322.116,-198.501 312.282,-202.442 316.886,-207.715"/>
</g>
<!-- totem -->
<g id="node8" class="node"><title>totem</title>
<g id="a_node8"><a xlink:href="indian_totem_full.html" xlink:title="Totem">
<polygon fill="none" stroke="red" points="190.006,-95.5623 147.348,-108 104.691,-95.5623 104.731,-75.4377 189.966,-75.4377 190.006,-95.5623"/>
<text text-anchor="middle" x="147.348" y="-86.3" font-family="Times,serif" font-size="14.00" fill="#ebc72d">Totem</text>
</a>
</g>
</g>
<!-- campfire&#45;&gt;totem -->
<g id="edge1" class="edge"><title>campfire&#45;&gt;totem</title>
<path fill="none" stroke="#ebc72d" stroke-dasharray="1,5" d="M217.013,-162.522C203.624,-148.776 182.828,-127.426 167.441,-111.628"/>
<polygon fill="#ebc72d" stroke="#ebc72d" points="169.862,-109.097 160.377,-104.376 164.847,-113.982 169.862,-109.097"/>
</g>
<!-- reed -->
<g id="node3" class="node"><title>reed</title>
<g id="a_node3"><a xlink:href="indian_reed_full.html" xlink:title="Reed">
<polygon fill="none" stroke="red" points="70.5459,-95.5623 35.3484,-108 0.150945,-95.5623 0.183798,-75.4377 70.513,-75.4377 70.5459,-95.5623"/>
<text text-anchor="middle" x="35.3484" y="-86.3" font-family="Times,serif" font-size="14.00" fill="#ebc72d">Reed</text>
</a>
</g>
</g>
<!-- beehive -->
<g id="node4" class="node"><title>beehive</title>
<g id="a_node4"><a xlink:href="indian_beehive_full.html" xlink:title="Beehive">
<polygon fill="none" stroke="red" points="140.36,-23.5623 91.3484,-36 42.3369,-23.5623 42.3827,-3.43769 140.314,-3.43769 140.36,-23.5623"/>
<text text-anchor="middle" x="91.3484" y="-14.3" font-family="Times,serif" font-size="14.00" fill="#ebc72d">Beehive</text>
</a>
</g>
</g>
<!-- reed&#45;&gt;beehive -->
<g id="edge6" class="edge"><title>reed&#45;&gt;beehive</title>
<path fill="none" stroke="#ebc72d" stroke-dasharray="1,5" d="M46.4122,-75.1703C54.134,-65.518 64.6084,-52.425 73.502,-41.308"/>
<polygon fill="#ebc72d" stroke="#ebc72d" points="76.4092,-43.2768 79.9231,-33.2816 70.9431,-38.9039 76.4092,-43.2768"/>
</g>
<!-- big_tent -->
<g id="node5" class="node"><title>big_tent</title>
<g id="a_node5"><a xlink:href="indian_big_tent_full.html" xlink:title="Big\nTent">
<polygon fill="none" stroke="red" points="119.02,-289.969 83.3484,-313.067 47.677,-289.969 47.7103,-252.596 118.986,-252.596 119.02,-289.969"/>
<text text-anchor="middle" x="83.3484" y="-283.44" font-family="Times,serif" font-size="14.00" fill="#ebc72d">Big</text>
<text text-anchor="middle" x="83.3484" y="-268.44" font-family="Times,serif" font-size="14.00" fill="#ebc72d">Tent</text>
</a>
</g>
</g>
<!-- tent -->
<g id="node6" class="node"><title>tent</title>
<g id="a_node6"><a xlink:href="indian_tent_full.html" xlink:title="Tent">
<polygon fill="none" stroke="red" points="180.225,-372.415 147.348,-384.853 114.472,-372.415 114.502,-352.291 180.194,-352.291 180.225,-372.415"/>
<text text-anchor="middle" x="147.348" y="-363.153" font-family="Times,serif" font-size="14.00" fill="#ebc72d">Tent</text>
</a>
</g>
</g>
<!-- tent&#45;&gt;round_tent -->
<g id="edge10" class="edge"><title>tent&#45;&gt;round_tent</title>
<path fill="none" stroke="#ebc72d" stroke-dasharray="1,5" d="M160.684,-352.162C171.766,-340.784 187.922,-324.197 201.886,-309.861"/>
<polygon fill="#ebc72d" stroke="#ebc72d" points="204.48,-312.214 208.95,-302.608 199.466,-307.33 204.48,-312.214"/>
</g>
<!-- tent&#45;&gt;big_tent -->
<g id="edge9" class="edge"><title>tent&#45;&gt;big_tent</title>
<path fill="none" stroke="#ebc72d" stroke-dasharray="1,5" d="M137.066,-352.162C128.677,-340.993 116.518,-324.804 105.889,-310.652"/>
<polygon fill="#ebc72d" stroke="#ebc72d" points="108.652,-308.502 99.8482,-302.608 103.055,-312.706 108.652,-308.502"/>
</g>
<!-- tent&#45;&gt;totem -->
<g id="edge11" class="edge"><title>tent&#45;&gt;totem</title>
<path fill="none" stroke="#ebc72d" stroke-dasharray="1,5" d="M147.348,-352.223C147.348,-309.28 147.348,-176.22 147.348,-118.348"/>
<polygon fill="#ebc72d" stroke="#ebc72d" points="150.849,-118.14 147.348,-108.14 143.849,-118.14 150.849,-118.14"/>
</g>
<!-- totem&#45;&gt;beehive -->
<g id="edge12" class="edge"><title>totem&#45;&gt;beehive</title>
<path fill="none" stroke="#ebc72d" stroke-dasharray="1,5" d="M136.285,-75.1703C128.563,-65.518 118.088,-52.425 109.195,-41.308"/>
<polygon fill="#ebc72d" stroke="#ebc72d" points="111.754,-38.9039 102.774,-33.2816 106.288,-43.2768 111.754,-38.9039"/>
</g>
<!-- main_teepee -->
<g id="node9" class="node"><title>main_teepee</title>
<g id="a_node9"><a xlink:href="indian_main_teepee_full.html" xlink:title="Main\nTeepee">
<polygon fill="none" stroke="red" points="196.24,-464.396 147.348,-487.494 98.4568,-464.396 98.5024,-427.022 196.194,-427.022 196.24,-464.396"/>
<text text-anchor="middle" x="147.348" y="-457.866" font-family="Times,serif" font-size="14.00" fill="#ebc72d">Main</text>
<text text-anchor="middle" x="147.348" y="-442.866" font-family="Times,serif" font-size="14.00" fill="#ebc72d">Teepee</text>
</a>
</g>
</g>
<!-- main_teepee&#45;&gt;reed -->
<g id="edge4" class="edge"><title>main_teepee&#45;&gt;reed</title>
<path fill="none" stroke="#ebc72d" stroke-dasharray="1,5" d="M98.3457,-437.941C67.1844,-425.113 30.6459,-403.059 19.3484,-367.853"/>
<path fill="none" stroke="#ebc72d" stroke-dasharray="1,5" d="M19.3484,-365.853C-8.95279,-277.658 14.7594,-165.496 27.9573,-116.186"/>
<polygon fill="#ebc72d" stroke="#ebc72d" points="31.3767,-116.952 30.6679,-106.381 24.6298,-115.086 31.3767,-116.952"/>
</g>
<!-- main_teepee&#45;&gt;big_tent -->
<g id="edge2" class="edge"><title>main_teepee&#45;&gt;big_tent</title>
<path fill="none" stroke="#ebc72d" stroke-dasharray="1,5" d="M19.3484,-365.853C11.5973,-341.698 30.5073,-318.974 49.7433,-303.076"/>
<polygon fill="#ebc72d" stroke="#ebc72d" points="51.9154,-305.821 57.6439,-296.908 47.6077,-300.303 51.9154,-305.821"/>
</g>
<!-- main_teepee&#45;&gt;tent -->
<g id="edge5" class="edge"><title>main_teepee&#45;&gt;tent</title>
<path fill="none" stroke="#ebc72d" stroke-dasharray="1,5" d="M147.348,-426.571C147.348,-416.597 147.348,-405.241 147.348,-395.191"/>
<polygon fill="#ebc72d" stroke="#ebc72d" points="150.849,-394.926 147.348,-384.926 143.849,-394.926 150.849,-394.926"/>
</g>
<!-- main_teepee&#45;&gt;horse_farm -->
<g id="edge3" class="edge"><title>main_teepee&#45;&gt;horse_farm</title>
<path fill="none" stroke="#ebc72d" stroke-dasharray="1,5" d="M178.884,-427.008C209.221,-400.674 254.856,-357.584 285.348,-312.853 306.108,-282.4 322.499,-243.599 332.867,-215.48"/>
<polygon fill="#ebc72d" stroke="#ebc72d" points="336.182,-216.606 336.281,-206.011 329.597,-214.232 336.182,-216.606"/>
</g>
</g>
</svg>
