<?xml version="1.0" encoding="UTF-8" standalone="no"?>
<!DOCTYPE svg PUBLIC "-//W3C//DTD SVG 1.1//EN"
 "http://www.w3.org/Graphics/SVG/1.1/DTD/svg11.dtd">
<!-- Generated by graphviz version 2.38.0 (20140413.2041)
 -->
<!-- Title: test Pages: 1 -->
<svg width="1049pt" height="635pt"
 viewBox="0.00 0.00 1048.83 634.59" xmlns="http://www.w3.org/2000/svg" xmlns:xlink="http://www.w3.org/1999/xlink">
<g id="graph0" class="graph" transform="scale(1 1) rotate(0) translate(4 630.593)">
<title>test</title>
<polygon fill="#151515" stroke="none" points="-4,4 -4,-630.593 1044.83,-630.593 1044.83,4 -4,4"/>
<!-- round_tent -->
<g id="node1" class="node"><title>round_tent</title>
<g id="a_node1"><a xlink:href="indian_round_tent_full.html" xlink:title="Round\nTent">
<polygon fill="none" stroke="red" points="639.978,-429.283 593.83,-452.381 547.682,-429.283 547.725,-391.91 639.935,-391.91 639.978,-429.283"/>
<text text-anchor="middle" x="593.83" y="-422.753" font-family="Times,serif" font-size="14.00" fill="#ebc72d">Round</text>
<text text-anchor="middle" x="593.83" y="-407.753" font-family="Times,serif" font-size="14.00" fill="#ebc72d">Tent</text>
</a>
</g>
</g>
<!-- axe_thrower -->
<g id="node3" class="node"><title>axe_thrower</title>
<g id="a_node3"><a xlink:href="indian_axe_thrower_full.html" xlink:title="Axe\nThrower">
<ellipse fill="none" stroke="magenta" cx="483.83" cy="-98.8701" rx="44.5955" ry="26.7407"/>
<text text-anchor="middle" x="483.83" y="-102.67" font-family="Times,serif" font-size="14.00" fill="#ebc72d">Axe</text>
<text text-anchor="middle" x="483.83" y="-87.6701" font-family="Times,serif" font-size="14.00" fill="#ebc72d">Thrower</text>
</a>
</g>
</g>
<!-- round_tent&#45;&gt;axe_thrower -->
<g id="edge22" class="edge"><title>round_tent&#45;&gt;axe_thrower</title>
<path fill="none" stroke="#ebc72d" d="M716.83,-310.74C718.077,-292.296 710.971,-286.741 697.83,-273.74 672.396,-248.578 651.128,-263.038 625.83,-237.74 599.126,-211.036 613.541,-189.401 587.83,-161.74 571.531,-144.205 549.135,-130.022 529.301,-119.681"/>
<polygon fill="#ebc72d" stroke="#ebc72d" points="530.611,-116.422 520.104,-115.059 527.467,-122.677 530.611,-116.422"/>
</g>
<!-- fire_archer -->
<g id="node5" class="node"><title>fire_archer</title>
<g id="a_node5"><a xlink:href="indian_fire_archer_full.html" xlink:title="Fire\nArcher">
<ellipse fill="none" stroke="magenta" cx="540.83" cy="-199.74" rx="38.3684" ry="26.7407"/>
<text text-anchor="middle" x="540.83" y="-203.54" font-family="Times,serif" font-size="14.00" fill="#ebc72d">Fire</text>
<text text-anchor="middle" x="540.83" y="-188.54" font-family="Times,serif" font-size="14.00" fill="#ebc72d">Archer</text>
</a>
</g>
</g>
<!-- round_tent&#45;&gt;fire_archer -->
<g id="edge24" class="edge"><title>round_tent&#45;&gt;fire_archer</title>
<path fill="none" stroke="#ebc72d" d="M640.068,-399.378C673.661,-382.511 713.762,-353.934 716.83,-312.74"/>
<path fill="none" stroke="#ebc72d" d="M716.83,-310.74C721.58,-246.965 649.721,-266.952 592.83,-237.74 586.539,-234.51 580.152,-230.59 574.109,-226.526"/>
<polygon fill="#ebc72d" stroke="#ebc72d" points="575.75,-223.402 565.551,-220.531 571.733,-229.135 575.75,-223.402"/>
</g>
<!-- campfire -->
<g id="node6" class="node"><title>campfire</title>
<g id="a_node6"><a xlink:href="indian_campfire_full.html" xlink:title="Campfire">
<polygon fill="none" stroke="red" points="282.589,-317.302 227.83,-329.74 173.071,-317.302 173.122,-297.178 282.538,-297.178 282.589,-317.302"/>
<text text-anchor="middle" x="227.83" y="-308.04" font-family="Times,serif" font-size="14.00" fill="#ebc72d">Campfire</text>
</a>
</g>
</g>
<!-- round_tent&#45;&gt;campfire -->
<g id="edge23" class="edge"><title>round_tent&#45;&gt;campfire</title>
<path fill="none" stroke="#ebc72d" stroke-dasharray="1,5" d="M547.672,-407.435C494.682,-395.035 405.345,-373.134 329.83,-349.74 308.072,-342.999 284.111,-334.371 264.882,-327.143"/>
<polygon fill="#ebc72d" stroke="#ebc72d" points="265.887,-323.781 255.295,-323.508 263.405,-330.326 265.887,-323.781"/>
</g>
<!-- spearman -->
<g id="node11" class="node"><title>spearman</title>
<g id="a_node11"><a xlink:href="indian_spearman_full.html" xlink:title="Spearman">
<ellipse fill="none" stroke="magenta" cx="642.83" cy="-311.74" rx="46.2923" ry="18"/>
<text text-anchor="middle" x="642.83" y="-308.04" font-family="Times,serif" font-size="14.00" fill="#ebc72d">Spearman</text>
</a>
</g>
</g>
<!-- round_tent&#45;&gt;spearman -->
<g id="edge26" class="edge"><title>round_tent&#45;&gt;spearman</title>
<path fill="none" stroke="#ebc72d" d="M606.068,-391.675C613.58,-375.545 623.164,-354.967 630.663,-338.866"/>
<polygon fill="#ebc72d" stroke="#ebc72d" points="633.976,-340.041 635.025,-329.499 627.63,-337.086 633.976,-340.041"/>
</g>
<!-- axe_indian -->
<g id="node15" class="node"><title>axe_indian</title>
<g id="a_node15"><a xlink:href="indian_axe_indian_full.html" xlink:title="Axe\nIndian">
<ellipse fill="none" stroke="magenta" cx="655.83" cy="-98.8701" rx="36.125" ry="26.7407"/>
<text text-anchor="middle" x="655.83" y="-102.67" font-family="Times,serif" font-size="14.00" fill="#ebc72d">Axe</text>
<text text-anchor="middle" x="655.83" y="-87.6701" font-family="Times,serif" font-size="14.00" fill="#ebc72d">Indian</text>
</a>
</g>
</g>
<!-- round_tent&#45;&gt;axe_indian -->
<g id="edge21" class="edge"><title>round_tent&#45;&gt;axe_indian</title>
<path fill="none" stroke="#ebc72d" d="M716.83,-310.74C721.788,-244.166 721.448,-224.181 697.83,-161.74 693.68,-150.77 687.229,-139.837 680.617,-130.282"/>
<polygon fill="#ebc72d" stroke="#ebc72d" points="683.266,-127.972 674.561,-121.932 677.599,-132.082 683.266,-127.972"/>
</g>
<!-- horse_farm -->
<g id="node17" class="node"><title>horse_farm</title>
<g id="a_node17"><a xlink:href="indian_horse_farm_full.html" xlink:title="Horse\nFarm">
<polygon fill="none" stroke="red" points="918.486,-322.07 875.83,-345.168 833.174,-322.07 833.214,-284.696 918.446,-284.696 918.486,-322.07"/>
<text text-anchor="middle" x="875.83" y="-315.54" font-family="Times,serif" font-size="14.00" fill="#ebc72d">Horse</text>
<text text-anchor="middle" x="875.83" y="-300.54" font-family="Times,serif" font-size="14.00" fill="#ebc72d">Farm</text>
</a>
</g>
</g>
<!-- round_tent&#45;&gt;horse_farm -->
<g id="edge25" class="edge"><title>round_tent&#45;&gt;horse_farm</title>
<path fill="none" stroke="#ebc72d" stroke-dasharray="1,5" d="M639.974,-406.197C697.25,-391.272 791.349,-365.566 823.83,-349.74 830.472,-346.504 837.183,-342.443 843.475,-338.206"/>
<polygon fill="#ebc72d" stroke="#ebc72d" points="845.587,-341 851.75,-332.382 841.558,-335.275 845.587,-341"/>
</g>
<!-- training_field -->
<g id="node25" class="node"><title>training_field</title>
<g id="a_node25"><a xlink:href="indian_training_field_full.html" xlink:title="Training\nField">
<polygon fill="none" stroke="green" points="578.961,-349.74 475.352,-349.74 448.698,-273.74 552.308,-273.74 578.961,-349.74"/>
<text text-anchor="middle" x="513.83" y="-315.54" font-family="Times,serif" font-size="14.00" fill="#ebc72d">Training</text>
<text text-anchor="middle" x="513.83" y="-300.54" font-family="Times,serif" font-size="14.00" fill="#ebc72d">Field</text>
</a>
</g>
</g>
<!-- round_tent&#45;&gt;training_field -->
<g id="edge27" class="edge"><title>round_tent&#45;&gt;training_field</title>
<path fill="none" stroke="#ebc72d" d="M573.849,-391.675C566.103,-381.488 557.007,-369.525 548.272,-358.037"/>
<polygon fill="#ebc72d" stroke="#ebc72d" points="550.839,-355.63 542,-349.788 545.266,-359.867 550.839,-355.63"/>
</g>
<!-- bull -->
<g id="node2" class="node"><title>bull</title>
<g id="a_node2"><a xlink:href="indian_bull_full.html" xlink:title="Bull">
<ellipse fill="none" stroke="magenta" cx="661.83" cy="-199.74" rx="27" ry="18"/>
<text text-anchor="middle" x="661.83" y="-196.04" font-family="Times,serif" font-size="14.00" fill="#ebc72d">Bull</text>
</a>
</g>
</g>
<!-- horseman -->
<g id="node4" class="node"><title>horseman</title>
<g id="a_node4"><a xlink:href="indian_horseman_full.html" xlink:title="Horseman">
<ellipse fill="none" stroke="magenta" cx="794.83" cy="-98.8701" rx="47.3916" ry="18"/>
<text text-anchor="middle" x="794.83" y="-95.1701" font-family="Times,serif" font-size="14.00" fill="#ebc72d">Horseman</text>
</a>
</g>
</g>
<!-- campfire&#45;&gt;fire_archer -->
<g id="edge5" class="edge"><title>campfire&#45;&gt;fire_archer</title>
<path fill="none" stroke="#ebc72d" stroke-dasharray="1,5" d="M249.095,-297.095C262.348,-289.17 280.022,-279.619 296.83,-273.74 380.844,-244.354 412.699,-274.344 493.83,-237.74 499.409,-235.223 504.91,-231.904 510.074,-228.285"/>
<polygon fill="#ebc72d" stroke="#ebc72d" points="512.526,-230.819 518.399,-222.001 508.309,-225.232 512.526,-230.819"/>
</g>
<!-- fire_golem -->
<g id="node13" class="node"><title>fire_golem</title>
<g id="a_node13"><a xlink:href="indian_fire_golem_full.html" xlink:title="Fire\nGolem">
<ellipse fill="none" stroke="magenta" cx="323.83" cy="-98.8701" rx="38.3684" ry="26.7407"/>
<text text-anchor="middle" x="323.83" y="-102.67" font-family="Times,serif" font-size="14.00" fill="#ebc72d">Fire</text>
<text text-anchor="middle" x="323.83" y="-87.6701" font-family="Times,serif" font-size="14.00" fill="#ebc72d">Golem</text>
</a>
</g>
</g>
<!-- campfire&#45;&gt;fire_golem -->
<g id="edge6" class="edge"><title>campfire&#45;&gt;fire_golem</title>
<path fill="none" stroke="#ebc72d" d="M251.764,-297.134C279.165,-280.992 321.368,-254.202 329.83,-237.74 346.241,-205.813 341.386,-164.03 334.537,-134.865"/>
<polygon fill="#ebc72d" stroke="#ebc72d" points="337.915,-133.944 332.063,-125.112 331.13,-135.666 337.915,-133.944"/>
</g>
<!-- totem -->
<g id="node19" class="node"><title>totem</title>
<g id="a_node19"><a xlink:href="indian_totem_full.html" xlink:title="Totem">
<polygon fill="none" stroke="red" points="116.488,-205.302 73.8299,-217.74 31.1722,-205.302 31.212,-185.178 116.448,-185.178 116.488,-205.302"/>
<text text-anchor="middle" x="73.8299" y="-196.04" font-family="Times,serif" font-size="14.00" fill="#ebc72d">Totem</text>
</a>
</g>
</g>
<!-- campfire&#45;&gt;totem -->
<g id="edge8" class="edge"><title>campfire&#45;&gt;totem</title>
<path fill="none" stroke="#ebc72d" stroke-dasharray="1,5" d="M208.637,-297.031C181.044,-277.322 130.112,-240.941 99.367,-218.981"/>
<polygon fill="#ebc72d" stroke="#ebc72d" points="101.066,-215.893 90.8944,-212.929 96.9974,-221.59 101.066,-215.893"/>
</g>
<!-- iron -->
<g id="node22" class="node"><title>iron</title>
<g id="a_node22"><a xlink:href="indian_iron_full.html" xlink:title="Iron">
<polygon fill="none" stroke="green" points="485.16,-217.74 425.776,-217.74 410.5,-181.74 469.884,-181.74 485.16,-217.74"/>
<text text-anchor="middle" x="447.83" y="-196.04" font-family="Times,serif" font-size="14.00" fill="#ebc72d">Iron</text>
</a>
</g>
</g>
<!-- campfire&#45;&gt;iron -->
<g id="edge7" class="edge"><title>campfire&#45;&gt;iron</title>
<path fill="none" stroke="#ebc72d" d="M252.609,-297.129C265.691,-290.025 282.054,-281.269 296.83,-273.74 336.745,-253.401 383.221,-231.143 413.956,-216.619"/>
<polygon fill="#ebc72d" stroke="#ebc72d" points="415.801,-219.618 423.353,-212.187 412.816,-213.287 415.801,-219.618"/>
</g>
<!-- advanced_iron -->
<g id="node23" class="node"><title>advanced_iron</title>
<g id="a_node23"><a xlink:href="indian_advanced_iron_full.html" xlink:title="Advanced\nIron">
<polygon fill="none" stroke="green" points="320.549,-237.74 203.278,-237.74 173.111,-161.74 290.381,-161.74 320.549,-237.74"/>
<text text-anchor="middle" x="246.83" y="-203.54" font-family="Times,serif" font-size="14.00" fill="#ebc72d">Advanced</text>
<text text-anchor="middle" x="246.83" y="-188.54" font-family="Times,serif" font-size="14.00" fill="#ebc72d">Iron</text>
</a>
</g>
</g>
<!-- campfire&#45;&gt;advanced_iron -->
<g id="edge4" class="edge"><title>campfire&#45;&gt;advanced_iron</title>
<path fill="none" stroke="#ebc72d" d="M230.236,-296.809C232.356,-284.534 235.572,-265.918 238.61,-248.331"/>
<polygon fill="#ebc72d" stroke="#ebc72d" points="242.115,-248.601 240.368,-238.151 235.217,-247.41 242.115,-248.601"/>
</g>
<!-- shaman -->
<g id="node7" class="node"><title>shaman</title>
<g id="a_node7"><a xlink:href="indian_shaman_full.html" xlink:title="Shaman">
<ellipse fill="none" stroke="magenta" cx="227.83" cy="-98.8701" rx="39.7935" ry="18"/>
<text text-anchor="middle" x="227.83" y="-95.1701" font-family="Times,serif" font-size="14.00" fill="#ebc72d">Shaman</text>
</a>
</g>
</g>
<!-- beehive -->
<g id="node9" class="node"><title>beehive</title>
<g id="a_node9"><a xlink:href="indian_beehive_full.html" xlink:title="Beehive">
<polygon fill="none" stroke="red" points="103.841,-23.5623 54.8299,-36 5.81839,-23.5623 5.86414,-3.43769 103.796,-3.43769 103.841,-23.5623"/>
<text text-anchor="middle" x="54.8299" y="-14.3" font-family="Times,serif" font-size="14.00" fill="#ebc72d">Beehive</text>
</a>
</g>
</g>
<!-- shaman&#45;&gt;beehive -->
<g id="edge28" class="edge"><title>shaman&#45;&gt;beehive</title>
<path fill="none" stroke="#ebc72d" stroke-width="2" d="M203.638,-84.2636C196.088,-80.1714 187.681,-75.77 179.83,-72 150.379,-57.8579 116.177,-43.4935 91.002,-33.2929"/>
<polygon fill="#ebc72d" stroke="#ebc72d" stroke-width="2" points="92.0694,-29.9496 81.4858,-29.4611 89.4547,-36.443 92.0694,-29.9496"/>
</g>
<!-- thunderbird -->
<g id="node18" class="node"><title>thunderbird</title>
<g id="a_node18"><a xlink:href="indian_thunderbird_full.html" xlink:title="Thunderbird">
<ellipse fill="none" stroke="magenta" cx="227.83" cy="-18" rx="54.6905" ry="18"/>
<text text-anchor="middle" x="227.83" y="-14.3" font-family="Times,serif" font-size="14.00" fill="#ebc72d">Thunderbird</text>
</a>
</g>
</g>
<!-- shaman&#45;&gt;thunderbird -->
<g id="edge29" class="edge"><title>shaman&#45;&gt;thunderbird</title>
<path fill="none" stroke="#ebc72d" d="M227.83,-80.7564C227.83,-70.7312 227.83,-57.8362 227.83,-46.4246"/>
<polygon fill="#ebc72d" stroke="#ebc72d" points="231.33,-46.0802 227.83,-36.0802 224.33,-46.0803 231.33,-46.0802"/>
</g>
<!-- reed -->
<g id="node8" class="node"><title>reed</title>
<g id="a_node8"><a xlink:href="indian_reed_full.html" xlink:title="Reed">
<polygon fill="none" stroke="red" points="346.027,-424.516 310.83,-436.953 275.632,-424.516 275.665,-404.391 345.994,-404.391 346.027,-424.516"/>
<text text-anchor="middle" x="310.83" y="-415.253" font-family="Times,serif" font-size="14.00" fill="#ebc72d">Reed</text>
</a>
</g>
</g>
<!-- reed&#45;&gt;fire_archer -->
<g id="edge19" class="edge"><title>reed&#45;&gt;fire_archer</title>
<path fill="none" stroke="#ebc72d" stroke-dasharray="1,5" d="M308.03,-404.343C303.068,-376.03 296.18,-310.382 329.83,-273.74 380.305,-218.776 426.361,-269.627 493.83,-237.74 499.364,-235.125 504.84,-231.753 509.993,-228.111"/>
<polygon fill="#ebc72d" stroke="#ebc72d" points="512.452,-230.639 518.312,-221.813 508.227,-225.058 512.452,-230.639"/>
</g>
<!-- reed&#45;&gt;beehive -->
<g id="edge17" class="edge"><title>reed&#45;&gt;beehive</title>
<path fill="none" stroke="#ebc72d" stroke-dasharray="1,5" d="M281.634,-404.289C269.35,-398.548 254.9,-391.807 241.83,-385.74 207.198,-369.664 191.389,-376.165 163.83,-349.74 150.487,-336.946 157.718,-325.992 144.83,-312.74"/>
<path fill="none" stroke="#ebc72d" stroke-dasharray="1,5" d="M144.83,-310.74C100.509,-265.169 53.2831,-292.983 21.8299,-237.74 -14.617,-173.726 1.5826,-142.825 21.8299,-72 24.9135,-61.2135 30.8978,-50.4857 36.9332,-41.5323"/>
<polygon fill="#ebc72d" stroke="#ebc72d" points="39.9,-43.401 42.8802,-33.2339 34.2102,-39.3234 39.9,-43.401"/>
</g>
<!-- reed&#45;&gt;fire_golem -->
<g id="edge20" class="edge"><title>reed&#45;&gt;fire_golem</title>
<path fill="none" stroke="#ebc72d" stroke-dasharray="1,5" d="M144.83,-310.74C121.327,-287.038 142.464,-187.386 163.83,-161.74 197.568,-121.243 228.401,-146.547 276.83,-125.74 279.868,-124.435 282.967,-122.994 286.052,-121.481"/>
<polygon fill="#ebc72d" stroke="#ebc72d" points="287.895,-124.469 295.189,-116.784 284.695,-118.243 287.895,-124.469"/>
</g>
<!-- archer -->
<g id="node16" class="node"><title>archer</title>
<g id="a_node16"><a xlink:href="indian_archer_full.html" xlink:title="Archer">
<ellipse fill="none" stroke="magenta" cx="779.83" cy="-311.74" rx="35.194" ry="18"/>
<text text-anchor="middle" x="779.83" y="-308.04" font-family="Times,serif" font-size="14.00" fill="#ebc72d">Archer</text>
</a>
</g>
</g>
<!-- reed&#45;&gt;archer -->
<g id="edge16" class="edge"><title>reed&#45;&gt;archer</title>
<path fill="none" stroke="#ebc72d" stroke-dasharray="1,5" d="M346.205,-413.204C440.931,-400.347 695.55,-364.818 730.83,-349.74 739.566,-346.006 748.158,-340.388 755.648,-334.65"/>
<polygon fill="#ebc72d" stroke="#ebc72d" points="758.322,-336.986 763.876,-327.964 753.908,-331.553 758.322,-336.986"/>
</g>
<!-- bull_food -->
<g id="node27" class="node"><title>bull_food</title>
<g id="a_node27"><a xlink:href="indian_bull_food_full.html" xlink:title="Bull\nFood">
<polygon fill="none" stroke="green" points="430.564,-349.74 357.811,-349.74 339.095,-273.74 411.849,-273.74 430.564,-349.74"/>
<text text-anchor="middle" x="384.83" y="-315.54" font-family="Times,serif" font-size="14.00" fill="#ebc72d">Bull</text>
<text text-anchor="middle" x="384.83" y="-300.54" font-family="Times,serif" font-size="14.00" fill="#ebc72d">Food</text>
</a>
</g>
</g>
<!-- reed&#45;&gt;bull_food -->
<g id="edge18" class="edge"><title>reed&#45;&gt;bull_food</title>
<path fill="none" stroke="#ebc72d" d="M320.504,-404.199C328.711,-392.53 340.971,-375.099 352.593,-358.575"/>
<polygon fill="#ebc72d" stroke="#ebc72d" points="355.697,-360.245 358.587,-350.052 349.971,-356.218 355.697,-360.245"/>
</g>
<!-- big_tent -->
<g id="node10" class="node"><title>big_tent</title>
<g id="a_node10"><a xlink:href="indian_big_tent_full.html" xlink:title="Big\nTent">
<polygon fill="none" stroke="red" points="831.501,-429.283 795.83,-452.381 760.159,-429.283 760.192,-391.91 831.468,-391.91 831.501,-429.283"/>
<text text-anchor="middle" x="795.83" y="-422.753" font-family="Times,serif" font-size="14.00" fill="#ebc72d">Big</text>
<text text-anchor="middle" x="795.83" y="-407.753" font-family="Times,serif" font-size="14.00" fill="#ebc72d">Tent</text>
</a>
</g>
</g>
<!-- stickfighter -->
<g id="node12" class="node"><title>stickfighter</title>
<g id="a_node12"><a xlink:href="indian_stickfighter_full.html" xlink:title="Stickfighter">
<ellipse fill="none" stroke="magenta" cx="988.83" cy="-311.74" rx="51.9908" ry="18"/>
<text text-anchor="middle" x="988.83" y="-308.04" font-family="Times,serif" font-size="14.00" fill="#ebc72d">Stickfighter</text>
</a>
</g>
</g>
<!-- big_tent&#45;&gt;stickfighter -->
<g id="edge2" class="edge"><title>big_tent&#45;&gt;stickfighter</title>
<path fill="none" stroke="#ebc72d" d="M831.756,-400.22C858.5,-386.819 895.768,-367.72 927.83,-349.74 937.067,-344.56 946.938,-338.713 955.989,-333.222"/>
<polygon fill="#ebc72d" stroke="#ebc72d" points="958.008,-336.09 964.714,-327.888 954.356,-330.118 958.008,-336.09"/>
</g>
<!-- big_tent&#45;&gt;archer -->
<g id="edge1" class="edge"><title>big_tent&#45;&gt;archer</title>
<path fill="none" stroke="#ebc72d" d="M791.834,-391.675C789.442,-375.949 786.407,-355.993 783.988,-340.081"/>
<polygon fill="#ebc72d" stroke="#ebc72d" points="787.39,-339.174 782.426,-329.814 780.47,-340.226 787.39,-339.174"/>
</g>
<!-- tent -->
<g id="node14" class="node"><title>tent</title>
<g id="a_node14"><a xlink:href="indian_tent_full.html" xlink:title="Tent">
<polygon fill="none" stroke="red" points="796.707,-526.942 763.83,-539.38 730.953,-526.942 730.984,-506.817 796.676,-506.817 796.707,-526.942"/>
<text text-anchor="middle" x="763.83" y="-517.68" font-family="Times,serif" font-size="14.00" fill="#ebc72d">Tent</text>
</a>
</g>
</g>
<!-- tent&#45;&gt;round_tent -->
<g id="edge32" class="edge"><title>tent&#45;&gt;round_tent</title>
<path fill="none" stroke="#ebc72d" stroke-dasharray="1,5" d="M740.549,-506.626C712.786,-490.226 665.966,-462.567 632.687,-442.908"/>
<polygon fill="#ebc72d" stroke="#ebc72d" points="634.076,-439.664 623.686,-437.591 630.516,-445.691 634.076,-439.664"/>
</g>
<!-- tent&#45;&gt;big_tent -->
<g id="edge31" class="edge"><title>tent&#45;&gt;big_tent</title>
<path fill="none" stroke="#ebc72d" stroke-dasharray="1,5" d="M768.279,-506.416C772.356,-493.621 778.576,-474.102 784.075,-456.845"/>
<polygon fill="#ebc72d" stroke="#ebc72d" points="787.506,-457.605 787.207,-447.014 780.836,-455.48 787.506,-457.605"/>
</g>
<!-- tent&#45;&gt;stickfighter -->
<g id="edge33" class="edge"><title>tent&#45;&gt;stickfighter</title>
<path fill="none" stroke="#ebc72d" d="M756.839,-506.721C744.333,-480.149 722.004,-421.019 750.83,-385.74 801.624,-323.575 853.071,-378.99 927.83,-349.74 938.407,-345.602 949.233,-339.681 958.772,-333.786"/>
<polygon fill="#ebc72d" stroke="#ebc72d" points="960.949,-336.548 967.474,-328.2 957.168,-330.657 960.949,-336.548"/>
</g>
<!-- horse_farm&#45;&gt;bull -->
<g id="edge9" class="edge"><title>horse_farm&#45;&gt;bull</title>
<path fill="none" stroke="#ebc72d" d="M840.916,-284.51C835.319,-280.712 829.5,-276.993 823.83,-273.74 780.788,-249.045 727.875,-226.562 694.49,-213.261"/>
<polygon fill="#ebc72d" stroke="#ebc72d" points="695.375,-209.848 684.788,-209.436 692.808,-216.36 695.375,-209.848"/>
</g>
<!-- horse_farm&#45;&gt;horseman -->
<g id="edge10" class="edge"><title>horse_farm&#45;&gt;horseman</title>
<path fill="none" stroke="#ebc72d" d="M847.228,-284.585C834.94,-271.7 821.636,-255.196 813.83,-237.74 797.824,-201.948 794.475,-156.137 794.169,-127.388"/>
<polygon fill="#ebc72d" stroke="#ebc72d" points="797.669,-127.266 794.18,-117.262 790.669,-127.258 797.669,-127.266"/>
</g>
<!-- stables -->
<g id="node24" class="node"><title>stables</title>
<g id="a_node24"><a xlink:href="indian_stables_full.html" xlink:title="Stables">
<polygon fill="none" stroke="green" points="929.059,-217.74 844.383,-217.74 822.6,-181.74 907.277,-181.74 929.059,-217.74"/>
<text text-anchor="middle" x="875.83" y="-196.04" font-family="Times,serif" font-size="14.00" fill="#ebc72d">Stables</text>
</a>
</g>
</g>
<!-- horse_farm&#45;&gt;stables -->
<g id="edge11" class="edge"><title>horse_farm&#45;&gt;stables</title>
<path fill="none" stroke="#ebc72d" d="M875.83,-284.672C875.83,-267.625 875.83,-245.395 875.83,-228.096"/>
<polygon fill="#ebc72d" stroke="#ebc72d" points="879.33,-228.052 875.83,-218.052 872.33,-228.052 879.33,-228.052"/>
</g>
<!-- totem&#45;&gt;shaman -->
<g id="edge36" class="edge"><title>totem&#45;&gt;shaman</title>
<path fill="none" stroke="#ebc72d" d="M94.6501,-185.169C105.434,-178.153 118.825,-169.465 130.83,-161.74 152.871,-147.557 177.802,-131.659 196.869,-119.53"/>
<polygon fill="#ebc72d" stroke="#ebc72d" points="198.891,-122.391 205.452,-114.072 195.135,-116.484 198.891,-122.391"/>
</g>
<!-- totem&#45;&gt;fire_golem -->
<g id="edge34" class="edge"><title>totem&#45;&gt;fire_golem</title>
<path fill="none" stroke="#ebc72d" stroke-dasharray="1,5" d="M91.434,-185.104C102.277,-177.282 116.756,-167.836 130.83,-161.74 192.156,-135.176 214.58,-150.061 276.83,-125.74 280.051,-124.482 283.326,-123.044 286.572,-121.506"/>
<polygon fill="#ebc72d" stroke="#ebc72d" points="288.218,-124.596 295.573,-116.97 285.067,-118.345 288.218,-124.596"/>
</g>
<!-- petroleum -->
<g id="node26" class="node"><title>petroleum</title>
<g id="a_node26"><a xlink:href="indian_petroleum_full.html" xlink:title="Petroleum">
<polygon fill="none" stroke="green" points="170.459,-116.87 59.6946,-116.87 31.2007,-80.8701 141.965,-80.8701 170.459,-116.87"/>
<text text-anchor="middle" x="100.83" y="-95.1701" font-family="Times,serif" font-size="14.00" fill="#ebc72d">Petroleum</text>
</a>
</g>
</g>
<!-- totem&#45;&gt;petroleum -->
<g id="edge35" class="edge"><title>totem&#45;&gt;petroleum</title>
<path fill="none" stroke="#ebc72d" d="M77.5841,-184.993C81.6676,-170.04 88.2983,-145.759 93.4351,-126.949"/>
<polygon fill="#ebc72d" stroke="#ebc72d" points="96.8514,-127.724 96.1095,-117.156 90.0986,-125.88 96.8514,-127.724"/>
</g>
<!-- worker -->
<g id="node20" class="node"><title>worker</title>
<g id="a_node20"><a xlink:href="indian_worker_full.html" xlink:title="Worker">
<ellipse fill="none" stroke="magenta" cx="811.83" cy="-608.593" rx="38.1938" ry="18"/>
<text text-anchor="middle" x="811.83" y="-604.893" font-family="Times,serif" font-size="14.00" fill="#ebc72d">Worker</text>
</a>
</g>
</g>
<!-- worker&#45;&gt;round_tent -->
<g id="edge42" class="edge"><title>worker&#45;&gt;round_tent</title>
<path fill="none" stroke="#ebc72d" stroke-width="2" d="M310.83,-520.38C291.483,-475.954 449.45,-443.095 537.425,-428.428"/>
<polygon fill="#ebc72d" stroke="#ebc72d" stroke-width="2" points="538.228,-431.844 547.53,-426.772 537.096,-424.936 538.228,-431.844"/>
</g>
<!-- worker&#45;&gt;campfire -->
<g id="edge38" class="edge"><title>worker&#45;&gt;campfire</title>
<path fill="none" stroke="#ebc72d" stroke-width="2" d="M227.83,-417.953C212.042,-394.746 215.207,-361.491 220.261,-338.612"/>
<polygon fill="#ebc72d" stroke="#ebc72d" stroke-width="2" points="223.733,-339.151 222.737,-328.603 216.938,-337.471 223.733,-339.151"/>
</g>
<!-- worker&#45;&gt;reed -->
<g id="edge41" class="edge"><title>worker&#45;&gt;reed</title>
<path fill="none" stroke="#ebc72d" stroke-width="2" d="M310.83,-520.38C300.515,-496.694 302.141,-466.784 305.34,-445.789"/>
<polygon fill="#ebc72d" stroke="#ebc72d" stroke-width="2" points="308.829,-446.156 307.102,-435.703 301.933,-444.951 308.829,-446.156"/>
</g>
<!-- worker&#45;&gt;big_tent -->
<g id="edge37" class="edge"><title>worker&#45;&gt;big_tent</title>
<path fill="none" stroke="#ebc72d" stroke-width="2" d="M826.119,-591.732C839.268,-575.608 857.13,-549.242 859.83,-522.38"/>
<path fill="none" stroke="#ebc72d" stroke-width="2" d="M859.83,-520.38C862.732,-491.505 843.21,-464.102 824.983,-445.238"/>
<polygon fill="#ebc72d" stroke="#ebc72d" stroke-width="2" points="827.423,-442.729 817.848,-438.194 822.505,-447.71 827.423,-442.729"/>
</g>
<!-- worker&#45;&gt;tent -->
<g id="edge43" class="edge"><title>worker&#45;&gt;tent</title>
<path fill="none" stroke="#ebc72d" stroke-width="2" d="M802.347,-590.758C795.04,-577.787 784.859,-559.712 776.799,-545.403"/>
<polygon fill="#ebc72d" stroke="#ebc72d" stroke-width="2" points="779.817,-543.63 771.86,-536.635 773.718,-547.066 779.817,-543.63"/>
</g>
<!-- worker&#45;&gt;horse_farm -->
<g id="edge39" class="edge"><title>worker&#45;&gt;horse_farm</title>
<path fill="none" stroke="#ebc72d" stroke-width="2" d="M859.83,-520.38C865.596,-463.007 870.387,-396.531 873.181,-354.562"/>
<polygon fill="#ebc72d" stroke="#ebc72d" stroke-width="2" points="876.682,-354.649 873.847,-344.441 869.698,-354.189 876.682,-354.649"/>
</g>
<!-- worker&#45;&gt;totem -->
<g id="edge44" class="edge"><title>worker&#45;&gt;totem</title>
<path fill="none" stroke="#ebc72d" stroke-width="2" d="M774.172,-604.706C660.829,-595.555 329.5,-565.252 310.83,-522.38"/>
<path fill="none" stroke="#ebc72d" stroke-width="2" d="M310.83,-520.38C287.71,-467.291 260.4,-467.83 227.83,-419.953"/>
<path fill="none" stroke="#ebc72d" stroke-width="2" d="M227.83,-417.953C198.185,-374.377 163.212,-391.323 130.83,-349.74 101.781,-312.438 86.1284,-258.632 78.9223,-226.918"/>
<polygon fill="#ebc72d" stroke="#ebc72d" stroke-width="2" points="82.3268,-226.102 76.7952,-217.066 75.4844,-227.579 82.3268,-226.102"/>
</g>
<!-- main_teepee -->
<g id="node21" class="node"><title>main_teepee</title>
<g id="a_node21"><a xlink:href="indian_main_teepee_full.html" xlink:title="Main\nTeepee">
<polygon fill="none" stroke="red" points="985.722,-531.71 936.83,-554.808 887.938,-531.71 887.984,-494.336 985.676,-494.336 985.722,-531.71"/>
<text text-anchor="middle" x="936.83" y="-525.18" font-family="Times,serif" font-size="14.00" fill="#ebc72d">Main</text>
<text text-anchor="middle" x="936.83" y="-510.18" font-family="Times,serif" font-size="14.00" fill="#ebc72d">Teepee</text>
</a>
</g>
</g>
<!-- worker&#45;&gt;main_teepee -->
<g id="edge40" class="edge"><title>worker&#45;&gt;main_teepee</title>
<path fill="none" stroke="#ebc72d" stroke-width="2" d="M841.274,-587.52C858.84,-575.546 881.296,-560.237 900.025,-547.47"/>
<polygon fill="#ebc72d" stroke="#ebc72d" stroke-width="2" points="839.043,-584.805 832.752,-593.33 842.986,-590.589 839.043,-584.805"/>
<polygon fill="#ebc72d" stroke="#ebc72d" stroke-width="2" points="902.046,-550.328 908.337,-541.803 898.103,-544.544 902.046,-550.328"/>
</g>
<!-- iron&#45;&gt;axe_thrower -->
<g id="edge13" class="edge"><title>iron&#45;&gt;axe_thrower</title>
<path fill="none" stroke="#ebc72d" stroke-dasharray="1,5" d="M454.101,-181.518C458.772,-168.69 465.309,-150.734 471.065,-134.927"/>
<polygon fill="#ebc72d" stroke="#ebc72d" points="474.391,-136.022 474.524,-125.428 467.814,-133.627 474.391,-136.022"/>
</g>
<!-- iron&#45;&gt;horseman -->
<g id="edge14" class="edge"><title>iron&#45;&gt;horseman</title>
<path fill="none" stroke="#ebc72d" stroke-dasharray="1,5" d="M464.762,-181.662C472.898,-174.419 483.184,-166.555 493.83,-161.74 578.912,-123.255 609.707,-146.153 700.83,-125.74 716.682,-122.189 733.86,-117.664 749.142,-113.395"/>
<polygon fill="#ebc72d" stroke="#ebc72d" points="750.209,-116.731 758.878,-110.64 748.303,-109.995 750.209,-116.731"/>
</g>
<!-- iron&#45;&gt;axe_indian -->
<g id="edge12" class="edge"><title>iron&#45;&gt;axe_indian</title>
<path fill="none" stroke="#ebc72d" stroke-dasharray="1,5" d="M466.551,-181.465C474.543,-174.697 484.23,-167.251 493.83,-161.74 531.808,-139.94 578.927,-122.939 612.54,-112.322"/>
<polygon fill="#ebc72d" stroke="#ebc72d" points="613.995,-115.535 622.512,-109.233 611.925,-108.848 613.995,-115.535"/>
</g>
<!-- stables&#45;&gt;horseman -->
<g id="edge30" class="edge"><title>stables&#45;&gt;horseman</title>
<path fill="none" stroke="#ebc72d" stroke-dasharray="1,5" d="M861.721,-181.518C848.789,-165.733 829.498,-142.186 814.951,-124.43"/>
<polygon fill="#ebc72d" stroke="#ebc72d" points="817.284,-121.755 808.239,-116.238 811.869,-126.192 817.284,-121.755"/>
</g>
<!-- bull_food&#45;&gt;bull -->
<g id="edge3" class="edge"><title>bull_food&#45;&gt;bull</title>
<path fill="none" stroke="#ebc72d" stroke-dasharray="1,5" d="M415.42,-287.398C423.09,-282.337 431.512,-277.409 439.83,-273.74 501.769,-246.421 524.265,-261.025 587.83,-237.74 603.133,-232.135 619.407,-224.23 632.785,-217.165"/>
<polygon fill="#ebc72d" stroke="#ebc72d" points="634.822,-220.043 641.96,-212.214 631.497,-213.883 634.822,-220.043"/>
</g>
</g>
</svg>
